<svg id="Twitter" xmlns="http://www.w3.org/2000/svg" viewBox="0 0 123.5 50"><defs><style>.cls-1{fill:#8c8c8c;}.cls-2{fill:#c60404;}</style></defs><title>tweetlink</title><polygon class="cls-1" points="103.25 15.09 104.21 14.02 105.43 14.54 104.72 13.32 105.58 12.3 104.23 12.59 103.5 11.46 103.36 12.8 102.06 13.18 103.41 13.67 103.25 15.09"/><path class="cls-1" d="M109,0a25,25,0,1,0,25,25A25,25,0,0,0,109,0ZM95,13.66l.6.37.13,1.31.93-1.12,1.25.52-.53-1.33.93-.7h-1l7-3.06,0,1.13,1-1,1.13.47-.56-.94L106,9l2.47-1.32,1.78.85-1,.55.92.45,0,1.16,1-.82,1.18.16-.52-1,8.4,3.84-1.17.62,1,.54L120,15l1-.59,1,.22-.53-1,.41-.32,8.93,4-.4.29L126.69,16H91.38l-3.72,1.75-.26-.37ZM124.32,21h1.77l1.15,1.57L128,21h1.89l-2,3v2.13h-1.56V24Zm.07-1.51h-.34l-.9-1.78v1.82h-.37l0-2.48h.42l1,1.89,1-1.89h.48v2.48h-.35l0-1.81Zm.66,5.39v1.22H121V21h1.53l.06,3.88Zm-4.79-5.35-.53-.78h-1.29l-.39.79h-.37L118.91,17h.25l1.54,2.48Zm0,5.35v1.22H116.2V21h1.53l.06,3.88ZM93,26.69c2.13-.27,8.55-.13,8.55-.13s-.27.41.74.6,1.09-.33,1.09-.33l1.81.13.5,1.1-1,1s-8.62-.73-11.25-.32a41.82,41.82,0,0,0-5.62,1.32v-2A17,17,0,0,1,93,26.69Zm-3-6.61a2.09,2.09,0,0,1,1.38-.5c.62.13,1.16.84,0,2a1.18,1.18,0,0,1-1,0c-.38-.25-.29-.37-1-.5S90,20.08,90,20.08Zm4.59,1.21c-.13-.25,1-.75,1-.75.63-.65,1.2.2,1.28.77s.93.65,1.1,1.11-.71.41-1,.41-.33-.79-.67-.83.09.21-.54.58S94.75,21.54,94.63,21.29Zm8.1,4c0-.41.43-.08.75.25s-.06.22-.2.58,0,.81-.55.79c-.82,0-.76-.33-.63-.53a2.11,2.11,0,0,1,.63-.44A3.7,3.7,0,0,1,102.73,25.3Zm-1.65.56c-.35-.3-.22-.58-.35-.78-.39-.64-.89-.08-.85-.42s.48-.72,1.17-.41,1.11.56,1,1S101.42,26.16,101.08,25.86Zm.23-2.25c-.51,0-.22-.42-.87-.41s-.56.25-1.17.24-.3-.55.09-.81,1.59,0,1.59,0c.71.35,1.63-.07,1.77.32S101.83,23.61,101.31,23.61Zm2.49,2.16a.61.61,0,0,0-.39-.77c-1.6-.52-1.08-1-.68-1.17s.79.5,1.36.59c0,0,0-.11.57-.12s1.27.2,1.45.74c.3.91-.5.65-.84,1S103.69,26.41,103.8,25.77Zm2.6-.82c-.21-.84-2.17-1-2.48-.93s-1-.69-1-.69V17h2.78V23.8h4.16v2.35h-3.82A1.09,1.09,0,0,0,106.4,25Zm3.31-5.53V17.33h-1.13V17h2.5v.29h-1v2.09Zm2.45,1.52h1.62l2,5.21h-1.45l-.48-1-1.8,0-.33.94h-1.44Zm3.28-2.79v.25h-1.83v.77h1.83v.35h-2.06V17h2.06v.34h-1.83v.77ZM87.4,22c0-.33.64-1,.64-1l.67-.43c.3-.19.27.32.07.85S88.17,21,88,22C88,22.71,87.4,22.33,87.4,22Zm17.91,10.07S97.25,31.33,94,31.7a34.85,34.85,0,0,0-6.15,1.36v-2c4.22-2.39,16.65-1.61,16.89-1.26A4.15,4.15,0,0,1,105.31,32.07Zm.28.62c-.5-.25.75-.66,0-1.91s-.66-1.75,0-2.12.56-.32.21-.94-.28-1.47.32-.76,1.19.3,2,.76c1.25.72,1.12,1.62,1.94,2.16s.24,1.11-.41,1.43-1.27-.62-1.86.5C107,33.39,106.09,32.94,105.59,32.69Zm25.09-.15c-.41.73-6.85,1.44-11.58,1.33a87.14,87.14,0,0,1-11.39-1.35,2.6,2.6,0,0,1,1.48-.71,3.06,3.06,0,0,0,1.69-1.14,57.79,57.79,0,0,0,10.7,1.06,34.59,34.59,0,0,0,9.1-1.27Zm0-3c-.54.63-6.78,1.52-10.66,1.4a94.42,94.42,0,0,1-9.49-1,5.44,5.44,0,0,0-2.2-2.42s6.15.58,11.4,1a42.77,42.77,0,0,0,11-1Z" transform="translate(-10.54 0.05)"/><polygon class="cls-1" points="97.21 15.09 98.16 14.02 99.38 14.54 98.67 13.32 99.53 12.3 98.19 12.59 97.45 11.46 97.31 12.8 96.02 13.18 97.36 13.67 97.21 15.09"/><polygon class="cls-1" points="108.04 18.47 109.08 18.47 108.51 17.54 108.04 18.47"/><polygon class="cls-1" points="90.79 15.29 91.75 14.23 92.97 14.75 92.26 13.53 93.12 12.51 91.77 12.8 91.04 11.67 90.9 13.01 89.6 13.39 90.95 13.88 90.79 15.29"/><polygon class="cls-1" points="102.43 22 101.79 24.1 103.07 24.1 102.43 22"/><polygon class="cls-2" points="34.46 18.01 35.49 18.01 34.93 17.08 34.46 18.01"/><polygon class="cls-2" points="28.85 21.54 28.21 23.64 29.48 23.64 28.85 21.54"/><polygon class="cls-2" points="17.21 14.83 18.17 13.77 19.38 14.29 18.68 13.07 19.54 12.05 18.19 12.34 17.46 11.21 17.32 12.55 16.02 12.93 17.37 13.42 17.21 14.83"/><polygon class="cls-2" points="29.67 14.63 30.62 13.56 31.84 14.08 31.14 12.86 32 11.84 30.65 12.13 29.91 11 29.77 12.34 28.48 12.72 29.82 13.21 29.67 14.63"/><polygon class="cls-2" points="23.62 14.63 24.58 13.56 25.8 14.08 25.09 12.86 25.95 11.84 24.6 12.13 23.87 11 23.73 12.34 22.43 12.72 23.78 13.21 23.62 14.63"/><path class="cls-2" d="M35.54,0a25,25,0,1,0,25,25A25,25,0,0,0,35.54,0ZM21.45,13.2l.59.37.14,1.31.92-1.12,1.25.52L23.82,13l.94-.7h-1l7-3.06,0,1.13,1-1,1.13.47-.57-.94.13-.37,2.47-1.32L36.7,8l-1,.55.93.45,0,1.16,1-.82,1.17.16-.52-1,8.41,3.84L45.53,13l1,.54-.12,1,1-.59,1,.21-.53-1,.4-.31,8.94,4-.41.28L53.1,15.57H17.79l-3.72,1.75L13.82,17Zm29.29,7.33H52.5l1.16,1.57.8-1.57h1.89l-2,3v2.13H52.78v-2.1ZM50.81,19h-.35l-.89-1.78v1.82H49.2l0-2.48h.41l1,1.89,1-1.89h.48v2.48h-.35l0-1.81Zm.66,5.39v1.22H47.38v-5.1h1.53L49,24.41Zm-4.8-5.35-.52-.78h-1.3l-.38.79h-.38l1.23-2.48h.26l1.53,2.48Zm0,5.35v1.22h-4.1v-5.1h1.53l.07,3.88ZM19.45,26.23C21.57,26,28,26.1,28,26.1s-.26.41.74.6,1.09-.33,1.09-.33l1.82.13.5,1.1-1,1s-8.62-.73-11.25-.32a42.2,42.2,0,0,0-5.63,1.32v-2A17.08,17.08,0,0,1,19.45,26.23Zm-3-6.61a2.08,2.08,0,0,1,1.37-.5c.63.13,1.17.84,0,2a1.18,1.18,0,0,1-1,0c-.37-.25-.29-.37-1-.5S16.46,19.62,16.46,19.62ZM21,20.83c-.12-.25,1-.75,1-.75.62-.65,1.19.2,1.28.77s.93.65,1.09,1.11-.7.41-1,.41-.33-.79-.66-.83.08.21-.54.58S21.17,21.08,21,20.83Zm8.11,4c0-.41.42-.08.75.25s-.06.22-.2.57,0,.82-.55.8c-.83,0-.76-.33-.63-.53a2.11,2.11,0,0,1,.63-.44A3.7,3.7,0,0,1,29.15,24.84Zm-1.66.56c-.34-.3-.21-.58-.34-.78-.39-.64-.89-.08-.86-.42s.49-.72,1.17-.41,1.11.56,1.05,1S27.84,25.7,27.49,25.4Zm.24-2.25c-.52,0-.22-.42-.88-.41s-.56.25-1.17.24-.29-.55.1-.82,1.59,0,1.59,0c.7.36,1.62-.06,1.77.33S28.24,23.15,27.73,23.15Zm2.48,2.16c.11-.65-.38-.77-.38-.77-1.6-.52-1.09-1-.68-1.17s.78.5,1.36.59c0,0,0-.11.56-.12s1.28.2,1.45.74c.3.91-.49.65-.84,1S30.1,26,30.21,25.31Zm2.6-.82c-.21-.84-2.16-1-2.48-.93s-1-.69-1-.69V16.58h2.79v6.76h4.15v2.35H32.48A1.08,1.08,0,0,0,32.81,24.49ZM36.12,19V16.87H35v-.29h2.5v.29h-1V19Zm2.45,1.52H40.2l2,5.21H40.77l-.47-1-1.8,0-.33.94H36.73Zm3.28-2.79v.25H40v.77h1.83v.35H39.79V16.58h2.06v.33H40v.78Zm-28,3.85c0-.33.64-1,.64-1l.66-.43c.31-.19.28.32.07.85s-.61-.35-.73.62C14.37,22.25,13.82,21.87,13.82,21.54ZM31.73,31.61s-8.06-.74-11.28-.37a35.09,35.09,0,0,0-6.16,1.36v-2C18.52,28.23,31,29,31.18,29.36A4.2,4.2,0,0,1,31.73,31.61Zm.28.62c-.5-.25.75-.66,0-1.91s-.67-1.75,0-2.12.55-.32.21-.94-.28-1.47.31-.76,1.2.3,2,.76c1.25.72,1.13,1.62,2,2.16s.24,1.11-.42,1.43-1.26-.62-1.85.5C33.38,32.93,32.51,32.48,32,32.23Zm25.08-.15c-.4.73-6.84,1.44-11.57,1.33a87.14,87.14,0,0,1-11.4-1.35,2.65,2.65,0,0,1,1.48-.71,3,3,0,0,0,1.69-1.14A58,58,0,0,0,48,31.27,34.46,34.46,0,0,0,57.09,30Zm0-3c-.53.63-6.78,1.52-10.65,1.4a94.38,94.38,0,0,1-9.5-1,5.38,5.38,0,0,0-2.19-2.42s6.15.58,11.4,1a42.66,42.66,0,0,0,10.94-1Z" transform="translate(-10.54 0.05)"/></svg>