<?xml version="1.0" standalone="no"?>
<!DOCTYPE svg PUBLIC "-//W3C//DTD SVG 20010904//EN"
 "http://www.w3.org/TR/2001/REC-SVG-20010904/DTD/svg10.dtd">
<svg version="1.0" xmlns="http://www.w3.org/2000/svg"
 width="184.000000pt" height="184.000000pt" viewBox="0 0 184.000000 184.000000"
 preserveAspectRatio="xMidYMid meet">
<metadata>
Created by potrace 1.11, written by Peter Selinger 2001-2013
</metadata>
<g transform="translate(0.000000,184.000000) scale(0.100000,-0.100000)"
fill="#000000" stroke="none">
<path d="M745 1813 c-30 -6 -117 -33 -140 -43 -47 -19 -140 -64 -145 -69 -3
-4 -25 -19 -50 -35 -69 -45 -181 -162 -238 -249 -29 -43 -52 -85 -52 -93 0 -8
-5 -14 -10 -14 -6 0 -10 -6 -8 -12 1 -7 -3 -23 -10 -35 -7 -13 -10 -23 -6 -23
3 0 1 -6 -5 -13 -6 -8 -13 -24 -15 -38 -3 -13 -5 -24 -6 -24 -2 0 -10 -35 -16
-70 -15 -90 -23 -245 -12 -245 3 0 5 -14 4 -30 -1 -16 1 -30 4 -30 3 0 7 -14
8 -32 2 -18 9 -45 17 -60 7 -16 9 -28 4 -28 -6 0 -3 -7 5 -16 19 -19 20 -31 4
-37 -8 -4 -7 -6 4 -6 15 -1 35 -52 30 -74 -1 -4 5 -7 14 -7 8 0 13 -4 10 -9
-4 -5 -1 -11 4 -13 6 -2 12 -13 13 -25 0 -12 5 -19 9 -17 8 5 12 -11 9 -29 -1
-5 3 -6 8 -3 9 6 26 -22 23 -36 -1 -5 4 -8 11 -8 8 0 19 -11 25 -25 7 -14 19
-28 27 -31 8 -4 12 -10 9 -15 -3 -5 2 -9 11 -9 9 0 13 -5 10 -10 -3 -6 2 -10
11 -10 10 0 14 -3 11 -7 -4 -3 3 -11 16 -18 12 -6 21 -17 19 -24 -1 -7 2 -10
7 -7 5 4 19 -4 30 -16 12 -12 21 -18 21 -14 0 4 6 1 14 -6 8 -7 11 -17 8 -22
-3 -5 0 -6 5 -3 11 7 103 -38 114 -55 3 -5 10 -9 15 -8 8 1 21 -2 57 -15 4 -1
14 -3 23 -4 11 -1 14 -7 10 -17 -5 -14 -4 -15 8 -5 11 9 17 8 30 -4 9 -9 16
-12 16 -6 0 6 7 11 16 11 8 0 13 -4 10 -9 -3 -4 8 -7 24 -5 17 2 30 0 30 -5 0
-5 10 -7 22 -3 12 3 19 1 15 -5 -3 -5 0 -10 8 -10 8 0 12 4 9 9 -8 13 10 10
25 -5 11 -9 13 -9 7 1 -11 18 5 15 20 -5 10 -13 12 -13 9 -3 -4 12 4 15 35 15
22 0 40 -4 40 -10 0 -6 4 -5 8 1 7 11 84 25 149 28 17 0 29 4 26 9 -4 6 20 11
40 8 4 0 7 3 7 9 0 6 3 9 8 8 8 -1 39 9 64 23 10 5 25 9 33 9 8 0 15 3 15 8 0
8 65 45 75 43 3 -1 16 9 29 21 29 29 64 53 76 53 4 0 12 4 17 9 5 6 2 6 -7 1
-8 -5 -4 4 9 18 13 15 28 24 34 20 6 -3 7 -1 3 5 -3 6 0 14 7 19 8 4 22 20 32
36 15 23 20 25 34 15 13 -10 14 -10 4 2 -14 15 1 55 17 45 6 -3 7 1 4 9 -4 10
-1 16 10 16 10 0 13 5 9 17 -5 12 -3 14 7 8 10 -6 12 -4 7 8 -3 8 0 21 8 27 7
6 16 22 19 36 4 15 11 22 18 18 7 -4 8 -3 4 4 -4 7 -1 26 7 44 20 45 29 69 33
93 2 11 8 42 14 70 6 27 8 55 6 60 -4 12 -201 14 -212 2 -5 -4 -9 -14 -11 -22
-6 -28 -11 -50 -13 -50 -1 0 -3 -11 -6 -25 -5 -33 -84 -190 -95 -190 -5 0 -9
-5 -9 -11 0 -20 -103 -119 -170 -163 -149 -99 -359 -136 -525 -92 -58 15 -77
23 -125 46 -77 37 -104 53 -113 67 -4 7 -12 13 -17 13 -12 0 -75 62 -110 108
-14 18 -33 42 -42 54 -10 11 -15 25 -12 29 3 5 1 9 -4 9 -12 0 -55 98 -47 109
3 5 0 11 -5 13 -15 5 -40 128 -26 128 8 0 7 3 0 8 -15 9 -11 152 6 223 15 65
50 149 62 149 5 0 7 4 3 9 -3 5 2 16 10 25 9 8 15 18 15 21 -1 14 33 54 43 48
5 -3 7 -1 3 5 -7 12 35 62 53 62 6 0 10 6 9 13 -2 6 3 11 10 9 6 -1 12 4 12
10 0 14 69 65 82 61 4 -2 8 2 8 8 0 6 7 9 15 5 9 -3 15 0 15 9 0 8 9 15 20 15
11 0 20 4 20 8 0 9 16 13 63 14 17 0 24 4 17 8 -16 10 -1 18 28 15 12 -1 22 2
22 7 0 4 3 7 8 7 23 -4 38 4 49 26 6 14 8 23 4 20 -4 -2 -8 24 -8 58 -2 124 1
117 -35 116 -18 -1 -42 -3 -53 -6z"/>
<path d="M1017 1813 c-2 -5 -5 -52 -5 -105 -1 -89 1 -99 21 -113 16 -11 23
-12 29 -2 5 9 8 7 8 -4 0 -24 26 -44 36 -28 4 7 3 9 -4 5 -10 -6 -28 11 -20
19 7 7 82 -22 86 -33 1 -5 12 -8 22 -5 12 3 20 0 20 -6 0 -7 5 -9 10 -6 6 3
10 -2 10 -12 0 -15 2 -16 10 -3 6 10 10 11 10 3 0 -7 6 -13 13 -13 30 0 202
-163 191 -181 -4 -8 -3 -9 4 -5 11 6 16 -6 13 -26 0 -5 6 -8 14 -8 14 0 16 -5
19 -38 1 -7 7 -16 14 -20 16 -10 65 -151 59 -172 -6 -25 15 -37 66 -35 32 2
44 -1 40 -9 -4 -6 1 -5 10 3 9 7 17 9 17 4 0 -5 7 -10 15 -10 8 0 12 4 10 8
-3 4 6 6 20 5 14 0 25 -5 25 -9 0 -5 7 -1 16 7 14 15 17 93 4 106 -8 7 -33
102 -34 127 -1 11 -4 19 -7 17 -6 -4 -19 18 -24 41 -3 11 -59 104 -90 150 -25
35 -175 188 -175 177 0 -4 -6 0 -13 8 -17 22 -121 84 -192 113 -107 45 -236
71 -248 50z"/>
<path d="M760 1364 c-19 -8 -43 -17 -52 -20 -10 -4 -18 -10 -18 -14 0 -5 -8
-11 -19 -15 -41 -13 -161 -153 -161 -188 0 -9 -4 -17 -9 -19 -13 -5 -38 -128
-35 -171 3 -26 0 -36 -8 -31 -7 5 -8 3 -2 -7 10 -17 15 -36 17 -66 0 -13 4
-23 8 -23 7 0 22 -53 19 -66 -1 -3 6 -11 16 -18 9 -7 14 -18 10 -25 -5 -7 -2
-10 6 -9 7 2 14 -7 16 -20 2 -12 7 -20 11 -17 4 2 13 -6 20 -18 7 -12 27 -33
46 -47 18 -14 31 -29 27 -34 -3 -5 0 -6 6 -2 6 3 21 -4 33 -16 12 -13 19 -17
15 -11 -5 8 -2 11 7 7 8 -3 20 -15 26 -27 6 -12 9 -14 7 -5 -5 15 -2 16 37 1
23 -8 53 -16 67 -18 14 -2 25 -4 25 -5 0 -1 21 -3 48 -4 26 -1 47 3 47 9 0 5
5 3 10 -5 7 -12 10 -12 10 -1 0 7 6 11 15 7 8 -3 15 -1 15 4 0 6 11 10 24 10
30 0 116 38 116 51 0 6 5 7 10 4 6 -4 23 5 38 19 15 14 36 33 47 42 11 8 13
13 5 9 -8 -4 -3 5 12 18 15 14 24 28 20 33 -4 4 0 5 9 1 13 -4 16 -1 11 15 -3
15 -1 19 7 14 6 -4 11 -4 10 1 -4 14 13 63 20 63 4 0 8 6 9 13 0 6 3 22 6 35
6 26 12 24 -122 26 -85 1 -103 -2 -107 -15 -8 -25 -56 -73 -98 -98 -25 -15
-58 -24 -96 -26 -59 -4 -131 11 -131 27 0 4 -6 8 -12 8 -22 0 -84 78 -97 122
-8 24 -13 62 -13 85 1 41 30 123 44 123 5 0 8 7 8 15 0 8 10 20 22 26 12 6 31
20 41 30 11 10 23 17 26 15 5 -4 5 48 2 202 -1 25 -18 27 -71 6z"/>
<path d="M1011 1333 c-2 -26 -2 -55 -2 -63 1 -8 1 -36 1 -61 -1 -44 2 -48 50
-85 47 -35 55 -46 51 -67 -1 -5 3 -6 8 -3 5 4 12 -3 16 -14 4 -11 11 -18 16
-15 5 4 9 0 9 -7 0 -9 3 -9 10 2 8 12 11 13 19 1 6 -9 11 -10 15 -2 4 6 12 11
17 11 6 0 7 -5 3 -12 -5 -7 -3 -8 7 -2 18 11 41 11 57 0 7 -5 18 -4 27 4 8 7
21 10 30 7 8 -4 17 -1 21 5 8 12 -27 118 -39 118 -4 0 -5 5 -2 10 3 6 2 10 -2
10 -5 0 -16 12 -25 28 -44 73 -178 169 -253 179 -32 4 -32 4 -34 -44z"/>
<path d="M1190 66 c0 -2 7 -7 16 -10 8 -3 12 -2 9 4 -6 10 -25 14 -25 6z"/>
</g>
</svg>
