<?xml version="1.0" standalone="no"?>
<!DOCTYPE svg PUBLIC "-//W3C//DTD SVG 20010904//EN"
 "http://www.w3.org/TR/2001/REC-SVG-20010904/DTD/svg10.dtd">
<svg version="1.0" xmlns="http://www.w3.org/2000/svg"
 width="300.000000pt" height="300.000000pt" viewBox="0 0 300.000000 300.000000"
 preserveAspectRatio="xMidYMid meet">
<metadata>
Created by potrace 1.11, written by Peter Selinger 2001-2013
</metadata>
<g transform="translate(0.000000,300.000000) scale(0.100000,-0.100000)"
fill="#000000" stroke="none">
<path d="M1380 2967 c-3 -2 -32 -7 -65 -10 -122 -12 -240 -44 -375 -100 -304
-126 -555 -345 -722 -631 -69 -117 -149 -327 -164 -431 -3 -16 -7 -37 -10 -45
-11 -32 -18 -140 -18 -265 0 -159 9 -232 46 -370 90 -338 322 -661 613 -851
177 -116 416 -207 605 -232 70 -9 371 -9 430 0 227 34 425 111 619 241 101 68
103 69 221 187 195 195 328 431 390 695 31 128 34 160 34 350 0 146 -4 198
-22 277 -88 402 -320 740 -654 954 -156 100 -374 186 -531 209 -23 4 -60 10
-83 14 -45 9 -306 15 -314 8z m244 -102 c55 -3 102 -8 105 -10 4 -2 27 -6 51
-10 78 -12 253 -73 354 -125 392 -199 664 -569 740 -1006 16 -92 18 -307 5
-409 -23 -169 -109 -401 -202 -546 -259 -403 -701 -644 -1177 -642 -98 1 -194
9 -256 23 -27 7 -60 14 -73 16 -56 11 -212 69 -286 107 -390 199 -660 556
-741 982 -25 131 -25 383 0 500 19 89 30 130 52 195 142 410 468 727 888 865
119 39 372 79 431 68 6 -1 55 -4 109 -8z"/>
<path d="M1385 2792 c-27 -2 -147 -24 -201 -36 -204 -44 -436 -177 -605 -346
-276 -276 -413 -655 -375 -1042 66 -679 644 -1189 1330 -1173 241 6 442 62
636 177 725 432 864 1406 287 2014 -179 189 -439 336 -666 379 -14 2 -49 9
-79 16 -50 10 -261 18 -327 11z m-528 -937 c58 -26 119 -94 133 -146 22 -82
-3 -167 -65 -216 -37 -29 -44 -43 -22 -43 26 0 96 -72 123 -126 23 -47 26 -64
22 -117 -14 -173 -151 -287 -332 -275 -136 9 -227 84 -264 220 l-10 36 40 4
c40 4 40 3 63 -48 28 -64 67 -101 126 -118 146 -44 288 47 291 187 2 108 -90
186 -236 199 -27 3 -30 7 -32 41 -1 21 3 38 10 39 6 0 16 2 21 2 48 7 110 34
138 61 97 94 23 236 -123 238 -63 0 -107 -26 -150 -91 -32 -49 -36 -52 -76
-52 l-43 0 9 31 c13 44 54 110 85 137 73 63 202 79 292 37z m762 -7 l23 -16
-121 -181 c-67 -99 -121 -183 -121 -186 0 -4 5 -3 11 1 22 13 125 11 164 -4
179 -68 232 -308 99 -445 -59 -60 -116 -82 -214 -82 -74 0 -91 3 -130 27 -94
55 -138 132 -138 243 0 102 24 151 210 429 171 256 166 251 217 214z m656 4
c95 -50 158 -145 182 -277 10 -54 10 -278 0 -338 -21 -131 -87 -231 -182 -278
-57 -28 -71 -31 -132 -27 -111 7 -187 57 -237 157 -38 75 -54 161 -55 305 -2
115 2 155 23 252 6 28 51 113 73 140 25 29 82 69 118 83 47 17 163 8 210 -17z"/>
<path d="M1400 1387 c-103 -49 -148 -144 -115 -242 27 -77 98 -127 180 -128
199 -2 268 269 92 360 -39 20 -125 26 -157 10z"/>
<path d="M2084 1780 c-106 -48 -145 -143 -149 -353 -3 -190 22 -295 86 -358
101 -99 248 -71 314 60 46 91 64 319 35 446 -14 62 -53 141 -83 166 -63 55
-138 69 -203 39z"/>
</g>
</svg>
