<?xml version="1.0" standalone="no"?>
<!DOCTYPE svg PUBLIC "-//W3C//DTD SVG 20010904//EN"
 "http://www.w3.org/TR/2001/REC-SVG-20010904/DTD/svg10.dtd">
<svg version="1.0" xmlns="http://www.w3.org/2000/svg"
 width="16.000000pt" height="16.000000pt" viewBox="0 0 16.000000 16.000000"
 preserveAspectRatio="xMidYMid meet">
<metadata>
Created by potrace 1.11, written by Peter Selinger 2001-2013
</metadata>
<g transform="translate(0.000000,16.000000) scale(0.005333,-0.005333)"
fill="#000000" stroke="none">
<path d="M1500 2530 c-30 -4 -80 -10 -111 -14 -31 -4 -67 -9 -80 -11 -13 -3
-37 -8 -54 -11 -520 -94 -918 -264 -1140 -488 -94 -94 -114 -142 -113 -263 l0
-73 47 -38 c25 -21 62 -50 82 -64 l37 -27 -26 72 c-67 190 -10 311 209 440
228 133 757 326 970 353 24 3 50 7 57 9 70 23 415 27 510 6 34 -7 62 -16 62
-18 0 -9 -100 -125 -177 -208 -42 -44 -225 -231 -407 -415 -337 -342 -403
-410 -491 -515 -27 -33 -59 -70 -70 -83 -100 -118 -190 -275 -199 -346 -6 -50
30 -92 72 -81 53 13 86 40 408 340 78 73 269 241 344 302 14 12 54 45 90 75
328 274 709 509 1004 617 61 23 76 23 54 0 -7 -8 -49 -54 -92 -104 -43 -49
-91 -103 -105 -120 -15 -16 -74 -86 -131 -155 -58 -69 -110 -130 -117 -137
-67 -72 -410 -561 -462 -658 -26 -50 -27 -96 -2 -119 24 -21 81 -29 116 -16
21 8 99 64 125 90 3 3 37 32 75 65 39 33 75 64 81 70 109 99 213 190 262 231
13 10 36 29 50 42 33 28 283 195 377 252 l69 42 -90 -95 c-189 -200 -336 -453
-381 -657 -11 -49 -5 -156 12 -204 35 -103 84 -140 173 -132 31 3 77 5 102 5
l45 1 -60 29 c-68 32 -140 105 -153 155 -8 30 -7 101 2 141 35 159 196 411
417 657 97 107 109 123 109 150 0 53 -72 105 -128 92 -48 -11 -184 -84 -297
-158 -194 -128 -312 -221 -709 -566 -22 -19 -36 -28 -31 -20 41 71 154 237
228 335 80 106 329 412 347 425 28 21 250 276 277 318 42 65 51 120 25 152
-15 19 -30 24 -73 25 -116 3 -228 -38 -429 -158 -114 -68 -713 -469 -770 -515
-86 -70 -337 -291 -430 -378 -30 -28 -68 -64 -85 -79 -16 -14 -55 -50 -85 -79
-74 -71 -93 -80 -47 -23 20 26 54 68 75 94 20 26 48 61 62 77 110 128 257 283
496 526 144 146 276 281 294 300 18 19 58 62 89 95 128 135 232 256 247 289
23 46 12 77 -34 103 -72 40 -157 56 -317 58 -82 2 -175 -1 -205 -5z"/>
</g>
</svg>
