<?xml version="1.0" standalone="no"?>
<!DOCTYPE svg PUBLIC "-//W3C//DTD SVG 20010904//EN"
 "http://www.w3.org/TR/2001/REC-SVG-20010904/DTD/svg10.dtd">
<svg version="1.0" xmlns="http://www.w3.org/2000/svg"
 width="16.000000pt" height="16.000000pt" viewBox="0 0 16.000000 16.000000"
 preserveAspectRatio="xMidYMid meet">
<metadata>
Created by potrace 1.11, written by Peter Selinger 2001-2013
</metadata>
<g transform="translate(0.000000,16.000000) scale(0.005333,-0.005333)"
fill="#000000" stroke="none">
<path d="M1337 2948 c-63 -17 -136 -110 -137 -174 0 -21 1 -22 50 -7 33 10 83
13 150 11 l100 -3 0 82 c0 45 -5 85 -10 88 -19 12 -115 14 -153 3z"/>
<path d="M1543 2950 c-21 -9 -23 -16 -23 -92 l0 -83 71 3 c65 3 175 -9 215
-25 15 -5 16 -1 10 33 -13 68 -56 135 -101 155 -43 20 -134 24 -172 9z"/>
<path d="M1165 2926 c-86 -28 -132 -55 -176 -103 -45 -48 -85 -110 -76 -119 2
-2 30 5 63 16 32 12 92 23 132 27 l72 6 12 45 c6 24 26 64 44 87 26 35 30 45
17 49 -21 9 -43 6 -88 -8z"/>
<path d="M1760 2937 c0 -3 12 -23 26 -44 14 -21 32 -63 41 -93 l15 -56 64 -2
c59 -3 139 -19 188 -38 18 -7 18 -5 -4 32 -46 77 -110 142 -164 169 -49 24
-166 46 -166 32z"/>
<path d="M927 2846 c-59 -24 -73 -34 -135 -91 -27 -24 -91 -125 -80 -125 2 0
25 11 51 25 27 13 68 27 93 31 28 4 44 11 44 21 0 24 30 73 72 119 46 50 38
54 -45 20z"/>
<path d="M2034 2833 c20 -21 50 -63 68 -95 30 -50 37 -57 73 -62 22 -4 64 -17
93 -31 66 -30 61 -19 -33 83 -49 52 -85 81 -137 107 -92 45 -109 45 -64 -2z"/>
<path d="M2268 2713 c21 -27 52 -67 67 -90 15 -24 35 -43 45 -43 9 0 34 -11
54 -25 45 -30 46 -23 2 29 -58 69 -91 102 -140 140 -65 49 -75 45 -28 -11z"/>
<path d="M694 2706 c-56 -38 -137 -119 -168 -168 -20 -32 -20 -32 32 10 29 23
68 44 87 48 30 5 39 15 70 72 19 36 33 67 32 69 -2 1 -26 -13 -53 -31z"/>
<path d="M1282 2573 c-48 -59 -102 -142 -102 -160 0 -7 -25 -43 -55 -80 -50
-62 -175 -287 -164 -297 2 -2 18 -2 34 1 26 4 42 22 107 121 42 64 88 142 101
173 37 85 92 167 155 232 l56 57 -46 0 c-43 0 -49 -3 -86 -47z"/>
<path d="M1417 2518 c-33 -35 -82 -94 -109 -133 -49 -68 -118 -198 -118 -221
0 -6 -11 -28 -25 -48 -26 -39 -22 -42 35 -26 27 7 40 20 60 57 58 111 178 273
201 273 5 0 9 -69 9 -160 l0 -160 33 0 c31 0 39 7 99 93 73 104 151 197 175
211 14 8 15 -6 8 -149 -7 -171 -7 -175 46 -175 26 0 26 1 33 92 3 50 6 155 6
233 l0 143 -32 13 c-31 13 -32 12 -76 -37 -24 -27 -80 -94 -124 -149 -44 -55
-82 -102 -84 -104 -2 -2 -1 64 3 146 l6 150 -24 6 c-49 13 -64 6 -122 -55z"/>
<path d="M1004 2550 c-83 -17 -112 -35 -120 -76 -9 -50 2 -360 15 -401 5 -18
6 -33 3 -33 -4 0 -42 35 -85 78 l-77 77 46 44 c84 79 94 153 28 210 -39 34
-78 40 -122 17 -45 -23 -59 -48 -65 -113 -10 -93 22 -383 42 -383 25 1 29 18
15 75 -24 104 -21 106 54 34 l67 -65 65 12 c36 6 68 12 73 13 4 1 7 10 7 21 0
11 7 36 14 55 13 29 13 35 1 35 -19 0 -33 109 -15 120 7 5 36 11 65 15 l52 6
2 46 1 46 -43 -6 c-24 -3 -50 -9 -59 -12 -13 -5 -17 3 -19 45 -5 61 1 66 85
76 57 7 57 7 54 38 -3 35 -17 39 -84 26z m-240 -172 c15 -60 -16 -112 -80
-132 -19 -6 -22 -2 -27 44 -11 94 11 132 73 127 20 -2 27 -10 34 -39z"/>
<path d="M1920 2448 c0 -83 -12 -269 -23 -348 -1 -11 9 -16 39 -18 46 -3 46
-4 59 91 7 48 8 48 39 41 94 -20 100 -34 41 -94 -26 -26 -43 -50 -38 -53 24
-14 75 -18 89 -6 15 12 23 7 36 -22 2 -3 24 -9 51 -12 57 -8 58 -3 17 72 -28
51 -29 55 -13 73 9 10 20 18 25 18 13 0 44 -75 59 -142 9 -42 19 -62 37 -74
l25 -16 -6 74 c-3 41 -17 108 -31 150 l-25 77 33 49 c50 75 59 106 35 128 -19
17 -20 17 -37 -7 -9 -13 -31 -39 -48 -58 l-31 -34 -51 69 c-73 99 -84 112
-110 119 -21 6 -21 3 13 -63 19 -39 35 -73 35 -77 0 -3 11 -31 26 -60 21 -45
23 -58 14 -76 -15 -27 -23 -17 -45 51 -23 72 -59 144 -102 203 -31 42 -39 47
-74 47 l-39 0 0 -102z m134 -109 c16 -27 26 -52 24 -55 -3 -2 -19 -1 -36 2
-24 5 -32 12 -32 28 0 11 -3 39 -7 61 -5 35 -4 38 9 28 8 -7 27 -36 42 -64z"/>
<path d="M1082 2090 c-13 -21 -6 -26 15 -12 7 4 9 13 5 19 -6 9 -11 6 -20 -7z"/>
<path d="M1268 1799 c-19 -7 -28 -18 -28 -32 0 -29 93 -615 135 -852 47 -261
48 -266 35 -235 -14 37 -72 363 -130 735 -28 182 -55 340 -60 353 -9 20 -16
22 -82 22 -71 0 -128 -11 -157 -29 -25 -16 150 -514 337 -958 33 -79 57 -143
53 -143 -8 0 -154 348 -230 548 -27 70 -79 221 -117 335 l-69 209 -75 -4 c-50
-2 -85 -9 -102 -20 l-27 -18 16 -47 c36 -107 246 -499 390 -729 83 -133 156
-252 163 -265 38 -74 -33 32 -172 256 -163 262 -292 499 -364 669 -35 82 -47
101 -64 100 -60 -2 -78 -5 -96 -18 -19 -14 -18 -16 14 -81 43 -89 144 -254
203 -335 26 -36 140 -189 253 -340 113 -151 203 -277 199 -280 -3 -3 -13 6
-22 20 -9 14 -119 162 -244 329 -230 307 -294 401 -382 566 -27 50 -49 92 -51
93 -1 2 -16 -4 -33 -14 -21 -12 -31 -26 -31 -43 0 -50 220 -364 373 -532 132
-146 205 -229 276 -314 86 -104 94 -115 88 -115 -3 0 -55 59 -117 131 -61 71
-154 177 -207 234 -132 144 -219 256 -331 423 -83 125 -97 141 -110 129 -12
-13 -9 -24 28 -88 87 -151 220 -317 415 -519 271 -281 313 -327 319 -348 6
-17 12 -21 24 -16 10 4 72 9 140 12 117 4 122 4 122 -16 0 -20 24 -32 67 -32
20 0 22 -6 25 -75 l3 -75 -137 0 c-86 0 -138 -4 -138 -10 0 -5 4 -10 8 -10 17
0 62 -98 62 -134 0 -20 5 -36 10 -36 6 0 10 10 10 22 l0 22 20 -22 c17 -18 20
-35 20 -107 l0 -87 33 7 c17 4 35 9 40 12 4 2 7 41 7 86 0 45 9 118 18 162 15
67 22 80 40 83 17 3 24 16 37 80 29 133 32 139 124 225 249 234 480 490 599
665 85 126 108 170 95 183 -8 8 -23 -7 -54 -53 -123 -181 -309 -409 -544 -666
-116 -126 -163 -171 -174 -166 -9 3 -22 7 -28 7 -7 0 -13 2 -13 4 0 3 56 97
124 211 243 407 456 790 456 820 0 22 -83 55 -138 55 -29 0 -54 -2 -55 -4 -2
-2 -25 -67 -52 -144 -50 -145 -334 -866 -360 -913 -31 -59 -11 -1 79 221 162
398 316 807 316 837 0 18 -93 43 -167 44 l-76 1 -33 -190 c-76 -442 -169 -939
-172 -923 -2 9 24 166 57 350 72 399 131 738 131 755 0 30 -234 43 -263 14 -8
-8 -12 -173 -15 -566 -3 -305 -8 -555 -11 -555 -4 0 -5 250 -3 556 3 363 1
559 -5 565 -15 15 -193 21 -225 8z m282 -1456 c0 -21 -3 -24 -12 -15 -7 7 -18
12 -25 12 -18 0 -16 -37 2 -44 8 -3 15 -11 15 -17 0 -9 -4 -9 -14 0 -16 13
-32 -2 -21 -19 3 -5 -3 -10 -14 -10 -19 0 -21 6 -21 60 l0 60 45 0 c42 0 45
-2 45 -27z m31 -44 c-6 -24 -9 -28 -10 -12 -1 24 9 56 16 50 2 -3 0 -20 -6
-38z"/>
<path d="M2213 1558 c-81 -154 -214 -386 -390 -681 -69 -115 -123 -211 -120
-213 5 -5 160 177 272 321 179 229 433 621 422 650 -8 19 -45 42 -83 50 l-32
6 -69 -133z"/>
<path d="M2376 1553 c-133 -232 -390 -589 -581 -808 -69 -79 -91 -110 -60 -85
33 27 336 363 428 475 108 132 259 333 295 394 l26 44 -28 23 c-15 13 -30 24
-34 24 -4 0 -25 -30 -46 -67z"/>
</g>
</svg>
