<?xml version="1.0" standalone="no"?>
<!DOCTYPE svg PUBLIC "-//W3C//DTD SVG 20010904//EN"
 "http://www.w3.org/TR/2001/REC-SVG-20010904/DTD/svg10.dtd">
<svg version="1.0" xmlns="http://www.w3.org/2000/svg"
 width="16.000000pt" height="16.000000pt" viewBox="0 0 16.000000 16.000000"
 preserveAspectRatio="xMidYMid meet">
<metadata>
Created by potrace 1.11, written by Peter Selinger 2001-2013
</metadata>
<g transform="translate(0.000000,16.000000) scale(0.001912,-0.001912)"
fill="#000000" stroke="none">
<path d="M3594 7649 c-663 -828 -606 -758 -619 -773 -6 -6 -116 -144 -245
-306 -129 -162 -237 -297 -240 -300 -3 -3 -30 -36 -60 -75 -30 -38 -63 -79
-72 -90 -9 -11 -283 -353 -608 -760 -325 -407 -608 -760 -628 -784 -20 -24
-44 -54 -52 -65 -8 -12 -20 -27 -27 -34 -7 -7 -52 -63 -100 -125 -48 -62 -97
-123 -109 -137 -47 -54 -174 -215 -174 -220 1 -3 35 -30 77 -60 41 -30 81 -60
87 -65 10 -10 335 -258 518 -397 42 -32 79 -58 82 -58 2 0 49 55 103 122 54
67 106 132 115 143 9 11 71 88 138 170 67 83 134 166 150 185 15 19 90 112
167 206 76 94 194 241 262 325 745 921 899 1111 986 1219 55 69 106 131 113
138 7 8 25 30 40 50 15 21 29 39 32 42 3 3 35 41 70 85 36 44 72 89 82 100 9
11 83 103 165 205 138 171 332 411 338 418 1 1 40 -44 86 -100 46 -57 88 -108
94 -114 5 -6 24 -29 40 -50 17 -21 56 -70 87 -109 31 -38 91 -113 133 -165 42
-52 84 -104 93 -115 20 -24 391 -483 436 -539 17 -21 47 -58 66 -81 19 -23
172 -212 340 -420 168 -208 310 -383 315 -389 6 -6 46 -56 90 -111 44 -55 82
-102 85 -105 3 -3 41 -50 84 -105 44 -55 82 -102 85 -105 3 -3 80 -97 171
-210 90 -113 252 -313 359 -445 107 -132 196 -242 197 -244 3 -4 47 29 96 71
14 13 37 32 50 42 34 28 142 120 148 126 3 3 34 30 70 60 36 30 70 60 76 65 6
6 77 66 158 133 l146 124 -32 41 c-44 56 -61 77 -73 91 -6 6 -28 34 -50 61
-22 28 -43 52 -46 55 -3 3 -12 14 -20 26 -8 11 -31 41 -51 65 -57 68 -171 209
-308 379 -69 85 -130 162 -137 170 -62 76 -1005 1243 -1293 1600 -16 19 -120
148 -232 286 -112 138 -342 424 -513 635 -170 211 -317 393 -327 404 -9 11
-87 108 -173 215 -87 107 -172 213 -190 235 -18 22 -42 51 -52 64 l-19 24
-580 -724z"/>
<path d="M3718 5049 c-12 -7 -16 -1085 -4 -1096 4 -5 874 -8 919 -4 4 1 7 249
7 551 0 303 -3 550 -7 551 -42 5 -908 2 -915 -2z"/>
<path d="M2172 1935 l0 -1935 2024 0 c1612 0 2024 3 2025 13 0 6 1 876 1 1932
l1 1920 -467 3 -466 2 0 -1465 c0 -1388 -1 -1465 -17 -1466 -24 0 -571 0 -605
0 l-28 1 0 809 0 809 -465 0 -465 0 -1 -32 c0 -17 -1 -381 -1 -809 l0 -777
-72 0 c-96 -1 -463 -1 -501 -1 l-30 1 0 1465 0 1465 -467 0 -466 0 0 -1935z"/>
</g>
</svg>
