<?xml version="1.0" standalone="no"?>
<!DOCTYPE svg PUBLIC "-//W3C//DTD SVG 20010904//EN"
 "http://www.w3.org/TR/2001/REC-SVG-20010904/DTD/svg10.dtd">
<svg version="1.0" xmlns="http://www.w3.org/2000/svg"
 width="300.000000pt" height="300.000000pt" viewBox="0 0 300.000000 300.000000"
 preserveAspectRatio="xMidYMid meet">
<metadata>
Created by potrace 1.11, written by Peter Selinger 2001-2013
</metadata>
<g transform="translate(0.000000,300.000000) scale(0.100000,-0.100000)"
fill="#000000" stroke="none">
<path d="M0 2225 l0 -615 240 0 240 0 1 -27 c0 -16 0 -76 -1 -135 0 -69 3
-108 10 -108 5 0 10 4 10 8 0 5 8 17 18 28 9 10 62 75 116 144 54 69 111 141
126 160 180 226 320 404 385 490 44 58 85 110 90 116 6 6 21 26 35 44 14 18
73 95 132 171 l106 138 234 -302 c202 -262 475 -610 527 -672 9 -11 72 -91
140 -177 67 -87 124 -158 125 -158 1 0 2 62 1 138 l0 137 233 3 232 2 0 615 0
615 -1500 0 -1500 0 0 -615z"/>
<path d="M1434 2248 c-38 -51 -112 -147 -164 -214 -52 -67 -131 -169 -175
-226 -44 -56 -85 -110 -92 -118 -7 -8 -67 -85 -135 -170 -67 -85 -183 -231
-257 -325 -74 -93 -166 -210 -205 -260 l-71 -89 -3 266 -2 267 -165 0 -165 1
0 -605 0 -605 243 0 242 1 170 216 c94 119 222 282 286 362 92 116 380 482
536 679 14 18 29 31 33 30 9 -4 41 -44 300 -373 112 -143 209 -265 215 -271 5
-7 122 -154 259 -328 l250 -316 233 0 233 0 0 605 0 605 -155 0 c-154 0 -155
0 -156 -22 0 -13 -1 -135 -1 -271 -1 -136 -4 -244 -8 -240 -4 4 -76 96 -160
203 -85 107 -195 247 -245 310 -50 63 -143 180 -206 260 -63 80 -213 272 -333
427 -119 156 -221 285 -225 287 -4 3 -38 -36 -77 -86z"/>
<path d="M1194 728 c0 -93 4 -156 10 -160 5 -4 72 -7 147 -7 l137 -1 0 160 0
160 -147 0 -146 0 -1 -152z"/>
<path d="M1532 721 l0 -160 147 1 147 0 0 159 0 159 -147 0 -148 0 1 -159z"/>
<path d="M1259 510 l-65 -5 0 -155 1 -155 145 0 145 0 2 158 3 157 -48 1 c-26
0 -63 1 -82 2 -19 1 -64 0 -101 -3z"/>
<path d="M1563 512 l-33 -3 1 -147 c0 -81 3 -152 7 -158 4 -6 60 -10 148 -10
l140 0 1 158 c0 87 -3 158 -6 158 -72 3 -234 4 -258 2z"/>
</g>
</svg>
