<?xml version="1.0" standalone="no"?>
<!DOCTYPE svg PUBLIC "-//W3C//DTD SVG 20010904//EN"
 "http://www.w3.org/TR/2001/REC-SVG-20010904/DTD/svg10.dtd">
<svg version="1.0" xmlns="http://www.w3.org/2000/svg"
 width="228.000000pt" height="228.000000pt" viewBox="0 0 228.000000 228.000000"
 preserveAspectRatio="xMidYMid meet">
<metadata>
Created by potrace 1.11, written by Peter Selinger 2001-2013
</metadata>
<g transform="translate(0.000000,228.000000) scale(0.100000,-0.100000)"
fill="#000000" stroke="none">
<path d="M985 2252 c-11 -2 -25 -8 -30 -12 -6 -5 -23 -7 -38 -6 -15 2 -27 -1
-27 -6 0 -5 -6 -8 -12 -7 -32 4 -49 -2 -42 -13 5 -8 0 -7 -11 2 -11 9 -16 10
-11 3 5 -9 0 -13 -13 -14 -40 -3 -46 -5 -44 -17 2 -6 -4 -9 -12 -6 -9 4 -21 1
-29 -5 -7 -6 -16 -8 -19 -4 -4 3 -7 1 -7 -6 0 -7 -4 -9 -10 -6 -5 3 -10 1 -10
-5 0 -6 -4 -9 -9 -6 -5 3 -12 -1 -15 -10 -3 -8 -10 -12 -16 -9 -6 3 -17 -1
-26 -10 -9 -9 -23 -14 -31 -11 -8 3 -11 1 -8 -4 3 -6 1 -10 -5 -10 -6 0 -8 -4
-5 -10 3 -5 0 -7 -8 -4 -8 3 -17 -2 -21 -11 -3 -9 -10 -14 -15 -10 -5 3 -16
-3 -23 -13 -7 -11 -16 -20 -21 -20 -17 -3 -123 -104 -119 -114 1 -5 -5 -8 -13
-8 -8 0 -15 -5 -15 -11 0 -6 -11 -20 -25 -31 -14 -11 -25 -24 -25 -30 0 -6
-14 -26 -30 -45 -17 -19 -27 -39 -24 -45 5 -7 2 -9 -9 -5 -11 4 -15 1 -12 -12
2 -10 -5 -24 -15 -31 -10 -7 -16 -19 -13 -27 3 -7 0 -13 -7 -13 -6 0 -8 -4 -5
-10 3 -5 1 -10 -5 -10 -7 0 -10 -7 -6 -15 3 -8 1 -15 -4 -15 -6 0 -10 -7 -10
-15 0 -8 -5 -15 -11 -15 -6 0 -9 -9 -6 -20 3 -10 1 -20 -5 -22 -5 -2 -10 -11
-12 -20 -1 -10 -5 -21 -9 -24 -12 -12 -8 -26 5 -19 7 4 6 1 -2 -7 -9 -7 -17
-31 -19 -53 -2 -22 -6 -47 -11 -55 -4 -8 -5 -21 -3 -27 3 -7 -1 -13 -9 -13
-10 0 -9 -3 2 -10 8 -5 10 -10 4 -10 -6 0 -10 -17 -9 -40 1 -22 -1 -40 -5 -40
-4 0 -7 -7 -7 -15 0 -8 3 -15 7 -15 3 0 6 -9 6 -20 0 -11 -5 -20 -11 -20 -5 0
-3 -5 5 -10 12 -8 12 -10 1 -10 -11 0 -11 -3 -1 -15 9 -11 9 -15 1 -15 -8 0
-9 -6 -3 -18 4 -9 8 -24 7 -32 -1 -8 4 -21 9 -29 8 -11 8 -13 -1 -7 -7 4 -13
3 -13 -2 0 -6 7 -13 16 -16 13 -5 14 -9 4 -21 -9 -10 -9 -15 -1 -15 6 0 11 -5
11 -11 0 -5 -6 -7 -12 -3 -11 6 -11 4 0 -7 6 -7 12 -26 12 -41 0 -15 4 -28 8
-28 4 0 9 -8 10 -17 6 -50 8 -58 15 -64 5 -4 10 -18 10 -32 1 -14 5 -23 10
-20 4 2 7 -5 7 -16 0 -12 5 -21 10 -21 6 0 10 -9 10 -20 0 -11 5 -20 10 -20 6
0 10 -9 10 -20 0 -11 5 -20 10 -20 6 0 10 -7 10 -15 0 -8 5 -15 11 -15 5 0 8
-4 4 -9 -3 -6 3 -14 12 -20 10 -6 14 -11 10 -11 -5 0 -2 -7 5 -15 31 -34 36
-43 31 -49 -4 -3 1 -6 10 -6 10 0 17 -7 17 -15 0 -7 8 -19 17 -24 10 -6 15
-11 11 -11 -11 0 81 -90 92 -90 6 0 9 -4 5 -9 -3 -5 4 -12 15 -16 11 -3 20
-14 20 -23 0 -12 3 -13 8 -5 6 9 13 5 26 -12 10 -14 22 -22 27 -19 5 3 9 -2 9
-11 0 -9 4 -14 8 -11 5 3 18 -2 28 -12 11 -9 26 -18 34 -20 8 -2 18 -10 23
-17 4 -8 14 -12 22 -9 8 4 15 1 15 -5 0 -6 7 -11 15 -11 8 0 15 -5 15 -11 0
-8 4 -8 14 0 11 9 15 8 20 -4 3 -9 10 -13 16 -10 5 3 10 1 10 -5 0 -7 7 -10
15 -6 8 3 15 1 15 -5 0 -6 5 -7 10 -4 6 3 10 1 10 -6 0 -7 3 -9 7 -6 3 4 13 1
21 -6 13 -10 14 -9 7 3 -6 12 -5 12 5 3 7 -6 19 -9 28 -6 10 4 13 2 8 -5 -6
-11 27 -17 81 -15 7 1 10 -4 7 -9 -4 -6 -1 -8 7 -6 8 3 26 1 42 -3 16 -4 27
-4 27 2 0 6 7 6 19 0 10 -6 21 -7 25 -3 4 3 11 0 16 -8 6 -8 10 -10 10 -4 0 6
11 12 25 12 14 0 25 -6 25 -12 0 -7 3 -7 8 1 8 13 29 12 51 -1 10 -6 12 -5 7
2 -5 8 3 11 23 8 17 -2 31 0 31 3 0 4 21 6 48 6 26 -1 52 3 59 8 11 8 39 14
81 19 6 1 12 5 12 9 0 4 7 10 16 13 8 3 12 2 9 -4 -3 -6 1 -7 9 -4 9 3 16 11
16 16 0 6 8 4 17 -3 11 -10 14 -10 9 -1 -6 11 5 17 27 13 4 0 7 3 7 9 0 6 3 9
8 9 19 -3 33 2 27 11 -4 6 1 7 11 3 10 -4 20 0 25 10 5 9 18 14 29 12 12 -2
18 0 14 6 -3 6 3 13 15 16 12 3 21 10 21 16 0 6 3 8 6 4 3 -3 15 3 27 14 11
10 26 19 33 19 6 0 14 7 18 15 3 8 13 15 21 15 9 0 13 5 10 10 -3 6 -2 10 4
10 6 0 21 11 34 24 14 14 27 22 30 20 3 -3 8 4 12 15 3 12 11 19 16 16 5 -4 9
-1 9 6 0 6 10 22 23 34 26 26 45 50 70 88 10 15 22 25 27 22 6 -3 7 1 4 9 -4
9 1 18 10 22 9 3 14 10 11 14 -3 5 2 16 11 24 8 9 12 16 8 16 -4 0 0 8 10 19
9 10 19 29 21 42 3 13 9 25 15 27 5 2 10 11 10 20 0 8 7 24 17 34 9 11 11 18
5 18 -7 0 -12 -5 -12 -12 0 -6 -3 -8 -7 -4 -5 4 1 14 11 22 11 8 16 14 12 14
-5 0 -1 12 9 26 9 15 11 23 4 19 -8 -6 -10 -4 -3 6 9 16 15 35 17 62 1 9 5 17
9 17 4 0 8 5 8 11 0 5 -6 7 -12 3 -7 -4 -5 2 5 13 12 14 15 23 7 28 -5 3 -7
12 -3 18 12 20 12 36 0 44 -18 11 -38 12 -31 2 3 -5 0 -9 -5 -9 -6 0 -11 6
-11 13 0 8 -3 8 -8 2 -8 -12 -22 -13 -39 -2 -6 4 -15 2 -19 -4 -5 -8 -3 -9 6
-4 9 6 11 4 5 -5 -6 -10 -11 -9 -22 5 -7 11 -13 13 -13 7 0 -7 -8 -12 -17 -12
-15 0 -16 2 -3 10 12 8 11 10 -5 7 -11 -1 -26 -6 -32 -10 -8 -5 -13 -3 -13 4
0 7 -7 4 -16 -7 -8 -10 -13 -14 -10 -8 3 7 0 14 -8 17 -8 3 -19 -8 -30 -30
-11 -23 -12 -32 -4 -27 10 6 11 5 1 -8 -7 -8 -10 -18 -6 -21 3 -4 2 -7 -3 -7
-5 0 -10 -8 -11 -17 -2 -33 -11 -61 -30 -89 -14 -21 -14 -26 -3 -19 10 5 8 1
-3 -13 -11 -12 -16 -26 -11 -33 5 -9 2 -10 -9 -6 -11 4 -15 1 -12 -14 2 -10 0
-19 -4 -19 -5 0 -14 -13 -21 -30 -7 -16 -16 -27 -21 -24 -5 3 -9 -2 -9 -10 0
-8 -7 -22 -16 -30 -8 -9 -13 -20 -9 -26 3 -5 0 -7 -8 -4 -8 3 -18 0 -23 -7 -5
-8 -3 -10 7 -4 8 4 -11 -16 -41 -46 -30 -30 -58 -54 -61 -52 -3 1 -13 -7 -22
-18 -9 -10 -24 -19 -32 -19 -9 0 -13 -4 -10 -10 3 -5 -3 -10 -13 -10 -11 0
-22 -7 -26 -15 -3 -8 -9 -15 -13 -14 -21 4 -33 -2 -27 -13 5 -8 2 -9 -9 -5
-10 3 -17 2 -17 -3 0 -6 -3 -9 -7 -9 -20 3 -34 -2 -29 -10 4 -5 -2 -8 -11 -7
-10 2 -24 -4 -31 -13 -8 -9 -11 -10 -7 -3 7 14 -11 17 -19 3 -9 -14 -54 -19
-66 -7 -8 8 -9 6 -4 -8 6 -15 4 -18 -8 -14 -9 4 -21 1 -28 -5 -10 -9 -11 -9
-5 2 6 10 4 12 -6 6 -7 -5 -25 -9 -39 -10 -14 -1 -31 -5 -38 -9 -7 -4 -12 -3
-12 2 0 5 -10 8 -22 6 -13 -1 -23 -3 -23 -4 0 -1 -10 -3 -22 -4 -13 -2 -23 0
-23 4 0 4 -12 6 -27 5 -16 -1 -34 3 -42 9 -11 8 -13 8 -7 -1 4 -7 2 -13 -3
-13 -6 0 -11 5 -11 11 0 5 -5 7 -10 4 -6 -3 -10 -1 -10 6 0 10 -3 10 -12 1
-15 -15 -31 -16 -22 0 5 8 2 9 -9 5 -10 -3 -17 -2 -17 3 0 5 -7 7 -16 3 -9 -3
-20 0 -24 8 -5 7 -21 14 -37 14 -15 0 -27 6 -26 12 1 6 -5 10 -15 9 -9 -2 -23
3 -30 11 -8 7 -18 11 -23 8 -5 -4 -9 -1 -9 4 0 6 -6 11 -14 11 -7 0 -25 12
-40 27 -14 14 -29 24 -32 20 -3 -3 -18 8 -33 24 -16 16 -34 29 -41 29 -7 0
-10 7 -6 16 3 8 2 13 -3 10 -5 -3 -12 1 -15 10 -3 8 -10 12 -16 9 -5 -3 -10 0
-10 8 0 8 -11 23 -25 33 -14 10 -25 24 -25 31 0 7 -4 13 -10 13 -5 0 -10 6
-10 14 0 8 -7 17 -16 20 -9 4 -14 9 -11 12 3 4 -1 13 -9 22 -9 8 -13 23 -11
33 3 10 2 18 -2 17 -26 -3 -30 4 -32 55 0 9 -4 15 -10 12 -8 -6 -10 -1 -13 38
-1 6 -5 15 -9 18 -5 4 -10 19 -10 35 -1 16 -6 32 -11 35 -5 4 -9 29 -10 56 -1
26 -5 54 -10 61 -4 7 -2 12 4 12 7 0 8 6 2 18 -11 19 -10 51 2 70 4 7 2 12 -5
12 -7 0 -8 4 -2 13 5 6 9 24 8 40 0 15 4 27 10 27 5 0 3 5 -5 10 -8 5 -10 10
-4 10 11 0 13 6 17 58 1 17 6 32 10 32 5 0 5 5 2 10 -3 6 -1 10 5 10 6 0 9 4
5 9 -3 5 -1 12 4 16 5 3 8 14 6 25 -2 11 1 19 8 17 6 -1 11 6 12 16 0 10 6 21
13 26 8 5 13 12 13 17 -1 18 11 44 20 44 6 0 8 4 5 9 -4 5 8 23 25 40 17 17
27 31 24 31 -4 0 25 32 64 70 38 39 75 70 81 70 6 0 8 5 5 10 -3 6 1 10 10 10
8 0 18 7 22 16 5 13 7 13 14 2 7 -10 9 -9 9 5 0 10 5 15 10 12 6 -3 10 -1 10
5 0 6 5 8 10 5 6 -3 10 -1 10 5 0 7 7 10 15 6 9 -3 15 0 15 9 0 8 3 15 8 14
14 -2 52 13 52 22 0 4 9 6 19 4 11 -2 22 3 26 13 5 14 7 14 15 2 6 -8 10 -10
10 -4 0 6 6 11 13 12 24 2 47 8 53 15 11 11 26 8 19 -3 -3 -6 10 -1 30 11 27
16 33 24 25 34 -8 9 -7 14 2 18 11 4 10 6 0 6 -7 1 -10 6 -7 12 4 5 8 21 10
35 2 19 -1 24 -13 19 -13 -5 -13 -2 2 14 12 14 14 21 6 26 -9 6 -9 10 1 16 11
7 9 9 -6 9 -11 0 -15 4 -10 8 12 8 13 22 2 40 -5 7 -4 11 1 10 6 -2 9 2 9 7
-1 6 -5 9 -9 8 -4 -2 -5 3 -2 10 5 14 -6 16 -41 9z"/>
<path d="M1266 2248 c5 -8 1 -9 -12 -5 -16 6 -17 5 -4 -6 23 -18 25 -41 3 -33
-16 5 -16 4 -3 -6 23 -20 25 -49 3 -42 -17 5 -17 5 0 -6 14 -9 16 -15 6 -26
-6 -8 -7 -14 -2 -14 5 0 10 -7 10 -15 0 -10 -6 -14 -16 -10 -11 3 -10 1 3 -10
16 -12 17 -17 6 -30 -7 -8 -8 -15 -3 -15 5 0 10 -7 10 -15 0 -10 -6 -14 -16
-10 -9 4 -6 -3 7 -15 13 -12 30 -19 38 -16 8 3 12 2 9 -3 -3 -5 -1 -12 5 -16
5 -3 10 0 10 7 0 10 2 10 9 -1 5 -8 16 -11 25 -8 9 4 16 2 16 -3 0 -5 7 -7 15
-4 8 4 15 1 15 -5 0 -6 11 -11 25 -11 14 0 25 -5 25 -11 0 -8 5 -7 15 1 13 11
14 10 10 -3 -5 -12 0 -15 23 -13 23 1 28 -2 24 -13 -3 -9 -1 -12 6 -7 7 4 12
2 12 -3 0 -6 5 -11 10 -11 15 0 120 -71 120 -81 0 -5 6 -8 13 -7 6 2 11 -3 9
-9 -1 -7 2 -13 7 -13 11 0 71 -55 71 -65 0 -3 14 -20 30 -37 17 -16 28 -34 24
-39 -3 -5 2 -9 11 -9 9 0 13 -4 10 -10 -3 -5 -1 -10 6 -10 7 0 10 -3 6 -6 -3
-3 3 -15 14 -27 10 -11 19 -26 19 -32 0 -6 10 -31 22 -56 11 -24 21 -50 21
-56 0 -7 3 -13 6 -13 3 0 7 -14 8 -31 1 -17 8 -38 15 -47 7 -9 8 -13 2 -9 -6
3 -11 0 -11 -8 0 -8 5 -11 10 -8 6 4 8 0 5 -9 -12 -31 54 -45 87 -18 13 10 15
11 13 1 -2 -8 5 -15 15 -16 9 -2 15 1 11 6 -3 5 0 9 5 9 6 0 11 -5 11 -11 0
-8 5 -8 15 1 12 10 15 10 15 0 0 -10 3 -10 14 -1 11 9 15 9 18 -1 4 -10 8 -10
21 1 13 10 17 10 17 1 0 -9 3 -10 13 -1 8 6 16 9 19 6 2 -3 4 10 5 28 0 17 -5
35 -11 40 -8 5 -6 10 4 17 8 5 10 10 5 10 -6 0 -15 16 -21 35 -6 19 -7 32 -2
28 6 -3 3 8 -5 23 -8 16 -12 35 -9 43 3 9 0 11 -7 6 -8 -4 -12 -2 -10 6 4 32
-1 50 -13 43 -8 -5 -9 0 -5 15 3 14 -1 29 -11 39 -10 10 -16 26 -14 36 2 10 0
16 -5 13 -5 -3 -15 10 -22 29 -7 18 -17 34 -22 34 -6 0 -7 5 -4 10 3 6 1 10
-6 10 -7 0 -10 3 -6 6 3 4 1 12 -6 19 -7 7 -30 38 -52 68 -21 31 -43 53 -47
51 -4 -3 -8 2 -8 10 0 9 -4 16 -10 16 -5 0 -10 7 -10 15 0 8 -4 15 -8 15 -4 0
-32 22 -62 50 -29 27 -57 47 -62 44 -4 -3 -8 2 -8 10 0 9 -6 16 -14 16 -8 0
-16 5 -18 11 -2 5 -12 12 -23 13 -11 2 -19 9 -17 15 2 10 -11 15 -30 12 -5 0
-8 4 -8 11 0 6 -3 9 -6 5 -4 -3 -13 1 -21 9 -8 8 -19 12 -24 9 -5 -4 -9 -2 -9
2 0 9 -63 36 -76 33 -3 -1 -12 7 -21 17 -8 10 -11 11 -7 3 7 -13 6 -13 -11 0
-10 8 -20 14 -22 13 -9 -7 -24 -2 -19 6 4 5 -3 7 -14 4 -11 -3 -20 -1 -20 4 0
5 -16 9 -35 8 -20 -1 -38 2 -42 8 -4 6 -1 7 7 2 9 -5 11 -4 6 4 -6 9 -11 9
-22 0 -9 -7 -14 -8 -14 -1 0 6 -8 9 -17 8 -10 -2 -30 1 -46 5 -19 5 -25 4 -21
-3z"/>
<path d="M992 1699 c-13 -5 -29 -6 -34 -2 -7 3 -8 1 -4 -5 7 -11 -7 -16 -41
-15 -7 1 -13 -6 -13 -14 0 -9 -6 -13 -14 -10 -8 3 -17 -1 -20 -9 -3 -9 -10
-12 -16 -9 -5 3 -10 1 -10 -5 0 -6 -4 -8 -10 -5 -5 3 -10 -1 -10 -10 0 -9 -4
-14 -9 -10 -6 3 -14 -3 -20 -12 -6 -10 -11 -15 -11 -11 -1 19 -120 -120 -120
-141 0 -6 -5 -11 -11 -11 -5 0 -8 -4 -4 -9 3 -5 -2 -17 -11 -25 -8 -9 -12 -16
-8 -16 3 0 2 -6 -4 -12 -11 -14 -12 -18 -12 -44 0 -8 -4 -12 -10 -9 -5 3 -7 0
-4 -8 3 -8 1 -17 -3 -20 -5 -3 -8 -20 -7 -36 1 -18 -3 -31 -9 -31 -7 0 -5 -5
3 -10 12 -8 13 -11 1 -19 -9 -6 -10 -11 -2 -15 6 -4 11 -13 11 -19 0 -7 -4 -6
-10 3 -5 8 -10 10 -10 5 0 -6 5 -16 12 -23 9 -9 9 -12 -1 -12 -11 0 -11 -3 0
-17 10 -11 10 -14 2 -9 -19 11 -16 -5 4 -21 10 -8 13 -12 7 -9 -7 3 -14 -1
-18 -9 -3 -8 0 -14 6 -12 6 1 11 -12 12 -30 1 -17 4 -35 9 -39 4 -4 7 -16 7
-26 0 -10 4 -18 10 -18 5 0 7 -7 4 -15 -4 -8 1 -17 10 -21 9 -3 14 -10 11 -14
-3 -5 1 -15 9 -23 8 -8 12 -17 9 -21 -4 -3 -1 -6 6 -6 7 0 9 -4 6 -10 -3 -5 1
-10 10 -10 9 0 14 -4 11 -8 -3 -5 8 -22 24 -37 16 -15 27 -32 24 -37 -3 -5 -2
-8 3 -7 19 3 34 -2 29 -10 -3 -5 6 -12 19 -15 14 -4 23 -11 20 -16 -5 -9 33
-26 48 -22 5 1 6 -1 4 -5 -3 -5 1 -13 8 -20 11 -10 15 -10 18 0 4 9 6 9 6 0 1
-7 8 -13 16 -13 8 0 24 -4 35 -10 11 -5 29 -15 41 -21 17 -8 20 -8 14 3 -3 7
1 4 9 -6 10 -13 16 -15 16 -7 0 9 4 10 13 4 6 -5 24 -8 40 -7 16 2 27 -2 27
-9 0 -7 4 -6 10 3 9 13 10 13 10 0 0 -13 1 -13 10 0 8 12 10 12 10 1 0 -11 3
-11 17 0 15 12 16 12 8 -1 -7 -12 -6 -13 6 -3 11 9 19 9 26 2 8 -8 13 -7 18 2
6 8 4 10 -5 4 -9 -6 -11 -4 -5 4 5 9 11 9 17 3 7 -7 23 -6 48 3 21 7 41 11 44
8 3 -4 6 -2 6 4 0 6 7 14 16 17 10 4 13 2 8 -7 -4 -6 5 -1 21 13 16 14 25 20
22 13 -5 -8 -1 -8 18 0 14 7 25 15 25 20 0 4 6 7 14 7 8 0 16 7 20 15 3 8 9
14 13 13 11 -4 83 67 83 81 0 6 7 7 17 4 11 -4 14 -3 9 5 -4 7 -2 12 4 12 6 0
8 4 5 10 -3 6 -1 10 4 10 6 0 11 7 11 15 0 8 4 15 9 15 5 0 12 11 15 25 4 14
10 23 15 21 5 -3 9 6 9 20 0 15 4 29 10 33 6 4 12 24 14 46 2 30 -1 40 -12 40
-8 0 -20 4 -27 8 -6 4 -14 3 -18 -3 -3 -5 -11 -10 -16 -10 -6 0 -7 6 -3 13 5
8 2 8 -9 -2 -12 -9 -17 -10 -17 -2 0 7 -5 9 -10 6 -6 -4 -8 -11 -5 -16 6 -8
-18 -3 -40 10 -20 11 -36 9 -31 -4 6 -16 -24 -8 -36 9 -6 8 -8 8 -8 0 0 -6
-11 -10 -25 -9 -14 2 -23 -1 -19 -6 3 -5 -2 -12 -11 -15 -9 -4 -14 -13 -11
-20 3 -8 -1 -14 -9 -14 -8 0 -15 -4 -15 -10 0 -10 -34 -48 -47 -52 -5 -2 -7
-6 -6 -10 1 -3 -4 -9 -13 -12 -10 -4 -13 -1 -9 7 4 6 1 5 -7 -4 -7 -9 -19 -14
-25 -12 -7 3 -13 0 -13 -6 0 -6 -10 -11 -23 -11 -13 0 -28 -5 -34 -11 -9 -9
-16 -8 -28 5 -19 19 -32 22 -17 4 8 -10 1 -13 -28 -13 -21 -1 -37 2 -34 6 2 4
-12 10 -32 13 -19 4 -38 14 -41 22 -5 13 -7 13 -14 2 -7 -10 -9 -8 -9 6 0 11
-3 17 -6 13 -14 -13 -101 91 -96 116 1 4 -3 7 -9 7 -6 0 -9 7 -5 15 3 8 1 15
-5 15 -6 0 -7 5 -4 10 3 6 1 10 -6 10 -10 0 -10 3 -1 12 17 17 15 31 -4 24
-13 -5 -14 -4 -6 7 9 10 8 17 -1 27 -9 10 -9 11 1 6 6 -4 12 -4 13 1 0 4 3 24
6 43 2 19 5 43 6 53 1 11 7 15 15 12 10 -4 12 0 8 11 -7 19 31 67 45 58 5 -3
6 3 2 13 -3 10 -3 15 1 11 4 -3 16 1 26 10 46 42 69 55 54 30 -4 -6 -3 -8 4
-4 6 3 9 15 7 26 -2 11 2 20 8 20 8 0 8 3 -2 9 -9 6 -10 10 -2 16 9 5 9 10 0
21 -9 11 -8 14 2 15 8 0 5 4 -6 9 -11 5 -15 9 -8 9 6 1 10 9 8 19 -1 9 3 23 9
31 8 11 8 13 -1 8 -8 -5 -11 0 -10 13 1 11 6 20 12 20 5 0 4 4 -4 9 -13 8 -13
12 0 27 13 16 12 17 -6 10 -15 -5 -17 -4 -8 5 11 11 7 40 -6 38 -3 0 -17 -4
-29 -10z"/>
<path d="M1259 1699 c-12 -7 -12 -9 0 -9 11 0 11 -3 0 -16 -10 -13 -10 -17 2
-25 12 -7 12 -9 -1 -9 -9 0 -11 -3 -5 -8 19 -13 17 -35 -2 -28 -16 5 -16 4 1
-9 16 -12 17 -17 6 -30 -7 -8 -8 -15 -3 -15 5 0 10 -7 10 -15 0 -10 -6 -14
-16 -10 -11 3 -10 1 3 -10 16 -12 17 -17 6 -30 -10 -12 -10 -15 1 -15 11 0 11
-2 -1 -10 -13 -9 -13 -10 0 -10 11 0 12 -2 2 -8 -9 -6 -6 -14 13 -30 14 -12
25 -19 25 -17 0 7 22 -11 56 -45 45 -46 60 -63 45 -55 -9 5 -7 -2 5 -17 15
-20 23 -24 37 -17 16 9 21 5 18 -14 -1 -5 3 -6 9 -2 6 3 8 10 6 14 -3 4 6 7
20 7 13 0 24 -3 24 -6 0 -11 38 -4 55 10 9 7 15 9 14 4 -4 -21 2 -26 18 -13
15 12 16 12 8 -1 -8 -13 -7 -13 10 0 14 11 19 12 22 3 3 -7 9 -13 14 -13 6 0
7 6 3 13 -5 7 0 6 11 -3 15 -12 17 -12 10 -1 -6 11 -4 13 9 8 14 -5 15 -3 6
13 -13 24 -13 33 0 25 11 -7 -23 58 -44 84 -9 12 -8 13 4 6 8 -4 4 4 -10 20
-14 16 -18 24 -10 20 8 -5 0 7 -17 25 -18 19 -33 38 -33 43 0 17 -101 108
-112 101 -6 -4 -8 -3 -4 4 3 6 -3 13 -14 17 -11 3 -20 11 -20 16 0 5 -9 9 -20
9 -11 0 -20 5 -20 12 0 6 -3 8 -7 5 -3 -4 -15 0 -25 10 -13 12 -18 13 -18 3 0
-9 -5 -7 -15 6 -8 10 -15 16 -15 12 0 -4 -11 -4 -23 1 -14 6 -30 6 -38 0z"/>
</g>
</svg>
