<?xml version="1.0" standalone="no"?>
<!DOCTYPE svg PUBLIC "-//W3C//DTD SVG 20010904//EN"
 "http://www.w3.org/TR/2001/REC-SVG-20010904/DTD/svg10.dtd">
<svg version="1.0" xmlns="http://www.w3.org/2000/svg"
 width="300.000000pt" height="300.000000pt" viewBox="0 0 300.000000 300.000000"
 preserveAspectRatio="xMidYMid meet">
<metadata>
Created by potrace 1.11, written by Peter Selinger 2001-2013
</metadata>
<g transform="translate(0.000000,300.000000) scale(0.100000,-0.100000)"
fill="#000000" stroke="none">
<path d="M1470 2970 c-90 -73 -239 -196 -280 -230 -128 -107 -180 -151 -236
-196 -33 -27 -251 -206 -484 -399 l-423 -350 141 -3 142 -3 0 -894 0 -895
1165 0 1165 0 0 895 0 894 152 3 153 3 -140 115 c-120 98 -217 179 -362 300
l-33 27 0 312 0 311 -180 0 -180 0 -2 -162 -3 -162 -65 55 c-36 30 -141 117
-235 194 -93 77 -179 148 -190 158 -11 10 -31 27 -45 37 -26 18 -26 18 -60
-10z m-256 -2207 c-1 -181 -2 -330 -3 -333 -1 -4 -481 -5 -501 -1 -3 1 -5 149
-5 331 l0 330 255 0 255 0 -1 -327z"/>
</g>
</svg>
