<?xml version="1.0" standalone="no"?>
<!DOCTYPE svg PUBLIC "-//W3C//DTD SVG 20010904//EN"
 "http://www.w3.org/TR/2001/REC-SVG-20010904/DTD/svg10.dtd">
<svg version="1.0" xmlns="http://www.w3.org/2000/svg"
 width="804.000000pt" height="804.000000pt" viewBox="0 0 804.000000 804.000000"
 preserveAspectRatio="xMidYMid meet">
<metadata>
Created by potrace 1.11, written by Peter Selinger 2001-2013
</metadata>
<g transform="translate(0.000000,804.000000) scale(0.100000,-0.100000)"
fill="#000000" stroke="none">
<path d="M1030 4497 l0 -1322 -312 -119 c-172 -66 -324 -125 -338 -132 -21
-11 21 -13 263 -14 l287 0 0 -98 0 -97 -433 -178 c-237 -98 -439 -182 -447
-187 -10 -6 1450 -10 3988 -10 2201 0 4002 3 4002 8 0 4 -187 95 -415 202
l-414 195 120 5 121 5 -141 103 -141 104 0 44 0 44 187 0 c116 0 183 4 177 9
-7 8 -139 59 -441 173 l-53 19 0 970 0 969 270 0 270 0 0 315 0 315 -1045 0
c-1002 0 -1045 -1 -1045 -18 0 -13 13 -22 50 -31 139 -36 220 -172 192 -324
-20 -106 -84 -174 -190 -199 -44 -11 -52 -16 -52 -35 l0 -23 415 0 415 0 0
-841 0 -841 -52 6 c-86 11 -116 10 -140 -2 -13 -6 -44 -13 -70 -17 -26 -3 -50
-10 -53 -16 -4 -5 -21 -9 -38 -9 -18 0 -52 -13 -77 -29 l-45 -28 -22 40 -23
39 0 809 0 809 -335 0 -335 0 0 -715 c0 -393 -3 -715 -7 -715 -5 1 -19 7 -33
15 -17 10 -57 14 -127 15 l-101 0 -178 263 c-98 144 -229 337 -291 429 -62 91
-113 171 -113 178 0 6 91 146 202 311 l202 299 378 0 378 0 0 23 c0 19 -8 24
-52 35 -74 17 -127 57 -163 122 -26 48 -30 65 -30 135 0 63 5 90 24 127 31 64
93 115 163 136 42 12 58 22 58 35 0 16 -36 17 -607 17 l-608 0 -174 -298 c-96
-163 -180 -305 -186 -314 -10 -15 -39 29 -194 297 l-183 315 -439 0 c-241 0
-439 -3 -439 -6 0 -3 183 -279 407 -612 224 -334 407 -614 407 -622 0 -8 -90
-141 -199 -295 -109 -154 -234 -331 -277 -392 l-79 -113 -565 0 -564 0 0 200
0 200 549 0 549 0 54 72 c29 40 60 83 68 95 8 12 48 67 88 122 39 55 72 105
72 111 0 6 -33 60 -72 120 l-73 110 -617 0 -618 0 0 190 0 190 485 0 c267 0
485 2 485 5 0 3 -93 144 -206 315 l-207 310 -633 0 -634 0 0 -1323z m2900
-627 c40 -63 79 -125 88 -137 l14 -23 -185 0 -186 0 97 140 c53 77 97 138 98
137 0 -1 34 -54 74 -117z m1389 -337 l284 -108 -141 -3 -142 -3 0 -74 0 -75
727 0 727 0 200 -77 c175 -68 196 -78 163 -81 l-37 -3 0 -93 0 -94 67 -43 67
-44 -504 -5 -505 -5 -95 -35 -95 -35 533 -3 532 -2 0 -85 0 -85 -61 0 c-53 0
-65 4 -85 25 -16 18 -34 25 -59 25 -20 0 -52 7 -72 15 -38 16 -35 17 -99 -30
-9 -7 -19 -7 -28 0 -68 50 -67 50 -95 34 -24 -14 -29 -14 -64 9 -35 23 -41 24
-90 14 -39 -9 -62 -9 -92 -1 -25 7 -73 9 -129 5 -71 -6 -97 -4 -133 10 -38 15
-54 16 -97 7 -47 -10 -53 -9 -76 12 -14 13 -45 28 -70 35 -25 6 -49 17 -55 24
-43 55 -185 44 -185 -14 0 -17 -2 -18 -32 -2 -50 24 -140 20 -223 -12 -114
-44 -107 -44 -105 0 4 80 15 74 -135 74 l-134 0 0 -106 c0 -67 -4 -111 -12
-120 -7 -9 -32 -14 -70 -14 l-59 0 -1 43 c0 23 -1 98 -2 167 l-2 125 -80 5
-80 5 161 58 160 57 365 0 364 0 150 49 150 49 -517 1 -518 1 -377 -151 c-208
-83 -382 -155 -387 -160 -6 -5 86 -9 237 -9 l247 0 0 -114 0 -114 -37 14 c-21
7 -51 13 -68 14 -41 1 -52 9 -78 60 -12 25 -36 53 -53 62 -69 40 -174 32 -227
-18 l-28 -25 -45 21 c-52 26 -118 21 -156 -10 -21 -16 -25 -17 -52 -3 -57 29
-158 -7 -172 -63 -5 -19 -13 -24 -37 -24 -18 0 -40 -9 -54 -22 -13 -12 -25
-19 -28 -16 -3 2 -5 39 -6 81 l-1 77 -229 0 -229 0 0 -80 0 -80 -320 0 -320 0
0 35 c0 81 -55 135 -136 135 -42 0 -59 -5 -84 -27 -28 -24 -38 -26 -105 -24
-66 2 -75 0 -89 -21 -9 -12 -16 -29 -16 -38 0 -9 -14 -21 -32 -28 -29 -11 -34
-10 -58 13 -14 13 -47 34 -75 47 -45 21 -63 23 -190 22 -77 -1 -151 -4 -164
-5 -24 -4 -25 -3 -24 64 l1 67 -137 0 -138 0 0 -87 c0 -49 -1 -103 -2 -120
l-1 -33 -165 0 -165 0 0 175 0 175 721 0 722 0 -67 -50 c-36 -28 -66 -53 -66
-55 0 -3 311 -5 690 -5 l691 0 -2 60 -2 60 -608 0 -609 0 0 50 0 50 -802 2
-803 3 205 78 205 77 958 0 957 0 0 70 0 70 490 0 490 0 0 55 0 55 -579 2
-579 3 242 97 241 97 775 1 775 0 284 -107z"/>
<path d="M3447 3230 c-12 -5 -17 -124 -5 -136 5 -5 177 -8 263 -5 18 1 20 8
20 71 0 39 -4 70 -10 71 -50 3 -258 3 -268 -1z"/>
<path d="M3893 3232 c-21 -3 -23 -8 -23 -73 l0 -69 63 -1 c61 -1 159 -1 205 0
22 1 23 4 20 73 l-3 72 -120 0 c-66 1 -130 0 -142 -2z"/>
<path d="M6192 2998 l3 -73 145 0 145 0 0 73 0 72 -148 0 -148 0 3 -72z"/>
<path d="M6632 2998 l3 -73 145 0 145 0 0 73 1 72 -148 0 -149 0 3 -72z"/>
</g>
</svg>
