<?xml version="1.0" standalone="no"?>
<!DOCTYPE svg PUBLIC "-//W3C//DTD SVG 20010904//EN"
 "http://www.w3.org/TR/2001/REC-SVG-20010904/DTD/svg10.dtd">
<svg version="1.0" xmlns="http://www.w3.org/2000/svg"
 width="300.000000pt" height="300.000000pt" viewBox="0 0 300.000000 300.000000"
 preserveAspectRatio="xMidYMid meet">
<metadata>
Created by potrace 1.11, written by Peter Selinger 2001-2013
</metadata>
<g transform="translate(0.000000,300.000000) scale(0.100000,-0.100000)"
fill="#000000" stroke="none">
<path d="M975 2985 c-113 -20 -224 -53 -312 -95 -187 -87 -268 -170 -395 -400
-57 -104 -106 -307 -107 -448 l-1 -82 252 1 253 1 2 70 c8 252 209 449 463
451 142 2 252 -53 342 -170 67 -89 91 -159 91 -263 -1 -72 -6 -96 -32 -160
-17 -41 -45 -95 -61 -120 -16 -25 -170 -183 -342 -350 -171 -168 -346 -339
-388 -380 -42 -41 -179 -175 -304 -298 l-228 -222 1 -252 c1 -139 4 -254 7
-257 3 -3 439 -7 969 -8 l965 -3 0 270 c0 148 -3 270 -7 271 -5 1 -252 2 -550
3 -298 1 -544 4 -547 7 -3 3 186 198 420 433 424 426 491 501 544 606 153 303
152 620 -2 913 -69 132 -136 207 -261 295 -111 78 -297 159 -407 176 -19 3
-46 8 -60 11 -53 12 -238 11 -305 0z"/>
<path d="M2030 2757 l0 -243 93 1 c50 0 100 -1 110 -3 16 -4 17 -72 17 -1252
0 -1180 1 -1248 18 -1251 9 -3 141 -4 292 -4 l275 1 3 1497 2 1497 -405 0
-405 0 0 -243z"/>
</g>
</svg>
