<?xml version="1.0" standalone="no"?>
<!DOCTYPE svg PUBLIC "-//W3C//DTD SVG 20010904//EN"
 "http://www.w3.org/TR/2001/REC-SVG-20010904/DTD/svg10.dtd">
<svg version="1.0" xmlns="http://www.w3.org/2000/svg"
 width="772.000000pt" height="772.000000pt" viewBox="0 0 772.000000 772.000000"
 preserveAspectRatio="xMidYMid meet">
<metadata>
Created by potrace 1.11, written by Peter Selinger 2001-2013
</metadata>
<g transform="translate(0.000000,772.000000) scale(0.100000,-0.100000)"
fill="#000000" stroke="none">
<path d="M3931 7359 c7 -13 14 -30 15 -36 1 -7 9 -20 18 -29 9 -8 14 -19 11
-24 -3 -5 -2 -10 2 -12 5 -1 20 -26 35 -53 40 -76 25 -87 -50 -36 -68 46 -72
47 -72 26 0 -8 5 -15 10 -15 6 0 10 -9 10 -21 0 -11 5 -17 10 -14 6 3 10 -3
10 -14 0 -12 5 -21 10 -21 6 0 10 -6 10 -13 0 -7 9 -23 20 -35 12 -12 18 -22
14 -22 -4 0 -1 -8 7 -17 8 -10 24 -35 34 -55 11 -21 23 -38 26 -38 4 0 12 -13
18 -30 5 -16 15 -30 20 -30 6 0 10 -3 9 -7 -1 -5 3 -18 10 -30 15 -27 11 -28
-31 -6 -18 9 -35 16 -39 15 -5 -1 -8 2 -8 7 0 5 -10 13 -22 17 -13 3 -31 14
-41 22 -18 16 -18 15 -6 -11 7 -15 16 -27 21 -27 4 0 8 -4 8 -9 0 -5 18 -39
40 -75 22 -36 40 -70 40 -76 0 -5 5 -10 10 -10 6 0 10 -7 10 -15 0 -8 3 -15 8
-15 4 0 14 -15 21 -32 8 -18 22 -38 30 -45 9 -7 13 -13 9 -13 -4 0 0 -9 9 -20
19 -22 28 -60 14 -60 -6 0 -13 5 -16 10 -4 6 -11 8 -16 5 -5 -4 -9 -1 -9 4 0
6 -4 11 -10 11 -5 0 -32 16 -59 35 -27 20 -52 31 -55 26 -4 -5 2 -14 11 -20
10 -6 14 -11 8 -11 -6 0 -6 -3 1 -8 14 -9 94 -131 94 -143 0 -5 5 -9 10 -9 6
0 10 -7 10 -15 0 -8 5 -15 11 -15 5 0 8 -4 5 -9 -4 -5 -3 -11 2 -13 11 -4 52
-73 52 -87 0 -16 -35 -14 -50 4 -7 8 -16 12 -21 9 -5 -3 -9 -2 -9 3 0 4 -14
14 -31 22 -18 8 -76 58 -129 112 -54 55 -102 99 -107 99 -4 0 -14 9 -21 20 -7
12 -17 18 -22 15 -6 -3 -10 -2 -10 4 0 5 -14 20 -32 32 -17 13 -28 16 -23 8 4
-7 -3 -2 -18 14 -24 24 -38 32 -59 28 -5 0 -8 4 -8 10 0 5 -4 7 -10 4 -5 -3
-10 -2 -10 2 0 9 -120 65 -134 63 -5 -1 -12 3 -15 9 -4 6 -19 12 -34 13 -15 1
-27 5 -27 9 0 3 -26 12 -57 19 -32 8 -62 15 -68 16 -28 8 -55 12 -100 18 l-50
7 98 -61 c53 -34 97 -66 97 -71 0 -8 -12 -10 -102 -12 -30 -1 -35 -3 -27 -14
6 -7 15 -10 20 -7 5 3 9 1 9 -4 0 -5 25 -22 55 -37 30 -16 55 -32 55 -37 0 -5
4 -6 10 -3 5 3 22 -5 37 -20 16 -14 34 -23 41 -20 6 2 12 1 12 -3 0 -10 60
-45 60 -35 0 9 20 -19 20 -28 0 -4 -24 -7 -52 -7 -78 0 -96 -2 -78 -9 8 -3 27
-15 43 -25 15 -11 27 -16 27 -11 0 4 4 3 8 -3 8 -13 142 -96 142 -89 0 3 25
-11 55 -31 30 -20 55 -41 55 -46 0 -4 -39 -6 -87 -3 l-88 5 45 -22 c25 -12 48
-26 51 -31 3 -5 8 -8 10 -8 13 2 49 -13 49 -20 0 -5 3 -8 8 -7 8 2 74 -31 82
-41 3 -4 26 -18 53 -31 48 -25 64 -47 26 -35 -11 4 -64 28 -117 53 -54 25 -99
47 -102 47 -7 2 -41 15 -65 25 -54 22 -59 24 -105 33 -19 4 -46 10 -60 13 -14
3 -47 7 -75 9 -27 2 -52 4 -55 5 -13 4 -174 -5 -255 -15 -33 -4 -66 -8 -72 -8
-14 0 -18 -16 -5 -18 4 -1 16 -3 27 -5 11 -2 27 -5 35 -7 23 -6 94 -21 102
-22 15 -1 20 -15 5 -15 -9 0 -17 -4 -17 -8 0 -5 -19 -16 -42 -25 -47 -19 -47
-23 2 -30 34 -6 61 -11 150 -27 24 -5 48 -6 52 -4 5 3 8 1 8 -4 0 -6 6 -10 13
-9 57 2 79 -17 32 -29 -13 -3 -29 -12 -36 -20 -6 -8 -15 -12 -19 -9 -5 3 -11
1 -15 -5 -4 -6 7 -11 27 -12 31 -1 46 -3 58 -8 3 -1 14 -3 25 -5 11 -2 36 -7
55 -11 19 -4 42 -9 50 -10 8 -1 33 -5 55 -9 22 -4 45 -8 52 -8 8 0 8 -5 0 -18
-6 -10 -14 -16 -18 -13 -4 2 -20 -3 -35 -11 -16 -8 -38 -15 -48 -15 -42 0 -1
-15 69 -26 45 -6 76 -12 115 -19 19 -3 48 -8 64 -10 33 -4 60 -25 33 -25 -9 0
-17 -5 -17 -11 0 -5 -3 -8 -7 -6 -5 2 -24 -1 -43 -9 -25 -9 -29 -13 -15 -14
11 -1 23 -2 28 -1 4 0 7 -4 7 -10 0 -6 6 -9 13 -6 6 2 22 0 34 -4 13 -5 44
-11 70 -15 26 -3 56 -10 68 -14 18 -7 18 -9 -10 -21 -35 -14 -32 -13 -69 -24
l-29 -8 24 -13 c13 -7 27 -10 31 -8 5 3 8 1 8 -5 0 -12 -44 -24 -135 -36 -11
-2 -65 -15 -120 -29 -55 -15 -107 -28 -115 -30 -89 -23 -341 -122 -352 -140
-4 -6 -8 -8 -8 -3 0 4 -28 -7 -62 -25 -35 -18 -66 -31 -70 -30 -5 1 -8 -2 -8
-6 0 -5 -16 -14 -35 -22 -19 -8 -35 -17 -35 -20 0 -4 -20 -17 -45 -29 -25 -12
-45 -27 -45 -32 0 -6 -4 -8 -8 -5 -5 3 -18 -4 -30 -14 -12 -11 -26 -20 -31
-20 -5 0 -16 -8 -23 -19 -7 -10 -16 -18 -20 -17 -4 0 -15 -6 -25 -14 -10 -8
-47 -38 -83 -65 -84 -65 -90 -71 -82 -80 4 -5 2 -5 -5 -1 -7 4 -18 -2 -25 -14
-7 -11 -18 -20 -24 -20 -6 0 -17 -11 -24 -25 -7 -13 -17 -22 -22 -19 -4 3 -8
-2 -8 -11 0 -9 -4 -13 -10 -10 -6 3 -10 -1 -10 -9 0 -8 -5 -18 -12 -22 -7 -5
-8 -3 -3 7 8 12 6 12 -8 0 -10 -8 -15 -16 -13 -19 3 -2 -5 -13 -17 -23 -12
-10 -18 -18 -13 -19 4 0 -6 -12 -23 -27 -17 -15 -31 -34 -31 -42 0 -8 -3 -11
-7 -8 -3 4 -17 -8 -30 -25 -12 -18 -23 -28 -23 -24 0 5 -10 -4 -22 -20 -13
-16 -30 -38 -40 -48 -10 -10 -15 -23 -12 -28 3 -4 1 -8 -5 -8 -5 0 -20 -17
-32 -37 -13 -21 -29 -44 -36 -51 -7 -8 -11 -18 -8 -23 4 -5 2 -9 -3 -9 -11 0
-88 -130 -85 -142 2 -4 -1 -8 -5 -8 -10 0 -37 -50 -34 -62 1 -5 -3 -8 -9 -8
-5 0 -7 -4 -4 -10 3 -5 3 -10 -2 -10 -8 0 -44 -78 -42 -94 0 -5 -4 -12 -10
-16 -6 -3 -13 -16 -16 -28 -2 -12 -10 -34 -18 -49 -16 -30 -52 -130 -56 -156
0 -4 -8 -23 -16 -43 -8 -20 -12 -40 -9 -45 3 -5 1 -9 -4 -9 -5 0 -9 -6 -9 -12
0 -7 -6 -33 -13 -58 -17 -62 -21 -80 -25 -118 -2 -18 -7 -36 -10 -41 -3 -5 -8
-31 -11 -58 -3 -26 -7 -59 -10 -73 -12 -69 -17 -161 -18 -325 0 -196 5 -269
30 -417 3 -18 7 -44 9 -58 9 -66 16 -99 35 -174 11 -45 23 -88 27 -96 3 -8 7
-22 8 -30 8 -53 140 -382 156 -388 5 -2 7 -7 4 -12 -3 -5 0 -14 7 -22 7 -7 14
-20 16 -28 2 -8 9 -18 15 -22 7 -4 8 -8 4 -8 -9 0 31 -71 46 -81 5 -3 7 -8 5
-10 -5 -7 83 -149 93 -149 5 0 8 -3 7 -8 -4 -11 61 -102 73 -102 6 0 8 -4 5
-9 -3 -4 8 -23 25 -42 17 -19 45 -52 62 -73 18 -22 38 -45 44 -52 7 -7 13 -16
13 -19 0 -7 -214 1 -275 10 -16 2 -70 9 -120 15 -49 6 -119 17 -155 25 -36 7
-81 16 -100 19 -19 3 -87 20 -150 37 -63 17 -119 31 -125 33 -5 1 -16 5 -23
10 -7 4 -15 6 -18 3 -10 -10 143 -124 246 -184 228 -131 436 -197 780 -247
162 -24 554 -25 710 -1 14 2 50 6 80 10 30 3 118 17 195 31 128 23 183 35 435
95 47 12 224 58 395 104 275 73 480 125 555 139 163 32 294 56 330 61 25 3 54
7 65 9 20 3 101 14 160 21 200 24 661 24 786 0 10 -2 49 -7 86 -10 37 -4 70
-9 73 -10 3 -2 26 -6 50 -10 67 -10 249 -52 318 -74 34 -10 62 -17 62 -15 0 8
-214 130 -315 178 -99 48 -288 126 -307 126 -4 1 -27 8 -50 16 -58 20 -186 52
-278 69 -117 21 -123 22 -305 40 -58 6 -349 6 -420 0 -315 -26 -580 -80 -1055
-217 -455 -130 -657 -183 -824 -216 l-39 -7 -91 94 c-50 51 -101 104 -113 117
-13 13 -23 28 -23 34 0 5 -8 10 -17 10 -9 0 -14 3 -10 6 3 4 1 12 -6 19 -7 6
-28 31 -47 55 -19 24 -43 52 -52 62 -10 10 -15 18 -12 18 3 0 -10 19 -29 43
-18 23 -49 66 -67 95 -18 28 -37 52 -42 52 -5 0 -6 5 -3 10 3 6 -1 13 -9 16
-9 3 -14 9 -11 14 2 4 -4 16 -15 27 -10 12 -16 23 -13 27 3 3 -2 8 -11 12 -9
3 -14 10 -11 14 3 4 -4 19 -15 32 -11 14 -16 28 -13 32 3 3 2 6 -4 6 -5 0 -23
27 -39 60 -16 33 -33 60 -37 60 -5 0 -6 4 -2 9 3 5 -2 16 -10 25 -9 8 -16 18
-15 21 1 18 -1 25 -12 37 -7 7 -19 31 -27 53 -7 22 -21 49 -30 59 -9 11 -10
16 -4 12 9 -5 11 -2 7 8 -3 9 -10 16 -15 16 -5 0 -8 3 -7 8 3 9 -32 103 -45
120 -5 6 -7 12 -3 12 4 0 0 13 -9 30 -9 17 -13 30 -11 30 2 0 -5 26 -16 58
-11 31 -22 66 -24 77 -4 20 -12 58 -19 85 -2 8 -4 15 -5 15 -2 0 -10 35 -15
70 -3 17 -7 41 -10 55 -20 94 -28 432 -11 520 4 25 9 56 10 70 1 14 5 34 8 45
4 11 9 31 12 45 3 14 8 36 11 50 4 14 8 35 10 46 2 12 8 31 14 43 7 11 10 21
7 21 -10 0 67 196 122 310 20 41 35 78 34 83 -1 4 3 7 10 7 6 0 9 3 5 6 -3 3
3 15 14 27 10 11 25 33 31 49 7 15 16 28 20 28 5 0 8 7 8 15 0 8 4 15 8 15 10
0 37 50 34 63 -1 4 2 7 7 7 5 0 23 22 40 49 32 54 51 78 94 123 15 16 27 31
27 33 0 2 32 35 70 73 39 38 70 67 70 65 0 -2 13 10 30 27 16 16 34 30 39 30
5 0 19 12 31 28 12 15 23 25 25 22 2 -3 21 10 42 29 21 18 40 33 43 32 3 -1
14 7 25 16 11 10 22 18 25 18 9 1 95 60 98 68 2 4 10 7 18 7 8 0 14 5 14 11 0
5 4 8 8 5 5 -3 25 6 45 19 20 14 41 25 46 25 6 0 11 5 11 11 0 5 5 7 10 4 6
-3 10 -1 10 5 0 6 5 8 10 5 6 -3 10 -2 10 3 0 6 11 13 25 16 14 4 25 11 25 16
0 5 6 7 13 4 8 -3 20 2 27 11 7 8 19 15 27 15 8 0 27 7 41 15 36 20 181 76
211 82 14 2 28 6 31 8 4 2 20 7 36 9 16 3 40 8 54 11 14 3 62 8 108 10 67 3
82 1 82 -10 0 -8 -3 -14 -7 -13 -5 1 -19 -2 -33 -5 -14 -4 -41 -9 -60 -12 -19
-4 -46 -8 -60 -11 -14 -3 -33 -5 -43 -5 -21 0 -18 -21 4 -25 7 -1 28 -7 46
-12 17 -6 34 -8 36 -5 3 3 4 -3 3 -13 -2 -10 -13 -19 -27 -21 -29 -3 -156 -24
-184 -29 -10 -2 -37 -6 -60 -10 -51 -7 -55 -11 -19 -19 59 -13 94 -27 94 -36
0 -14 -44 -29 -104 -35 -28 -3 -58 -10 -67 -15 -9 -4 -18 -7 -20 -5 -8 8 -113
-20 -116 -31 -3 -9 32 -25 62 -27 19 -2 10 -29 -10 -32 -11 -2 -36 -6 -55 -10
-19 -4 -42 -8 -50 -9 -8 -1 -42 -8 -75 -15 -33 -7 -71 -14 -85 -15 -14 -2 -29
-3 -35 -4 -10 -1 42 -32 60 -35 19 -3 50 -24 44 -30 -3 -3 -43 -14 -89 -24
-72 -16 -81 -20 -60 -27 14 -5 32 -9 40 -11 8 -1 35 -5 60 -9 58 -10 214 -12
265 -2 22 3 65 14 95 22 30 9 62 18 70 20 8 2 47 16 85 30 39 15 95 35 125 44
30 10 65 23 78 30 12 7 22 8 22 2 0 -5 -18 -17 -40 -27 -22 -10 -40 -21 -40
-26 0 -4 -7 -8 -15 -8 -8 0 -15 -4 -15 -10 0 -5 -5 -10 -11 -10 -6 0 -23 -9
-39 -20 -15 -11 -30 -17 -34 -13 -3 3 -6 1 -6 -5 0 -7 -7 -12 -15 -12 -8 0
-15 -4 -15 -9 0 -5 -8 -12 -17 -15 -10 -3 18 -3 63 0 67 4 81 2 81 -11 0 -8
-6 -15 -14 -15 -7 0 -13 -4 -13 -10 0 -5 -11 -12 -25 -16 -14 -3 -25 -10 -25
-16 0 -5 -5 -6 -10 -3 -6 3 -13 -1 -16 -9 -3 -9 -10 -13 -15 -10 -5 3 -9 0 -9
-5 0 -6 -7 -11 -15 -11 -8 0 -15 -5 -15 -11 0 -5 -4 -7 -10 -4 -5 3 -10 3 -10
-2 0 -8 -58 -46 -72 -47 -4 -1 -15 -8 -25 -16 -19 -17 -27 -20 -45 -20 -6 0
-8 -3 -4 -7 4 -5 35 -8 68 -8 46 0 62 -4 66 -15 3 -8 2 -12 -2 -8 -7 6 -60
-24 -93 -52 -7 -6 -13 -8 -13 -5 0 4 -15 -4 -32 -17 -18 -13 -36 -23 -40 -23
-4 0 -16 -7 -26 -15 -10 -8 -25 -16 -33 -18 -7 -2 -17 -9 -21 -15 -4 -7 -11
-12 -15 -12 -4 -1 -21 -8 -37 -16 l-28 -16 33 -2 c19 -1 48 -4 64 -6 17 -1 36
-3 44 -4 18 -1 -10 -29 -51 -50 -15 -8 -36 -22 -47 -32 -10 -10 -21 -16 -24
-13 -2 2 -10 -2 -17 -11 -7 -8 -20 -15 -29 -15 -13 0 -14 -2 -1 -9 8 -6 17 -8
20 -6 4 2 20 7 36 9 16 3 39 8 52 11 12 3 31 7 41 9 11 3 29 10 40 16 12 6 21
8 21 6 0 -7 143 44 150 53 3 3 10 6 15 6 22 1 165 76 165 87 0 6 3 9 6 5 8 -8
88 51 139 103 36 37 35 36 95 90 95 87 99 90 109 90 5 0 11 3 13 8 5 13 128
82 128 72 0 -17 -23 -60 -32 -60 -5 0 -6 -4 -3 -10 3 -5 2 -10 -4 -10 -5 0
-13 -10 -17 -22 -4 -13 -17 -36 -30 -51 -13 -16 -24 -35 -24 -43 0 -8 -4 -14
-9 -14 -5 0 -14 -13 -21 -30 -7 -16 -17 -30 -22 -30 -5 0 -6 -5 -3 -10 3 -6
-1 -13 -9 -16 -9 -3 -14 -9 -11 -14 2 -4 -5 -17 -16 -28 -11 -12 -16 -22 -11
-22 5 0 17 9 27 20 10 11 20 18 23 16 2 -3 13 3 24 13 28 27 107 65 116 57 4
-4 -1 -14 -11 -21 -10 -7 -18 -17 -18 -22 1 -4 -5 -15 -13 -25 -8 -9 -12 -19
-9 -22 4 -3 1 -6 -6 -6 -7 0 -10 -4 -7 -9 3 -5 -1 -15 -10 -22 -8 -7 -25 -31
-36 -53 -11 -23 -27 -49 -36 -58 -8 -10 -12 -18 -8 -18 4 0 -2 -12 -13 -26
-12 -15 -21 -33 -21 -40 0 -8 -4 -14 -8 -14 -5 0 -16 -16 -25 -35 -18 -37 -9
-46 17 -19 9 8 16 13 16 9 0 -3 14 2 30 12 17 9 30 20 30 23 0 3 9 6 20 6 11
0 20 -2 20 -4 0 -3 -20 -38 -45 -78 -24 -41 -42 -74 -38 -74 4 0 -1 -6 -10
-12 -9 -7 -17 -20 -19 -28 -3 -15 -7 -22 -38 -59 -11 -13 -20 -28 -20 -33 0
-5 -14 -29 -30 -53 -34 -49 -28 -51 45 -19 22 10 43 17 48 16 4 -1 7 3 7 8 0
6 7 10 15 10 19 0 19 -2 -5 -45 -11 -19 -16 -35 -12 -35 4 0 2 -4 -4 -8 -16
-10 -75 -123 -69 -132 3 -5 -1 -11 -7 -13 -9 -4 -9 -6 -1 -6 6 -1 21 11 32 25
12 15 21 23 21 18 0 -5 19 11 42 36 22 25 37 38 33 30 -4 -8 18 10 49 42 31
31 56 61 56 68 0 6 3 9 8 7 4 -3 13 1 20 9 7 8 9 14 5 14 -4 0 3 7 15 16 12 8
20 20 17 25 -4 5 -1 9 4 9 14 0 101 119 101 138 0 7 5 10 10 7 6 -3 10 1 10 9
0 8 6 21 13 28 14 14 81 146 83 163 0 6 11 32 23 59 12 27 19 51 16 54 -3 3
-1 10 4 16 9 11 18 42 26 91 2 11 4 20 5 20 2 0 4 9 5 20 2 11 6 34 9 50 18
88 24 275 12 395 -4 36 -9 81 -11 100 -2 19 -4 35 -5 35 -2 0 -3 28 -4 63 -1
44 2 62 11 62 7 0 15 -12 18 -27 3 -16 10 -41 16 -58 11 -31 19 -68 22 -97 1
-10 5 -18 9 -18 10 0 16 15 21 49 7 49 34 30 43 -29 1 -8 5 -26 8 -40 23 -102
29 -127 32 -139 5 -16 14 -10 18 11 10 55 19 78 32 78 9 0 13 -4 10 -9 -3 -5
1 -25 9 -45 8 -20 15 -39 15 -43 -1 -21 44 -173 52 -173 4 0 7 3 6 8 -1 4 3
22 10 41 12 33 13 34 26 15 8 -10 12 -22 10 -26 -3 -5 -2 -14 2 -20 5 -7 9
-19 10 -28 1 -8 10 -44 19 -80 10 -36 17 -71 18 -77 1 -25 24 -12 33 18 5 17
13 30 18 30 12 0 55 -108 47 -117 -3 -4 -1 -4 5 -1 24 14 20 290 -5 375 -5 18
-10 36 -11 40 0 4 -6 25 -12 47 -6 22 -12 42 -13 45 -3 16 -69 150 -74 150 -3
0 -12 12 -18 28 -7 15 -24 39 -38 55 -14 15 -23 27 -20 27 3 0 -21 27 -52 59
-31 33 -60 58 -65 55 -4 -3 -8 -1 -8 5 0 16 -42 51 -53 44 -6 -3 -7 -2 -4 4 3
5 -8 18 -25 28 -17 10 -39 24 -47 32 -9 7 -20 14 -26 15 -14 3 -55 40 -55 50
0 4 9 8 20 8 11 0 20 4 20 9 0 5 14 14 30 21 44 18 37 25 -20 22 -27 -2 -50
-1 -50 2 0 10 49 54 54 48 3 -3 6 2 6 12 0 9 4 15 8 12 9 -6 128 113 124 125
-1 5 1 8 5 7 5 -2 9 0 11 5 1 4 10 16 20 26 32 36 42 50 42 60 0 6 7 14 16 19
9 5 15 11 13 13 -1 2 8 24 21 48 29 58 68 161 74 197 2 16 5 29 6 29 12 0 21
281 11 350 l-7 50 -17 -60 c-30 -104 -32 -106 -51 -61 -9 21 -16 43 -16 49 0
19 -19 -7 -24 -33 -3 -14 -9 -40 -15 -59 -6 -19 -8 -38 -5 -42 3 -5 1 -9 -3
-9 -5 0 -10 -11 -11 -26 -1 -14 -6 -33 -11 -42 -4 -9 -7 -25 -6 -34 6 -34 -23
-18 -32 18 -7 32 -25 43 -30 19 -1 -5 -5 -21 -8 -35 -3 -14 -8 -32 -10 -40 -2
-8 -4 -16 -5 -17 -3 -3 -2 -2 -15 -58 -10 -46 -12 -53 -15 -60 -1 -3 -3 -10
-4 -17 -3 -31 -24 -13 -36 32 -8 30 -17 45 -21 38 -3 -7 -19 -66 -33 -130 -15
-65 -32 -118 -37 -118 -5 0 -9 3 -10 8 -4 36 -12 69 -20 81 -9 14 -10 13 -5
-1 3 -10 2 -18 -3 -18 -7 0 -46 -153 -44 -176 0 -7 -7 -11 -16 -9 -13 1 -16
14 -16 61 0 32 2 64 5 69 3 6 5 19 6 30 1 11 5 52 9 92 14 141 7 310 -16 413
-6 25 -12 54 -14 65 -8 48 -17 79 -26 97 -5 10 -7 18 -3 18 3 0 1 7 -6 15 -7
8 -9 15 -5 15 4 0 2 6 -4 13 -6 8 -8 17 -4 20 3 4 1 7 -6 7 -6 0 -11 6 -10 13
3 13 -32 90 -43 95 -4 2 -5 9 -2 16 3 7 -2 19 -11 26 -8 7 -15 19 -15 27 0 7
-7 16 -15 19 -8 4 -13 10 -10 14 3 5 -2 15 -10 23 -8 9 -15 18 -15 21 0 12
-72 106 -82 106 -5 0 -6 5 -3 10 3 6 -1 13 -9 16 -9 3 -16 11 -16 17 0 12
-204 217 -217 217 -4 0 -13 8 -19 18 -6 9 -26 25 -44 36 l-32 18 13 -23z"/>
<path d="M5577 1263 c-2 -1 -32 -5 -67 -7 -36 -3 -87 -8 -115 -11 -27 -4 -63
-8 -80 -10 -16 -2 -41 -6 -55 -9 -13 -3 -42 -8 -65 -11 -22 -3 -55 -11 -74
-17 -19 -6 -46 -12 -60 -14 -14 -1 -41 -7 -59 -13 -18 -5 -36 -10 -40 -11 -6
-1 -102 -27 -127 -34 -5 -2 -14 -5 -20 -6 -5 -2 -35 -12 -65 -22 -65 -23 -65
-23 -108 -33 -18 -4 -35 -12 -38 -16 -3 -5 -10 -7 -15 -3 -5 3 -16 0 -24 -6
-8 -7 -15 -10 -15 -6 0 3 -17 -1 -37 -9 -21 -8 -47 -16 -58 -18 -11 -2 -38 -9
-60 -15 -22 -6 -42 -11 -45 -11 -3 0 -18 -5 -35 -11 -16 -7 -41 -14 -55 -17
-34 -7 -39 -8 -85 -21 -22 -6 -51 -13 -65 -16 -25 -5 -33 -7 -105 -26 -22 -6
-56 -13 -75 -16 -19 -2 -44 -8 -55 -11 -11 -4 -29 -7 -40 -8 -11 -1 -29 -5
-40 -8 -19 -6 -64 -15 -115 -22 -37 -5 -102 -16 -130 -21 -55 -10 -166 -24
-225 -30 -22 -2 -74 -6 -115 -10 -99 -10 -616 -10 -705 0 -126 13 -149 15
-190 20 -65 8 -103 14 -122 20 -10 3 -38 7 -64 10 -25 3 -52 7 -60 10 -7 3
-27 8 -44 11 -60 12 -80 16 -100 21 -16 4 -14 1 7 -16 15 -12 31 -21 35 -21 4
0 23 -12 40 -25 18 -14 33 -21 33 -17 0 4 5 1 10 -7 5 -8 13 -15 17 -15 4 0
23 -10 40 -23 18 -13 33 -20 33 -15 0 4 4 3 8 -3 10 -14 112 -66 112 -57 0 5
4 3 8 -2 6 -9 38 -24 117 -55 44 -17 105 -40 113 -41 4 -1 12 -3 17 -5 30 -11
152 -41 199 -50 16 -2 32 -7 35 -9 4 -2 26 -6 51 -10 25 -4 47 -8 50 -10 3 -2
35 -7 70 -10 36 -4 81 -9 100 -11 171 -21 466 -16 665 12 28 3 61 8 75 9 56 6
125 17 132 21 4 3 26 7 48 9 22 2 45 7 51 10 9 6 65 16 97 18 6 0 12 3 12 7 0
3 8 6 18 6 9 1 28 4 42 7 14 3 34 8 45 10 11 3 47 12 80 21 33 10 74 19 90 22
17 3 36 11 43 16 6 6 12 8 12 5 0 -3 66 13 148 35 81 21 154 41 162 43 8 1 53
13 100 25 47 12 92 24 100 25 8 2 15 4 15 5 0 1 11 3 25 6 14 2 32 7 40 11 14
6 46 12 83 16 9 0 17 4 17 7 0 3 8 7 18 8 24 2 66 10 70 12 1 2 5 3 10 4 20 5
88 19 97 21 6 1 12 3 15 4 3 2 14 4 25 5 25 4 83 14 115 21 37 8 82 16 110 20
35 5 100 15 130 21 14 2 48 6 75 9 28 3 64 8 80 10 182 24 629 25 796 0 30 -4
74 -8 204 -20 22 -2 65 -6 95 -9 l55 -5 -30 17 c-16 9 -33 15 -37 14 -5 -1 -8
2 -8 7 0 5 -15 14 -32 22 -18 7 -35 16 -38 19 -7 8 -78 41 -86 40 -4 -1 -10 2
-13 7 -3 5 -29 19 -58 31 -28 12 -64 27 -80 34 -15 7 -32 13 -38 13 -9 2 -42
15 -90 37 -11 5 -30 10 -43 11 -12 0 -22 4 -22 7 0 4 -6 7 -12 7 -7 0 -33 6
-58 13 -25 7 -52 13 -60 15 -8 2 -35 8 -60 15 -25 6 -56 13 -70 14 -14 2 -41
7 -60 11 -19 4 -51 8 -70 10 -19 2 -64 7 -100 10 -63 7 -368 13 -373 8z"/>
</g>
</svg>
