<?xml version="1.0" standalone="no"?>
<!DOCTYPE svg PUBLIC "-//W3C//DTD SVG 20010904//EN"
 "http://www.w3.org/TR/2001/REC-SVG-20010904/DTD/svg10.dtd">
<svg version="1.0" xmlns="http://www.w3.org/2000/svg"
 width="400.000000pt" height="400.000000pt" viewBox="0 0 400.000000 400.000000"
 preserveAspectRatio="xMidYMid meet">
<metadata>
Created by potrace 1.11, written by Peter Selinger 2001-2013
</metadata>
<g transform="translate(0.000000,400.000000) scale(0.100000,-0.100000)"
fill="#000000" stroke="none">
<path d="M895 3430 c-159 -28 -280 -73 -402 -152 -252 -162 -428 -469 -477
-833 -9 -65 -17 -1885 -9 -1886 4 0 19 -3 33 -5 70 -13 181 44 284 145 106
104 147 205 136 339 -6 74 -3 83 31 81 64 -4 776 19 819 26 14 2 41 6 60 9
147 23 312 90 445 179 68 46 206 180 253 246 20 27 33 38 36 30 3 -8 14 -41
24 -74 11 -33 57 -175 102 -315 45 -140 93 -291 107 -335 49 -153 106 -227
219 -280 197 -93 520 -62 653 64 44 42 61 71 89 161 65 208 266 844 282 890
10 30 25 78 33 105 38 124 259 818 368 1159 15 47 16 61 7 68 -17 10 -190 2
-250 -11 -74 -17 -156 -60 -189 -100 -42 -51 -85 -147 -172 -376 -60 -160
-297 -853 -312 -915 -3 -8 -23 -73 -45 -145 -23 -71 -66 -208 -96 -304 -29
-96 -59 -178 -66 -183 -16 -10 -49 -10 -64 0 -25 16 -23 11 -200 572 -36 113
-66 210 -68 215 -2 6 -5 17 -8 25 -3 8 -10 31 -16 50 -5 19 -64 211 -131 425
-96 307 -135 416 -182 513 -33 67 -65 122 -70 122 -5 0 -9 6 -9 13 0 7 -33 51
-73 97 -169 197 -390 325 -647 376 -125 24 -369 27 -495 4z m418 -425 c185
-38 346 -178 439 -383 33 -72 72 -214 83 -299 l6 -53 -38 -1 c-21 0 -136 0
-257 0 -201 1 -220 2 -235 20 -47 54 -246 261 -251 261 -3 0 -70 -64 -149
-142 l-143 -141 -150 -1 -150 -1 6 60 c13 139 86 321 176 440 66 87 135 144
231 189 72 34 86 39 179 55 48 8 206 6 253 -4z m-278 -755 c-1 -33 -3 -35 -38
-37 -36 -3 -37 -2 -37 30 0 42 7 49 45 45 27 -3 30 -6 30 -38z m110 10 c3 -40
-5 -50 -41 -50 -32 0 -34 2 -34 33 0 42 5 47 43 44 24 -2 31 -7 32 -27z m-109
-129 c3 -26 1 -29 -32 -33 -42 -5 -44 -3 -44 38 0 28 4 33 28 36 34 5 44 -4
48 -41z m110 7 c-3 -33 -25 -49 -58 -40 -13 3 -18 14 -18 38 0 33 1 34 39 34
38 0 39 -1 37 -32z m494 -309 c0 -8 -96 -105 -128 -131 -39 -31 -126 -76 -172
-89 -32 -9 -161 -13 -452 -13 -402 -1 -408 -1 -409 19 -3 69 -1 195 3 206 5
12 101 14 582 14 317 0 576 -3 576 -6z"/>
</g>
</svg>
