<?xml version="1.0" standalone="no"?>
<!DOCTYPE svg PUBLIC "-//W3C//DTD SVG 20010904//EN"
 "http://www.w3.org/TR/2001/REC-SVG-20010904/DTD/svg10.dtd">
<svg version="1.0" xmlns="http://www.w3.org/2000/svg"
 width="300.000000pt" height="300.000000pt" viewBox="0 0 300.000000 300.000000"
 preserveAspectRatio="xMidYMid meet">
<metadata>
Created by potrace 1.11, written by Peter Selinger 2001-2013
</metadata>
<g transform="translate(0.000000,300.000000) scale(0.100000,-0.100000)"
fill="#000000" stroke="none">
<path d="M23 2289 c-4 -4 -7 -370 -5 -813 l2 -806 135 0 c122 0 135 2 136 18
0 9 1 284 1 611 l0 593 25 -28 c14 -16 32 -41 41 -56 9 -16 20 -28 24 -28 4 0
8 -7 8 -15 0 -8 3 -15 8 -15 7 0 54 -65 53 -74 0 -3 10 -16 22 -28 12 -13 45
-54 72 -93 27 -38 53 -71 57 -73 5 -2 8 -10 8 -18 0 -8 3 -14 8 -14 8 0 53
-64 55 -77 0 -4 11 -16 24 -27 13 -10 22 -21 19 -24 -3 -3 2 -12 12 -21 10 -9
38 -45 63 -81 24 -36 49 -69 55 -75 5 -5 23 -30 40 -54 l29 -44 1 -176 c1 -97
2 -182 3 -189 1 -10 32 -12 134 -10 l132 3 3 35 c2 19 9 41 15 49 9 11 9 13 0
8 -9 -6 -12 28 -11 140 0 145 8 190 30 177 7 -4 8 -3 4 4 -4 7 -2 17 4 24 42
50 60 74 60 80 0 4 6 13 13 20 7 7 52 68 101 136 79 109 106 138 106 115 0 -5
14 -24 30 -43 16 -19 34 -40 40 -47 5 -7 10 -17 10 -23 0 -5 3 -10 8 -10 4 0
18 -17 32 -37 14 -21 30 -45 37 -53 6 -8 37 -49 67 -90 31 -41 60 -80 66 -87
6 -7 10 -88 10 -208 l0 -195 135 0 c122 0 135 2 136 18 1 9 2 91 3 182 3 204
1 190 29 220 12 14 30 38 40 53 10 16 25 36 32 45 8 9 47 62 87 117 86 118 88
121 111 146 9 10 17 22 17 27 0 4 11 19 25 34 14 15 25 29 25 32 0 3 35 52 78
108 42 57 89 121 105 143 15 22 38 53 51 69 l24 29 1 -569 c0 -313 0 -588 1
-611 l0 -43 134 0 c119 0 134 2 137 18 4 14 3 1500 0 1583 l-1 26 -134 -1
-134 0 -17 -28 c-9 -15 -20 -28 -26 -28 -5 0 -9 -6 -9 -13 0 -7 -11 -24 -25
-39 -14 -15 -25 -30 -25 -33 0 -3 -17 -27 -37 -53 -21 -27 -47 -61 -58 -76
-11 -16 -46 -63 -78 -105 -32 -42 -64 -85 -72 -96 -55 -76 -247 -334 -263
-353 -18 -23 -18 -14 -18 383 1 223 -2 415 -6 425 -6 16 -19 18 -135 17 l-128
-1 -122 -166 c-68 -91 -131 -174 -140 -186 -10 -11 -24 -32 -32 -47 -14 -25
-15 -26 -33 -10 -10 9 -18 20 -18 25 0 5 -13 23 -30 41 -16 18 -30 38 -30 45
0 6 -4 12 -8 12 -4 0 -41 46 -82 103 -41 56 -76 104 -80 107 -3 3 -16 21 -29
41 l-24 36 -133 -1 c-111 0 -133 -3 -136 -16 -2 -8 -4 -198 -3 -422 0 -224 -3
-404 -6 -400 -28 33 -129 174 -129 181 0 5 -4 11 -9 13 -12 4 -81 96 -81 108
0 6 -3 10 -7 10 -5 1 -24 23 -43 51 -19 28 -43 59 -52 71 -10 11 -15 25 -12
30 3 4 1 7 -4 6 -6 -2 -33 29 -61 67 -29 39 -58 78 -66 88 -8 9 -15 21 -15 26
0 5 -4 11 -9 13 -4 2 -36 41 -70 88 l-62 85 -129 1 c-71 1 -133 -3 -137 -7z
m1215 -458 c10 -10 24 -29 32 -41 8 -12 25 -33 37 -47 46 -56 48 -68 16 -110
-16 -21 -49 -65 -73 -98 -24 -33 -47 -64 -51 -69 -4 -4 -8 33 -8 84 -1 71 2
90 11 84 10 -6 10 -5 2 7 -7 9 -12 60 -12 134 -1 110 0 118 15 98 8 -12 22
-31 31 -42z m572 -151 c0 -115 -3 -210 -7 -210 -5 1 -24 23 -43 51 -19 28 -43
59 -52 71 -10 11 -15 25 -11 31 3 6 1 7 -5 3 -6 -4 -18 6 -27 24 -18 36 -28
19 117 213 12 15 23 27 24 27 2 0 4 -94 4 -210z"/>
<path d="M1425 957 c-6 -7 -11 -72 -11 -149 l-1 -138 83 0 c75 0 84 2 95 21 8
15 8 19 0 15 -15 -10 -14 17 2 33 8 10 8 12 0 7 -13 -7 -13 60 0 81 4 6 3 14
-2 17 -10 7 -9 25 2 43 4 6 3 14 -2 17 -5 4 -8 18 -6 32 2 24 0 25 -36 21 -22
-2 -39 -1 -39 4 0 4 -13 4 -29 -1 -16 -4 -33 -4 -37 0 -5 5 -14 3 -19 -3z"/>
</g>
</svg>
