<?xml version="1.0" standalone="no"?>
<!DOCTYPE svg PUBLIC "-//W3C//DTD SVG 20010904//EN"
 "http://www.w3.org/TR/2001/REC-SVG-20010904/DTD/svg10.dtd">
<svg version="1.0" xmlns="http://www.w3.org/2000/svg"
 width="300.000000pt" height="300.000000pt" viewBox="0 0 300.000000 300.000000"
 preserveAspectRatio="xMidYMid meet">
<metadata>
Created by potrace 1.11, written by Peter Selinger 2001-2013
</metadata>
<g transform="translate(0.000000,300.000000) scale(0.100000,-0.100000)"
fill="#000000" stroke="none">
<path d="M999 2230 c-272 -193 -499 -360 -506 -372 -15 -27 1 -64 31 -72 28
-7 -20 -39 731 494 121 86 225 159 232 163 7 4 57 -25 120 -70 489 -348 823
-581 841 -585 28 -8 62 18 62 47 0 25 -31 53 -151 138 -30 21 -124 87 -209
147 -85 60 -266 188 -402 285 -136 96 -249 175 -251 175 -2 0 -226 -158 -498
-350z"/>
<path d="M1164 1778 c-5 -7 -8 -742 -5 -825 1 -9 18 -13 51 -13 41 0 50 3 50
18 1 9 1 163 0 342 l-1 325 93 -136 c51 -75 156 -229 233 -342 l140 -206 56
-1 57 0 -2 423 -1 422 -50 0 -50 -1 1 -337 c1 -185 -1 -337 -5 -337 -3 1 -58
77 -121 171 -135 200 -253 372 -308 449 -37 53 -40 55 -86 56 -26 0 -49 -3
-52 -8z"/>
<path d="M695 926 c-17 -12 -19 -31 -19 -245 -1 -127 1 -237 4 -244 4 -9 191
-12 823 -12 l817 0 0 70 c3 367 1 407 -16 426 -20 23 -43 24 -69 5 -18 -13
-19 -29 -20 -202 l0 -189 -717 -1 -717 -1 1 183 c1 164 -1 187 -17 204 -21 23
-44 25 -70 6z"/>
</g>
</svg>
