<?xml version="1.0" standalone="no"?>
<!DOCTYPE svg PUBLIC "-//W3C//DTD SVG 20010904//EN"
 "http://www.w3.org/TR/2001/REC-SVG-20010904/DTD/svg10.dtd">
<svg version="1.0" xmlns="http://www.w3.org/2000/svg"
 width="200.000000pt" height="200.000000pt" viewBox="0 0 200.000000 200.000000"
 preserveAspectRatio="xMidYMid meet">
<metadata>
Created by potrace 1.11, written by Peter Selinger 2001-2013
</metadata>
<g transform="translate(0.000000,200.000000) scale(0.100000,-0.100000)"
fill="#000000" stroke="none">
<path d="M386 1978 c-10 -6 -13 -20 -9 -47 3 -22 1 -54 -5 -71 -8 -22 -8 -46
0 -83 6 -31 11 -202 12 -419 l2 -368 -49 -46 c-51 -50 -81 -98 -74 -118 3 -7
24 -18 46 -26 31 -10 40 -17 36 -29 -4 -9 -9 -30 -12 -47 -4 -26 0 -35 27 -54
l32 -22 -5 -237 c-4 -227 1 -342 16 -357 13 -14 383 -19 737 -10 107 2 259 5
337 5 l141 1 11 33 c7 21 9 67 5 118 -3 46 -5 93 -4 104 0 11 3 69 6 128 l5
108 25 -16 c50 -32 112 32 79 82 -8 12 -15 30 -15 40 0 10 -11 38 -24 63 -12
25 -29 68 -35 95 -7 28 -19 57 -27 67 -12 12 -14 31 -10 79 9 96 16 160 22
209 3 25 8 75 9 112 2 41 10 77 21 93 22 34 35 106 22 122 -5 7 -7 17 -3 23 4
7 9 28 10 48 2 20 7 56 11 79 6 40 5 43 -25 60 -36 20 -50 58 -44 118 5 48 5
48 2 103 -2 55 -18 71 -66 66 -51 -5 -646 -5 -848 0 -88 2 -178 1 -200 -3 -22
-3 -64 -4 -93 -1 -29 3 -59 2 -66 -2z"/>
</g>
</svg>
