<?xml version="1.0" standalone="no"?>
<!DOCTYPE svg PUBLIC "-//W3C//DTD SVG 20010904//EN"
 "http://www.w3.org/TR/2001/REC-SVG-20010904/DTD/svg10.dtd">
<svg version="1.0" xmlns="http://www.w3.org/2000/svg"
 width="300.000000pt" height="300.000000pt" viewBox="0 0 300.000000 300.000000"
 preserveAspectRatio="xMidYMid meet">
<metadata>
Created by potrace 1.11, written by Peter Selinger 2001-2013
</metadata>
<g transform="translate(0.000000,300.000000) scale(0.100000,-0.100000)"
fill="#000000" stroke="none">
<path d="M30 1718 c1 -1210 1 -1245 21 -1317 42 -155 139 -285 252 -341 34
-16 76 -32 92 -35 23 -4 1664 -8 2458 -5 l117 0 -3 1253 c-1 688 -5 1261 -9
1273 -3 11 -13 43 -21 70 -24 81 -69 156 -127 215 -65 66 -94 84 -167 110 -53
18 -105 19 -1334 19 l-1279 0 0 -1242z"/>
</g>
</svg>
