<?xml version="1.0" standalone="no"?>
<!DOCTYPE svg PUBLIC "-//W3C//DTD SVG 20010904//EN"
 "http://www.w3.org/TR/2001/REC-SVG-20010904/DTD/svg10.dtd">
<svg version="1.0" xmlns="http://www.w3.org/2000/svg"
 width="300.000000pt" height="300.000000pt" viewBox="0 0 300.000000 300.000000"
 preserveAspectRatio="xMidYMid meet">
<metadata>
Created by potrace 1.11, written by Peter Selinger 2001-2013
</metadata>
<g transform="translate(0.000000,300.000000) scale(0.100000,-0.100000)"
fill="#000000" stroke="none">
<path d="M2175 2555 c-323 -74 -548 -141 -760 -225 -445 -178 -724 -380 -842
-612 -121 -238 -36 -498 232 -713 28 -22 52 -43 55 -46 33 -41 378 -223 535
-283 39 -15 79 -31 90 -36 25 -12 285 -97 316 -105 13 -3 83 -20 154 -39 72
-19 147 -37 169 -40 21 -4 42 -8 46 -11 4 -3 25 -7 45 -11 47 -7 62 -11 102
-23 20 -6 35 -6 38 0 4 5 0 9 -9 9 -19 0 -242 115 -331 170 -60 38 -119 79
-199 140 -108 81 -276 278 -329 384 -46 93 -94 226 -82 226 3 0 0 12 -6 28
-14 37 -13 215 1 277 27 111 97 277 140 327 5 7 29 38 52 68 79 106 206 220
368 332 59 41 285 168 299 168 3 0 29 11 56 25 66 32 40 31 -140 -10z"/>
</g>
</svg>
