<?xml version="1.0" standalone="no"?>
<!DOCTYPE svg PUBLIC "-//W3C//DTD SVG 20010904//EN"
 "http://www.w3.org/TR/2001/REC-SVG-20010904/DTD/svg10.dtd">
<svg version="1.0" xmlns="http://www.w3.org/2000/svg"
 width="300.000000pt" height="300.000000pt" viewBox="0 0 300.000000 300.000000"
 preserveAspectRatio="xMidYMid meet">
<metadata>
Created by potrace 1.11, written by Peter Selinger 2001-2013
</metadata>
<g transform="translate(0.000000,300.000000) scale(0.100000,-0.100000)"
fill="#000000" stroke="none">
<path d="M1310 2835 c-522 -99 -944 -496 -1069 -1006 -34 -139 -46 -307 -33
-442 11 -105 44 -262 58 -276 10 -10 84 83 79 98 -23 60 -37 208 -32 341 11
312 122 577 338 804 187 196 394 313 659 372 109 25 367 25 480 1 443 -95 790
-398 938 -819 75 -213 90 -460 39 -674 l-12 -52 -73 42 c-60 34 -72 44 -67 61
13 46 17 125 7 153 -7 21 -7 33 1 41 8 8 7 15 -3 25 -8 8 -168 114 -355 236
-187 123 -341 223 -341 224 -1 0 -5 20 -9 44 l-7 43 41 -20 c22 -12 47 -21 55
-21 8 0 24 -13 36 -30 27 -38 163 -127 215 -141 22 -6 50 -16 62 -22 27 -12
41 -3 25 16 -7 7 -110 84 -231 171 l-219 158 -16 111 c-8 62 -17 123 -18 137
-3 21 -10 26 -48 32 -25 4 -70 4 -101 1 -43 -4 -62 -1 -83 12 -31 21 -35 4 -6
-25 16 -16 33 -20 85 -20 103 0 110 -6 125 -112 6 -49 10 -91 8 -92 -1 -2
-117 79 -256 180 -139 101 -255 184 -258 184 -11 0 -2 -39 11 -44 9 -3 15 -18
15 -36 0 -41 32 -101 71 -134 34 -29 196 -110 242 -121 15 -4 27 -10 27 -14 0
-4 32 -32 72 -62 39 -29 77 -60 85 -67 12 -13 19 -82 8 -82 -3 0 -38 22 -78
48 -272 183 -644 412 -669 412 -24 0 -23 -24 3 -41 20 -14 20 -16 5 -88 -9
-40 -24 -92 -35 -115 -26 -52 -78 -116 -95 -116 -8 0 -49 16 -91 35 -43 20
-84 34 -92 31 -20 -8 -15 -34 8 -41 19 -6 21 -12 16 -59 -12 -119 -101 -323
-178 -411 l-30 -34 -50 20 c-28 10 -55 17 -60 14 -17 -11 -9 -32 17 -44 25
-11 26 -14 20 -64 -15 -115 -79 -331 -130 -438 -60 -127 -183 -284 -290 -369
-77 -62 -74 -73 17 -65 l72 6 -38 -35 c-22 -19 -37 -39 -34 -43 3 -5 58 -3
122 3 597 64 1147 33 1715 -99 l55 -12 9 -68 c5 -37 7 -70 4 -72 -12 -12 -180
-65 -254 -80 -354 -74 -748 26 -1026 258 l-70 58 -64 -6 c-35 -4 -64 -11 -64
-15 0 -19 165 -157 266 -222 128 -82 323 -156 488 -184 149 -25 414 -15 556
20 111 28 254 85 339 135 214 127 330 230 433 387 175 266 248 499 248 789 0
158 -20 287 -65 422 -67 201 -164 361 -309 512 -186 191 -394 313 -646 377
-92 23 -129 27 -300 30 -139 2 -217 -1 -270 -11z m383 -1061 c157 -65 204 -90
210 -113 4 -16 -26 -4 -164 65 -149 74 -183 94 -164 94 3 0 56 -21 118 -46z
m381 -185 c111 -63 326 -199 326 -205 0 -3 -33 12 -72 34 -40 22 -131 70 -203
107 -121 63 -155 87 -155 107 0 14 12 9 104 -43z m-639 -238 c133 -35 249 -73
462 -152 54 -20 62 -26 66 -53 3 -17 4 -32 3 -33 -1 -2 -90 33 -197 76 -107
43 -264 106 -349 139 -85 34 -150 61 -145 62 6 0 78 -18 160 -39z m830 -306
c110 -48 345 -179 345 -191 0 -6 -6 -17 -14 -23 -11 -10 -45 3 -164 63 -83 42
-197 96 -254 121 -108 49 -128 64 -128 102 0 24 -5 26 215 -72z m-65 -592 c8
-7 -32 -33 -41 -27 -5 3 -9 14 -9 25 0 16 4 19 23 13 12 -3 24 -9 27 -11z"/>
</g>
</svg>
