<?xml version="1.0" standalone="no"?>
<!DOCTYPE svg PUBLIC "-//W3C//DTD SVG 20010904//EN"
 "http://www.w3.org/TR/2001/REC-SVG-20010904/DTD/svg10.dtd">
<svg version="1.0" xmlns="http://www.w3.org/2000/svg"
 width="2100.000000pt" height="2100.000000pt" viewBox="0 0 2100.000000 2100.000000"
 preserveAspectRatio="xMidYMid meet">
<metadata>
Created by potrace 1.11, written by Peter Selinger 2001-2013
</metadata>
<g transform="translate(0.000000,2100.000000) scale(0.100000,-0.100000)"
fill="#000000" stroke="none">
<path d="M870 16268 c-347 -49 -631 -338 -679 -691 -15 -110 -15 -10084 0
-10194 49 -359 333 -643 692 -692 111 -15 19093 -15 19204 0 362 49 646 335
693 699 8 61 10 1540 8 5145 l-3 5060 -22 79 c-93 323 -350 550 -676 595 -101
14 -19120 13 -19217 -1z m19328 -150 c108 -39 177 -84 262 -168 84 -85 129
-154 168 -262 l27 -73 0 -5135 0 -5135 -27 -73 c-74 -203 -225 -354 -427 -426
l-86 -31 -9593 -3 c-8510 -2 -9601 0 -9659 13 -248 58 -451 255 -520 506 -17
61 -18 321 -18 5149 0 4228 2 5094 13 5140 8 30 34 98 59 150 38 79 59 108
132 180 68 69 104 95 171 129 47 23 108 48 135 56 42 11 1546 13 9670 12
l9620 -2 73 -27z"/>
<path d="M1400 15599 c-161 -23 -320 -114 -430 -246 -58 -70 -93 -132 -127
-228 l-28 -80 0 -4560 0 -4560 27 -80 c29 -86 78 -173 135 -243 83 -101 248
-200 380 -227 63 -13 1158 -15 9170 -13 l9098 3 80 28 c120 43 181 82 276 176
67 67 95 104 127 168 80 161 73 -311 70 4778 l-3 4550 -27 73 c-39 108 -84
177 -168 262 -117 117 -237 177 -394 199 -93 13 -18098 13 -18186 0z m6252
-1821 c4 -1474 1 -1397 58 -1478 28 -40 91 -69 148 -70 l42 0 0 -80 0 -80
-505 0 -505 0 0 80 0 80 58 0 c82 0 139 31 170 91 40 79 43 190 40 1257 -3
905 -5 1000 -20 1034 -19 41 -27 47 -158 104 l-95 41 0 74 0 73 340 112 c199
66 358 113 382 113 l42 1 3 -1352z m-4167 1187 c118 -19 241 -55 396 -116 69
-27 137 -49 151 -49 14 0 37 9 51 21 21 16 38 19 79 17 l53 -3 17 -355 c9
-195 17 -376 17 -402 l1 -48 -82 0 -83 0 -23 71 c-91 285 -267 495 -492 586
-105 42 -192 56 -320 50 -451 -21 -776 -337 -892 -867 -20 -92 -22 -133 -22
-335 0 -253 12 -341 74 -527 100 -299 309 -558 545 -675 172 -86 359 -113 533
-77 271 55 492 245 639 550 l46 94 84 0 85 0 -7 -42 c-30 -196 -108 -494 -181
-696 -36 -100 -38 -104 -63 -98 -14 3 -71 11 -126 18 -108 12 -182 5 -435 -43
-157 -31 -510 -34 -640 -6 -298 64 -531 189 -741 397 -166 165 -269 329 -348
553 -97 276 -107 632 -25 914 164 565 636 975 1230 1067 121 19 367 19 479 1z
m7385 -1180 l0 -255 147 111 c400 304 628 394 834 329 136 -42 236 -165 275
-338 26 -112 16 -110 134 -20 223 170 415 283 580 340 83 28 108 32 200 33 93
0 111 -3 162 -27 137 -64 215 -213 247 -473 6 -53 11 -277 11 -550 0 -254 5
-491 10 -529 18 -120 60 -167 160 -174 l60 -4 0 -79 0 -79 -475 0 -475 0 0 79
0 78 40 7 c55 9 121 75 143 142 34 101 39 186 34 591 -3 340 -6 407 -21 458
-23 79 -58 138 -103 172 -33 26 -44 28 -122 28 -71 -1 -97 -6 -147 -28 -87
-37 -172 -88 -297 -176 l-108 -76 4 -460 c4 -493 6 -513 57 -585 26 -37 90
-69 138 -70 l32 0 0 -80 0 -80 -475 0 -475 0 0 80 0 80 38 0 c61 0 123 38 150
91 37 74 44 194 40 624 -5 434 -11 487 -71 586 -103 170 -329 123 -669 -138
l-58 -44 0 -462 c0 -299 4 -476 11 -502 26 -97 100 -155 197 -155 l52 0 0 -80
0 -80 -510 0 -510 0 0 80 0 80 53 0 c115 0 177 64 197 205 13 94 13 999 0
1047 -15 51 -73 100 -169 139 l-81 33 0 61 0 62 333 131 c251 99 344 131 380
131 l47 1 0 -255z m5810 3 l0 -253 79 160 c91 184 135 245 198 276 68 33 121
24 313 -57 192 -81 179 -55 118 -242 -51 -159 -133 -326 -156 -319 -10 3 -68
26 -131 52 -147 60 -204 67 -264 32 -24 -14 -62 -50 -84 -79 -81 -107 -75 -58
-70 -525 4 -451 7 -474 58 -536 40 -49 100 -67 221 -67 l98 0 0 -80 0 -80
-565 0 -565 0 0 80 0 80 50 0 c86 0 142 35 178 110 15 31 17 94 20 552 2 345
-1 531 -8 557 -17 62 -54 97 -151 143 l-89 42 0 61 0 61 328 142 c264 114 336
141 375 142 l47 0 0 -252z m-10760 172 c116 -29 269 -104 360 -177 160 -129
269 -312 315 -528 25 -117 24 -332 -3 -452 -106 -472 -499 -783 -987 -783
-381 0 -697 187 -850 503 -110 229 -132 503 -59 753 49 172 112 280 238 412
151 158 343 256 572 292 95 15 316 4 414 -20z m3297 15 c125 -24 232 -82 328
-179 120 -121 162 -211 205 -434 21 -111 43 -167 72 -185 15 -10 18 -25 18
-84 l0 -73 -556 0 -555 0 7 -47 c31 -215 140 -426 270 -524 188 -143 371 -96
610 153 l90 95 49 -43 c46 -41 48 -45 36 -70 -23 -51 -126 -180 -214 -266
-206 -204 -440 -307 -672 -295 -230 12 -412 118 -540 316 -225 348 -216 930
21 1286 183 276 505 412 831 350z m5878 -19 c175 -56 308 -175 391 -350 25
-52 44 -118 63 -213 27 -137 45 -187 75 -212 12 -10 16 -32 16 -87 l0 -74
-550 0 -550 0 0 -24 c0 -40 27 -157 53 -227 38 -105 96 -199 166 -270 85 -86
154 -121 246 -127 132 -8 237 48 406 220 l106 107 48 -49 47 -48 -53 -78
c-121 -176 -306 -339 -474 -420 -115 -56 -186 -74 -310 -81 -184 -9 -347 48
-477 167 -194 177 -288 429 -288 771 0 347 104 618 312 814 114 107 229 167
388 201 102 21 285 12 385 -20z m3650 9 c98 -26 182 -74 260 -147 131 -122
179 -216 221 -430 25 -127 50 -194 80 -211 10 -6 14 -29 14 -82 l0 -75 -555 0
c-305 0 -555 -2 -555 -4 0 -2 7 -41 16 -86 40 -213 136 -385 272 -487 116 -86
232 -95 368 -28 66 32 100 59 202 160 l122 121 51 -45 50 -46 -37 -55 c-310
-459 -770 -644 -1138 -458 -240 120 -392 386 -426 741 -32 325 58 657 235 871
116 140 295 242 483 276 69 13 268 4 337 -15z m-5413 -3697 c3 -1217 5 -1327
20 -1373 29 -85 111 -145 198 -145 l40 0 0 -80 0 -80 -535 0 -535 0 0 80 0 80
63 0 c113 1 182 54 206 160 14 60 15 2102 1 2149 -15 55 -44 76 -166 122
l-114 43 0 72 0 71 138 42 c75 23 238 72 362 110 129 40 245 69 272 70 l47 1
3 -1322z m-6687 1161 c453 -45 717 -176 868 -431 85 -142 118 -352 83 -518
-31 -148 -126 -297 -252 -398 -70 -56 -213 -132 -296 -158 l-57 -17 67 -71
c84 -89 169 -197 312 -401 159 -227 230 -315 348 -437 157 -161 265 -222 442
-248 133 -20 120 -8 120 -109 l0 -89 -122 -6 c-68 -4 -211 -2 -318 3 -331 18
-472 53 -633 157 -130 84 -224 194 -482 564 -144 206 -252 344 -341 438 l-60
62 -167 0 -167 0 0 -372 c0 -438 4 -463 80 -538 60 -61 126 -80 278 -80 l112
0 0 -95 0 -95 -755 0 -755 0 0 94 0 93 118 5 c139 6 204 29 256 89 63 74 60
22 64 1078 2 631 -1 983 -8 1019 -29 159 -105 213 -320 228 l-100 7 0 87 0 88
78 6 c765 60 1304 75 1607 45z m8025 -729 l0 -280 281 0 281 0 -6 -22 c-3 -13
-18 -69 -32 -125 l-26 -103 -249 0 -249 0 0 -563 c0 -625 1 -635 62 -694 20
-19 52 -37 81 -44 95 -23 189 22 307 148 l70 75 32 -67 31 -68 -24 -46 c-31
-61 -199 -227 -271 -270 -32 -18 -97 -47 -145 -63 -77 -27 -101 -31 -193 -30
-234 1 -382 103 -452 310 -22 66 -23 74 -26 690 l-3 622 -114 0 -115 0 0 63 0
63 48 23 c202 98 485 407 558 612 l18 49 68 0 68 0 0 -280z m-5357 -246 c40
-9 114 -36 166 -61 75 -36 108 -59 171 -121 115 -115 158 -200 200 -402 24
-113 49 -173 80 -192 17 -11 20 -24 20 -80 l0 -68 -595 0 -594 0 5 -32 c51
-295 205 -521 402 -590 166 -58 334 6 541 207 l97 95 52 -43 c28 -23 51 -46
51 -51 2 -18 -131 -176 -217 -257 -217 -207 -458 -312 -712 -311 -217 1 -374
65 -520 212 -98 98 -154 189 -200 327 -116 348 -57 775 144 1040 122 161 316
285 511 327 96 20 307 20 398 0z m2153 -9 c217 -54 379 -167 452 -313 l37 -76
5 -540 c5 -473 8 -546 22 -578 28 -63 84 -73 148 -28 15 11 33 20 38 20 6 0
25 -26 43 -57 l33 -57 -64 -58 c-129 -119 -313 -208 -431 -208 -155 0 -252 78
-305 248 -3 9 -32 -12 -82 -59 -132 -124 -222 -171 -361 -188 -232 -29 -446
63 -530 228 -98 191 -54 469 97 613 74 71 153 110 376 188 202 69 308 119 414
194 l73 51 -3 130 c-3 117 -6 135 -30 180 -58 111 -161 165 -275 144 -71 -14
-117 -49 -149 -115 -24 -49 -28 -69 -27 -140 0 -52 -4 -85 -11 -87 -176 -67
-468 -169 -472 -165 -12 12 -25 138 -20 194 13 156 101 269 281 361 260 133
517 174 741 118z m5074 -100 l0 -75 -37 0 c-60 0 -114 -19 -146 -52 -53 -53
-44 -83 169 -543 103 -223 190 -405 193 -405 14 0 343 712 353 764 15 70 -1
129 -49 173 -36 34 -114 63 -170 63 l-33 0 0 75 0 75 400 0 400 0 0 -74 0 -75
-57 -16 c-107 -31 -172 -85 -238 -198 -15 -27 -254 -529 -531 -1115 l-502
-1067 1534 -3 1534 -2 0 -60 0 -60 -1566 0 -1566 0 -67 -70 c-90 -92 -156
-124 -261 -124 -121 1 -209 53 -252 151 l-19 43 -5339 0 -5340 0 0 60 0 60
5340 0 5339 0 10 38 c16 55 45 98 92 132 49 35 78 44 216 64 63 10 121 25 150
40 101 51 175 151 268 361 50 113 56 134 47 160 -18 56 -623 1330 -664 1399
-80 135 -152 193 -254 203 l-54 6 0 73 0 74 550 0 550 0 0 -75z m-13624 -260
c33 -17 310 -197 616 -402 596 -399 598 -400 664 -532 56 -112 54 -70 54
-1220 0 -787 -3 -1074 -12 -1103 -15 -50 -78 -122 -132 -151 l-41 -22 -1304
-3 c-1447 -3 -1357 -7 -1439 63 -22 19 -51 56 -64 83 l-23 47 0 1090 0 1090
27 68 c36 89 90 169 147 218 83 71 1161 778 1210 794 31 10 78 14 141 12 82
-2 104 -7 156 -32z m8834 -2925 l0 -100 -90 0 -90 0 0 100 0 100 90 0 90 0 0
-100z m2320 -45 l0 -145 65 0 65 0 0 -85 0 -85 -65 0 -65 0 0 -385 0 -385 -90
0 -90 0 0 385 0 385 -65 0 -65 0 0 85 0 85 65 0 65 0 0 145 0 145 90 0 90 0 0
-145z m-8468 -136 c61 -13 140 -50 183 -87 l30 -25 3 51 3 52 90 0 89 0 0
-470 0 -470 -89 0 -90 0 -3 52 -3 51 -31 -26 c-161 -136 -442 -123 -603 28
-106 99 -151 208 -151 364 0 163 40 260 149 364 113 108 265 149 423 116z
m1355 -13 c78 -37 116 -95 137 -214 l6 -33 -87 3 -87 3 -8 33 c-10 38 -58 72
-101 72 -20 0 -40 -11 -63 -34 -70 -70 -36 -141 88 -186 94 -33 175 -79 208
-117 41 -46 64 -130 58 -212 -8 -109 -59 -190 -153 -239 -44 -24 -61 -27 -145
-27 -113 0 -154 17 -218 90 -43 49 -67 108 -78 188 l-7 47 87 0 c86 0 86 0 86
-26 0 -72 64 -137 136 -137 78 0 131 60 121 136 -8 59 -45 90 -165 138 -58 23
-121 56 -139 72 -136 119 -96 365 71 443 72 34 181 33 253 0z m1036 13 c81
-22 147 -109 162 -211 l7 -48 -85 0 c-84 0 -85 0 -92 28 -22 90 -137 108 -185
30 -45 -73 -4 -125 143 -182 177 -69 234 -146 225 -310 -5 -98 -28 -146 -94
-205 -62 -54 -132 -75 -231 -69 -149 10 -236 104 -268 291 l-6 37 84 0 84 0 7
-40 c8 -49 55 -105 101 -120 73 -24 155 35 155 111 0 82 -30 109 -184 168 -97
38 -140 71 -172 137 -21 44 -27 69 -26 123 1 163 107 271 266 271 39 0 88 -5
109 -11z m1339 -32 c226 -111 332 -371 248 -611 -42 -124 -141 -234 -256 -288
-87 -41 -228 -51 -330 -23 -202 55 -344 250 -344 475 0 220 126 398 335 473
39 13 75 17 161 15 105 -3 114 -5 186 -41z m1390 23 c78 -24 145 -67 198 -127
39 -45 100 -154 100 -180 0 -10 -22 -13 -94 -13 l-94 0 -20 33 c-54 85 -139
131 -247 131 -86 -1 -129 -18 -194 -79 -70 -66 -96 -128 -96 -235 0 -68 5 -96
24 -137 26 -59 101 -134 156 -157 128 -54 278 -8 351 108 l29 46 93 0 c109 0
109 0 56 -101 -89 -169 -222 -249 -414 -249 -42 0 -103 7 -135 15 -161 42
-294 186 -335 364 -18 76 -8 222 19 290 56 139 171 248 309 292 79 25 211 25
294 -1z m2140 9 c61 -13 140 -50 183 -87 l30 -25 3 51 3 52 90 0 89 0 0 -470
0 -470 -90 0 -90 0 0 50 0 50 -57 -38 c-108 -73 -211 -94 -340 -72 -155 26
-275 115 -345 256 -40 81 -42 90 -46 195 -6 134 12 212 68 297 113 175 301
253 502 211z m2472 -32 c175 -83 275 -246 276 -449 l0 -68 -385 0 c-310 0
-385 -3 -385 -13 0 -7 12 -36 26 -64 93 -188 340 -225 478 -72 l44 49 97 0
c95 0 96 0 90 -22 -12 -39 -85 -146 -125 -182 -147 -133 -387 -156 -562 -53
-59 34 -150 132 -182 195 -123 242 -32 546 200 669 84 45 122 53 245 49 98 -2
112 -5 183 -39z m1192 19 c78 -36 134 -126 134 -212 l0 -34 -85 0 c-68 0 -85
3 -85 15 0 46 -51 95 -99 95 -81 0 -130 -100 -81 -163 12 -15 55 -38 113 -61
175 -68 229 -120 250 -240 21 -124 -24 -241 -117 -303 -63 -43 -116 -56 -202
-51 -154 10 -249 108 -271 281 l-6 48 83 -3 83 -3 12 -48 c7 -26 23 -59 35
-72 101 -107 276 18 200 142 -24 40 -47 55 -133 88 -131 49 -173 80 -213 155
-28 52 -26 191 3 245 28 53 78 99 133 124 66 30 178 29 246 -3z m-4776 -466
l0 -470 -90 0 -90 0 0 470 0 470 90 0 90 0 0 -470z m7382 184 c38 -11 74 -30
102 -56 40 -34 86 -95 86 -112 0 -3 -25 -6 -56 -6 -50 0 -61 4 -95 34 -136
124 -353 15 -352 -176 1 -100 51 -173 146 -213 69 -29 164 -9 211 44 16 17 30
21 83 21 l64 0 -16 -30 c-43 -83 -137 -140 -246 -148 -138 -10 -251 54 -311
175 -30 61 -33 76 -33 153 0 71 4 94 26 140 72 151 227 220 391 174z m-1302
-264 l0 -270 100 0 100 0 0 -50 0 -50 -150 0 -150 0 0 320 0 320 50 0 50 0 0
-270z m540 0 l0 -270 105 0 105 0 0 -50 0 -50 -155 0 -155 0 0 320 0 320 50 0
50 0 0 -270z m-16885 -35 c16 -15 25 -36 25 -55 0 -26 -4 -30 -28 -30 -19 0
-30 7 -37 22 -12 27 -40 35 -60 18 -28 -23 -16 -48 38 -83 33 -21 59 -47 66
-66 37 -88 -43 -174 -141 -152 -50 11 -77 43 -78 89 0 29 3 32 30 32 22 0 30
-5 30 -18 0 -10 5 -23 12 -30 17 -17 63 -15 78 2 22 28 7 60 -45 93 -72 48
-92 96 -61 152 31 55 128 70 171 26z m2027 -14 c22 -24 28 -41 28 -76 0 -64
-10 -83 -95 -173 -71 -75 -80 -82 -116 -82 -21 0 -39 3 -39 7 0 4 23 31 52 60
50 51 51 53 26 53 -99 0 -119 172 -26 230 26 17 45 20 87 17 46 -3 59 -9 83
-36z m621 28 c55 -25 62 -122 11 -152 -11 -6 -10 -12 6 -29 13 -14 20 -36 20
-59 0 -80 -41 -119 -125 -119 -59 0 -83 13 -101 55 -22 54 -19 65 21 65 28 0
35 -4 35 -19 0 -11 10 -27 21 -35 27 -18 59 -8 78 26 13 23 13 29 -2 52 -11
16 -27 26 -42 26 -17 0 -25 6 -25 18 0 25 11 36 45 47 24 9 30 16 30 40 0 23
-5 31 -22 33 -14 2 -27 -4 -35 -17 -9 -14 -23 -21 -45 -21 -18 0 -33 2 -33 5
0 19 31 75 47 84 24 14 86 14 116 0z m-2447 -15 c-3 -9 -6 -22 -6 -30 0 -9
-11 -14 -30 -14 -25 0 -30 4 -30 23 0 31 7 37 43 37 22 0 28 -4 23 -16z m1494
13 c0 -2 -16 -82 -35 -177 -19 -95 -35 -175 -35 -177 0 -2 -13 -3 -30 -3 -37
0 -37 -1 -6 150 l24 115 -38 -42 c-42 -48 -50 -51 -73 -25 -14 16 -11 22 50
90 60 66 68 72 104 72 21 0 39 -1 39 -3z m678 -19 c-3 -21 -9 -23 -68 -26 -63
-3 -66 -4 -77 -32 l-11 -30 45 0 c36 0 50 -6 74 -29 24 -25 29 -37 29 -81 0
-95 -45 -140 -139 -140 -66 0 -111 35 -111 86 0 31 3 34 29 34 23 0 30 -6 35
-25 10 -38 53 -51 85 -27 60 44 45 122 -23 122 -18 0 -39 -6 -46 -14 -6 -8
-19 -12 -28 -9 -9 3 -23 7 -29 9 -9 2 -4 26 17 85 17 45 33 86 36 90 3 5 46 9
95 9 88 0 90 -1 87 -22z m-1594 -62 c37 -16 76 -60 76 -87 0 -14 -7 -19 -30
-19 -16 0 -30 4 -30 10 0 5 -10 18 -22 30 -49 45 -125 8 -135 -67 -5 -35 -2
-45 20 -67 35 -35 71 -33 109 4 19 20 40 30 59 30 16 0 29 -3 29 -7 0 -21 -43
-74 -71 -89 -38 -19 -116 -22 -148 -5 -90 49 -76 217 22 262 50 22 77 24 121
5z m363 -8 c32 -16 52 -51 60 -103 l6 -45 -112 0 c-91 0 -111 -3 -111 -15 0
-20 40 -55 63 -55 23 0 60 19 70 36 10 17 77 19 77 3 0 -6 -17 -29 -39 -50
-37 -37 -42 -39 -101 -39 -57 0 -65 3 -95 33 -45 45 -54 95 -29 155 36 86 127
120 211 80z m-957 3 c0 -5 -8 -51 -19 -102 -10 -52 -22 -111 -25 -131 -6 -34
-10 -38 -36 -38 -18 0 -30 5 -30 13 0 6 12 68 25 137 14 69 25 126 25 128 0 1
14 2 30 2 17 0 30 -4 30 -9z m150 -3 c0 -9 3 -9 12 0 7 7 33 12 58 12 37 0 51
-5 71 -26 28 -29 30 -62 10 -176 -13 -76 -15 -78 -42 -78 -34 0 -34 0 -12 108
16 81 16 84 -4 103 -15 15 -27 18 -47 13 -36 -9 -61 -51 -75 -127 -19 -96 -19
-97 -52 -97 -24 0 -29 4 -25 18 2 9 12 55 21 102 29 150 33 160 60 160 14 0
25 -5 25 -12z"/>
<path d="M5442 13763 c-55 -19 -141 -98 -175 -161 -15 -28 -37 -86 -49 -129
-30 -113 -30 -348 1 -527 65 -372 189 -604 369 -689 58 -27 70 -29 145 -25 97
5 143 26 203 90 54 58 69 84 98 170 62 186 54 513 -20 788 -30 112 -107 277
-161 340 -55 67 -121 118 -181 140 -63 24 -167 25 -230 3z"/>
<path d="M8962 13760 c-84 -20 -169 -116 -211 -242 -25 -74 -45 -227 -36 -274
l6 -34 279 0 279 0 -5 68 c-22 272 -102 440 -227 477 -28 8 -51 15 -51 14 -1
-1 -16 -5 -34 -9z"/>
<path d="M14757 13758 c-128 -33 -237 -249 -237 -473 l0 -75 281 0 282 0 -7
94 c-21 309 -152 496 -319 454z"/>
<path d="M18442 13760 c-69 -16 -145 -92 -189 -189 -36 -80 -53 -166 -53 -268
l0 -93 280 0 280 0 0 23 c0 45 -21 193 -36 252 -48 194 -160 302 -282 275z"/>
<path d="M5990 10606 l0 -636 143 0 c571 1 827 196 827 630 0 202 -47 329
-164 446 -80 80 -170 130 -302 166 -66 17 -115 22 -291 26 l-213 4 0 -636z"/>
<path d="M8957 10229 c-123 -65 -207 -242 -207 -436 l0 -83 301 0 300 0 -6 73
c-28 299 -135 468 -297 467 -33 -1 -67 -8 -91 -21z"/>
<path d="M11390 9580 c-19 -15 -89 -56 -155 -90 -151 -78 -198 -112 -235 -169
-42 -63 -54 -112 -54 -216 0 -105 19 -172 65 -228 87 -106 193 -92 350 48 l67
60 1 313 c1 171 0 312 -1 311 -2 0 -19 -13 -38 -29z"/>
<path d="M5454 6811 c-93 -24 -170 -86 -215 -173 -33 -64 -37 -176 -10 -249
29 -75 88 -141 159 -176 80 -39 184 -40 257 -1 130 68 200 207 172 344 -22
107 -96 200 -190 239 -44 18 -132 27 -173 16z"/>
<path d="M9038 6804 c-64 -19 -149 -98 -179 -166 -33 -75 -34 -201 -1 -273 70
-152 242 -221 390 -156 127 57 202 211 172 357 -37 185 -209 292 -382 238z"/>
<path d="M12684 6800 c-75 -24 -139 -79 -179 -151 -27 -49 -30 -63 -30 -144 0
-104 19 -156 80 -223 86 -96 241 -127 350 -70 195 101 237 343 90 506 -77 86
-200 118 -311 82z"/>
<path d="M15039 6805 c-61 -20 -141 -92 -173 -158 l-27 -52 146 -3 c80 -1 210
-1 290 0 l146 3 -31 62 c-33 66 -68 101 -134 135 -53 27 -155 33 -217 13z"/>
<path d="M3379 6340 c-9 -5 -22 -23 -29 -40 -11 -28 -11 -34 7 -58 27 -37 66
-40 98 -8 59 59 -4 148 -76 106z"/>
<path d="M2506 6249 c-14 -11 -26 -25 -26 -30 0 -5 32 -9 70 -9 74 0 83 7 50
40 -26 26 -60 25 -94 -1z"/>
</g>
</svg>
