<?xml version="1.0" standalone="no"?>
<!DOCTYPE svg PUBLIC "-//W3C//DTD SVG 20010904//EN"
 "http://www.w3.org/TR/2001/REC-SVG-20010904/DTD/svg10.dtd">
<svg version="1.0" xmlns="http://www.w3.org/2000/svg"
 width="200.000000pt" height="200.000000pt" viewBox="0 0 200.000000 200.000000"
 preserveAspectRatio="xMidYMid meet">
<metadata>
Created by potrace 1.11, written by Peter Selinger 2001-2013
</metadata>
<g transform="translate(0.000000,200.000000) scale(0.100000,-0.100000)"
fill="#000000" stroke="none">
<path d="M537 1887 c17 -15 36 -40 41 -56 l10 -29 -36 21 c-36 21 -135 32
-183 20 -19 -5 -15 -9 26 -25 64 -25 140 -81 170 -126 29 -42 26 -53 -7 -22
-13 12 -50 36 -83 53 -51 26 -71 31 -135 31 -77 0 -119 -15 -180 -63 l-25 -20
55 14 c30 8 58 15 63 15 4 0 -20 -26 -53 -59 -62 -61 -96 -122 -104 -191 -6
-49 5 -51 26 -6 35 71 101 129 158 137 22 4 25 1 22 -23 l-3 -28 40 19 c23 10
54 17 69 15 15 -1 34 -3 42 -3 8 -1 -7 -13 -35 -28 -126 -64 -185 -177 -165
-318 l5 -40 22 60 c21 58 65 115 105 136 15 8 18 6 18 -16 0 -34 20 -32 56 6
62 65 64 56 16 -89 -25 -75 -49 -146 -54 -157 -11 -27 -17 -58 -24 -135 -3
-36 -9 -77 -14 -92 -5 -15 -7 -39 -4 -55 2 -15 6 -90 8 -165 2 -75 7 -141 10
-146 3 -5 -73 -9 -182 -10 -103 0 -193 -1 -199 -1 -7 -1 -13 -10 -13 -21 0
-19 7 -20 204 -20 231 0 213 7 221 -85 3 -24 13 -69 24 -100 11 -30 16 -57 13
-59 -4 -2 -101 -3 -217 -2 -116 1 -218 0 -228 -2 -14 -4 -17 -16 -17 -68 l0
-64 1000 0 1000 0 0 65 c0 55 -3 65 -17 66 -10 0 -328 2 -708 2 l-689 2 -24
65 c-13 36 -33 83 -43 106 -37 81 -109 74 732 74 l750 0 -3 22 -3 21 -762 0
c-582 0 -760 3 -753 12 5 7 8 14 6 16 -23 22 -29 355 -9 469 8 47 16 102 19
123 7 72 67 237 86 237 5 0 8 -6 7 -12 -1 -7 -1 -34 0 -60 1 -36 5 -48 16 -48
9 0 18 7 22 16 12 31 23 -9 22 -77 -1 -45 -9 -80 -25 -112 -12 -26 -19 -47
-14 -47 17 0 112 105 130 143 30 65 31 136 5 212 -13 36 -19 65 -15 65 12 0
70 -69 70 -83 0 -7 5 -19 10 -27 8 -13 11 -12 23 4 17 23 30 16 51 -28 20 -42
21 -108 1 -171 -8 -27 -12 -51 -9 -54 9 -9 53 53 73 104 15 38 19 70 17 138
l-3 87 24 -35 c13 -19 28 -45 33 -57 9 -23 9 -23 9 3 1 14 -6 49 -15 78 -29
98 -128 169 -258 184 -62 8 -67 14 -20 23 61 12 125 7 190 -15 32 -11 60 -18
62 -16 2 2 -13 22 -34 45 -40 44 -80 69 -129 80 l-30 7 36 16 c33 15 74 15
103 1 6 -3 2 2 -9 10 -52 43 -150 35 -219 -17 -39 -30 -40 -29 -51 28 -13 74
-63 137 -120 151 l-30 7 32 -26z"/>
</g>
</svg>
