<?xml version="1.0" standalone="no"?>
<!DOCTYPE svg PUBLIC "-//W3C//DTD SVG 20010904//EN"
 "http://www.w3.org/TR/2001/REC-SVG-20010904/DTD/svg10.dtd">
<svg version="1.0" xmlns="http://www.w3.org/2000/svg"
 width="300.000000pt" height="300.000000pt" viewBox="0 0 300.000000 300.000000"
 preserveAspectRatio="xMidYMid meet">
<metadata>
Created by potrace 1.11, written by Peter Selinger 2001-2013
</metadata>
<g transform="translate(0.000000,300.000000) scale(0.100000,-0.100000)"
fill="#000000" stroke="none">
<path d="M233 2810 c-67 -41 -63 50 -63 -1312 0 -1205 1 -1234 20 -1265 41
-67 -49 -63 1310 -63 1359 0 1269 -4 1310 63 19 31 20 60 20 1267 0 1207 -1
1236 -20 1267 -41 67 50 63 -1312 63 -1205 0 -1234 -1 -1265 -20z m1416 -190
c229 -43 374 -270 302 -474 -38 -107 -118 -193 -234 -252 l-48 -25 29 -37 c16
-20 78 -118 137 -217 166 -277 196 -306 320 -315 l70 -5 3 -41 c2 -25 -2 -45
-10 -51 -7 -6 -59 -18 -114 -27 -82 -13 -112 -14 -155 -5 -87 19 -126 66 -295
359 -187 327 -199 339 -284 314 -24 -7 -46 -11 -48 -9 -3 2 -5 28 -5 57 0 74
16 83 157 83 124 1 150 9 210 71 135 139 100 351 -69 430 -46 22 -63 24 -218
24 l-167 0 2 -592 3 -593 93 -3 93 -3 -3 -52 -3 -52 -260 0 -260 0 0 34 c0 31
7 39 65 81 l65 46 3 542 2 541 -59 40 c-32 22 -66 48 -75 56 -16 16 -22 66 -9
78 10 11 705 8 762 -3z m-629 -1655 c16 -8 42 -34 58 -57 22 -34 27 -53 27
-103 0 -51 -5 -69 -28 -102 -75 -108 -246 -99 -304 17 -13 24 -23 59 -23 77 0
69 52 150 115 179 36 17 111 12 155 -11z m1526 12 c1 -1 4 -19 8 -39 8 -44 -4
-49 -28 -13 -40 61 -120 48 -114 -18 3 -28 10 -36 64 -62 79 -39 92 -50 100
-89 9 -50 -18 -104 -61 -122 -35 -14 -78 -11 -102 8 -6 5 -20 8 -30 6 -12 -2
-18 3 -17 15 3 64 5 77 12 77 4 0 14 -15 22 -33 29 -62 102 -75 130 -22 21 39
0 72 -64 100 -30 13 -64 34 -75 46 -39 42 -21 127 33 150 17 7 116 4 122 -4z
m-1880 -30 c43 -50 27 -109 -38 -143 -15 -8 -11 -17 31 -75 27 -36 59 -69 71
-72 34 -9 14 -27 -30 -27 -36 0 -40 3 -79 65 -61 96 -111 121 -111 56 0 -54
12 -89 31 -94 10 -3 19 -10 19 -16 0 -14 -127 -15 -135 0 -4 6 2 13 14 16 20
5 21 11 21 154 0 123 -3 149 -14 149 -8 0 -18 5 -22 11 -4 8 27 10 106 7 108
-3 113 -4 136 -31z m709 8 c31 -30 32 -73 5 -108 l-20 -25 30 -30 c57 -57 29
-142 -51 -157 -50 -9 -194 -2 -192 10 1 6 12 11 23 13 20 3 20 9 18 150 -3
144 -3 147 -25 150 -13 2 -23 8 -23 13 0 5 47 9 105 9 99 0 107 -2 130 -25z
m320 0 c31 -30 32 -73 5 -108 l-20 -25 30 -30 c57 -57 29 -142 -51 -157 -50
-9 -194 -2 -192 10 1 6 12 11 23 13 20 3 20 9 18 150 -3 144 -3 147 -25 150
-13 2 -23 8 -23 13 0 5 47 9 105 9 99 0 107 -2 130 -25z m235 15 c0 -5 -8 -10
-19 -10 -25 0 -31 -26 -31 -150 0 -123 5 -146 31 -153 10 -3 19 -10 19 -16 0
-7 -27 -11 -75 -11 -60 0 -75 3 -75 15 0 9 9 15 25 15 l26 0 -3 148 c-3 144
-3 147 -25 150 -13 2 -23 8 -23 13 0 5 34 9 75 9 43 0 75 -4 75 -10z m219
-110 c51 -66 97 -120 102 -120 11 0 11 31 3 134 -6 69 -9 77 -30 82 -43 11
-25 24 31 24 53 0 72 -11 40 -24 -12 -4 -15 -33 -15 -167 0 -100 -4 -159 -10
-157 -12 4 -220 260 -220 270 0 5 -4 8 -10 8 -12 0 -13 -50 -3 -167 4 -60 10
-83 19 -83 8 0 14 -7 14 -15 0 -11 -12 -15 -50 -15 -52 0 -64 12 -30 30 19 10
20 19 18 148 -3 131 -4 137 -25 147 -36 16 -27 25 25 25 l47 0 94 -120z m424
-305 c-5 -16 -2175 -14 -2181 3 -3 10 216 12 1090 10 722 -2 1092 -6 1091 -13z
m-883 -121 c0 -8 -4 -14 -10 -14 -5 0 -10 5 -10 10 0 6 -7 10 -15 10 -22 0
-18 -28 4 -35 33 -10 45 -32 33 -60 -16 -34 -82 -33 -82 1 0 19 10 18 26 -3
10 -15 15 -16 26 -5 11 11 7 18 -21 41 -41 34 -39 63 4 72 35 6 45 3 45 -17z
m208 2 c4 -18 -13 -22 -23 -6 -15 25 -25 5 -25 -50 0 -53 -2 -60 -20 -60 -17
0 -19 5 -14 44 9 60 1 80 -26 66 -15 -8 -20 -8 -20 3 0 21 4 22 67 21 45 -1
59 -5 61 -18z m350 0 c4 -19 -9 -21 -26 -4 -17 17 -26 -13 -19 -67 4 -41 3
-45 -18 -45 -21 0 -22 4 -18 45 7 58 -2 82 -22 65 -17 -14 -30 -7 -23 12 8 20
122 15 126 -6z m-1581 -2 c3 -9 1 -25 -6 -36 -10 -16 -8 -24 10 -46 19 -25 19
-27 4 -30 -10 -2 -28 8 -42 25 l-24 28 4 -27 c3 -23 1 -28 -17 -28 -19 0 -21
6 -21 65 l0 65 43 0 c30 0 44 -5 49 -16z m193 -1 c0 -13 -3 -14 -12 -5 -18 18
-35 14 -41 -9 -5 -17 -2 -20 14 -16 14 4 19 0 19 -13 0 -13 -6 -17 -19 -13
-15 4 -18 0 -14 -21 6 -30 19 -33 46 -8 19 16 19 16 16 -3 -3 -16 -13 -21 -51
-23 l-46 -3 -4 66 -3 65 48 0 c38 0 47 -3 47 -17z m179 -42 c26 -71 26 -71 2
-71 -13 0 -21 8 -23 23 -2 14 -10 22 -23 22 -14 0 -20 -6 -19 -22 0 -16 -5
-23 -18 -23 -22 0 -22 0 1 52 11 24 22 51 25 61 11 34 33 17 55 -42z m144 25
c-6 -39 3 -86 16 -86 5 0 17 7 26 16 18 19 30 13 22 -11 -5 -10 -20 -15 -51
-15 l-44 0 -4 65 c-3 61 -2 65 19 65 19 0 21 -4 16 -34z m342 23 c10 -16 -4
-24 -17 -11 -19 19 -38 14 -38 -9 0 -15 5 -19 15 -15 10 4 15 -1 15 -14 0 -13
-5 -18 -15 -14 -11 5 -15 -1 -15 -20 0 -26 22 -36 35 -16 10 16 35 12 29 -5
-4 -10 -21 -15 -54 -15 l-48 0 0 65 1 65 43 0 c23 0 46 -5 49 -11z m514 -41
c9 -26 19 -50 24 -54 14 -14 7 -24 -18 -24 -20 0 -25 5 -25 25 0 18 -5 25 -20
25 -19 0 -24 -10 -21 -37 1 -7 -7 -13 -18 -13 -20 0 -19 2 4 53 14 28 25 58
25 65 0 32 34 4 49 -40z m391 37 c0 -17 -16 -20 -25 -5 -11 18 -35 11 -35 -10
0 -14 6 -20 18 -18 10 2 17 -3 17 -12 0 -9 -7 -14 -17 -12 -12 2 -18 -4 -18
-17 0 -25 18 -37 33 -22 16 16 37 14 31 -4 -4 -10 -21 -15 -53 -15 l-46 0 0
65 0 65 48 0 c35 0 47 -4 47 -15z"/>
<path d="M855 933 c-34 -35 -45 -63 -45 -118 0 -113 85 -190 170 -155 70 29
96 143 52 227 -39 75 -125 97 -177 46z"/>
<path d="M515 937 c-4 -13 -5 -46 -3 -73 3 -47 5 -49 34 -52 43 -4 84 30 84
71 0 38 -7 50 -37 66 -37 19 -72 14 -78 -12z"/>
<path d="M1244 946 c-3 -7 -4 -35 -2 -62 3 -47 4 -49 35 -52 63 -6 97 65 51
108 -25 23 -76 27 -84 6z"/>
<path d="M1248 804 c-9 -9 -10 -90 -2 -121 12 -45 85 -40 110 8 17 33 11 70
-16 94 -20 18 -81 31 -92 19z"/>
<path d="M1567 953 c-4 -3 -7 -33 -7 -65 l0 -58 35 0 c42 0 75 29 75 65 0 14
-9 34 -20 45 -19 19 -69 27 -83 13z"/>
<path d="M1567 803 c-9 -8 -9 -90 -1 -121 13 -47 94 -36 112 15 19 56 -25 113
-87 113 -10 0 -21 -3 -24 -7z"/>
<path d="M610 415 c0 -17 5 -25 13 -22 6 2 12 12 12 22 0 10 -6 20 -12 23 -8
2 -13 -6 -13 -23z"/>
<path d="M986 401 c-4 -5 -2 -12 3 -15 5 -4 12 -2 15 3 4 5 2 12 -3 15 -5 4
-12 2 -15 -3z"/>
<path d="M1990 394 c0 -8 5 -12 10 -9 6 3 10 10 10 16 0 5 -4 9 -10 9 -5 0
-10 -7 -10 -16z"/>
</g>
</svg>
