<?xml version="1.0" standalone="no"?>
<!DOCTYPE svg PUBLIC "-//W3C//DTD SVG 20010904//EN"
 "http://www.w3.org/TR/2001/REC-SVG-20010904/DTD/svg10.dtd">
<svg version="1.0" xmlns="http://www.w3.org/2000/svg"
 width="300.000000pt" height="300.000000pt" viewBox="0 0 300.000000 300.000000"
 preserveAspectRatio="xMidYMid meet">
<metadata>
Created by potrace 1.11, written by Peter Selinger 2001-2013
</metadata>
<g transform="translate(0.000000,300.000000) scale(0.100000,-0.100000)"
fill="#000000" stroke="none">
<path d="M1423 2634 c4 -7 -10 -10 -41 -9 -26 0 -51 -1 -57 -4 -13 -7 -34 -11
-70 -15 -16 -2 -37 -6 -45 -8 -8 -3 -35 -11 -60 -19 -25 -7 -51 -17 -59 -23
-8 -6 -17 -10 -20 -10 -3 1 -17 -3 -31 -9 -14 -6 -28 -10 -32 -9 -5 1 -8 -3
-8 -9 0 -5 -4 -8 -9 -5 -5 3 -14 -1 -21 -9 -7 -8 -18 -15 -25 -15 -16 0 -159
-95 -195 -130 -8 -8 -27 -24 -41 -35 -14 -11 -26 -23 -28 -27 -1 -4 -21 -27
-44 -51 -50 -52 -95 -105 -98 -115 -1 -4 -13 -24 -25 -44 -13 -21 -24 -42 -24
-48 0 -5 -4 -10 -10 -10 -5 0 -10 -4 -10 -9 0 -4 -14 -39 -32 -77 -17 -38 -32
-73 -33 -79 -1 -5 -5 -19 -9 -30 -15 -39 -19 -50 -22 -75 -2 -14 -6 -36 -10
-50 -4 -14 -8 -39 -9 -56 -1 -17 -4 -35 -7 -40 -3 -5 -5 -44 -4 -86 1 -43 -2
-78 -7 -78 -4 0 -3 -8 2 -19 6 -10 8 -21 5 -24 -3 -3 0 -15 6 -27 8 -15 8 -20
1 -16 -6 4 -11 3 -11 -3 0 -5 4 -12 8 -15 4 -2 7 -20 7 -38 -1 -18 2 -35 6
-38 5 -3 9 -22 11 -43 1 -20 6 -37 10 -37 4 0 8 -13 8 -30 0 -16 5 -30 10 -30
6 0 9 -3 8 -7 -3 -11 23 -86 33 -97 5 -6 9 -18 9 -28 0 -10 5 -18 10 -18 6 0
10 -9 10 -20 0 -11 5 -20 10 -20 6 0 10 -9 10 -21 0 -11 5 -17 10 -14 6 3 10
-3 10 -14 0 -12 3 -21 8 -21 4 0 12 -8 17 -19 26 -48 81 -121 93 -121 6 0 12
-5 12 -10 0 -27 248 -234 271 -227 4 1 15 -5 25 -14 21 -19 115 -64 127 -61 4
1 7 -3 7 -10 0 -6 3 -9 6 -6 3 4 21 0 40 -8 18 -8 50 -17 71 -20 21 -3 40 -9
43 -13 3 -5 15 -7 28 -6 12 1 22 -3 22 -8 0 -5 7 -4 15 3 10 8 15 9 15 2 0 -6
7 -9 15 -6 8 4 15 1 15 -6 0 -9 3 -10 13 -1 8 6 17 8 21 4 11 -11 209 -11 224
0 8 6 12 6 12 -2 0 -7 8 -8 25 -1 14 5 32 7 40 4 8 -4 15 -2 15 4 0 6 8 9 18
7 9 -1 21 0 27 3 8 5 42 12 73 14 6 1 12 5 12 9 0 5 7 6 15 3 8 -4 15 -1 15 5
0 6 3 10 8 10 21 -4 42 3 56 16 9 9 17 11 21 5 3 -5 14 -1 26 11 11 11 24 17
29 14 4 -3 10 -2 12 2 1 5 28 21 58 37 30 16 71 42 91 58 20 15 40 28 43 28 4
0 18 12 31 26 14 15 25 24 25 20 0 -3 25 19 55 50 30 31 55 61 55 66 0 5 4 7
9 4 5 -4 15 7 23 24 7 16 16 30 20 30 3 0 19 20 35 45 15 25 32 45 36 45 5 0
6 4 2 9 -3 5 2 16 10 24 8 9 15 18 15 20 0 3 16 39 35 80 19 41 35 82 35 91 0
9 4 16 8 16 7 0 11 16 14 58 1 6 5 12 10 12 4 0 7 3 6 8 -1 4 2 27 7 52 4 25
9 56 11 70 1 14 3 25 4 25 1 0 3 53 5 118 1 71 -2 117 -8 117 -5 0 -4 7 3 15
7 8 8 15 3 15 -5 0 -9 10 -10 23 -1 46 -14 111 -23 122 -5 7 -7 15 -3 19 4 4
1 11 -7 16 -13 9 -13 10 0 10 11 0 12 2 3 8 -7 4 -14 17 -16 27 -2 11 -7 28
-11 37 -4 9 -9 22 -10 30 -8 50 -136 261 -200 331 -19 20 -32 37 -28 37 4 0
-6 12 -23 26 -99 85 -129 110 -144 118 -9 5 -18 12 -21 15 -13 16 -91 61 -105
61 -8 0 -15 4 -15 9 0 7 -81 48 -110 56 -3 1 -12 4 -20 7 -69 26 -80 29 -102
29 -10 0 -18 3 -18 7 0 4 -19 8 -42 9 -23 2 -45 9 -50 15 -6 10 -8 10 -8 0 0
-8 -5 -10 -12 -5 -7 4 -38 9 -68 10 -30 1 -55 2 -55 3 0 6 -88 3 -92 -3 -3 -4
-12 -2 -21 5 -9 7 -13 8 -9 2z m81 -536 c-5 -8 -2 -9 9 -5 9 3 19 2 21 -2 3
-5 17 -6 31 -3 14 2 25 0 25 -5 0 -5 9 -9 20 -10 24 -2 95 -51 131 -90 36 -39
68 -108 75 -162 3 -25 8 -48 10 -50 2 -2 -1 -10 -7 -18 -9 -9 -8 -13 0 -13 9
0 9 -5 1 -20 -6 -11 -8 -20 -4 -20 3 0 -1 -12 -11 -26 -9 -15 -12 -23 -6 -19
20 12 -46 -89 -78 -119 -20 -19 -27 -33 -22 -40 5 -6 10 -31 12 -56 1 -25 7
-51 13 -59 9 -12 8 -13 -3 -6 -10 6 -12 4 -6 -6 9 -14 17 -75 18 -141 0 -21 3
-38 6 -38 4 0 7 -24 8 -52 2 -47 9 -93 13 -93 1 0 3 -20 5 -45 1 -25 3 -45 4
-45 2 0 4 -26 6 -58 3 -53 1 -58 -16 -54 -10 3 -19 0 -19 -6 0 -8 -4 -7 -12 1
-8 8 -15 9 -25 1 -7 -7 -13 -7 -13 -2 0 5 -9 9 -20 9 -11 0 -20 -4 -20 -9 0
-5 -6 -4 -14 2 -10 8 -16 9 -21 1 -4 -7 -12 -7 -26 0 -14 8 -19 7 -19 -2 0 -9
-3 -9 -12 0 -9 9 -15 9 -26 -1 -12 -9 -16 -9 -19 0 -3 9 -10 10 -22 3 -10 -5
-21 -7 -23 -4 -11 10 -48 12 -48 3 0 -6 -5 -7 -12 -3 -16 10 -78 11 -78 0 0
-5 -6 -3 -13 3 -8 6 -17 8 -21 4 -9 -9 -46 -11 -46 -2 0 4 -8 6 -17 5 -15 -1
-18 8 -18 49 0 28 2 55 4 60 3 6 7 32 9 60 1 27 6 52 10 55 4 3 7 37 7 77 0
39 3 69 7 67 5 -3 9 28 9 89 0 9 6 17 12 17 7 0 6 4 -3 10 -10 7 -11 13 -5 18
6 4 10 18 10 32 -1 14 3 30 7 37 5 6 5 14 -2 18 -6 3 -7 12 -3 18 16 26 14 61
-6 81 -56 58 -73 86 -76 119 0 4 -5 11 -11 15 -5 4 -11 16 -11 27 -1 11 -2 38
-4 60 -7 112 47 213 156 293 17 13 99 41 133 46 19 2 36 7 40 10 10 10 13 6 6
-6z"/>
</g>
</svg>
