<?xml version="1.0" standalone="no"?>
<!DOCTYPE svg PUBLIC "-//W3C//DTD SVG 20010904//EN"
 "http://www.w3.org/TR/2001/REC-SVG-20010904/DTD/svg10.dtd">
<svg version="1.0" xmlns="http://www.w3.org/2000/svg"
 width="696.000000pt" height="696.000000pt" viewBox="0 0 696.000000 696.000000"
 preserveAspectRatio="xMidYMid meet">
<metadata>
Created by potrace 1.11, written by Peter Selinger 2001-2013
</metadata>
<g transform="translate(0.000000,696.000000) scale(0.100000,-0.100000)"
fill="#000000" stroke="none">
<path d="M3415 6913 c-33 -20 -100 -59 -150 -88 -49 -29 -146 -85 -215 -125
-69 -40 -145 -84 -170 -98 -40 -23 -150 -87 -190 -112 -8 -5 -37 -21 -65 -36
-27 -14 -57 -32 -66 -40 -8 -8 -18 -14 -21 -14 -3 0 -57 -30 -119 -66 -63 -37
-132 -77 -154 -89 -22 -13 -312 -182 -645 -375 -333 -194 -621 -361 -640 -372
-19 -11 -140 -81 -268 -155 l-232 -135 0 -1743 0 -1743 107 -63 c60 -34 124
-70 143 -81 35 -18 54 -29 100 -59 14 -9 45 -27 70 -41 25 -14 155 -89 289
-167 133 -77 245 -141 248 -141 2 0 24 -13 48 -30 24 -16 46 -30 48 -30 3 0
137 -76 297 -170 161 -93 294 -170 296 -170 1 0 42 -24 91 -53 48 -30 108 -65
133 -79 52 -29 717 -413 740 -427 117 -74 372 -211 393 -211 14 0 43 10 64 21
72 40 128 73 223 129 52 31 102 59 110 63 8 4 29 15 45 26 17 10 46 27 65 38
19 11 118 69 220 128 102 59 201 116 220 127 19 11 86 50 150 86 63 36 117 69
120 72 3 3 21 14 40 23 19 10 55 30 80 44 25 14 57 33 72 42 15 9 155 90 310
180 156 90 316 184 355 208 40 23 75 43 77 43 2 0 33 17 67 38 35 22 84 50
109 64 25 14 128 74 230 133 102 59 201 116 220 127 19 11 77 45 128 75 l92
55 -2 1746 -3 1746 -75 44 c-79 47 -312 182 -370 215 -19 10 -143 83 -275 160
-132 77 -256 149 -275 160 -19 10 -103 59 -187 108 -84 49 -157 89 -163 89 -5
0 -10 5 -10 10 0 6 -4 10 -10 10 -5 0 -33 14 -62 32 -29 17 -150 87 -268 156
-118 68 -228 133 -245 143 -16 10 -37 22 -45 26 -8 4 -46 26 -85 48 -38 23
-90 53 -115 67 -25 14 -97 56 -160 93 -179 105 -396 230 -488 282 -24 13 -69
40 -100 59 -31 18 -59 34 -62 34 -3 -1 -32 -17 -65 -37z"/>
</g>
</svg>
