<?xml version="1.0" standalone="no"?>
<!DOCTYPE svg PUBLIC "-//W3C//DTD SVG 20010904//EN"
 "http://www.w3.org/TR/2001/REC-SVG-20010904/DTD/svg10.dtd">
<svg version="1.0" xmlns="http://www.w3.org/2000/svg"
 width="300.000000pt" height="300.000000pt" viewBox="0 0 300.000000 300.000000"
 preserveAspectRatio="xMidYMid meet">
<metadata>
Created by potrace 1.11, written by Peter Selinger 2001-2013
</metadata>
<g transform="translate(0.000000,300.000000) scale(0.100000,-0.100000)"
fill="#000000" stroke="none">
<path d="M1595 2743 c-347 -42 -664 -226 -873 -508 -62 -83 -141 -239 -177
-349 -68 -204 -79 -448 -30 -666 3 -14 8 -35 11 -47 10 -49 83 -233 100 -252
2 -2 37 21 79 50 131 93 120 74 87 149 -66 146 -103 316 -102 475 0 55 2 114
5 130 3 17 7 46 10 65 13 80 60 221 102 305 62 125 121 205 223 306 222 219
497 330 802 326 71 -1 101 1 90 7 -16 9 -268 16 -327 9z"/>
<path d="M1534 2010 c0 -242 4 -440 7 -440 6 0 199 135 381 267 39 28 48 31
60 20 7 -8 44 -48 82 -90 38 -43 72 -77 75 -77 3 0 6 170 6 378 l0 377 -306 3
-305 2 0 -440z"/>
<path d="M2209 2103 c0 -32 -1 -156 -1 -276 l0 -217 33 -38 c19 -22 70 -79
114 -127 44 -49 89 -98 100 -111 11 -12 52 -57 91 -100 39 -44 83 -92 97 -109
l26 -30 1 375 0 375 -63 42 c-34 23 -87 59 -117 80 -30 22 -106 74 -167 117
l-113 77 -1 -58z"/>
<path d="M1310 2039 c-248 -159 -273 -174 -307 -194 l-33 -19 0 -333 0 -333
63 44 c34 25 76 55 92 66 17 12 100 71 185 132 85 60 157 112 160 114 6 7 7
615 0 619 -3 1 -75 -42 -160 -96z"/>
<path d="M1894 1777 c-69 -51 -511 -365 -599 -425 -33 -23 -100 -71 -150 -106
-49 -36 -143 -102 -207 -148 -65 -46 -162 -114 -217 -153 -54 -38 -109 -77
-121 -85 -12 -8 -32 -22 -44 -31 -35 -26 -407 -290 -463 -328 -29 -20 -53 -39
-53 -42 0 -3 186 -5 414 -5 l413 1 49 45 c64 58 132 120 213 196 36 34 78 72
92 85 37 33 203 186 249 229 67 62 233 215 251 231 10 9 68 62 129 119 138
128 163 150 174 150 5 0 27 -17 50 -37 23 -21 68 -60 101 -88 32 -27 63 -55
69 -60 6 -6 65 -55 131 -109 66 -55 122 -103 125 -106 3 -3 32 -28 65 -55 33
-28 65 -55 71 -61 13 -12 80 -68 179 -151 39 -32 77 -65 85 -73 8 -8 26 -24
40 -35 l25 -20 -20 25 c-11 14 -24 30 -30 35 -5 6 -48 52 -95 104 -47 52 -94
104 -105 116 -16 17 -74 81 -190 209 -18 21 -200 221 -210 232 -5 6 -48 53
-95 105 -47 52 -108 119 -136 149 -28 30 -66 72 -84 93 -18 20 -36 37 -40 37
-3 0 -33 -20 -66 -43z"/>
<path d="M2969 1528 c-2 -143 -67 -364 -145 -494 -33 -55 -35 -60 -21 -84 9
-13 20 -26 25 -28 21 -7 113 234 128 332 3 22 8 44 10 48 7 11 17 258 10 258
-3 0 -6 -15 -7 -32z"/>
<path d="M1837 1151 c-2 -3 -3 -35 -2 -71 l0 -65 73 -3 72 -3 0 74 0 73 -70 1
c-39 0 -72 -3 -73 -6z"/>
<path d="M2023 1083 l0 -74 71 3 71 3 2 71 1 72 -72 -1 -72 -1 -1 -73z"/>
<path d="M1844 972 c-5 -4 -10 -36 -9 -72 l0 -65 73 -3 72 -3 0 74 0 74 -63 1
c-34 0 -67 -2 -73 -6z"/>
<path d="M2022 903 l-2 -74 73 3 72 3 3 71 3 71 -73 0 -73 0 -3 -74z"/>
<path d="M2650 804 c-127 -130 -263 -218 -430 -279 -85 -31 -88 -31 -191 -50
-279 -51 -586 10 -816 163 l-53 35 -28 -24 c-85 -76 -151 -143 -146 -151 8
-13 109 -76 183 -113 196 -100 398 -143 615 -132 147 8 165 11 291 47 267 76
475 219 651 447 l56 72 -28 25 c-16 14 -31 26 -34 26 -3 0 -35 -30 -70 -66z"/>
</g>
</svg>
