<?xml version="1.0" standalone="no"?>
<!DOCTYPE svg PUBLIC "-//W3C//DTD SVG 20010904//EN"
 "http://www.w3.org/TR/2001/REC-SVG-20010904/DTD/svg10.dtd">
<svg version="1.0" xmlns="http://www.w3.org/2000/svg"
 width="416.000000pt" height="416.000000pt" viewBox="0 0 416.000000 416.000000"
 preserveAspectRatio="xMidYMid meet">
<metadata>
Created by potrace 1.11, written by Peter Selinger 2001-2013
</metadata>
<g transform="translate(0.000000,416.000000) scale(0.100000,-0.100000)"
fill="#000000" stroke="none">
<path d="M4155 2080 c0 -1147 1 -1616 2 -1042 2 573 2 1511 0 2085 -1 573 -2
104 -2 -1043z"/>
<path d="M220 2085 l0 -1855 1855 0 1855 0 0 1855 0 1855 -1855 0 -1855 0 0
-1855z m1305 651 c202 -55 331 -180 401 -386 16 -45 19 -84 19 -215 -1 -147
-3 -167 -28 -241 -68 -203 -214 -343 -414 -395 -73 -19 -95 -20 -376 -13 -296
6 -298 7 -295 27 2 17 13 23 47 29 56 9 71 24 82 80 11 58 11 943 -1 992 -11
48 -28 66 -71 75 -43 8 -54 47 -17 56 87 20 571 13 653 -9z m1217 0 c12 -17
-4 -36 -31 -36 -42 0 -75 -23 -88 -60 -12 -37 -18 -414 -7 -444 17 -45 79 11
305 274 169 198 177 213 114 224 -28 6 -35 12 -35 30 l0 23 178 -1 c168 -1
177 -2 177 -20 0 -15 -11 -23 -45 -31 -107 -27 -160 -71 -382 -308 -87 -94
-138 -156 -138 -170 0 -21 169 -252 359 -490 105 -131 138 -157 213 -171 40
-7 51 -17 43 -38 -8 -19 -392 -19 -400 0 -8 20 2 31 38 40 18 5 33 15 35 24 3
17 -365 498 -401 523 -32 22 -56 19 -63 -9 -8 -33 0 -477 10 -497 9 -20 40
-36 89 -44 30 -5 37 -10 37 -28 0 -22 0 -22 -197 -20 -188 1 -198 2 -201 21
-2 15 6 22 42 31 84 21 81 2 84 516 2 247 1 478 -3 512 -8 80 -27 103 -88 110
-49 6 -62 15 -54 37 6 15 398 18 409 2z m668 -1651 l0 -35 -1255 0 c-997 0
-1255 3 -1255 13 0 6 -3 22 -6 35 l-6 22 1261 0 1261 0 0 -35z"/>
<path d="M1162 2690 c-19 -4 -39 -13 -45 -19 -16 -16 -22 -898 -7 -979 17 -96
62 -138 161 -152 87 -12 189 3 265 40 162 79 254 275 254 540 0 308 -138 515
-377 565 -73 16 -197 18 -251 5z"/>
</g>
</svg>
