<?xml version="1.0" standalone="no"?>
<!DOCTYPE svg PUBLIC "-//W3C//DTD SVG 20010904//EN"
 "http://www.w3.org/TR/2001/REC-SVG-20010904/DTD/svg10.dtd">
<svg version="1.0" xmlns="http://www.w3.org/2000/svg"
 width="300.000000pt" height="300.000000pt" viewBox="0 0 300.000000 300.000000"
 preserveAspectRatio="xMidYMid meet">
<metadata>
Created by potrace 1.11, written by Peter Selinger 2001-2013
</metadata>
<g transform="translate(0.000000,300.000000) scale(0.100000,-0.100000)"
fill="#000000" stroke="none">
<path d="M1469 2959 c-13 -11 -33 -28 -44 -37 -11 -10 -54 -46 -95 -81 -41
-36 -81 -69 -88 -75 -7 -6 -23 -20 -35 -32 -12 -11 -56 -49 -97 -84 -41 -34
-82 -70 -91 -79 -9 -9 -27 -25 -40 -35 -45 -36 -214 -181 -224 -192 -5 -5 -39
-35 -75 -65 -36 -30 -70 -58 -76 -64 -31 -28 -122 -106 -144 -124 l-25 -20 25
-1 c38 -1 100 -10 150 -21 25 -5 56 -12 70 -14 56 -10 190 -60 270 -100 167
-84 312 -207 417 -354 53 -74 123 -209 123 -237 0 -25 19 -15 26 14 10 40 78
166 128 236 41 56 99 120 173 187 108 100 361 227 503 253 14 2 55 11 92 19
38 8 82 13 98 12 17 -1 32 1 35 5 4 7 -92 100 -103 100 -3 0 -10 6 -16 13 -6
8 -57 53 -113 102 l-103 88 0 184 0 184 -112 -3 -113 -3 -2 -35 c-1 -19 -2
-57 -2 -84 l-1 -48 -72 63 c-40 35 -78 69 -84 74 -6 6 -33 28 -59 50 -26 22
-96 82 -154 132 -58 51 -109 93 -112 93 -3 0 -17 -9 -30 -21z"/>
<path d="M410 1045 c0 -828 -2 -780 40 -777 111 7 285 54 384 104 195 98 340
248 411 425 15 38 29 79 31 93 2 14 7 48 12 76 9 55 7 136 -4 194 -4 19 -8 37
-8 40 -16 96 -160 338 -194 325 -7 -3 -10 0 -7 6 7 10 -5 22 -80 84 -69 57
-218 135 -305 160 -72 20 -199 43 -247 44 l-33 1 0 -775z"/>
<path d="M2509 1815 c-3 -2 -22 -5 -43 -7 -20 -1 -40 -6 -42 -10 -3 -5 -9 -6
-14 -3 -20 12 -298 -95 -320 -124 -3 -3 -21 -15 -40 -26 -93 -51 -249 -230
-275 -315 -4 -14 -11 -30 -16 -36 -21 -25 -49 -171 -49 -249 0 -233 118 -445
334 -599 127 -90 312 -158 472 -172 l74 -6 0 776 0 776 -38 0 c-21 0 -41 -2
-43 -5z"/>
<path d="M1484 720 c-100 -250 -296 -453 -559 -579 -44 -21 -106 -47 -137 -57
-32 -10 -58 -20 -58 -23 0 -3 346 -6 770 -6 423 0 770 2 770 5 0 3 -26 14 -57
25 -77 25 -212 89 -246 115 -15 12 -27 19 -27 15 0 -20 -200 158 -267 237 -50
61 -131 201 -158 278 l-13 35 -18 -45z"/>
</g>
</svg>
