<?xml version="1.0" standalone="no"?>
<!DOCTYPE svg PUBLIC "-//W3C//DTD SVG 20010904//EN"
 "http://www.w3.org/TR/2001/REC-SVG-20010904/DTD/svg10.dtd">
<svg version="1.0" xmlns="http://www.w3.org/2000/svg"
 width="16.000000pt" height="16.000000pt" viewBox="0 0 16.000000 16.000000"
 preserveAspectRatio="xMidYMid meet">
<metadata>
Created by potrace 1.11, written by Peter Selinger 2001-2013
</metadata>
<g transform="translate(0.000000,16.000000) scale(0.005333,-0.005333)"
fill="#000000" stroke="none">
<path d="M1340 2965 c-8 -2 -49 -9 -90 -15 -215 -34 -422 -119 -610 -251 -109
-76 -294 -266 -368 -377 -113 -171 -183 -341 -224 -547 -31 -155 -31 -404 1
-555 129 -610 594 -1060 1205 -1166 118 -20 363 -20 481 1 622 109 1085 563
1207 1180 29 145 30 385 3 525 -81 428 -339 794 -713 1014 -152 89 -364 161
-545 185 -70 10 -308 13 -347 6z m460 -63 c563 -132 981 -555 1101 -1112 19
-86 23 -137 23 -285 0 -201 -11 -278 -69 -452 -75 -226 -201 -422 -379 -590
-180 -171 -396 -288 -640 -348 -794 -195 -1592 316 -1753 1122 -25 125 -25
415 0 533 129 607 597 1055 1202 1149 102 16 417 5 515 -17z"/>
<path d="M1365 2860 c-541 -57 -992 -412 -1163 -915 -48 -142 -63 -228 -69
-400 -8 -237 29 -417 128 -624 71 -149 149 -261 264 -376 197 -197 429 -321
715 -382 132 -28 392 -25 529 5 182 41 325 99 461 187 338 218 553 550 617
950 11 74 14 138 10 250 -8 214 -43 355 -137 550 -123 255 -355 488 -618 619
-213 107 -505 160 -737 136z m-472 -529 c43 -17 67 -51 67 -97 0 -111 -154
-140 -197 -37 -20 50 -1 101 47 125 40 21 49 21 83 9z m1003 -87 c24 -52 44
-97 44 -100 0 -14 -40 0 -45 16 -9 29 -101 30 -110 1 -6 -19 -45 -37 -45 -21
0 13 70 173 82 188 19 23 29 12 74 -84z m-1226 66 c27 -27 25 -56 -5 -85 -16
-17 -35 -25 -60 -25 -32 0 -35 -2 -35 -30 0 -23 -4 -30 -20 -30 -19 0 -20 7
-20 95 l0 95 60 0 c47 0 64 -4 80 -20z m524 -2 c21 -30 20 -54 -4 -78 -11 -11
-20 -23 -20 -26 0 -3 9 -17 20 -31 11 -14 20 -29 20 -33 0 -17 -43 4 -63 31
-12 18 -30 29 -44 29 -19 0 -23 -5 -23 -30 0 -20 -5 -30 -15 -30 -12 0 -15 17
-15 95 l0 95 64 0 c56 0 67 -3 80 -22z m256 7 c0 -10 -11 -15 -35 -15 l-35 0
0 -80 c0 -64 -3 -80 -15 -80 -12 0 -15 16 -15 80 l0 80 -35 0 c-24 0 -35 5
-35 15 0 12 16 15 85 15 69 0 85 -3 85 -15z m120 -65 l0 -80 50 0 c38 0 50 -4
50 -15 0 -12 -14 -15 -70 -15 l-70 0 0 95 c0 88 1 95 20 95 18 0 20 -7 20 -80z
m538 19 l47 -61 3 61 c3 53 6 61 22 61 18 0 20 -7 20 -95 0 -86 -2 -95 -19
-95 -11 0 -39 26 -70 66 l-51 67 0 -67 c0 -59 -2 -66 -20 -66 -19 0 -20 7 -20
95 0 88 1 95 20 95 13 0 37 -22 68 -61z m331 35 c42 -35 44 -95 4 -136 -24
-25 -34 -28 -90 -28 l-63 0 0 95 0 95 59 0 c49 0 65 -4 90 -26z m186 -274 c-9
-14 -2261 -14 -2270 0 -4 7 377 10 1135 10 758 0 1139 -3 1135 -10z m-2088
-101 c7 -7 -25 -100 -108 -312 -66 -166 -119 -304 -119 -306 0 -12 95 10 149
34 63 28 63 29 106 119 45 94 64 119 103 130 32 10 29 -7 -23 -136 -42 -104
-52 -138 -41 -138 3 0 31 12 64 26 55 23 60 29 66 62 7 44 73 160 99 174 10 5
25 7 32 4 10 -4 5 -21 -21 -73 -28 -55 -34 -78 -32 -117 2 -27 8 -51 13 -52 6
-2 50 103 99 234 49 130 99 261 112 290 22 51 24 52 65 52 29 0 40 -4 36 -12
-3 -7 -57 -142 -120 -300 l-115 -288 27 0 c14 0 43 5 64 11 30 8 37 15 37 35
0 84 166 224 265 224 28 0 75 -36 75 -58 0 -45 -40 -82 -142 -133 -57 -28
-105 -53 -108 -56 -3 -3 4 -11 15 -19 25 -19 69 -12 148 23 46 21 56 29 52 44
-5 13 4 28 27 49 18 16 36 30 40 30 5 0 8 -24 8 -53 0 -60 20 -97 54 -97 50 0
58 39 25 121 -20 52 -20 53 -1 78 24 33 80 71 103 71 11 0 27 -8 37 -18 15
-16 21 -16 64 -3 46 15 46 15 88 113 40 93 44 98 81 110 22 6 42 8 46 5 3 -4
-11 -44 -32 -89 -20 -46 -40 -89 -43 -97 -4 -10 4 -12 37 -6 41 7 43 6 39 -16
-2 -20 -11 -25 -54 -32 l-51 -8 -42 -100 c-43 -102 -46 -129 -14 -129 38 0
103 35 112 60 4 14 23 59 40 102 29 69 36 78 73 93 48 19 56 14 41 -23 -6 -15
-30 -71 -53 -125 -23 -54 -40 -103 -38 -108 6 -18 134 67 199 133 46 47 76 70
99 75 26 5 32 3 27 -8 -3 -8 -24 -56 -46 -107 -23 -51 -41 -95 -41 -97 0 -2
21 5 48 16 l47 20 105 270 c58 148 113 278 123 289 22 24 65 36 79 22 7 -7
-26 -103 -107 -312 -64 -166 -114 -304 -111 -307 3 -4 27 -2 54 3 45 9 47 10
53 49 7 55 19 74 88 137 58 54 126 88 176 88 12 0 35 -10 50 -21 22 -18 26
-27 21 -52 -9 -46 -35 -67 -146 -122 -55 -27 -100 -53 -100 -57 0 -4 9 -12 21
-19 27 -14 90 1 170 42 45 22 59 26 59 15 0 -9 -32 -31 -77 -52 -88 -43 -193
-57 -227 -31 -17 12 -27 12 -81 -6 -70 -23 -128 -18 -147 13 -11 17 -14 17
-65 -8 -50 -25 -56 -32 -93 -107 -46 -97 -100 -156 -165 -180 -51 -20 -77 -14
-83 19 -10 51 29 104 134 182 57 42 75 62 93 104 12 29 20 54 18 56 -2 3 -42
-16 -88 -41 -93 -49 -140 -57 -162 -25 -13 19 -14 19 -65 0 -86 -33 -142 -24
-142 23 0 10 16 57 36 105 20 48 38 92 40 97 6 14 -84 11 -98 -3 -7 -7 -19 -5
-38 6 -16 9 -32 14 -35 10 -4 -4 3 -36 14 -71 25 -73 20 -96 -25 -138 -65 -60
-129 -67 -174 -19 l-28 30 -58 -26 c-81 -36 -180 -44 -213 -17 -24 20 -25 20
-84 1 -32 -10 -66 -18 -75 -18 -12 0 -30 -32 -61 -111 -35 -89 -48 -112 -69
-120 -52 -20 -53 -6 -6 116 24 64 44 118 44 120 0 2 -11 6 -25 9 -14 4 -32 17
-40 29 l-15 23 -61 -29 c-101 -48 -180 -46 -164 4 8 24 4 24 -54 -6 -103 -52
-201 -57 -222 -12 -8 18 9 71 96 290 58 148 105 271 105 273 0 2 -16 -3 -36
-11 -48 -20 -64 -19 -64 3 0 28 30 50 90 66 67 18 103 19 117 5z m228 -130
c15 -45 -40 -114 -71 -88 -21 17 -17 59 8 86 27 29 55 30 63 2z m1865 -879 c0
-7 -387 -10 -1140 -10 -753 0 -1140 3 -1140 10 0 7 387 10 1140 10 753 0 1140
-3 1140 -10z m-1485 -120 c0 -9 -11 -16 -27 -18 -28 -3 -28 -4 -28 -78 0 -65
-2 -75 -17 -72 -14 2 -16 15 -14 76 l2 72 -30 0 c-25 0 -31 4 -31 20 0 19 5
21 73 18 56 -2 72 -6 72 -18z m243 3 c-3 -14 -14 -18 -51 -18 -42 0 -47 -2
-47 -22 0 -20 5 -23 45 -23 33 0 45 -4 45 -15 0 -11 -12 -15 -45 -15 -38 0
-45 -3 -45 -20 0 -17 7 -20 50 -20 44 0 50 -3 50 -20 0 -19 -5 -21 -67 -18
l-68 3 -3 79 c-2 44 -1 85 2 93 4 9 25 13 71 13 58 0 66 -2 63 -17z m235 -70
c21 -49 37 -91 37 -95 0 -19 -31 -5 -40 17 -8 21 -16 25 -50 25 -33 0 -42 -4
-52 -25 -10 -23 -38 -35 -38 -17 0 4 16 46 37 95 24 57 43 87 53 87 10 0 29
-30 53 -87z m195 47 c13 -19 27 -36 31 -38 4 -1 17 16 30 38 14 26 29 40 42
40 18 0 20 -6 17 -92 -2 -75 -6 -93 -18 -93 -12 0 -15 13 -15 58 0 31 -3 57
-6 57 -3 0 -14 -16 -25 -35 -10 -19 -21 -35 -24 -35 -3 0 -16 17 -30 38 l-25
37 -3 -62 c-2 -47 -7 -63 -17 -63 -12 0 -15 19 -15 96 0 85 2 95 17 92 10 -2
28 -19 41 -38z"/>
<path d="M816 2285 c-23 -23 -28 -52 -15 -77 16 -30 28 -38 60 -38 53 0 80 77
41 113 -23 21 -66 22 -86 2z"/>
<path d="M1821 2250 c-10 -29 -9 -30 19 -30 27 0 28 1 17 30 -6 17 -14 30 -18
30 -4 0 -12 -13 -18 -30z"/>
<path d="M570 2264 c0 -34 1 -35 31 -32 63 6 61 68 -2 68 -27 0 -29 -3 -29
-36z"/>
<path d="M1080 2270 c0 -30 1 -31 43 -28 37 3 42 6 42 28 0 22 -5 25 -42 28
-42 3 -43 2 -43 -28z"/>
<path d="M2330 2235 l0 -65 33 0 c41 0 67 26 67 67 0 38 -27 63 -68 63 l-32 0
0 -65z"/>
<path d="M1219 1528 c-30 -28 -89 -112 -89 -128 0 -12 66 24 118 66 25 19 32
32 30 52 -4 35 -28 39 -59 10z"/>
<path d="M2639 1528 c-30 -28 -89 -112 -89 -128 0 -12 66 24 118 66 25 19 32
32 30 52 -4 35 -28 39 -59 10z"/>
<path d="M1984 1158 c-44 -47 -74 -93 -74 -114 0 -28 67 42 94 99 27 55 21 59
-20 15z"/>
<path d="M1553 740 c-11 -29 -10 -30 17 -30 27 0 28 1 17 30 -6 17 -14 30 -17
30 -3 0 -11 -13 -17 -30z"/>
</g>
</svg>
