<?xml version="1.0" standalone="no"?>
<!DOCTYPE svg PUBLIC "-//W3C//DTD SVG 20010904//EN"
 "http://www.w3.org/TR/2001/REC-SVG-20010904/DTD/svg10.dtd">
<svg version="1.0" xmlns="http://www.w3.org/2000/svg"
 width="300.000000pt" height="300.000000pt" viewBox="0 0 300.000000 300.000000"
 preserveAspectRatio="xMidYMid meet">
<metadata>
Created by potrace 1.11, written by Peter Selinger 2001-2013
</metadata>
<g transform="translate(0.000000,300.000000) scale(0.100000,-0.100000)"
fill="#000000" stroke="none">
<path d="M840 2653 c0 -5 4 -13 9 -18 5 -6 17 -26 28 -45 10 -19 45 -79 77
-132 l58 -98 -55 -87 c-30 -49 -107 -171 -172 -273 -64 -102 -178 -282 -253
-400 -74 -118 -142 -224 -150 -235 -24 -32 49 45 98 104 25 29 50 59 55 65 6
6 44 52 85 101 41 50 77 92 80 95 6 5 172 199 314 368 43 50 80 92 81 92 2 0
32 -48 100 -162 11 -19 42 -70 444 -737 160 -267 291 -488 291 -493 0 -4 4 -8
9 -8 5 0 11 -6 13 -13 2 -7 63 -113 137 -235 l134 -222 214 0 215 0 -24 28
c-12 16 -35 44 -49 63 -105 135 -564 721 -588 750 l-30 37 2 211 c1 135 -2
211 -8 212 -5 1 -50 2 -100 3 l-90 1 -5 -63 -5 -62 -400 506 c-220 278 -426
539 -457 580 -32 42 -58 72 -58 67z"/>
<path d="M690 1135 l0 -155 155 0 155 0 0 155 0 155 -155 0 -155 0 0 -155z"/>
<path d="M1120 1135 l0 -155 155 0 155 0 0 155 0 155 -155 0 -155 0 0 -155z"/>
<path d="M690 695 l0 -155 155 0 155 0 0 155 0 155 -155 0 -155 0 0 -155z"/>
<path d="M1120 695 l0 -155 155 0 155 0 0 155 0 155 -155 0 -155 0 0 -155z"/>
</g>
</svg>
