<?xml version="1.0" standalone="no"?>
<!DOCTYPE svg PUBLIC "-//W3C//DTD SVG 20010904//EN"
 "http://www.w3.org/TR/2001/REC-SVG-20010904/DTD/svg10.dtd">
<svg version="1.0" xmlns="http://www.w3.org/2000/svg"
 width="16.000000pt" height="16.000000pt" viewBox="0 0 16.000000 16.000000"
 preserveAspectRatio="xMidYMid meet">
<metadata>
Created by potrace 1.11, written by Peter Selinger 2001-2013
</metadata>
<g transform="translate(0.000000,16.000000) scale(0.002857,-0.002857)"
fill="#000000" stroke="none">
<path d="M400 2805 c0 -1309 3 -1645 13 -1646 20 -1 400 -1 425 0 l22 1 0 384
0 385 166 165 c92 92 168 166 170 166 1 0 37 -82 79 -182 90 -216 88 -211 113
-268 11 -25 39 -90 62 -145 22 -55 45 -109 50 -120 5 -11 30 -69 56 -130 25
-60 52 -123 59 -140 7 -16 21 -49 31 -72 10 -24 23 -43 28 -44 38 -3 448 0
452 3 3 4 -44 121 -86 213 -5 11 -39 92 -75 180 -37 88 -70 169 -75 180 -24
55 -52 121 -100 235 -29 69 -59 141 -67 160 -9 19 -21 49 -28 65 -7 17 -36 86
-64 155 -29 69 -56 134 -61 145 -5 11 -20 45 -34 76 l-24 57 42 44 c40 44 174
191 209 232 30 34 151 167 166 183 7 8 17 11 21 6 14 -17 205 -467 198 -469
-2 0 2 -7 8 -15 7 -8 31 -59 54 -114 23 -55 53 -122 65 -150 13 -27 62 -142
110 -255 49 -113 92 -212 96 -220 5 -8 56 -127 115 -265 98 -230 131 -305 170
-392 8 -17 14 -36 14 -42 0 -6 5 -11 10 -12 40 -3 171 -1 175 2 2 3 50 113
105 245 55 131 104 248 109 259 38 86 91 214 91 219 0 3 11 29 24 58 14 29 55
125 91 213 36 88 72 174 79 190 7 17 39 92 71 167 31 76 60 138 64 138 3 0 80
-175 170 -388 90 -213 172 -405 182 -427 10 -22 57 -132 104 -245 48 -113 95
-224 106 -247 10 -24 31 -72 45 -109 15 -36 33 -68 42 -71 12 -5 118 -7 158
-4 6 1 24 31 39 69 38 89 56 132 99 225 20 44 36 84 36 91 0 7 4 16 8 22 5 5
21 38 36 74 52 120 257 595 270 625 29 63 56 125 121 275 36 85 73 169 80 185
7 17 66 152 130 300 64 149 125 289 135 312 l18 42 -233 0 c-167 -1 -236 -4
-243 -12 -5 -7 -39 -84 -77 -172 -37 -88 -76 -178 -86 -200 -32 -71 -361 -839
-377 -880 -35 -89 -30 -96 -152 198 -62 149 -121 291 -131 314 -11 23 -34 79
-53 125 -64 158 -111 270 -153 368 -11 25 -39 94 -64 153 l-44 108 -164 -3
-164 -3 -44 -105 c-25 -58 -50 -118 -57 -135 -8 -16 -30 -68 -49 -115 -20 -47
-72 -173 -117 -280 -45 -107 -92 -217 -104 -245 -12 -27 -60 -141 -107 -252
-46 -111 -87 -199 -90 -195 -4 4 -48 104 -99 222 -51 118 -100 233 -110 255
-10 22 -32 74 -50 115 -18 41 -48 111 -67 155 -52 121 -62 142 -79 183 -9 20
-20 46 -25 57 -5 11 -40 92 -78 180 l-69 160 -307 2 -308 2 -406 -404 -406
-405 -3 940 -2 940 -230 0 -230 0 0 -1645z"/>
</g>
</svg>
