<?xml version="1.0" standalone="no"?>
<!DOCTYPE svg PUBLIC "-//W3C//DTD SVG 20010904//EN"
 "http://www.w3.org/TR/2001/REC-SVG-20010904/DTD/svg10.dtd">
<svg version="1.0" xmlns="http://www.w3.org/2000/svg"
 width="300.000000pt" height="300.000000pt" viewBox="0 0 300.000000 300.000000"
 preserveAspectRatio="xMidYMid meet">
<metadata>
Created by potrace 1.11, written by Peter Selinger 2001-2013
</metadata>
<g transform="translate(0.000000,300.000000) scale(0.100000,-0.100000)"
fill="#000000" stroke="none">
<path d="M1460 2984 c0 -5 -3 -32 -6 -60 -5 -42 -3 -51 10 -51 14 0 15 9 10
56 -5 49 -14 81 -14 55z"/>
<path d="M1334 2921 c12 -55 19 -66 35 -56 7 4 2 23 -14 56 -14 27 -27 49 -29
49 -2 0 2 -22 8 -49z"/>
<path d="M1570 2915 c-14 -33 -17 -52 -11 -58 6 -6 13 -8 16 -6 7 8 24 103 19
108 -2 2 -13 -18 -24 -44z"/>
<path d="M1210 2900 c0 -19 51 -91 61 -88 6 2 10 8 9 13 -3 15 -70 87 -70 75z"/>
<path d="M1671 2859 c-26 -30 -31 -43 -23 -51 14 -14 11 -16 46 45 32 57 23
59 -23 6z"/>
<path d="M1149 2770 c40 -36 61 -43 61 -20 0 8 -86 60 -99 60 -3 0 14 -18 38
-40z"/>
<path d="M1752 2778 c-43 -25 -50 -33 -41 -44 10 -13 15 -12 33 4 12 11 34 31
50 46 38 34 24 32 -42 -6z"/>
<path d="M1331 2744 c-38 -27 -51 -67 -51 -159 0 -47 3 -85 8 -85 4 0 73 -18
154 -39 l148 -39 22 37 c12 20 30 42 41 49 15 12 18 26 16 93 -1 44 -5 81 -8
83 -5 4 -199 50 -292 71 -9 2 -26 -3 -38 -11z"/>
<path d="M1100 2662 c44 -21 57 -24 63 -14 11 17 8 19 -28 27 -85 17 -91 15
-35 -13z"/>
<path d="M1849 2686 c-2 -2 -24 -7 -49 -11 -51 -7 -63 -15 -51 -33 6 -10 22
-6 72 17 35 16 57 30 48 30 -9 1 -18 -1 -20 -3z"/>
<path d="M1762 2568 c-13 -13 -4 -38 11 -33 7 2 37 6 66 10 59 6 81 15 38 15
-15 0 -28 0 -29 0 -2 1 -20 5 -40 9 -22 5 -40 5 -46 -1z"/>
<path d="M1060 2560 c-21 -4 -27 -8 -15 -9 11 -2 29 -4 40 -6 60 -12 65 -10
65 15 0 11 -37 11 -90 0z"/>
<path d="M1105 2449 c-45 -22 -52 -28 -30 -25 73 9 105 19 105 32 0 23 -14 22
-75 -7z"/>
<path d="M1736 2464 c-3 -9 -6 -17 -6 -19 0 -1 20 -6 43 -9 24 -4 56 -9 70
-12 41 -7 32 2 -29 30 -66 30 -70 31 -78 10z"/>
<path d="M1419 2363 c-2 -123 -31 -205 -87 -254 -64 -56 -168 -88 -276 -84
-52 2 -66 0 -66 -11 0 -25 52 -36 180 -38 l125 -1 1 -55 c2 -100 -38 -208
-128 -342 -21 -32 -41 -64 -44 -73 -23 -60 120 78 190 183 26 40 50 71 52 70
2 -2 6 -26 9 -54 5 -43 -6 -128 -31 -229 l-7 -30 22 27 c50 62 89 184 107 329
8 70 8 383 -1 451 -15 127 -44 196 -46 111z"/>
<path d="M1582 2263 c-21 -52 -30 -167 -30 -363 0 -260 31 -431 93 -522 27
-40 54 -54 35 -19 -16 32 -37 172 -33 225 3 50 12 71 20 50 17 -49 172 -232
215 -255 29 -16 22 3 -40 102 -77 124 -112 209 -116 287 -5 71 1 105 17 95 15
-9 215 -5 252 5 17 5 31 15 33 23 2 13 -12 16 -78 17 -228 3 -334 100 -346
315 -4 70 -8 77 -22 40z"/>
<path d="M1233 2254 c-20 -20 -24 -31 -19 -57 17 -88 136 -75 136 14 0 31 -40
69 -72 69 -10 0 -30 -12 -45 -26z"/>
<path d="M1696 2137 c-39 -39 -31 -87 18 -114 25 -14 72 2 86 27 26 48 4 96
-47 106 -26 5 -37 1 -57 -19z"/>
<path d="M1179 1226 c-3 -3 -55 -10 -116 -16 -2 0 -3 -31 -3 -68 0 -48 -4 -69
-12 -69 -45 -2 -174 -16 -180 -19 -3 -2 -5 -38 -4 -80 1 -41 -1 -77 -5 -79 -3
-3 -35 -7 -70 -10 -35 -3 -73 -7 -84 -10 -11 -2 -23 -4 -27 -4 -5 -1 -8 -30
-8 -66 0 -45 -4 -65 -12 -66 -7 0 -29 -3 -48 -5 -19 -2 -55 -5 -80 -7 l-45 -4
-3 -240 -2 -241 45 -6 c54 -9 38 -6 136 -26 78 -17 85 -17 167 2 47 10 89 21
94 24 4 3 16 7 25 9 47 10 156 36 228 55 44 11 88 23 98 25 16 4 17 -9 17
-156 l0 -159 210 0 210 0 0 160 c0 88 1 160 3 160 1 0 54 -14 117 -31 63 -16
124 -32 135 -34 11 -3 29 -7 40 -9 11 -3 65 -17 120 -31 136 -35 122 -35 268
-5 l131 26 -1 232 c0 128 -3 235 -6 239 -4 3 -28 7 -54 9 -27 2 -67 6 -90 9
l-43 6 0 65 c0 35 -4 65 -10 65 -5 1 -13 2 -17 3 -5 1 -43 6 -85 10 l-78 8 -1
46 c-1 26 -1 61 -1 79 1 18 -2 34 -6 37 -4 2 -45 7 -92 11 -47 4 -88 9 -92 12
-5 2 -8 33 -8 69 0 44 -4 64 -12 65 -7 0 -21 2 -31 4 -70 13 -176 14 -273 1
-101 -14 -175 -14 -244 0 -33 6 -196 15 -201 10z"/>
</g>
</svg>
