<?xml version="1.0" standalone="no"?>
<!DOCTYPE svg PUBLIC "-//W3C//DTD SVG 20010904//EN"
 "http://www.w3.org/TR/2001/REC-SVG-20010904/DTD/svg10.dtd">
<svg version="1.0" xmlns="http://www.w3.org/2000/svg"
 width="96.000000pt" height="96.000000pt" viewBox="0 0 96.000000 96.000000"
 preserveAspectRatio="xMidYMid meet">
<metadata>
Created by potrace 1.11, written by Peter Selinger 2001-2013
</metadata>
<g transform="translate(0.000000,96.000000) scale(0.100000,-0.100000)"
fill="#000000" stroke="none">
<path d="M352 888 c-27 -6 -56 -23 -82 -47 -33 -32 -40 -44 -40 -77 0 -22 7
-49 15 -61 14 -20 12 -23 -31 -59 -112 -91 -164 -247 -124 -370 20 -60 78
-142 125 -174 73 -50 122 -65 215 -65 76 0 92 4 151 33 105 52 183 143 203
238 28 130 -18 239 -127 295 -43 22 -42 34 5 43 38 7 144 59 173 84 68 57 75
153 10 128 -12 -4 -14 -10 -5 -25 8 -16 5 -23 -20 -41 -26 -19 -181 -94 -188
-90 -5 2 -138 -73 -172 -98 -97 -72 -141 -139 -147 -225 -3 -48 0 -70 15 -97
25 -46 70 -75 119 -78 49 -3 94 27 86 58 -7 25 -11 25 -32 -2 -18 -22 -18 -22
-51 -2 -67 39 -94 102 -75 176 16 62 58 116 111 139 63 28 119 14 178 -45 41
-42 59 -94 62 -186 7 -201 -206 -327 -398 -236 -72 34 -140 107 -163 176 -1 3
-6 14 -11 25 -8 20 -10 132 -2 170 15 75 94 167 159 186 27 9 39 18 39 31 0
10 -4 18 -8 18 -5 0 -17 15 -27 33 -22 41 -15 80 18 101 77 51 143 0 151 -117
3 -28 5 -55 5 -59 1 -5 6 -8 11 -8 6 0 10 47 10 121 0 92 -3 120 -12 116 -7
-2 -12 -10 -10 -16 3 -13 -4 -14 -27 -1 -29 15 -63 17 -109 8z"/>
</g>
</svg>
