<?xml version="1.0" standalone="no"?>
<!DOCTYPE svg PUBLIC "-//W3C//DTD SVG 20010904//EN"
 "http://www.w3.org/TR/2001/REC-SVG-20010904/DTD/svg10.dtd">
<svg version="1.0" xmlns="http://www.w3.org/2000/svg"
 width="300.000000pt" height="300.000000pt" viewBox="0 0 300.000000 300.000000"
 preserveAspectRatio="xMidYMid meet">
<metadata>
Created by potrace 1.11, written by Peter Selinger 2001-2013
</metadata>
<g transform="translate(0.000000,300.000000) scale(0.100000,-0.100000)"
fill="#000000" stroke="none">
<path d="M1395 2598 c-49 -90 -99 -181 -111 -203 -12 -22 -69 -125 -127 -230
l-104 -190 -49 -12 c-42 -11 -370 -77 -444 -89 -14 -3 -47 -9 -75 -14 -27 -6
-61 -12 -75 -15 -65 -12 -238 -46 -258 -51 -19 -4 -21 -7 -10 -18 78 -82 428
-453 468 -496 18 -19 61 -65 96 -103 62 -64 65 -69 59 -107 -3 -22 -7 -59 -10
-82 -3 -24 -8 -59 -11 -78 -3 -19 -7 -51 -9 -70 -9 -65 -26 -205 -31 -245 -2
-22 -6 -51 -9 -65 -2 -14 -7 -52 -10 -85 -3 -33 -8 -71 -10 -85 -18 -112 -18
-111 7 -100 13 5 165 68 338 140 173 72 352 147 396 166 l82 34 293 -125 c162
-69 308 -132 324 -139 17 -8 46 -21 65 -29 19 -8 52 -22 74 -32 l38 -16 -7 53
c-12 101 -14 116 -31 298 -2 30 -7 71 -9 90 -3 19 -7 62 -10 95 -3 33 -8 76
-10 95 -3 19 -7 59 -10 87 -3 29 -7 75 -10 103 l-5 49 89 93 c49 51 103 109
121 128 27 29 360 377 409 427 7 8 10 17 7 21 -6 6 -300 62 -401 77 -22 3 -47
8 -55 10 -8 2 -31 7 -50 10 -19 3 -93 17 -165 30 -71 13 -143 27 -160 29 -93
16 -70 -14 -240 311 -32 61 -80 151 -106 202 -27 51 -73 137 -101 193 -29 55
-55 100 -58 100 -3 0 -46 -73 -95 -162z"/>
</g>
</svg>
