<?xml version="1.0" standalone="no"?>
<!DOCTYPE svg PUBLIC "-//W3C//DTD SVG 20010904//EN"
 "http://www.w3.org/TR/2001/REC-SVG-20010904/DTD/svg10.dtd">
<svg version="1.0" xmlns="http://www.w3.org/2000/svg"
 width="16.000000pt" height="16.000000pt" viewBox="0 0 16.000000 16.000000"
 preserveAspectRatio="xMidYMid meet">
<metadata>
Created by potrace 1.11, written by Peter Selinger 2001-2013
</metadata>
<g transform="translate(0.000000,16.000000) scale(0.000501,-0.000501)"
fill="#000000" stroke="none">
<path d="M22020 27526 c19 -7 94 -35 165 -61 555 -202 977 -461 1098 -674 51
-90 113 -114 233 -87 97 21 216 14 314 -18 69 -22 176 -69 225 -99 62 -38 140
-92 195 -137 35 -27 66 -48 68 -45 3 3 -13 42 -36 87 -96 192 -280 308 -542
342 -86 11 -101 11 -165 -7 -90 -24 -112 -29 -158 -30 -52 -1 -63 13 -49 60
11 35 10 39 -30 93 -70 93 -178 199 -283 277 -181 137 -469 254 -700 288 -23
3 -52 8 -65 10 -14 3 -88 8 -165 10 -128 5 -137 4 -105 -9z"/>
<path d="M17157 26014 c-1 -1 -94 -4 -207 -8 -113 -3 -223 -8 -245 -10 -22 -3
-71 -7 -109 -10 -38 -3 -83 -8 -100 -11 -17 -3 -53 -7 -81 -9 -45 -4 -85 -9
-165 -21 -347 -48 -744 -143 -1125 -270 -625 -207 -1226 -519 -1780 -923 -545
-397 -1076 -938 -1466 -1492 -114 -161 -255 -382 -326 -510 -11 -19 -44 -77
-73 -129 -66 -118 -228 -451 -269 -553 -17 -43 -35 -86 -40 -95 -47 -85 -217
-593 -276 -828 -5 -16 -9 -34 -11 -40 -11 -43 -75 -335 -79 -359 -3 -17 -8
-44 -12 -61 -4 -16 -7 -34 -8 -40 0 -5 -4 -30 -9 -55 -4 -25 -10 -58 -12 -75
-2 -16 -6 -41 -9 -55 -2 -14 -7 -47 -10 -75 -3 -27 -8 -63 -10 -80 -2 -16 -7
-57 -10 -90 -4 -33 -8 -73 -10 -90 -4 -31 -14 -162 -21 -270 -6 -99 -6 -625 0
-695 3 -36 8 -108 12 -160 3 -52 8 -106 9 -120 2 -14 6 -56 10 -95 4 -38 9
-77 10 -86 2 -9 6 -40 10 -70 5 -48 40 -267 51 -323 23 -125 66 -309 118 -517
33 -129 153 -499 191 -584 7 -16 20 -51 29 -77 8 -26 24 -66 35 -90 11 -24 32
-72 46 -108 60 -145 199 -426 297 -600 36 -63 62 -116 59 -117 -3 -1 -195 -4
-426 -7 -231 -3 -442 -7 -470 -9 -27 -3 -99 -8 -160 -11 -60 -4 -126 -9 -145
-11 -19 -2 -69 -7 -110 -10 -41 -4 -86 -8 -100 -10 -14 -2 -56 -6 -95 -10 -38
-3 -99 -10 -135 -15 -36 -5 -87 -12 -115 -15 -54 -7 -342 -51 -388 -60 -15 -2
-55 -10 -90 -16 -167 -29 -618 -125 -679 -145 -9 -2 -25 -6 -35 -8 -10 -2 -48
-12 -85 -22 -37 -10 -70 -15 -73 -12 -7 7 -10 41 -31 400 -12 213 -6 809 10
948 3 19 7 77 11 128 3 51 8 100 9 110 2 9 7 48 11 85 3 37 8 76 10 85 1 9 6
42 9 73 4 31 9 67 11 80 3 13 7 38 10 54 2 17 11 68 19 115 9 47 18 99 21 115
36 197 157 600 237 785 52 119 65 139 94 146 102 26 202 -167 277 -536 36
-172 37 -178 66 -386 20 -135 21 -144 27 -212 4 -37 8 -69 10 -71 1 -2 23 28
47 66 207 323 229 708 61 1051 -25 52 -44 95 -42 98 7 6 79 -17 142 -46 250
-114 513 -454 715 -923 48 -112 59 -132 63 -110 5 36 1 265 -6 318 -2 22 -8
65 -12 95 -10 90 -59 271 -98 366 -109 268 -291 480 -519 605 l-48 26 43 8
c100 18 244 14 361 -10 180 -36 430 -162 614 -307 l62 -49 -19 58 c-21 62 -21
61 -74 173 -33 70 -63 121 -127 216 -42 62 -170 178 -248 224 -81 48 -175 85
-271 105 -93 20 -321 14 -404 -12 -17 -5 -17 -2 4 27 25 35 148 161 191 196
162 131 447 256 659 288 90 14 115 18 119 22 10 9 -205 95 -275 109 -162 33
-328 31 -453 -5 -200 -57 -399 -193 -542 -369 l-36 -44 -23 94 c-88 369 -284
631 -573 764 -69 32 -169 63 -232 71 -81 11 -115 12 -115 3 0 -5 4 -9 8 -9 5
0 18 -8 30 -17 11 -10 34 -28 49 -40 97 -75 209 -205 316 -368 74 -114 194
-342 235 -450 11 -27 29 -75 41 -105 l23 -55 -74 72 c-238 236 -468 324 -758
290 -76 -9 -215 -54 -297 -96 -80 -40 -229 -141 -283 -191 l-45 -41 45 6 c76
11 392 15 440 6 25 -5 65 -12 89 -15 144 -19 344 -98 473 -185 68 -46 88 -75
46 -64 -13 3 -81 6 -152 8 -174 3 -292 -21 -436 -87 -271 -125 -489 -395 -609
-756 -17 -51 -31 -100 -31 -108 0 -12 134 96 170 137 16 18 227 173 290 213
93 59 253 136 342 166 70 22 224 51 232 43 3 -3 -28 -32 -69 -64 -325 -261
-465 -616 -390 -987 13 -69 13 -69 113 80 167 246 273 380 412 517 83 81 223
181 237 168 2 -3 -19 -35 -47 -73 -88 -117 -191 -312 -257 -483 -60 -158 -150
-461 -169 -571 -3 -14 -13 -65 -24 -115 -10 -49 -21 -108 -24 -130 -4 -22 -11
-65 -16 -95 -5 -30 -12 -75 -15 -100 -3 -25 -7 -61 -10 -80 -3 -19 -7 -55 -10
-80 -3 -25 -7 -61 -10 -80 -2 -19 -7 -69 -11 -110 -3 -41 -8 -91 -9 -110 -2
-19 -7 -91 -10 -160 -4 -69 -8 -143 -10 -165 -2 -22 -5 -153 -5 -291 -1 -138
-5 -256 -8 -261 -9 -15 -32 -18 -62 -11 -22 6 -32 28 -94 215 -38 114 -73 219
-79 233 -5 14 -11 30 -12 35 -5 20 -125 323 -155 390 -10 22 -32 74 -50 115
-41 96 -207 433 -261 530 -306 551 -671 1017 -1019 1300 -30 25 -61 51 -68 58
-7 6 -44 33 -80 59 -37 26 -69 50 -72 53 -11 13 -193 120 -204 120 -6 0 -19 7
-29 15 -18 13 -18 14 3 25 63 34 168 64 310 89 84 15 142 19 285 16 99 -2 196
-6 215 -10 19 -3 71 -12 115 -20 120 -21 131 -24 246 -56 108 -30 214 -65 282
-94 l39 -16 -8 23 c-4 13 -15 39 -25 58 -11 19 -19 38 -19 42 0 18 -87 134
-145 193 -197 199 -500 306 -872 309 -95 0 -173 4 -173 7 0 12 164 116 247
158 178 89 429 168 618 196 23 3 51 7 64 10 53 10 224 26 326 30 61 2 112 4
115 5 11 1 -120 75 -213 122 -243 121 -440 169 -677 163 -148 -4 -171 -7 -278
-36 -248 -69 -510 -246 -683 -464 -39 -49 -37 -42 38 150 193 491 451 858 718
1020 l60 36 -70 -6 c-277 -24 -515 -100 -702 -226 -146 -98 -319 -296 -377
-431 -9 -21 -24 -55 -33 -75 -9 -21 -17 -40 -18 -43 -1 -3 -4 -12 -8 -20 -15
-38 -47 -170 -53 -220 -4 -30 -8 -62 -10 -70 -1 -8 -3 -19 -3 -25 -2 -13 -63
126 -102 234 -35 94 -76 235 -85 291 -3 19 -9 53 -14 75 -5 22 -12 63 -15 90
-4 28 -9 61 -12 75 -3 14 -6 115 -8 225 -3 191 6 332 25 403 4 17 6 32 4 32
-12 0 -89 -93 -138 -165 -206 -306 -269 -667 -186 -1074 25 -123 90 -317 141
-421 21 -44 39 -83 39 -86 0 -2 -21 -2 -47 1 -84 11 -268 6 -369 -9 -277 -42
-488 -146 -669 -330 -99 -101 -161 -186 -226 -316 -42 -82 -101 -241 -93 -249
2 -2 23 12 46 31 24 18 70 51 103 72 33 21 72 46 86 56 14 10 82 46 150 79
170 82 381 151 544 177 17 3 41 7 55 10 70 12 285 23 312 16 13 -3 0 -17 -50
-55 -94 -70 -230 -208 -295 -299 -61 -86 -136 -233 -166 -325 -43 -136 -55
-221 -55 -403 -1 -228 25 -373 103 -580 l29 -75 11 45 c40 163 120 433 146
495 7 17 29 73 50 125 75 190 192 391 293 501 50 55 140 122 179 133 20 6 19
1 -18 -83 -113 -263 -154 -512 -126 -766 33 -305 191 -615 440 -867 74 -75
258 -230 264 -224 2 1 -15 47 -38 102 -112 274 -185 546 -215 799 -19 168 -4
471 30 583 3 9 7 28 10 42 13 75 101 274 117 265 5 -4 9 -14 9 -24 0 -9 4 -21
8 -26 5 -6 15 -26 22 -45 21 -57 146 -311 183 -372 218 -362 465 -552 704
-543 107 4 130 15 101 47 -21 22 -93 121 -113 156 -11 17 -23 32 -27 32 -4 0
-8 5 -8 11 0 6 -11 25 -25 43 -14 18 -25 36 -25 40 0 4 -15 31 -34 59 -76 118
-204 366 -308 602 -56 126 -138 336 -138 353 0 27 200 -129 329 -259 115 -114
158 -164 324 -379 29 -37 169 -254 229 -355 211 -351 466 -908 625 -1360 121
-345 222 -665 287 -906 30 -113 30 -109 12 -109 -19 0 -228 -88 -241 -102 -7
-7 -3 -7 12 1 12 6 30 11 40 10 14 0 14 -2 3 -6 -69 -24 -388 -158 -498 -209
-41 -19 -76 -34 -78 -34 -8 0 -414 -201 -414 -205 0 -3 6 -3 13 0 9 3 136 32
217 50 60 14 492 104 520 109 41 7 67 12 135 26 28 5 66 12 85 15 19 3 46 7
60 10 14 3 39 7 55 9 17 3 44 7 60 10 17 3 44 7 60 10 17 3 46 8 65 11 19 3
46 7 60 10 14 2 45 7 70 10 25 3 56 8 70 10 14 2 45 7 70 10 25 4 56 8 70 10
14 2 45 7 70 10 25 3 56 7 70 9 14 3 52 8 85 11 33 3 71 8 85 10 14 2 57 6 95
10 39 4 77 8 85 10 8 1 51 6 95 9 44 4 96 9 115 11 31 4 77 8 240 20 25 2 95
6 155 10 61 3 135 8 165 10 291 23 1028 23 1435 0 138 -7 261 -15 318 -20 209
-18 277 -24 432 -41 44 -5 228 -28 310 -39 17 -2 53 -7 80 -10 28 -3 61 -8 75
-10 29 -5 267 -41 325 -50 22 -3 63 -10 90 -15 55 -11 315 -59 355 -66 14 -3
90 -19 170 -35 80 -17 154 -33 165 -35 66 -12 498 -115 710 -169 321 -82 311
-79 635 -170 151 -42 282 -78 290 -80 16 -4 298 -87 465 -136 55 -17 107 -32
115 -34 8 -2 174 -51 369 -110 413 -123 790 -235 811 -241 8 -2 62 -17 120
-34 58 -18 112 -34 120 -36 8 -2 40 -11 70 -20 64 -19 415 -112 445 -118 18
-4 99 -23 135 -31 31 -8 456 -94 490 -99 19 -3 49 -8 65 -11 17 -3 44 -7 60
-10 17 -3 39 -7 50 -9 11 -2 41 -6 66 -10 25 -4 57 -9 70 -11 38 -6 170 -25
209 -30 19 -2 51 -6 70 -9 19 -3 60 -8 90 -11 30 -3 71 -8 90 -10 19 -2 64 -7
100 -10 36 -4 79 -9 95 -10 17 -2 68 -6 115 -10 47 -4 105 -8 130 -10 345 -27
1044 -27 1405 0 33 3 92 7 130 10 39 3 90 8 115 10 25 3 70 7 100 10 30 2 71
7 90 10 19 2 58 7 85 10 28 3 61 8 75 10 14 2 70 11 125 20 131 20 211 33 240
41 6 1 28 5 50 9 22 4 43 9 46 11 4 2 24 6 45 10 67 10 335 81 465 123 619
198 1065 445 1389 771 109 109 128 130 202 232 196 267 304 553 337 893 9 97
1 335 -14 415 -2 14 -7 41 -9 60 -18 129 -51 266 -102 411 -80 229 -208 449
-362 619 l-49 54 25 75 c39 122 110 377 126 451 41 188 76 354 81 390 3 25 8
52 10 60 2 8 7 33 10 55 3 23 7 50 9 60 4 19 9 62 21 160 3 22 8 56 10 75 3
19 8 69 11 110 3 41 7 91 9 110 23 223 23 853 0 1035 -2 17 -7 66 -10 109 -4
43 -8 86 -10 95 -1 9 -6 45 -10 81 -4 36 -9 72 -10 80 -2 8 -6 38 -9 65 -22
169 -72 420 -127 634 -22 86 -42 164 -44 174 -15 65 -125 404 -165 507 -12 30
-30 78 -40 105 -56 157 -249 569 -351 751 -18 33 -40 72 -48 87 -9 16 -21 36
-26 45 -6 9 -36 60 -67 112 -50 85 -251 391 -278 423 -5 6 -49 64 -96 127 -75
100 -187 241 -219 276 -5 7 -32 38 -60 70 -166 195 -415 445 -626 630 -99 87
-140 120 -232 194 -11 8 -24 20 -31 26 -6 5 -47 37 -91 69 -44 33 -82 62 -85
66 -11 12 -245 171 -362 246 -527 338 -1156 618 -1763 784 -73 20 -342 85
-385 93 -14 3 -50 10 -80 16 -30 6 -68 13 -85 16 -16 2 -37 7 -45 9 -8 2 -37
7 -65 11 -27 3 -59 8 -70 10 -11 2 -40 6 -65 9 -25 3 -54 8 -66 10 -11 2 -45
7 -75 10 -30 3 -67 8 -84 10 -16 2 -68 7 -115 10 -47 4 -98 9 -115 11 -46 5
-513 22 -518 18z m-817 -698 c14 -2 52 -7 85 -11 33 -3 78 -10 100 -15 22 -5
60 -11 85 -15 105 -15 332 -77 500 -137 480 -173 898 -488 1170 -883 l30 -44
-21 -44 c-64 -132 67 -151 386 -55 64 19 155 25 213 13 11 -2 43 -6 73 -10 74
-9 232 -49 312 -79 282 -106 479 -276 592 -511 77 -158 74 -161 -51 -60 -375
303 -765 469 -1077 460 -102 -3 -158 -11 -222 -32 -81 -26 -187 -12 -263 35
-33 21 -56 49 -99 122 -95 161 -329 376 -593 545 -269 172 -661 367 -1040 516
-69 27 -134 54 -145 59 -11 4 -51 20 -90 33 -38 14 -108 39 -155 56 -47 17
-109 38 -137 47 -29 9 -53 19 -53 22 0 6 361 -5 400 -12z m4775 -7490 c913
-916 1662 -1666 1665 -1666 5 0 14 15 130 227 76 138 184 355 229 458 13 28
28 63 36 79 l13 30 16 -39 c20 -48 61 -183 75 -250 13 -61 24 -139 36 -260 7
-58 7 -261 1 -290 -2 -11 -7 -47 -11 -80 -9 -74 -45 -201 -80 -280 -15 -33
-29 -62 -31 -64 -4 -5 -58 41 -339 289 -122 107 -250 220 -284 250 -35 30 -76
66 -91 80 -15 14 -56 50 -90 80 -35 30 -68 59 -74 65 -6 6 -45 40 -88 77 -42
36 -91 79 -110 96 -18 16 -96 85 -173 152 -77 68 -158 139 -180 159 -37 33
-148 131 -220 193 -168 147 -199 174 -219 193 -12 11 -111 99 -221 195 -110
96 -216 189 -235 206 -19 18 -98 87 -175 154 -77 68 -156 137 -175 154 -19 17
-73 65 -120 106 -47 41 -90 80 -96 85 -13 11 -89 78 -239 210 -55 48 -113 99
-130 114 -16 14 -68 60 -115 101 -47 41 -98 86 -115 101 -16 14 -57 50 -90 79
-33 29 -76 67 -95 84 -19 17 -69 60 -110 96 -41 36 -77 67 -80 70 -3 3 -61 55
-130 115 -69 61 -138 122 -155 137 -16 14 -39 35 -51 45 -12 10 -52 45 -90 79
-74 65 -229 201 -279 245 -58 51 -320 282 -355 313 -19 17 -89 78 -155 136
-66 58 -122 107 -125 110 -3 3 -41 36 -85 75 -44 38 -82 72 -85 75 -3 3 -23
20 -45 39 -22 19 -71 62 -110 96 -38 34 -133 118 -210 185 -77 67 -156 137
-175 154 -69 61 -67 60 -96 37 -14 -11 -55 -46 -91 -78 -92 -83 -102 -91 -178
-158 -90 -78 -152 -133 -195 -171 -19 -18 -114 -101 -210 -185 -96 -84 -177
-155 -180 -158 -3 -4 -57 -51 -120 -105 -63 -55 -120 -104 -125 -110 -6 -6
-44 -40 -85 -76 -41 -35 -77 -67 -80 -70 -3 -3 -61 -55 -130 -115 -69 -60
-130 -114 -136 -119 -6 -6 -39 -36 -74 -66 -121 -105 -245 -214 -250 -219 -3
-3 -54 -49 -115 -101 -60 -52 -112 -97 -115 -100 -3 -3 -39 -35 -80 -70 -41
-36 -77 -68 -80 -71 -3 -3 -48 -43 -100 -88 -52 -45 -111 -97 -130 -115 -19
-17 -107 -95 -195 -171 -88 -77 -162 -142 -165 -145 -3 -3 -135 -120 -295
-260 -159 -140 -295 -259 -301 -265 -13 -12 -105 -93 -234 -205 -52 -46 -97
-86 -100 -89 -3 -3 -39 -35 -80 -71 -41 -36 -80 -69 -86 -75 -6 -5 -40 -35
-75 -66 -35 -31 -107 -94 -159 -140 -53 -46 -124 -109 -159 -139 -35 -30 -76
-66 -91 -80 -15 -14 -40 -36 -56 -50 -64 -55 -179 -156 -194 -170 -22 -20
-125 -111 -295 -260 -138 -121 -203 -178 -340 -299 -66 -58 -72 -61 -122 -61
-29 0 -53 3 -53 8 0 4 36 41 79 82 44 41 175 167 292 280 117 113 238 230 269
260 32 30 151 145 265 255 114 110 229 220 255 245 26 25 141 135 255 245 114
110 235 227 270 260 34 33 151 146 260 250 108 105 225 217 260 250 34 33 141
136 238 229 l176 169 0 924 c-1 509 2 927 5 930 4 4 1079 8 1191 4 20 -1 20
-7 20 -282 0 -154 2 -282 5 -284 6 -4 55 42 329 303 90 87 185 177 211 202 26
25 130 124 231 220 101 96 224 214 274 262 49 47 115 110 147 140 31 29 130
123 220 209 89 86 199 191 243 233 l80 76 1085 -1089 c597 -599 1832 -1839
2745 -2755z m-3710 2215 c55 -41 102 -78 105 -81 3 -3 93 -71 200 -151 107
-81 290 -218 405 -306 116 -87 368 -278 560 -423 193 -145 357 -270 365 -277
15 -12 145 -110 745 -562 187 -141 342 -258 345 -261 3 -3 79 -61 170 -130 91
-68 203 -153 250 -188 47 -36 96 -73 110 -83 14 -10 38 -29 55 -41 16 -13 108
-82 205 -155 96 -73 180 -136 185 -141 13 -10 732 -553 855 -646 52 -39 97
-73 100 -76 3 -3 59 -46 125 -95 66 -50 126 -95 135 -102 8 -7 121 -92 250
-189 498 -375 605 -457 608 -465 3 -8 -61 -108 -102 -158 -54 -67 -203 -205
-280 -260 -48 -34 -89 -61 -93 -61 -3 0 -14 -6 -22 -14 -19 -17 -219 -120
-306 -158 -52 -22 -213 -78 -310 -108 -102 -31 -391 -101 -470 -114 -16 -3
-73 -12 -125 -21 -52 -9 -107 -18 -122 -21 -16 -2 -40 -6 -55 -9 -55 -9 -233
-28 -363 -40 -36 -3 -85 -8 -110 -10 -266 -24 -846 -24 -1235 0 -220 14 -303
20 -405 30 -25 3 -76 7 -115 10 -38 4 -81 8 -95 10 -14 2 -52 7 -85 10 -88 9
-135 14 -180 21 -76 11 -90 13 -175 24 -73 10 -240 37 -425 70 -227 40 -688
147 -885 206 -17 5 -179 49 -345 93 -60 16 -136 36 -167 45 -32 9 -82 22 -110
30 -150 41 -252 70 -443 125 -252 71 -788 221 -900 251 -131 35 -389 102 -405
105 -8 2 -80 20 -160 40 -80 20 -163 40 -185 45 -22 4 -116 24 -210 44 -202
44 -464 97 -550 111 -16 3 -50 10 -75 15 -49 11 -71 15 -170 30 -69 11 -102
17 -135 24 -11 2 -69 11 -130 21 -60 9 -123 18 -140 21 -93 14 -105 16 -315
43 -85 11 -184 22 -220 26 -36 3 -87 8 -115 11 -63 8 -97 10 -232 19 -59 4
-117 9 -128 10 -11 1 -46 3 -79 4 l-59 1 36 28 c19 15 115 86 212 157 97 72
232 171 299 220 67 50 207 153 311 230 105 77 195 144 202 150 6 5 98 73 203
150 213 155 599 440 615 452 19 15 727 538 755 558 16 11 135 99 265 195 130
96 267 198 305 225 94 68 473 348 485 358 10 8 213 158 509 375 87 64 249 184
360 266 110 82 220 163 244 180 24 17 55 40 70 52 155 121 468 342 476 337 6
-4 56 -41 111 -82z"/>
<path d="M16176 18642 c-2 -4 -3 -203 -3 -442 l2 -435 440 0 440 0 1 430 c0
237 -2 435 -4 442 -3 9 -114 11 -438 11 -239 0 -436 -3 -438 -6z"/>
<path d="M17338 18637 c-4 -10 -3 -852 1 -868 0 -3 198 -6 439 -6 l439 0 0
442 1 443 -438 0 c-326 0 -439 -3 -442 -11z"/>
<path d="M16208 17552 l-37 -3 0 -440 1 -439 441 0 442 0 -1 433 c-1 237 -2
437 -3 442 -1 9 -743 15 -843 7z"/>
<path d="M17359 17550 l-24 -5 0 -437 0 -438 441 0 441 0 0 440 c1 242 -2 440
-5 441 -40 3 -834 3 -853 -1z"/>
<path d="M23468 25775 c-2 -1 -41 -5 -86 -9 -343 -26 -696 -145 -970 -326
l-82 -55 5 -40 c6 -51 -15 -85 -53 -85 -29 0 -166 64 -192 90 -13 13 -130 99
-147 108 -21 12 -141 45 -208 57 -22 5 -45 9 -52 11 -65 13 -278 19 -333 10
-14 -3 -47 -7 -75 -11 -65 -8 -208 -56 -271 -90 -92 -51 -237 -175 -266 -229
-9 -16 -8 -18 8 -11 11 4 33 11 49 17 17 5 39 14 50 18 63 28 298 83 430 101
102 13 267 16 370 6 141 -14 313 -77 407 -150 105 -80 276 -86 338 -12 21 25
116 88 185 122 124 63 392 149 525 169 19 3 42 7 50 10 8 3 29 7 45 10 17 2
46 6 65 10 19 3 49 7 65 9 17 3 46 7 65 10 19 2 55 7 80 9 25 3 68 8 95 11
191 20 430 29 780 28 219 0 312 2 295 9 -174 69 -417 138 -570 162 -102 17
-181 27 -240 32 -70 6 -357 13 -362 9z"/>
<path d="M9767 14723 c-1 0 -74 -4 -162 -8 -229 -9 -402 -20 -485 -30 -19 -2
-64 -7 -100 -10 -80 -7 -248 -31 -355 -50 -44 -7 -96 -16 -115 -19 -19 -3 -60
-10 -90 -16 -30 -7 -68 -14 -85 -17 -47 -8 -313 -68 -343 -77 -9 -3 -30 -8
-47 -10 -151 -26 -770 -234 -955 -321 -41 -19 -51 -21 155 27 72 16 141 32
155 34 14 2 59 11 100 19 41 9 86 17 100 20 14 3 36 7 50 10 14 2 41 7 60 10
19 3 60 10 90 15 77 13 128 20 180 26 25 3 56 7 70 9 14 2 48 7 75 10 28 3 66
8 85 11 20 2 60 6 90 9 30 2 82 7 115 10 33 3 80 8 105 10 40 4 177 12 345 21
86 4 692 4 805 0 131 -6 326 -16 380 -21 25 -2 81 -7 125 -10 44 -4 91 -8 105
-10 14 -2 61 -7 105 -11 44 -3 87 -8 95 -9 8 -1 49 -6 90 -11 41 -4 77 -8 80
-9 3 -1 34 -5 70 -9 36 -5 72 -10 80 -11 8 -1 40 -6 70 -10 30 -4 64 -9 75
-11 10 -2 37 -6 60 -9 22 -3 67 -11 100 -16 33 -6 71 -12 85 -14 35 -5 173
-29 230 -40 14 -3 52 -10 85 -16 33 -6 114 -21 180 -34 66 -13 131 -26 145
-29 56 -10 285 -59 435 -93 88 -19 176 -39 195 -43 19 -4 132 -31 250 -59 118
-29 222 -54 230 -56 8 -2 53 -13 100 -25 47 -12 92 -23 100 -25 8 -2 60 -16
115 -30 55 -15 108 -28 117 -30 18 -4 239 -62 358 -95 36 -10 135 -37 220 -60
139 -38 345 -95 485 -135 201 -57 311 -87 320 -89 6 -1 35 -10 65 -19 30 -9
80 -23 110 -31 30 -8 222 -60 425 -116 204 -55 438 -119 520 -140 83 -22 211
-56 285 -76 74 -19 142 -37 150 -39 8 -2 105 -26 215 -54 214 -54 561 -136
635 -151 25 -5 99 -21 165 -35 66 -15 131 -28 145 -31 14 -2 39 -8 55 -11 17
-4 35 -8 40 -8 6 -1 24 -4 40 -8 17 -4 45 -9 63 -12 18 -3 63 -12 100 -19 37
-8 85 -17 107 -20 22 -4 47 -8 55 -11 8 -2 33 -6 55 -10 22 -3 94 -15 160 -26
66 -11 140 -22 165 -25 25 -2 52 -6 60 -8 8 -3 38 -7 65 -11 28 -3 64 -8 80
-10 30 -4 152 -19 235 -29 92 -11 174 -19 305 -30 33 -3 94 -8 135 -12 79 -7
99 -8 330 -20 271 -13 784 -8 1025 11 22 2 76 6 120 9 44 4 96 9 115 11 19 2
62 7 95 11 33 3 69 8 80 10 11 2 40 7 65 10 25 3 63 9 85 14 22 5 60 11 85 15
25 3 72 12 105 20 33 7 78 16 100 19 22 4 67 14 100 22 33 9 71 18 85 21 187
34 643 183 904 295 132 56 396 185 396 193 0 2 -53 -14 -117 -35 -178 -58
-213 -68 -361 -106 -155 -40 -141 -36 -247 -59 -44 -9 -89 -19 -100 -21 -11
-2 -33 -6 -50 -9 -16 -3 -52 -10 -80 -15 -27 -5 -67 -12 -89 -16 -21 -3 -48
-7 -60 -10 -25 -5 -220 -31 -291 -39 -27 -3 -66 -8 -85 -10 -32 -4 -63 -7
-240 -20 -298 -24 -890 -23 -1145 0 -28 2 -84 7 -125 10 -41 3 -91 7 -110 9
-19 3 -69 7 -110 11 -41 3 -86 8 -100 11 -14 2 -41 6 -60 8 -63 6 -165 18
-184 22 -11 2 -54 8 -96 14 -42 6 -86 12 -97 14 -12 3 -43 8 -70 12 -26 3 -57
8 -68 10 -11 2 -60 11 -110 20 -49 8 -99 17 -110 19 -11 2 -47 9 -80 15 -33 6
-94 18 -135 26 -41 9 -86 18 -100 20 -49 9 -467 100 -615 135 -44 11 -118 28
-165 39 -47 11 -148 36 -225 55 -77 20 -158 40 -180 45 -22 5 -76 18 -120 30
-44 12 -132 35 -195 52 -148 39 -720 194 -785 213 -106 31 -861 246 -876 250
-9 2 -107 29 -219 60 -111 31 -232 65 -269 74 -65 18 -215 59 -321 87 -110 30
-285 76 -304 80 -10 2 -58 15 -105 28 -47 14 -97 27 -111 30 -14 3 -124 30
-245 60 -121 30 -258 64 -305 75 -47 11 -123 29 -170 40 -47 11 -96 22 -110
24 -14 3 -43 10 -65 15 -31 9 -217 48 -315 67 -8 2 -60 12 -115 24 -160 32
-508 94 -710 126 -95 14 -234 34 -284 40 -30 4 -61 8 -70 10 -9 1 -47 6 -86
10 -38 4 -72 8 -75 10 -3 1 -45 6 -94 10 -50 4 -97 8 -105 10 -9 1 -59 6 -111
10 -52 3 -106 8 -120 10 -14 2 -74 7 -135 11 -60 3 -132 8 -160 10 -165 10
-860 25 -868 17z"/>
<path d="M25247 11804 c-1 -1 -33 -5 -72 -8 -311 -30 -603 -168 -752 -355 -73
-92 -103 -172 -108 -285 -6 -140 40 -275 147 -433 81 -117 80 -116 443 -478
337 -335 432 -446 493 -568 40 -82 51 -120 55 -192 8 -118 -41 -226 -141 -316
-192 -173 -506 -191 -712 -40 -118 86 -168 185 -168 334 0 48 -2 90 -5 94 -11
11 -59 5 -72 -8 -8 -8 -16 -25 -19 -39 -20 -103 -27 -138 -37 -172 -30 -113
-30 -235 0 -300 74 -155 266 -239 519 -225 59 3 121 9 137 12 442 88 783 372
842 700 10 53 9 182 -1 228 -3 15 -9 39 -12 55 -9 48 -56 145 -109 227 -88
137 -176 225 -475 480 -299 254 -391 352 -452 481 -32 68 -36 84 -43 163 -7
73 9 153 44 226 31 63 119 160 155 171 12 4 28 12 36 19 32 26 146 48 222 42
40 -3 82 -8 93 -10 187 -48 303 -180 319 -366 6 -67 14 -76 68 -72 21 1 63 89
75 156 4 28 8 133 8 235 l0 185 -86 22 c-92 23 -199 35 -317 37 -40 1 -74 1
-75 0z"/>
<path d="M8267 11794 c-1 -1 -54 -4 -117 -8 -63 -3 -124 -8 -135 -10 -11 -2
-45 -7 -75 -11 -194 -25 -472 -116 -595 -194 -155 -99 -337 -329 -451 -566
-118 -247 -165 -445 -170 -715 -1 -96 2 -200 7 -230 5 -30 11 -73 15 -95 18
-122 76 -286 147 -418 80 -146 219 -316 324 -394 21 -15 40 -30 43 -33 3 -3
32 -23 64 -44 109 -72 308 -161 403 -181 10 -2 45 -10 78 -19 105 -26 240 -39
400 -39 115 0 363 11 405 17 14 3 57 7 95 10 39 4 81 8 95 10 14 3 50 7 80 10
152 17 287 40 306 52 42 26 116 244 131 384 10 99 6 249 -7 251 -3 0 -23 2
-46 5 -40 5 -42 4 -57 -33 -22 -51 -80 -154 -133 -233 -105 -160 -266 -264
-449 -288 -69 -10 -308 -9 -378 1 -442 61 -869 436 -1036 911 -69 196 -90 327
-86 541 3 156 6 187 26 270 5 22 12 51 15 64 11 51 49 150 86 226 113 229 312
406 563 502 157 60 259 77 455 78 205 0 299 -19 445 -90 210 -102 347 -274
408 -510 24 -94 32 -103 81 -91 19 5 24 16 34 83 7 43 14 89 17 103 9 54 15
99 20 156 4 32 8 70 10 83 2 13 7 93 11 177 l6 153 -23 5 c-23 4 -275 36 -330
41 -15 2 -39 5 -55 9 -16 3 -49 8 -74 11 -25 3 -74 10 -110 15 -106 15 -150
20 -243 26 -90 6 -197 10 -200 8z"/>
<path d="M5513 11782 c-7 -5 -35 -69 -63 -143 -28 -73 -54 -143 -59 -154 -11
-24 -35 -88 -37 -95 0 -3 -5 -16 -11 -30 -6 -14 -33 -88 -62 -165 -28 -77 -56
-149 -61 -160 -5 -11 -34 -90 -65 -175 -30 -85 -59 -164 -64 -175 -27 -62
-171 -465 -301 -840 -146 -423 -222 -624 -263 -695 -36 -64 -136 -169 -187
-196 -19 -10 -60 -21 -90 -24 -57 -5 -75 -25 -51 -54 17 -20 833 -22 850 -3
16 21 3 46 -28 53 -145 31 -173 49 -177 113 -1 23 7 75 17 114 10 40 20 83 23
97 15 83 202 626 237 691 9 18 27 19 387 19 l377 0 29 -77 c16 -43 98 -258
182 -479 85 -220 154 -405 154 -410 0 -5 -30 -25 -68 -44 -125 -65 -89 -93
118 -90 74 0 263 2 420 3 l284 2 7 33 c8 38 7 38 -51 47 -52 8 -121 30 -171
56 -62 31 -108 88 -159 193 -125 262 -357 832 -525 1291 -64 173 -152 400
-187 480 -22 50 -60 142 -84 205 -25 63 -49 124 -54 135 -5 11 -34 85 -63 165
-95 256 -153 344 -204 312z m134 -1142 c68 -201 133 -389 142 -417 l18 -53
-26 -1 c-35 -1 -540 -1 -567 0 -21 1 -19 10 47 204 62 183 167 507 173 532 2
10 42 134 53 165 6 18 2 29 160 -430z"/>
<path d="M15162 11778 c-9 -13 -45 -102 -124 -318 -21 -58 -43 -114 -48 -125
-5 -11 -36 -92 -69 -180 -32 -88 -64 -171 -70 -185 -5 -14 -28 -77 -51 -140
-22 -63 -45 -124 -50 -135 -8 -18 -152 -414 -205 -565 -41 -115 -196 -564
-205 -590 -28 -88 -135 -351 -160 -395 -38 -67 -138 -168 -194 -194 -23 -12
-61 -21 -84 -21 -31 0 -44 -5 -52 -19 -24 -46 -11 -47 436 -47 l419 1 3 27 c3
25 0 27 -52 38 -31 6 -58 11 -61 10 -9 -1 -63 29 -79 45 -31 31 -17 128 53
365 22 74 58 187 81 250 22 63 43 122 45 130 2 8 22 63 45 123 l42 107 380 -2
381 -3 20 -55 c11 -30 58 -154 105 -275 46 -121 94 -247 107 -280 12 -33 48
-127 80 -208 31 -81 56 -149 54 -150 -2 -2 -30 -16 -62 -32 -147 -72 -113 -98
123 -96 85 1 272 2 415 3 143 0 266 3 273 5 6 3 12 20 12 37 0 32 -1 33 -65
44 -96 18 -168 49 -218 95 -49 45 -72 83 -132 217 -20 47 -49 110 -62 140 -14
30 -41 93 -60 140 -19 47 -43 103 -53 125 -9 22 -43 105 -75 185 -32 80 -63
159 -70 175 -7 17 -75 194 -150 395 -137 366 -188 496 -227 580 -11 25 -40 97
-65 160 -24 63 -48 124 -53 135 -5 11 -30 76 -55 145 -101 274 -179 392 -223
338z m2 -729 c2 -8 6 -21 9 -29 7 -15 115 -336 197 -580 22 -69 45 -134 50
-145 16 -37 40 -118 36 -122 -2 -2 -138 -4 -302 -5 -249 -1 -299 2 -298 13 1
8 47 151 102 319 56 168 120 367 144 442 38 124 53 150 62 107z"/>
<path d="M3751 11754 c-21 -15 -97 -16 -779 -16 -437 0 -764 -4 -774 -10 -10
-5 -18 -18 -18 -28 0 -24 87 -68 197 -100 57 -16 76 -27 95 -53 l23 -32 0
-1180 c0 -1254 1 -1223 -48 -1296 -28 -41 -94 -80 -145 -84 -20 -2 -42 -3 -48
-4 -14 -1 -24 -35 -15 -49 17 -28 224 -36 903 -35 448 1 610 4 648 14 53 14
53 13 65 109 4 25 8 56 10 70 2 14 7 50 10 80 4 30 16 97 27 149 19 91 19 95
2 108 -20 14 -44 17 -59 5 -6 -4 -23 -39 -38 -79 -59 -152 -162 -240 -322
-276 -166 -36 -397 22 -512 130 -70 65 -67 21 -63 1017 l0 108 208 -5 c198 -5
267 -10 322 -23 14 -3 36 -8 50 -11 39 -8 67 -40 81 -91 39 -141 95 -206 139
-162 11 11 20 34 21 53 0 45 7 106 25 227 23 154 22 149 30 227 l6 72 -28 7
c-28 7 -39 4 -191 -59 l-82 -34 -293 1 -293 1 -1 511 -1 511 41 2 c23 1 138 3
256 4 199 1 219 -1 274 -21 112 -42 153 -93 178 -222 l13 -65 35 0 c46 0 51
11 94 221 44 213 53 289 36 309 -16 20 -50 19 -79 -1z"/>
<path d="M728 11745 c-2 -1 -43 -6 -93 -10 -49 -4 -103 -9 -120 -11 -87 -13
-326 -11 -404 3 -74 13 -85 13 -98 0 -9 -9 -12 -23 -9 -34 12 -37 62 -62 152
-78 94 -16 119 -31 141 -82 18 -45 19 -2356 0 -2418 -17 -58 -65 -99 -151
-132 -68 -25 -75 -30 -71 -52 2 -13 8 -28 13 -33 5 -5 186 -11 403 -14 217 -2
466 -5 554 -7 183 -3 250 4 355 40 359 122 599 438 598 788 0 215 -73 396
-221 547 -95 98 -201 166 -365 234 -22 9 -22 9 15 50 239 258 326 465 291 690
-18 116 -92 236 -203 327 -78 65 -218 136 -290 148 -5 1 -20 5 -33 10 -13 5
-35 11 -50 14 -15 2 -49 9 -76 14 -43 8 -330 13 -338 6z m306 -176 c128 -43
222 -138 273 -274 27 -72 34 -109 38 -205 9 -230 -65 -384 -227 -470 -35 -19
-65 -33 -68 -32 -3 1 -21 -3 -40 -8 -46 -11 -117 -20 -211 -24 l-76 -4 1 506
1 507 50 11 c80 18 194 15 259 -7z m2 -1230 c79 -18 204 -83 277 -144 188
-155 299 -392 292 -618 -4 -109 -18 -167 -62 -257 -102 -203 -316 -317 -519
-274 -130 27 -242 102 -285 190 -22 46 -22 50 -23 586 l-1 540 136 -6 c75 -3
159 -10 185 -17z"/>
<path d="M9557 11741 c-29 -8 -37 -33 -20 -62 18 -31 50 -44 123 -54 113 -15
138 -31 160 -97 16 -52 17 -2375 0 -2436 -13 -49 -64 -95 -124 -111 -22 -6
-60 -15 -83 -21 -36 -9 -43 -15 -43 -35 0 -13 5 -27 11 -30 18 -12 204 -18
499 -18 379 1 489 6 501 24 24 39 1 57 -71 56 -152 -3 -233 58 -259 193 -12
64 -15 1200 -4 1201 11 0 1451 1 1493 0 l35 -1 -1 -567 c-1 -313 -4 -587 -7
-610 -10 -65 -48 -155 -78 -185 -30 -31 -70 -36 -113 -16 -22 9 -29 8 -46 -7
-39 -35 -21 -56 63 -75 25 -5 67 -12 94 -16 67 -8 819 -8 832 0 42 27 -34 90
-120 101 -30 4 -69 9 -88 11 -59 7 -74 33 -113 199 -15 62 -20 2256 -6 2319
13 60 50 93 132 117 102 31 116 37 123 55 12 31 -19 43 -122 49 -276 15 -807
22 -843 11 -24 -8 -29 -35 -12 -66 12 -22 56 -35 145 -45 103 -11 140 -43 153
-130 4 -28 7 -250 7 -495 l0 -445 -759 -3 c-460 -1 -762 2 -765 7 -4 5 -6 218
-6 473 0 447 1 464 21 498 29 50 89 88 163 103 68 14 95 38 70 63 -21 20 -150
30 -490 40 -291 8 -436 10 -452 5z"/>
<path d="M20203 11742 c-51 -7 -31 -85 24 -95 15 -3 38 -7 49 -10 12 -3 38 -8
58 -11 53 -9 91 -31 118 -68 l23 -33 0 -1190 0 -1190 -27 -55 c-31 -63 -83
-101 -166 -123 -62 -15 -76 -28 -67 -56 5 -16 14 -21 43 -21 83 0 410 -10 447
-14 22 -3 81 -7 130 -11 50 -4 108 -8 130 -10 121 -9 345 -18 445 -18 907 1
1470 388 1615 1106 48 242 52 639 8 812 -37 146 -146 323 -290 471 -233 239
-587 435 -905 500 -123 26 -416 25 -783 -3 -114 -8 -364 -8 -475 0 -47 4 -132
10 -190 13 -58 3 -118 6 -135 7 -16 1 -40 1 -52 -1z m1232 -197 c86 -8 138
-15 155 -20 8 -2 31 -7 50 -10 108 -18 460 -168 460 -197 0 -4 5 -8 11 -8 31
0 223 -182 296 -281 110 -149 194 -353 228 -554 27 -159 27 -409 0 -550 -84
-440 -362 -734 -800 -845 -152 -39 -209 -45 -410 -45 -190 0 -266 9 -356 40
-129 46 -159 90 -175 255 -2 25 -5 522 -5 1105 l-1 1060 50 17 c65 22 90 27
192 34 47 4 86 8 88 9 4 3 154 -3 217 -10z"/>
<path d="M17204 11702 c-28 -30 -34 -44 -35 -82 0 -25 -1 -596 -2 -1270 l-2
-1225 -23 -43 c-29 -54 -90 -98 -161 -118 -73 -19 -105 -36 -109 -56 -5 -27
35 -40 121 -39 45 0 190 2 322 3 132 2 295 1 363 -2 68 -3 132 -2 143 2 57 21
-20 84 -137 111 -180 43 -203 86 -209 397 -2 107 -7 255 -9 327 -15 366 -18
434 -22 513 -9 156 -13 765 -6 783 8 18 37 -10 188 -183 21 -25 44 -50 49 -56
6 -6 42 -46 80 -89 39 -43 86 -95 105 -116 19 -21 67 -73 105 -115 39 -43 94
-106 124 -139 30 -33 95 -105 145 -159 50 -54 99 -108 109 -120 298 -343 1094
-1123 1206 -1180 29 -15 32 -15 51 4 12 12 20 35 21 58 1 20 3 46 4 57 2 18
10 151 20 340 13 232 17 454 15 885 -3 1015 -3 1276 4 1298 8 25 42 45 125 73
79 28 100 43 96 74 -1 15 -7 31 -13 37 -8 8 -142 10 -429 9 -460 -1 -467 -2
-421 -55 19 -23 41 -31 117 -47 51 -10 105 -26 120 -35 39 -23 69 -71 80 -129
5 -27 12 -246 16 -485 3 -239 8 -505 11 -590 8 -253 11 -811 3 -815 -3 -3 -23
15 -44 38 -21 23 -61 67 -89 97 -262 285 -263 286 -401 436 -92 100 -135 145
-315 338 -36 38 -72 77 -80 86 -13 14 -108 114 -355 375 -529 556 -800 831
-826 838 -15 4 -30 -5 -55 -31z"/>
<path d="M28385 11734 c-5 -2 -113 -5 -238 -6 -240 -3 -251 -5 -240 -50 10
-34 55 -49 193 -63 30 -3 60 -11 68 -17 20 -17 39 -58 46 -103 4 -22 9 -431
11 -910 3 -836 3 -874 -16 -965 -31 -145 -115 -300 -211 -385 -95 -85 -240
-159 -368 -187 -141 -31 -371 -17 -480 29 -143 60 -225 117 -302 210 -78 94
-145 240 -164 358 -8 49 -11 1191 -4 1592 5 274 6 293 26 320 25 35 95 71 154
79 58 8 80 20 80 44 0 38 -41 45 -270 42 -80 -1 -269 -4 -420 -6 -151 -1 -281
-4 -287 -4 -19 -3 -16 -47 5 -65 21 -19 79 -34 157 -42 92 -9 117 -31 131
-120 4 -27 7 -404 7 -837 0 -433 4 -811 8 -840 5 -29 11 -71 14 -93 23 -155
147 -379 297 -535 102 -108 213 -188 348 -253 166 -81 320 -115 510 -115 201
0 334 30 499 110 305 150 531 461 586 808 4 25 10 54 13 65 3 11 7 389 8 840
2 451 6 839 9 862 9 63 57 105 149 134 76 24 89 36 76 74 -5 15 -17 21 -46 22
-88 5 -340 9 -349 7z"/>
<path d="M29264 11730 c-12 -5 -32 -25 -44 -45 l-23 -38 -2 -1261 c0 -693 -5
-1270 -9 -1281 -32 -73 -101 -124 -208 -150 -66 -17 -83 -31 -72 -60 9 -21 47
-29 134 -27 208 5 569 6 678 2 130 -5 152 -1 152 30 0 24 -76 64 -157 84 -180
42 -204 89 -208 406 -2 107 -6 258 -9 335 -3 77 -9 205 -12 285 -3 80 -8 186
-10 235 -8 168 -14 720 -7 749 l6 28 26 -28 c42 -46 269 -297 304 -338 27 -31
160 -178 177 -196 8 -9 49 -54 90 -100 41 -47 82 -92 90 -100 8 -8 53 -57 100
-109 47 -52 96 -107 110 -121 14 -14 68 -73 120 -130 305 -333 707 -730 975
-964 111 -96 148 -114 173 -83 12 14 22 132 37 432 13 255 15 368 14 915 -1
983 1 1282 11 1300 9 17 92 58 132 65 11 2 34 13 51 23 27 15 32 24 30 51 -1
19 -4 36 -7 39 -3 3 -196 4 -428 3 -386 -1 -424 -3 -436 -18 -10 -15 -9 -21
11 -41 20 -20 78 -38 181 -55 41 -7 92 -47 113 -87 29 -57 31 -84 38 -585 4
-225 8 -459 11 -520 7 -188 12 -840 7 -848 -5 -9 -42 28 -183 182 -47 52 -96
106 -110 121 -14 15 -62 67 -106 116 -45 49 -97 105 -115 125 -19 20 -61 65
-93 100 -51 55 -221 237 -336 359 -19 21 -64 69 -100 107 -36 38 -144 152
-240 252 -96 101 -193 203 -215 226 -22 23 -145 151 -274 283 -128 133 -248
257 -265 275 -46 49 -77 67 -102 57z"/>
<path d="M13563 8175 c-558 -144 -789 -442 -778 -1000 2 -104 7 -143 24 -195
110 -314 372 -573 691 -681 87 -29 106 -32 220 -32 105 0 141 4 224 27 371
100 631 308 727 582 35 101 47 185 44 321 -11 511 -304 906 -740 999 -16 3
-86 8 -155 10 -116 3 -134 1 -257 -31z m342 -128 c114 -33 215 -95 306 -189
236 -244 320 -688 194 -1024 -105 -280 -333 -442 -621 -442 -275 0 -506 164
-642 457 -34 74 -74 214 -87 306 -8 55 -8 248 -1 274 3 9 7 34 11 56 9 63 59
200 96 263 19 31 68 91 110 134 60 60 95 85 160 116 46 22 109 45 139 51 30 6
64 13 75 15 42 8 212 -3 260 -17z"/>
<path d="M21515 8189 c-140 -16 -237 -46 -337 -102 -229 -130 -285 -342 -147
-557 54 -86 123 -164 243 -280 264 -254 340 -341 388 -448 27 -60 30 -74 25
-134 -5 -54 -12 -77 -37 -113 -103 -149 -323 -194 -485 -99 -82 48 -138 140
-135 224 3 68 2 70 -24 70 -28 0 -27 1 -56 -127 -32 -147 -24 -205 35 -266 91
-94 281 -118 476 -61 191 56 375 207 430 354 41 106 32 240 -22 345 -57 110
-122 181 -315 346 -141 121 -170 147 -212 189 -51 52 -103 129 -120 179 -7 19
-12 61 -12 95 0 152 120 269 274 269 151 0 256 -82 279 -219 6 -35 17 -66 24
-68 49 -19 73 51 80 226 5 125 4 137 -13 146 -52 27 -232 44 -339 31z"/>
<path d="M15911 8166 c-5 -12 -13 -52 -16 -91 -3 -38 -8 -81 -10 -95 -2 -14
-6 -56 -10 -95 -3 -38 -8 -81 -10 -95 -4 -26 -12 -108 -20 -200 -3 -30 -7 -71
-9 -90 -3 -19 -7 -62 -11 -95 -3 -33 -8 -71 -10 -85 -2 -14 -6 -56 -10 -93 -3
-37 -8 -76 -10 -85 -1 -9 -6 -55 -10 -102 -4 -47 -8 -87 -10 -90 -2 -3 -6 -39
-10 -80 -3 -41 -8 -82 -10 -90 -2 -8 -7 -40 -10 -70 -3 -30 -9 -68 -11 -85 -3
-16 -7 -46 -9 -65 -15 -126 -43 -199 -78 -201 -16 -1 -57 -8 -85 -14 -39 -9
-23 -39 23 -45 32 -4 318 -4 483 -1 24 1 32 5 32 19 0 13 -20 27 -70 48 -113
47 -105 30 -104 222 0 156 9 319 19 367 4 18 8 55 20 175 3 25 7 55 10 68 3
12 8 44 11 70 3 26 7 58 9 72 3 14 8 52 11 85 4 33 8 67 10 75 1 8 3 26 3 40
1 18 15 -3 46 -68 25 -52 45 -96 45 -98 0 -2 48 -109 107 -236 181 -396 271
-567 389 -738 57 -82 81 -104 102 -91 10 6 91 170 194 391 177 381 406 848
420 856 4 3 9 -13 9 -35 1 -23 2 -44 3 -48 1 -5 6 -42 10 -83 5 -41 10 -82 11
-91 2 -9 6 -40 10 -70 3 -30 8 -70 10 -89 39 -296 59 -673 43 -769 -5 -27 -4
-49 2 -56 12 -15 106 -18 391 -16 132 1 137 2 142 23 4 12 5 23 3 25 -1 2 -43
13 -91 25 -145 35 -175 82 -210 328 -3 25 -8 56 -10 70 -2 14 -6 50 -10 80 -3
30 -8 71 -10 90 -21 183 -24 221 -40 425 -7 89 -15 179 -20 215 -2 19 -7 63
-10 98 -4 35 -8 71 -10 80 -1 9 -6 51 -9 92 -4 41 -9 86 -11 100 -3 14 -7 45
-10 70 -3 25 -7 68 -11 95 -5 44 -23 75 -45 75 -28 0 -198 -342 -486 -975 -71
-157 -111 -242 -188 -400 l-63 -130 -60 125 c-137 289 -173 362 -339 699 -235
477 -349 678 -386 678 -8 0 -20 -10 -26 -21z"/>
<path d="M19911 8161 c-8 -5 -229 -9 -504 -9 -517 0 -539 -2 -489 -43 13 -10
54 -28 92 -39 58 -17 70 -25 83 -53 13 -28 15 -129 14 -792 -2 -711 -3 -762
-20 -793 -21 -39 -71 -72 -110 -72 -28 0 -47 -24 -31 -40 14 -14 174 -19 575
-20 378 0 431 3 448 24 4 6 16 63 25 127 9 64 21 130 25 147 6 20 5 34 -2 41
-17 17 -47 13 -53 -6 -14 -47 -60 -126 -87 -149 -56 -47 -108 -67 -183 -70
-118 -5 -223 31 -285 97 l-37 38 0 335 c-1 251 2 335 11 339 17 6 212 1 282
-7 98 -12 119 -25 139 -88 22 -72 43 -100 69 -96 23 3 27 19 41 143 4 33 10
83 14 110 12 90 9 129 -10 133 -9 2 -49 -11 -89 -29 -72 -31 -73 -31 -243 -31
-94 0 -181 1 -193 1 l-23 1 0 328 0 328 48 1 c268 7 287 6 354 -28 42 -21 74
-74 80 -130 4 -28 9 -35 30 -37 29 -3 37 13 57 118 6 30 14 66 17 80 3 14 8
53 11 88 6 60 5 62 -18 62 -13 0 -30 -4 -38 -9z"/>
<path d="M10018 8152 c-20 -4 -22 -15 -8 -42 9 -17 25 -23 93 -34 50 -8 64
-16 78 -43 21 -39 21 -1567 0 -1606 -18 -34 -79 -63 -139 -66 -8 -1 -12 -10
-10 -23 2 -18 10 -24 33 -25 48 -4 568 -4 585 0 64 13 43 43 -36 50 -73 5
-106 23 -131 70 -16 29 -18 72 -21 430 l-3 397 495 0 495 0 -2 -392 c-2 -378
-3 -395 -23 -439 -26 -57 -37 -64 -94 -64 -60 0 -68 -27 -13 -46 57 -20 618
-20 618 0 0 31 -69 59 -147 61 -26 0 -45 37 -61 114 -12 57 -14 205 -14 784 0
393 2 723 5 734 6 26 68 65 115 74 39 7 57 28 40 45 -12 12 -129 19 -396 23
-166 2 -212 0 -223 -11 -23 -23 0 -52 46 -58 155 -20 145 6 145 -384 l0 -316
-490 0 -490 0 -1 295 c-1 225 1 303 11 327 16 38 64 71 118 79 27 5 37 12 37
25 0 10 -8 20 -17 23 -38 11 -555 27 -595 18z"/>
<path d="M2910 6963 l0 -91 3078 1 3077 2 3 88 3 87 -53 1 c-29 0 -1415 1
-3080 2 l-3028 2 0 -92z"/>
<path d="M22886 7050 l-39 -5 0 -85 1 -85 3080 -2 3080 -1 0 89 0 89 -51 1
c-342 3 -6042 3 -6071 -1z"/>
<path d="M13675 5295 c-233 -41 -386 -242 -370 -487 17 -252 200 -426 449
-426 88 0 129 9 205 46 228 110 314 414 183 655 -56 104 -191 196 -312 212
-30 4 -62 8 -70 10 -8 1 -47 -3 -85 -10z m204 -157 c134 -50 209 -211 175
-374 -22 -106 -65 -163 -154 -210 -49 -26 -65 -29 -146 -29 -81 0 -97 3 -149
30 -68 35 -126 103 -145 171 -13 46 -17 149 -8 199 20 106 107 199 213 226 54
13 160 7 214 -13z"/>
<path d="M3203 5292 c-36 -3 -43 -7 -44 -25 -1 -28 -1 -848 0 -864 1 -10 67
-13 296 -13 l295 0 1 25 c3 82 1 97 -8 103 -6 4 -108 6 -227 6 l-216 -1 -2
385 -3 385 -25 1 c-14 1 -44 0 -67 -2z"/>
<path d="M4905 5290 c-1 -3 -2 -206 -2 -452 l0 -448 68 0 c38 0 69 3 70 8 4
37 3 876 -2 883 -6 10 -129 18 -134 9z"/>
<path d="M6894 5255 c-9 -22 -24 -58 -34 -80 -9 -22 -66 -158 -125 -303 -59
-145 -111 -259 -115 -255 -10 12 -270 650 -270 662 0 7 -31 11 -85 11 -78 0
-84 -1 -76 -17 13 -24 23 -49 151 -358 61 -148 119 -288 129 -310 10 -22 33
-80 52 -128 l34 -88 69 3 70 3 78 190 c43 105 87 210 98 235 46 105 190 461
190 467 0 5 -34 8 -75 8 l-74 0 -17 -40z"/>
<path d="M8194 5291 c-2 -2 -4 -206 -4 -453 l0 -448 295 0 295 0 1 25 c2 78 2
96 -4 102 -4 3 -106 6 -227 6 l-221 0 3 131 3 131 197 0 c222 -1 208 -6 198
84 l-5 43 -197 0 -198 0 0 124 0 124 225 0 c173 0 225 3 226 13 4 43 4 75 -1
96 l-6 24 -288 1 c-158 0 -290 -1 -292 -3z"/>
<path d="M11443 5292 c-29 -2 -53 -5 -53 -7 0 -2 40 -61 88 -132 180 -262 228
-333 247 -367 19 -31 21 -51 20 -215 l-1 -181 72 0 71 0 1 186 1 187 112 166
c205 302 221 326 237 344 14 16 10 17 -79 17 l-94 0 -119 -180 c-65 -99 -122
-183 -127 -185 -10 -7 -16 2 -146 200 -116 178 -110 174 -230 167z"/>
<path d="M15360 5292 l-25 -3 1 -267 c1 -147 4 -291 8 -320 14 -116 106 -240
215 -291 49 -22 69 -26 156 -26 90 0 106 3 156 29 77 38 143 106 182 185 l32
66 3 315 3 316 -68 -4 c-37 -2 -69 -5 -71 -7 -2 -1 -4 -133 -6 -291 -2 -311
-3 -313 -59 -387 -98 -128 -301 -104 -377 44 -27 52 -28 66 -29 366 l-1 271
-47 4 c-27 1 -59 2 -73 0z"/>
<path d="M17278 5292 l-48 -3 0 -450 0 -449 73 0 73 0 -1 178 0 177 90 0 90 0
87 -177 88 -178 80 0 79 0 -96 191 c-85 172 -93 193 -78 202 37 21 97 82 118
121 31 59 31 184 0 242 -29 55 -94 109 -154 129 -46 16 -274 25 -401 17z m370
-159 c103 -53 85 -201 -28 -234 -19 -6 -82 -9 -140 -7 l-104 3 -1 125 c-1 69
3 128 7 131 5 3 58 5 119 3 84 -2 118 -7 147 -21z"/>
<path d="M20509 5248 c0 -27 -1 -229 -1 -450 l-1 -403 157 -3 c229 -4 323 26
432 136 172 175 171 451 -1 626 -105 106 -195 136 -423 139 l-162 2 -1 -47z
m351 -109 c219 -59 293 -352 132 -518 -70 -72 -168 -101 -319 -92 l-22 1 1
308 c0 169 2 310 4 313 5 10 155 1 204 -12z"/>
<path d="M22406 5290 l-39 -5 1 -420 c0 -231 1 -432 1 -447 1 -28 1 -28 71
-28 55 0 70 3 71 15 0 8 0 89 1 180 l0 165 89 0 89 0 87 -180 88 -180 77 0
c43 0 78 2 78 5 0 3 -43 90 -95 195 -85 170 -93 189 -76 195 32 10 108 90 126
131 11 24 17 66 18 109 0 122 -56 202 -172 246 -45 16 -81 20 -215 22 -89 1
-179 0 -200 -3z m370 -153 c93 -48 106 -154 27 -214 -35 -27 -42 -28 -165 -32
l-128 -3 1 123 c1 68 4 129 6 135 6 17 224 9 259 -9z"/>
<path d="M24171 5290 c-4 -3 -7 -206 -6 -452 l0 -448 298 0 298 0 -3 67 -3 67
-222 -1 -222 0 -3 128 c-2 80 1 130 7 132 6 2 97 3 203 2 l192 -1 0 66 0 65
-199 -2 -200 -1 -3 76 c-2 43 -2 98 0 125 l3 47 225 0 224 0 0 65 0 65 -57 1
c-370 3 -526 3 -532 -1z"/>
<path d="M26250 5275 c-4 -11 -69 -166 -143 -345 -181 -438 -217 -525 -217
-534 0 -4 35 -6 77 -4 l76 3 47 115 48 115 187 0 187 0 48 -115 47 -115 76 -3
c79 -3 86 1 67 36 -5 9 -73 172 -150 362 -78 190 -147 359 -155 375 -7 17 -23
51 -34 78 -13 30 -26 47 -38 48 -10 0 -40 1 -67 2 -40 2 -50 -1 -56 -18z m143
-360 c32 -78 57 -143 57 -146 0 -3 -56 -6 -125 -6 -87 0 -125 4 -125 12 0 6
11 35 25 63 14 29 25 55 25 58 0 18 74 174 80 167 4 -4 32 -71 63 -148z"/>
<path d="M27890 4843 l0 -453 70 0 70 0 2 256 3 257 65 -149 c36 -82 85 -196
110 -254 l46 -105 67 -3 67 -3 19 43 c10 24 27 63 39 88 11 25 52 119 92 210
39 90 73 166 75 168 2 2 3 -103 3 -234 0 -132 0 -247 1 -256 1 -15 11 -18 71
-18 l70 0 0 450 c0 421 -1 450 -17 451 -27 2 -116 -1 -119 -4 -1 -1 -68 -155
-149 -342 -80 -186 -147 -340 -149 -342 -1 -2 -17 32 -36 75 -18 42 -43 100
-55 127 -12 28 -41 95 -65 150 -23 55 -54 126 -68 157 -14 31 -37 85 -51 119
l-26 61 -68 2 -67 1 0 -452z"/>
</g>
</svg>
