<?xml version="1.0" standalone="no"?>
<!DOCTYPE svg PUBLIC "-//W3C//DTD SVG 20010904//EN"
 "http://www.w3.org/TR/2001/REC-SVG-20010904/DTD/svg10.dtd">
<svg version="1.0" xmlns="http://www.w3.org/2000/svg"
 width="300.000000pt" height="300.000000pt" viewBox="0 0 300.000000 300.000000"
 preserveAspectRatio="xMidYMid meet">
<metadata>
Created by potrace 1.11, written by Peter Selinger 2001-2013
</metadata>
<g transform="translate(0.000000,300.000000) scale(0.100000,-0.100000)"
fill="#000000" stroke="none">
<path d="M1525 2868 c-33 -27 -71 -60 -85 -72 -14 -12 -108 -91 -210 -176
-208 -174 -237 -199 -260 -220 -8 -8 -54 -46 -100 -84 -47 -38 -89 -74 -95
-80 -5 -6 -77 -67 -160 -136 -82 -68 -155 -130 -162 -136 -7 -7 -71 -60 -143
-120 -126 -104 -159 -135 -102 -98 15 10 101 63 192 119 91 56 188 115 215
132 28 17 166 103 308 190 142 87 306 188 365 224 307 189 293 182 316 170 36
-20 60 -35 142 -87 43 -29 117 -76 164 -106 47 -30 105 -68 130 -84 25 -16 53
-33 63 -39 10 -5 133 -84 275 -175 383 -245 421 -269 493 -317 74 -49 97 -56
47 -16 -37 31 -294 254 -342 298 -6 6 -81 71 -166 145 -85 74 -171 149 -190
166 -56 50 -604 528 -621 541 -12 10 -25 3 -74 -39z"/>
<path d="M1510 2354 c-41 -30 -76 -57 -79 -59 -2 -3 -5 -230 -5 -504 -1 -437
1 -500 14 -503 8 -2 305 -3 660 -3 l645 0 0 190 0 189 -175 113 c-96 62 -256
165 -355 229 -99 63 -280 180 -403 260 -122 79 -224 144 -225 143 -1 0 -36
-25 -77 -55z"/>
<path d="M1130 2156 c-47 -29 -220 -133 -385 -231 -337 -199 -398 -236 -405
-246 -3 -4 -5 -96 -5 -205 l0 -198 430 -1 c237 0 437 1 445 3 14 3 15 60 15
468 0 255 -2 464 -5 463 -3 0 -43 -24 -90 -53z m60 -429 l0 -413 -405 0 c-283
-1 -405 3 -406 10 -7 49 -4 324 4 333 5 7 21 19 36 26 31 16 717 424 746 443
11 8 21 14 22 14 2 0 3 -186 3 -413z"/>
<path d="M1390 1063 c-1 -38 -1 -245 -1 -461 0 -299 -3 -394 -12 -397 -20 -8
-155 -12 -165 -6 -6 4 -10 178 -10 426 0 231 -1 432 -1 448 l-1 27 -420 0
-420 0 -2 -492 c-3 -483 -3 -491 -23 -493 -42 -4 -132 -17 -177 -26 -26 -4
-69 -11 -95 -15 -61 -8 -63 -9 -63 -45 l0 -29 1500 0 1500 0 0 44 c0 40 -3 45
-27 50 -44 9 -162 26 -233 33 -102 10 -127 22 -40 20 l75 -2 0 493 1 492 -693
0 -693 0 0 -67z m1335 15 c5 -5 7 -207 5 -728 l0 -125 -647 1 c-357 1 -650 2
-653 3 -6 1 -2 831 4 846 4 11 1280 14 1291 3z"/>
</g>
</svg>
