<?xml version="1.0" standalone="no"?>
<!DOCTYPE svg PUBLIC "-//W3C//DTD SVG 20010904//EN"
 "http://www.w3.org/TR/2001/REC-SVG-20010904/DTD/svg10.dtd">
<svg version="1.0" xmlns="http://www.w3.org/2000/svg"
 width="16.000000pt" height="16.000000pt" viewBox="0 0 16.000000 16.000000"
 preserveAspectRatio="xMidYMid meet">
<metadata>
Created by potrace 1.11, written by Peter Selinger 2001-2013
</metadata>
<g transform="translate(0.000000,16.000000) scale(0.006987,-0.006987)"
fill="#000000" stroke="none">
<path d="M895 2014 c-314 -66 -549 -271 -645 -564 -34 -104 -33 -100 -20 -100
5 0 7 6 5 13 -2 6 15 47 38 91 33 62 49 82 76 92 29 12 32 12 27 -1 -3 -8 -2
-15 3 -15 4 0 14 18 21 41 12 34 16 38 25 26 11 -15 38 -18 50 -5 3 3 7 16 8
29 2 13 11 39 21 58 10 18 13 30 7 27 -17 -11 -13 10 4 24 20 16 20 44 0 36
-13 -5 -13 -2 1 19 9 14 23 25 30 25 8 0 13 6 11 13 -1 6 5 12 13 13 31 1 63
16 50 24 -8 5 -1 14 23 29 19 11 39 21 44 21 6 0 16 6 22 14 7 8 20 13 29 12
9 -2 22 3 27 9 6 7 30 17 54 23 36 9 48 8 68 -5 13 -9 26 -13 30 -9 3 3 0 6
-8 7 -8 0 6 8 30 17 58 22 65 42 14 41 -21 -1 -47 -3 -58 -5z"/>
<path d="M1350 1971 c0 -5 18 -11 40 -15 22 -3 40 -10 40 -14 0 -5 26 -21 59
-36 51 -23 58 -29 53 -51 -5 -28 -6 -29 -33 -15 -25 14 -44 3 -28 -16 7 -9 8
-14 1 -14 -6 0 -9 -8 -7 -17 2 -10 4 -18 5 -18 1 0 3 -16 4 -36 3 -35 -10 -46
-30 -26 -20 20 -24 3 -6 -27 18 -30 18 -33 3 -29 -10 2 -23 -3 -30 -11 -8 -9
-20 -16 -27 -16 -8 0 -23 -9 -34 -20 -16 -16 -20 -17 -20 -5 0 8 -5 15 -11 15
-6 0 -9 -5 -7 -11 2 -7 -5 -22 -16 -35 -16 -17 -25 -20 -38 -13 -23 12 -23 29
0 26 31 -4 21 18 -16 32 -21 8 -38 18 -40 21 -8 19 -70 -3 -106 -38 -23 -20
-42 -40 -44 -45 -2 -4 -19 -14 -37 -21 -26 -11 -33 -20 -31 -40 1 -21 6 -26
28 -26 21 0 29 -6 34 -25 5 -21 9 -23 25 -14 10 5 19 16 19 23 0 8 7 16 15 20
12 4 13 9 4 24 -10 15 -7 23 15 45 34 34 52 35 30 2 -23 -36 -11 -59 26 -51
17 3 30 1 30 -4 0 -6 -8 -10 -17 -10 -9 0 -31 -16 -48 -36 -26 -30 -38 -36
-76 -37 -42 -2 -44 -1 -43 26 1 22 -2 25 -12 16 -8 -6 -14 -19 -14 -29 0 -18
-25 -34 -40 -25 -5 3 -29 -6 -55 -19 -25 -14 -54 -23 -63 -20 -15 5 -15 4 -1
-8 8 -7 18 -23 21 -35 7 -28 -19 -38 -56 -22 -31 15 -41 7 -51 -38 -6 -29 -4
-32 30 -43 34 -11 39 -10 93 25 74 50 102 52 147 9 19 -18 35 -40 35 -50 0
-10 3 -14 7 -10 16 16 9 40 -20 67 -18 15 -26 29 -19 29 17 0 82 -43 82 -55 1
-18 39 -57 50 -50 8 5 8 11 0 20 -8 10 -6 15 8 20 11 3 24 5 28 4 5 -1 16 -1
24 0 12 1 12 3 2 9 -17 11 25 65 44 58 15 -6 43 34 168 240 60 99 67 114 56
134 -10 18 -9 21 2 17 7 -2 12 -10 11 -16 -2 -6 0 -11 5 -11 7 0 25 30 38 63
13 34 27 24 211 -161 73 -72 133 -126 133 -120 0 26 -67 165 -107 223 -80 118
-228 243 -347 295 -55 23 -96 32 -96 21z"/>
<path d="M783 1935 c-12 -9 -26 -15 -30 -14 -24 4 -43 -3 -43 -16 0 -8 5 -15
10 -15 6 0 10 3 10 8 0 9 76 9 86 -1 4 -4 -4 -7 -17 -7 -33 0 -53 -15 -46 -34
4 -9 -4 -24 -21 -38 -15 -13 -29 -27 -30 -33 -1 -5 -8 -10 -14 -10 -7 -1 -12
-6 -10 -13 1 -7 -8 -16 -21 -21 -30 -12 -57 -53 -57 -86 0 -31 8 -31 49 -1 18
14 39 22 47 19 8 -3 22 -2 32 2 9 4 33 7 53 6 31 -2 42 4 85 49 27 28 65 63
84 77 19 14 27 23 18 20 -10 -4 -20 -2 -23 3 -3 5 1 10 10 12 27 6 -2 32 -38
33 -42 2 -58 11 -50 30 14 38 -43 58 -84 30z"/>
<path d="M660 1882 c-9 -9 -22 -30 -30 -46 -8 -16 -23 -31 -32 -34 -10 -2 -18
-9 -18 -14 0 -6 -7 -5 -15 2 -12 10 -15 10 -15 -1 0 -8 -3 -25 -6 -39 -4 -20
-3 -22 5 -10 6 8 11 11 11 5 0 -5 7 -1 15 9 8 11 15 15 15 8 0 -6 7 -9 15 -6
8 4 15 12 15 19 0 7 14 27 30 45 17 18 30 38 30 46 0 8 5 14 10 14 6 0 10 5
10 10 0 15 -23 11 -40 -8z"/>
<path d="M1405 1851 c3 -6 17 -10 30 -9 29 3 23 11 -11 16 -16 2 -23 -1 -19
-7z"/>
<path d="M1090 1762 c0 -7 4 -10 10 -7 5 3 7 0 4 -8 -4 -11 2 -15 20 -13 16 0
21 5 15 11 -14 14 -11 25 5 19 8 -3 17 0 21 6 5 7 -6 10 -34 9 -27 -2 -41 -8
-41 -17z"/>
<path d="M1357 1742 c-30 -33 -16 -82 23 -82 10 0 11 3 4 8 -22 14 -27 53 -8
73 9 10 13 19 7 19 -5 0 -17 -8 -26 -18z"/>
<path d="M1499 1528 c-132 -215 -276 -428 -309 -458 -3 -3 -30 -36 -60 -75
-90 -114 -99 -125 -230 -256 -197 -196 -351 -289 -490 -295 -84 -3 -140 22
-185 85 -55 76 -69 179 -39 293 7 27 8 50 4 53 -14 8 -40 -128 -40 -208 0 -84
21 -164 58 -223 29 -47 111 -110 179 -137 62 -25 181 -30 263 -11 179 41 417
215 616 449 32 38 72 85 89 103 91 103 281 353 299 395 3 7 37 -21 80 -66 244
-255 350 -559 225 -648 -37 -26 -120 -31 -213 -12 -47 10 -72 11 -79 4 -13
-13 -3 -17 83 -35 250 -53 405 67 395 306 -9 237 -143 467 -443 764 -57 57
-108 104 -113 104 -4 0 -45 -60 -90 -132z"/>
<path d="M779 1622 c5 -19 14 -27 31 -27 29 0 39 23 13 31 -10 3 -25 9 -34 14
-15 8 -16 5 -10 -18z"/>
<path d="M441 1561 c-10 -7 -11 -13 -2 -30 15 -28 17 -27 17 9 0 17 0 30 0 30
-1 0 -7 -4 -15 -9z"/>
<path d="M871 1482 c-6 -11 -6 -24 1 -36 6 -10 6 -21 2 -25 -5 -3 -14 -13 -21
-21 -10 -14 -7 -16 23 -18 48 -4 58 5 40 33 -9 13 -17 37 -18 54 -3 35 -13 40
-27 13z"/>
<path d="M810 1430 c-9 -17 -8 -20 7 -20 10 0 24 9 31 20 11 17 10 20 -8 20
-10 0 -24 -9 -30 -20z"/>
<path d="M216 1323 c-6 -14 -5 -15 5 -6 7 7 10 15 7 18 -3 3 -9 -2 -12 -12z"/>
<path d="M231 1284 c0 -11 3 -14 6 -6 3 7 2 16 -1 19 -3 4 -6 -2 -5 -13z"/>
<path d="M985 1250 c-3 -5 -1 -10 4 -10 6 0 11 5 11 10 0 6 -2 10 -4 10 -3 0
-8 -4 -11 -10z"/>
<path d="M980 1220 c0 -5 5 -10 10 -10 6 0 10 5 10 10 0 6 -4 10 -10 10 -5 0
-10 -4 -10 -10z"/>
<path d="M199 1200 c-11 -152 26 -311 108 -460 46 -85 82 -129 146 -181 57
-47 34 -16 -40 54 -24 21 -40 43 -38 47 3 5 1 11 -5 15 -14 9 -1 28 14 22 9
-4 13 7 13 36 0 22 5 43 11 45 28 9 9 51 -51 113 -42 43 -63 74 -65 92 -1 15
-13 52 -27 81 -14 29 -25 58 -25 65 0 6 -4 19 -9 29 -5 9 -14 28 -19 42 l-11
25 -2 -25z"/>
<path d="M757 1173 c-15 -7 -27 -20 -27 -28 0 -8 -15 -21 -32 -28 -44 -19 -71
-50 -70 -84 0 -15 -5 -36 -10 -46 -7 -13 -2 -33 16 -73 30 -66 60 -82 167 -89
39 -2 81 -7 92 -11 22 -7 30 0 165 166 42 52 83 101 90 108 6 7 12 18 12 23 0
15 -30 10 -36 -6 -8 -20 -16 -19 -75 6 -43 19 -48 24 -43 45 5 20 2 24 -17 24
-13 0 -65 2 -115 4 -64 3 -98 0 -117 -11z"/>
<path d="M1030 1186 c0 -2 7 -6 15 -10 8 -3 15 -1 15 4 0 6 -7 10 -15 10 -8 0
-15 -2 -15 -4z"/>
<path d="M1638 1136 c-16 -24 -28 -46 -28 -49 0 -4 16 -4 35 -1 26 4 38 1 52
-15 12 -15 20 -17 29 -10 10 8 15 0 22 -33 8 -40 7 -45 -19 -68 -29 -27 -62
-84 -53 -93 3 -3 1 -22 -6 -41 -9 -29 -9 -38 2 -49 15 -14 27 -15 45 -4 22 14
52 16 60 4 4 -6 6 -29 4 -50 -1 -22 1 -37 6 -34 16 10 63 82 68 103 2 10 8 33
13 49 14 46 6 80 -30 132 -54 79 -157 203 -168 203 -3 0 -17 -20 -32 -44z"/>
<path d="M1505 963 c-146 -182 -251 -301 -351 -400 -57 -56 -104 -109 -104
-119 0 -15 8 -16 72 -11 66 6 71 5 48 -8 -64 -36 -130 -52 -130 -32 0 7 -7 4
-14 -6 -13 -17 -15 -17 -29 3 l-15 22 -44 -28 c-43 -28 -68 -52 -68 -65 0 -12
106 -30 183 -31 109 -2 175 8 252 37 74 27 134 80 115 99 -6 6 -10 20 -10 32
0 25 -22 36 -85 39 -22 2 -43 3 -46 4 -4 1 -6 11 -5 23 1 15 14 28 41 42 39
21 40 23 40 71 0 31 7 60 17 75 25 36 86 82 93 70 12 -19 27 -10 21 13 -3 14
1 32 9 43 8 10 15 27 15 37 0 15 -3 16 -20 7 -16 -8 -20 -8 -20 4 0 8 22 30
50 50 49 35 86 88 75 106 -11 18 -19 11 -90 -77z"/>
<path d="M1635 749 c-9 -14 -2 -20 14 -10 8 6 9 11 3 15 -6 3 -14 1 -17 -5z"/>
<path d="M1443 609 c-6 -6 -21 -16 -34 -23 -12 -6 -21 -15 -20 -19 1 -4 -5
-15 -14 -23 -17 -17 -12 -34 10 -34 14 0 85 85 85 101 0 12 -14 11 -27 -2z"/>
</g>
</svg>
