<?xml version="1.0" standalone="no"?>
<!DOCTYPE svg PUBLIC "-//W3C//DTD SVG 20010904//EN"
 "http://www.w3.org/TR/2001/REC-SVG-20010904/DTD/svg10.dtd">
<svg version="1.0" xmlns="http://www.w3.org/2000/svg"
 width="300.000000pt" height="300.000000pt" viewBox="0 0 300.000000 300.000000"
 preserveAspectRatio="xMidYMid meet">
<metadata>
Created by potrace 1.11, written by Peter Selinger 2001-2013
</metadata>
<g transform="translate(0.000000,300.000000) scale(0.100000,-0.100000)"
fill="#000000" stroke="none">
<path d="M1015 2174 c-171 -169 -469 -463 -662 -655 l-353 -349 176 0 176 0
33 33 c257 256 1108 1093 1113 1094 4 2 263 -251 577 -562 l570 -565 177 0
178 0 -438 434 c-240 239 -538 533 -661 655 l-223 221 -177 0 -176 0 -310
-306z"/>
<path d="M1243 1822 c-51 -2 -63 -6 -64 -20 -1 -19 -1 -219 0 -239 1 -10 35
-13 135 -13 l133 0 1 135 1 135 -27 1 c-15 0 -47 1 -72 2 -25 1 -73 1 -107 -1z"/>
<path d="M1559 1818 c-1 -2 -2 -63 -3 -135 l-2 -133 136 0 135 0 0 135 0 135
-132 0 c-73 0 -134 -1 -134 -2z"/>
<path d="M1179 1440 c-1 -22 -1 -222 0 -242 1 -14 18 -16 135 -17 l134 -2 1
136 c1 104 -1 135 -11 136 -7 1 -68 2 -135 3 -103 1 -123 -1 -124 -14z"/>
<path d="M1573 1450 c-17 -5 -18 -17 -18 -135 l0 -130 135 -3 135 -3 0 136 c0
74 -2 135 -5 136 -19 4 -232 3 -247 -1z"/>
</g>
</svg>
