<?xml version="1.0" standalone="no"?>
<!DOCTYPE svg PUBLIC "-//W3C//DTD SVG 20010904//EN"
 "http://www.w3.org/TR/2001/REC-SVG-20010904/DTD/svg10.dtd">
<svg version="1.0" xmlns="http://www.w3.org/2000/svg"
 width="300.000000pt" height="300.000000pt" viewBox="0 0 300.000000 300.000000"
 preserveAspectRatio="xMidYMid meet">
<metadata>
Created by potrace 1.11, written by Peter Selinger 2001-2013
</metadata>
<g transform="translate(0.000000,300.000000) scale(0.100000,-0.100000)"
fill="#000000" stroke="none">
<path d="M20 1495 l0 -996 137 3 138 3 -1 230 0 230 98 100 c58 59 101 95 106
90 5 -6 69 -155 142 -333 l134 -322 138 0 c76 0 138 2 138 4 0 4 -23 60 -45
111 -7 17 -79 190 -159 385 -81 195 -150 362 -155 370 -6 11 9 36 57 90 36 41
71 80 76 85 6 6 33 36 60 68 27 31 51 57 55 57 3 0 12 -12 18 -27 7 -16 100
-235 208 -488 108 -253 203 -473 210 -490 7 -16 26 -61 41 -98 l29 -68 54 3
54 3 110 265 c60 146 117 283 126 305 10 22 44 104 76 183 52 125 75 166 75
132 0 -8 227 -554 260 -625 5 -11 32 -74 59 -140 l50 -120 53 -3 53 -3 286
668 c158 367 285 670 284 671 -2 2 -63 5 -136 5 -122 2 -133 1 -144 -18 -13
-20 -40 -83 -151 -345 -31 -74 -64 -153 -74 -175 -10 -22 -39 -91 -66 -152
-42 -100 -64 -135 -64 -102 0 10 -289 720 -312 767 -7 13 -21 22 -35 23 -13 0
-55 1 -95 2 l-72 0 -37 -84 c-20 -46 -97 -229 -170 -406 -73 -177 -134 -321
-135 -320 -1 1 -74 173 -163 382 -190 448 -180 425 -203 426 -10 0 -85 1 -168
1 -82 0 -157 -1 -165 -1 -8 -1 -121 -109 -252 -241 -130 -132 -239 -240 -243
-240 -3 0 -5 249 -5 553 1 303 -1 558 -3 565 -3 9 -40 12 -138 12 l-134 0 0
-995z"/>
</g>
</svg>
