<?xml version="1.0" standalone="no"?>
<!DOCTYPE svg PUBLIC "-//W3C//DTD SVG 20010904//EN"
 "http://www.w3.org/TR/2001/REC-SVG-20010904/DTD/svg10.dtd">
<svg version="1.0" xmlns="http://www.w3.org/2000/svg"
 width="16.000000pt" height="16.000000pt" viewBox="0 0 16.000000 16.000000"
 preserveAspectRatio="xMidYMid meet">
<metadata>
Created by potrace 1.11, written by Peter Selinger 2001-2013
</metadata>
<g transform="translate(0.000000,16.000000) scale(0.005536,-0.005536)"
fill="#000000" stroke="none">
<path d="M476 2088 c-100 -420 -157 -657 -255 -1063 -22 -88 -50 -205 -62
-260 -13 -55 -28 -103 -34 -107 -5 -4 115 -8 267 -8 218 0 276 3 273 13 -3 6
2 50 10 97 8 47 17 112 20 144 4 33 8 63 11 68 3 4 90 8 193 8 l188 0 14 -98
14 -97 254 -3 c171 -1 257 1 261 8 4 6 -8 66 -26 133 -18 67 -115 458 -215
870 l-183 747 -311 0 -311 0 -108 -452z m484 -349 c33 -205 62 -384 65 -396
l5 -23 -141 0 c-109 0 -140 3 -137 13 3 6 36 186 74 399 37 213 69 386 71 385
1 -2 30 -172 63 -378z"/>
<path d="M1370 2236 c0 -9 33 -150 74 -313 41 -164 111 -449 156 -633 44 -184
87 -361 96 -393 8 -31 12 -62 9 -67 -3 -6 -1 -10 4 -10 6 0 11 -9 11 -20 0
-19 7 -20 105 -20 l105 0 0 196 0 196 88 -4 c53 -3 99 -11 118 -20 42 -23 83
-85 90 -140 8 -57 -4 -180 -17 -173 -5 4 -6 0 -3 -8 7 -20 -44 -73 -88 -91
-31 -13 -92 -16 -368 -16 -263 0 -330 -3 -330 -13 0 -7 6 -37 14 -67 8 -30 17
-77 21 -105 4 -27 13 -61 20 -75 7 -14 15 -42 19 -63 l7 -38 427 3 427 4 75
27 c88 33 175 79 175 94 0 6 12 23 27 37 14 15 38 52 53 83 45 96 59 167 60
303 0 134 -14 191 -69 278 -31 49 -113 122 -137 122 -11 0 -19 4 -19 9 0 5
-21 14 -47 21 l-48 12 45 16 c66 23 161 120 189 195 45 123 49 270 10 390 -48
143 -140 229 -296 274 -50 14 -127 17 -530 21 -423 3 -473 2 -473 -12z m771
-395 c62 -66 73 -172 25 -257 -30 -54 -74 -74 -163 -74 l-73 0 0 185 0 185 87
0 86 0 38 -39z"/>
<path d="M300 190 c0 -5 5 -10 10 -10 6 0 10 5 10 10 0 6 -4 10 -10 10 -5 0
-10 -4 -10 -10z"/>
<path d="M2600 110 c0 -5 5 -10 10 -10 6 0 10 5 10 10 0 6 -4 10 -10 10 -5 0
-10 -4 -10 -10z"/>
</g>
</svg>
