<?xml version="1.0" standalone="no"?>
<!DOCTYPE svg PUBLIC "-//W3C//DTD SVG 20010904//EN"
 "http://www.w3.org/TR/2001/REC-SVG-20010904/DTD/svg10.dtd">
<svg version="1.0" xmlns="http://www.w3.org/2000/svg"
 width="16.000000pt" height="16.000000pt" viewBox="0 0 16.000000 16.000000"
 preserveAspectRatio="xMidYMid meet">
<metadata>
Created by potrace 1.11, written by Peter Selinger 2001-2013
</metadata>
<g transform="translate(0.000000,16.000000) scale(0.007207,-0.007207)"
fill="#000000" stroke="none">
<path d="M425 1641 c-2 -1 -21 -5 -42 -8 -61 -7 -113 -23 -113 -34 0 -6 8 -9
18 -8 9 1 36 1 60 0 32 -1 41 -4 36 -13 -5 -9 -2 -9 9 1 14 11 17 11 17 0 0
-11 2 -11 10 1 8 12 10 12 10 1 0 -11 3 -11 17 0 9 8 14 9 10 3 -4 -7 0 -15 9
-18 8 -3 13 -2 10 3 -3 4 13 8 34 8 22 0 40 -3 40 -8 0 -4 10 -5 23 -2 18 4
20 3 7 -7 -13 -10 -12 -11 5 -5 11 4 29 8 40 10 19 4 19 4 2 -9 -17 -13 -16
-14 7 -12 13 0 22 5 19 9 -2 4 8 5 24 2 15 -4 34 -7 41 -7 6 -1 13 -5 13 -10
1 -4 2 -12 3 -17 0 -5 5 -13 10 -18 5 -5 6 -2 1 6 -6 11 -2 13 21 8 l29 -6
-29 13 c-16 7 -24 16 -19 19 6 4 13 3 17 -1 7 -7 11 -8 37 -11 5 0 7 -6 3 -13
-5 -7 -3 -8 7 -2 27 17 40 13 34 -9 -5 -17 -4 -18 4 -8 11 16 54 23 44 8 -4
-6 0 -8 10 -4 9 3 19 2 22 -4 4 -5 10 -7 15 -4 5 3 12 0 16 -6 4 -8 3 -9 -4
-5 -7 4 -12 2 -12 -4 0 -6 -4 -8 -10 -5 -5 3 -10 2 -10 -4 0 -9 -43 -28 -46
-20 -1 2 -11 -5 -23 -15 -12 -11 -21 -16 -21 -12 0 3 -11 -1 -25 -10 -14 -9
-25 -13 -25 -9 0 3 -7 -1 -16 -9 -16 -16 -32 -16 -139 4 -162 30 -374 29 -465
-1 -44 -15 -58 -27 -28 -25 13 1 32 -5 43 -13 19 -15 19 -15 5 3 -9 12 -10 17
-2 12 6 -4 30 -8 52 -8 23 0 37 -4 34 -10 -4 -6 2 -6 13 1 11 6 23 8 26 5 3
-4 26 -6 51 -7 25 0 43 -4 40 -9 -3 -4 0 -8 5 -8 6 0 11 5 11 12 0 6 7 4 18
-5 10 -10 23 -17 28 -17 5 0 2 5 -6 10 -13 8 -12 10 3 10 9 0 17 -5 17 -11 0
-8 4 -8 14 0 11 9 16 9 22 0 4 -8 3 -9 -4 -5 -7 4 -12 2 -12 -3 0 -14 13 -14
26 -1 13 13 74 1 74 -15 0 -17 -27 -38 -39 -31 -5 4 -13 1 -17 -5 -4 -8 -3 -9
4 -5 7 4 12 2 12 -3 0 -6 -5 -11 -11 -11 -6 0 -17 -7 -26 -15 -8 -8 -20 -12
-26 -8 -7 3 -9 3 -5 -2 7 -7 -14 -35 -27 -35 -4 0 -25 -17 -47 -37 -22 -21
-45 -37 -51 -35 -7 2 -9 1 -6 -3 11 -11 -48 -68 -62 -60 -7 5 -10 4 -5 -3 8
-14 -24 -53 -37 -45 -6 3 -7 1 -3 -5 3 -6 -9 -26 -28 -46 -18 -20 -31 -36 -28
-36 3 0 -4 -10 -15 -22 -24 -28 -63 -92 -63 -104 0 -5 5 -1 11 9 6 9 15 14 21
11 6 -4 8 -2 4 4 -6 10 10 27 27 27 4 0 7 5 8 10 2 19 21 34 40 30 11 -2 17 0
14 6 -4 5 -12 6 -18 2 -7 -4 -6 0 2 10 7 9 17 14 22 11 5 -3 8 -2 7 3 -2 4 8
19 21 32 19 19 28 22 41 13 13 -7 17 -7 17 4 0 7 -5 10 -10 7 -5 -3 -8 0 -6 6
3 7 8 11 12 9 3 -2 14 7 22 20 15 21 43 33 30 13 -3 -5 -1 -12 4 -16 6 -3 8 6
5 22 -3 15 -2 25 1 21 4 -3 20 8 36 25 15 18 29 26 29 20 0 -7 -4 -13 -10 -13
-5 0 -10 -4 -10 -10 0 -19 17 -10 29 16 7 16 17 24 26 20 10 -3 12 0 8 11 -4
11 -2 14 5 9 7 -4 12 -2 12 4 0 7 7 9 16 6 10 -4 13 -2 8 6 -5 8 -2 9 11 4 16
-6 16 -4 4 11 -7 10 -9 15 -4 10 4 -4 19 2 31 14 14 13 31 20 43 16 15 -4 18
-1 13 12 -5 14 -4 14 11 2 15 -12 17 -12 11 2 -7 20 26 39 47 26 7 -5 21 -8
29 -8 8 0 4 5 -10 10 -20 8 -22 12 -10 19 19 12 33 13 26 1 -3 -4 7 -6 22 -3
24 5 24 6 7 13 -31 12 -7 10 36 -2 21 -7 36 -15 34 -19 -3 -5 2 -10 10 -13 10
-4 12 -1 8 11 -6 14 -4 15 9 5 8 -7 18 -10 21 -6 4 3 7 1 7 -5 0 -7 -5 -12
-12 -12 -6 0 -8 -3 -5 -6 4 -4 13 -1 22 6 12 10 18 10 30 0 8 -7 15 -9 15 -5
0 4 6 2 13 -4 8 -6 16 -9 19 -6 2 3 5 -2 5 -10 0 -8 -4 -12 -8 -9 -4 2 -10 0
-14 -6 -4 -6 -11 -8 -16 -5 -5 4 -9 1 -9 -5 0 -6 -4 -9 -9 -5 -5 3 -13 0 -16
-5 -7 -12 -44 -28 -58 -26 -5 0 -13 -7 -18 -17 -6 -9 -14 -15 -20 -12 -5 4 -9
1 -9 -5 0 -7 -7 -9 -16 -6 -8 3 -13 2 -10 -3 3 -4 -7 -14 -22 -22 -15 -8 -29
-16 -32 -19 -17 -17 -97 -64 -105 -61 -5 1 -7 -1 -3 -4 4 -4 -16 -26 -45 -49
-29 -22 -64 -53 -78 -68 -15 -15 -29 -24 -33 -21 -3 3 -6 1 -6 -6 0 -7 -17
-29 -37 -50 -21 -21 -47 -50 -58 -66 -11 -15 -27 -36 -36 -45 -8 -9 -19 -24
-22 -34 -4 -10 -12 -14 -18 -10 -8 4 -9 3 -5 -4 4 -6 -1 -23 -10 -37 -27 -42
-9 -29 67 49 40 41 77 72 81 70 5 -3 5 -10 2 -16 -4 -6 -2 -8 4 -4 6 3 9 15 7
25 -3 14 5 22 26 30 16 5 29 13 29 16 0 3 -5 3 -12 -1 -7 -5 -8 -3 -4 5 5 7
11 10 14 7 3 -3 12 4 20 15 12 17 16 18 23 8 6 -10 9 -8 9 9 0 13 6 22 15 22
9 0 18 7 22 16 3 9 13 14 24 11 11 -3 22 0 26 5 3 7 1 8 -5 4 -7 -4 -12 -2
-12 5 0 6 8 9 20 6 11 -3 18 -1 14 4 -11 18 7 31 24 17 13 -11 15 -11 10 3 -4
11 8 24 43 45 27 15 49 32 49 37 0 4 4 5 10 2 6 -3 0 -16 -13 -28 -13 -12 -16
-16 -7 -9 9 6 20 9 23 5 7 -6 11 11 8 36 -2 7 2 10 8 6 6 -3 14 1 17 9 3 9 11
16 16 16 6 0 5 -7 -2 -15 -7 -9 -10 -18 -6 -22 3 -3 6 -1 6 6 0 7 5 9 12 5 6
-4 8 -3 4 4 -8 13 33 54 46 46 4 -3 8 1 8 8 0 9 3 9 10 -2 8 -13 10 -13 10 2
0 9 4 19 8 22 13 8 11 -27 -2 -44 -10 -13 -9 -13 7 -1 9 7 17 19 16 25 -4 32
-2 34 55 39 17 1 21 5 15 13 -7 8 -5 12 3 11 34 -1 49 4 42 14 -4 8 1 9 16 4
13 -4 20 -3 17 2 -4 5 0 10 9 10 10 0 13 -7 9 -21 -5 -17 -3 -16 9 4 9 14 15
19 16 11 0 -8 3 -11 7 -8 3 4 12 2 20 -4 7 -6 13 -8 13 -3 1 5 8 -2 16 -16 8
-14 13 -17 10 -8 -4 15 0 15 37 -4 23 -12 50 -28 60 -36 9 -8 17 -12 17 -8 0
4 9 2 20 -4 16 -9 18 -15 10 -30 -7 -13 -7 -21 2 -26 6 -4 8 -3 5 2 -8 14 9
38 22 30 6 -4 8 -13 4 -19 -4 -7 1 -6 11 2 15 12 17 12 14 0 -2 -8 -10 -20
-18 -27 -13 -11 -11 -11 8 -2 12 6 22 15 22 21 0 6 5 7 10 4 8 -5 8 -11 0 -20
-8 -10 -8 -15 1 -21 8 -4 9 -3 5 4 -5 8 0 12 13 12 11 0 25 -8 30 -17 6 -10
11 -14 11 -10 0 13 40 -13 40 -26 0 -8 -3 -8 -9 1 -6 11 -10 10 -15 -4 -4 -10
-4 -15 0 -11 4 4 12 -1 19 -10 9 -13 14 -13 20 -3 5 9 4 11 -3 6 -7 -4 -12 -3
-12 3 0 18 20 23 26 7 3 -9 10 -13 15 -10 5 3 9 -5 9 -18 0 -18 2 -20 10 -8 7
12 12 12 29 -4 21 -19 29 -42 11 -31 -6 3 -7 -1 -4 -10 6 -14 7 -14 18 0 11
15 14 14 31 -5 19 -21 19 -21 -1 -14 -15 5 -16 4 -4 -4 8 -6 18 -8 22 -6 4 3
18 -2 30 -11 l23 -17 -22 7 c-13 3 -23 3 -23 -2 0 -5 12 -10 26 -11 29 -2 114
-68 114 -88 0 -7 5 -16 12 -20 7 -5 8 -2 3 7 -4 8 1 5 12 -6 11 -11 18 -24 15
-29 -3 -5 0 -6 5 -3 12 8 46 -27 36 -36 -3 -4 0 -7 7 -7 7 0 19 -8 27 -17 8
-10 4 2 -8 27 -12 25 -28 53 -37 63 -8 9 -12 17 -9 17 6 0 -1 7 -108 121 -33
35 -59 67 -57 71 1 5 -4 7 -11 5 -6 -1 -11 4 -9 11 1 8 -1 11 -6 8 -5 -3 -30
14 -55 38 -26 24 -47 41 -47 39 0 -3 -11 5 -43 33 -7 5 -26 19 -44 29 -18 10
-29 23 -26 28 3 6 1 7 -5 3 -10 -6 -86 34 -102 53 -3 3 -9 7 -15 8 -5 1 -30
12 -55 25 -34 17 -44 28 -42 43 4 20 3 20 -11 1 -10 -14 -16 -16 -21 -7 -11
17 -2 24 28 24 14 0 24 3 21 7 -2 3 2 7 11 7 9 0 13 -7 9 -21 -3 -12 -2 -15 1
-8 3 6 9 10 14 7 4 -3 6 4 3 15 -4 14 0 20 13 22 34 2 39 3 52 12 8 4 24 1 40
-10 l27 -17 -20 22 c-14 16 -15 22 -5 19 8 -2 20 -12 27 -23 7 -11 12 -14 13
-7 0 14 36 16 45 2 4 -6 12 -7 18 -3 7 4 6 -1 -2 -11 -12 -15 -12 -17 0 -14 8
2 13 -2 12 -9 -2 -7 4 -10 13 -6 13 5 13 7 2 14 -7 5 -8 9 -3 9 6 0 22 -11 37
-24 14 -14 28 -22 32 -19 3 3 8 -2 12 -11 3 -9 15 -16 25 -16 10 0 19 -3 19
-7 0 -5 14 -16 31 -25 17 -10 28 -22 25 -27 -6 -9 44 -51 61 -51 4 0 -7 10
-25 21 -18 12 -31 24 -28 26 7 7 66 -36 66 -48 0 -5 7 -9 15 -9 9 0 19 -8 22
-17 4 -10 13 -22 20 -26 7 -5 10 -13 7 -19 -5 -7 -2 -8 5 -4 9 6 8 13 -6 29
-10 13 -3 9 19 -8 32 -26 53 -56 29 -41 -11 7 -8 -20 3 -31 4 -4 6 -1 4 7 -5
25 25 17 39 -10 7 -14 13 -21 13 -17 0 4 17 -9 38 -29 20 -20 35 -41 34 -48
-2 -6 0 -8 3 -4 4 4 16 -3 26 -15 35 -41 10 12 -37 79 -24 34 -40 65 -36 69 4
5 1 5 -5 1 -7 -4 -13 -3 -13 1 0 10 -106 120 -167 175 -23 20 -38 39 -35 43 4
4 2 5 -3 4 -16 -5 -65 32 -58 45 3 6 3 8 -2 4 -7 -7 -118 62 -129 80 -2 4 6 8
19 8 13 0 21 -4 19 -8 -3 -4 0 -8 6 -8 6 0 8 -5 4 -12 -4 -6 -3 -8 4 -5 5 4 8
15 5 25 -3 15 1 18 19 17 13 -1 31 2 41 7 10 5 17 5 17 -1 0 -5 -6 -11 -12
-14 -7 -2 -10 -8 -5 -13 4 -4 14 2 22 13 15 21 70 40 58 19 -5 -8 -3 -8 8 0 8
6 28 10 44 9 17 -1 34 1 39 3 8 5 98 12 179 15 33 1 35 12 5 22 -92 29 -286
36 -421 15 -38 -5 -73 -8 -78 -4 -5 3 -9 1 -9 -4 0 -12 -69 -23 -97 -16 -13 4
-20 11 -16 17 3 6 1 7 -5 3 -6 -4 -22 -1 -34 6 -13 7 -25 13 -28 13 -28 5 -50
19 -51 33 0 10 -3 12 -6 5 -3 -9 -15 -7 -44 7 -21 11 -39 22 -39 23 0 2 12 3
28 2 15 0 30 4 34 9 4 6 13 5 22 -4 14 -11 16 -10 10 6 -4 10 -4 16 1 12 4 -4
15 -2 23 5 13 9 14 9 8 0 -10 -17 9 -16 23 1 12 14 59 15 82 0 12 -7 12 -5 1
9 -12 14 -11 16 7 12 11 -2 23 0 26 5 3 4 21 7 40 6 19 -2 35 1 35 6 0 5 5 6
10 3 8 -5 7 -12 -2 -23 -12 -16 -11 -16 6 -2 11 8 20 13 22 10 1 -3 6 -1 11 4
5 5 3 6 -4 2 -7 -4 -13 -2 -13 5 0 7 10 9 25 7 14 -3 25 -1 25 3 0 5 4 9 10 9
5 0 7 -6 5 -13 -4 -8 5 -13 26 -13 20 -1 27 1 18 6 -7 5 -17 6 -21 4 -4 -3 -8
0 -8 6 0 8 9 10 25 6 17 -4 25 -2 25 6 0 9 3 8 10 -2 5 -8 10 -10 10 -5 0 6 5
3 10 -5 8 -13 10 -12 10 3 0 20 11 22 29 5 11 -10 13 -10 7 0 -4 6 -3 12 3 12
5 0 12 -8 14 -17 4 -16 5 -16 6 1 1 14 7 17 26 14 14 -3 25 -1 25 4 0 4 11 6
25 2 15 -4 25 -2 25 4 0 10 -22 20 -59 27 -9 2 -18 4 -21 5 -3 1 -13 2 -22 1
-10 -1 -18 1 -18 6 0 4 -63 8 -139 8 -77 0 -137 -3 -134 -7 2 -5 -11 -8 -29
-9 -18 0 -40 -2 -48 -4 -46 -11 -98 -19 -122 -19 -14 -1 -24 -4 -22 -7 2 -4
-24 -12 -59 -19 -70 -15 -66 -14 -89 -24 -9 -4 -22 -4 -29 0 -8 5 -9 3 -4 -6
6 -10 4 -12 -8 -7 -9 3 -19 2 -22 -3 -4 -6 -11 -10 -16 -10 -6 0 -7 5 -3 12 4
6 3 8 -3 5 -8 -5 -89 13 -133 30 -19 7 -19 7 -110 26 -100 21 -125 25 -190 33
-60 7 -230 11 -235 5z m689 -203 c-4 -5 0 -9 7 -7 31 4 49 -2 49 -16 0 -8 5
-15 11 -15 5 0 7 4 4 10 -6 9 4 8 43 -7 9 -3 19 -7 22 -8 24 -7 60 -30 60 -37
0 -5 4 -7 9 -3 5 3 13 1 16 -5 4 -6 3 -9 -2 -8 -4 1 -18 -3 -31 -10 -12 -7
-35 -14 -51 -15 -16 -1 -27 -4 -25 -7 3 -2 -23 -14 -58 -26 -58 -20 -64 -20
-82 -5 -14 11 -17 12 -11 2 6 -11 4 -13 -11 -6 -10 4 -50 19 -89 32 -38 14
-75 29 -81 34 -6 5 -14 6 -17 2 -4 -3 -7 -3 -7 0 0 4 11 14 24 22 20 14 29 14
48 4 21 -11 22 -11 9 4 -15 19 -2 24 16 6 8 -8 13 -7 18 2 6 8 4 10 -5 4 -8
-5 -11 -3 -8 5 2 7 12 14 22 16 10 1 20 5 23 8 3 3 14 1 23 -4 14 -7 17 -6 16
8 -1 12 5 16 23 14 13 -2 21 0 18 6 -4 5 0 9 8 9 8 0 12 -4 9 -9z m366 -152
c0 -3 -4 -8 -10 -11 -5 -3 -10 -1 -10 4 0 6 5 11 10 11 6 0 10 -2 10 -4z"/>
<path d="M1096 1422 c-3 -5 1 -9 9 -9 8 0 12 4 9 9 -3 4 -7 8 -9 8 -2 0 -6 -4
-9 -8z"/>
<path d="M1016 1395 c-9 -26 -7 -32 5 -12 6 10 9 21 6 23 -2 3 -7 -2 -11 -11z"/>
<path d="M1230 1380 c6 -11 13 -20 16 -20 2 0 0 9 -6 20 -6 11 -13 20 -16 20
-2 0 0 -9 6 -20z"/>
<path d="M1256 1377 c3 -10 9 -15 12 -12 3 3 0 11 -7 18 -10 9 -11 8 -5 -6z"/>
<path d="M910 1359 c0 -5 -5 -7 -12 -3 -7 4 -8 3 -4 -5 4 -6 11 -9 16 -6 4 3
10 -1 13 -7 3 -7 4 -3 4 10 -1 21 -17 33 -17 11z"/>
<path d="M1286 1356 c5 -13 4 -17 -4 -12 -7 4 -12 2 -12 -3 0 -14 17 -14 26 0
3 6 1 16 -5 22 -9 9 -10 7 -5 -7z"/>
<path d="M496 1562 c-2 -4 0 -14 6 -22 8 -12 9 -12 5 2 -3 9 -1 19 6 22 9 3 9
5 0 5 -6 1 -14 -3 -17 -7z"/>
<path d="M1513 1530 c5 -29 13 -33 13 -5 0 14 -4 25 -8 25 -4 0 -7 -9 -5 -20z"/>
<path d="M1546 1542 c-3 -5 1 -9 9 -9 8 0 12 4 9 9 -3 4 -7 8 -9 8 -2 0 -6 -4
-9 -8z"/>
<path d="M695 1520 c3 -5 8 -10 11 -10 2 0 4 5 4 10 0 6 -5 10 -11 10 -5 0 -7
-4 -4 -10z"/>
<path d="M1396 1522 c-2 -4 9 -8 25 -8 33 -2 33 4 1 11 -12 2 -24 1 -26 -3z"/>
<path d="M867 1499 c7 -7 15 -10 18 -7 3 3 -2 9 -12 12 -14 6 -15 5 -6 -5z"/>
<path d="M900 1480 c-6 -11 -8 -20 -6 -20 3 0 10 9 16 20 6 11 8 20 6 20 -3 0
-10 -9 -16 -20z"/>
<path d="M1284 1478 c10 -6 22 -6 26 -2 5 5 -3 10 -18 11 -22 1 -24 0 -8 -9z"/>
<path d="M295 1340 c3 -5 8 -10 11 -10 2 0 4 5 4 10 0 6 -5 10 -11 10 -5 0 -7
-4 -4 -10z"/>
<path d="M1846 1342 c-3 -5 1 -9 9 -9 8 0 12 4 9 9 -3 4 -7 8 -9 8 -2 0 -6 -4
-9 -8z"/>
<path d="M1758 1333 c7 -3 16 -2 19 1 4 3 -2 6 -13 5 -11 0 -14 -3 -6 -6z"/>
<path d="M415 1320 c3 -5 8 -10 11 -10 2 0 4 5 4 10 0 6 -5 10 -11 10 -5 0 -7
-4 -4 -10z"/>
<path d="M534 1321 c3 -5 16 -11 28 -14 22 -6 22 -5 4 8 -22 17 -40 20 -32 6z"/>
<path d="M1675 1320 c-3 -5 -1 -10 4 -10 6 0 11 5 11 10 0 6 -2 10 -4 10 -3 0
-8 -4 -11 -10z"/>
<path d="M476 1307 c3 -10 9 -15 12 -12 3 3 0 11 -7 18 -10 9 -11 8 -5 -6z"/>
<path d="M790 1259 c0 -5 5 -7 10 -4 6 3 10 8 10 11 0 2 -4 4 -10 4 -5 0 -10
-5 -10 -11z"/>
<path d="M1390 1260 c0 -6 4 -9 9 -6 5 4 12 1 14 -4 3 -6 4 -5 3 2 -3 15 -26
23 -26 8z"/>
<path d="M1340 1250 c-9 -6 -10 -10 -3 -10 6 0 15 5 18 10 8 12 4 12 -15 0z"/>
<path d="M1497 1253 c-4 -3 -7 -11 -7 -17 0 -6 5 -5 12 2 6 6 9 14 7 17 -3 3
-9 2 -12 -2z"/>
<path d="M670 1229 c0 -5 5 -7 10 -4 6 3 10 8 10 11 0 2 -4 4 -10 4 -5 0 -10
-5 -10 -11z"/>
<path d="M910 1225 c0 -8 4 -15 10 -15 5 0 7 7 4 15 -4 8 -8 15 -10 15 -2 0
-4 -7 -4 -15z"/>
<path d="M940 1220 c0 -5 5 -10 11 -10 5 0 7 5 4 10 -3 6 -8 10 -11 10 -2 0
-4 -4 -4 -10z"/>
<path d="M583 1188 c-11 -19 -13 -39 -1 -32 5 3 7 9 4 12 -3 3 -1 11 5 19 6 7
9 13 6 13 -3 0 -9 -6 -14 -12z"/>
<path d="M1615 1180 c-3 -5 -1 -10 4 -10 6 0 11 5 11 10 0 6 -2 10 -4 10 -3 0
-8 -4 -11 -10z"/>
<path d="M1660 1151 c0 -6 4 -13 10 -16 6 -3 7 1 4 9 -7 18 -14 21 -14 7z"/>
<path d="M1073 1125 c0 -8 4 -12 9 -9 5 3 6 10 3 15 -9 13 -12 11 -12 -6z"/>
<path d="M1693 1127 c0 -8 6 -14 14 -14 9 0 10 4 2 14 -6 7 -12 13 -14 13 -1
0 -2 -6 -2 -13z"/>
<path d="M1155 1120 c-3 -5 -1 -10 4 -10 6 0 11 5 11 10 0 6 -2 10 -4 10 -3 0
-8 -4 -11 -10z"/>
<path d="M1216 1107 c3 -10 9 -15 12 -12 3 3 0 11 -7 18 -10 9 -11 8 -5 -6z"/>
<path d="M976 1102 c-3 -4 4 -9 15 -9 23 -2 25 3 4 10 -8 4 -16 3 -19 -1z"/>
<path d="M1270 1080 c0 -5 5 -10 11 -10 5 0 7 5 4 10 -3 6 -8 10 -11 10 -2 0
-4 -4 -4 -10z"/>
<path d="M410 1060 c0 -5 5 -10 11 -10 5 0 7 5 4 10 -3 6 -8 10 -11 10 -2 0
-4 -4 -4 -10z"/>
<path d="M1299 1053 c-12 -16 -12 -17 2 -6 9 7 20 9 24 5 5 -4 5 -1 1 6 -9 16
-11 15 -27 -5z"/>
<path d="M860 1038 c-10 -21 -10 -21 3 -6 8 10 18 14 22 10 5 -4 5 -1 1 6 -10
17 -14 15 -26 -10z"/>
<path d="M353 1005 c0 -8 4 -12 9 -9 5 3 6 10 3 15 -9 13 -12 11 -12 -6z"/>
<path d="M1475 960 c-3 -5 -1 -10 4 -10 6 0 11 5 11 10 0 6 -2 10 -4 10 -3 0
-8 -4 -11 -10z"/>
<path d="M275 941 c-3 -5 -2 -12 3 -15 5 -3 9 1 9 9 0 17 -3 19 -12 6z"/>
<path d="M1587 886 c-4 -10 -1 -13 8 -9 8 3 12 9 9 14 -7 12 -11 11 -17 -5z"/>
<path d="M1987 879 c7 -7 15 -10 18 -7 3 3 -2 9 -12 12 -14 6 -15 5 -6 -5z"/>
<path d="M576 855 c-9 -26 -7 -32 5 -12 6 10 9 21 6 23 -2 3 -7 -2 -11 -11z"/>
<path d="M449 743 c-13 -16 -12 -17 4 -4 9 7 17 15 17 17 0 8 -8 3 -21 -13z"/>
<path d="M1760 740 c-9 -6 -10 -10 -3 -10 6 0 15 5 18 10 8 12 4 12 -15 0z"/>
<path d="M1790 731 c0 -5 7 -12 16 -15 14 -5 15 -4 4 9 -14 17 -20 19 -20 6z"/>
</g>
</svg>
