<?xml version="1.0" standalone="no"?>
<!DOCTYPE svg PUBLIC "-//W3C//DTD SVG 20010904//EN"
 "http://www.w3.org/TR/2001/REC-SVG-20010904/DTD/svg10.dtd">
<svg version="1.0" xmlns="http://www.w3.org/2000/svg"
 width="300.000000pt" height="300.000000pt" viewBox="0 0 300.000000 300.000000"
 preserveAspectRatio="xMidYMid meet">
<metadata>
Created by potrace 1.11, written by Peter Selinger 2001-2013
</metadata>
<g transform="translate(0.000000,300.000000) scale(0.100000,-0.100000)"
fill="#000000" stroke="none">
<path d="M308 2911 c-144 -46 -250 -155 -292 -302 -15 -50 -16 -166 -14 -1125
l3 -1069 23 -57 c44 -110 140 -206 249 -250 l58 -23 1165 0 1165 0 55 22 c111
46 207 142 253 253 l22 55 3 1071 c2 1154 4 1112 -49 1215 -51 100 -175 193
-292 219 -31 7 -424 10 -1170 9 -1052 0 -1126 -1 -1179 -18z m1440 -350 c9 -1
12 -47 12 -196 0 -149 -3 -195 -12 -196 -7 0 -128 -1 -268 -1 l-255 -1 1 -301
c1 -165 2 -306 3 -311 1 -7 93 -10 266 -10 l265 0 0 -211 0 -212 -302 2 c-331
3 -358 7 -483 68 -183 90 -317 265 -374 490 -101 391 196 840 577 875 31 3 58
6 59 7 1 1 488 -2 511 -3z m389 -527 c180 -45 277 -166 268 -331 -2 -38 -6
-79 -9 -92 -22 -100 -77 -190 -146 -240 l-40 -29 42 -25 c97 -57 157 -138 182
-247 49 -212 -51 -359 -294 -431 -70 -20 -99 -22 -437 -26 l-363 -5 0 200 0
199 233 1 c127 0 248 1 267 1 l36 1 0 320 0 320 -36 1 c-19 0 -140 1 -267 1
l-233 1 0 198 c0 122 4 199 10 201 5 2 170 2 366 1 290 -2 368 -5 421 -19z"/>
</g>
</svg>
