<?xml version="1.0" standalone="no"?>
<!DOCTYPE svg PUBLIC "-//W3C//DTD SVG 20010904//EN"
 "http://www.w3.org/TR/2001/REC-SVG-20010904/DTD/svg10.dtd">
<svg version="1.0" xmlns="http://www.w3.org/2000/svg"
 width="300.000000pt" height="300.000000pt" viewBox="0 0 300.000000 300.000000"
 preserveAspectRatio="xMidYMid meet">
<metadata>
Created by potrace 1.11, written by Peter Selinger 2001-2013
</metadata>
<g transform="translate(0.000000,300.000000) scale(0.100000,-0.100000)"
fill="#000000" stroke="none">
<path d="M1448 2716 c-57 -53 -165 -155 -428 -406 -36 -34 -137 -131 -225
-215 -88 -84 -185 -177 -216 -206 l-57 -54 2 -754 1 -754 48 -1 47 -1 0 735 0
736 63 58 c34 32 105 99 157 149 53 51 183 175 290 277 107 102 234 223 283
270 49 47 93 85 98 85 7 0 121 -105 308 -285 42 -40 181 -173 485 -462 l98
-94 2 -734 1 -734 28 1 c15 1 36 1 47 2 19 1 19 13 19 755 l0 754 -141 133
c-78 74 -162 154 -187 177 -25 24 -89 85 -141 135 -53 51 -180 173 -284 272
-104 99 -199 190 -211 201 l-22 22 -65 -62z"/>
</g>
</svg>
