<?xml version="1.0" standalone="no"?>
<!DOCTYPE svg PUBLIC "-//W3C//DTD SVG 20010904//EN"
 "http://www.w3.org/TR/2001/REC-SVG-20010904/DTD/svg10.dtd">
<svg version="1.0" xmlns="http://www.w3.org/2000/svg"
 width="16.000000pt" height="16.000000pt" viewBox="0 0 16.000000 16.000000"
 preserveAspectRatio="xMidYMid meet">
<metadata>
Created by potrace 1.11, written by Peter Selinger 2001-2013
</metadata>
<g transform="translate(0.000000,16.000000) scale(0.007619,-0.007619)"
fill="#000000" stroke="none">
<path d="M796 1998 c-31 -47 -32 -101 -3 -160 18 -37 27 -74 29 -120 2 -38 3
-68 1 -68 -2 0 -17 25 -34 56 -37 65 -62 84 -121 91 l-43 5 32 -21 c36 -23 48
-55 40 -107 -8 -48 -1 -62 43 -84 38 -19 54 -48 40 -71 -7 -10 -16 -10 -48 -1
-31 9 -48 25 -81 71 -55 80 -78 96 -176 126 -60 18 -90 33 -106 53 l-22 27 6
-38 c8 -53 34 -85 118 -142 44 -30 87 -70 108 -100 l35 -50 -37 35 c-33 30
-45 35 -113 41 -41 4 -82 13 -90 19 -8 7 -14 8 -14 3 0 -20 59 -64 135 -101
49 -24 89 -52 103 -71 12 -17 37 -38 55 -48 l32 -17 -50 -12 c-84 -20 -128
-17 -197 16 -61 29 -66 30 -159 24 -78 -5 -103 -4 -129 9 l-32 16 7 -27 c16
-67 69 -102 154 -102 33 0 67 -8 94 -22 23 -12 69 -24 102 -28 l60 -7 -80 -2
c-88 -2 -147 -22 -191 -66 -31 -31 -26 -44 8 -21 31 22 68 20 157 -9 42 -13
102 -29 134 -35 107 -21 57 -52 -87 -55 l-101 -2 -88 -50 c-93 -54 -169 -79
-215 -70 l-27 5 23 -19 c13 -10 42 -24 65 -30 35 -9 50 -7 116 15 61 20 93 25
161 23 69 -1 93 2 127 19 23 12 40 17 37 12 -3 -5 -39 -24 -78 -42 -73 -34
-116 -68 -116 -94 0 -11 3 -10 16 2 12 12 34 16 83 15 78 -2 97 6 135 56 22
28 34 35 54 33 72 -8 20 -123 -78 -173 -77 -39 -104 -68 -135 -144 -29 -74
-86 -151 -111 -151 -8 0 -14 -4 -14 -10 0 -13 8 -13 62 4 72 21 132 69 177
140 38 61 80 96 114 96 8 0 27 10 43 22 l29 23 -25 -40 c-20 -31 -25 -53 -25
-102 0 -35 3 -63 7 -63 13 0 47 51 53 80 6 29 56 80 78 80 6 0 21 10 34 22
l23 21 2 -34 c3 -68 -5 -94 -43 -158 -44 -73 -47 -100 -23 -201 18 -79 20
-140 5 -168 -14 -27 -1 -29 35 -5 41 27 67 89 60 142 -21 143 -21 148 11 178
17 15 49 40 71 55 34 22 41 33 44 65 2 22 7 -3 12 -62 9 -108 19 -137 62 -175
l28 -25 -17 27 c-24 38 -21 69 10 146 17 40 28 86 28 115 l0 48 23 -26 c26
-31 27 -45 8 -145 -8 -41 -12 -87 -9 -102 3 -14 27 -52 55 -85 64 -75 81 -108
73 -142 l-6 -26 22 22 c37 36 37 105 0 183 -36 75 -37 95 -15 208 16 80 16 83
-5 139 l-22 57 23 -21 c13 -11 37 -28 55 -37 22 -11 43 -37 68 -85 20 -39 48
-77 62 -86 29 -20 39 -14 24 13 -6 12 -11 42 -11 68 0 62 -32 128 -79 160 -29
21 -31 24 -11 19 38 -11 68 -43 107 -115 51 -91 68 -108 152 -147 41 -19 87
-43 103 -54 15 -11 28 -18 28 -14 0 21 -46 89 -77 112 -102 78 -123 105 -144
183 -24 91 -41 117 -82 135 -18 8 -27 14 -20 15 21 0 66 -20 133 -60 79 -47
138 -65 177 -55 l28 8 -33 9 c-17 5 -47 24 -65 44 -17 19 -67 64 -110 99 -63
52 -74 65 -58 70 24 7 57 -6 144 -58 100 -60 128 -69 212 -61 56 5 78 3 103
-10 39 -20 44 -4 12 36 -25 33 -88 58 -169 68 -47 6 -72 16 -100 38 -20 16
-63 38 -94 48 -68 21 -96 47 -81 72 9 14 33 18 127 22 63 3 119 8 123 13 4 4
-2 7 -13 7 -11 0 -52 12 -89 26 -57 21 -79 25 -124 20 -55 -7 -55 -7 -30 11
20 14 42 18 115 16 110 -3 144 7 215 62 73 56 92 65 137 65 56 1 19 19 -54 26
-50 5 -66 3 -104 -16 -39 -21 -59 -23 -186 -24 -127 -2 -141 0 -129 14 8 8 22
32 33 53 10 21 41 55 68 75 35 26 51 46 53 65 l3 27 -29 -29 c-26 -27 -112
-61 -151 -61 -9 0 -31 -9 -48 -20 -18 -11 -33 -16 -33 -11 0 15 35 40 91 65
66 29 67 31 119 133 22 45 54 93 71 107 26 23 28 27 13 33 -23 9 -100 -13
-136 -39 -16 -11 -48 -43 -70 -72 -46 -59 -71 -75 -113 -76 -62 0 -74 54 -23
107 34 35 39 73 17 115 -13 22 -13 22 -17 3 -6 -27 -20 -44 -65 -72 -26 -17
-45 -40 -62 -78 -26 -60 -33 -64 -58 -37 -31 34 -21 73 37 146 29 35 31 43 28
107 -1 39 3 79 9 90 14 27 7 32 -31 24 -42 -9 -79 -67 -96 -150 -28 -132 -62
-171 -110 -123 -23 22 -23 26 -12 81 14 64 8 80 -33 106 -18 11 -21 11 -11 1
16 -19 15 -43 -5 -100 -15 -42 -15 -54 -4 -103 17 -70 9 -107 -23 -107 -46 0
-61 33 -61 135 l0 94 -57 53 c-35 32 -59 65 -63 83 -4 17 -8 34 -9 40 -1 5
-10 -3 -20 -17z m304 -617 c175 -55 326 -197 347 -324 4 -27 1 -39 -17 -57
-33 -33 -131 -25 -225 17 -38 17 -87 34 -107 38 -52 8 -98 62 -98 115 0 77 33
117 108 130 l37 6 -40 12 c-22 7 -66 12 -97 12 -47 0 -59 -4 -72 -22 -9 -12
-16 -32 -16 -43 0 -44 48 -121 113 -182 75 -69 123 -100 235 -149 95 -42 74
-44 -46 -5 -121 40 -176 69 -264 140 -101 81 -158 168 -158 239 0 33 32 79 64
93 32 14 163 3 236 -20z"/>
<path d="M1234 1244 c5 -10 11 -28 14 -39 2 -11 15 -34 28 -52 30 -39 31 -52
3 -27 -20 18 -21 18 -40 -6 -10 -14 -19 -31 -19 -38 0 -30 122 -56 147 -31 26
26 -39 141 -109 191 -29 20 -31 21 -24 2z"/>
</g>
</svg>
