<?xml version="1.0" standalone="no"?>
<!DOCTYPE svg PUBLIC "-//W3C//DTD SVG 20010904//EN"
 "http://www.w3.org/TR/2001/REC-SVG-20010904/DTD/svg10.dtd">
<svg version="1.0" xmlns="http://www.w3.org/2000/svg"
 width="731.000000pt" height="731.000000pt" viewBox="0 0 731.000000 731.000000"
 preserveAspectRatio="xMidYMid meet">
<metadata>
Created by potrace 1.11, written by Peter Selinger 2001-2013
</metadata>
<g transform="translate(0.000000,731.000000) scale(0.100000,-0.100000)"
fill="#000000" stroke="none">
<path d="M3591 5562 c-18 -20 -89 -95 -156 -167 -67 -71 -156 -165 -196 -208
l-74 -79 -1 -971 c-1 -1242 -2 -1250 -91 -1436 -94 -197 -272 -322 -495 -348
-383 -43 -646 76 -789 359 -28 56 -66 174 -58 182 2 2 23 6 46 9 22 4 52 9 65
11 125 29 129 28 148 -29 16 -47 44 -104 73 -149 22 -35 87 -90 139 -118 97
-51 287 -62 403 -22 168 57 276 209 300 423 5 47 11 1722 6 1808 -1 7 -33 -23
-73 -65 -39 -42 -79 -84 -87 -93 -17 -17 -251 -264 -321 -339 -111 -118 -290
-308 -330 -350 -25 -26 -74 -78 -110 -117 -36 -38 -129 -136 -206 -218 -78
-83 -163 -172 -189 -200 -45 -48 -292 -310 -345 -365 -14 -14 -81 -86 -150
-160 -69 -73 -145 -155 -170 -181 -40 -41 -227 -239 -319 -338 -19 -20 -94
-99 -166 -176 -73 -77 -150 -158 -170 -180 -20 -22 -65 -69 -99 -105 -34 -36
-67 -72 -73 -80 -10 -13 189 -15 1782 -14 l1793 1 37 39 c20 21 94 100 165
174 70 74 147 155 170 180 23 25 69 74 103 109 l62 64 -40 -8 c-70 -13 -223
-13 -293 0 -290 56 -474 281 -476 580 0 110 5 145 31 220 73 203 242 345 454
381 64 11 224 6 293 -10 75 -18 166 -62 209 -102 15 -13 27 -26 27 -28 0 -8
-94 -106 -102 -106 -4 0 -29 15 -55 33 -175 123 -440 98 -577 -54 -144 -161
-161 -411 -39 -595 52 -78 132 -137 232 -169 95 -31 298 -18 381 25 l36 18 -2
154 c-1 84 -2 156 -3 160 0 3 -56 6 -123 6 l-123 -1 -3 71 -3 72 205 0 205 0
0 -187 c-1 -104 0 -192 0 -198 1 -10 6 -5 251 255 245 259 303 320 340 360 36
38 268 284 329 349 19 20 93 98 165 175 72 76 142 150 156 165 14 15 91 97
171 181 81 85 161 171 179 190 18 19 90 96 160 170 71 74 147 155 170 180 44
47 269 285 330 350 19 20 71 75 115 121 273 290 362 384 378 398 9 8 17 19 17
23 0 5 -807 8 -1792 8 l-1793 -1 -34 -37z m472 -467 c72 -9 147 -40 192 -80
l40 -36 -61 -58 -60 -58 -42 37 c-52 46 -113 64 -195 58 -109 -9 -177 -60
-193 -145 -22 -114 56 -187 261 -243 206 -57 297 -150 299 -305 0 -89 -16
-148 -60 -208 -70 -96 -175 -147 -315 -152 -138 -5 -275 38 -345 110 -37 39
-41 50 -20 62 8 4 29 22 48 38 53 49 56 50 90 15 45 -47 127 -82 196 -82 79
-1 110 7 156 39 54 38 78 74 86 126 15 98 -38 150 -210 207 -199 67 -263 108
-316 202 -26 48 -29 62 -29 148 0 81 4 102 25 143 48 96 159 170 276 185 59 8
87 7 177 -3z"/>
</g>
</svg>
