<?xml version="1.0" standalone="no"?>
<!DOCTYPE svg PUBLIC "-//W3C//DTD SVG 20010904//EN"
 "http://www.w3.org/TR/2001/REC-SVG-20010904/DTD/svg10.dtd">
<svg version="1.0" xmlns="http://www.w3.org/2000/svg"
 width="300.000000pt" height="300.000000pt" viewBox="0 0 300.000000 300.000000"
 preserveAspectRatio="xMidYMid meet">
<metadata>
Created by potrace 1.11, written by Peter Selinger 2001-2013
</metadata>
<g transform="translate(0.000000,300.000000) scale(0.100000,-0.100000)"
fill="#000000" stroke="none">
<path d="M1360 2934 c-30 -8 -65 -21 -77 -30 -13 -8 -56 -16 -100 -19 -121 -7
-227 -44 -295 -104 -18 -15 -44 -32 -58 -36 -83 -25 -233 -168 -314 -298 -40
-64 -106 -204 -106 -224 0 -3 27 20 59 50 69 63 152 97 238 97 45 0 60 5 98
34 80 61 144 80 280 81 100 2 127 5 161 23 141 72 363 72 512 0 35 -16 65 -21
160 -22 131 -2 194 -20 273 -78 37 -27 56 -33 122 -39 95 -9 172 -43 234 -105
24 -24 43 -38 43 -32 0 19 -87 195 -120 243 -75 109 -190 219 -269 257 -26 12
-74 41 -107 64 -79 54 -170 83 -273 89 -51 3 -90 11 -105 21 -66 43 -247 57
-356 28z"/>
<path d="M1352 2247 c-14 -8 -49 -66 -98 -166 -41 -85 -73 -156 -70 -158 2 -2
20 -1 41 3 35 6 38 10 116 165 43 87 79 161 79 164 0 10 -45 5 -68 -8z"/>
<path d="M1457 2187 c-35 -62 -37 -70 -37 -156 l0 -91 35 0 34 0 3 98 3 97 35
-48 35 -49 37 44 37 43 1 -92 0 -93 35 0 35 0 2 135 c1 74 2 143 2 153 1 13
-8 18 -39 19 -37 3 -42 0 -74 -44 l-34 -47 -16 24 c-9 14 -25 35 -37 49 l-21
24 -36 -66z"/>
<path d="M1055 2211 l-80 -16 4 -155 c2 -85 4 -156 5 -157 1 -2 48 7 113 22
12 3 25 18 32 36 l11 31 -46 -7 -45 -6 3 33 c3 32 5 33 61 42 56 9 57 10 57
41 l0 32 -42 -8 c-72 -14 -78 -12 -78 20 0 31 5 34 93 46 44 7 47 9 47 36 0
35 -14 36 -135 10z"/>
<path d="M1875 2193 c-64 -151 -106 -256 -103 -258 2 -1 17 -6 34 -9 29 -6 33
-4 42 23 12 33 28 37 91 25 25 -5 33 -14 42 -44 9 -31 18 -39 42 -44 17 -3 32
-4 34 -2 4 3 -95 327 -101 332 0 1 -15 5 -33 9 -30 6 -33 4 -48 -32z m58 -100
c3 -16 9 -36 13 -46 6 -16 3 -17 -22 -11 -38 9 -38 7 -23 48 16 43 25 45 32 9z"/>
<path d="M2120 2177 c0 -3 19 -44 41 -91 l41 -85 -50 -65 -51 -64 31 -11 c43
-15 43 -16 77 30 l30 41 16 -38 c9 -22 21 -49 26 -62 5 -12 20 -27 34 -32 35
-13 48 -13 42 3 -3 6 -21 48 -40 93 l-35 80 49 59 49 60 -37 13 c-37 12 -38
12 -69 -24 l-31 -37 -23 56 c-16 39 -30 57 -46 61 -12 3 -29 9 -38 12 -9 3
-16 4 -16 1z"/>
<path d="M715 2117 l-60 -22 3 -85 c1 -47 5 -117 8 -156 l5 -72 30 11 c27 11
29 15 29 63 0 72 22 80 70 25 34 -40 36 -41 73 -31 l37 11 -35 46 -34 45 24
36 c29 42 33 97 9 130 -20 29 -78 29 -159 -1z m89 -43 c18 -7 21 -36 6 -64 -8
-16 -68 -45 -76 -37 -2 1 -6 21 -10 44 -6 38 -4 41 22 51 36 13 39 13 58 6z"/>
<path d="M1340 1705 c-36 -7 -90 -22 -120 -34 -35 -13 -78 -21 -120 -21 -118
0 -240 -38 -330 -100 -14 -10 -52 -23 -86 -28 -75 -13 -139 -42 -193 -88 l-41
-35 27 -52 c87 -173 320 -452 692 -830 l195 -197 136 0 137 0 219 223 c377
382 616 672 678 822 l17 40 -33 27 c-50 43 -127 77 -198 90 -41 7 -83 23 -116
44 -77 49 -165 75 -274 81 -62 3 -118 13 -160 28 -127 44 -298 56 -430 30z"/>
<path d="M1378 183 c5 -10 17 -49 27 -86 l18 -68 80 3 80 3 18 65 c10 36 23
73 29 83 9 16 1 17 -125 17 -126 0 -135 -1 -127 -17z"/>
<path d="M1742 180 c-29 -28 -37 -63 -20 -97 39 -81 158 -57 158 32 0 72 -87
113 -138 65z m107 -16 c34 -43 26 -86 -20 -109 -47 -25 -99 7 -99 62 0 68 78
99 119 47z"/>
<path d="M1771 113 c1 -27 4 -38 6 -25 6 28 27 28 40 0 8 -19 10 -15 10 25 1
37 -2 47 -15 47 -14 0 -14 -2 -3 -9 16 -11 6 -31 -16 -31 -10 0 -14 6 -10 20
3 11 1 20 -4 20 -5 0 -8 -21 -8 -47z"/>
</g>
</svg>
