<?xml version="1.0" standalone="no"?>
<!DOCTYPE svg PUBLIC "-//W3C//DTD SVG 20010904//EN"
 "http://www.w3.org/TR/2001/REC-SVG-20010904/DTD/svg10.dtd">
<svg version="1.0" xmlns="http://www.w3.org/2000/svg"
 width="1637.000000pt" height="1637.000000pt" viewBox="0 0 1637.000000 1637.000000"
 preserveAspectRatio="xMidYMid meet">
<metadata>
Created by potrace 1.11, written by Peter Selinger 2001-2013
</metadata>
<g transform="translate(0.000000,1637.000000) scale(0.100000,-0.100000)"
fill="#000000" stroke="none">
<path d="M3615 10576 c-280 -188 -811 -544 -1180 -791 -368 -246 -672 -450
-674 -451 -3 -3 -5 -243 -2 -282 1 -7 47 19 106 58 57 38 107 70 109 70 3 0 6
-25 8 -56 l3 -55 355 230 c195 127 391 253 435 281 44 28 278 179 520 336 448
290 652 422 771 499 l67 43 41 -23 c23 -12 86 -46 141 -75 55 -29 132 -69 170
-90 101 -55 822 -438 940 -500 55 -29 123 -65 150 -80 28 -15 95 -51 150 -80
185 -97 270 -143 300 -160 17 -10 93 -50 170 -90 77 -40 145 -76 150 -80 6 -4
64 -36 130 -70 66 -35 143 -75 170 -90 28 -15 95 -51 150 -80 55 -29 123 -65
150 -80 28 -15 104 -55 170 -90 66 -35 143 -75 170 -90 l50 -28 200 3 c110 2
421 7 690 10 270 3 623 8 785 10 162 2 500 6 750 10 250 3 599 8 775 10 176 3
505 7 730 10 226 3 568 8 760 10 193 3 532 7 755 10 223 3 574 7 780 10 742
11 1473 20 2307 29 111 1 206 5 209 9 4 4 -33 7 -82 8 -49 0 -136 2 -194 4
-58 2 -193 6 -300 9 -107 3 -251 8 -320 11 -69 3 -210 7 -315 10 -104 3 -251
8 -325 10 -74 2 -218 7 -320 10 -102 3 -243 8 -315 10 -71 2 -220 7 -330 10
-110 3 -261 8 -335 10 -74 3 -209 7 -300 10 -91 3 -228 7 -305 10 -77 3 -230
7 -340 10 -110 3 -256 8 -325 10 -155 5 -438 14 -630 20 -80 3 -221 7 -315 10
-93 3 -240 8 -325 10 -85 3 -225 7 -310 10 -85 3 -229 7 -320 10 -91 3 -237 7
-325 10 -88 3 -236 7 -330 10 -93 3 -233 7 -310 10 -77 3 -221 7 -320 10 -99
3 -241 7 -315 10 -123 4 -213 6 -650 20 -80 3 -223 7 -317 10 l-173 6 -96 54
c-53 30 -98 55 -99 55 -2 0 -35 18 -74 40 -103 59 -117 67 -341 190 -113 62
-351 194 -530 293 -179 98 -350 193 -380 210 -30 16 -89 49 -130 72 -41 23
-100 55 -130 72 -46 25 -644 355 -775 428 -389 215 -628 347 -638 350 -7 2
-241 -150 -522 -339z"/>
<path d="M3722 9782 l-42 -3 2 -167 3 -166 155 -1 c85 0 160 1 165 2 11 3 13
318 3 329 -7 6 -219 11 -286 6z"/>
<path d="M4087 9775 c-2 -9 -1 -293 2 -320 1 -8 239 -12 319 -6 9 1 12 41 12
166 0 91 -3 165 -7 165 -105 6 -323 3 -326 -5z"/>
<path d="M3680 9208 l0 -168 168 0 167 0 -1 160 c0 88 -3 162 -7 166 -3 4 -79
7 -167 8 l-160 1 0 -167z"/>
<path d="M4103 9370 c-17 -5 -18 -18 -18 -167 l0 -163 47 -1 c27 0 86 0 133 0
47 0 101 0 120 0 l35 1 0 165 c0 150 -2 165 -17 166 -78 4 -285 3 -300 -1z"/>
<path d="M90 9295 c0 -14 3 -24 8 -24 4 1 37 1 74 0 l66 -1 0 -322 c0 -178 1
-333 1 -345 1 -18 7 -23 26 -23 l25 0 0 345 0 345 69 0 c69 0 84 8 73 38 -3 9
-47 12 -173 12 l-169 0 0 -25z"/>
<path d="M585 8950 l0 -371 25 3 25 3 -1 178 c0 165 1 177 18 178 10 0 63 1
118 1 55 0 105 -1 110 -1 6 -1 10 -68 10 -181 l0 -180 25 0 25 0 0 370 0 370
-25 0 -25 0 0 -164 0 -165 -118 0 c-65 0 -123 4 -128 7 -6 4 -10 69 -10 162
l0 155 -25 3 -24 3 0 -371z"/>
<path d="M1167 9313 c-3 -5 -5 -171 -5 -370 l-1 -363 135 0 134 0 0 25 c0 24
-3 25 -57 24 -32 -1 -81 -1 -110 0 l-52 1 1 155 c0 85 3 155 7 156 3 0 47 2
96 4 112 3 105 1 105 25 0 22 1 22 -127 22 l-81 -1 0 140 0 139 109 0 109 0 0
25 0 25 -129 0 c-72 0 -132 -3 -134 -7z"/>
<path d="M16090 8870 c0 -9 67 -7 76 2 3 3 -13 6 -36 6 -22 0 -40 -3 -40 -8z"/>
<path d="M16186 8869 c4 -8 30 -6 38 2 3 3 -5 5 -19 5 -13 0 -22 -3 -19 -7z"/>
<path d="M927 8334 c-1 -1 -47 -4 -102 -7 -351 -21 -642 -220 -761 -520 -46
-116 -63 -218 -60 -367 6 -240 59 -382 207 -555 61 -70 207 -163 332 -210 81
-30 131 -42 262 -64 62 -10 417 -8 470 3 127 27 175 40 231 66 35 16 65 35 65
42 1 7 3 146 5 309 2 163 8 307 13 322 13 33 46 55 96 62 56 8 67 13 62 28 -3
9 -78 12 -323 14 -175 0 -324 -2 -331 -6 -25 -13 4 -28 67 -34 75 -8 110 -29
126 -77 7 -20 11 -136 12 -295 2 -248 1 -264 -18 -288 -28 -35 -92 -47 -230
-43 -160 5 -282 41 -392 114 -260 174 -381 468 -346 842 22 224 129 397 300
483 40 21 84 40 98 43 14 2 48 9 75 15 54 10 231 13 280 4 143 -27 253 -71
334 -135 54 -43 85 -98 102 -183 9 -45 16 -57 30 -57 11 0 19 6 20 13 1 6 2
64 4 127 1 63 5 154 9 202 l8 87 -34 5 c-18 3 -55 8 -81 11 -27 4 -58 8 -69
10 -58 12 -183 26 -258 31 -95 6 -201 10 -203 8z"/>
<path d="M9297 8334 c-1 -1 -42 -4 -92 -7 -169 -11 -254 -35 -409 -114 -209
-106 -365 -327 -410 -578 -14 -78 -15 -284 -2 -350 55 -274 209 -465 471 -585
70 -32 211 -73 300 -87 60 -10 414 -10 470 -1 144 24 276 65 304 93 14 13 17
62 21 328 6 371 5 366 110 382 52 8 62 13 57 28 -6 19 -643 19 -658 1 -14 -17
-3 -22 73 -28 64 -6 84 -14 113 -46 19 -21 20 -39 23 -304 4 -273 3 -282 -17
-308 -14 -17 -37 -30 -69 -37 -56 -12 -263 -7 -310 8 -18 5 -36 10 -40 10 -36
4 -146 52 -204 90 -155 102 -257 244 -312 434 -67 230 -49 501 45 678 59 110
168 199 300 246 91 32 280 43 393 23 242 -42 401 -160 419 -311 5 -44 13 -59
33 -59 17 0 16 -7 19 112 1 53 5 147 9 208 4 60 3 110 -1 111 -50 4 -106 11
-143 19 -25 5 -65 12 -90 15 -25 4 -58 8 -75 10 -62 9 -322 23 -328 19z"/>
<path d="M5112 8064 c-166 -35 -298 -141 -334 -268 -18 -65 -13 -173 12 -239
43 -114 127 -195 327 -312 194 -115 253 -185 253 -298 0 -148 -100 -238 -265
-241 -162 -2 -274 67 -308 190 -9 33 -17 69 -17 80 0 27 -13 44 -27 36 -17
-11 -23 -57 -26 -205 -2 -126 -2 -128 23 -147 22 -17 43 -23 115 -37 150 -29
343 -22 450 16 95 33 194 124 243 221 25 51 27 64 26 175 0 107 -3 126 -26
175 -30 65 -101 147 -172 200 -28 20 -105 68 -171 106 -66 37 -141 88 -168
113 -155 145 -43 354 190 353 159 0 257 -85 272 -234 2 -16 30 -7 35 10 11 36
10 272 0 282 -33 33 -319 48 -432 24z"/>
<path d="M12405 8070 c-198 -31 -378 -128 -488 -261 -53 -66 -113 -185 -138
-273 -23 -87 -32 -212 -19 -291 17 -102 22 -121 47 -185 97 -245 321 -413 592
-446 410 -50 746 113 888 431 50 110 65 180 67 315 5 255 -93 459 -282 583
-77 51 -175 92 -271 113 -81 18 -314 26 -396 14z m197 -100 c231 -41 409 -241
454 -510 10 -59 11 -251 1 -319 -10 -71 -51 -192 -82 -240 -78 -125 -201 -192
-354 -192 -248 -1 -451 153 -536 405 -36 106 -44 176 -41 326 3 113 8 148 29
215 56 171 149 266 298 304 87 22 151 25 231 11z"/>
<path d="M4369 8066 c-17 -16 -218 -20 -859 -14 -91 0 -100 -1 -100 -17 0 -8
3 -15 8 -16 4 -1 29 -3 55 -5 62 -5 105 -28 119 -62 11 -30 15 -1040 4 -1149
-12 -117 -29 -133 -141 -134 -168 -2 -245 61 -578 470 l-126 154 92 91 c144
143 192 257 165 391 -30 148 -148 242 -338 270 -70 10 -753 6 -763 -4 -16 -16
-5 -21 54 -27 71 -7 117 -30 127 -63 4 -14 7 -285 7 -601 -1 -688 2 -669 -109
-680 -36 -4 -51 -9 -51 -20 0 -13 41 -15 305 -15 264 0 305 2 305 15 0 11 -17
17 -63 22 -111 12 -118 18 -128 131 -11 124 -11 397 0 406 15 12 194 5 211 -9
7 -6 31 -37 52 -68 92 -137 240 -329 297 -386 33 -34 84 -73 111 -86 l50 -25
400 -2 c220 -1 508 -3 640 -4 132 -2 250 1 262 5 26 8 42 70 50 197 5 73 3 87
-11 92 -12 5 -18 -4 -26 -36 -32 -128 -73 -151 -270 -151 -120 0 -141 3 -181
22 -70 34 -72 43 -74 317 -1 132 0 246 3 253 3 10 38 12 156 8 160 -5 201 -10
227 -29 24 -18 39 -52 39 -90 0 -22 6 -37 15 -41 20 -7 22 1 30 99 7 101 15
177 20 191 2 6 0 17 -5 24 -6 9 -14 7 -37 -10 -43 -31 -78 -36 -273 -35 l-175
0 -1 248 c-1 221 1 247 15 248 38 1 239 -3 276 -5 111 -8 149 -33 161 -105 10
-62 13 -67 29 -50 8 8 16 44 20 84 5 70 13 140 20 176 3 17 -7 33 -16 25z
m-1786 -132 c123 -41 195 -173 185 -338 -7 -101 -34 -168 -92 -225 -58 -57
-86 -63 -266 -53 -67 4 -64 -9 -66 309 0 158 3 296 8 305 14 29 146 30 231 2z"/>
<path d="M5851 8050 c-33 -5 -57 -29 -29 -31 43 -1 106 -13 128 -22 58 -27 57
-23 55 -654 -1 -502 -4 -583 -17 -615 -19 -42 -43 -58 -90 -58 -38 0 -63 -13
-54 -28 3 -6 124 -10 321 -10 271 -1 315 1 315 14 0 18 -10 22 -89 28 -90 7
-103 22 -116 131 -3 26 -7 322 -5 470 l0 51 375 0 375 -1 1 -35 c2 -101 -3
-446 -7 -492 -9 -100 -33 -128 -108 -128 -32 0 -66 -23 -49 -33 17 -11 632 -6
639 5 10 16 -17 28 -69 28 -68 0 -112 21 -127 61 -10 26 -14 165 -15 596 -1
310 1 581 5 604 10 55 25 68 94 79 64 10 75 15 60 30 -13 13 -604 14 -616 2
-14 -14 8 -24 59 -28 70 -6 111 -30 123 -73 5 -20 10 -141 10 -268 l0 -233
-375 0 c-350 0 -375 1 -376 18 -4 100 4 465 12 493 10 41 41 59 105 63 27 1
40 7 42 19 3 15 -21 17 -270 19 -150 2 -288 1 -307 -2z"/>
<path d="M10314 8052 c-63 -11 -49 -35 22 -39 71 -5 112 -28 124 -72 16 -59 7
-1178 -10 -1218 -16 -36 -46 -53 -93 -53 -37 0 -62 -13 -53 -28 8 -14 603 -15
612 -1 11 18 -9 27 -74 32 -63 5 -107 29 -110 60 -10 121 -14 186 -16 307 -1
80 0 152 2 161 3 15 18 17 102 14 53 -1 102 -5 108 -9 7 -4 55 -69 109 -144
188 -266 264 -351 363 -403 42 -22 56 -23 230 -24 155 0 185 2 185 14 0 10
-20 19 -60 26 -33 7 -72 19 -86 26 -82 45 -202 168 -389 399 -56 69 -115 140
-130 159 l-28 34 92 91 c148 147 200 281 161 414 -22 72 -84 153 -143 185
-105 57 -123 60 -452 64 -168 2 -337 4 -376 6 -40 1 -80 1 -90 -1z m648 -121
c65 -28 118 -78 147 -141 22 -48 25 -69 26 -165 0 -130 -19 -185 -89 -254 -51
-50 -91 -62 -196 -57 -88 5 -130 14 -131 30 -6 55 -3 575 3 588 15 31 168 30
240 -1z"/>
<path d="M13550 8052 c-69 -8 -60 -31 14 -38 64 -6 92 -19 113 -50 15 -24 17
-65 19 -443 2 -457 7 -513 64 -637 30 -66 118 -165 180 -202 121 -71 395 -100
560 -57 225 58 369 228 396 466 3 29 7 65 9 78 3 13 5 189 5 390 2 445 1 442
111 455 24 2 45 5 47 5 1 1 2 8 2 16 0 16 17 16 -315 16 -96 0 -184 -1 -196
-1 -14 0 -19 -5 -17 -17 2 -12 16 -17 51 -20 65 -5 93 -17 114 -49 16 -25 17
-63 17 -458 0 -456 -4 -507 -48 -600 -74 -161 -281 -234 -471 -167 -72 26
-120 62 -163 125 -70 105 -80 191 -78 699 2 433 1 431 73 442 57 9 88 19 88
30 0 9 -514 24 -575 17z"/>
<path d="M15220 8052 c-14 -5 -12 -32 3 -33 102 -7 148 -24 168 -62 10 -16 12
-161 11 -582 0 -308 -3 -569 -6 -580 -2 -11 -5 -32 -5 -46 -2 -46 -30 -70 -91
-77 -39 -5 -55 -11 -55 -22 0 -13 42 -15 313 -17 290 -2 313 -1 310 15 -3 13
-19 18 -77 24 -92 8 -109 23 -121 104 -4 32 -9 310 -9 617 -2 637 -13 572 99
571 187 -2 314 -156 304 -369 -3 -75 -50 -171 -106 -219 -46 -39 -114 -66
-169 -66 -38 0 -58 -21 -36 -38 13 -10 108 -9 176 2 135 22 272 120 331 236
99 197 44 409 -126 490 -94 44 -161 50 -544 53 -198 1 -365 1 -370 -1z"/>
<path d="M5955 6187 c-93 -52 -118 -203 -50 -293 14 -18 61 -53 105 -78 89
-52 120 -94 120 -163 -1 -54 -33 -119 -69 -137 -38 -20 -106 -20 -160 -1 l-41
14 0 -28 c0 -33 32 -46 122 -50 72 -3 128 24 165 81 24 36 28 51 28 118 0 102
-25 142 -127 201 -40 24 -81 50 -91 60 -43 39 -53 130 -21 190 28 55 107 75
179 45 33 -14 36 -14 46 6 14 26 3 37 -47 49 -65 15 -116 10 -159 -14z"/>
<path d="M10311 6197 c-46 -18 -94 -75 -116 -139 -26 -75 -31 -328 -9 -413 32
-124 86 -183 177 -192 94 -10 151 34 197 152 20 51 24 82 26 200 5 198 -27
315 -101 371 -40 30 -123 40 -174 21z m122 -48 c37 -19 57 -47 79 -107 30 -80
32 -329 4 -413 -26 -81 -66 -121 -124 -126 -111 -10 -166 91 -171 309 -4 177
40 313 109 341 26 10 80 7 103 -4z"/>
<path d="M13150 6188 c-84 -43 -119 -173 -71 -266 21 -41 31 -49 169 -136 68
-43 91 -128 57 -210 -24 -57 -66 -78 -147 -72 -36 2 -76 9 -87 16 -19 10 -21
8 -21 -19 0 -28 3 -30 57 -41 80 -17 145 -9 188 24 53 41 69 79 70 167 0 100
-25 139 -131 203 -112 68 -124 85 -124 166 0 115 78 166 193 126 35 -13 38
-12 48 6 13 24 6 31 -40 47 -53 17 -112 13 -161 -11z"/>
<path d="M15115 6198 c-103 -38 -151 -174 -143 -402 7 -186 53 -296 139 -330
123 -50 227 23 264 185 20 91 21 266 1 352 -32 136 -84 195 -178 202 -29 3
-66 0 -83 -7z m131 -57 c67 -41 100 -171 91 -356 -9 -186 -52 -272 -140 -282
-63 -7 -100 15 -131 79 -36 74 -45 134 -41 273 4 136 6 152 35 215 39 83 118
113 186 71z"/>
<path d="M6368 6188 c-2 -7 -4 -173 -3 -368 l1 -355 24 -3 25 -3 0 368 c0 367
0 368 -21 371 -12 2 -23 -3 -26 -10z"/>
<path d="M6638 6188 c-3 -11 -2 -672 1 -715 1 -7 11 -13 24 -13 l23 0 -1 333
-1 332 19 -60 c10 -33 20 -68 22 -78 2 -10 15 -55 29 -100 23 -77 55 -188 92
-317 9 -30 19 -66 23 -80 6 -18 16 -26 38 -28 29 -3 30 -1 50 70 11 40 46 161
78 268 31 107 65 224 75 260 l18 65 1 -332 1 -333 25 0 25 0 0 370 0 370 -40
0 c-22 0 -40 -2 -40 -4 0 -2 -27 -98 -61 -213 -33 -114 -62 -215 -64 -223 -26
-96 -45 -160 -55 -185 -6 -16 -11 -31 -11 -32 1 -2 1 -11 0 -20 -1 -10 -7 7
-14 37 -12 52 -81 292 -128 445 -12 39 -22 72 -22 75 -1 3 -9 31 -18 63 -17
55 -19 57 -51 57 -19 0 -36 -6 -38 -12z"/>
<path d="M7400 5830 l0 -370 25 0 24 0 3 151 3 152 60 4 c139 9 198 84 190
241 -6 140 -67 191 -227 192 l-78 0 0 -370z m191 304 c43 -22 63 -68 63 -149
0 -117 -36 -162 -142 -171 l-62 -6 0 169 c0 93 2 172 5 174 9 10 109 -3 136
-17z"/>
<path d="M7884 5830 l0 -370 128 0 128 0 0 25 0 25 -103 0 -103 0 1 333 c0
182 -1 338 -3 345 -2 6 -14 12 -26 12 l-22 0 0 -370z"/>
<path d="M8229 6178 c5 -13 38 -115 75 -228 l66 -206 0 -142 0 -142 25 0 25 0
0 145 0 145 71 217 c39 120 73 221 76 226 2 4 -9 7 -24 7 -27 0 -30 -5 -52
-72 -81 -263 -94 -300 -101 -287 -4 8 -31 92 -61 187 -52 169 -54 172 -81 172
-24 0 -27 -3 -19 -22z"/>
<path d="M9710 6193 c0 -5 32 -105 70 -223 l71 -215 0 -148 0 -148 26 3 27 3
-1 140 -2 140 71 215 c39 118 73 221 76 228 3 10 -3 13 -23 10 -31 -3 -27 7
-100 -233 -21 -66 -41 -124 -44 -128 -4 -4 -13 12 -20 35 -7 24 -33 107 -57
186 -42 132 -47 142 -70 142 -13 0 -24 -3 -24 -7z"/>
<path d="M10783 5903 c2 -278 4 -301 24 -343 11 -25 34 -57 50 -73 62 -58 199
-43 242 26 38 62 43 112 45 405 l1 282 -27 0 -28 0 2 -267 c1 -319 -3 -352
-47 -399 -28 -29 -39 -34 -79 -34 -36 0 -52 6 -76 28 -49 44 -57 90 -58 347
-1 127 -1 251 -2 278 0 43 -2 47 -24 47 l-25 0 2 -297z"/>
<path d="M11360 6123 c-1 -82 -1 -440 0 -580 0 -82 0 -83 25 -83 l25 0 0 160
c0 159 0 160 23 161 12 0 30 2 40 4 22 4 35 -16 87 -140 78 -184 78 -185 106
-185 31 0 33 -7 -51 186 -36 81 -64 148 -62 149 78 37 117 109 112 212 -6 140
-71 192 -237 193 l-68 0 0 -77z m202 3 c35 -23 51 -67 52 -135 0 -109 -50
-161 -153 -161 l-51 0 0 161 0 162 63 -5 c35 -3 75 -13 89 -22z"/>
<path d="M12117 6193 c-3 -5 -5 -172 -5 -372 l0 -363 117 4 c103 3 119 6 147
27 48 35 69 92 69 181 0 90 -25 142 -80 161 l-33 12 38 28 c53 38 75 111 59
196 -19 97 -77 133 -219 133 -49 0 -91 -3 -93 -7z m213 -60 c37 -21 50 -52 50
-114 0 -55 -18 -106 -44 -128 -10 -9 -48 -16 -94 -19 l-78 -4 0 140 -1 141 26
3 c52 6 113 -2 141 -19z m13 -336 c39 -30 55 -76 51 -146 -4 -66 -28 -116 -63
-131 -30 -12 -145 -20 -159 -11 -7 5 -10 289 -4 312 1 3 34 4 72 3 58 -2 77
-7 103 -27z"/>
<path d="M12630 5830 l0 -370 135 0 135 0 -2 25 c-2 25 -2 25 -110 25 l-108 0
0 155 0 155 43 1 c153 2 160 3 163 27 4 22 2 22 -101 22 l-105 0 0 140 0 140
111 0 c109 0 110 0 107 23 -3 21 -7 22 -135 25 l-133 3 0 -371z"/>
<path d="M13484 6175 c1 -24 3 -25 74 -25 l72 0 0 -345 0 -345 25 0 25 0 0
345 0 345 73 0 c71 0 73 1 73 25 l0 25 -172 0 -172 0 2 -25z"/>
<path d="M14230 5830 l0 -370 26 0 25 0 -3 325 c-2 178 0 321 4 317 3 -4 20
-56 38 -117 17 -60 36 -123 41 -140 5 -16 30 -102 55 -190 25 -88 48 -168 50
-177 4 -12 15 -18 34 -18 28 0 30 4 50 73 11 39 31 108 44 152 13 44 39 132
57 195 17 63 41 145 53 183 l21 67 -3 -335 -2 -335 25 0 25 0 0 370 0 370 -38
0 -38 0 -68 -237 c-38 -131 -80 -284 -95 -340 -24 -94 -36 -123 -39 -90 -2 26
-46 186 -149 532 -8 28 -20 69 -26 93 -10 40 -12 42 -49 42 l-38 0 0 -370z"/>
<path d="M15514 6178 c3 -13 22 -90 41 -173 19 -82 38 -162 41 -179 3 -16 7
-32 9 -36 2 -3 6 -17 8 -31 3 -13 19 -83 36 -155 17 -72 31 -134 31 -138 0 -3
14 -6 30 -6 17 0 30 2 30 4 0 2 38 167 85 365 47 199 85 364 85 367 0 2 -11 4
-25 4 -20 0 -26 -7 -34 -37 -24 -92 -131 -565 -131 -581 0 -32 -17 -45 -18
-14 0 15 -10 66 -21 113 -27 114 -72 309 -77 336 -2 12 -12 57 -23 100 -16 72
-20 78 -45 81 -23 3 -26 1 -22 -20z"/>
<path d="M16052 5830 l0 -370 134 0 134 0 0 25 0 25 -108 0 -109 0 0 155 c0
104 4 155 11 156 6 0 52 1 101 2 85 2 90 3 93 24 3 22 0 22 -100 25 l-103 3
-1 138 -1 137 108 0 109 0 0 25 0 25 -134 0 -134 0 0 -370z"/>
<path d="M8704 5543 c-20 -32 1 -93 31 -93 18 0 36 25 40 55 5 47 -48 75 -71
38z"/>
<path d="M8982 5548 c-17 -17 -15 -73 3 -88 20 -17 54 -3 61 26 13 52 -31 95
-64 62z"/>
<path d="M9255 5550 c-10 -17 -15 -54 -9 -72 7 -23 41 -33 59 -18 18 15 20 71
3 88 -15 15 -45 16 -53 2z"/>
</g>
</svg>
