<?xml version="1.0" standalone="no"?>
<!DOCTYPE svg PUBLIC "-//W3C//DTD SVG 20010904//EN"
 "http://www.w3.org/TR/2001/REC-SVG-20010904/DTD/svg10.dtd">
<svg version="1.0" xmlns="http://www.w3.org/2000/svg"
 width="429.000000pt" height="429.000000pt" viewBox="0 0 429.000000 429.000000"
 preserveAspectRatio="xMidYMid meet">
<metadata>
Created by potrace 1.11, written by Peter Selinger 2001-2013
</metadata>
<g transform="translate(0.000000,429.000000) scale(0.100000,-0.100000)"
fill="#000000" stroke="none">
<path d="M228 4065 c-5 -5 -8 -111 -8 -237 l0 -228 306 0 305 0 13 -32 c8 -18
89 -242 181 -498 92 -256 230 -638 307 -850 77 -212 146 -401 153 -420 l13
-35 10 25 c6 14 140 381 297 815 157 435 302 835 323 890 l37 100 300 0 300 0
0 -30 c0 -30 -1 -30 -66 -37 -145 -14 -185 -74 -191 -291 l-3 -87 393 0 392 0
0 -29 0 -28 -82 -8 c-129 -11 -175 -36 -212 -115 -21 -45 -21 -52 -24 -1040
-2 -1080 -3 -1063 51 -1104 27 -20 39 -21 290 -20 208 1 276 5 331 18 173 42
262 133 350 363 l36 92 0 1391 0 1390 -467 0 c-258 0 -1111 3 -1898 6 -786 4
-1433 3 -1437 -1z"/>
<path d="M222 2359 l3 -1174 40 -3 c58 -5 123 17 160 53 62 62 60 30 60 1135
l0 1005 -25 50 c-32 63 -83 93 -174 102 l-66 6 2 -1174z"/>
<path d="M2152 3159 c-3 -10 -385 -1072 -563 -1567 -87 -243 -164 -452 -170
-463 -14 -28 -51 -21 -60 11 -10 36 -94 270 -194 540 -120 324 -356 972 -446
1222 -41 114 -77 208 -81 208 -12 0 -9 -1653 2 -1734 21 -140 70 -187 207
-194 l83 -5 0 -33 0 -34 -355 0 -355 0 0 -430 0 -430 1905 0 1905 0 -1 378 c0
235 -4 369 -9 355 -5 -13 -26 -85 -46 -160 -21 -76 -42 -144 -47 -151 -7 -9
-177 -12 -795 -12 -433 1 -797 3 -809 6 -19 5 -22 11 -17 28 9 30 22 36 80 36
78 0 147 25 183 65 38 44 49 86 53 210 l3 100 -380 3 c-208 1 -383 6 -387 10
-5 5 -4 21 1 35 10 25 15 27 69 27 76 0 145 24 177 62 56 66 55 54 52 1028 -1
492 -3 892 -5 889z"/>
<path d="M2512 2198 l3 -863 24 -52 c23 -52 63 -89 81 -78 15 9 13 1585 -1
1678 -14 89 -40 142 -79 162 l-30 16 2 -863z"/>
</g>
</svg>
