<?xml version="1.0" standalone="no"?>
<!DOCTYPE svg PUBLIC "-//W3C//DTD SVG 20010904//EN"
 "http://www.w3.org/TR/2001/REC-SVG-20010904/DTD/svg10.dtd">
<svg version="1.0" xmlns="http://www.w3.org/2000/svg"
 width="300.000000pt" height="300.000000pt" viewBox="0 0 300.000000 300.000000"
 preserveAspectRatio="xMidYMid meet">
<metadata>
Created by potrace 1.11, written by Peter Selinger 2001-2013
</metadata>
<g transform="translate(0.000000,300.000000) scale(0.100000,-0.100000)"
fill="#000000" stroke="none">
<path d="M1390 2739 c-489 -48 -904 -373 -1063 -834 -202 -585 56 -1232 604
-1515 188 -97 365 -140 574 -140 338 0 647 129 885 370 236 238 360 539 360
875 0 342 -127 646 -369 885 -264 262 -631 395 -991 359z m286 -80 c247 -34
476 -150 659 -334 240 -239 357 -544 342 -884 -32 -697 -657 -1211 -1348
-1106 -250 37 -470 148 -649 325 -47 47 -107 114 -132 150 -203 287 -267 651
-177 996 99 376 412 700 789 815 151 46 353 61 516 38z"/>
<path d="M1134 2311 c-322 -172 -369 -201 -369 -221 0 -54 20 -47 345 128 173
93 334 179 356 190 l41 21 354 -190 c364 -196 379 -202 387 -151 2 13 -5 26
-20 35 -26 16 -594 320 -674 360 l-51 26 -369 -198z"/>
<path d="M1410 2260 l0 -40 45 0 45 0 0 40 0 40 -45 0 -45 0 0 -40z"/>
<path d="M1530 2260 l0 -40 45 0 45 0 0 40 0 40 -45 0 -45 0 0 -40z"/>
<path d="M1410 2140 l0 -50 45 0 45 0 0 50 0 50 -45 0 -45 0 0 -50z"/>
<path d="M1530 2140 l0 -50 45 0 45 0 0 50 0 50 -45 0 -45 0 0 -50z"/>
<path d="M1722 1984 c-75 -20 -133 -57 -192 -121 -39 -42 -50 -62 -48 -82 l3
-26 240 0 240 0 0 25 0 25 -199 5 -199 5 38 34 c69 60 117 76 230 76 93 0 105
-2 167 -33 115 -57 181 -164 159 -260 -32 -144 -154 -227 -331 -227 -76 1 -92
4 -152 34 -70 35 -98 35 -98 3 0 -40 86 -87 189 -103 238 -37 464 121 465 326
2 219 -265 386 -512 319z"/>
<path d="M822 1978 c-9 -9 -12 -94 -12 -320 0 -300 0 -308 21 -318 46 -25 48
-10 51 299 l3 286 150 -1 c172 0 212 -12 253 -74 19 -28 23 -44 19 -83 -8 -92
-70 -127 -236 -133 -100 -3 -123 -13 -105 -42 16 -25 450 -263 468 -256 17 6
29 32 21 44 -3 5 -77 48 -165 97 l-159 88 52 11 c68 15 85 22 126 52 93 69 93
234 0 305 -60 45 -126 57 -309 57 -116 0 -170 -4 -178 -12z"/>
<path d="M1048 1281 c-73 -24 -116 -51 -166 -105 -79 -85 -103 -168 -78 -267
70 -271 472 -363 680 -156 24 25 52 60 61 78 17 32 17 33 -5 51 -20 16 -45 18
-234 18 -224 0 -252 -5 -244 -46 3 -18 16 -19 202 -24 l199 -5 -38 -34 c-69
-60 -117 -76 -230 -76 -89 0 -107 3 -163 29 -115 53 -185 167 -163 264 31 139
159 227 326 226 69 0 90 -5 152 -33 75 -35 103 -35 103 -1 0 25 -60 66 -126
86 -66 20 -206 17 -276 -5z"/>
<path d="M1557 1293 c-25 -24 0 -45 152 -130 l159 -88 -66 -18 c-106 -29 -165
-86 -178 -172 -13 -92 36 -175 128 -216 48 -21 70 -24 234 -27 158 -3 183 -2
197 13 15 15 17 50 17 319 0 327 -1 332 -52 324 l-23 -3 -3 -293 -2 -294 -153
4 c-133 3 -157 6 -193 25 -117 62 -104 213 22 251 22 6 81 14 133 17 104 6
111 8 111 34 0 13 -60 51 -220 140 -205 113 -247 131 -263 114z"/>
</g>
</svg>
