<?xml version="1.0" standalone="no"?>
<!DOCTYPE svg PUBLIC "-//W3C//DTD SVG 20010904//EN"
 "http://www.w3.org/TR/2001/REC-SVG-20010904/DTD/svg10.dtd">
<svg version="1.0" xmlns="http://www.w3.org/2000/svg"
 width="300.000000pt" height="300.000000pt" viewBox="0 0 300.000000 300.000000"
 preserveAspectRatio="xMidYMid meet">
<metadata>
Created by potrace 1.11, written by Peter Selinger 2001-2013
</metadata>
<g transform="translate(0.000000,300.000000) scale(0.100000,-0.100000)"
fill="#000000" stroke="none">
<path d="M1175 2669 l-320 -320 48 -46 49 -46 272 272 c149 149 275 271 279
271 4 0 76 -59 160 -131 84 -73 179 -155 212 -183 32 -28 95 -82 140 -120 44
-38 87 -76 97 -83 14 -13 21 -9 57 29 22 24 41 48 41 53 0 6 -100 96 -221 200
-122 105 -227 195 -233 200 -10 9 -111 96 -180 155 -16 14 -34 30 -40 35 -42
37 -27 49 -361 -286z"/>
<path d="M708 2230 c-9 -5 -28 -31 -44 -57 -77 -132 -210 -275 -329 -352 -41
-27 -80 -51 -87 -53 -6 -2 -13 -29 -16 -59 -5 -65 5 -77 93 -103 75 -22 103
-40 117 -74 8 -19 12 -183 14 -532 1 -278 4 -533 8 -566 17 -176 102 -312 232
-373 169 -80 456 -63 674 41 60 28 117 74 125 99 6 19 10 17 47 -21 43 -43 85
-68 170 -99 220 -81 464 -85 615 -9 116 58 201 195 218 353 2 17 4 253 5 526
1 286 6 514 11 540 14 60 32 76 113 101 90 26 106 40 106 90 0 56 -11 70 -92
118 -99 59 -228 191 -312 318 -45 68 -73 102 -86 103 -11 1 -26 2 -32 3 -26 4
-76 -27 -80 -49 -3 -12 -6 -75 -7 -141 -1 -66 -4 -136 -6 -154 -8 -65 -6 -65
-313 -65 -152 0 -282 -4 -289 -8 -15 -10 -8 -49 23 -118 18 -40 36 -63 67 -82
l41 -27 212 0 c234 0 267 -6 283 -51 11 -33 8 -1021 -4 -1079 -22 -109 -76
-162 -190 -186 -65 -13 -213 -12 -285 2 -215 41 -191 40 -312 14 -201 -43
-394 -35 -484 21 -89 54 -96 105 -98 704 -1 270 0 503 2 518 8 56 33 62 272
63 118 1 227 5 242 9 58 15 136 142 126 207 l-3 23 -288 0 c-238 1 -290 3
-302 15 -14 14 -23 119 -24 291 -1 72 -21 100 -76 105 -22 2 -47 0 -57 -6z"/>
<path d="M1180 1145 l0 -135 135 0 135 0 0 135 0 135 -135 0 -135 0 0 -135z"/>
<path d="M1554 1145 l0 -136 135 3 136 3 0 130 0 130 -135 3 -135 3 -1 -136z"/>
<path d="M1180 800 l0 -135 132 1 133 1 3 131 c1 73 -1 133 -5 133 -4 1 -65 2
-135 3 l-128 1 0 -135z"/>
<path d="M1559 935 c-1 0 -3 -60 -3 -132 -2 -114 0 -133 14 -134 19 -1 220 -1
240 0 13 1 15 22 15 131 0 72 -2 131 -5 131 -4 1 -253 5 -261 4z"/>
</g>
</svg>
