<?xml version="1.0" standalone="no"?>
<!DOCTYPE svg PUBLIC "-//W3C//DTD SVG 20010904//EN"
 "http://www.w3.org/TR/2001/REC-SVG-20010904/DTD/svg10.dtd">
<svg version="1.0" xmlns="http://www.w3.org/2000/svg"
 width="160.000000pt" height="160.000000pt" viewBox="0 0 160.000000 160.000000"
 preserveAspectRatio="xMidYMid meet">
<metadata>
Created by potrace 1.11, written by Peter Selinger 2001-2013
</metadata>
<g transform="translate(0.000000,160.000000) scale(0.100000,-0.100000)"
fill="#000000" stroke="none">
<path d="M695 1571 c-212 -51 -370 -216 -406 -425 -11 -63 -8 -183 5 -247 22
-103 78 -190 186 -291 44 -41 98 -100 121 -132 37 -52 176 -327 193 -383 4
-13 11 -23 15 -23 5 0 32 53 61 117 98 219 148 299 240 388 110 106 122 119
155 170 40 62 63 131 73 217 30 250 -79 462 -293 567 -116 57 -228 70 -350 42z
m266 -377 c87 -52 159 -96 159 -97 0 -2 -18 -2 -39 0 l-40 2 0 -77 c0 -42 0
-114 0 -158 l-1 -82 -227 2 -228 1 -2 130 c-1 72 -2 143 -2 159 -1 26 -4 28
-31 24 -34 -5 -51 7 -23 16 10 4 74 44 143 90 69 47 127 85 128 85 2 1 76 -42
163 -95z"/>
<path d="M723 1152 l-73 -47 0 -122 0 -123 30 -1 c17 0 55 0 85 0 30 0 90 0
133 0 l77 1 0 119 c0 66 -2 121 -5 124 -15 12 -162 97 -168 97 -4 0 -40 -22
-79 -48z"/>
</g>
</svg>
