<?xml version="1.0" standalone="no"?>
<!DOCTYPE svg PUBLIC "-//W3C//DTD SVG 20010904//EN"
 "http://www.w3.org/TR/2001/REC-SVG-20010904/DTD/svg10.dtd">
<svg version="1.0" xmlns="http://www.w3.org/2000/svg"
 width="120.000000pt" height="120.000000pt" viewBox="0 0 120.000000 120.000000"
 preserveAspectRatio="xMidYMid meet">
<metadata>
Created by potrace 1.11, written by Peter Selinger 2001-2013
</metadata>
<g transform="translate(0.000000,120.000000) scale(0.100000,-0.100000)"
fill="#000000" stroke="none">
<path d="M201 1146 c-8 -9 -10 -160 -9 -542 l3 -529 370 -3 c204 -1 380 0 393
3 22 5 22 6 22 220 0 214 0 215 -22 220 -13 3 -108 4 -213 3 l-190 -3 -3 -28
c-6 -53 5 -57 179 -57 l159 0 0 -135 0 -135 -305 0 -305 0 0 455 0 455 348 2
347 3 3 28 c7 58 13 57 -393 57 -302 0 -375 -3 -384 -14z"/>
<path d="M388 969 c-17 -9 -18 -37 -18 -352 0 -254 3 -346 12 -355 8 -8 68
-12 203 -12 200 0 215 3 215 45 0 41 -16 45 -182 45 l-158 0 0 238 0 237 98
-102 c53 -57 105 -103 115 -103 10 0 41 22 69 50 29 27 56 46 61 43 6 -3 7 -1
3 5 -4 7 12 32 38 59 l46 48 0 -86 c0 -70 3 -89 18 -102 10 -10 25 -17 33 -17
35 0 39 22 39 187 l0 163 -26 12 c-24 11 -31 7 -147 -110 -67 -67 -125 -124
-128 -127 -3 -3 -61 51 -129 120 -68 69 -129 125 -135 125 -5 0 -18 -5 -27
-11z"/>
</g>
</svg>
