<?xml version="1.0" standalone="no"?>
<!DOCTYPE svg PUBLIC "-//W3C//DTD SVG 20010904//EN"
 "http://www.w3.org/TR/2001/REC-SVG-20010904/DTD/svg10.dtd">
<svg version="1.0" xmlns="http://www.w3.org/2000/svg"
 width="2100.000000pt" height="2100.000000pt" viewBox="0 0 2100.000000 2100.000000"
 preserveAspectRatio="xMidYMid meet">
<metadata>
Created by potrace 1.11, written by Peter Selinger 2001-2013
</metadata>
<g transform="translate(0.000000,2100.000000) scale(0.100000,-0.100000)"
fill="#000000" stroke="none">
<path d="M815 16265 c-81 -13 -151 -44 -267 -118 -184 -118 -314 -315 -358
-542 -6 -32 -8 -1922 -7 -5155 l2 -5105 22 -70 c99 -306 322 -515 621 -579 58
-12 1349 -14 9677 -13 5286 1 9619 5 9630 9 11 3 46 13 77 22 277 81 495 316
558 604 19 85 20 186 17 5192 l-2 5105 -28 85 c-29 85 -88 206 -123 251 -52
66 -168 170 -235 211 -81 49 -154 78 -259 102 -58 14 -1128 15 -9655 14 -7642
0 -9606 -3 -9670 -13z"/>
</g>
</svg>
