<?xml version="1.0" standalone="no"?>
<!DOCTYPE svg PUBLIC "-//W3C//DTD SVG 20010904//EN"
 "http://www.w3.org/TR/2001/REC-SVG-20010904/DTD/svg10.dtd">
<svg version="1.0" xmlns="http://www.w3.org/2000/svg"
 width="634.000000pt" height="634.000000pt" viewBox="0 0 634.000000 634.000000"
 preserveAspectRatio="xMidYMid meet">
<metadata>
Created by potrace 1.11, written by Peter Selinger 2001-2013
</metadata>
<g transform="translate(0.000000,634.000000) scale(0.100000,-0.100000)"
fill="#000000" stroke="none">
<path d="M750 6324 c-313 -66 -563 -280 -682 -584 -14 -36 -31 -87 -37 -115
-6 -27 -15 -61 -19 -75 -4 -14 -8 -1073 -9 -2355 -1 -1882 1 -2344 12 -2402
68 -375 314 -653 676 -765 l74 -23 2370 -2 c2368 -3 2370 -3 2465 18 164 36
328 127 449 250 132 134 215 292 268 514 4 17 9 1078 10 2360 3 2303 3 2331
-17 2428 -69 335 -287 596 -592 711 -37 14 -80 28 -95 31 -15 2 -50 9 -78 14
-32 7 -897 10 -2390 10 -1957 -1 -2351 -3 -2405 -15z m2956 -806 c6 -4 9 -163
8 -435 -1 -235 -2 -431 -3 -434 0 -3 -245 -6 -543 -7 -299 0 -552 -1 -563 -1
-20 -1 -20 -8 -20 -688 l0 -688 565 -5 565 -5 0 -467 0 -468 -70 0 c-379 -3
-1069 1 -1105 5 -25 4 -61 8 -80 11 -124 16 -306 78 -429 145 -486 266 -823
888 -806 1489 2 80 7 161 10 180 40 215 89 366 176 537 246 489 656 793 1121
831 102 9 1160 8 1174 0z m672 -1143 c299 -43 522 -182 626 -393 57 -115 67
-159 71 -307 3 -100 -4 -199 -19 -265 -3 -14 -8 -38 -12 -55 -38 -194 -174
-402 -343 -523 l-43 -32 27 -10 c46 -17 157 -94 218 -150 102 -94 192 -251
230 -405 31 -121 38 -308 17 -410 -68 -329 -394 -566 -862 -631 -24 -3 -361
-7 -750 -8 l-708 -3 -1 36 c-3 154 0 832 4 838 3 4 257 8 565 8 l560 -1 -2
716 -1 715 -562 3 -563 2 -1 38 c-1 47 0 753 0 810 l1 43 728 -2 c542 -1 751
-5 820 -14z"/>
</g>
</svg>
