<?xml version="1.0" standalone="no"?>
<!DOCTYPE svg PUBLIC "-//W3C//DTD SVG 20010904//EN"
 "http://www.w3.org/TR/2001/REC-SVG-20010904/DTD/svg10.dtd">
<svg version="1.0" xmlns="http://www.w3.org/2000/svg"
 width="16.000000pt" height="16.000000pt" viewBox="0 0 16.000000 16.000000"
 preserveAspectRatio="xMidYMid meet">
<metadata>
Created by potrace 1.11, written by Peter Selinger 2001-2013
</metadata>
<g transform="translate(0.000000,16.000000) scale(0.001524,-0.001524)"
fill="#000000" stroke="none">
<path d="M4805 7209 c-115 -76 -266 -175 -335 -219 -69 -45 -206 -135 -305
-200 -99 -65 -223 -146 -275 -180 -110 -70 -140 -90 -652 -425 -210 -137 -387
-251 -393 -253 -7 -2 -10 57 -10 198 0 110 -2 201 -5 201 -12 3 -856 5 -865 2
-7 -2 -10 -175 -9 -494 l1 -491 -178 -116 c-98 -65 -272 -178 -386 -252 -113
-74 -289 -189 -390 -255 -100 -66 -242 -159 -315 -206 -386 -252 -409 -267
-391 -273 20 -6 680 -153 718 -160 14 -3 33 -7 43 -10 9 -3 28 -7 42 -10 14
-3 68 -15 120 -26 129 -30 236 -54 355 -80 55 -12 107 -23 115 -25 8 -2 38 -9
65 -15 28 -6 57 -13 65 -15 8 -2 77 -17 153 -34 76 -17 145 -31 153 -31 9 0
61 30 117 67 56 36 152 98 212 138 124 82 402 263 515 336 41 27 173 113 292
191 120 79 321 211 448 293 127 83 308 201 403 263 936 613 900 590 920 580
11 -5 110 -69 220 -142 111 -73 258 -169 327 -213 69 -45 130 -86 136 -91 6
-6 25 -17 41 -26 29 -15 36 -13 184 38 378 131 732 253 1114 383 187 64 344
120 349 124 4 4 -2 12 -14 19 -12 6 -101 64 -198 127 -342 224 -398 261 -562
368 -91 59 -237 154 -325 212 -201 132 -410 268 -691 451 -120 79 -298 195
-394 258 -96 63 -182 119 -190 123 -11 6 -77 -33 -225 -130z"/>
<path d="M10105 6530 c-102 -36 -405 -140 -655 -225 -107 -36 -204 -70 -215
-75 -11 -5 -54 -20 -95 -34 -41 -13 -201 -68 -355 -121 -154 -53 -424 -146
-600 -207 -176 -60 -457 -157 -625 -214 -168 -58 -460 -159 -650 -224 -446
-153 -836 -288 -1130 -390 -129 -44 -242 -83 -250 -85 -8 -2 -94 -31 -190 -65
-272 -95 -321 -110 -334 -103 -6 3 -70 46 -142 93 -72 48 -135 89 -140 91 -5
2 -68 43 -141 91 l-132 88 -243 -158 c-134 -87 -308 -201 -388 -254 -80 -52
-206 -134 -280 -183 -364 -238 -336 -217 -314 -232 10 -8 57 -39 104 -70 447
-291 702 -457 788 -515 56 -37 106 -68 111 -68 5 0 11 -3 13 -8 2 -4 48 -36
103 -72 141 -90 475 -309 505 -330 14 -9 58 -38 97 -63 l72 -46 203 133 c112
74 275 181 363 239 88 58 300 197 470 309 171 113 362 238 425 280 63 41 196
128 295 193 99 65 245 161 325 213 80 52 169 111 198 131 29 20 61 41 70 46
17 10 74 48 447 293 105 69 267 176 360 237 94 61 265 174 380 250 116 76 262
172 325 213 149 97 519 341 685 451 71 47 132 87 136 89 8 3 402 263 459 301
53 37 48 37 -55 1z"/>
<path d="M8340 5134 c-51 -33 -510 -334 -775 -509 -126 -83 -274 -180 -327
-214 -54 -35 -98 -67 -98 -71 0 -4 35 -29 78 -57 42 -28 176 -116 297 -195
121 -79 258 -168 303 -198 l84 -53 56 11 c32 6 127 27 212 47 85 19 164 37
175 40 11 2 30 6 41 9 131 29 223 49 244 52 14 3 39 9 55 14 17 5 55 14 85 19
60 12 74 15 135 30 22 5 51 12 65 15 14 2 66 14 115 26 50 11 162 37 250 56
202 44 196 43 220 48 86 18 172 40 183 45 9 5 -38 41 -133 102 -81 52 -153
100 -160 107 -8 6 -16 12 -19 12 -3 0 -117 73 -253 163 -136 89 -310 203 -386
252 -76 50 -199 131 -275 181 l-138 91 -34 -23z"/>
</g>
</svg>
