<?xml version="1.0" standalone="no"?>
<!DOCTYPE svg PUBLIC "-//W3C//DTD SVG 20010904//EN"
 "http://www.w3.org/TR/2001/REC-SVG-20010904/DTD/svg10.dtd">
<svg version="1.0" xmlns="http://www.w3.org/2000/svg"
 width="300.000000pt" height="300.000000pt" viewBox="0 0 300.000000 300.000000"
 preserveAspectRatio="xMidYMid meet">
<metadata>
Created by potrace 1.11, written by Peter Selinger 2001-2013
</metadata>
<g transform="translate(0.000000,300.000000) scale(0.100000,-0.100000)"
fill="#000000" stroke="none">
<path d="M1340 2964 c-245 -31 -474 -116 -679 -251 -112 -74 -308 -270 -383
-383 -112 -169 -187 -348 -229 -545 -33 -154 -33 -421 -1 -572 113 -524 479
-941 973 -1107 171 -57 259 -71 469 -70 161 0 211 4 290 22 308 68 529 189
745 406 217 217 339 442 402 740 36 168 38 408 4 571 -49 243 -147 456 -288
632 -280 351 -676 548 -1118 558 -82 2 -166 1 -185 -1z m383 -140 c535 -90
960 -501 1084 -1049 26 -114 26 -437 0 -545 -63 -263 -172 -469 -345 -651
-341 -359 -835 -499 -1318 -373 -232 60 -431 178 -610 359 -196 198 -315 435
-364 720 -59 345 25 710 230 998 75 104 237 263 338 330 296 198 633 270 985
211z"/>
<path d="M1355 2710 c-471 -53 -877 -385 -1023 -836 -44 -134 -56 -222 -56
-384 1 -220 49 -410 150 -585 252 -444 737 -684 1240 -614 450 62 848 401 984
839 60 193 73 371 41 562 -67 389 -303 714 -647 890 -207 106 -460 153 -689
128z m85 -1190 l0 -790 -80 0 -80 0 0 338 0 337 -360 0 -360 0 0 -26 c0 -41
36 -171 71 -254 56 -135 149 -258 274 -363 l50 -42 -118 0 -118 0 -40 42 c-95
102 -196 281 -238 423 -75 256 -51 553 65 788 l28 58 58 -58 c32 -32 56 -62
54 -68 -50 -111 -80 -216 -88 -308 l-3 -38 363 -2 362 -2 0 371 c0 204 3 374
7 377 3 4 39 7 80 7 l73 0 0 -790z m280 415 l0 -374 351 -3 c193 -2 353 0 355
3 8 14 -28 193 -51 256 -50 132 -113 231 -212 333 l-53 56 55 54 55 54 41 -39
c110 -107 214 -278 269 -443 77 -233 63 -545 -35 -766 l-26 -59 -58 57 -57 56
28 84 c16 47 31 111 34 143 l6 58 -351 -3 -351 -3 -2 -337 -3 -337 -75 0 -75
0 -3 780 c-1 429 0 786 3 793 3 8 29 12 80 12 l75 0 0 -375z"/>
</g>
</svg>
