<?xml version="1.0" standalone="no"?>
<!DOCTYPE svg PUBLIC "-//W3C//DTD SVG 20010904//EN"
 "http://www.w3.org/TR/2001/REC-SVG-20010904/DTD/svg10.dtd">
<svg version="1.0" xmlns="http://www.w3.org/2000/svg"
 width="16.000000pt" height="16.000000pt" viewBox="0 0 16.000000 16.000000"
 preserveAspectRatio="xMidYMid meet">
<metadata>
Created by potrace 1.11, written by Peter Selinger 2001-2013
</metadata>
<g transform="translate(0.000000,16.000000) scale(0.001651,-0.001651)"
fill="#000000" stroke="none">
<path d="M6094 7583 c-42 -54 -169 -222 -282 -373 -242 -325 -460 -600 -493
-622 -13 -9 -21 -19 -17 -24 5 -4 43 -9 87 -12 70 -4 79 -2 83 14 7 25 203
294 343 469 121 152 454 518 526 576 24 21 41 40 37 44 -11 12 -87 24 -150 25
l-57 0 -77 -97z"/>
<path d="M4679 7288 c-9 -7 -38 -42 -64 -78 -27 -36 -124 -155 -215 -265 -92
-110 -216 -263 -275 -340 l-107 -140 -141 -88 c-77 -48 -191 -123 -253 -167
-63 -44 -116 -80 -119 -80 -3 0 -5 10 -5 23 0 42 92 165 242 324 32 34 58 66
58 72 0 17 -41 30 -148 48 -85 14 -97 14 -127 0 -38 -18 -224 -171 -379 -313
-60 -54 -132 -119 -160 -144 -49 -44 -50 -44 -26 -10 51 74 118 144 197 207
46 36 83 69 83 73 0 22 -170 67 -196 52 -9 -5 -42 -45 -73 -87 -51 -71 -66
-84 -171 -148 -107 -65 -253 -161 -327 -216 -50 -37 -57 -23 -23 46 39 78 152
200 236 255 35 23 64 46 64 50 0 10 -62 26 -132 34 -65 8 -64 9 -162 -119 -36
-48 -76 -86 -105 -103 -75 -44 -367 -242 -381 -259 -7 -8 -19 -15 -26 -15 -47
0 30 144 161 302 58 70 105 131 105 136 0 17 -77 33 -190 39 l-116 6 -59 -50
c-33 -28 -169 -161 -302 -296 -133 -136 -245 -247 -248 -247 -11 0 29 68 108
180 213 303 518 651 675 767 39 30 72 57 72 62 0 11 -138 51 -177 51 -28 0
-39 -10 -99 -87 -38 -49 -132 -165 -209 -259 -217 -262 -311 -382 -401 -511
-95 -134 -180 -293 -171 -317 8 -21 44 -34 110 -42 l52 -6 97 109 c211 236
534 533 568 521 6 -2 -10 -30 -36 -63 -70 -90 -138 -235 -138 -297 0 -41 5
-54 31 -80 33 -32 116 -61 152 -51 11 3 27 15 35 28 13 20 311 280 343 298 6
4 -2 -18 -19 -48 -54 -100 -35 -158 60 -184 67 -19 81 -14 151 52 145 135 355
309 336 277 -5 -8 -26 -41 -46 -72 -53 -83 -93 -186 -78 -204 12 -15 145 -20
164 -6 6 4 24 29 40 56 52 90 269 295 445 418 76 54 179 112 185 106 3 -2 -16
-29 -41 -58 -105 -123 -178 -255 -172 -312 4 -46 51 -75 135 -84 37 -4 72 -3
79 2 6 5 97 81 200 170 217 184 226 190 197 143 -32 -50 -81 -152 -88 -180 -9
-35 13 -50 84 -56 l59 -6 127 122 c104 98 130 118 139 107 6 -8 135 -67 286
-131 151 -65 325 -142 387 -172 125 -60 138 -60 167 1 21 45 20 63 -4 76 -10
6 -153 60 -316 121 -163 60 -308 115 -321 122 -23 12 -21 14 55 45 111 47 264
133 354 200 88 66 192 162 208 192 10 18 7 22 -25 36 -50 21 -225 49 -256 41
-46 -12 -393 -286 -630 -499 -42 -37 -80 -68 -84 -68 -22 0 140 235 286 413
204 248 374 424 477 492 23 15 41 33 39 39 -4 13 -95 45 -151 52 -27 4 -47 1
-57 -8z m142 -557 c-16 -28 -113 -114 -199 -175 -78 -54 -340 -202 -347 -194
-4 4 158 140 255 214 78 59 267 174 287 174 10 0 11 -5 4 -19z"/>
<path d="M2655 7136 c-799 -166 -1847 -415 -2231 -531 -133 -41 -199 -68 -227
-93 -38 -33 -44 -92 -10 -92 8 0 114 29 236 65 196 58 631 175 650 175 4 0 2
-10 -4 -22 -17 -34 -210 -306 -313 -443 -178 -237 -603 -761 -642 -792 -21
-17 -35 -35 -31 -40 13 -13 179 -16 223 -4 36 10 48 22 104 103 410 597 904
1244 979 1282 50 26 457 124 1126 271 215 47 419 92 454 100 75 16 86 24 68
50 -26 35 -102 29 -382 -29z"/>
<path d="M2965 6846 c-57 -25 -255 -258 -255 -300 0 -20 43 -38 69 -28 30 11
249 210 282 256 38 51 37 63 -8 75 -47 13 -51 13 -88 -3z"/>
<path d="M5282 6469 c-24 -4 -62 -19 -85 -31 -48 -26 -107 -107 -107 -146 0
-25 0 -25 67 -19 72 7 70 6 202 111 59 48 74 72 49 81 -34 10 -87 12 -126 4z"/>
<path d="M2489 5795 c-5 -5 -24 -15 -42 -22 l-32 -11 43 -1 c53 -1 107 -23
121 -49 7 -13 11 -108 11 -260 0 -267 3 -254 -72 -277 -24 -7 -43 -18 -43 -25
0 -10 65 -13 290 -14 262 -1 290 1 293 15 2 14 -9 18 -60 24 -76 9 -116 28
-128 61 -14 37 -13 197 2 212 9 9 78 12 250 12 211 0 238 -2 246 -17 12 -21 3
-224 -11 -241 -5 -6 -30 -18 -56 -26 -25 -7 -46 -19 -46 -26 0 -15 548 -24
577 -9 30 16 12 27 -56 34 -73 8 -123 34 -131 68 -3 12 -5 127 -3 256 3 261 1
253 79 266 37 6 57 20 46 31 -7 7 -536 13 -569 7 -59 -11 -22 -43 50 -43 37 0
102 -25 114 -43 4 -7 8 -51 8 -98 0 -70 -3 -88 -16 -93 -9 -3 -119 -6 -245 -6
-196 0 -230 2 -235 15 -4 9 -7 56 -8 106 -1 99 0 100 69 121 44 12 62 24 53
34 -11 11 -488 10 -499 -1z"/>
<path d="M4115 5675 c-209 -46 -328 -144 -328 -269 0 -181 236 -300 557 -283
167 9 294 52 381 128 100 88 100 234 -1 318 -56 46 -148 89 -229 106 -87 18
-298 18 -380 0z m285 -44 c77 -29 115 -64 151 -136 28 -56 31 -72 26 -119 -8
-75 -39 -131 -93 -166 -196 -124 -473 -3 -474 208 0 107 63 190 170 223 50 15
168 10 220 -10z"/>
<path d="M5195 5676 c-211 -49 -328 -145 -328 -270 0 -181 236 -300 557 -283
167 9 294 52 381 128 82 72 99 182 41 269 -34 51 -128 113 -215 142 -85 27
-342 35 -436 14z m285 -45 c77 -29 115 -64 151 -136 28 -56 31 -72 26 -119 -8
-75 -39 -131 -93 -166 -196 -124 -473 -3 -474 208 0 107 63 190 170 223 50 15
168 10 220 -10z"/>
<path d="M5830 5680 c-21 -13 -1 -30 34 -30 46 0 95 -19 106 -40 12 -22 13
-399 2 -417 -4 -7 -25 -19 -46 -26 -20 -7 -37 -17 -37 -22 1 -13 448 -17 457
-4 9 15 2 19 -62 29 -81 13 -96 33 -92 119 3 65 3 66 42 88 l40 22 119 -112
c179 -169 152 -157 350 -157 126 0 168 3 165 12 -2 6 -26 17 -54 23 -27 6 -62
19 -79 27 -29 16 -327 274 -333 288 -5 13 261 148 314 161 64 15 98 28 91 36
-3 3 -88 6 -188 6 -134 1 -184 -2 -187 -11 -2 -7 12 -14 37 -18 54 -9 59 -29
13 -57 -85 -54 -312 -168 -322 -162 -15 9 -13 168 3 189 7 10 29 21 47 25 19
4 35 13 35 20 0 9 -51 13 -221 16 -122 2 -227 -1 -234 -5z"/>
<path d="M6979 5678 c-26 -10 -15 -28 15 -28 44 0 85 -12 105 -32 20 -18 21
-29 21 -222 0 -221 1 -217 -59 -233 -86 -22 -29 -28 282 -30 364 -2 391 2 434
66 50 73 18 104 -56 56 -71 -47 -139 -67 -247 -73 -94 -4 -103 -3 -123 17 -17
17 -21 33 -21 92 0 104 5 109 101 109 89 0 144 -18 154 -52 11 -31 50 -20 49
15 -3 133 -5 148 -20 154 -9 3 -28 -6 -48 -26 -37 -36 -81 -51 -149 -51 -78 0
-87 9 -87 90 0 58 4 74 21 91 19 19 30 21 128 17 118 -4 176 -24 192 -65 6
-18 15 -23 32 -21 20 3 22 7 19 63 -2 33 -5 61 -7 63 -7 7 -717 7 -736 0z"/>
<path d="M7944 5235 c-59 -35 -61 -49 -10 -84 70 -49 73 -77 14 -132 -57 -52
-32 -61 55 -20 87 42 137 97 137 152 0 35 -6 47 -36 75 -45 43 -99 46 -160 9z"/>
<path d="M1855 5090 c-12 -19 7 -30 50 -30 54 0 122 -26 135 -51 6 -10 10
-122 10 -258 l0 -240 -26 -20 c-15 -12 -35 -21 -45 -21 -26 0 -49 -11 -49 -24
0 -8 80 -11 293 -11 253 0 292 2 292 15 0 9 -11 16 -25 18 -97 10 -115 15
-142 42 -27 27 -28 32 -28 124 0 73 4 98 16 110 13 14 49 16 242 16 125 0 233
-4 241 -9 11 -7 14 -35 12 -127 -1 -65 -4 -121 -7 -126 -3 -4 -30 -15 -60 -24
-29 -8 -54 -21 -54 -27 0 -18 582 -17 587 0 6 16 -6 20 -81 28 -47 5 -66 13
-88 35 l-28 28 0 237 0 236 25 24 c13 14 34 25 45 25 26 0 62 18 56 29 -3 4
-137 7 -298 7 -254 -1 -293 -3 -293 -16 0 -11 17 -17 69 -22 44 -4 79 -14 95
-26 25 -18 26 -24 26 -113 l0 -94 -239 -3 c-132 -1 -243 1 -248 6 -4 4 -10 46
-14 92 -7 101 1 117 71 140 26 8 48 19 48 25 3 13 -580 18 -588 5z"/>
<path d="M3585 4974 c-48 -9 -112 -30 -160 -53 -126 -60 -178 -124 -178 -216
0 -127 119 -230 314 -271 117 -25 339 -15 446 20 95 31 188 90 222 141 36 53
41 139 11 199 -72 151 -367 231 -655 180z m292 -54 c70 -30 126 -93 149 -164
15 -49 16 -65 6 -113 -24 -113 -108 -176 -247 -181 -136 -6 -238 47 -289 150
-65 131 -4 279 134 323 64 21 181 14 247 -15z"/>
<path d="M4665 4974 c-48 -9 -112 -30 -160 -53 -126 -60 -178 -124 -178 -216
0 -127 119 -230 314 -271 117 -25 339 -15 446 20 95 31 188 90 222 141 36 53
41 139 11 199 -72 151 -367 231 -655 180z m292 -54 c70 -30 126 -93 149 -164
15 -49 16 -65 6 -113 -24 -113 -108 -176 -247 -181 -136 -6 -238 47 -289 150
-65 131 -4 279 134 323 64 21 181 14 247 -15z"/>
<path d="M5312 4982 c-37 -11 -26 -26 24 -34 26 -4 59 -15 73 -26 l26 -19 3
-203 c2 -139 -1 -207 -9 -216 -6 -7 -26 -16 -45 -20 -35 -6 -51 -20 -39 -32 3
-3 38 -5 78 -3 40 2 141 4 226 5 114 1 155 4 158 14 3 8 -5 12 -24 12 -48 0
-102 20 -118 43 -17 24 -21 118 -5 146 5 10 23 24 40 31 37 15 30 20 194 -132
l125 -117 168 -3 c92 -2 172 1 178 5 14 11 -10 24 -61 32 -23 3 -60 18 -82 33
-46 32 -322 274 -322 283 0 13 308 161 349 167 25 4 46 13 48 19 3 9 -40 13
-169 15 -95 2 -179 1 -186 -1 -23 -6 -6 -26 26 -29 42 -4 57 -24 34 -44 -27
-25 -319 -178 -337 -178 -15 0 -17 12 -13 95 2 53 8 99 15 106 6 6 26 14 44
18 18 4 34 12 36 18 3 8 -40 11 -144 10 -81 0 -175 3 -208 6 -33 3 -70 3 -83
-1z"/>
<path d="M6426 4971 c-9 -13 2 -18 57 -26 26 -4 58 -16 72 -27 l25 -19 0 -204
c0 -201 0 -205 -22 -219 -13 -7 -35 -16 -50 -20 -25 -6 -40 -26 -20 -26 4 0
149 -1 322 -2 302 -2 317 -1 362 19 67 30 114 114 73 129 -8 3 -40 -10 -72
-30 -83 -51 -181 -72 -315 -67 -57 2 -68 20 -68 111 0 101 8 110 101 110 77 0
129 -17 152 -50 21 -30 52 -23 51 13 -3 133 -5 148 -20 154 -9 3 -28 -6 -47
-25 -41 -40 -75 -52 -143 -52 -85 0 -94 8 -94 88 0 100 7 107 122 107 133 0
166 -9 211 -58 33 -36 39 -39 52 -26 12 12 14 27 8 70 l-8 54 -372 3 c-225 1
-374 -1 -377 -7z"/>
<path d="M7900 4904 c-19 -8 -42 -22 -52 -31 -20 -18 -25 -78 -7 -89 6 -3 -17
-20 -52 -38 -72 -35 -107 -82 -96 -128 11 -43 66 -87 137 -109 85 -26 271 -28
378 -4 69 16 79 16 160 0 135 -27 312 -12 312 26 0 7 -12 9 -33 5 -41 -8 -114
6 -191 34 l-58 22 21 22 c11 12 27 39 36 60 9 21 25 40 36 43 50 13 8 23 -101
23 -123 0 -159 -13 -70 -25 54 -7 76 -30 65 -64 -15 -47 -29 -45 -152 18 -155
81 -255 154 -251 184 10 72 178 45 232 -38 19 -29 63 -36 51 -7 -4 9 -9 35
-12 58 l-5 41 -97 7 c-146 9 -213 7 -251 -10z m52 -211 c46 -31 128 -78 182
-104 91 -44 97 -48 72 -55 -58 -14 -160 2 -229 36 -70 34 -147 106 -147 138 0
18 18 42 32 42 4 0 45 -25 90 -57z"/>
<path d="M1798 4390 c-34 -8 -29 -34 7 -38 90 -7 119 -15 141 -37 24 -24 24
-24 24 -274 0 -249 0 -251 -22 -265 -13 -8 -40 -18 -61 -21 -26 -5 -37 -12
-35 -22 3 -12 63 -15 403 -16 355 -2 406 0 456 15 73 23 129 81 129 133 0 30
-3 35 -24 35 -14 0 -46 -14 -71 -31 -67 -45 -168 -77 -278 -89 -97 -10 -190
-1 -211 20 -14 14 -10 220 4 234 16 16 156 20 217 6 41 -9 60 -19 81 -46 16
-21 36 -34 50 -34 22 0 22 1 19 113 -3 108 -4 112 -26 115 -16 3 -35 -7 -60
-31 -47 -45 -86 -57 -187 -57 -108 0 -114 6 -114 110 0 62 4 83 19 101 19 23
24 24 163 24 133 0 147 -2 193 -25 30 -15 55 -36 63 -52 10 -22 20 -28 44 -28
l31 0 -7 73 c-4 39 -11 76 -15 80 -9 9 -896 15 -933 7z"/>
<path d="M3229 4275 c-232 -44 -377 -173 -352 -315 18 -108 104 -182 264 -226
94 -27 326 -24 431 4 111 30 228 93 228 124 0 15 -42 8 -74 -11 -17 -11 -70
-31 -118 -46 -77 -24 -100 -27 -185 -23 -68 3 -115 12 -155 27 -196 76 -223
318 -44 406 42 21 76 28 138 32 145 9 253 -27 352 -117 32 -28 63 -49 69 -47
16 5 10 147 -7 165 -10 10 -18 11 -38 1 -21 -9 -43 -7 -119 11 -120 28 -286
35 -390 15z"/>
<path d="M6794 4043 c-115 -137 -215 -254 -224 -260 -8 -7 -34 -18 -57 -24
-24 -6 -43 -17 -43 -23 0 -9 49 -13 190 -14 160 -1 190 1 190 13 0 10 -10 15
-27 15 -47 0 -102 20 -113 40 -12 22 -2 50 33 88 20 21 27 22 198 22 l178 0
36 -44 c46 -56 44 -85 -5 -101 -19 -7 -35 -16 -35 -21 0 -5 97 -10 223 -11
238 -1 269 6 172 40 -47 17 -61 32 -256 272 -161 200 -211 255 -229 255 -18 0
-70 -56 -231 -247z m215 4 c34 -43 59 -82 56 -87 -4 -6 -62 -10 -132 -10 -107
0 -124 2 -119 15 5 15 128 166 132 162 1 -1 29 -37 63 -80z"/>
<path d="M3875 4269 c-12 -18 5 -27 60 -31 83 -7 99 -27 103 -131 1 -45 -1
-138 -5 -207 l-8 -124 -45 -17 c-25 -9 -44 -20 -43 -24 2 -5 110 -9 240 -9
205 -1 238 1 238 14 0 11 -16 17 -58 21 -84 9 -97 25 -97 115 l0 74 41 20 40
21 117 -103 c64 -57 134 -118 155 -136 l38 -32 179 0 c153 0 180 2 180 15 0 9
-9 15 -23 15 -73 0 -124 30 -293 171 -93 77 -173 144 -177 149 -15 14 283 156
357 170 116 24 75 35 -132 36 -157 1 -192 -1 -192 -12 0 -9 11 -14 28 -14 33
0 68 -22 58 -38 -6 -11 -322 -176 -357 -187 -18 -6 -19 1 -19 89 0 106 6 119
65 130 20 4 35 12 33 18 -5 13 -475 21 -483 7z"/>
<path d="M5080 4265 c0 -9 17 -16 48 -21 62 -9 101 -29 112 -59 5 -14 5 -91 0
-191 -11 -194 -17 -209 -94 -233 -84 -26 -50 -36 132 -37 132 -1 172 2 172 11
0 7 -21 18 -47 25 -27 6 -58 21 -70 32 -22 20 -23 29 -22 142 0 67 3 129 7
138 6 14 42 -23 165 -167 87 -102 165 -185 172 -185 8 0 72 69 142 152 71 84
145 171 165 193 l37 40 1 -35 c0 -19 5 -89 10 -154 11 -135 7 -149 -56 -160
-19 -4 -34 -12 -34 -19 0 -14 446 -18 469 -3 21 13 -6 26 -57 26 -32 0 -49 6
-67 25 -14 13 -25 30 -26 37 0 7 -6 85 -12 173 -7 88 -11 170 -9 183 4 27 56
62 92 62 28 0 58 16 48 25 -10 10 -281 14 -299 4 -9 -5 -85 -90 -169 -188
l-151 -180 -151 177 c-83 97 -154 181 -159 186 -4 4 -84 10 -178 12 -140 2
-171 0 -171 -11z"/>
<path d="M7641 4271 c-24 -15 -3 -28 54 -33 95 -8 95 -9 95 -238 0 -224 2
-219 -83 -241 -27 -6 -46 -17 -44 -23 2 -7 60 -11 183 -11 152 0 179 2 179 15
0 11 -15 16 -56 20 -97 9 -99 13 -99 212 0 115 3 168 11 168 6 0 173 -97 370
-216 206 -123 366 -213 375 -210 12 4 14 44 14 234 0 216 1 231 21 255 11 15
38 32 60 38 21 7 39 18 39 24 0 9 -41 11 -167 8 -93 -3 -174 -6 -181 -9 -25
-8 0 -24 37 -24 50 0 99 -18 111 -40 13 -24 13 -257 1 -264 -5 -4 -139 71
-297 165 l-287 171 -161 4 c-89 2 -167 0 -175 -5z"/>
<path d="M2750 3309 l0 -160 43 3 42 3 3 58 3 57 42 0 c36 0 54 -10 121 -60
76 -57 82 -60 138 -60 32 0 58 3 58 8 0 4 -35 30 -77 57 -66 42 -73 50 -53 53
85 9 100 25 100 103 0 98 -3 99 -230 99 l-190 0 0 -161z m326 86 c4 -8 3 -26
0 -40 -6 -25 -7 -25 -121 -25 l-115 0 0 40 0 40 115 0 c94 0 117 -3 121 -15z"/>
<path d="M3422 3313 l3 -158 200 0 200 0 0 30 0 30 -152 3 -153 3 0 34 0 35
91 0 90 0 -3 28 c-3 27 -3 27 -90 30 l-88 3 0 29 0 30 150 0 150 0 0 30 0 30
-200 0 -201 0 3 -157z"/>
<path d="M4117 3316 c-59 -85 -107 -157 -107 -160 0 -3 20 -6 44 -6 40 0 47 4
66 35 l22 35 123 0 123 0 26 -35 c24 -31 32 -35 73 -35 35 0 44 3 40 14 -3 8
-52 80 -109 160 l-102 146 -46 0 -46 0 -107 -154z m188 32 c19 -29 35 -56 35
-60 0 -5 -34 -8 -75 -8 -41 0 -75 2 -75 5 0 7 72 115 76 115 2 0 19 -24 39
-52z"/>
<path d="M4732 3313 l3 -158 190 0 190 0 0 30 0 30 -142 3 -143 3 0 124 0 125
-50 0 -51 0 3 -157z"/>
<path d="M5220 3440 l0 -30 85 0 84 0 3 -127 3 -128 45 0 45 0 3 127 3 127 87
3 c87 3 87 3 90 31 l3 27 -225 0 -226 0 0 -30z"/>
<path d="M5909 3451 c-23 -18 -24 -25 -24 -140 0 -166 -16 -156 240 -156 252
0 239 -8 243 141 4 116 -6 159 -41 168 -12 3 -106 6 -208 6 -169 0 -189 -2
-210 -19z m361 -136 l0 -95 -145 0 -145 0 0 95 0 95 145 0 145 0 0 -95z"/>
<path d="M6642 3313 l3 -158 43 -3 42 -3 0 60 0 61 45 0 c39 0 54 -7 123 -61
l79 -60 64 3 64 3 -83 56 -83 56 46 5 c66 8 75 19 75 99 0 99 0 99 -232 99
l-189 0 3 -157z m326 60 l-3 -38 -117 -3 -118 -3 0 41 0 40 121 0 120 0 -3
-37z"/>
<path d="M7392 3454 c-19 -13 -22 -24 -22 -78 0 -47 4 -67 16 -77 12 -10 59
-15 165 -18 l149 -3 0 -29 0 -29 -135 0 c-113 0 -135 2 -135 15 0 16 -20 19
-57 9 -30 -8 -30 -44 -2 -70 19 -17 38 -19 200 -19 208 0 210 1 217 89 4 48 2
57 -21 80 -26 26 -29 26 -172 26 l-145 0 0 30 0 30 125 0 c109 0 125 -2 125
-16 0 -13 7 -15 31 -10 17 3 35 6 40 6 19 0 8 49 -13 64 -18 13 -54 16 -183
16 -129 0 -165 -3 -183 -16z"/>
<path d="M7940 3240 l0 -50 55 0 c30 0 55 5 55 10 0 6 -18 10 -40 10 l-40 0 0
40 c0 29 -4 40 -15 40 -11 0 -15 -12 -15 -50z"/>
<path d="M8080 3240 l0 -50 55 0 c30 0 55 5 55 10 0 6 -18 10 -40 10 l-40 0 0
40 c0 29 -4 40 -15 40 -11 0 -15 -12 -15 -50z"/>
<path d="M8214 3265 c-3 -14 -3 -36 0 -50 6 -23 11 -25 60 -25 40 0 55 4 60
16 9 22 8 24 -9 24 -8 0 -15 -4 -15 -10 0 -5 -16 -10 -35 -10 -32 0 -35 2 -35
30 0 27 3 30 34 30 19 0 36 -5 38 -12 2 -6 9 -8 16 -4 6 3 9 13 5 21 -3 11
-21 15 -59 15 -49 0 -54 -2 -60 -25z"/>
<path d="M5742 2990 c-19 -10 -65 -24 -103 -31 -71 -13 -106 -33 -75 -45 9 -3
26 -4 39 0 45 11 48 2 45 -195 l-3 -184 -42 -9 c-24 -6 -43 -16 -43 -23 0 -10
34 -13 150 -15 83 -1 158 -2 168 -2 37 -2 16 28 -28 38 l-45 11 -5 234 c-3
144 -9 235 -15 237 -5 2 -25 -6 -43 -16z"/>
<path d="M3785 2983 c-61 -18 -129 -62 -133 -86 -5 -23 12 -21 75 9 62 31 111
28 149 -7 58 -54 16 -133 -175 -331 -41 -43 -73 -78 -70 -79 2 -1 94 -2 204
-3 200 -2 200 -2 222 22 28 31 64 124 52 136 -5 6 -25 -2 -50 -19 -36 -26 -52
-30 -133 -33 -154 -7 -153 -8 -35 84 121 95 164 148 164 206 0 93 -134 143
-270 101z"/>
<path d="M4509 2959 c-76 -60 -318 -299 -334 -330 -24 -44 -7 -49 141 -42
l133 6 3 -84 3 -84 45 2 c90 4 90 4 90 88 l0 75 35 0 c40 0 62 26 72 84 5 31
3 36 -14 36 -12 0 -26 -7 -33 -15 -7 -8 -23 -15 -36 -15 l-23 0 -3 157 c-2
104 -7 158 -14 160 -6 2 -35 -15 -65 -38z m-59 -194 l0 -85 -80 0 c-53 0 -80
4 -80 11 0 9 148 159 157 159 2 0 3 -38 3 -85z"/>
<path d="M4835 2982 c-71 -24 -110 -55 -134 -105 -32 -66 -24 -116 26 -169 51
-54 163 -67 248 -29 26 12 49 21 51 21 13 0 -41 -82 -71 -108 -47 -42 -80 -58
-161 -79 -37 -10 -66 -22 -65 -28 3 -18 133 -10 207 13 176 54 290 208 254
342 -34 125 -205 194 -355 142z m151 -39 c31 -20 64 -83 64 -122 0 -63 -44
-111 -102 -111 -57 0 -127 81 -128 148 0 30 25 78 47 91 27 16 91 13 119 -6z"/>
<path d="M6054 2986 c-91 -22 -144 -74 -144 -140 0 -33 7 -45 42 -79 29 -28
38 -42 29 -45 -8 -3 -30 -19 -50 -37 -30 -28 -36 -40 -36 -75 0 -37 6 -47 38
-75 48 -41 112 -60 207 -59 130 1 219 44 244 118 24 69 -14 137 -95 173 l-38
16 41 20 c53 26 76 72 57 112 -37 75 -158 104 -295 71z m166 -45 c32 -23 49
-83 30 -107 -22 -26 -53 -33 -104 -23 -153 28 -183 117 -51 150 41 10 95 2
125 -20z m51 -307 c28 -25 21 -71 -14 -98 -22 -16 -43 -21 -90 -21 -133 1
-211 96 -147 178 l20 25 106 -33 c58 -18 114 -41 125 -51z"/>
<path d="M6784 2954 c-68 -54 -296 -276 -326 -317 -16 -22 -17 -31 -8 -42 10
-12 36 -14 146 -8 l133 6 3 -84 3 -84 48 2 c79 5 87 13 87 93 l0 70 35 0 c39
0 58 22 70 78 8 39 -15 54 -44 28 -10 -9 -27 -16 -39 -16 -21 0 -22 4 -24 157
-2 107 -7 158 -14 160 -7 2 -38 -17 -70 -43z m-54 -189 l0 -85 -80 0 c-57 0
-80 4 -80 13 0 10 146 157 157 157 2 0 3 -38 3 -85z"/>
<path d="M7369 2958 c-64 -50 -303 -281 -331 -321 -16 -22 -17 -31 -8 -42 10
-12 36 -14 146 -8 l133 6 3 -84 3 -84 55 3 c30 2 60 8 67 14 8 7 13 35 13 79
l0 69 35 0 c39 0 58 22 70 78 8 39 -15 54 -44 28 -10 -9 -27 -16 -39 -16 -21
0 -22 4 -24 157 -2 104 -7 158 -14 160 -6 2 -35 -15 -65 -39z m-59 -193 l0
-85 -80 0 c-57 0 -80 4 -80 13 0 9 147 157 157 157 2 0 3 -38 3 -85z"/>
<path d="M2958 2849 c-13 -8 -23 -89 -12 -89 5 0 17 9 27 20 14 16 29 20 87
20 38 0 70 -4 70 -9 0 -4 -17 -28 -38 -52 -70 -81 -82 -101 -82 -135 0 -27 5
-35 24 -40 14 -3 34 -3 46 1 17 5 20 12 14 40 -4 26 2 51 29 112 45 99 54 133
36 134 -51 4 -193 3 -201 -2z"/>
<path d="M3280 2851 c-8 -5 -32 -11 -53 -15 -38 -7 -43 -26 -6 -26 18 0 19 -8
19 -100 0 -92 -1 -100 -19 -100 -11 0 -23 -4 -26 -10 -4 -6 29 -10 91 -10 59
0 94 4 89 9 -6 5 -19 11 -30 13 -19 3 -20 12 -23 126 -3 125 -6 133 -42 113z"/>
<path d="M3361 2845 c-13 -16 -22 -65 -15 -76 4 -6 14 -2 25 10 16 17 32 21
89 21 39 0 70 -4 70 -9 0 -5 -25 -39 -55 -76 -77 -95 -85 -155 -20 -155 36 0
49 16 47 57 -2 27 8 61 33 116 20 43 35 88 33 100 -3 20 -9 21 -101 22 -55 0
-102 -4 -106 -10z"/>
<path d="M5375 2818 c-34 -19 -75 -61 -75 -78 0 -26 63 -80 102 -86 31 -5 41
-1 77 31 22 21 41 44 41 52 0 9 -17 33 -39 54 -40 40 -69 48 -106 27z"/>
</g>
</svg>
