<?xml version="1.0" standalone="no"?>
<!DOCTYPE svg PUBLIC "-//W3C//DTD SVG 20010904//EN"
 "http://www.w3.org/TR/2001/REC-SVG-20010904/DTD/svg10.dtd">
<svg version="1.0" xmlns="http://www.w3.org/2000/svg"
 width="300.000000pt" height="300.000000pt" viewBox="0 0 300.000000 300.000000"
 preserveAspectRatio="xMidYMid meet">
<metadata>
Created by potrace 1.11, written by Peter Selinger 2001-2013
</metadata>
<g transform="translate(0.000000,300.000000) scale(0.100000,-0.100000)"
fill="#000000" stroke="none">
<path d="M2384 2532 c2 -4 -10 -8 -27 -8 -29 0 -104 -28 -117 -44 -25 -29
-229 -140 -257 -140 -7 0 -13 -5 -13 -12 0 -6 -3 -9 -6 -5 -3 3 -23 -1 -45 -8
-22 -8 -41 -14 -44 -15 -3 0 -6 0 -7 -1 -20 -6 -118 -23 -193 -34 -11 -1 -22
-4 -25 -5 -11 -5 -280 -5 -280 1 0 3 -19 6 -42 8 -40 2 -83 8 -83 11 0 3 -51
12 -72 13 -13 1 -23 4 -23 7 0 3 -12 7 -26 8 -15 1 -33 7 -40 13 -8 6 -14 8
-14 4 0 -4 -7 -2 -15 5 -8 7 -15 10 -15 7 0 -4 -42 15 -92 40 -81 40 -111 59
-165 103 -7 6 -17 10 -23 10 -5 0 -10 5 -10 12 0 6 -3 9 -6 5 -4 -3 -18 0 -33
7 -32 16 -118 14 -151 -4 -30 -16 -80 -65 -80 -78 0 -5 -6 -15 -14 -21 -15
-13 -20 -131 -5 -131 5 0 9 -8 9 -17 1 -10 20 -45 45 -78 69 -94 161 -294 169
-367 1 -10 5 -20 8 -24 4 -3 4 -13 1 -22 -4 -8 -2 -13 3 -10 5 4 10 -10 10
-30 1 -21 4 -59 8 -87 11 -73 7 -390 -4 -390 -1 0 -3 -11 -5 -25 -2 -23 -13
-80 -19 -105 -12 -46 -20 -72 -25 -80 -3 -5 -7 -19 -8 -29 -2 -11 -8 -25 -13
-31 -5 -7 -7 -15 -3 -18 3 -4 0 -7 -7 -7 -7 0 -11 -3 -7 -6 8 -8 -43 -101
-104 -192 -27 -39 -46 -72 -43 -72 4 0 0 -8 -8 -17 -18 -21 -26 -139 -9 -128
7 3 11 -2 11 -14 0 -18 71 -100 88 -102 4 0 16 -3 27 -5 48 -12 99 -9 138 8
45 20 147 86 159 103 5 7 8 7 8 0 0 -7 3 -7 8 0 10 13 119 65 137 65 8 0 15 5
15 11 0 6 7 9 15 5 8 -3 15 -2 15 2 0 4 8 9 17 10 21 2 57 10 61 12 1 2 7 4
12 5 6 1 11 4 13 5 1 1 13 4 27 5 14 2 40 6 57 9 18 3 46 8 62 10 17 2 35 7
42 12 8 5 9 3 4 -6 -6 -9 -4 -11 5 -5 15 9 270 14 270 5 0 -3 10 -6 23 -7 12
0 42 -4 67 -7 25 -4 64 -9 88 -12 23 -3 42 -9 42 -13 0 -4 11 -8 24 -9 13 -1
44 -10 70 -21 25 -11 46 -17 46 -13 0 4 4 1 9 -6 4 -7 18 -14 29 -15 12 -1 22
-5 22 -10 0 -4 5 -5 10 -2 6 3 10 2 10 -3 0 -4 17 -16 37 -26 21 -10 53 -30
73 -45 90 -71 178 -93 250 -63 44 18 90 67 105 112 15 46 16 63 4 71 -9 5 -10
9 -2 9 22 0 -7 71 -66 159 -83 125 -134 240 -157 356 -9 44 -8 40 -17 75 -4
14 -9 50 -11 80 -3 30 -5 55 -6 55 -1 0 -3 55 -4 122 -1 67 1 120 5 117 9 -5
6 17 -4 32 -3 6 -3 14 0 18 7 7 11 21 17 76 2 19 5 35 6 35 1 0 4 11 6 25 3
14 9 43 15 65 6 22 13 49 15 60 2 11 8 21 14 23 6 2 8 7 5 12 -9 14 66 162
122 243 30 42 51 77 47 77 -3 0 -1 7 6 15 7 8 9 15 5 15 -4 0 -3 6 3 13 12 15
8 82 -7 121 -17 43 -64 83 -122 106 -28 11 -48 17 -45 12z m-925 -486 l53 -54
51 54 c27 30 54 54 59 54 14 0 68 -53 68 -65 0 -6 -22 -33 -50 -60 -27 -27
-50 -52 -50 -56 0 -3 122 -128 270 -276 149 -149 270 -273 270 -276 0 -3 -14
-21 -32 -41 l-32 -36 -61 60 -61 61 1 -218 c0 -120 -1 -227 -3 -238 -3 -20
-10 -21 -190 -20 l-187 0 -1 -45 c-1 -25 -2 -47 -3 -50 -2 -10 -101 -8 -102 1
0 5 -2 28 -2 52 l-2 42 -180 1 c-99 1 -185 2 -190 3 -7 1 -11 78 -10 232 0
127 -2 232 -5 234 -3 2 -16 -12 -30 -30 -14 -19 -35 -39 -47 -46 -12 -7 -20
-16 -17 -21 3 -4 -1 -8 -9 -8 -16 0 -77 53 -77 65 0 5 122 129 270 278 149
148 270 273 270 277 0 4 -24 30 -54 58 l-53 51 30 35 c17 20 36 36 42 36 6 0
35 -24 64 -54z"/>
<path d="M1295 1630 c-134 -134 -202 -208 -187 -205 12 2 22 -1 22 -6 0 -6 6
-7 13 -2 26 16 39 12 34 -13 -2 -13 0 -24 6 -24 5 0 4 -7 -3 -15 -8 -10 -9
-15 -1 -15 7 0 8 -8 1 -25 -5 -14 -5 -27 -1 -30 10 -6 9 -24 -2 -42 -5 -8 -3
-13 3 -13 7 0 8 -6 2 -16 -5 -8 -6 -35 -2 -59 4 -27 3 -48 -4 -55 -7 -7 -6
-10 2 -10 9 0 10 -5 3 -18 -13 -24 -1 -39 27 -37 13 1 25 -2 28 -6 2 -5 16 -4
29 1 16 6 25 6 25 -1 0 -6 7 -6 19 1 12 6 22 6 26 1 3 -6 17 -6 33 -1 16 4 35
4 43 -1 8 -4 21 -4 29 1 12 8 15 42 17 177 0 92 2 177 2 188 1 17 8 20 44 19
24 0 49 -4 55 -8 7 -4 12 -3 12 2 0 10 92 8 109 -2 6 -4 11 -3 11 2 0 10 92 8
109 -2 6 -4 11 -3 11 2 0 5 25 8 55 6 30 -1 55 1 55 5 0 7 -403 411 -410 411
-3 0 -100 -94 -215 -210z"/>
<path d="M1564 1294 c3 -13 1 -26 -3 -28 -8 -5 -7 -47 1 -62 3 -5 4 -18 1 -29
-7 -36 -1 -113 10 -132 5 -8 17 -9 37 -3 18 5 32 5 35 -1 4 -5 14 -5 26 1 13
8 19 7 19 0 0 -7 6 -8 19 0 14 7 22 7 26 0 5 -8 11 -8 20 0 9 8 15 8 20 0 3
-6 12 -7 18 -3 7 4 20 6 30 5 12 -3 17 4 18 25 1 15 0 33 -1 38 -2 12 -3 75 0
90 5 26 1 107 -5 113 -4 4 -67 8 -141 8 l-134 1 4 -23z"/>
</g>
</svg>
