<?xml version="1.0" standalone="no"?>
<!DOCTYPE svg PUBLIC "-//W3C//DTD SVG 20010904//EN"
 "http://www.w3.org/TR/2001/REC-SVG-20010904/DTD/svg10.dtd">
<svg version="1.0" xmlns="http://www.w3.org/2000/svg"
 width="300.000000pt" height="300.000000pt" viewBox="0 0 300.000000 300.000000"
 preserveAspectRatio="xMidYMid meet">
<metadata>
Created by potrace 1.11, written by Peter Selinger 2001-2013
</metadata>
<g transform="translate(0.000000,300.000000) scale(0.100000,-0.100000)"
fill="#000000" stroke="none">
<path d="M1302 2504 c-437 -77 -767 -417 -839 -864 -9 -51 -8 -227 1 -290 33
-240 177 -492 366 -641 41 -33 80 -64 86 -69 24 -19 171 -89 229 -108 422
-144 884 -2 1148 353 79 107 153 255 173 350 2 11 6 31 9 45 16 75 19 105 19
210 1 144 -18 266 -55 355 -7 17 -13 32 -14 35 -15 61 -132 243 -201 315 -57
59 -142 130 -199 166 -93 60 -245 121 -335 135 -19 3 -39 8 -44 11 -18 12
-275 9 -344 -3z"/>
</g>
</svg>
