<?xml version="1.0" standalone="no"?>
<!DOCTYPE svg PUBLIC "-//W3C//DTD SVG 20010904//EN"
 "http://www.w3.org/TR/2001/REC-SVG-20010904/DTD/svg10.dtd">
<svg version="1.0" xmlns="http://www.w3.org/2000/svg"
 width="16.000000pt" height="16.000000pt" viewBox="0 0 16.000000 16.000000"
 preserveAspectRatio="xMidYMid meet">
<metadata>
Created by potrace 1.11, written by Peter Selinger 2001-2013
</metadata>
<g transform="translate(0.000000,16.000000) scale(0.005926,-0.005926)"
fill="#000000" stroke="none">
<path d="M779 2386 c-3 -3 -18 -7 -35 -10 -32 -6 -161 -31 -204 -40 -14 -3
-141 -29 -282 -58 l-258 -53 0 -691 c0 -380 2 -693 5 -696 3 -2 57 5 122 16
l117 21 62 165 c213 561 349 921 365 965 10 28 45 121 78 209 34 87 61 162 61
167 0 9 -23 12 -31 5z"/>
<path d="M802 1987 c-23 -62 -42 -118 -42 -125 0 -12 131 -365 348 -939 l50
-132 0 -393 0 -393 346 -3 c190 -1 346 0 346 3 0 5 -28 47 -57 84 -66 86 -303
415 -303 421 0 4 28 11 63 15 34 4 71 9 82 11 11 1 40 6 65 9 25 3 70 10 100
15 30 5 73 11 95 14 22 3 58 8 80 12 22 3 46 7 54 8 7 2 17 9 21 17 10 18 390
1034 390 1043 0 6 -55 0 -110 -14 -19 -5 -51 -11 -70 -14 -19 -3 -80 -14 -135
-25 -126 -25 -832 -161 -865 -167 -46 -8 -49 -11 -40 -41 4 -15 40 -118 78
-228 38 -110 84 -239 100 -287 34 -97 37 -91 -42 -89 -21 0 -40 2 -42 4 -3 3
-55 149 -174 487 -37 107 -91 260 -120 340 -28 80 -76 214 -105 297 -30 84
-58 159 -62 168 -6 10 -21 -20 -51 -98z"/>
<path d="M2471 1407 c-17 -38 -31 -73 -31 -78 0 -8 124 -366 140 -404 9 -20
68 -188 98 -280 l17 -50 3 161 2 162 -93 263 c-52 145 -96 271 -99 279 -4 9
-18 -11 -37 -53z"/>
<path d="M570 745 l0 -225 23 0 c12 0 51 -9 87 -20 36 -11 66 -20 68 -20 1 0
2 96 2 213 l0 212 -80 33 c-44 17 -84 32 -90 32 -6 0 -10 -80 -10 -225z"/>
<path d="M805 684 c1 -107 5 -197 9 -201 8 -8 109 -33 114 -28 3 2 5 294 3
356 -1 21 -9 28 -53 44 -29 11 -58 20 -64 21 -7 1 -10 -57 -9 -192z"/>
<path d="M2325 538 c2 -51 3 -114 4 -140 l1 -46 50 -11 c28 -6 53 -11 55 -11
3 0 5 60 5 134 l0 134 -47 16 c-72 25 -70 27 -68 -76z"/>
<path d="M2490 446 l0 -133 37 -6 c20 -4 40 -2 43 2 6 11 6 229 -1 235 -3 3
-22 12 -42 21 l-37 15 0 -134z"/>
<path d="M570 215 l0 -216 88 3 87 3 1 185 c0 102 -1 190 -3 197 -3 6 -19 14
-36 17 -65 12 -83 16 -109 22 l-28 6 0 -217z"/>
<path d="M805 216 c2 -94 3 -181 4 -193 1 -21 6 -23 66 -23 l66 0 -4 180 c-1
98 -5 181 -7 183 -3 2 -33 8 -67 14 l-61 9 3 -170z"/>
<path d="M2330 139 l0 -139 54 0 54 0 1 125 c0 139 1 137 -71 148 l-38 6 0
-140z"/>
<path d="M2493 125 l0 -125 39 0 38 0 0 114 c0 110 -1 115 -22 121 -60 17 -56
26 -55 -110z"/>
</g>
</svg>
