<?xml version="1.0" standalone="no"?>
<!DOCTYPE svg PUBLIC "-//W3C//DTD SVG 20010904//EN"
 "http://www.w3.org/TR/2001/REC-SVG-20010904/DTD/svg10.dtd">
<svg version="1.0" xmlns="http://www.w3.org/2000/svg"
 width="300.000000pt" height="300.000000pt" viewBox="0 0 300.000000 300.000000"
 preserveAspectRatio="xMidYMid meet">
<metadata>
Created by potrace 1.11, written by Peter Selinger 2001-2013
</metadata>
<g transform="translate(0.000000,300.000000) scale(0.100000,-0.100000)"
fill="#000000" stroke="none">
<path d="M135 2573 l125 -188 0 -630 c0 -346 0 -710 0 -808 l0 -178 438 2
c240 0 455 4 477 8 l39 6 57 -85 c179 -267 478 -431 814 -447 139 -6 303 9
401 38 38 10 77 21 86 24 76 18 282 145 370 228 l37 35 -2 393 -2 394 -470 1
c-258 0 -473 -1 -477 -3 -4 -2 47 -51 115 -110 67 -58 136 -117 152 -132 17
-14 57 -48 90 -76 33 -27 65 -55 70 -61 6 -6 52 -46 103 -89 50 -43 92 -80 92
-80 0 -1 -30 -1 -67 -1 l-68 1 -2 -35 c0 -19 -1 -49 -2 -66 -1 -31 -1 -31 -88
-49 -195 -38 -390 -21 -533 47 -67 32 -100 56 -155 113 -38 39 -83 98 -100
129 l-30 57 30 26 c54 46 99 86 150 132 71 65 216 195 224 201 13 9 41 95 60
185 15 67 19 121 18 221 l-2 132 95 -3 c108 -3 202 -23 284 -59 99 -44 102
-48 103 -149 1 -48 2 -91 2 -95 1 -5 96 -9 211 -9 l210 -1 0 202 -1 201 -46
35 c-182 136 -372 221 -578 257 -93 16 -298 22 -372 10 -41 -6 -42 -5 -76 41
-122 170 -298 295 -512 366 -150 49 -214 54 -828 55 l-567 1 125 -187z m1059
-227 c79 -19 149 -52 217 -102 47 -35 109 -98 109 -112 0 -4 -21 -22 -46 -41
-246 -185 -390 -505 -378 -837 l3 -84 -52 -1 c-151 -3 -339 -1 -344 5 -5 4 -8
1052 -4 1171 1 20 6 21 214 19 158 -1 230 -6 281 -18z"/>
<path d="M1940 920 c0 -81 3 -110 13 -111 17 -1 90 -1 103 0 7 1 11 40 11 111
l1 110 -64 0 -64 0 0 -110z"/>
</g>
</svg>
