<?xml version="1.0" standalone="no"?>
<!DOCTYPE svg PUBLIC "-//W3C//DTD SVG 20010904//EN"
 "http://www.w3.org/TR/2001/REC-SVG-20010904/DTD/svg10.dtd">
<svg version="1.0" xmlns="http://www.w3.org/2000/svg"
 width="300.000000pt" height="300.000000pt" viewBox="0 0 300.000000 300.000000"
 preserveAspectRatio="xMidYMid meet">
<metadata>
Created by potrace 1.11, written by Peter Selinger 2001-2013
</metadata>
<g transform="translate(0.000000,300.000000) scale(0.100000,-0.100000)"
fill="#000000" stroke="none">
<path d="M1418 2295 c-5 -22 -2 -25 23 -25 15 0 31 -4 34 -10 4 -6 -6 -7 -25
-4 -30 6 -30 6 -30 -39 0 -44 -1 -45 -27 -41 -16 3 -36 5 -45 5 -10 0 -20 5
-23 10 -4 5 -10 7 -15 4 -5 -3 -36 1 -69 10 -53 13 -110 26 -186 41 -11 2 -42
8 -70 14 -27 6 -61 12 -75 15 -14 2 -36 7 -50 10 -22 5 -32 -3 -74 -60 -28
-36 -53 -65 -57 -65 -4 0 -10 -8 -13 -17 -4 -10 -21 -34 -39 -54 -17 -20 -43
-51 -57 -69 -14 -18 -30 -38 -36 -44 -5 -6 -62 -76 -124 -156 -63 -80 -119
-150 -125 -156 -5 -6 -23 -28 -40 -49 -16 -21 -36 -44 -42 -51 -7 -7 -13 -17
-13 -23 0 -6 -4 -11 -8 -11 -10 0 -116 -139 -111 -145 3 -2 18 -6 34 -9 17 -3
40 -8 52 -10 18 -4 47 27 179 192 87 108 163 202 168 208 6 6 22 26 36 44 14
18 30 38 35 44 6 6 57 70 114 141 57 72 110 135 117 141 8 6 14 16 14 23 0 26
21 6 71 -66 29 -43 82 -121 117 -173 35 -52 66 -96 67 -98 1 -2 15 -5 31 -8
43 -8 59 -12 59 -14 0 -1 16 -3 35 -6 19 -2 42 -7 50 -10 8 -4 28 -8 44 -10
15 -2 57 -11 92 -19 35 -8 76 -17 92 -20 15 -3 38 -7 52 -11 14 -3 36 -7 50
-9 14 -2 25 -4 25 -5 0 -1 9 -3 20 -4 11 -2 32 -7 48 -11 l27 -7 0 81 c0 64 3
81 14 81 8 0 57 -11 108 -25 51 -14 94 -25 96 -25 1 0 5 -1 10 -1 4 -1 14 -2
22 -3 16 -1 17 -9 19 -126 l1 -65 125 -31 c120 -30 152 -31 120 -4 -8 7 -15
16 -15 21 0 5 -7 17 -15 26 -8 10 -77 110 -152 223 l-138 205 -55 12 c-30 7
-64 15 -75 17 -11 3 -29 7 -40 9 -23 5 -102 26 -126 33 -12 3 -17 16 -17 47 0
64 -1 67 -21 67 -11 0 -23 4 -26 10 -3 6 1 7 9 4 25 -10 45 3 40 24 -4 14 -24
22 -93 35 -113 22 -118 22 -123 -8z m112 -43 c0 -5 -7 -9 -15 -9 -8 0 -15 4
-15 9 0 4 7 8 15 8 8 0 15 -4 15 -8z m40 -6 c0 -3 -4 -8 -10 -11 -5 -3 -10 -1
-10 4 0 6 5 11 10 11 6 0 10 -2 10 -4z"/>
<path d="M774 1949 c-48 -61 -97 -122 -108 -135 -12 -12 -31 -36 -43 -51 -12
-15 -30 -38 -40 -50 -10 -12 -27 -34 -38 -48 -11 -14 -27 -33 -36 -43 -37 -41
-209 -263 -209 -270 0 -5 6 -9 13 -10 6 -1 22 -3 34 -4 21 -3 77 71 308 406
11 16 34 48 50 72 130 185 169 244 161 244 -2 0 -44 -50 -92 -111z"/>
<path d="M870 1821 c0 -60 1 -61 28 -61 15 0 33 4 41 9 21 14 -3 73 -39 94
l-30 18 0 -60z"/>
<path d="M783 1829 c-31 -29 -50 -79 -39 -98 6 -10 28 -8 67 4 20 7 21 7 21
60 0 78 -3 80 -49 34z"/>
<path d="M1790 1777 c0 -19 6 -38 13 -40 10 -4 10 -6 0 -6 -9 -1 -13 -21 -13
-67 0 -36 -4 -63 -8 -60 -4 2 -28 7 -53 10 -25 3 -52 7 -60 10 -7 3 -27 8 -44
11 -49 10 -70 14 -204 45 -70 16 -138 32 -152 34 -13 3 -24 5 -24 6 0 1 -9 3
-20 5 -11 1 -39 6 -62 10 -26 5 -43 4 -43 -2 0 -5 -8 -18 -17 -29 -10 -10 -38
-46 -62 -79 -25 -33 -48 -61 -53 -63 -4 -2 -8 -10 -8 -17 0 -7 -4 -15 -8 -17
-8 -3 -308 -394 -327 -426 -5 -9 -15 -21 -21 -27 -6 -5 -26 -31 -44 -57 -18
-27 -37 -48 -41 -48 -3 0 -9 -9 -12 -20 -6 -24 -11 -24 88 0 48 11 84 25 92
37 32 43 59 77 71 89 6 7 12 17 12 22 0 6 4 12 8 14 5 2 70 84 146 183 75 99
142 187 149 195 7 8 34 43 60 78 l49 62 32 -32 c19 -18 68 -64 111 -103 92
-83 117 -106 315 -295 l152 -145 97 -7 c53 -4 130 -14 171 -24 41 -9 82 -17
90 -19 8 -1 22 -5 30 -7 8 -3 65 -21 125 -41 135 -43 251 -86 328 -120 31 -14
58 -26 60 -25 1 0 33 -14 71 -31 38 -17 71 -29 73 -27 3 2 -20 42 -50 88 -159
245 -187 290 -187 298 0 6 -4 10 -8 10 -5 0 -15 12 -23 28 -8 15 -18 32 -22
37 -4 6 -37 55 -72 109 l-63 100 -183 47 c-101 26 -187 45 -191 43 -5 -3 -8 0
-8 5 0 6 -11 11 -24 11 -30 0 -33 9 -32 93 1 48 -2 67 -11 67 -7 0 -13 5 -13
10 0 6 6 10 14 10 9 0 12 8 9 24 -4 18 -15 26 -51 35 -26 6 -55 13 -64 16 -10
3 -26 7 -35 9 -10 2 -26 7 -35 11 -15 6 -18 1 -18 -28z m80 -47 c3 -1 8 -2 13
-1 4 0 7 -3 7 -9 0 -13 -17 -13 -25 0 -3 5 -12 7 -20 3 -8 -3 -15 -1 -15 5 0
9 20 9 40 2z m64 -22 c-3 -4 -11 -5 -19 -1 -21 7 -19 12 4 10 11 0 18 -5 15
-9z"/>
<path d="M927 1724 c-5 -5 -28 -11 -49 -13 -5 -1 -8 -31 -8 -67 l0 -66 33 7
c41 10 47 19 47 82 0 48 -9 71 -23 57z"/>
<path d="M770 1687 c-22 -11 -25 -19 -26 -74 l-2 -61 36 4 c19 3 38 6 42 9 4
2 6 32 5 67 -2 69 -11 78 -55 55z"/>
<path d="M1220 1351 c0 -33 3 -62 8 -65 4 -2 23 -1 42 3 32 7 35 10 33 41 -1
24 -10 42 -28 57 -44 38 -55 31 -55 -36z"/>
<path d="M1131 1363 c-17 -21 -29 -44 -26 -50 2 -7 1 -13 -3 -13 -4 0 -9 -11
-10 -24 -1 -22 1 -24 31 -19 50 8 63 25 62 85 0 28 -6 53 -12 55 -6 2 -25 -13
-42 -34z"/>
<path d="M938 1233 c-8 -10 -36 -49 -63 -88 -27 -38 -51 -72 -54 -75 -3 -3
-20 -26 -38 -52 -30 -44 -30 -46 -10 -44 41 4 54 21 121 149 66 124 74 145 44
110z"/>
<path d="M1243 1230 c-20 -8 -23 -16 -23 -69 l0 -59 33 2 c17 2 38 4 45 5 8 1
12 21 12 66 0 61 -1 65 -22 64 -13 0 -33 -4 -45 -9z"/>
<path d="M1130 1207 c-35 -12 -35 -12 -35 -72 l0 -60 33 0 c50 -1 56 7 57 79
1 71 0 71 -55 53z"/>
</g>
</svg>
