<?xml version="1.0" standalone="no"?>
<!DOCTYPE svg PUBLIC "-//W3C//DTD SVG 20010904//EN"
 "http://www.w3.org/TR/2001/REC-SVG-20010904/DTD/svg10.dtd">
<svg version="1.0" xmlns="http://www.w3.org/2000/svg"
 width="300.000000pt" height="300.000000pt" viewBox="0 0 300.000000 300.000000"
 preserveAspectRatio="xMidYMid meet">
<metadata>
Created by potrace 1.11, written by Peter Selinger 2001-2013
</metadata>
<g transform="translate(0.000000,300.000000) scale(0.100000,-0.100000)"
fill="#000000" stroke="none">
<path d="M70 1505 l0 -1475 1430 0 1430 0 0 1475 0 1475 -1430 0 -1430 0 0
-1475z m2810 0 l0 -1425 -1380 0 -1380 0 0 1425 0 1425 1380 0 1380 0 0 -1425z"/>
<path d="M270 1505 l0 -1295 1230 0 1230 0 0 1295 0 1295 -1230 0 -1230 0 0
-1295z m1201 917 c79 -26 172 -85 218 -137 61 -69 94 -157 99 -258 10 -197
-59 -363 -221 -534 l-68 -72 107 -143 c184 -243 378 -480 447 -545 84 -79 172
-122 277 -137 135 -19 91 -31 -115 -31 -156 0 -199 3 -241 18 -101 35 -210
156 -471 526 -81 113 -155 216 -166 229 -20 21 -27 22 -184 22 l-163 0 0 -247
c1 -276 11 -416 33 -460 20 -37 50 -51 132 -59 45 -5 65 -11 65 -21 0 -11 -50
-13 -297 -11 -299 3 -349 10 -242 34 26 6 55 17 63 24 38 31 40 65 44 865 2
429 0 799 -3 823 -10 65 -38 91 -115 103 -86 15 -92 17 -85 30 5 7 130 9 414
7 386 -4 409 -5 472 -26z"/>
<path d="M1055 2366 c-5 -2 -22 -7 -37 -10 l-28 -6 0 -429 c0 -342 3 -431 13
-439 45 -38 280 -55 373 -27 144 43 224 217 210 461 -12 222 -96 368 -245 425
-42 16 -84 23 -166 25 -60 2 -114 2 -120 0z"/>
</g>
</svg>
