<?xml version="1.0" standalone="no"?>
<!DOCTYPE svg PUBLIC "-//W3C//DTD SVG 20010904//EN"
 "http://www.w3.org/TR/2001/REC-SVG-20010904/DTD/svg10.dtd">
<svg version="1.0" xmlns="http://www.w3.org/2000/svg"
 width="300.000000pt" height="300.000000pt" viewBox="0 0 300.000000 300.000000"
 preserveAspectRatio="xMidYMid meet">
<metadata>
Created by potrace 1.11, written by Peter Selinger 2001-2013
</metadata>
<g transform="translate(0.000000,300.000000) scale(0.100000,-0.100000)"
fill="#000000" stroke="none">
<path d="M1417 2283 c-2 -1 -41 -5 -87 -8 -86 -6 -121 -9 -175 -19 -16 -3 -46
-8 -65 -11 -19 -3 -53 -10 -75 -16 -22 -5 -51 -12 -64 -15 -110 -23 -367 -130
-412 -170 -8 -8 -19 -14 -23 -14 -14 0 -111 -92 -149 -141 -37 -49 -68 -139
-71 -208 -13 -248 249 -470 702 -594 50 -14 93 -23 96 -19 3 3 6 -39 7 -94 0
-54 1 -155 2 -224 l2 -125 163 0 c138 -1 162 2 163 15 1 8 2 100 2 205 l2 189
85 2 c47 1 110 5 140 8 30 4 80 9 110 12 102 9 224 32 361 68 306 80 503 206
577 366 52 112 33 291 -44 401 -146 211 -468 340 -954 385 -73 7 -289 12 -293
7z m98 -177 c85 -9 251 -51 333 -85 210 -85 308 -194 312 -346 3 -91 -28 -161
-105 -238 -98 -97 -271 -170 -504 -212 -51 -9 -99 -14 -105 -12 -10 4 -12 105
-11 454 1 246 3 449 4 451 0 2 4 1 9 -2 4 -2 34 -7 67 -10z m-524 -34 c39 -16
77 -67 96 -130 14 -48 16 -102 15 -347 -1 -159 -2 -311 -2 -337 l0 -47 -36 5
c-201 25 -408 97 -524 182 -139 101 -188 249 -126 375 58 119 218 237 396 292
30 9 60 19 65 21 17 6 88 -3 116 -14z"/>
</g>
</svg>
