<?xml version="1.0" standalone="no"?>
<!DOCTYPE svg PUBLIC "-//W3C//DTD SVG 20010904//EN"
 "http://www.w3.org/TR/2001/REC-SVG-20010904/DTD/svg10.dtd">
<svg version="1.0" xmlns="http://www.w3.org/2000/svg"
 width="300.000000pt" height="300.000000pt" viewBox="0 0 300.000000 300.000000"
 preserveAspectRatio="xMidYMid meet">
<metadata>
Created by potrace 1.11, written by Peter Selinger 2001-2013
</metadata>
<g transform="translate(0.000000,300.000000) scale(0.100000,-0.100000)"
fill="#000000" stroke="none">
<path d="M1275 2769 c-47 -6 -173 -27 -205 -34 -3 -1 -32 -9 -65 -19 -447
-131 -795 -458 -905 -851 -23 -83 -24 -87 -38 -179 -14 -89 -12 -290 3 -382
30 -185 94 -349 192 -491 109 -159 327 -341 514 -430 89 -43 243 -98 300 -108
19 -3 52 -10 74 -15 114 -24 440 -35 581 -18 125 15 317 64 410 105 21 9 41
17 44 18 25 5 168 88 238 137 202 143 368 352 445 558 56 152 72 249 71 455 0
168 -14 268 -56 390 -143 421 -540 747 -1023 839 -44 9 -93 18 -110 22 -48 9
-405 12 -470 3z m479 -300 c130 -26 255 -74 358 -135 104 -63 251 -205 317
-307 50 -78 105 -205 116 -267 3 -18 7 -36 9 -39 7 -11 18 -116 20 -191 4
-131 -11 -235 -54 -358 -40 -118 -111 -232 -205 -327 -92 -94 -159 -145 -265
-202 -307 -164 -759 -171 -1079 -17 -364 174 -566 494 -562 889 0 61 3 121 6
135 3 14 8 40 11 59 46 273 253 532 540 672 221 109 523 142 788 88z"/>
</g>
</svg>
