<?xml version="1.0" standalone="no"?>
<!DOCTYPE svg PUBLIC "-//W3C//DTD SVG 20010904//EN"
 "http://www.w3.org/TR/2001/REC-SVG-20010904/DTD/svg10.dtd">
<svg version="1.0" xmlns="http://www.w3.org/2000/svg"
 width="300.000000pt" height="300.000000pt" viewBox="0 0 300.000000 300.000000"
 preserveAspectRatio="xMidYMid meet">
<metadata>
Created by potrace 1.11, written by Peter Selinger 2001-2013
</metadata>
<g transform="translate(0.000000,300.000000) scale(0.100000,-0.100000)"
fill="#000000" stroke="none">
<path d="M1838 2452 c-442 -441 -705 -702 -711 -702 -3 0 -5 69 -5 154 1 84
-2 158 -5 162 -4 7 -353 11 -389 5 -3 0 -6 -164 -7 -363 l0 -363 -356 -354
c-195 -194 -355 -357 -355 -361 0 -5 24 -27 52 -49 29 -23 67 -52 83 -65 17
-13 62 -49 102 -80 l72 -57 150 148 c589 583 1395 1380 1470 1454 87 87 112
102 128 76 4 -7 87 -80 183 -162 96 -82 177 -152 180 -155 3 -3 34 -30 69 -60
36 -30 72 -62 81 -70 9 -8 97 -85 196 -170 98 -85 188 -163 199 -173 20 -18
20 -17 23 249 1 149 -2 270 -7 273 -4 3 -39 33 -77 67 -38 34 -143 125 -234
204 -91 78 -179 154 -195 169 -17 14 -62 53 -100 86 -39 33 -72 62 -75 65 -12
13 -289 250 -292 249 -2 0 -83 -80 -180 -177z"/>
<path d="M2091 1340 c-4 -3 -8 -73 -8 -156 l0 -150 153 0 154 0 0 153 0 153
-97 1 c-54 0 -120 1 -146 2 -27 1 -52 0 -56 -3z"/>
<path d="M1673 1188 l2 -153 153 -1 152 0 0 153 0 153 -154 0 -155 0 2 -152z"/>
<path d="M1680 950 c-5 -3 -7 -72 -7 -155 l2 -150 152 0 153 0 0 155 0 155
-146 0 c-80 0 -150 -2 -154 -5z"/>
<path d="M2114 952 l-32 -3 0 -149 c1 -128 3 -149 17 -152 9 -2 77 -3 151 -3
l135 1 3 152 c2 118 0 152 -10 153 -35 3 -237 4 -264 1z"/>
</g>
</svg>
