<?xml version="1.0" standalone="no"?>
<!DOCTYPE svg PUBLIC "-//W3C//DTD SVG 20010904//EN"
 "http://www.w3.org/TR/2001/REC-SVG-20010904/DTD/svg10.dtd">
<svg version="1.0" xmlns="http://www.w3.org/2000/svg"
 width="300.000000pt" height="300.000000pt" viewBox="0 0 300.000000 300.000000"
 preserveAspectRatio="xMidYMid meet">
<metadata>
Created by potrace 1.11, written by Peter Selinger 2001-2013
</metadata>
<g transform="translate(0.000000,300.000000) scale(0.100000,-0.100000)"
fill="#000000" stroke="none">
<path d="M1318 2987 c-15 -7 -39 -23 -52 -35 -28 -24 -98 -117 -96 -127 1 -3
-6 -17 -15 -31 -25 -39 -53 -163 -48 -214 5 -54 22 -92 82 -185 41 -64 45 -74
45 -136 1 -95 -9 -101 -75 -39 -67 63 -145 116 -201 136 -70 26 -221 27 -292
3 -126 -43 -168 -105 -161 -236 4 -83 14 -132 42 -215 16 -46 16 -46 -11 -79
-15 -17 -39 -55 -54 -83 -23 -43 -27 -63 -27 -131 1 -135 60 -226 185 -284 75
-34 217 -39 340 -10 89 20 304 100 355 131 17 10 33 18 37 18 11 0 -19 -111
-71 -269 -53 -158 -78 -273 -80 -371 l-1 -25 -185 1 c-102 0 -185 -2 -186 -5
-1 -8 -1 -362 0 -383 1 -11 64 -43 218 -108 120 -51 236 -101 258 -111 79 -35
450 -190 460 -192 6 -1 10 140 10 399 l1 401 -205 -1 -206 0 1 44 c4 170 35
336 94 507 33 94 49 128 50 102 0 -23 120 -133 199 -184 80 -50 180 -99 241
-116 60 -16 225 -12 261 7 40 20 110 93 125 130 7 17 16 47 19 65 9 50 7 197
-3 251 -9 47 -9 47 29 74 81 56 135 163 146 286 17 201 -93 301 -326 295 -107
-3 -215 -35 -363 -107 -43 -21 -78 -35 -78 -32 0 4 22 30 48 58 112 117 220
261 267 354 23 45 29 68 29 125 0 144 -78 243 -221 280 -110 29 -204 10 -251
-50 l-21 -27 -33 31 c-80 75 -216 118 -280 88z"/>
</g>
</svg>
