<?xml version="1.0" standalone="no"?>
<!DOCTYPE svg PUBLIC "-//W3C//DTD SVG 20010904//EN"
 "http://www.w3.org/TR/2001/REC-SVG-20010904/DTD/svg10.dtd">
<svg version="1.0" xmlns="http://www.w3.org/2000/svg"
 width="16.000000pt" height="16.000000pt" viewBox="0 0 16.000000 16.000000"
 preserveAspectRatio="xMidYMid meet">
<metadata>
Created by potrace 1.11, written by Peter Selinger 2001-2013
</metadata>
<g transform="translate(0.000000,16.000000) scale(0.006504,-0.006504)"
fill="#000000" stroke="none">
<path d="M1182 2280 c-32 -13 -37 -36 -17 -68 l18 -27 -27 24 c-19 18 -24 30
-20 45 6 19 5 19 -17 5 -13 -9 -27 -27 -30 -40 l-7 -24 -1 24 c-1 20 -3 22
-16 11 -13 -11 -13 -15 -3 -22 9 -6 5 -8 -12 -6 -20 2 -25 -2 -27 -22 -2 -23
-2 -23 6 -5 9 20 10 20 10 -1 1 -14 -7 -24 -19 -27 -12 -3 -20 -14 -20 -26 0
-32 48 -28 78 7 l24 27 -21 -31 c-11 -17 -18 -34 -15 -36 2 -3 -12 -5 -32 -4
-20 0 -39 -4 -41 -11 -3 -8 6 -10 26 -7 21 4 31 1 31 -7 0 -7 -3 -9 -6 -6 -8
8 -44 -10 -44 -22 0 -5 12 -7 28 -5 15 2 20 1 12 -2 -25 -11 -40 -26 -35 -34
6 -9 61 15 70 31 4 5 0 9 -7 9 -10 0 -9 3 2 11 11 8 12 12 3 16 -10 3 -10 8 1
19 8 8 18 14 21 14 4 0 16 11 27 25 11 14 29 25 41 25 24 1 23 1 -30 38 -10 7
-3 5 15 -3 21 -10 32 -12 32 -4 0 6 9 1 20 -12 10 -13 19 -18 20 -11 0 6 -4
12 -9 12 -5 0 -12 19 -16 43 -4 23 -9 48 -11 55 -1 6 2 12 7 12 5 0 9 -11 9
-24 0 -30 17 -44 22 -19 5 23 -2 63 -11 62 -3 0 -16 -4 -29 -9z m-76 -106 c18
-15 18 -15 -3 -5 -16 8 -22 7 -27 -5 -3 -8 -10 -13 -15 -9 -13 7 -2 35 13 35
7 0 21 -7 32 -16z"/>
<path d="M1233 2266 c3 -8 1 -31 -4 -52 -13 -46 2 -59 43 -38 15 8 28 10 28 5
0 -5 -11 -12 -25 -15 -33 -8 -32 -19 5 -33 17 -6 30 -18 30 -27 0 -9 8 -16 21
-16 11 0 18 -4 15 -9 -3 -5 17 -11 45 -13 48 -3 49 -2 30 14 -25 19 -27 30 -5
21 12 -4 15 0 12 18 -2 18 -9 24 -25 23 -27 -1 -30 11 -7 24 13 7 14 13 6 28
-6 10 -12 14 -12 7 0 -7 -6 -10 -14 -7 -8 3 -12 12 -10 19 3 7 1 16 -5 20 -6
3 -11 -1 -11 -9 0 -8 -5 -18 -12 -22 -7 -4 -8 -3 -4 5 9 13 -8 37 -37 52 -16
9 -18 8 -13 -8 4 -13 -1 -26 -15 -39 -21 -19 -21 -19 -8 8 9 22 9 31 -1 43
-16 19 -34 20 -27 1z m136 -101 c3 -19 2 -19 -16 -3 -15 14 -22 15 -31 6 -8
-8 -12 -9 -12 -1 0 28 53 26 59 -2z m-9 -50 c0 -8 7 -15 16 -15 8 0 12 -5 9
-10 -8 -13 -22 -5 -35 21 -7 13 -7 19 0 19 5 0 10 -7 10 -15z"/>
<path d="M455 2200 c-19 -21 -17 -23 348 -388 l367 -367 -367 -367 -368 -368
23 -22 22 -23 368 368 367 367 367 -367 368 -368 21 21 21 22 -367 367 -367
367 368 369 368 368 -25 20 -24 20 -366 -366 -367 -366 -329 329 c-182 181
-348 346 -370 367 l-39 38 -19 -21z"/>
<path d="M1192 2073 c14 -17 28 -16 28 1 0 8 -9 14 -19 13 -15 -1 -17 -4 -9
-14z"/>
<path d="M1095 2038 c4 -24 11 -47 16 -52 14 -16 11 -23 -22 -54 -26 -25 -31
-34 -25 -58 l7 -28 14 25 c8 13 21 38 29 54 9 17 15 25 16 18 0 -6 7 -19 16
-27 9 -9 11 -16 4 -16 -6 0 -9 -4 -5 -9 3 -5 1 -12 -4 -16 -6 -3 -8 3 -6 15 5
25 -7 26 -28 2 -18 -20 -24 -67 -7 -57 6 3 10 -4 10 -17 l1 -23 19 24 c11 13
20 29 20 37 0 8 4 14 9 14 12 0 1 -42 -16 -58 -7 -7 -13 -19 -13 -25 0 -7 10
-1 21 13 20 24 21 24 16 3 -6 -25 -6 -25 41 -27 17 -1 32 2 32 7 0 5 7 4 15
-3 16 -13 20 -3 7 16 -11 17 -42 13 -42 -5 0 -14 -2 -14 -10 -1 -11 17 -9 19
19 25 32 6 41 14 41 38 1 18 3 17 14 -9 19 -43 41 -56 34 -20 -4 21 -3 24 8
15 26 -22 16 33 -12 62 l-26 27 21 45 c12 25 20 61 20 79 -1 32 -2 32 -8 -7
-8 -46 -19 -68 -31 -60 -5 3 -8 -8 -8 -24 1 -16 -7 -37 -16 -47 -14 -14 -15
-19 -4 -25 11 -7 11 -9 -1 -9 -7 0 -11 -6 -8 -13 7 -19 -4 -34 -28 -39 -11 -1
-26 -12 -33 -23 -13 -19 -13 -19 -9 3 3 12 1 22 -4 22 -11 0 -12 29 -1 31 4 1
17 3 30 4 24 2 44 15 24 15 -17 0 -15 16 4 35 21 20 13 28 -31 29 -40 1 -43
-4 -15 -29 22 -20 18 -35 -11 -35 -12 0 -17 4 -14 11 4 5 -1 19 -10 29 -9 10
-15 27 -13 37 2 10 -5 25 -15 33 -11 9 -19 30 -20 52 -1 21 -6 38 -10 38 -5 0
-6 -19 -2 -42z m195 -134 c0 -8 -5 -12 -10 -9 -6 4 -8 11 -5 16 9 14 15 11 15
-7z"/>
<path d="M1131 2061 c-10 -7 -8 -12 10 -25 25 -17 36 -8 25 19 -6 17 -15 18
-35 6z"/>
<path d="M1262 2058 c-19 -19 -14 -37 8 -31 27 7 33 18 17 32 -10 8 -17 7 -25
-1z"/>
<path d="M1353 2046 c13 -10 15 -15 5 -18 -8 -3 0 -12 20 -22 42 -22 41 -29
-2 -11 -34 15 -35 15 -41 -15 -4 -17 -11 -28 -16 -24 -16 10 -9 -33 10 -57 10
-13 20 -30 22 -38 3 -7 13 5 24 29 l19 43 -29 24 -30 25 33 -16 c17 -9 32 -22
33 -29 1 -6 5 6 10 27 8 32 6 43 -8 59 -18 19 -17 20 5 8 13 -7 22 -8 22 -2 0
15 -35 31 -67 31 -26 -1 -27 -2 -10 -14z m17 -132 c0 -2 -9 0 -20 6 -11 6 -20
13 -20 16 0 2 9 0 20 -6 11 -6 20 -13 20 -16z"/>
<path d="M1211 2014 c0 -11 3 -14 6 -6 3 7 2 16 -1 19 -3 4 -6 -2 -5 -13z"/>
<path d="M1051 1992 c-19 -10 -33 -20 -32 -24 0 -5 1 -15 1 -23 0 -12 4 -11
20 5 11 11 24 20 29 20 8 0 24 30 19 35 -2 2 -18 -4 -37 -13z"/>
<path d="M1068 1958 c-18 -12 -28 -29 -28 -44 0 -24 1 -24 31 10 37 43 35 63
-3 34z"/>
<path d="M1272 1808 c2 -6 10 -14 16 -16 7 -2 10 2 6 12 -7 18 -28 22 -22 4z"/>
<path d="M1774 1624 c-51 -18 -83 -43 -119 -93 -26 -38 -30 -50 -29 -114 1
-114 49 -185 148 -217 49 -16 177 -8 229 14 37 16 37 16 37 77 0 52 3 62 20
66 11 3 20 11 20 17 0 8 -27 12 -90 12 -64 0 -90 -3 -90 -12 0 -6 11 -14 23
-18 21 -5 24 -12 26 -55 1 -44 -2 -53 -24 -67 -30 -19 -89 -15 -128 10 -67 45
-93 189 -48 279 29 59 59 80 116 81 55 1 91 -24 125 -87 29 -55 45 -56 44 -1
-4 119 -3 117 -18 105 -10 -9 -28 -8 -71 4 -68 17 -119 17 -171 -1z"/>
<path d="M382 1619 c2 -7 15 -16 29 -19 l24 -6 2 -182 c2 -152 -1 -182 -13
-183 -8 -1 -19 -2 -26 -3 -19 -2 -21 -26 -1 -27 10 0 77 -1 149 0 155 0 197
13 249 74 43 50 54 84 50 158 -5 86 -37 134 -115 175 -28 15 -65 19 -194 22
-129 3 -158 2 -154 -9z m268 -34 c61 -32 100 -108 95 -184 -5 -63 -44 -132
-89 -157 -38 -22 -91 -23 -110 -4 -6 6 -10 82 -10 180 -1 135 2 173 13 179 17
11 67 4 101 -14z"/>
<path d="M1206 1041 c-13 -15 -16 -28 -11 -53 l6 -33 -20 33 c-11 17 -28 32
-38 32 -9 0 -13 -3 -10 -7 4 -3 2 -12 -5 -20 -9 -11 -4 -21 22 -46 31 -31 51
-66 49 -90 0 -7 -5 1 -11 18 -14 38 -31 54 -67 65 -23 6 -33 4 -45 -9 -18 -20
-21 -51 -6 -51 6 0 10 6 10 13 0 9 2 9 8 0 4 -7 17 -11 29 -9 22 5 63 -26 63
-46 0 -7 -6 -4 -12 5 -7 9 -30 19 -52 21 -31 4 -42 0 -61 -20 -32 -35 -18 -83
25 -84 9 0 7 5 -8 16 -12 8 -22 21 -22 27 0 7 7 4 15 -7 17 -23 42 -15 47 15
3 26 32 33 48 14 9 -11 7 -19 -10 -37 -24 -25 -21 -74 4 -93 23 -18 80 -12 84
8 5 25 -28 34 -44 12 -15 -20 -19 -9 -5 13 12 20 44 11 56 -16 16 -36 30 -28
39 23 3 18 -1 37 -14 55 -21 29 -12 50 22 50 17 0 20 -4 22 -40 1 -9 11 -15
28 -15 15 1 24 -3 22 -7 -3 -4 -15 -8 -27 -8 -16 0 -18 -3 -10 -11 19 -19 63
15 63 49 0 33 -8 45 -38 61 -29 16 -79 1 -105 -32 -16 -19 -17 -19 -9 -2 17
33 50 58 79 57 15 0 31 5 35 12 5 6 8 1 8 -12 0 -13 4 -20 10 -17 15 9 12 41
-6 55 -31 26 -75 16 -112 -26 -34 -38 -34 -38 -18 -7 9 18 29 39 45 47 32 17
49 46 27 46 -8 0 -16 6 -19 13 -3 9 -10 7 -25 -7 -21 -18 -21 -18 -18 1 2 10
-1 29 -8 41 -12 23 -12 23 -30 3z m40 -256 c10 -8 14 -15 9 -15 -6 0 -15 4
-20 9 -6 5 -19 11 -30 14 -20 5 -19 5 1 6 11 0 29 -6 40 -14z m-82 -20 c-9
-14 -18 -25 -21 -25 -5 0 5 18 20 38 17 22 18 13 1 -13z"/>
<path d="M1204 657 c-6 -17 2 -37 16 -37 15 0 19 29 5 40 -12 10 -16 9 -21 -3z"/>
<path d="M1163 322 c-31 -5 -53 -39 -53 -82 1 -43 16 -64 53 -74 22 -5 33 -1
52 18 53 53 16 150 -52 138z m43 -51 c14 -27 1 -76 -22 -85 -8 -3 -23 3 -34
14 -18 18 -19 47 -5 88 8 21 48 10 61 -17z"/>
<path d="M1769 319 c-19 -11 -20 -146 -2 -153 9 -4 13 5 13 29 0 43 13 45 36
5 18 -30 44 -47 44 -29 0 5 -7 21 -16 35 -13 19 -14 28 -5 37 15 15 14 52 -1
64 -20 16 -54 21 -69 12z m54 -33 c6 -16 -11 -36 -30 -36 -7 0 -13 11 -13 25
0 18 5 25 19 25 10 0 21 -6 24 -14z"/>
<path d="M1963 322 c-31 -5 -53 -39 -53 -82 1 -70 60 -101 104 -56 54 53 17
150 -51 138z m43 -51 c26 -51 -29 -114 -60 -70 -13 19 -13 70 0 90 10 17 48 5
60 -20z"/>
<path d="M90 310 c0 -5 11 -10 24 -10 23 0 24 -2 23 -65 -1 -44 2 -66 11 -70
9 -3 12 14 12 65 0 68 1 70 25 70 14 0 25 5 25 10 0 6 -27 10 -60 10 -33 0
-60 -4 -60 -10z"/>
<path d="M266 253 c2 -91 2 -95 14 -88 6 3 10 22 10 41 0 31 2 34 30 34 28 0
30 -2 30 -40 0 -29 4 -38 14 -34 18 7 17 154 -1 154 -8 0 -13 -13 -13 -30 0
-27 -3 -30 -30 -30 -27 0 -30 3 -30 30 0 18 -5 30 -13 30 -9 0 -12 -19 -11
-67z"/>
<path d="M440 243 l0 -78 45 -1 c53 -1 64 23 13 28 -45 4 -47 40 -3 49 30 6
28 9 -21 24 -28 9 -9 30 29 33 51 4 36 22 -19 22 l-44 0 0 -77z"/>
<path d="M699 318 c-7 -15 -3 -145 4 -150 16 -10 60 1 81 21 23 24 24 86 0
112 -10 11 -30 19 -51 19 -18 0 -34 -1 -34 -2z m72 -42 c16 -33 -1 -80 -29
-84 -20 -3 -22 1 -22 52 0 50 2 56 20 56 12 0 25 -10 31 -24z"/>
<path d="M869 303 c-1 -21 -1 -89 0 -120 1 -13 6 -23 11 -23 6 0 10 33 10 80
0 47 -4 80 -10 80 -5 0 -10 -8 -11 -17z"/>
<path d="M969 281 c17 -32 18 -41 7 -57 -7 -10 -16 -29 -20 -41 -10 -32 18
-20 33 15 l12 26 21 -32 c11 -18 24 -32 29 -32 13 0 11 8 -12 50 l-22 38 22
36 c19 30 20 36 7 36 -9 0 -16 -4 -16 -8 0 -5 -6 -17 -14 -27 -14 -19 -15 -19
-27 8 -7 15 -18 27 -26 27 -10 0 -9 -9 6 -39z"/>
<path d="M1295 248 c0 -87 18 -112 25 -35 l5 52 33 -47 c18 -27 36 -48 40 -48
13 0 8 143 -5 147 -8 3 -13 -12 -15 -43 l-3 -47 -33 47 c-18 25 -36 46 -40 46
-4 0 -7 -33 -7 -72z"/>
<path d="M1588 303 c-24 -26 -28 -73 -10 -105 9 -16 20 -29 24 -29 65 -11 88
2 88 46 0 27 -4 35 -18 35 -27 0 -33 -10 -16 -27 11 -11 12 -19 4 -28 -23 -28
-70 6 -70 49 1 38 26 59 60 52 23 -4 30 -2 28 7 -7 20 -72 20 -90 0z"/>
<path d="M2099 298 c-2 -50 3 -113 9 -120 4 -4 19 -10 34 -13 45 -11 68 22 67
95 -1 43 -5 60 -15 60 -10 0 -13 -16 -13 -61 1 -66 -11 -85 -43 -68 -14 8 -18
22 -18 69 0 33 -4 60 -10 60 -5 0 -10 -10 -11 -22z"/>
<path d="M2273 245 c2 -75 19 -108 25 -48 2 23 7 30 18 26 20 -7 54 25 54 52
0 31 -19 45 -61 45 l-38 0 2 -75z m65 42 c13 -15 4 -31 -20 -40 -15 -5 -18 -1
-18 23 0 32 19 40 38 17z"/>
</g>
</svg>
