<?xml version="1.0" standalone="no"?>
<!DOCTYPE svg PUBLIC "-//W3C//DTD SVG 20010904//EN"
 "http://www.w3.org/TR/2001/REC-SVG-20010904/DTD/svg10.dtd">
<svg version="1.0" xmlns="http://www.w3.org/2000/svg"
 width="219.000000pt" height="219.000000pt" viewBox="0 0 219.000000 219.000000"
 preserveAspectRatio="xMidYMid meet">
<metadata>
Created by potrace 1.11, written by Peter Selinger 2001-2013
</metadata>
<g transform="translate(0.000000,219.000000) scale(0.100000,-0.100000)"
fill="#000000" stroke="none">
<path d="M114 1523 c-9 -9 -12 -80 -11 -278 0 -146 3 -268 7 -270 4 -3 36 28
71 67 35 39 69 76 74 82 6 6 41 46 78 88 l67 78 0 107 c0 60 -5 115 -10 123
-12 20 -256 22 -276 3z"/>
<path d="M739 1523 c-7 -8 11 -36 63 -95 103 -117 130 -148 153 -172 11 -12
49 -55 85 -96 35 -41 67 -77 70 -80 3 -3 25 -28 50 -55 158 -176 193 -216 210
-238 40 -50 67 -54 430 -51 184 1 338 2 343 3 14 2 7 26 -15 51 -13 14 -54 61
-93 105 -38 44 -79 89 -90 101 -11 11 -47 51 -80 89 -33 38 -64 73 -70 79 -24
26 -244 274 -266 299 -13 16 -37 39 -54 50 -29 21 -38 22 -378 22 -258 0 -351
-3 -358 -12z"/>
<path d="M523 1328 c-59 -68 -182 -206 -272 -308 -91 -102 -180 -202 -199
-224 -25 -28 -31 -41 -23 -49 14 -14 657 -18 707 -5 31 8 63 39 174 167 30 35
63 71 73 81 10 9 22 31 26 48 10 34 10 34 -164 227 -39 44 -89 100 -111 125
-76 88 -79 87 -211 -62z"/>
</g>
</svg>
