<?xml version="1.0" standalone="no"?>
<!DOCTYPE svg PUBLIC "-//W3C//DTD SVG 20010904//EN"
 "http://www.w3.org/TR/2001/REC-SVG-20010904/DTD/svg10.dtd">
<svg version="1.0" xmlns="http://www.w3.org/2000/svg"
 width="184.000000pt" height="184.000000pt" viewBox="0 0 184.000000 184.000000"
 preserveAspectRatio="xMidYMid meet">
<metadata>
Created by potrace 1.11, written by Peter Selinger 2001-2013
</metadata>
<g transform="translate(0.000000,184.000000) scale(0.100000,-0.100000)"
fill="#000000" stroke="none">
<path d="M55 1780 c-2 -4 -4 -394 -4 -868 l1 -862 866 0 867 0 0 868 0 867
-863 0 c-475 0 -865 -2 -867 -5z m1705 -137 c2 -668 -1 -1556 -4 -1561 -5 -9
-1663 -9 -1671 0 -4 4 -9 1507 -5 1661 0 16 47 17 840 17 l840 0 0 -117z"/>
<path d="M290 1464 c0 -2 82 -145 325 -564 103 -179 200 -345 214 -370 71
-125 86 -150 91 -150 9 0 130 217 130 233 0 39 -21 19 -73 -71 -31 -53 -57
-90 -56 -82 0 8 24 55 53 104 49 82 59 116 35 116 -5 0 -25 -29 -46 -65 -21
-36 -39 -62 -41 -57 -1 5 15 40 37 78 32 55 38 72 29 88 -10 18 -13 16 -36
-23 -13 -23 -27 -40 -29 -37 -3 3 6 25 20 49 18 30 23 47 16 58 -8 12 -12 11
-24 -5 -17 -23 -20 -5 -4 22 11 17 0 37 -246 457 -29 50 -64 111 -77 136 -52
93 -35 85 -184 85 -74 -1 -134 -1 -134 -2z"/>
<path d="M1278 1453 c-6 -8 -84 -139 -173 -293 -138 -237 -161 -282 -150 -296
10 -15 23 3 95 127 234 406 250 432 256 426 3 -3 -17 -42 -44 -88 -228 -385
-289 -498 -279 -514 10 -19 -4 -40 247 393 68 116 127 212 131 212 5 0 -21
-51 -58 -112 -252 -429 -306 -530 -292 -544 12 -12 43 35 208 322 106 184 196
333 198 330 3 -3 -83 -159 -192 -346 -167 -289 -195 -344 -184 -355 12 -12 37
26 164 247 228 397 266 460 271 455 3 -2 -42 -85 -99 -183 -289 -499 -319
-553 -309 -570 8 -14 20 1 67 82 32 54 68 116 81 136 13 21 24 40 24 42 0 3
46 83 101 178 56 95 113 193 127 217 14 25 38 67 53 93 16 27 29 50 29 51 0 2
-59 3 -131 3 -95 0 -133 -4 -141 -13z"/>
</g>
</svg>
