<?xml version="1.0" standalone="no"?>
<!DOCTYPE svg PUBLIC "-//W3C//DTD SVG 20010904//EN"
 "http://www.w3.org/TR/2001/REC-SVG-20010904/DTD/svg10.dtd">
<svg version="1.0" xmlns="http://www.w3.org/2000/svg"
 width="250.000000pt" height="250.000000pt" viewBox="0 0 250.000000 250.000000"
 preserveAspectRatio="xMidYMid meet">
<metadata>
Created by potrace 1.11, written by Peter Selinger 2001-2013
</metadata>
<g transform="translate(0.000000,250.000000) scale(0.100000,-0.100000)"
fill="#000000" stroke="none">
<path d="M1740 2355 c0 -8 4 -15 10 -15 5 0 7 7 4 15 -4 8 -8 15 -10 15 -2 0
-4 -7 -4 -15z"/>
<path d="M925 2164 c-126 -108 -246 -209 -265 -225 l-35 -30 55 6 55 6 0 -236
c-1 -203 1 -238 15 -243 15 -7 331 -9 653 -3 166 2 179 1 195 -17 16 -18 17
-4 17 237 0 165 4 255 10 254 6 0 33 -4 60 -9 l50 -7 -123 102 c-68 56 -126
109 -129 118 -6 16 10 144 23 177 6 15 1 17 -36 14 -43 -3 -44 -3 -63 -60 -10
-32 -22 -58 -25 -58 -4 0 -54 38 -112 85 -57 47 -107 85 -110 84 -3 0 -108
-88 -235 -195z m350 7 c49 -42 101 -86 115 -99 14 -13 58 -48 98 -79 60 -45
73 -59 68 -77 -11 -47 -27 -276 -24 -346 3 -69 1 -75 -16 -73 -33 3 -476 13
-579 13 l-98 0 -16 38 c-13 31 -15 63 -9 199 4 101 3 170 -3 181 -8 16 16 41
171 175 105 92 185 154 191 150 7 -4 52 -41 102 -82z"/>
<path d="M968 1992 c-62 -38 -76 -145 -27 -216 13 -19 53 -54 89 -77 36 -23
82 -58 103 -78 l37 -35 38 35 c20 20 69 57 109 83 54 35 77 57 92 89 25 52 27
107 5 153 -21 44 -60 64 -121 64 -51 0 -82 -18 -102 -58 l-12 -23 -40 40 c-36
38 -43 41 -91 41 -32 0 -64 -7 -80 -18z m421 -32 c9 -13 11 -21 5 -17 -6 3
-23 11 -38 17 -15 5 -24 15 -21 21 11 16 36 6 54 -21z"/>
<path d="M1852 2315 c-16 -8 -20 -15 -12 -20 6 -4 12 -5 13 -4 2 2 9 12 16 22
15 20 14 20 -17 2z"/>
<path d="M1630 2310 c0 -13 18 -22 24 -11 3 5 -1 11 -9 15 -8 3 -15 1 -15 -4z"/>
<path d="M1698 2298 c-26 -9 -32 -21 -31 -55 1 -7 -3 -10 -8 -7 -5 3 -9 -4 -9
-16 0 -14 -4 -19 -12 -14 -7 4 -6 -1 3 -12 9 -10 14 -25 12 -31 -3 -7 0 -13 6
-13 6 0 10 -3 10 -7 -4 -25 3 -35 20 -30 14 3 18 1 14 -9 -6 -18 23 -19 31 -1
3 6 4 3 3 -7 -1 -10 4 -21 12 -24 8 -3 11 0 7 7 -5 7 1 11 14 11 12 0 19 4 16
9 -4 5 4 7 16 4 13 -3 20 -3 16 2 -4 4 1 16 11 26 29 31 17 157 -14 145 -10
-3 -12 0 -8 11 5 12 2 15 -10 10 -9 -3 -17 -2 -17 3 0 13 -47 12 -82 -2z m29
-26 c-17 -18 -51 -27 -41 -10 3 5 9 6 14 3 4 -3 13 2 20 10 7 8 15 15 18 15 3
0 -2 -8 -11 -18z m33 -6 c0 -2 -8 -10 -17 -17 -16 -13 -17 -12 -4 4 13 16 21
21 21 13z m20 -20 c0 -2 -8 -10 -17 -17 -16 -13 -17 -12 -4 4 13 16 21 21 21
13z m-70 -10 c0 -2 -8 -10 -17 -17 -16 -13 -17 -12 -4 4 13 16 21 21 21 13z
m21 -19 c-6 -8 -9 -16 -6 -19 3 -2 -2 -5 -10 -5 -13 0 -13 3 2 19 19 21 31 25
14 5z m90 -4 c13 -17 13 -17 -6 -3 -11 8 -22 16 -24 17 -2 2 0 3 6 3 6 0 17
-8 24 -17z m-138 -28 c-3 -9 -8 -14 -10 -11 -3 3 -2 9 2 15 9 16 15 13 8 -4z
m57 -20 c0 -1 -10 -10 -22 -21 -14 -12 -18 -13 -10 -3 6 9 10 18 7 21 -3 2 2
5 10 5 8 0 15 -1 15 -2z m65 -3 c-3 -3 0 -11 6 -19 17 -20 5 -16 -14 5 -15 16
-15 19 -2 19 8 0 13 -3 10 -5z m-24 -29 c13 -16 12 -17 -3 -4 -15 11 -21 11
-35 0 -16 -13 -17 -12 -4 4 7 9 17 17 21 17 4 0 14 -8 21 -17z"/>
<path d="M1595 2200 c-3 -5 1 -10 9 -10 9 0 16 5 16 10 0 6 -4 10 -9 10 -6 0
-13 -4 -16 -10z"/>
<path d="M1885 2200 c3 -5 11 -10 16 -10 6 0 7 5 4 10 -3 6 -11 10 -16 10 -6
0 -7 -4 -4 -10z"/>
<path d="M1629 2088 c-12 -22 -11 -22 7 -8 10 8 20 15 22 16 2 1 -1 5 -7 8 -5
4 -15 -4 -22 -16z"/>
<path d="M1841 2101 c-10 -6 -9 -10 5 -15 20 -8 25 -4 16 11 -4 7 -13 9 -21 4z"/>
<path d="M1747 2053 c-4 -3 -7 -11 -7 -17 0 -6 5 -5 12 2 6 6 9 14 7 17 -3 3
-9 2 -12 -2z"/>
<path d="M818 1345 c-2 -2 -46 -7 -98 -10 -119 -8 -120 -8 -120 -45 0 -17 5
-30 13 -31 26 -2 65 2 132 17 113 24 276 23 404 -1 14 -3 40 -8 56 -11 103
-20 143 -23 260 -19 168 4 284 35 285 76 0 3 -33 -3 -72 -13 -49 -13 -112 -19
-193 -20 -137 -2 -173 3 -304 37 -76 19 -119 24 -226 24 -73 0 -135 -2 -137
-4z"/>
<path d="M716 1134 c19 -18 20 -26 15 -243 l-6 -224 -37 -11 -37 -11 252 -210
c138 -116 256 -211 262 -213 5 -1 49 29 97 68 48 38 89 70 92 70 3 0 20 -21
37 -47 39 -58 46 -63 83 -63 27 0 28 2 22 33 -17 80 -26 150 -21 165 2 10 50
53 105 96 55 43 100 83 100 87 0 4 -16 9 -36 11 l-36 3 1 218 c1 120 4 224 7
231 3 7 -2 21 -11 30 -13 13 -38 16 -128 16 -62 0 -263 3 -447 7 -329 6 -335
5 -314 -13z m464 -64 c286 -10 327 -13 338 -28 11 -13 13 -53 9 -180 -2 -89
-1 -180 3 -202 l7 -40 -178 -151 c-98 -83 -181 -150 -186 -149 -9 1 -42 28
-224 186 -63 55 -132 110 -152 123 l-36 22 22 37 c20 34 22 52 24 217 1 99 2
181 3 183 0 1 10 0 23 -3 12 -2 168 -9 347 -15z"/>
<path d="M1149 973 c-13 -14 -55 -47 -94 -73 -80 -55 -109 -83 -124 -123 -27
-72 3 -166 60 -186 68 -23 110 -12 159 42 l28 32 12 -26 c36 -78 174 -78 215
1 8 16 15 50 15 76 0 37 -3 45 -15 40 -11 -4 -19 3 -25 20 -15 37 -12 48 7 33
15 -13 15 -12 2 9 -8 13 -50 47 -95 77 -45 29 -90 65 -101 79 l-20 25 -24 -26z"/>
<path d="M1770 420 c0 -5 5 -10 11 -10 5 0 7 5 4 10 -3 6 -8 10 -11 10 -2 0
-4 -4 -4 -10z"/>
<path d="M1797 404 c-3 -3 -3 -13 0 -21 5 -12 7 -12 14 -1 7 10 9 10 9 1 0 -7
7 -13 16 -13 8 0 13 -4 9 -10 -3 -5 -13 -7 -23 -4 -10 4 -13 2 -7 -3 14 -12
16 -115 1 -106 -6 4 -4 -2 4 -12 14 -17 13 -18 -2 -12 -17 6 -46 -18 -34 -30
3 -3 6 0 6 7 0 7 3 10 6 7 10 -10 45 13 38 24 -3 6 0 9 8 7 7 -2 13 0 13 3 0
4 9 16 19 28 11 12 14 21 8 21 -7 0 -12 5 -12 11 0 5 5 7 12 3 7 -5 8 -3 3 6
-6 10 -11 9 -22 -5 -9 -14 -13 -15 -13 -4 0 12 -2 12 -11 -1 -8 -13 -10 -12
-7 4 2 11 11 20 21 22 31 4 30 11 -7 48 -38 38 -39 39 -49 30z m63 -57 c0 -8
-7 -14 -15 -14 -11 0 -12 4 -4 14 6 7 13 13 15 13 2 0 4 -6 4 -13z m10 -68 c0
-4 -5 -11 -10 -14 -6 -4 -7 -12 -3 -18 4 -7 1 -7 -9 1 -9 8 -15 19 -12 26 5
14 34 18 34 5z"/>
<path d="M1614 283 c2 -34 16 -59 16 -29 0 9 4 15 9 12 5 -3 11 1 15 9 3 8 0
17 -6 21 -7 4 -8 3 -4 -4 4 -7 3 -12 -3 -12 -5 0 -14 8 -20 18 -8 13 -9 10 -7
-15z"/>
</g>
</svg>
