<?xml version="1.0" standalone="no"?>
<!DOCTYPE svg PUBLIC "-//W3C//DTD SVG 20010904//EN"
 "http://www.w3.org/TR/2001/REC-SVG-20010904/DTD/svg10.dtd">
<svg version="1.0" xmlns="http://www.w3.org/2000/svg"
 width="300.000000pt" height="300.000000pt" viewBox="0 0 300.000000 300.000000"
 preserveAspectRatio="xMidYMid meet">
<metadata>
Created by potrace 1.11, written by Peter Selinger 2001-2013
</metadata>
<g transform="translate(0.000000,300.000000) scale(0.100000,-0.100000)"
fill="#000000" stroke="none">
<path d="M166 2841 c-2 -3 -3 -610 -3 -1348 l0 -1343 149 0 c91 0 148 4 149
10 0 6 1 24 1 40 0 62 5 59 -94 57 l-93 -1 -3 1242 -2 1241 97 3 97 3 -1 33
c-2 78 13 70 -149 69 -80 0 -147 -3 -148 -6z"/>
<path d="M550 2795 l0 -55 207 -2 208 -3 -1 -1240 0 -1240 -194 -2 c-107 -1
-201 -2 -207 -2 -18 -1 -18 -97 -1 -103 7 -2 528 -4 1158 -3 l1145 1 0 426 1
426 -26 4 c-43 6 -74 -6 -82 -32 -49 -166 -74 -239 -103 -298 -114 -239 -256
-354 -500 -408 -16 -4 -208 -8 -425 -10 l-395 -3 2 1237 c1 680 2 1240 2 1245
1 4 93 7 206 7 l205 0 0 55 0 55 -600 0 -600 0 0 -55z"/>
<path d="M1849 2846 c-1 -1 -2 -25 -3 -53 l-1 -53 65 -1 c36 0 241 -1 455 -2
l390 -2 2 -795 c1 -437 2 -806 2 -820 1 -23 4 -25 46 -23 25 1 49 4 53 7 4 3
8 395 8 873 l-1 868 -507 1 c-280 1 -509 1 -509 0z"/>
</g>
</svg>
