<?xml version="1.0" standalone="no"?>
<!DOCTYPE svg PUBLIC "-//W3C//DTD SVG 20010904//EN"
 "http://www.w3.org/TR/2001/REC-SVG-20010904/DTD/svg10.dtd">
<svg version="1.0" xmlns="http://www.w3.org/2000/svg"
 width="300.000000pt" height="300.000000pt" viewBox="0 0 300.000000 300.000000"
 preserveAspectRatio="xMidYMid meet">
<metadata>
Created by potrace 1.11, written by Peter Selinger 2001-2013
</metadata>
<g transform="translate(0.000000,300.000000) scale(0.100000,-0.100000)"
fill="#000000" stroke="none">
<path d="M1170 2823 c-281 -40 -505 -143 -684 -316 -186 -180 -299 -419 -323
-682 -9 -105 -3 -280 12 -335 2 -8 6 -31 9 -50 13 -90 72 -256 136 -385 215
-431 621 -755 1080 -859 147 -34 201 -38 217 -17 19 24 16 31 -13 31 -72 0
-300 103 -409 185 -205 153 -404 434 -504 711 -49 135 -86 286 -96 389 -3 22
-7 55 -10 74 -7 39 -8 221 -1 269 3 18 8 52 11 75 11 78 54 227 83 285 48 95
81 142 156 217 113 112 231 174 402 210 599 125 1318 -408 1410 -1045 3 -19
16 -82 30 -140 13 -58 26 -115 29 -128 2 -13 6 -31 9 -40 6 -18 8 -32 31 -162
21 -123 23 -141 24 -177 2 -88 39 10 65 172 21 133 13 356 -16 470 -6 22 -12
51 -15 65 -21 118 -139 368 -239 507 -69 96 -223 261 -307 329 -65 52 -180
129 -242 162 -77 40 -215 102 -215 95 0 -3 -6 -1 -12 4 -18 14 -139 49 -238
68 -77 16 -319 27 -380 18z"/>
<path d="M1390 2563 c-178 -23 -284 -63 -406 -149 -135 -96 -226 -217 -283
-376 -17 -48 -24 -72 -37 -133 -25 -113 -24 -382 1 -475 2 -8 7 -31 10 -50 30
-178 122 -413 228 -585 225 -363 543 -556 903 -549 130 2 179 8 264 33 280 80
511 270 640 526 47 96 48 100 4 330 -8 44 -17 96 -20 115 -3 19 -8 38 -10 41
-2 4 -6 24 -10 45 -6 38 -32 133 -81 293 l-25 83 -146 -7 c-81 -3 -163 -8
-182 -10 -19 -2 -66 -6 -105 -9 -38 -4 -86 -8 -105 -11 -19 -2 -62 -6 -95 -10
-65 -7 -85 -18 -85 -45 0 -10 18 -85 41 -167 41 -147 45 -166 55 -213 3 -13 6
-26 8 -27 1 -1 32 4 70 12 37 8 86 17 109 20 23 3 50 8 60 11 11 4 29 7 40 9
25 3 79 13 118 21 25 5 27 2 39 -58 16 -81 16 -85 29 -138 22 -95 19 -103 -76
-198 -130 -129 -257 -185 -413 -181 -289 8 -529 245 -658 649 -62 196 -91 356
-86 480 9 233 96 357 287 410 201 56 412 3 557 -140 37 -36 78 -80 91 -98 l25
-33 109 26 c61 14 120 27 133 30 12 3 22 10 22 16 0 23 -94 150 -158 214 -143
143 -346 255 -508 279 -22 4 -51 9 -64 12 -29 6 -253 12 -290 7z"/>
</g>
</svg>
