<?xml version="1.0" standalone="no"?>
<!DOCTYPE svg PUBLIC "-//W3C//DTD SVG 20010904//EN"
 "http://www.w3.org/TR/2001/REC-SVG-20010904/DTD/svg10.dtd">
<svg version="1.0" xmlns="http://www.w3.org/2000/svg"
 width="260.000000pt" height="260.000000pt" viewBox="0 0 260.000000 260.000000"
 preserveAspectRatio="xMidYMid meet">
<metadata>
Created by potrace 1.11, written by Peter Selinger 2001-2013
</metadata>
<g transform="translate(0.000000,260.000000) scale(0.100000,-0.100000)"
fill="#000000" stroke="none">
<path d="M2215 2209 c-13 -4 -48 -31 -77 -61 -29 -30 -82 -78 -118 -107 -36
-28 -70 -56 -77 -61 -6 -5 -37 -26 -70 -46 -32 -21 -60 -40 -63 -43 -3 -4 -43
-31 -90 -61 -47 -30 -86 -58 -88 -62 -2 -5 -8 -8 -13 -8 -8 0 -186 -122 -216
-149 -7 -6 -16 -11 -22 -11 -5 0 -11 -3 -13 -7 -3 -7 -135 -107 -188 -143 -13
-8 -36 -26 -51 -38 -47 -38 -76 -41 -149 -14 -36 13 -74 24 -85 25 -29 3 -30
-31 -2 -100 17 -42 21 -62 13 -68 -6 -6 -31 -26 -56 -45 -25 -19 -50 -39 -57
-45 -7 -5 -19 -16 -27 -22 -8 -7 -20 -13 -26 -13 -5 0 -10 -4 -10 -8 0 -5 -20
-23 -45 -41 -24 -17 -50 -37 -57 -44 -7 -7 -33 -28 -58 -47 -25 -19 -47 -37
-50 -40 -3 -3 -25 -21 -50 -40 -25 -19 -49 -40 -55 -46 -5 -6 -32 -28 -60 -50
-27 -21 -55 -43 -61 -49 -6 -5 -40 -35 -75 -65 -79 -68 -169 -156 -197 -193
-18 -25 -20 -38 -16 -100 2 -40 7 -91 10 -114 9 -70 56 -66 69 6 13 76 123
234 266 382 90 93 128 127 337 301 51 42 109 90 130 105 20 15 39 30 42 33 8
9 134 105 149 115 16 9 50 14 141 20 36 2 65 4 65 5 0 3 205 12 292 14 51 0
93 5 93 9 0 4 9 3 20 -3 11 -6 26 -8 32 -4 17 11 98 11 98 0 0 -5 6 -4 13 1 6
5 30 8 52 6 45 -5 47 -5 95 0 39 3 53 -8 40 -32 -7 -12 -49 -134 -55 -161 -1
-3 -4 -12 -8 -20 -5 -14 -26 -72 -88 -250 -13 -36 -28 -68 -33 -72 -6 -4 -8
-8 -4 -8 3 0 -4 -30 -17 -67 -60 -172 -34 -297 75 -353 51 -27 158 -32 248
-13 84 18 96 21 102 23 3 1 8 2 13 1 4 0 7 3 7 9 0 5 4 10 10 10 23 0 223 106
228 121 2 5 10 9 17 9 21 0 46 45 32 59 -17 17 -40 13 -77 -14 -33 -24 -164
-96 -175 -95 -3 0 -6 0 -7 -1 -31 -9 -53 -12 -104 -12 -48 0 -68 4 -94 23 -39
27 -60 74 -60 131 0 37 32 201 47 239 8 19 11 30 17 59 3 13 10 38 15 55 5 17
28 94 51 171 23 77 45 149 50 160 4 11 27 76 50 145 57 166 204 559 248 660
21 49 55 85 71 76 5 -4 12 -2 16 4 3 5 14 10 24 10 10 0 24 7 31 16 11 12 10
18 -3 31 -13 13 -44 16 -176 17 -89 1 -172 -2 -186 -5z m-31 -186 c-23 -101
-94 -350 -111 -393 -4 -8 -7 -18 -8 -22 -2 -5 -3 -9 -5 -10 -1 -2 -3 -11 -6
-20 -6 -28 -10 -42 -17 -58 -3 -8 -15 -46 -28 -85 -12 -38 -25 -75 -30 -80
-11 -15 -506 -8 -515 7 -3 4 -13 5 -22 0 -15 -7 -38 -8 -52 -2 -4 1 -75 5
-170 9 -33 2 -34 2 -15 16 11 8 25 18 30 23 6 5 80 59 165 120 85 62 160 115
165 120 6 4 66 46 135 92 69 47 131 91 138 98 7 6 17 12 22 12 5 0 15 6 22 13
18 18 289 187 300 187 4 0 6 -12 2 -27z"/>
</g>
</svg>
