<?xml version="1.0" standalone="no"?>
<!DOCTYPE svg PUBLIC "-//W3C//DTD SVG 20010904//EN"
 "http://www.w3.org/TR/2001/REC-SVG-20010904/DTD/svg10.dtd">
<svg version="1.0" xmlns="http://www.w3.org/2000/svg"
 width="300.000000pt" height="300.000000pt" viewBox="0 0 300.000000 300.000000"
 preserveAspectRatio="xMidYMid meet">
<metadata>
Created by potrace 1.11, written by Peter Selinger 2001-2013
</metadata>
<g transform="translate(0.000000,300.000000) scale(0.100000,-0.100000)"
fill="#000000" stroke="none">
<path d="M1315 2488 c-102 -12 -265 -59 -265 -77 0 -8 3 -12 6 -8 4 3 29 -10
58 -29 28 -18 56 -34 63 -34 7 0 13 -5 13 -10 0 -6 10 -14 23 -19 19 -8 179
-100 227 -131 8 -6 26 -16 40 -22 14 -7 27 -15 30 -19 3 -3 25 -16 50 -30 25
-13 47 -26 50 -29 3 -3 16 -11 29 -18 13 -8 38 -22 56 -32 18 -10 43 -24 56
-32 13 -7 26 -15 29 -18 5 -5 33 -22 80 -47 14 -8 39 -23 55 -33 17 -11 48
-29 70 -41 22 -12 43 -26 46 -31 3 -5 9 -10 12 -10 16 0 47 -11 47 -17 0 -4
17 -15 38 -26 20 -11 40 -24 44 -30 5 -7 8 -7 8 0 0 6 3 6 8 0 4 -6 45 -33 92
-60 47 -27 87 -53 88 -57 2 -4 9 -8 16 -8 8 0 25 -9 40 -21 l26 -20 0 28 c0
41 -38 186 -63 241 -12 26 -20 50 -19 55 1 4 -3 7 -8 7 -5 0 -9 3 -8 8 7 34
-97 179 -204 284 -221 217 -523 320 -833 286z"/>
<path d="M672 2160 c-183 -199 -277 -454 -267 -730 2 -58 8 -125 13 -150 6
-25 13 -56 16 -70 17 -88 91 -248 161 -346 49 -68 161 -185 169 -176 4 3 6 1
6 -5 0 -11 124 -99 175 -123 17 -8 33 -19 37 -25 4 -5 8 -7 8 -2 0 4 12 1 28
-6 27 -14 52 -13 52 3 0 7 80 143 140 240 17 28 74 125 87 148 7 12 48 82 91
155 44 72 112 188 153 257 41 69 78 133 84 142 5 10 29 49 51 87 39 66 41 71
25 85 -10 9 -20 16 -23 16 -3 0 -73 40 -155 88 -81 49 -168 100 -193 114 -25
14 -114 66 -198 117 -83 50 -157 91 -162 91 -6 0 -10 4 -10 8 0 4 -12 13 -27
19 -27 12 -63 33 -73 43 -3 3 -14 10 -25 16 -11 6 -40 22 -65 37 l-45 26 -53
-59z"/>
<path d="M2026 1418 c-25 -39 -126 -210 -126 -213 0 -2 -31 -54 -68 -117 -38
-62 -97 -162 -132 -223 -35 -60 -67 -112 -70 -115 -3 -3 -11 -16 -18 -30 -22
-43 -39 -71 -51 -83 -6 -6 -11 -19 -11 -29 0 -10 -5 -18 -10 -18 -6 0 -18 -18
-27 -40 -10 -22 -21 -40 -25 -40 -5 0 -8 -6 -8 -14 0 -7 -7 -19 -15 -26 -28
-23 -4 -31 72 -25 41 3 85 10 99 15 13 5 24 8 24 5 0 -2 18 2 40 10 22 8 40
12 40 8 0 -3 7 0 15 7 8 6 19 9 25 5 5 -3 10 -2 10 3 0 9 48 26 59 22 2 -1 7
2 10 7 10 14 71 45 71 36 0 -4 4 -3 8 2 4 6 36 29 72 52 61 40 178 145 225
203 54 67 162 254 157 272 -1 4 3 20 10 35 6 15 12 31 13 36 2 4 3 8 4 10 12
14 8 46 -7 51 -9 3 -26 11 -37 18 -11 7 -39 25 -63 41 -24 15 -45 27 -47 27
-2 0 -44 24 -93 54 -137 83 -129 80 -146 54z"/>
</g>
</svg>
