<?xml version="1.0" standalone="no"?>
<!DOCTYPE svg PUBLIC "-//W3C//DTD SVG 20010904//EN"
 "http://www.w3.org/TR/2001/REC-SVG-20010904/DTD/svg10.dtd">
<svg version="1.0" xmlns="http://www.w3.org/2000/svg"
 width="300.000000pt" height="300.000000pt" viewBox="0 0 300.000000 300.000000"
 preserveAspectRatio="xMidYMid meet">
<metadata>
Created by potrace 1.11, written by Peter Selinger 2001-2013
</metadata>
<g transform="translate(0.000000,300.000000) scale(0.100000,-0.100000)"
fill="#000000" stroke="none">
<path d="M230 1500 l0 -980 129 0 c95 0 131 3 140 13 6 8 9 16 6 19 -3 2 23
10 57 16 82 15 149 50 171 89 14 24 28 125 62 435 25 221 52 464 60 538 16
144 11 193 -23 222 -21 20 -92 44 -154 53 -40 6 -48 11 -48 29 0 21 2 21 214
22 l213 0 10 -25 c64 -162 163 -419 165 -431 2 -8 5 -17 8 -20 8 -7 51 -121
53 -140 1 -8 5 -17 8 -20 9 -7 82 -201 82 -217 0 -7 4 -13 9 -13 4 0 8 -4 8
-9 0 -5 23 -68 51 -140 33 -86 56 -131 65 -131 9 0 13 4 9 9 -8 14 29 103 40
94 4 -4 5 -3 2 4 -4 6 83 237 193 512 110 276 200 506 200 511 0 13 -15 12
233 14 l217 1 0 -24 c0 -18 -4 -22 -20 -18 -11 3 -23 1 -26 -4 -3 -5 -17 -9
-32 -9 -44 -1 -110 -36 -132 -72 -20 -31 -21 -43 -16 -188 3 -85 8 -186 11
-225 2 -38 10 -176 15 -305 6 -129 12 -273 15 -320 5 -116 21 -162 65 -185 26
-13 144 -47 168 -48 6 0 12 -9 12 -19 0 -17 11 -18 136 -18 l135 0 -2 85 c-1
47 1 88 3 91 3 3 2 21 -2 40 -4 19 -5 36 -1 38 3 2 4 57 1 121 -3 64 -2 119 1
121 4 2 3 20 -1 39 -4 19 -5 37 -1 39 3 2 4 57 1 121 -3 64 -2 119 1 121 4 2
3 20 -1 39 -4 19 -5 37 -1 39 3 2 4 57 1 121 -3 64 -2 119 1 121 4 2 3 20 -1
39 -4 19 -5 37 -1 39 3 2 4 57 1 121 -3 64 -2 119 1 121 4 2 3 20 -1 39 -4 19
-5 37 -1 39 3 2 4 57 1 121 -3 64 -2 119 1 121 4 2 3 20 -1 39 -4 19 -5 37 -1
39 3 2 4 27 3 55 l-4 51 -1254 0 -1254 0 0 -980z"/>
<path d="M1885 1553 c-43 -109 -81 -200 -84 -203 -3 -3 -6 -9 -6 -15 0 -13
-157 -408 -164 -415 -3 -3 -7 -12 -9 -20 -7 -33 -95 -245 -104 -248 -4 -2 -6
-7 -3 -12 3 -4 -4 -29 -15 -55 -11 -26 -20 -51 -20 -56 0 -5 68 -9 155 -9 143
0 155 1 155 18 0 14 14 21 63 31 96 20 127 38 149 88 18 42 19 54 8 248 -6
112 -10 223 -9 247 0 24 -4 122 -10 218 -6 96 -11 217 -10 269 0 51 -3 97 -8
102 -6 6 -41 -70 -88 -188z"/>
<path d="M926 1692 c-3 -5 -8 -65 -12 -133 -3 -68 -7 -127 -10 -130 -2 -3 -6
-57 -9 -120 -3 -63 -9 -127 -12 -144 -4 -16 -6 -34 -5 -38 2 -5 -4 -93 -13
-197 -21 -264 -21 -262 18 -303 26 -28 46 -38 110 -52 54 -12 81 -23 88 -36 9
-17 23 -19 159 -19 91 0 150 4 150 10 0 5 -14 44 -31 87 -17 43 -32 83 -33 88
-1 6 -4 15 -8 20 -8 13 -106 266 -110 285 -2 8 -5 17 -8 20 -8 8 -122 303
-124 320 0 8 -4 17 -7 20 -4 3 -35 77 -69 165 -34 88 -63 161 -65 163 -2 2 -6
-1 -9 -6z"/>
</g>
</svg>
