<?xml version="1.0" standalone="no"?>
<!DOCTYPE svg PUBLIC "-//W3C//DTD SVG 20010904//EN"
 "http://www.w3.org/TR/2001/REC-SVG-20010904/DTD/svg10.dtd">
<svg version="1.0" xmlns="http://www.w3.org/2000/svg"
 width="300.000000pt" height="300.000000pt" viewBox="0 0 300.000000 300.000000"
 preserveAspectRatio="xMidYMid meet">
<metadata>
Created by potrace 1.11, written by Peter Selinger 2001-2013
</metadata>
<g transform="translate(0.000000,300.000000) scale(0.100000,-0.100000)"
fill="#000000" stroke="none">
<path d="M20 2380 c-4 -3 -7 -418 -7 -922 l1 -918 30 -1 c37 0 556 0 572 0 8
1 12 78 12 268 l0 268 39 34 c21 19 81 74 133 122 52 48 107 97 121 108 l26
20 7 -60 c22 -196 136 -393 301 -524 28 -22 52 -42 55 -45 25 -25 196 -105
286 -133 139 -44 252 -60 429 -60 128 1 150 3 270 24 141 25 314 98 410 173
62 47 123 114 169 186 50 77 68 119 96 232 12 45 23 91 26 101 5 16 -9 17
-232 15 -228 -3 -237 -4 -240 -23 -15 -106 -42 -164 -101 -222 -74 -72 -175
-130 -243 -140 -8 -1 -38 -6 -66 -11 -81 -14 -216 -6 -309 19 -54 15 -163 73
-202 109 -84 76 -151 196 -168 301 -4 24 -9 53 -11 64 -10 47 -5 157 11 240
34 175 135 315 280 384 97 47 167 62 295 63 148 1 257 -32 375 -117 52 -36 68
-55 91 -105 16 -35 34 -60 43 -61 71 -3 454 1 458 5 11 10 -21 113 -54 178
-118 227 -405 391 -739 423 -80 7 -296 7 -336 0 -16 -3 -40 -7 -55 -9 -16 -2
-44 -7 -63 -10 -19 -4 -42 -8 -50 -10 -30 -5 -135 -39 -145 -45 -5 -4 -32 -16
-60 -26 -102 -38 -165 -79 -380 -250 -77 -61 -160 -126 -185 -145 -25 -19 -50
-39 -56 -45 -7 -5 -35 -28 -64 -50 -29 -22 -75 -59 -104 -82 -28 -23 -52 -40
-54 -38 -2 1 -4 164 -5 361 l-2 358 -298 1 c-165 0 -302 -2 -307 -5z"/>
</g>
</svg>
