<?xml version="1.0" standalone="no"?>
<!DOCTYPE svg PUBLIC "-//W3C//DTD SVG 20010904//EN"
 "http://www.w3.org/TR/2001/REC-SVG-20010904/DTD/svg10.dtd">
<svg version="1.0" xmlns="http://www.w3.org/2000/svg"
 width="300.000000pt" height="300.000000pt" viewBox="0 0 300.000000 300.000000"
 preserveAspectRatio="xMidYMid meet">
<metadata>
Created by potrace 1.11, written by Peter Selinger 2001-2013
</metadata>
<g transform="translate(0.000000,300.000000) scale(0.100000,-0.100000)"
fill="#000000" stroke="none">
<path d="M2449 2540 c-1 -3 -2 -32 -3 -65 -2 -69 -26 -116 -134 -268 -73 -102
-290 -378 -347 -441 -6 -6 -33 -38 -60 -71 -28 -33 -59 -69 -70 -81 -11 -11
-34 -37 -52 -58 -49 -58 -234 -262 -358 -395 -71 -76 -251 -264 -338 -352 -43
-44 -66 -62 -54 -41 3 4 8 40 11 81 4 41 9 77 11 81 2 3 13 60 24 126 26 147
29 162 46 249 8 39 17 90 20 114 3 24 7 47 9 50 2 3 7 31 11 61 3 30 12 98 19
150 19 145 13 294 -14 357 -29 68 -122 157 -179 173 -122 33 -347 -10 -536
-101 -100 -49 -141 -80 -132 -102 9 -23 17 -21 52 9 17 14 50 36 75 48 49 25
169 60 176 53 3 -3 -25 -17 -63 -31 -79 -30 -171 -84 -187 -108 -8 -13 -7 -21
1 -29 9 -9 22 -4 55 22 85 68 186 98 313 95 142 -4 185 -36 210 -156 11 -55
12 -217 1 -290 -10 -67 -16 -105 -21 -150 -3 -25 -15 -94 -25 -155 -11 -60
-22 -128 -25 -150 -24 -161 -128 -555 -175 -659 -24 -54 -16 -72 26 -56 22 9
23 7 14 -16 -18 -46 6 -52 71 -19 17 9 55 19 83 22 69 7 80 14 122 81 36 56
122 167 175 227 15 17 37 41 49 55 12 13 104 110 205 215 101 104 200 208 220
230 21 22 65 69 99 105 33 36 95 102 136 146 41 44 116 124 165 179 50 55 106
116 126 137 19 20 62 67 95 104 32 36 74 83 92 103 61 67 182 232 197 268 21
51 19 73 -14 124 -26 41 -120 139 -122 129z m-615 -1032 c-44 -52 -101 -114
-275 -303 -208 -226 -204 -221 -358 -379 -63 -64 -116 -116 -119 -116 -8 0
103 126 203 229 188 195 279 291 449 474 60 64 112 117 114 117 3 0 -3 -10
-14 -22z"/>
</g>
</svg>
