<?xml version="1.0" standalone="no"?>
<!DOCTYPE svg PUBLIC "-//W3C//DTD SVG 20010904//EN"
 "http://www.w3.org/TR/2001/REC-SVG-20010904/DTD/svg10.dtd">
<svg version="1.0" xmlns="http://www.w3.org/2000/svg"
 width="300.000000pt" height="300.000000pt" viewBox="0 0 300.000000 300.000000"
 preserveAspectRatio="xMidYMid meet">
<metadata>
Created by potrace 1.11, written by Peter Selinger 2001-2013
</metadata>
<g transform="translate(0.000000,300.000000) scale(0.100000,-0.100000)"
fill="#000000" stroke="none">
<path d="M690 2603 c18 -21 51 -58 74 -83 23 -25 77 -85 121 -135 44 -49 91
-102 105 -116 14 -14 52 -57 85 -95 33 -37 67 -75 75 -84 8 -8 87 -96 175
-195 88 -99 169 -189 180 -200 11 -12 49 -54 85 -94 36 -41 71 -80 78 -87 17
-18 15 -27 -10 -56 -13 -13 -54 -60 -93 -103 -38 -43 -80 -90 -92 -103 -12
-13 -44 -48 -70 -78 -26 -30 -64 -72 -83 -93 -19 -20 -64 -71 -100 -111 -36
-41 -73 -82 -83 -92 -10 -11 -50 -56 -90 -101 -39 -45 -74 -84 -77 -87 -5 -4
-64 -69 -220 -244 -19 -22 -42 -47 -50 -56 -47 -50 -67 -47 300 -46 l341 1 37
41 c20 23 64 72 97 109 33 38 71 80 85 95 14 15 52 57 84 94 33 37 71 80 85
95 27 30 154 171 181 201 62 71 139 157 160 179 22 24 91 100 215 239 22 25
50 56 62 70 18 19 20 27 10 37 -14 14 -153 168 -179 197 -9 11 -48 54 -85 96
-37 41 -75 83 -83 92 -41 47 -138 155 -160 179 -14 15 -41 45 -60 67 -19 22
-71 80 -116 129 -44 50 -96 107 -115 129 -19 21 -43 48 -54 60 -11 13 -53 59
-94 104 l-74 82 -339 0 -340 0 32 -37z"/>
</g>
</svg>
