<?xml version="1.0" standalone="no"?>
<!DOCTYPE svg PUBLIC "-//W3C//DTD SVG 20010904//EN"
 "http://www.w3.org/TR/2001/REC-SVG-20010904/DTD/svg10.dtd">
<svg version="1.0" xmlns="http://www.w3.org/2000/svg"
 width="300.000000pt" height="300.000000pt" viewBox="0 0 300.000000 300.000000"
 preserveAspectRatio="xMidYMid meet">
<metadata>
Created by potrace 1.11, written by Peter Selinger 2001-2013
</metadata>
<g transform="translate(0.000000,300.000000) scale(0.100000,-0.100000)"
fill="#000000" stroke="none">
<path d="M1408 2654 c-2 -1 -30 -5 -63 -8 -67 -6 -113 -14 -135 -23 -8 -3 -22
-7 -30 -8 -46 -7 -130 -38 -130 -49 0 -7 15 -20 33 -29 46 -23 117 -66 150
-89 15 -11 27 -16 27 -13 0 4 7 -1 16 -9 8 -9 22 -16 30 -16 8 0 14 -4 14 -10
0 -5 7 -10 15 -10 8 0 15 -4 15 -8 0 -5 16 -14 35 -22 19 -8 35 -16 35 -19 0
-4 15 -13 33 -21 17 -7 41 -22 51 -32 11 -10 26 -18 33 -18 7 0 13 -4 13 -10
0 -6 3 -10 8 -9 13 2 52 -13 52 -20 0 -4 17 -15 38 -26 20 -11 39 -22 42 -26
3 -3 12 -8 20 -12 8 -4 33 -18 55 -32 22 -14 51 -30 65 -37 14 -7 30 -17 35
-21 6 -4 48 -30 95 -57 47 -27 90 -54 97 -59 7 -6 14 -11 17 -11 3 0 29 -14
58 -31 29 -18 67 -40 83 -49 75 -43 110 -65 115 -70 3 -3 31 -18 62 -35 32
-16 58 -33 58 -37 0 -5 3 -7 8 -6 4 1 26 -10 49 -25 24 -15 47 -27 53 -27 5 0
10 -5 10 -11 0 -5 5 -7 10 -4 6 3 10 1 10 -6 0 -7 3 -9 7 -6 3 4 11 -1 18 -10
11 -14 13 -12 17 16 3 17 1 34 -4 37 -4 3 -8 18 -8 34 0 16 -4 31 -9 34 -4 3
-7 17 -6 31 2 14 -1 25 -6 25 -5 0 -9 10 -9 23 0 13 -3 27 -7 31 -4 3 -8 13
-9 20 -1 7 -13 36 -26 64 -14 28 -20 48 -14 45 6 -4 1 6 -12 21 -12 16 -22 35
-22 43 0 7 -7 16 -15 19 -8 4 -13 10 -10 14 3 4 -2 13 -10 20 -8 7 -15 19 -15
26 0 8 -4 14 -10 14 -5 0 -10 6 -10 14 0 8 -3 16 -8 18 -4 2 -25 25 -47 52
-71 87 -156 163 -260 233 -62 41 -184 103 -204 103 -6 0 -11 5 -11 12 0 6 -3
9 -6 5 -4 -3 -23 0 -43 8 -20 8 -48 16 -63 19 -15 3 -32 7 -36 10 -8 5 -36 10
-127 23 -35 4 -214 11 -217 7z"/>
<path d="M615 2278 c-68 -76 -152 -202 -189 -283 -15 -33 -30 -67 -35 -75 -9
-17 -43 -126 -46 -150 -1 -8 -4 -22 -7 -30 -19 -55 -24 -114 -22 -250 2 -159
4 -181 31 -285 8 -33 16 -64 18 -70 3 -14 13 -38 48 -120 74 -173 198 -330
357 -452 57 -44 208 -134 235 -140 6 -1 19 -5 31 -8 16 -5 24 0 35 22 8 15 45
80 83 143 38 63 87 147 109 185 22 39 47 77 54 86 7 9 10 19 6 22 -3 4 -1 7 5
7 6 0 12 6 14 13 2 10 26 51 138 237 99 165 150 253 155 270 3 11 11 20 16 20
5 0 9 4 9 10 0 5 25 50 55 100 30 50 55 94 55 97 0 4 8 15 17 25 12 13 13 22
6 29 -15 15 -174 109 -185 109 -4 0 -8 5 -8 10 0 6 -6 10 -12 10 -7 0 -41 18
-76 40 -34 22 -67 40 -72 40 -6 0 -10 4 -10 9 0 5 -8 11 -17 15 -18 5 -43 19
-113 63 -19 11 -51 30 -70 41 -19 10 -115 67 -213 126 -99 58 -183 106 -188
106 -5 0 -9 4 -9 9 0 5 -8 11 -17 14 -10 4 -40 20 -68 36 -27 17 -53 30 -57
31 -3 0 -31 -28 -63 -62z"/>
<path d="M2151 1435 c-11 -15 -26 -40 -33 -56 -7 -16 -16 -29 -19 -29 -4 0
-10 -11 -13 -25 -4 -14 -11 -25 -16 -25 -6 0 -10 -4 -10 -9 0 -16 -143 -251
-152 -251 -5 0 -7 -4 -3 -9 3 -5 -8 -29 -23 -53 -16 -24 -38 -59 -48 -78 -10
-19 -22 -37 -25 -40 -4 -3 -16 -23 -28 -45 -56 -103 -67 -120 -73 -123 -5 -2
-8 -10 -8 -18 0 -8 -4 -14 -10 -14 -5 0 -9 -3 -8 -7 1 -5 -30 -63 -70 -130
-40 -67 -74 -126 -74 -130 -1 -4 -10 -17 -20 -28 -22 -23 -18 -40 8 -39 111 6
234 30 329 63 30 11 55 16 55 13 0 -4 4 -1 9 6 4 7 14 14 22 16 8 1 34 13 59
26 25 13 48 23 51 22 4 -1 19 10 33 23 14 13 26 22 26 19 0 -5 46 24 73 46 72
61 94 81 135 124 26 27 55 58 65 68 9 10 17 23 17 28 0 6 7 13 15 16 8 4 15
12 15 18 0 7 8 21 18 32 9 10 24 33 32 49 8 17 21 36 28 43 6 7 12 22 12 33 0
10 5 19 10 19 6 0 10 4 10 9 0 5 5 22 12 38 6 15 12 31 13 36 2 4 4 9 5 12 1
3 3 8 5 13 1 4 4 14 7 22 9 22 28 82 28 87 0 2 -4 1 -10 -2 -5 -3 -10 -2 -10
3 0 5 -8 12 -17 16 -10 3 -27 11 -38 18 -68 45 -144 88 -154 88 -6 0 -11 3
-11 8 0 4 -18 16 -40 26 -22 11 -40 24 -40 29 0 6 -3 7 -7 4 -3 -4 -13 -1 -22
6 -9 8 -32 24 -53 36 l-36 21 -21 -25z"/>
</g>
</svg>
