<?xml version="1.0" standalone="no"?>
<!DOCTYPE svg PUBLIC "-//W3C//DTD SVG 20010904//EN"
 "http://www.w3.org/TR/2001/REC-SVG-20010904/DTD/svg10.dtd">
<svg version="1.0" xmlns="http://www.w3.org/2000/svg"
 width="260.000000pt" height="260.000000pt" viewBox="0 0 260.000000 260.000000"
 preserveAspectRatio="xMidYMid meet">
<metadata>
Created by potrace 1.11, written by Peter Selinger 2001-2013
</metadata>
<g transform="translate(0.000000,260.000000) scale(0.100000,-0.100000)"
fill="#000000" stroke="none">
<path d="M1175 2452 c-61 -43 -312 -222 -560 -396 -247 -175 -456 -325 -462
-334 -43 -53 17 -124 77 -92 10 5 253 176 540 379 l523 370 26 -18 c14 -10
226 -160 471 -333 568 -401 578 -408 605 -408 45 0 72 65 43 102 -7 8 -89 69
-183 135 -93 66 -346 244 -562 396 -215 152 -396 277 -400 277 -5 0 -58 -35
-118 -78z"/>
<path d="M900 1145 l0 -485 65 0 65 0 2 378 3 379 258 -379 258 -378 70 0 69
0 0 485 0 485 -65 0 -65 0 -2 -382 -3 -382 -260 382 -260 381 -67 1 -68 0 0
-485z"/>
<path d="M369 643 c-11 -12 -15 -76 -17 -290 l-3 -273 946 0 945 0 0 263 c0
297 -3 310 -62 315 -64 5 -68 -10 -68 -250 l0 -208 -815 0 -815 0 0 208 c0
235 -4 252 -64 252 -19 0 -40 -7 -47 -17z"/>
</g>
</svg>
