<?xml version="1.0" standalone="no"?>
<!DOCTYPE svg PUBLIC "-//W3C//DTD SVG 20010904//EN"
 "http://www.w3.org/TR/2001/REC-SVG-20010904/DTD/svg10.dtd">
<svg version="1.0" xmlns="http://www.w3.org/2000/svg"
 width="16.000000pt" height="16.000000pt" viewBox="0 0 16.000000 16.000000"
 preserveAspectRatio="xMidYMid meet">
<metadata>
Created by potrace 1.11, written by Peter Selinger 2001-2013
</metadata>
<g transform="translate(0.000000,16.000000) scale(0.001985,-0.001985)"
fill="#000000" stroke="none">
<path d="M3394 8047 c-8 -22 -2 -83 29 -270 14 -86 24 -164 20 -172 -6 -18
-23 -22 -123 -30 -256 -21 -439 -47 -525 -76 -252 -84 -428 -239 -580 -509
-97 -173 -351 -728 -585 -1281 -171 -402 -336 -778 -489 -1113 -77 -166 -153
-341 -170 -389 -68 -194 -78 -371 -27 -482 64 -141 252 -284 431 -330 33 -8
118 -21 188 -29 71 -8 130 -16 133 -19 3 -2 -122 -410 -276 -907 -155 -496
-280 -909 -278 -918 8 -41 493 -306 728 -397 52 -21 103 -44 112 -52 13 -12
18 -35 20 -92 l3 -76 115 -41 c63 -22 132 -48 153 -57 21 -9 62 -19 90 -23 29
-3 68 -17 87 -29 28 -19 757 -288 1630 -602 228 -82 193 -80 344 -23 72 27
181 70 241 95 61 26 166 67 235 92 68 24 181 69 249 99 69 31 186 76 260 100
186 61 1024 384 1033 398 4 6 8 65 8 131 l0 120 220 79 c121 43 224 84 229 90
11 13 4 165 -35 741 -37 570 -178 2081 -209 2240 -8 44 -15 107 -15 140 0 33
-5 78 -10 100 -11 43 -70 625 -70 686 l0 36 83 5 c111 7 153 30 253 134 75 79
83 84 121 84 33 0 46 6 62 26 38 48 23 141 -26 163 -13 6 -75 11 -137 11
l-112 0 -37 136 c-69 257 -169 441 -348 640 -34 38 -38 50 -63 185 -15 79 -33
175 -42 214 -52 245 -306 514 -580 614 -101 37 -153 46 -389 70 -219 22 -220
23 -210 108 4 29 18 101 32 160 48 207 43 233 -44 233 -36 0 -314 -62 -497
-111 -57 -15 -84 -50 -91 -117 -4 -31 -13 -92 -21 -135 -9 -43 -14 -80 -12
-82 2 -1 68 -17 148 -35 80 -19 148 -36 152 -39 6 -5 -115 -330 -243 -651
l-34 -85 -110 -74 c-60 -40 -143 -100 -183 -133 l-72 -60 -14 34 c-27 65 -365
943 -368 957 -2 10 37 23 147 49 83 19 152 36 154 38 9 8 -51 300 -64 310 -34
26 -425 119 -544 130 -60 6 -71 4 -77 -9z m1985 -953 c2 -2 -8 -31 -24 -64
l-29 -60 -66 0 -66 0 -27 55 c-15 31 -27 60 -27 65 0 5 17 11 38 13 42 5 194
-1 201 -9z m216 -248 c292 -68 518 -189 715 -386 223 -223 321 -402 394 -722
l6 -28 -1450 0 c-1377 0 -1451 1 -1446 18 2 9 7 33 11 52 3 19 18 71 32 115
140 436 486 771 948 918 177 57 253 67 475 63 170 -2 210 -6 315 -30z m1412
-1253 c3 -7 -3 -10 -15 -6 -38 9 -89 -24 -145 -95 -43 -53 -70 -77 -114 -99
l-58 -28 -1411 0 -1411 0 -69 35 c-48 25 -78 48 -101 80 -69 94 -77 100 -127
100 -43 0 -55 7 -39 23 3 4 789 6 1746 5 1319 -2 1741 -6 1744 -15z m-2360
-343 c7 -14 24 -51 39 -83 28 -62 115 -164 167 -196 76 -46 162 -33 333 48
121 58 196 107 287 190 37 33 77 63 89 66 13 3 110 4 216 3 l193 -3 -77 -95
c-116 -144 -176 -202 -324 -313 -150 -113 -408 -363 -501 -487 -31 -41 -109
-154 -173 -250 -167 -249 -157 -240 -491 -442 -311 -189 -336 -197 -379 -130
-29 44 -66 161 -66 206 0 45 37 242 57 301 17 53 52 115 87 154 27 31 112 71
151 71 35 0 109 32 121 51 5 8 9 97 10 199 0 144 6 214 24 315 23 134 31 306
17 383 l-7 43 107 -3 c103 -3 108 -4 120 -28z m-1798 -674 c313 -75 397 -89
945 -156 93 -11 171 -22 173 -23 1 -2 -26 -32 -60 -68 -87 -89 -160 -234 -202
-398 -17 -66 -29 -186 -115 -1121 -74 -812 -126 -1472 -146 -1833 -7 -140 -15
-160 -62 -152 -15 3 -103 16 -195 30 -372 54 -902 199 -1294 354 -233 92 -627
304 -643 345 -4 12 6 61 26 125 143 468 204 671 250 831 68 237 399 1227 494
1475 89 233 178 423 226 482 47 57 126 109 201 133 99 32 190 26 402 -24z"/>
<path d="M5380 6819 c-20 -7 -95 -125 -333 -523 -169 -283 -310 -521 -313
-530 -5 -14 5 -16 82 -16 l89 0 312 523 c172 287 315 530 319 540 5 15 -1 17
-62 16 -38 0 -80 -5 -94 -10z"/>
<path d="M4789 6777 c-62 -18 -104 -50 -136 -104 -58 -99 -25 -231 73 -293
219 -139 465 131 299 328 -54 64 -150 92 -236 69z m114 -118 c37 -19 57 -52
57 -96 0 -93 -110 -138 -182 -74 -28 25 -33 36 -33 76 0 40 5 51 33 76 35 31
85 38 125 18z"/>
<path d="M5347 6226 c-125 -45 -190 -187 -138 -301 23 -51 75 -97 135 -120 61
-24 135 -15 195 23 129 79 140 248 22 355 -60 55 -137 70 -214 43z m150 -138
c15 -15 27 -41 30 -66 5 -37 2 -45 -30 -77 -28 -28 -43 -35 -73 -35 -113 0
-156 114 -71 186 26 22 38 25 75 21 29 -3 53 -13 69 -29z"/>
</g>
</svg>
