<?xml version="1.0" standalone="no"?>
<!DOCTYPE svg PUBLIC "-//W3C//DTD SVG 20010904//EN"
 "http://www.w3.org/TR/2001/REC-SVG-20010904/DTD/svg10.dtd">
<svg version="1.0" xmlns="http://www.w3.org/2000/svg"
 width="300.000000pt" height="300.000000pt" viewBox="0 0 300.000000 300.000000"
 preserveAspectRatio="xMidYMid meet">
<metadata>
Created by potrace 1.11, written by Peter Selinger 2001-2013
</metadata>
<g transform="translate(0.000000,300.000000) scale(0.100000,-0.100000)"
fill="#000000" stroke="none">
<path d="M1407 2644 c-1 -2 -25 -6 -52 -9 -28 -4 -66 -10 -85 -15 -19 -5 -46
-11 -60 -14 -125 -24 -316 -123 -450 -235 -135 -112 -252 -272 -319 -432 -35
-83 -48 -129 -80 -280 -22 -100 -6 -343 30 -470 7 -24 13 -48 15 -54 9 -39 73
-172 112 -235 123 -198 296 -352 498 -445 163 -75 294 -103 487 -103 203 -1
329 26 502 107 130 61 217 123 328 235 335 337 425 856 222 1283 -116 246
-320 449 -558 557 -78 36 -107 48 -122 51 -5 2 -35 10 -65 19 -30 8 -68 18
-85 20 -16 3 -50 8 -75 12 -44 7 -238 13 -243 8z"/>
</g>
</svg>
