<?xml version="1.0" standalone="no"?>
<!DOCTYPE svg PUBLIC "-//W3C//DTD SVG 20010904//EN"
 "http://www.w3.org/TR/2001/REC-SVG-20010904/DTD/svg10.dtd">
<svg version="1.0" xmlns="http://www.w3.org/2000/svg"
 width="300.000000pt" height="300.000000pt" viewBox="0 0 300.000000 300.000000"
 preserveAspectRatio="xMidYMid meet">
<metadata>
Created by potrace 1.11, written by Peter Selinger 2001-2013
</metadata>
<g transform="translate(0.000000,300.000000) scale(0.100000,-0.100000)"
fill="#000000" stroke="none">
<path d="M765 2168 c-272 -270 -464 -469 -463 -478 3 -13 61 -15 461 -15 252
0 463 3 469 7 13 8 19 48 7 48 -5 0 -6 6 -3 13 7 20 12 107 5 107 -3 0 -6 11
-6 25 0 14 2 25 5 25 3 0 5 16 5 35 0 19 -3 35 -7 35 -4 0 -5 6 -2 13 7 20 12
107 5 107 -3 0 -6 11 -6 25 0 14 2 25 5 25 3 0 5 16 5 35 0 19 -3 35 -7 35 -4
0 -5 6 -2 13 7 20 12 107 5 107 -3 0 -6 11 -6 25 0 14 2 25 5 25 3 0 5 16 5
35 0 19 -3 35 -7 35 -4 0 -5 6 -2 13 9 23 11 107 3 107 -4 0 -4 14 1 30 5 17
5 30 0 30 -5 0 -219 -208 -475 -462z"/>
<path d="M1445 2150 c0 -306 3 -470 10 -471 55 -6 928 -2 932 4 5 8 -923 937
-936 937 -3 0 -6 -211 -6 -470z"/>
<path d="M300 1471 c0 -12 921 -941 934 -941 2 0 6 9 9 20 3 13 1 18 -5 13 -7
-4 -8 -1 -3 7 9 15 14 80 6 80 -3 0 -6 11 -6 25 0 14 2 25 5 25 3 0 5 16 5 35
0 19 -3 35 -7 35 -4 0 -5 6 -2 13 7 20 12 107 5 107 -3 0 -6 11 -6 25 0 14 2
25 5 25 3 0 5 16 5 35 0 19 -3 35 -7 35 -4 0 -5 6 -2 13 7 20 12 107 5 107 -3
0 -6 11 -6 25 0 14 2 25 5 25 3 0 5 16 5 35 0 19 -3 35 -7 35 -4 0 -5 6 -2 13
9 23 11 107 3 107 -4 0 -4 14 1 30 5 19 5 28 -1 25 -5 -4 -5 3 0 19 7 17 6 27
-2 34 -7 6 -197 9 -474 9 -416 0 -463 -1 -463 -16z"/>
<path d="M1438 1473 c-7 -9 -7 -13 1 -13 9 0 9 -5 1 -20 -6 -12 -7 -20 -1 -20
10 0 9 -19 -2 -37 -4 -6 -3 -15 3 -18 8 -5 8 -11 0 -20 -8 -10 -8 -15 0 -20 8
-5 8 -10 0 -20 -8 -9 -8 -15 0 -20 6 -3 7 -12 3 -18 -10 -16 -10 -39 0 -54 4
-6 3 -14 -3 -18 -8 -5 -8 -10 0 -20 8 -10 8 -15 0 -20 -8 -5 -8 -10 0 -20 8
-10 8 -15 0 -20 -8 -5 -8 -10 0 -20 8 -10 8 -15 0 -20 -8 -5 -8 -10 0 -20 8
-10 8 -15 0 -20 -8 -5 -8 -10 0 -20 8 -10 8 -15 0 -20 -8 -5 -8 -10 0 -20 8
-10 8 -15 0 -20 -8 -5 -8 -11 1 -21 9 -11 9 -17 0 -28 -9 -10 -9 -16 -1 -21 8
-5 8 -10 0 -20 -8 -10 -8 -15 0 -20 8 -5 8 -10 0 -20 -8 -9 -8 -15 0 -20 6 -3
7 -12 3 -18 -10 -16 -10 -38 0 -59 4 -10 4 -18 0 -18 -10 0 -10 -41 0 -57 4
-7 3 -15 -3 -18 -7 -5 -8 -11 -1 -19 6 -7 6 -17 1 -26 -5 -8 -5 -19 1 -26 6
-8 32 10 86 62 43 41 81 74 86 74 4 0 5 5 2 10 -3 6 3 10 13 10 11 0 34 -16
51 -35 17 -19 32 -35 34 -35 3 0 43 -37 89 -83 201 -193 330 -317 334 -317 4
0 82 73 235 221 49 47 89 85 89 83 0 -1 35 34 79 77 43 44 84 79 90 79 6 0 11
4 11 9 0 5 21 30 48 55 l47 46 -105 101 c-58 55 -169 162 -247 236 -79 75
-143 140 -143 144 0 9 102 109 111 109 4 0 10 9 14 19 3 11 15 23 26 26 10 4
19 12 19 19 0 18 -957 17 -972 -1z"/>
</g>
</svg>
