<?xml version="1.0" standalone="no"?>
<!DOCTYPE svg PUBLIC "-//W3C//DTD SVG 20010904//EN"
 "http://www.w3.org/TR/2001/REC-SVG-20010904/DTD/svg10.dtd">
<svg version="1.0" xmlns="http://www.w3.org/2000/svg"
 width="300.000000pt" height="300.000000pt" viewBox="0 0 300.000000 300.000000"
 preserveAspectRatio="xMidYMid meet">
<metadata>
Created by potrace 1.11, written by Peter Selinger 2001-2013
</metadata>
<g transform="translate(0.000000,300.000000) scale(0.100000,-0.100000)"
fill="#000000" stroke="none">
<path d="M1147 1984 c-83 -21 -85 -23 -52 -44 l28 -19 1 -203 c1 -112 0 -211
-2 -220 -2 -10 -13 -20 -23 -23 -39 -13 -17 -20 55 -20 80 1 99 7 68 24 -17 9
-19 21 -18 126 1 129 4 135 67 135 60 0 69 -19 69 -148 0 -102 -2 -111 -20
-117 -39 -12 -10 -21 65 -20 80 2 104 10 62 20 -26 7 -26 9 -26 93 1 162 0
169 -25 198 -33 39 -97 39 -153 2 l-40 -26 1 120 c1 66 -1 123 -4 127 -3 4
-26 2 -53 -5z"/>
<path d="M1883 1981 c-65 -21 -69 -25 -38 -41 28 -15 28 -8 25 -322 l-1 -157
38 -7 c21 -4 63 -7 94 -8 111 0 191 78 191 186 -1 130 -119 208 -212 140 l-28
-21 0 115 c1 63 -3 119 -8 123 -5 4 -32 1 -61 -8z m184 -257 c28 -18 46 -84
40 -147 -10 -89 -57 -125 -122 -94 l-33 16 0 116 c0 110 1 117 22 125 25 11
62 4 93 -16z"/>
<path d="M159 1916 c-79 -38 -107 -109 -73 -182 14 -29 33 -42 111 -80 100
-47 120 -70 108 -124 -6 -27 -50 -60 -80 -60 -36 0 -93 43 -121 91 -16 27 -33
49 -37 49 -9 0 -4 -156 5 -165 2 -3 13 1 23 9 15 11 26 11 60 0 111 -33 225
37 225 138 0 67 -23 96 -108 135 -97 46 -122 68 -122 107 1 45 23 69 65 69 38
0 82 -33 113 -85 9 -16 20 -28 25 -28 9 0 2 129 -7 138 -3 2 -13 1 -23 -3 -10
-5 -22 -7 -28 -6 -73 18 -94 17 -136 -3z"/>
<path d="M907 1856 c-18 -28 -37 -47 -74 -76 -22 -17 -25 -23 -13 -30 8 -6 21
-8 28 -5 9 3 12 -26 12 -125 0 -117 2 -132 20 -150 23 -23 72 -26 131 -8 50
14 50 28 1 28 -64 0 -73 19 -70 146 l3 109 43 1 c61 2 62 2 62 22 0 16 -8 18
-52 18 l-53 -1 -3 48 c-3 52 -12 58 -35 23z"/>
<path d="M2610 1770 c-18 -45 -30 -84 -26 -87 3 -4 7 -4 9 -2 141 178 136 169
89 169 l-40 0 -32 -80z"/>
<path d="M554 1789 c-45 -13 -92 -66 -108 -118 -23 -80 11 -173 74 -206 61
-32 154 -22 202 22 30 26 58 92 58 138 0 48 -35 122 -70 147 -30 21 -113 31
-156 17z m79 -23 c45 -18 61 -70 55 -171 -6 -86 -30 -125 -78 -125 -51 0 -82
60 -81 156 1 72 11 104 42 133 27 25 22 24 62 7z"/>
<path d="M1593 1781 c-55 -26 -98 -91 -102 -155 -8 -159 152 -234 286 -135 31
23 19 29 -30 14 -91 -27 -150 4 -166 87 -10 57 -12 57 114 54 50 -2 95 -1 101
1 13 5 5 54 -14 89 -30 56 -120 77 -189 45z m88 -11 c11 0 39 -61 39 -84 0
-11 -17 -15 -70 -18 -62 -3 -70 -1 -70 15 0 45 49 102 78 92 8 -3 18 -5 23 -5z"/>
<path d="M2783 1793 c-30 -6 -71 -46 -79 -77 -12 -48 12 -82 87 -121 87 -46
105 -71 72 -107 -32 -36 -90 -16 -128 45 -25 40 -35 33 -35 -23 0 -48 1 -49
34 -56 36 -6 73 -8 115 -5 37 2 91 63 91 103 0 48 -21 73 -95 107 -67 32 -91
61 -74 92 21 40 76 27 112 -25 13 -20 27 -33 30 -29 11 10 8 81 -3 88 -12 8
-100 13 -127 8z"/>
<path d="M2200 1781 c0 -4 10 -11 22 -16 15 -7 39 -53 86 -165 l64 -155 -23
-42 c-13 -24 -25 -43 -27 -43 -1 0 -12 8 -23 19 -26 24 -67 16 -75 -15 -7 -29
1 -43 33 -55 32 -12 75 10 101 53 11 18 43 89 70 158 80 202 98 237 121 245
41 13 20 23 -44 22 -65 -1 -83 -10 -45 -22 11 -3 20 -10 20 -14 0 -4 -15 -52
-34 -107 -39 -113 -29 -117 -86 38 l-29 78 25 6 c50 13 21 22 -66 21 -49 0
-90 -3 -90 -6z"/>
<path d="M70 1090 c0 -58 4 -89 10 -85 13 8 13 162 0 170 -6 4 -10 -27 -10
-85z"/>
<path d="M149 1178 c-7 -17 -5 -156 2 -168 5 -10 9 11 9 60 1 62 3 72 13 56 7
-10 30 -43 52 -74 35 -51 40 -54 45 -34 3 13 4 49 3 80 -2 81 -2 84 -12 78 -4
-3 -7 -33 -6 -66 1 -33 0 -60 -4 -60 -3 0 -23 27 -45 60 -34 54 -54 77 -57 68z"/>
<path d="M310 1168 c0 -4 11 -8 25 -8 24 0 25 -2 25 -74 0 -41 5 -78 10 -81 6
-4 10 23 10 74 0 80 0 81 25 81 14 0 25 4 25 10 0 5 -27 8 -60 8 -33 -1 -60
-5 -60 -10z"/>
<path d="M472 1091 l3 -86 53 -1 c28 0 52 3 52 8 0 4 -20 8 -45 8 -45 0 -45 0
-45 35 0 33 2 34 30 31 17 -2 30 1 30 5 0 9 -10 12 -42 12 -13 0 -18 8 -18 28
0 27 3 29 40 29 22 0 40 4 40 9 0 5 -23 9 -50 8 l-51 0 3 -86z"/>
<path d="M626 1173 c-10 -11 -7 -162 4 -168 6 -4 10 10 10 34 0 56 30 57 61 1
12 -21 26 -37 31 -34 5 3 -1 21 -12 39 l-21 34 20 13 c25 15 27 50 6 68 -16
13 -89 23 -99 13z m90 -35 c8 -27 -4 -38 -42 -38 -31 0 -34 2 -34 30 0 29 2
30 35 28 23 -1 37 -8 41 -20z"/>
<path d="M797 1173 c-8 -15 -8 -153 0 -166 5 -7 10 20 13 63 l5 75 42 -67 c63
-98 64 -98 64 7 0 83 -1 96 -9 91 -5 -3 -8 -32 -7 -66 1 -33 -1 -60 -4 -60 -3
0 -23 27 -45 60 -40 63 -52 75 -59 63z"/>
<path d="M1021 1163 c-15 -29 -51 -136 -51 -152 0 -20 17 -2 22 24 2 14 12 20
35 22 28 2 35 -2 49 -28 27 -54 27 -23 -1 60 -29 88 -39 101 -54 74z m31 -70
c2 -12 -4 -18 -19 -19 -26 -1 -27 1 -11 46 10 31 12 32 19 13 4 -12 9 -30 11
-40z"/>
<path d="M1114 1169 c-2 -4 8 -9 23 -11 28 -3 28 -4 29 -75 0 -94 18 -100 21
-8 1 39 2 74 2 79 1 4 12 6 26 4 16 -3 25 -1 25 7 0 14 -118 17 -126 4z"/>
<path d="M1279 1173 c-1 -12 -1 -135 0 -156 1 -10 5 -16 10 -12 12 7 11 164
-1 171 -4 3 -8 2 -9 -3z"/>
<path d="M1377 1166 c-68 -52 -23 -182 57 -162 27 7 56 51 56 86 0 68 -65 112
-113 76z m77 -28 c32 -45 8 -118 -38 -118 -29 0 -44 17 -52 58 -13 66 55 111
90 60z"/>
<path d="M1538 1132 c-4 -61 6 -142 15 -122 4 8 6 39 4 67 -2 29 -2 55 1 57 2
3 25 -26 50 -64 26 -38 50 -66 54 -64 11 7 10 162 -2 169 -5 3 -10 -22 -12
-62 l-3 -68 -40 63 c-51 79 -62 83 -67 24z"/>
<path d="M1770 1177 c0 -2 -13 -41 -30 -87 -16 -46 -30 -85 -30 -87 0 -11 22
12 29 30 12 32 69 33 81 2 8 -21 30 -44 30 -31 0 18 -64 176 -71 176 -5 0 -9
-2 -9 -3z m30 -79 c8 -24 6 -27 -15 -25 -29 2 -30 8 -15 50 8 21 14 27 17 17
2 -8 8 -27 13 -42z"/>
<path d="M1898 1174 c-5 -4 -8 -43 -8 -86 0 -43 3 -79 8 -79 31 -6 80 -5 92 2
10 5 -2 8 -32 9 l-47 0 -3 81 c-2 44 -6 77 -10 73z"/>
<path d="M2090 1089 c0 -58 4 -88 10 -84 6 3 10 22 10 41 0 46 33 47 56 2 16
-32 35 -51 42 -44 2 2 -6 19 -17 37 -25 40 -26 49 -6 49 8 0 18 12 21 26 9 36
-14 56 -70 60 l-46 3 0 -90z m90 56 c20 -24 4 -45 -35 -45 -32 0 -35 2 -35 30
0 26 3 30 29 30 16 0 34 -7 41 -15z"/>
<path d="M2259 1170 c0 -3 -1 -41 -1 -85 l-1 -80 49 -1 c67 -2 81 10 19 16
-51 5 -51 5 -46 54 0 7 11 13 25 12 14 0 24 4 24 9 0 6 -10 10 -22 10 -12 0
-23 8 -27 20 -9 29 -2 35 42 35 21 0 39 4 39 10 0 9 -100 10 -101 0z"/>
<path d="M2442 1163 c-19 -37 -55 -154 -48 -160 3 -3 10 7 16 23 8 23 17 29
44 31 30 3 35 -1 46 -30 7 -17 14 -26 17 -19 5 14 -45 160 -58 168 -4 2 -12
-3 -17 -13z m37 -84 c1 -4 -10 -6 -24 -6 -29 0 -29 2 -13 48 l11 33 13 -34 c7
-19 13 -38 13 -41z"/>
<path d="M2568 1173 c-8 -14 -7 -163 0 -164 42 -7 92 -6 92 2 0 5 -18 9 -40 9
l-40 0 2 75 c2 69 -4 98 -14 78z"/>
<path d="M2654 1169 c-3 -5 9 -9 25 -9 l31 0 0 -81 c0 -54 3 -78 11 -74 6 4
10 32 9 64 -3 90 -2 91 25 91 14 0 25 4 25 9 0 5 -27 9 -60 9 -33 0 -63 -4
-66 -9z"/>
<path d="M2826 1130 c15 -27 28 -62 30 -77 1 -16 3 -35 3 -43 1 -12 3 -12 10
-2 4 8 7 25 5 40 -2 16 9 46 27 75 31 51 33 57 21 57 -5 0 -19 -19 -31 -41
l-24 -41 -26 41 c-37 58 -48 51 -15 -9z"/>
</g>
</svg>
