<?xml version="1.0" standalone="no"?>
<!DOCTYPE svg PUBLIC "-//W3C//DTD SVG 20010904//EN"
 "http://www.w3.org/TR/2001/REC-SVG-20010904/DTD/svg10.dtd">
<svg version="1.0" xmlns="http://www.w3.org/2000/svg"
 width="16.000000pt" height="16.000000pt" viewBox="0 0 16.000000 16.000000"
 preserveAspectRatio="xMidYMid meet">
<metadata>
Created by potrace 1.11, written by Peter Selinger 2001-2013
</metadata>
<g transform="translate(0.000000,16.000000) scale(0.012121,-0.012121)"
fill="#000000" stroke="none">
<path d="M132 1299 c-23 -12 -56 -37 -72 -57 -59 -72 -60 -82 -60 -571 0 -245
5 -464 10 -485 13 -56 58 -116 115 -151 l48 -30 465 -3 c529 -3 531 -3 607 73
76 76 76 78 73 611 l-3 469 -25 44 c-27 46 -80 94 -124 111 -17 6 -203 10
-509 10 -471 0 -483 -1 -525 -21z m415 -215 c0 -16 2 -39 2 -50 1 -20 6 -21
82 -20 44 1 83 -2 86 -7 2 -4 -5 -18 -16 -30 -11 -12 -58 -70 -105 -128 l-85
-106 -53 -1 c-29 0 -84 -1 -121 -3 -37 -1 -70 1 -73 4 -3 3 -18 2 -33 -3 -16
-4 -33 -5 -39 -1 -5 3 40 65 104 141 111 133 113 136 114 186 l0 51 68 -2 c67
-1 67 -1 69 -31z m380 -116 c17 -24 39 -52 50 -63 35 -39 113 -143 113 -152 0
-4 -97 -8 -215 -8 -118 -1 -211 2 -207 5 4 3 23 25 42 50 19 24 42 52 50 61
29 30 105 122 113 135 13 22 21 17 54 -28z m-427 -526 l0 -168 -167 0 c-158 1
-166 2 -169 21 -9 65 -10 83 -3 113 4 17 3 35 -2 38 -5 3 -7 10 -3 15 3 6 6
42 5 80 l-1 69 170 0 170 0 0 -168z m622 156 c2 -7 4 -83 4 -168 l-1 -155
-245 0 -245 0 -1 168 0 167 242 0 c185 0 243 -3 246 -12z"/>
</g>
</svg>
