<?xml version="1.0" standalone="no"?>
<!DOCTYPE svg PUBLIC "-//W3C//DTD SVG 20010904//EN"
 "http://www.w3.org/TR/2001/REC-SVG-20010904/DTD/svg10.dtd">
<svg version="1.0" xmlns="http://www.w3.org/2000/svg"
 width="300.000000pt" height="300.000000pt" viewBox="0 0 300.000000 300.000000"
 preserveAspectRatio="xMidYMid meet">
<metadata>
Created by potrace 1.11, written by Peter Selinger 2001-2013
</metadata>
<g transform="translate(0.000000,300.000000) scale(0.100000,-0.100000)"
fill="#000000" stroke="none">
<path d="M1388 2715 c-26 -6 -54 -18 -63 -25 -10 -8 -46 -15 -85 -17 -83 -3
-180 -34 -240 -77 -25 -18 -64 -42 -87 -54 -149 -75 -304 -294 -349 -492 -18
-81 -24 -307 -11 -395 35 -226 105 -360 321 -610 124 -144 242 -269 441 -465
l75 -75 116 0 116 -1 102 102 c477 478 703 779 730 974 4 25 10 71 14 102 14
99 6 265 -17 356 -59 229 -223 452 -380 518 -20 8 -45 23 -56 33 -50 47 -151
81 -243 83 -31 1 -67 8 -79 16 -62 39 -207 52 -305 27z"/>
<path d="M1398 388 c5 -7 17 -40 27 -73 l16 -61 60 1 c32 1 63 5 68 10 4 6 14
32 20 60 7 27 17 55 23 62 8 10 -14 13 -107 13 -93 0 -115 -3 -107 -12z"/>
<path d="M1709 383 c-13 -16 -12 -17 4 -4 16 13 21 21 13 21 -2 0 -10 -8 -17
-17z"/>
<path d="M1806 367 c3 -10 9 -15 12 -12 3 3 0 11 -7 18 -10 9 -11 8 -5 -6z"/>
<path d="M1750 366 c0 -2 7 -7 16 -10 8 -3 12 -2 9 4 -6 10 -25 14 -25 6z"/>
<path d="M1686 345 c-3 -8 -1 -15 4 -15 6 0 10 7 10 15 0 8 -2 15 -4 15 -2 0
-6 -7 -10 -15z"/>
<path d="M1748 332 c-11 -2 -18 -12 -17 -25 1 -17 2 -18 6 -4 2 9 11 17 19 17
8 0 14 -8 15 -17 0 -10 3 -13 5 -6 8 19 -9 39 -28 35z"/>
<path d="M1690 303 c0 -5 10 -18 23 -29 l22 -19 -20 25 c-11 14 -21 27 -22 29
-2 2 -3 0 -3 -6z"/>
<path d="M1797 290 c-9 -11 -13 -20 -7 -20 5 0 14 9 20 20 6 11 9 20 8 20 -2
0 -11 -9 -21 -20z"/>
</g>
</svg>
