<?xml version="1.0" standalone="no"?>
<!DOCTYPE svg PUBLIC "-//W3C//DTD SVG 20010904//EN"
 "http://www.w3.org/TR/2001/REC-SVG-20010904/DTD/svg10.dtd">
<svg version="1.0" xmlns="http://www.w3.org/2000/svg"
 width="16.000000pt" height="16.000000pt" viewBox="0 0 16.000000 16.000000"
 preserveAspectRatio="xMidYMid meet">
<metadata>
Created by potrace 1.11, written by Peter Selinger 2001-2013
</metadata>
<g transform="translate(0.000000,16.000000) scale(0.001800,-0.001800)"
fill="#000000" stroke="none">
<path d="M4374 7361 c-5 -3 -34 -33 -64 -66 -56 -61 -268 -289 -372 -400 -31
-33 -65 -70 -76 -83 -21 -24 -206 -224 -280 -301 -24 -26 -62 -66 -84 -91 -23
-25 -89 -96 -147 -159 -58 -62 -123 -132 -144 -155 -22 -22 -58 -61 -81 -86
-23 -25 -100 -108 -171 -185 -72 -77 -151 -162 -177 -190 -25 -27 -59 -63 -74
-80 -15 -16 -57 -62 -93 -101 -74 -79 -288 -309 -311 -335 -8 -9 -40 -42 -70
-73 l-54 -56 136 0 136 0 50 53 c28 28 68 70 89 93 121 129 302 322 328 350
17 17 57 60 90 95 33 36 121 130 196 209 75 80 147 157 160 171 20 22 175 188
289 309 44 47 266 284 305 325 71 77 291 310 363 386 l73 77 52 -57 c29 -31
61 -65 72 -77 11 -11 47 -49 80 -85 33 -35 115 -123 181 -194 67 -72 136 -146
154 -165 18 -19 81 -87 140 -150 60 -63 120 -128 135 -145 36 -39 111 -120
265 -284 69 -73 139 -148 155 -166 17 -17 79 -85 140 -150 60 -64 116 -125
125 -135 20 -23 257 -275 379 -404 l53 -56 141 0 141 0 -54 56 c-30 31 -62 64
-70 73 -56 62 -191 209 -220 240 -19 20 -75 82 -125 136 -49 54 -95 103 -100
109 -9 9 -221 239 -415 450 -25 27 -56 61 -70 76 -14 14 -64 69 -112 122 l-88
95 -2 238 -3 238 -125 0 -125 1 -3 -109 -3 -109 -52 56 c-61 66 -130 139 -321
342 -78 82 -157 166 -176 186 -19 21 -63 67 -96 103 -34 35 -66 62 -70 58z"/>
<path d="M1944 6704 c-166 -176 -148 -158 -229 -245 -38 -41 -124 -133 -191
-204 -66 -72 -133 -143 -148 -160 -16 -16 -74 -79 -129 -139 -56 -59 -123
-131 -149 -160 l-48 -51 0 66 c0 45 -4 68 -12 71 -7 2 -62 4 -123 4 l-110 -1
-5 -177 -5 -177 -95 -113 c-52 -61 -109 -128 -126 -147 -18 -20 -75 -87 -128
-148 l-97 -113 139 0 140 0 65 68 c36 37 74 77 84 88 10 12 75 81 144 155 70
74 141 150 159 169 18 19 89 95 158 168 69 74 134 142 143 153 9 11 77 83 150
161 126 134 162 172 350 373 41 44 101 107 132 140 l57 60 62 -66 c105 -109
310 -328 330 -352 19 -21 97 -104 245 -259 l74 -78 52 56 c85 92 85 79 -2 171
-42 44 -106 114 -143 155 -36 40 -79 87 -95 103 -38 42 -234 253 -269 291 -16
17 -74 80 -129 139 -54 59 -104 114 -110 122 -9 12 -34 -10 -141 -123z"/>
<path d="M6698 6831 c-3 -7 -93 -107 -228 -251 -53 -57 -215 -231 -245 -265
-28 -30 -210 -227 -298 -321 l-47 -51 62 -69 c34 -38 66 -68 69 -67 8 3 130
128 169 173 12 13 51 56 88 95 37 39 124 131 193 205 70 74 156 167 193 205
l66 70 66 -70 c87 -91 293 -310 334 -355 18 -19 83 -88 144 -154 61 -65 125
-133 141 -150 192 -206 276 -296 455 -486 69 -73 140 -149 158 -169 19 -20 58
-62 89 -93 l55 -58 140 0 139 0 -68 78 c-37 43 -93 106 -123 142 -30 35 -60
68 -65 74 -6 6 -79 91 -163 188 -83 97 -163 189 -177 204 -25 27 -25 29 -25
203 l0 176 -122 0 -123 0 -5 -68 -5 -69 -90 98 c-49 53 -106 114 -125 134 -69
72 -295 313 -319 339 -13 14 -83 88 -155 165 -72 76 -132 142 -134 147 -5 12
-39 12 -44 0z"/>
<path d="M3767 5629 c-7 -19 -51 -127 -97 -241 -46 -115 -87 -208 -90 -208 -4
0 -12 17 -18 38 -6 20 -42 124 -79 230 l-67 192 -31 0 c-18 0 -34 -2 -37 -5
-3 -3 12 -52 32 -108 33 -87 181 -493 196 -537 3 -8 32 53 65 135 32 83 63
159 68 170 5 11 24 57 42 103 25 61 35 78 40 65 4 -10 50 -123 102 -252 l94
-233 48 128 c26 71 64 176 85 234 21 58 52 143 69 190 17 47 31 91 31 98 0 7
-14 12 -35 12 -19 0 -35 -2 -35 -4 0 -3 -74 -217 -147 -424 l-16 -44 -98 242
c-54 133 -100 244 -103 247 -3 3 -11 -10 -19 -28z"/>
<path d="M4980 5631 c-88 -28 -168 -104 -201 -191 -64 -169 21 -357 191 -421
144 -54 319 13 379 144 19 42 34 129 25 151 -3 8 -39 11 -127 10 -67 -1 -125
-2 -128 -3 -3 0 -5 -13 -4 -28 l1 -28 92 -3 c85 -3 92 -4 92 -23 0 -61 -74
-140 -153 -164 -90 -26 -171 -2 -247 75 -74 73 -92 187 -46 285 75 162 282
197 409 70 l38 -38 25 24 24 23 -37 38 c-83 85 -215 116 -333 79z"/>
<path d="M4323 5325 l0 -315 34 0 33 0 1 68 c1 37 1 97 0 134 0 37 3 69 8 72
7 5 100 -121 166 -226 28 -44 33 -47 73 -48 23 0 42 2 42 5 0 3 -40 60 -88
127 -114 159 -108 146 -75 154 39 9 90 49 109 86 22 43 21 116 -2 164 -29 59
-90 85 -208 90 l-93 4 0 -315z m225 209 c28 -32 33 -95 10 -137 -16 -30 -91
-54 -154 -48 -14 1 -16 213 -2 222 5 3 35 2 66 -3 42 -6 63 -15 80 -34z"/>
<path d="M0 4880 l0 -60 4385 0 4385 0 0 60 0 60 -4385 0 -4385 0 0 -60z"/>
<path d="M3044 4692 c-41 -4 -107 -61 -120 -104 -35 -114 43 -220 157 -213 53
3 74 13 113 54 51 53 46 169 -8 220 -28 26 -99 48 -142 43z"/>
<path d="M60 4657 c0 -5 61 -223 136 -485 74 -263 142 -499 149 -527 8 -27 39
-138 70 -245 31 -107 58 -204 60 -214 2 -10 9 -33 14 -50 6 -17 17 -56 25 -86
16 -62 87 -310 117 -412 34 -116 40 -109 174 225 65 160 123 306 131 322 7 17
95 235 195 485 100 250 185 459 189 463 4 5 21 -27 38 -70 185 -468 262 -665
262 -669 0 -3 7 -20 15 -37 16 -37 256 -643 288 -729 16 -46 26 -58 42 -58 19
0 31 33 124 358 56 196 104 364 106 372 2 8 20 71 40 140 20 69 45 154 55 190
10 36 79 277 154 537 75 260 136 478 136 485 0 21 -208 19 -215 -2 -2 -8 -97
-339 -210 -735 -113 -396 -208 -727 -211 -735 -6 -16 -47 85 -419 1030 -193
492 -183 471 -213 452 -6 -5 -64 -138 -128 -298 -63 -159 -124 -308 -135 -331
-10 -24 -19 -47 -19 -51 0 -5 -6 -22 -14 -38 -8 -16 -60 -144 -116 -284 -55
-140 -105 -264 -110 -275 -5 -11 -18 -42 -29 -70 -10 -27 -29 -72 -41 -100
l-22 -50 -65 225 c-35 124 -65 232 -68 240 -2 8 -13 49 -25 90 -12 41 -28 98
-35 127 -17 60 -187 657 -215 753 l-19 65 -106 0 c-58 0 -105 -4 -105 -8z"/>
<path d="M3619 4643 c-1 -17 -1 -2038 0 -2058 1 -12 19 -15 96 -15 l95 0 0
1043 0 1043 -95 -1 c-69 0 -95 -3 -96 -12z"/>
<path d="M4607 4114 c-1 -1 -24 -4 -52 -7 -138 -15 -255 -99 -313 -226 -50
-109 -39 -277 25 -375 55 -85 113 -130 303 -236 211 -118 255 -157 279 -247
25 -91 -13 -187 -97 -248 -130 -94 -304 -66 -445 71 -21 19 -41 34 -46 32 -4
-2 -33 -32 -64 -67 -53 -61 -55 -65 -40 -85 41 -54 144 -125 230 -159 60 -24
87 -28 186 -32 148 -5 245 32 343 130 93 92 133 196 128 330 -4 99 -47 202
-109 258 -86 79 -118 100 -275 185 -199 107 -270 183 -270 286 0 57 11 85 52
132 85 97 234 100 374 8 28 -19 59 -43 69 -54 10 -11 23 -20 30 -20 6 0 38 27
70 60 57 60 57 61 39 82 -49 54 -173 130 -258 158 -35 11 -153 29 -159 24z"/>
<path d="M6137 4114 c-1 -1 -31 -4 -67 -7 -329 -30 -610 -293 -674 -632 -30
-162 -5 -367 61 -498 116 -232 301 -379 534 -427 164 -34 367 -15 507 47 182
80 344 261 413 461 40 117 52 287 29 412 -67 362 -371 629 -733 643 -37 2 -69
2 -70 1z m165 -210 c345 -89 538 -466 412 -804 -60 -160 -179 -283 -332 -340
-78 -30 -111 -35 -227 -35 -275 2 -481 166 -556 445 -23 88 -19 241 10 330 63
199 248 372 438 409 76 14 190 12 255 -5z"/>
<path d="M8027 4103 c-145 -27 -245 -82 -360 -195 -49 -49 -90 -88 -90 -88 -1
0 -2 57 -2 127 l0 128 -85 1 c-47 0 -90 -1 -95 -3 -7 -2 -10 -260 -10 -751 l0
-747 95 -3 96 -3 2 358 c1 334 6 473 17 533 3 14 7 40 10 58 13 80 73 188 144
260 101 102 222 154 356 153 239 -2 371 -138 391 -405 4 -44 7 -277 8 -516 l2
-435 94 0 95 0 0 490 c0 570 -6 627 -78 767 -108 210 -343 318 -590 271z"/>
<path d="M2979 4061 c0 -9 -1 -347 -1 -751 l-1 -735 96 -3 97 -3 0 753 0 753
-95 1 c-79 0 -95 -3 -96 -15z"/>
<path d="M4858 2444 c-2 -1 -20 -5 -41 -8 -61 -10 -140 -52 -189 -102 -199
-201 -116 -536 155 -623 57 -19 173 -21 231 -4 136 39 236 162 251 308 l7 60
-179 -1 c-98 -1 -180 -2 -183 -3 -3 0 -6 -28 -5 -61 0 -68 -12 -62 123 -62 45
-1 82 -5 82 -9 0 -18 -65 -81 -99 -96 -55 -23 -157 -20 -212 7 -90 45 -138
114 -144 206 -4 71 11 117 57 169 54 61 114 87 197 84 75 -3 119 -18 174 -62
l39 -30 46 46 46 46 -24 27 c-30 32 -91 68 -148 88 -36 13 -176 28 -184 20z"/>
<path d="M1291 2070 l0 -360 70 0 69 0 -1 103 c-1 242 -5 235 58 117 22 -41
57 -108 79 -147 l38 -73 73 0 74 0 -72 138 c-40 75 -76 141 -80 146 -18 20 -8
44 21 56 36 15 77 61 87 98 16 60 8 137 -20 184 -43 73 -87 89 -257 94 l-138
4 -1 -360z m258 210 c48 -25 46 -101 -3 -120 -27 -10 -103 -17 -110 -9 -4 4
-9 105 -7 135 1 15 91 10 120 -6z"/>
<path d="M3120 2055 l0 -345 63 0 62 0 0 343 0 342 -63 3 -62 3 0 -346z"/>
<path d="M3390 2296 l0 -94 -33 2 -33 3 1 -51 c0 -50 1 -51 33 -54 l32 -3 0
-195 0 -195 63 3 62 3 -1 193 0 192 38 0 38 0 0 54 0 54 -35 -3 c-19 -1 -36 2
-36 7 -1 4 -2 45 -3 90 l-1 82 -62 4 -63 3 0 -95z"/>
<path d="M2030 2208 c-77 -21 -150 -98 -171 -182 -36 -146 48 -292 186 -322
27 -6 114 -6 143 0 35 8 109 53 127 79 15 21 15 23 -34 45 l-49 22 -37 -21
c-54 -32 -111 -33 -161 -4 -38 22 -75 77 -61 91 3 3 94 5 202 6 l197 0 -6 55
c-15 142 -109 232 -246 238 -30 1 -71 -2 -90 -7z m156 -116 c22 -12 59 -61 51
-68 -2 -3 -64 -3 -136 -2 l-132 3 28 33 c47 56 123 69 189 34z"/>
<path d="M2610 2196 c-48 -22 -108 -89 -125 -140 -19 -55 -16 -154 7 -207 25
-60 82 -115 142 -138 61 -23 145 -12 193 25 l33 25 0 -25 c0 -25 2 -26 63 -26
l62 0 0 248 0 248 -62 0 c-58 -1 -63 -3 -63 -23 0 -29 -1 -28 -46 2 -20 14
-49 26 -63 27 -74 5 -104 2 -141 -16z m197 -118 c83 -57 73 -206 -17 -250 -39
-18 -97 -16 -130 4 -30 18 -59 68 -63 109 -6 52 10 94 48 128 45 40 111 43
162 9z"/>
<path d="M5535 2208 c-11 -5 -31 -22 -44 -37 -13 -14 -21 -21 -18 -16 2 6 1
19 -3 31 -7 17 -16 20 -56 19 l-49 -2 -1 -246 -1 -247 63 0 62 0 0 161 c1 133
4 166 19 197 15 31 23 37 50 37 29 0 34 5 52 47 13 32 16 50 9 54 -19 12 -62
13 -83 2z"/>
<path d="M5864 2203 c-57 -19 -118 -74 -148 -134 -67 -135 7 -312 151 -360 77
-25 207 4 260 59 55 57 74 102 78 187 9 170 -175 304 -341 248z m172 -135 c96
-95 32 -263 -96 -253 -74 6 -122 61 -124 141 -1 61 29 110 84 136 32 16 111 2
136 -24z"/>
<path d="M7146 2212 c-11 -2 -37 -15 -58 -28 -45 -29 -48 -29 -43 -5 4 24 -6
28 -70 27 l-50 -1 -3 -338 -2 -338 62 3 63 3 0 107 c0 58 3 110 8 114 4 4 7 3
7 -3 0 -18 87 -53 131 -53 69 0 118 21 169 70 124 124 86 360 -70 428 -35 16
-108 23 -144 14z m100 -131 c59 -36 80 -123 46 -191 -50 -101 -185 -103 -233
-3 -36 74 -13 164 50 198 37 20 101 18 137 -4z"/>
<path d="M3630 2203 c0 -4 60 -155 74 -188 8 -16 30 -70 50 -120 20 -49 41
-98 46 -107 17 -30 12 -51 -35 -151 -25 -53 -45 -99 -45 -102 0 -3 28 -5 63
-5 l62 1 32 72 c18 40 51 113 74 162 23 50 58 128 79 175 21 47 54 119 73 160
51 108 52 103 -18 105 l-61 1 -69 -153 c-38 -85 -72 -150 -75 -146 -4 5 -33
72 -65 151 -32 78 -60 142 -64 143 -17 3 -121 5 -121 2z"/>
<path d="M6334 2201 c-3 -3 -4 -78 -4 -166 2 -195 18 -250 86 -298 105 -74
270 -41 326 66 21 39 22 55 23 222 l0 180 -53 0 c-29 0 -56 -2 -60 -5 -4 -3
-7 -76 -8 -163 -1 -175 -8 -200 -58 -217 -61 -20 -111 8 -125 71 -4 19 -7 96
-6 172 1 89 -3 137 -10 138 -31 4 -107 4 -111 0z"/>
<path d="M0 2030 l0 -40 615 0 615 0 0 40 0 40 -615 0 -615 0 0 -40z"/>
<path d="M7540 2030 l0 -40 615 0 615 0 0 40 0 40 -615 0 -615 0 0 -40z"/>
</g>
</svg>
