<?xml version="1.0" standalone="no"?>
<!DOCTYPE svg PUBLIC "-//W3C//DTD SVG 20010904//EN"
 "http://www.w3.org/TR/2001/REC-SVG-20010904/DTD/svg10.dtd">
<svg version="1.0" xmlns="http://www.w3.org/2000/svg"
 width="260.000000pt" height="260.000000pt" viewBox="0 0 260.000000 260.000000"
 preserveAspectRatio="xMidYMid meet">
<metadata>
Created by potrace 1.11, written by Peter Selinger 2001-2013
</metadata>
<g transform="translate(0.000000,260.000000) scale(0.100000,-0.100000)"
fill="#000000" stroke="none">
<path d="M1101 2530 c-277 -73 -492 -291 -562 -571 -31 -122 -24 -271 20 -394
68 -190 192 -416 389 -706 131 -194 333 -464 347 -464 14 0 216 270 347 464
197 290 321 516 389 706 44 123 51 272 20 394 -71 282 -286 499 -566 571 -105
27 -280 27 -384 0z m390 -342 c95 -47 177 -130 221 -223 61 -132 48 -310 -31
-433 -183 -281 -589 -281 -772 0 -79 123 -92 301 -31 432 35 75 115 165 182
204 86 51 136 63 251 60 99 -3 110 -6 180 -40z"/>
<path d="M1128 1954 l-157 -145 21 -34 c25 -44 35 -50 53 -35 13 11 15 -8 15
-139 l0 -151 90 0 90 0 0 130 0 130 55 0 55 0 0 -130 0 -130 90 0 90 0 0 151
c0 131 2 150 15 139 18 -15 28 -9 53 34 l20 34 -59 57 -59 56 0 85 0 84 -44 0
-45 0 -3 -42 -3 -43 -51 48 c-28 26 -55 47 -60 47 -5 0 -80 -66 -166 -146z
m257 -74 l40 -41 -51 25 c-65 32 -97 33 -160 1 l-49 -24 63 60 63 60 27 -20
c15 -11 45 -38 67 -61z"/>
<path d="M1100 174 c-116 -5 -290 -24 -337 -36 -87 -21 -43 -49 111 -70 123
-17 719 -17 842 0 218 29 205 66 -31 92 -101 10 -469 19 -585 14z"/>
</g>
</svg>
