<?xml version="1.0" standalone="no"?>
<!DOCTYPE svg PUBLIC "-//W3C//DTD SVG 20010904//EN"
 "http://www.w3.org/TR/2001/REC-SVG-20010904/DTD/svg10.dtd">
<svg version="1.0" xmlns="http://www.w3.org/2000/svg"
 width="300.000000pt" height="300.000000pt" viewBox="0 0 300.000000 300.000000"
 preserveAspectRatio="xMidYMid meet">
<metadata>
Created by potrace 1.11, written by Peter Selinger 2001-2013
</metadata>
<g transform="translate(0.000000,300.000000) scale(0.100000,-0.100000)"
fill="#000000" stroke="none">
<path d="M1402 2246 c-83 -85 -91 -95 -72 -101 38 -12 13 -18 -87 -20 -102 -2
-150 -15 -225 -61 -120 -75 -164 -195 -111 -299 19 -37 113 -136 113 -119 0 4
9 -1 20 -11 11 -10 20 -15 20 -12 0 3 16 -1 35 -9 19 -8 35 -12 35 -9 0 2 12
0 26 -5 24 -9 30 -7 58 27 76 92 228 233 303 282 52 34 79 59 76 67 -3 8 -9
11 -14 8 -5 -3 -9 2 -9 10 0 21 13 20 33 -2 16 -18 20 -17 94 20 43 21 82 39
88 41 11 5 -264 287 -280 286 -5 0 -52 -42 -103 -93z m-262 -263 c-152 -156
-219 -218 -226 -211 -3 3 -6 25 -8 49 -12 150 127 273 324 287 35 3 33 1 -90
-125z"/>
<path d="M1988 2080 c-25 -5 -73 -16 -105 -26 -32 -10 -64 -18 -70 -17 -7 0
-13 -3 -13 -7 0 -4 -15 -13 -32 -21 -18 -7 -35 -15 -38 -19 -3 -3 -22 -14 -42
-25 -42 -22 -45 -27 -23 -45 8 -7 12 -16 9 -21 -3 -5 0 -9 5 -9 6 0 11 -4 11
-10 0 -21 -26 -8 -43 21 -16 29 -19 30 -35 17 -9 -9 -28 -24 -41 -34 -13 -10
-37 -31 -52 -46 -16 -15 -29 -25 -29 -22 0 10 -103 -112 -141 -168 -21 -31
-39 -59 -39 -62 0 -8 167 6 220 18 14 3 36 8 50 10 14 2 37 9 53 15 15 6 27 8
27 5 0 -4 6 -2 13 4 6 6 14 10 17 11 11 0 48 15 118 47 41 19 78 34 83 34 47
0 -81 -75 -231 -135 -80 -31 -240 -76 -251 -70 -4 3 -10 2 -13 -3 -2 -4 -22
-9 -43 -10 -73 -5 -77 -7 -101 -57 -13 -27 -25 -61 -27 -75 -2 -14 -4 -26 -6
-27 -1 -2 -3 -7 -4 -13 -1 -5 -3 -11 -5 -12 -4 -6 -12 -88 -13 -148 -2 -71 8
-120 24 -120 6 0 7 5 4 11 -11 17 -17 69 -8 69 5 0 34 -25 63 -55 30 -30 57
-55 60 -55 3 0 6 29 7 65 3 145 88 298 197 355 49 26 75 20 35 -8 -34 -24 -72
-62 -97 -99 -27 -39 -85 -152 -88 -173 -1 -8 -7 -31 -13 -50 -6 -19 -11 -56
-11 -82 l0 -46 33 4 c127 18 287 133 338 243 13 28 30 50 38 51 11 0 11 -3 0
-17 -8 -9 -13 -18 -11 -20 7 -8 -40 -90 -70 -123 -76 -82 -190 -151 -265 -163
-17 -3 -37 -8 -43 -12 -12 -8 -7 -66 10 -110 6 -16 11 -31 11 -32 -4 -13 1
-23 7 -19 5 3 2 33 -6 66 -21 84 -6 98 46 47 21 -20 42 -37 47 -37 4 0 51 43
103 95 76 77 97 93 108 84 10 -8 14 -8 14 0 0 6 -5 11 -12 11 -6 0 -1 11 12
25 13 14 30 23 37 21 17 -7 43 3 43 16 0 6 -6 5 -15 -2 -8 -6 -18 -9 -23 -6
-6 3 100 115 233 249 l244 243 -88 85 c-48 47 -91 91 -95 97 -4 7 6 24 21 39
49 48 78 124 67 178 -8 46 -19 45 -18 -2 1 -21 -6 -56 -15 -79 -25 -63 -90
-132 -112 -119 -8 6 -7 10 2 16 10 6 -9 31 -74 94 -48 48 -87 90 -87 95 0 7
24 19 53 26 4 1 8 2 10 4 10 8 53 13 115 14 39 1 72 2 72 3 0 3 -58 33 -62 32
-2 -1 -24 -5 -50 -9z"/>
<path d="M814 1656 l-52 -52 157 -157 c86 -86 159 -157 161 -157 3 0 5 10 6
23 1 33 14 85 31 127 28 67 25 74 -32 84 -54 9 -195 119 -195 151 0 7 -6 17
-12 23 -10 7 -27 -4 -64 -42z"/>
<path d="M2560 1458 c-30 -4 -62 -11 -70 -14 -8 -4 -29 -8 -47 -10 -46 -4
-273 -110 -273 -126 0 -5 -5 -8 -11 -8 -6 0 -30 -13 -54 -30 -24 -16 -48 -30
-54 -30 -6 0 -11 -4 -11 -8 0 -9 -37 -29 -54 -30 -5 0 -12 -4 -15 -9 -7 -10
-117 -63 -131 -63 -5 0 -11 -4 -15 -9 -16 -27 160 52 297 133 234 137 398 195
557 197 34 1 60 3 57 6 -9 9 -120 10 -176 1z"/>
<path d="M268 1452 c-10 -2 -18 -8 -18 -13 0 -6 6 -7 16 -1 9 5 25 7 35 5 11
-3 19 -3 19 0 0 7 -33 13 -52 9z"/>
<path d="M330 1448 c0 -4 12 -8 28 -9 15 0 36 -2 47 -5 11 -2 34 -6 50 -8 58
-10 88 -17 107 -27 10 -5 18 -8 18 -5 0 10 182 -76 290 -138 86 -49 125 -69
129 -67 2 2 7 -1 10 -6 10 -13 61 -33 61 -24 0 5 -20 19 -45 31 -24 12 -61 33
-82 47 -108 74 -282 165 -338 178 -5 2 -28 7 -50 13 -70 19 -225 33 -225 20z"/>
<path d="M2751 1456 c9 -10 59 -14 54 -5 -4 5 -18 9 -32 9 -15 0 -24 -2 -22
-4z"/>
<path d="M215 1440 c-3 -5 -1 -10 4 -10 6 0 11 5 11 10 0 6 -2 10 -4 10 -3 0
-8 -4 -11 -10z"/>
<path d="M2826 1438 c3 -4 9 -8 15 -8 5 0 9 4 9 8 0 5 -7 9 -15 9 -8 0 -12 -4
-9 -9z"/>
<path d="M150 1428 c-19 -5 -37 -13 -40 -17 -3 -4 -21 -17 -40 -29 -19 -12
-32 -22 -28 -22 4 0 30 14 56 30 27 17 55 30 63 30 8 0 21 5 29 10 18 12 6 11
-40 -2z"/>
<path d="M2890 1421 c0 -6 5 -11 12 -11 7 0 29 -17 50 -37 42 -40 52 -41 15
-1 -32 34 -77 63 -77 49z"/>
<path d="M25 1327 c-20 -30 -14 -81 13 -114 15 -18 19 -34 15 -54 -4 -23 1
-34 27 -59 18 -17 36 -28 39 -24 3 4 1 9 -5 11 -28 10 -45 31 -47 58 -2 23 2
30 16 29 13 -1 7 8 -19 30 -42 36 -51 74 -28 118 18 34 11 37 -11 5z"/>
<path d="M436 1335 c-3 -9 -2 -14 3 -11 19 12 150 -38 256 -97 168 -93 295
-156 328 -161 7 -1 17 -5 24 -9 6 -4 23 -8 37 -9 14 -1 26 -5 26 -9 0 -3 7 -6
15 -6 24 0 2 17 -28 23 -26 4 -216 92 -227 103 -3 4 -14 11 -25 17 -65 35 -92
50 -105 61 -8 6 -17 11 -20 11 -3 0 -34 13 -70 30 -74 34 -166 63 -174 55 -3
-3 -12 -1 -20 6 -11 9 -15 8 -20 -4z"/>
<path d="M2510 1342 c-58 -9 -295 -119 -371 -173 -14 -10 -68 -39 -119 -63
-97 -48 -122 -64 -80 -51 50 15 275 119 290 135 5 5 31 20 125 69 80 43 161
73 200 74 19 1 35 4 35 7 0 7 -40 8 -80 2z"/>
<path d="M385 1333 c-26 -7 -55 -33 -55 -50 0 -7 -7 -13 -15 -13 -16 0 -16 1
20 -70 17 -34 81 -100 96 -100 4 0 14 -6 21 -13 15 -15 103 -57 132 -63 39 -9
97 -11 101 -4 3 4 -18 10 -46 12 -110 11 -309 141 -309 202 0 18 5 23 18 21 9
-2 46 -9 82 -15 95 -16 212 -65 259 -109 46 -43 56 -36 14 8 -35 36 -142 89
-213 106 -36 9 -81 17 -107 19 -18 1 -35 5 -38 8 -10 10 18 48 35 48 8 0 22 5
30 10 16 10 8 11 -25 3z"/>
<path d="M2654 1309 c15 -12 25 -23 22 -26 -2 -2 -24 -7 -48 -9 -66 -7 -183
-41 -239 -70 -50 -25 -121 -84 -102 -84 6 0 16 7 23 15 19 23 92 62 159 85 87
29 198 49 209 38 6 -6 12 -6 16 1 9 13 86 15 86 2 0 -5 9 -7 20 -4 17 5 18 8
8 21 -10 12 -10 16 0 19 6 3 12 10 12 16 -1 7 -9 2 -19 -10 -28 -34 -99 -32
-129 2 -12 14 -27 25 -33 25 -7 0 0 -10 15 -21z"/>
<path d="M2855 1320 c3 -5 13 -10 21 -10 8 0 14 -5 14 -12 0 -6 3 -8 7 -4 5 4
-1 14 -11 22 -23 16 -40 19 -31 4z"/>
<path d="M2983 1315 c0 -8 4 -12 9 -9 5 3 6 10 3 15 -9 13 -12 11 -12 -6z"/>
<path d="M148 1313 c7 -3 16 -2 19 1 4 3 -2 6 -13 5 -11 0 -14 -3 -6 -6z"/>
<path d="M110 1295 c-11 -13 -10 -14 4 -9 9 3 16 10 16 15 0 13 -6 11 -20 -6z"/>
<path d="M193 1292 c21 -23 21 -29 0 -35 -14 -4 -13 -5 4 -6 16 -1 21 -6 17
-18 -4 -14 -2 -13 7 2 7 11 17 23 23 27 7 5 4 8 -6 8 -10 0 -22 9 -28 20 -6
11 -16 20 -22 20 -6 0 -4 -8 5 -18z"/>
<path d="M2980 1280 c0 -5 5 -10 10 -10 6 0 10 5 10 10 0 6 -4 10 -10 10 -5 0
-10 -4 -10 -10z"/>
<path d="M260 1266 c0 -2 7 -6 15 -10 8 -3 15 -1 15 4 0 6 -7 10 -15 10 -8 0
-15 -2 -15 -4z"/>
<path d="M2836 1258 c3 -4 9 -8 15 -8 5 0 9 4 9 8 0 5 -7 9 -15 9 -8 0 -12 -4
-9 -9z"/>
<path d="M2898 1235 c18 -15 30 -30 27 -35 -8 -13 24 -5 38 10 9 10 9 11 -1 6
-6 -4 -24 1 -40 12 -46 32 -59 36 -24 7z"/>
<path d="M110 1235 c-11 -13 -10 -14 4 -9 9 3 16 10 16 15 0 13 -6 11 -20 -6z"/>
<path d="M148 1243 c7 -3 16 -2 19 1 4 3 -2 6 -13 5 -11 0 -14 -3 -6 -6z"/>
<path d="M2673 1233 c8 -13 -57 -82 -108 -114 -58 -37 -173 -81 -216 -83 -20
0 -35 -5 -32 -9 10 -17 180 20 203 43 3 3 17 11 31 18 30 16 109 86 109 98 0
4 7 15 16 25 12 13 12 19 3 25 -7 4 -10 3 -6 -3z"/>
<path d="M2796 1218 c10 -14 21 -24 23 -22 3 3 -6 15 -18 27 l-24 22 19 -27z"/>
<path d="M75 1210 c-3 -5 -1 -10 4 -10 6 0 11 5 11 10 0 6 -2 10 -4 10 -3 0
-8 -4 -11 -10z"/>
<path d="M193 1199 c-7 -7 -29 -15 -50 -19 -37 -7 -37 -8 -7 -9 18 -1 42 7 55
19 13 10 22 19 19 20 -4 0 -11 -5 -17 -11z"/>
<path d="M2858 1183 c7 -3 16 -2 19 1 4 3 -2 6 -13 5 -11 0 -14 -3 -6 -6z"/>
<path d="M2890 1179 c0 -5 5 -7 10 -4 6 3 10 8 10 11 0 2 -4 4 -10 4 -5 0 -10
-5 -10 -11z"/>
<path d="M2946 1165 c4 -10 -7 -28 -30 -50 -21 -19 -29 -32 -19 -28 22 8 53
38 53 53 0 5 4 10 10 10 5 0 7 7 4 15 -4 8 -10 15 -15 15 -4 0 -6 -7 -3 -15z"/>
<path d="M2265 1101 c-3 -5 -2 -12 3 -15 5 -3 9 1 9 9 0 17 -3 19 -12 6z"/>
<path d="M135 1070 c-3 -5 -1 -10 4 -10 6 0 11 5 11 10 0 6 -2 10 -4 10 -3 0
-8 -4 -11 -10z"/>
<path d="M2275 1050 c10 -11 20 -20 23 -20 3 0 -3 9 -13 20 -10 11 -20 20 -23
20 -3 0 3 -9 13 -20z"/>
<path d="M1890 1050 c0 -5 5 -10 10 -10 6 0 10 5 10 10 0 6 -4 10 -10 10 -5 0
-10 -4 -10 -10z"/>
<path d="M709 1033 c-13 -16 -12 -17 4 -4 9 7 17 15 17 17 0 8 -8 3 -21 -13z"/>
<path d="M1746 1039 c3 -5 12 -9 21 -9 19 0 9 13 -12 16 -8 1 -13 -2 -9 -7z"/>
<path d="M1790 1039 c0 -9 69 -9 75 0 2 4 -14 7 -35 7 -22 -1 -40 -4 -40 -7z"/>
<path d="M1169 997 c35 -39 162 -79 176 -57 8 14 -17 24 -63 26 -25 1 -62 13
-90 30 l-47 27 24 -26z"/>
</g>
</svg>
