<?xml version="1.0" standalone="no"?>
<!DOCTYPE svg PUBLIC "-//W3C//DTD SVG 20010904//EN"
 "http://www.w3.org/TR/2001/REC-SVG-20010904/DTD/svg10.dtd">
<svg version="1.0" xmlns="http://www.w3.org/2000/svg"
 width="300.000000pt" height="300.000000pt" viewBox="0 0 300.000000 300.000000"
 preserveAspectRatio="xMidYMid meet">
<metadata>
Created by potrace 1.11, written by Peter Selinger 2001-2013
</metadata>
<g transform="translate(0.000000,300.000000) scale(0.100000,-0.100000)"
fill="#000000" stroke="none">
<path d="M379 2463 c-1 -5 -2 -446 -3 -980 l-2 -973 1112 0 1112 0 -2 85 c-1
54 2 85 9 85 6 0 7 3 0 8 -13 9 -13 152 0 152 7 0 7 3 0 8 -6 4 -10 39 -10 77
0 39 4 73 10 77 7 5 6 8 -1 8 -6 0 -10 20 -9 50 1 27 -1 47 -4 44 -3 -3 -6 -9
-7 -12 -4 -32 -66 -126 -108 -165 -33 -30 -115 -76 -150 -83 -28 -7 -50 -12
-56 -14 -12 -4 -107 -2 -130 3 -14 3 -34 8 -45 11 -12 2 -36 13 -55 25 -19 11
-42 24 -50 28 -8 4 -30 23 -48 42 l-33 36 2 -40 c3 -90 7 -85 -70 -85 l-69 0
-4 76 c-2 41 1 79 7 85 5 6 5 9 0 9 -11 0 -11 92 -1 109 4 6 4 11 -1 11 -9 0
-7 335 2 350 3 6 3 10 -2 10 -10 0 -8 93 1 109 4 6 4 11 -1 11 -4 0 -7 74 -6
165 1 91 2 228 3 305 l0 139 69 0 c50 0 71 -4 75 -14 3 -8 1 -17 -4 -20 -6 -3
-6 -15 0 -29 5 -15 5 -27 -3 -35 -6 -6 -7 -11 -2 -11 11 0 11 -92 1 -109 -4
-6 -4 -11 1 -11 4 0 7 -92 6 -205 -3 -224 -5 -217 53 -162 47 43 106 74 169
87 55 11 141 12 160 1 6 -3 19 -7 29 -8 39 -6 127 -58 166 -98 22 -22 56 -70
76 -105 19 -36 33 -57 30 -47 -3 10 0 17 7 17 8 0 8 3 2 8 -13 9 -13 152 0
152 7 0 7 3 0 8 -6 4 -10 39 -10 77 0 39 4 73 10 77 7 5 7 8 0 8 -6 0 -10 32
-10 75 0 43 4 75 10 75 7 0 7 3 0 8 -13 9 -13 152 0 152 7 0 7 3 0 8 -6 4 -10
39 -10 77 0 39 4 73 10 77 7 5 7 8 0 8 -7 0 -10 34 -9 90 l2 90 -1109 0 c-610
0 -1110 -3 -1110 -7z m1298 -739 c35 -39 40 -49 28 -60 -7 -8 -11 -23 -8 -35
4 -15 3 -20 -6 -15 -6 4 -9 11 -6 16 3 5 1 11 -4 14 -11 7 -25 -30 -16 -43 3
-6 12 -8 20 -5 11 5 13 -52 13 -363 0 -202 -2 -372 -4 -378 -3 -6 -33 -9 -73
-7 l-69 4 2 54 c1 30 -1 54 -4 54 -3 0 -21 -15 -40 -34 -37 -35 -82 -62 -140
-83 -44 -16 -176 -19 -212 -4 -16 6 -28 8 -28 6 0 -3 -23 7 -52 22 -145 78
-232 231 -230 407 2 93 5 129 12 136 4 3 12 25 19 50 7 25 22 57 32 72 11 14
19 29 19 33 0 22 141 130 185 141 6 2 21 6 35 10 31 9 168 10 195 2 11 -4 21
-7 23 -7 1 -1 5 -1 10 -2 21 -3 82 -42 124 -78 25 -23 48 -41 50 -41 7 0 2 66
-6 78 -4 7 -4 18 1 25 4 6 8 17 8 22 0 6 7 10 15 10 8 0 24 10 34 22 11 13 22
23 25 23 3 0 24 -21 48 -46z"/>
<path d="M1187 1582 c-81 -26 -167 -120 -182 -199 -2 -10 -4 -18 -6 -18 -1 0
-3 -32 -4 -72 -6 -170 85 -302 229 -329 30 -6 76 -8 86 -4 3 1 19 4 35 6 17 3
40 12 53 20 12 8 22 12 22 9 0 -3 18 11 39 31 46 42 87 120 96 184 4 25 8 52
9 60 4 22 -21 146 -35 172 -65 124 -209 183 -342 140z"/>
<path d="M1800 2192 c0 -10 7 -19 15 -19 8 0 15 9 15 19 0 10 -7 18 -15 18 -8
0 -15 -8 -15 -18z"/>
<path d="M1851 2197 c-6 -8 -8 -16 -5 -20 10 -9 34 4 34 19 0 18 -14 18 -29 1z"/>
<path d="M1806 2133 c-12 -12 -6 -33 9 -33 8 0 15 6 15 14 0 17 -14 28 -24 19z"/>
<path d="M1850 2115 c0 -8 9 -15 20 -15 13 0 18 5 14 15 -4 8 -12 15 -20 15
-8 0 -14 -7 -14 -15z"/>
<path d="M1797 2001 c-3 -15 0 -19 14 -18 11 1 19 9 19 19 0 24 -26 23 -33 -1z"/>
<path d="M1850 2010 c0 -5 0 -13 0 -17 0 -5 9 -9 19 -9 17 -1 18 2 10 17 -10
20 -29 26 -29 9z"/>
<path d="M1850 1924 c0 -29 15 -31 29 -5 9 15 7 20 -9 24 -16 4 -20 0 -20 -19z"/>
<path d="M1800 1920 c12 -22 30 -18 30 6 0 8 -9 14 -20 14 -18 0 -19 -3 -10
-20z"/>
<path d="M1799 1866 c0 -1 -2 -9 -4 -18 -2 -12 3 -18 16 -18 12 0 19 7 19 18
0 10 -7 19 -15 19 -8 0 -15 -1 -16 -1z"/>
<path d="M1850 1851 c-9 -18 -8 -21 9 -21 26 0 34 15 17 30 -12 9 -17 7 -26
-9z"/>
<path d="M2110 1590 c-8 -4 -32 -16 -53 -26 -95 -47 -158 -170 -151 -294 4
-56 5 -62 19 -115 10 -37 47 -96 77 -125 34 -32 109 -67 141 -66 15 1 27 -1
27 -4 0 -3 15 -4 32 -3 18 1 33 2 33 3 0 1 11 3 24 6 51 9 117 55 151 106 19
28 35 53 36 57 0 3 4 13 7 21 20 46 26 134 13 212 -22 134 -132 228 -274 233
-37 1 -74 -1 -82 -5z"/>
</g>
</svg>
