<?xml version="1.0" standalone="no"?>
<!DOCTYPE svg PUBLIC "-//W3C//DTD SVG 20010904//EN"
 "http://www.w3.org/TR/2001/REC-SVG-20010904/DTD/svg10.dtd">
<svg version="1.0" xmlns="http://www.w3.org/2000/svg"
 width="300.000000pt" height="300.000000pt" viewBox="0 0 300.000000 300.000000"
 preserveAspectRatio="xMidYMid meet">
<metadata>
Created by potrace 1.11, written by Peter Selinger 2001-2013
</metadata>
<g transform="translate(0.000000,300.000000) scale(0.100000,-0.100000)"
fill="#000000" stroke="none">
<path d="M1320 2630 c-19 -4 -51 -10 -70 -14 -61 -12 -133 -37 -205 -73 -269
-135 -452 -374 -510 -668 -21 -104 -14 -318 14 -420 28 -103 96 -242 159 -325
48 -64 748 -760 763 -760 8 0 313 306 589 590 67 69 141 152 165 185 213 295
236 694 59 1012 -37 67 -136 195 -175 228 -151 126 -274 193 -414 225 -28 7
-59 14 -70 17 -34 9 -268 11 -305 3z m350 -170 c82 -23 212 -85 256 -122 105
-88 162 -154 217 -248 39 -68 77 -187 84 -260 12 -139 10 -172 -11 -285 -12
-63 -15 -72 -30 -108 -8 -20 -13 -37 -11 -37 10 0 -69 -138 -103 -180 -50 -62
-115 -124 -168 -161 -127 -87 -301 -138 -460 -133 -260 7 -488 131 -629 344
-39 59 -99 212 -110 280 -12 78 -16 109 -17 145 -2 67 12 193 27 235 8 22 12
40 10 40 -7 0 67 145 98 189 110 161 316 291 502 318 22 3 42 7 44 9 13 12
234 -7 301 -26z"/>
<path d="M1187 1953 c-131 -131 -245 -249 -252 -264 -12 -21 -11 -30 2 -57 17
-36 52 -50 90 -36 14 5 117 101 229 214 l204 205 213 -213 c183 -182 217 -212
243 -212 41 0 74 33 74 73 0 27 -13 45 -75 107 -47 47 -75 82 -74 95 4 65 -3
115 -17 129 -23 24 -60 20 -81 -9 l-18 -26 -84 86 c-124 127 -147 145 -183
145 -28 0 -60 -28 -271 -237z"/>
<path d="M1286 1773 l-168 -167 -1 -212 c-1 -165 2 -216 12 -228 12 -14 31
-16 109 -14 l95 3 0 149 c-1 170 7 202 62 236 55 34 120 24 161 -24 l31 -36 1
-132 c0 -73 1 -148 1 -165 l1 -33 94 0 c65 0 99 4 108 13 10 10 13 64 13 231
l-1 218 -169 164 c-93 90 -172 164 -175 164 -3 0 -81 -75 -174 -167z m222 30
c19 -17 26 -38 23 -70 -2 -24 -41 -53 -71 -53 -50 0 -89 66 -62 106 23 35 79
43 110 17z"/>
</g>
</svg>
