<?xml version="1.0" standalone="no"?>
<!DOCTYPE svg PUBLIC "-//W3C//DTD SVG 20010904//EN"
 "http://www.w3.org/TR/2001/REC-SVG-20010904/DTD/svg10.dtd">
<svg version="1.0" xmlns="http://www.w3.org/2000/svg"
 width="300.000000pt" height="300.000000pt" viewBox="0 0 300.000000 300.000000"
 preserveAspectRatio="xMidYMid meet">
<metadata>
Created by potrace 1.11, written by Peter Selinger 2001-2013
</metadata>
<g transform="translate(0.000000,300.000000) scale(0.100000,-0.100000)"
fill="#000000" stroke="none">
<path d="M592 2261 c2 -5 114 -123 249 -263 135 -139 273 -281 306 -315 49
-51 58 -65 47 -74 -8 -6 -12 -14 -10 -18 3 -4 146 -6 319 -6 320 0 348 3 347
39 -1 6 -34 46 -75 89 -41 43 -75 84 -75 92 0 8 8 20 18 27 9 8 78 76 152 151
101 103 128 135 110 132 -14 -2 -74 -6 -135 -9 -118 -6 -293 -16 -362 -20 -27
-2 -53 3 -71 14 -26 16 -28 21 -27 80 1 56 -1 63 -23 71 -13 5 -25 9 -28 9 -3
0 -4 -71 -4 -157 1 -228 4 -206 -21 -185 -80 65 -74 51 -75 159 -2 132 -3 143
-11 141 -8 -2 -159 9 -233 17 -19 2 -75 7 -125 10 -49 3 -109 8 -132 11 -103
12 -144 13 -141 5z"/>
<path d="M454 2043 c-124 -130 -181 -191 -373 -392 -28 -30 -51 -57 -51 -60 0
-8 150 -9 151 -1 0 3 2 22 3 43 1 35 18 54 229 265 l227 228 -23 32 -24 32
-139 -147z"/>
<path d="M1982 2042 c-12 -11 -22 -22 -22 -26 0 -3 81 -85 179 -182 161 -158
180 -180 183 -213 l3 -36 55 -1 c30 0 58 1 62 3 3 2 -10 20 -30 42 -21 21 -91
96 -157 166 -66 71 -149 160 -185 198 l-65 69 -23 -20z"/>
<path d="M2507 2034 c-1 -1 -56 -5 -122 -9 -66 -4 -133 -9 -150 -10 -16 -1
-45 -3 -63 -4 -43 -1 -50 8 112 -175 10 -12 27 -32 38 -46 l20 -25 46 50 c109
117 192 210 192 217 0 6 -66 7 -73 2z"/>
<path d="M2566 1971 c-16 -17 -10 -25 139 -173 129 -129 155 -160 155 -184 0
-29 1 -29 55 -29 30 -1 55 2 55 5 -1 6 -46 55 -225 244 -71 76 -131 142 -133
147 -6 15 -28 10 -46 -10z"/>
<path d="M1933 1820 c-21 -9 -43 -38 -43 -59 0 -6 32 -9 80 -8 44 0 80 5 80
10 0 16 -58 67 -77 66 -10 0 -28 -4 -40 -9z"/>
<path d="M476 1789 c2 -4 5 -39 6 -79 1 -39 6 -74 10 -76 5 -3 8 28 7 69 -1
41 1 79 4 84 3 5 -3 9 -13 9 -10 0 -17 -3 -14 -7z"/>
<path d="M719 1793 c0 -4 -2 -21 -2 -38 -2 -26 -7 -31 -37 -36 l-35 -6 39 -2
39 -1 -6 -41 c-3 -27 -2 -39 6 -36 13 4 19 155 6 163 -5 3 -9 2 -10 -3z"/>
<path d="M799 1770 c4 -14 6 -50 5 -81 -2 -38 1 -56 9 -56 8 0 12 26 12 82 0
68 -3 81 -16 81 -13 0 -15 -6 -10 -26z"/>
<path d="M2527 1778 c-8 -13 -15 -44 -16 -70 -2 -47 -1 -48 28 -48 20 0 31 6
34 18 4 16 5 16 6 0 2 -29 48 -23 53 6 6 30 -1 42 -27 49 -18 4 -18 5 3 6 27
1 29 22 4 44 -27 24 -69 21 -85 -5z m52 -60 c-1 -16 -3 -18 -6 -6 -2 9 -14 19
-26 21 -18 4 -17 5 6 6 22 1 27 -3 26 -21z"/>
<path d="M540 1786 c0 -2 7 -6 15 -10 8 -3 15 -1 15 4 0 6 -7 10 -15 10 -8 0
-15 -2 -15 -4z"/>
<path d="M604 1710 c0 -44 4 -80 8 -80 4 0 8 18 8 40 0 25 5 40 13 40 9 0 9 2
0 8 -6 4 -10 22 -9 40 1 19 -3 32 -9 32 -8 0 -12 -26 -11 -80z"/>
<path d="M875 1780 c3 -5 8 -10 11 -10 2 0 4 5 4 10 0 6 -5 10 -11 10 -5 0 -7
-4 -4 -10z"/>
<path d="M1890 1695 l0 -45 40 0 40 0 0 45 0 45 -40 0 -40 0 0 -45z"/>
<path d="M1980 1695 c0 -44 0 -45 33 -45 33 0 34 1 35 45 l2 45 -35 0 c-35 0
-35 0 -35 -45z"/>
<path d="M865 1721 c-3 -5 -1 -12 5 -16 5 -3 10 1 10 9 0 18 -6 21 -15 7z"/>
<path d="M880 1640 c-9 -6 -10 -10 -3 -10 6 0 15 5 18 10 8 12 4 12 -15 0z"/>
<path d="M122 1512 c-28 -3 -31 -6 -21 -18 16 -20 14 -255 -3 -266 -13 -8 40
-12 122 -9 89 3 148 53 157 133 7 57 -16 107 -60 133 -32 20 -130 33 -195 27z
m159 -29 c81 -48 76 -212 -7 -243 -34 -13 -111 -13 -119 1 -4 6 -7 56 -7 112
0 162 -5 147 53 147 30 0 63 -7 80 -17z"/>
<path d="M532 1512 c-29 -9 -81 -59 -93 -89 -27 -72 3 -154 71 -190 54 -29 84
-29 140 0 78 38 109 134 69 209 -34 63 -110 91 -187 70z m116 -30 c46 -43 60
-119 36 -194 -24 -76 -130 -88 -182 -20 -24 31 -27 45 -27 108 0 58 4 76 20
94 43 48 109 53 153 12z"/>
<path d="M790 1509 c0 -4 7 -9 15 -13 12 -4 15 -28 15 -130 0 -109 -2 -126
-17 -135 -14 -8 -10 -10 22 -11 28 0 36 3 25 10 -11 7 -15 35 -16 122 l-1 113
50 -55 c28 -30 77 -85 109 -123 32 -37 59 -66 59 -65 1 2 3 63 5 137 2 88 7
137 15 141 18 12 -3 17 -36 9 -16 -3 -22 -7 -12 -8 10 -1 17 -10 18 -23 7
-142 1 -227 -13 -189 -1 5 -35 44 -74 87 -39 44 -83 92 -96 108 -23 27 -68 43
-68 25z"/>
<path d="M1242 1508 c-7 -7 -12 -17 -12 -22 0 -6 -19 -58 -41 -116 -22 -58
-43 -113 -46 -122 -3 -9 -12 -19 -22 -21 -9 -3 2 -5 24 -6 27 0 35 2 26 8 -12
8 -12 16 1 58 l15 48 51 3 50 2 16 -47 c20 -58 20 -61 -1 -66 -10 -3 4 -5 31
-6 42 -1 47 1 34 12 -9 6 -34 64 -56 127 -59 169 -56 162 -70 148z m17 -89 c7
-23 15 -47 18 -55 4 -11 -5 -14 -36 -12 -23 1 -41 3 -41 6 0 13 36 102 41 102
3 0 11 -18 18 -41z"/>
<path d="M1471 1512 c-17 -3 -20 -6 -11 -12 19 -12 21 -248 2 -267 -11 -11 2
-13 82 -13 84 0 97 2 106 19 15 29 12 39 -6 16 -11 -15 -27 -20 -72 -20 l-57
0 -3 129 c-1 73 2 133 7 140 10 12 -2 14 -48 8z"/>
<path d="M1810 1508 c0 -4 12 -8 26 -8 64 0 114 -61 114 -140 0 -69 -39 -121
-101 -133 -13 -2 -7 -3 13 -2 129 10 176 195 66 260 -35 21 -118 37 -118 23z"/>
<path d="M2130 1513 c14 -3 35 -14 48 -26 23 -22 28 -17 13 12 -6 11 -22 17
-48 18 -23 0 -28 -1 -13 -4z"/>
<path d="M2350 1501 c-122 -65 -107 -244 25 -281 117 -33 220 64 193 182 -22
99 -128 147 -218 99z m139 -23 c67 -68 58 -208 -14 -243 -89 -42 -168 28 -167
147 0 85 38 127 113 128 28 0 44 -7 68 -32z"/>
<path d="M2620 1510 c0 -5 6 -10 13 -13 19 -6 16 -255 -3 -267 -11 -7 -6 -10
20 -10 26 0 31 3 22 12 -8 8 -12 50 -12 123 l0 110 28 -31 c15 -17 55 -62 89
-100 34 -38 71 -80 82 -94 24 -29 23 -36 23 122 -1 92 3 121 14 133 14 13 11
15 -28 14 -34 0 -39 -2 -22 -9 20 -8 22 -17 23 -109 1 -56 -2 -101 -7 -101 -5
0 -20 14 -34 30 -14 17 -43 50 -64 73 -22 23 -52 58 -68 77 -27 33 -76 59 -76
40z"/>
<path d="M1710 1495 c8 -10 13 -49 13 -113 0 -145 -1 -150 -20 -155 -10 -3 3
-5 29 -6 25 0 53 -4 62 -7 9 -3 16 -2 16 4 0 5 -11 13 -25 16 -28 7 -27 0 -28
159 0 75 3 101 14 108 9 6 0 9 -30 9 -38 0 -42 -2 -31 -15z"/>
<path d="M2067 1492 c-10 -10 -17 -33 -17 -50 0 -34 21 -59 83 -98 32 -21 37
-29 37 -64 0 -27 -6 -42 -17 -49 -10 -6 -13 -11 -7 -11 24 0 46 28 51 66 6 45
-12 71 -81 113 -43 27 -53 54 -32 86 19 29 7 33 -17 7z"/>
<path d="M2030 1269 c0 -22 22 -46 50 -54 l25 -6 -22 18 c-12 10 -29 27 -37
38 -12 16 -15 17 -16 4z"/>
<path d="M2115 1220 c-3 -5 -1 -10 4 -10 6 0 11 5 11 10 0 6 -2 10 -4 10 -3 0
-8 -4 -11 -10z"/>
<path d="M826 1136 c-10 -36 -7 -41 10 -18 9 13 22 21 30 18 8 -3 14 -2 14 3
0 5 -11 11 -24 13 -19 4 -26 0 -30 -16z"/>
<path d="M890 1141 c0 -5 9 -7 20 -4 11 3 20 7 20 9 0 2 -9 4 -20 4 -11 0 -20
-4 -20 -9z"/>
<path d="M940 1008 c0 -134 -1 -139 -22 -148 -18 -7 -9 -9 37 -9 33 1 53 3 45
6 -8 3 -18 11 -22 16 -11 17 -10 257 2 257 5 0 10 4 10 9 0 5 -11 9 -25 9
l-25 0 0 -140z"/>
<path d="M1027 1143 c19 -3 39 -14 48 -26 15 -21 15 -21 15 6 0 26 -2 27 -47
25 -37 -1 -40 -2 -16 -5z"/>
<path d="M1155 1137 c13 -10 16 -33 17 -117 1 -149 1 -150 -24 -160 -16 -6 12
-9 89 -9 l111 -1 11 33 11 32 -19 -25 c-15 -19 -29 -25 -69 -26 -68 -3 -75 4
-76 73 l-1 58 40 3 c29 3 43 -1 52 -14 11 -16 13 -12 12 27 0 36 -2 40 -9 22
-8 -19 -17 -23 -50 -23 -22 0 -41 3 -41 8 -7 41 -2 107 8 118 10 10 4 12 -33
12 -37 0 -43 -2 -29 -11z"/>
<path d="M1270 1141 c0 -5 9 -8 20 -6 12 2 26 -5 36 -18 l15 -22 -3 25 c-2 20
-9 26 -35 28 -18 2 -33 -1 -33 -7z"/>
<path d="M1542 1138 c-7 -7 -12 -18 -12 -25 0 -7 -11 -37 -24 -68 -14 -30 -23
-55 -21 -55 9 0 -48 -115 -63 -127 -15 -11 -12 -12 23 -13 27 0 35 3 26 9 -12
8 -12 16 -1 55 15 55 22 61 75 57 44 -3 50 -9 66 -65 8 -31 8 -41 -3 -47 -8
-6 5 -9 36 -9 47 0 48 0 27 18 -13 10 -37 63 -62 136 -48 145 -51 150 -67 134z
m27 -149 c-7 -4 -19 -5 -28 -4 -9 2 -22 4 -29 4 -14 1 -11 17 16 80 l15 36 18
-54 c14 -40 16 -57 8 -62z"/>
<path d="M1760 1139 c0 -5 5 -9 11 -9 8 0 9 -38 4 -127 -5 -101 -10 -131 -23
-140 -13 -11 -10 -13 22 -13 32 0 35 2 23 14 -11 11 -13 38 -10 117 3 57 6
105 7 106 1 2 27 -51 57 -117 l54 -121 55 115 c30 63 59 115 63 115 5 1 7 -51
5 -114 l-3 -115 35 0 c27 1 31 3 19 10 -14 8 -17 31 -18 136 -1 83 2 131 10
140 9 11 7 14 -9 14 -16 0 -32 -24 -76 -114 -30 -63 -59 -117 -64 -120 -9 -5
-76 122 -102 196 -10 27 -19 36 -37 36 -12 0 -23 -4 -23 -9z"/>
<path d="M74 1002 c6 -10 702 -10 712 1 4 4 -156 7 -355 7 -199 0 -360 -4
-357 -8z"/>
<path d="M2140 1002 c0 -10 766 -9 776 1 4 4 -169 7 -384 7 -216 0 -392 -3
-392 -8z"/>
<path d="M836 728 c-16 -52 -23 -99 -15 -104 5 -3 9 8 9 25 0 23 4 29 15 25 8
-4 15 -12 15 -19 0 -7 7 -19 17 -26 15 -13 15 -12 0 18 -16 29 -16 33 -1 41
12 7 14 15 8 33 -8 24 -8 24 -13 -5 -8 -42 -35 -49 -29 -7 5 31 1 42 -6 19z"/>
<path d="M1075 720 c-4 -12 -5 -24 -2 -27 3 -2 8 5 12 17 4 12 5 24 2 27 -3 2
-8 -5 -12 -17z"/>
<path d="M1164 712 c0 -15 -4 -40 -8 -57 -5 -21 -4 -27 3 -20 13 13 23 92 13
99 -4 2 -7 -8 -8 -22z"/>
<path d="M1756 725 c4 -8 8 -15 10 -15 2 0 4 7 4 15 0 8 -4 15 -10 15 -5 0 -7
-7 -4 -15z"/>
<path d="M1643 698 c1 -21 6 -38 10 -38 5 0 6 -4 3 -8 -2 -4 -1 -14 5 -22 6
-10 7 1 3 30 -8 60 -23 87 -21 38z"/>
<path d="M1445 705 c-3 -8 -7 -22 -10 -30 -2 -8 -1 -15 4 -15 5 0 11 14 13 30
5 32 1 40 -7 15z"/>
<path d="M1310 701 c0 -5 -3 -17 -7 -27 -4 -11 -3 -15 4 -11 14 9 24 47 12 47
-5 0 -9 -4 -9 -9z"/>
<path d="M1031 683 c-1 -13 -5 -23 -10 -23 -5 0 -6 -10 -3 -22 5 -21 7 -20 14
10 5 19 7 39 4 45 -2 7 -5 2 -5 -10z"/>
<path d="M1395 690 c3 -5 8 -10 11 -10 2 0 4 5 4 10 0 6 -5 10 -11 10 -5 0 -7
-4 -4 -10z"/>
<path d="M1516 683 c-6 -14 -5 -15 5 -6 7 7 10 15 7 18 -3 3 -9 -2 -12 -12z"/>
<path d="M1745 690 c3 -5 8 -10 11 -10 2 0 4 5 4 10 0 6 -5 10 -11 10 -5 0 -7
-4 -4 -10z"/>
<path d="M1790 690 c0 -5 5 -10 11 -10 5 0 7 5 4 10 -3 6 -8 10 -11 10 -2 0
-4 -4 -4 -10z"/>
<path d="M1841 684 c0 -11 3 -14 6 -6 3 7 2 16 -1 19 -3 4 -6 -2 -5 -13z"/>
<path d="M1873 685 c0 -8 4 -15 9 -15 4 0 8 7 8 15 0 8 -4 15 -8 15 -5 0 -9
-7 -9 -15z"/>
<path d="M2014 664 c-1 -34 0 -34 12 -13 6 13 10 29 7 36 -9 24 -18 13 -19
-23z"/>
<path d="M2062 696 c3 -4 2 -21 -2 -37 -5 -16 -5 -29 0 -29 12 0 18 60 6 67
-6 3 -8 3 -4 -1z"/>
<path d="M983 667 c-7 -15 -8 -29 -2 -38 6 -10 9 -7 9 12 0 14 5 30 12 37 7 7
8 12 2 12 -6 0 -16 -11 -21 -23z"/>
<path d="M1355 675 c-3 -8 -7 -22 -10 -30 -2 -8 0 -17 4 -20 5 -2 11 11 13 30
4 36 1 46 -7 20z"/>
<path d="M1487 683 c-4 -3 -7 -11 -7 -17 0 -6 5 -5 12 2 6 6 9 14 7 17 -3 3
-9 2 -12 -2z"/>
<path d="M1615 681 c-3 -5 -2 -12 3 -15 5 -3 9 1 9 9 0 17 -3 19 -12 6z"/>
<path d="M1703 668 c-10 -23 -7 -48 5 -48 4 0 7 16 8 35 0 19 0 35 -1 35 -1 0
-6 -10 -12 -22z"/>
<path d="M1920 684 c0 -13 18 -39 24 -34 2 3 -2 14 -10 24 -8 11 -14 16 -14
10z"/>
<path d="M1977 683 c-10 -9 -9 -51 1 -57 5 -3 8 11 8 29 -1 19 -1 35 -2 35 0
0 -4 -3 -7 -7z"/>
<path d="M1061 658 c-9 -23 -6 -36 4 -26 8 7 15 48 9 48 -3 0 -8 -10 -13 -22z"/>
<path d="M1250 671 c0 -5 7 -15 17 -22 15 -13 15 -12 4 9 -12 23 -21 28 -21
13z"/>
<path d="M2120 676 c0 -4 7 -14 15 -22 8 -9 15 -11 15 -6 0 5 -7 15 -15 22 -8
7 -15 9 -15 6z"/>
<path d="M912 648 c2 -12 10 -23 18 -25 12 -4 13 -3 1 5 -8 6 -11 17 -8 26 4
9 2 16 -4 16 -6 0 -9 -10 -7 -22z"/>
<path d="M1387 657 c-3 -8 -2 -19 3 -26 5 -9 9 -4 12 13 5 27 -6 36 -15 13z"/>
<path d="M1740 650 c0 -11 4 -20 8 -20 4 0 8 9 9 20 1 11 -2 20 -8 20 -5 0 -9
-9 -9 -20z"/>
<path d="M1797 663 c-3 -5 -1 -17 4 -28 7 -17 8 -17 8 8 1 27 -4 34 -12 20z"/>
<path d="M1867 641 c-4 -17 -3 -21 5 -13 5 5 8 16 6 23 -3 8 -7 3 -11 -10z"/>
<path d="M1301 634 c0 -11 3 -14 6 -6 3 7 2 16 -1 19 -3 4 -6 -2 -5 -13z"/>
<path d="M1431 634 c0 -11 3 -14 6 -6 3 7 2 16 -1 19 -3 4 -6 -2 -5 -13z"/>
<path d="M1476 641 c-3 -5 1 -11 9 -14 9 -4 12 -1 8 9 -6 16 -10 17 -17 5z"/>
</g>
</svg>
