<?xml version="1.0" standalone="no"?>
<!DOCTYPE svg PUBLIC "-//W3C//DTD SVG 20010904//EN"
 "http://www.w3.org/TR/2001/REC-SVG-20010904/DTD/svg10.dtd">
<svg version="1.0" xmlns="http://www.w3.org/2000/svg"
 width="300.000000pt" height="300.000000pt" viewBox="0 0 300.000000 300.000000"
 preserveAspectRatio="xMidYMid meet">
<metadata>
Created by potrace 1.11, written by Peter Selinger 2001-2013
</metadata>
<g transform="translate(0.000000,300.000000) scale(0.100000,-0.100000)"
fill="#000000" stroke="none">
<path d="M418 2229 c-7 -5 -13 -888 -8 -1424 l0 -61 98 1 97 1 0 172 0 173 74
75 c41 41 78 71 82 67 4 -5 52 -116 108 -248 l102 -240 104 -1 c58 0 105 3
105 8 0 6 -155 379 -180 433 -5 11 -29 67 -53 124 l-44 103 51 56 c125 136
145 156 149 152 2 -3 57 -129 121 -280 65 -151 128 -297 141 -325 12 -27 41
-95 65 -150 24 -55 47 -105 52 -111 12 -16 80 -11 89 7 10 20 22 47 154 364
65 154 120 283 124 287 4 4 20 -23 36 -60 15 -37 37 -87 48 -112 39 -90 46
-107 102 -240 118 -279 103 -253 148 -256 45 -4 29 -31 182 321 65 149 126
290 137 315 11 25 26 59 33 75 7 17 22 50 33 75 11 25 32 74 47 110 15 36 32
71 37 77 25 31 2 40 -102 39 l-102 -1 -119 -275 c-65 -151 -124 -288 -132
-303 -12 -28 -14 -25 -81 135 -37 90 -95 226 -128 304 l-59 141 -75 -1 -75 -1
-54 -130 c-30 -71 -61 -143 -68 -160 -14 -30 -29 -65 -46 -107 -5 -13 -17 -41
-27 -63 -9 -22 -27 -65 -40 -95 -21 -53 -23 -54 -32 -30 -16 40 -217 501 -238
545 l-19 40 -140 0 -140 1 -181 -183 c-100 -101 -183 -183 -185 -183 -2 0 -4
189 -3 420 0 375 -1 420 -15 421 -83 4 -165 3 -173 -2z"/>
</g>
</svg>
