<?xml version="1.0" standalone="no"?>
<!DOCTYPE svg PUBLIC "-//W3C//DTD SVG 20010904//EN"
 "http://www.w3.org/TR/2001/REC-SVG-20010904/DTD/svg10.dtd">
<svg version="1.0" xmlns="http://www.w3.org/2000/svg"
 width="300.000000pt" height="300.000000pt" viewBox="0 0 300.000000 300.000000"
 preserveAspectRatio="xMidYMid meet">
<metadata>
Created by potrace 1.11, written by Peter Selinger 2001-2013
</metadata>
<g transform="translate(0.000000,300.000000) scale(0.100000,-0.100000)"
fill="#000000" stroke="none">
<path d="M1371 2948 c-5 -13 -81 -210 -169 -438 -88 -228 -179 -464 -202 -525
-23 -60 -46 -119 -50 -130 -5 -11 -38 -92 -72 -180 -61 -155 -63 -163 -64
-257 -1 -54 1 -98 6 -98 4 0 6 -11 5 -25 -2 -14 1 -25 6 -25 4 0 6 -7 3 -15
-4 -9 0 -15 7 -15 12 0 12 -2 1 -9 -11 -7 -11 -9 1 -14 10 -3 13 -13 10 -25
-2 -11 0 -23 6 -26 5 -4 8 -13 4 -21 -3 -8 0 -15 6 -15 6 0 10 -3 9 -8 -5 -13
76 -162 87 -162 6 0 33 55 59 123 26 67 65 167 87 222 22 55 42 108 44 118 2
9 7 21 10 27 3 5 16 38 29 72 13 35 76 198 141 363 151 389 188 487 188 503 0
6 3 12 7 12 8 0 34 74 32 93 -4 55 -16 107 -45 197 -39 118 -113 280 -128 280
-5 0 -13 -10 -18 -22z"/>
<path d="M1530 2229 c-44 -10 -51 -19 -106 -163 -26 -67 -71 -184 -101 -261
-30 -77 -65 -167 -78 -200 -13 -33 -44 -114 -70 -180 -25 -66 -53 -136 -60
-155 -27 -66 -107 -275 -120 -312 -12 -33 -11 -40 12 -85 14 -26 33 -56 42
-65 9 -9 21 -23 28 -30 35 -38 90 -61 150 -63 49 -2 52 0 82 75 12 30 26 64
31 75 10 24 55 144 105 275 19 52 39 104 45 115 5 11 57 146 116 300 59 154
128 332 153 395 48 121 49 127 11 180 -6 8 -14 20 -18 25 -13 18 -86 64 -112
69 -51 11 -76 13 -110 5z"/>
<path d="M1813 2033 c-5 -16 -22 -58 -108 -278 -13 -33 -40 -103 -60 -155 -19
-52 -40 -104 -44 -115 -5 -11 -19 -47 -31 -80 -13 -33 -29 -73 -35 -90 -7 -16
-23 -57 -35 -90 -13 -33 -29 -73 -35 -90 -7 -16 -27 -68 -45 -115 -18 -47 -39
-98 -46 -115 -28 -64 -117 -332 -123 -370 -10 -61 5 -171 35 -257 15 -42 30
-76 33 -74 3 2 7 -8 8 -22 0 -15 6 -28 12 -30 6 -2 11 -12 11 -22 0 -9 6 -23
14 -29 8 -7 17 -23 20 -36 8 -33 24 -32 37 3 6 15 15 35 20 45 6 10 7 23 3 29
-5 7 -2 8 6 3 10 -6 12 -4 7 8 -3 9 -2 19 3 22 6 4 10 15 10 26 0 10 5 19 10
19 6 0 10 6 10 14 0 12 22 70 51 131 19 43 101 261 102 273 0 6 3 12 7 12 6 0
32 69 34 90 1 3 9 24 18 45 9 22 29 74 44 115 15 41 31 79 36 85 4 5 8 15 8
23 0 8 6 28 14 45 8 18 31 75 51 127 20 52 42 109 48 125 6 17 12 32 13 35 0
3 4 13 8 22 4 9 9 22 10 30 1 7 8 23 14 36 7 12 9 22 5 22 -4 0 -3 4 2 8 6 4
20 32 31 62 18 51 19 59 6 105 -8 28 -20 65 -28 83 -8 18 -14 44 -14 57 0 13
-5 27 -11 30 -6 4 -8 13 -5 21 3 8 1 14 -5 14 -6 0 -8 4 -4 10 3 5 2 17 -3 27
-5 10 -27 55 -48 101 -39 84 -50 96 -61 65z m-409 -1969 c3 -8 2 -12 -4 -9 -6
3 -10 10 -10 16 0 14 7 11 14 -7z"/>
</g>
</svg>
