<?xml version="1.0" standalone="no"?>
<!DOCTYPE svg PUBLIC "-//W3C//DTD SVG 20010904//EN"
 "http://www.w3.org/TR/2001/REC-SVG-20010904/DTD/svg10.dtd">
<svg version="1.0" xmlns="http://www.w3.org/2000/svg"
 width="300.000000pt" height="300.000000pt" viewBox="0 0 300.000000 300.000000"
 preserveAspectRatio="xMidYMid meet">
<metadata>
Created by potrace 1.11, written by Peter Selinger 2001-2013
</metadata>
<g transform="translate(0.000000,300.000000) scale(0.100000,-0.100000)"
fill="#000000" stroke="none">
<path d="M1391 2970 c-24 -5 -64 -19 -90 -32 -29 -14 -67 -23 -103 -24 -114
-4 -237 -47 -328 -117 -25 -18 -69 -46 -98 -62 -67 -36 -167 -127 -228 -208
-44 -58 -112 -189 -129 -247 -6 -22 -2 -20 36 17 58 56 124 83 216 90 67 5 82
11 137 48 81 54 169 77 291 74 80 -1 97 1 143 25 145 73 392 74 530 2 41 -22
63 -25 172 -29 141 -5 206 -23 282 -81 38 -29 52 -34 119 -38 91 -6 169 -38
223 -94 34 -34 38 -36 31 -14 -48 158 -179 334 -318 426 -39 26 -108 72 -152
101 -96 64 -205 102 -302 105 -51 1 -83 9 -130 31 -52 24 -76 29 -160 32 -54
2 -118 0 -142 -5z"/>
<path d="M1352 2263 c-7 -3 -49 -77 -93 -165 l-80 -159 38 3 38 3 83 163 82
162 -27 -1 c-16 0 -34 -3 -41 -6z"/>
<path d="M1461 2203 c-29 -52 -31 -64 -31 -155 l0 -99 28 3 27 3 5 104 5 105
35 -47 c19 -25 38 -47 41 -47 3 0 21 21 40 46 l34 46 3 -106 3 -106 34 0 35 0
0 155 0 155 -34 0 c-29 0 -41 -8 -72 -45 -20 -25 -39 -45 -43 -45 -3 0 -19 20
-34 45 -16 25 -33 45 -37 45 -5 0 -22 -26 -39 -57z"/>
<path d="M1070 2232 l-85 -17 -2 -145 c-2 -80 0 -150 5 -157 5 -8 21 -8 60 -1
44 9 56 16 68 41 16 29 16 30 -9 23 -14 -3 -32 -9 -41 -12 -10 -4 -17 2 -21
19 -13 49 -3 61 58 77 49 12 57 17 57 37 0 25 -11 25 -84 2 -16 -5 -31 -9 -32
-9 -2 0 -4 18 -4 40 0 43 0 43 90 58 39 7 45 11 48 35 4 31 7 31 -108 9z"/>
<path d="M1888 2193 c-11 -27 -40 -92 -64 -147 -24 -54 -44 -100 -44 -102 0
-2 13 -4 30 -4 24 0 32 6 44 34 l14 35 57 -14 c65 -15 59 -10 78 -57 13 -30
21 -38 41 -38 15 0 26 3 26 6 0 3 -23 74 -52 157 -65 193 -91 219 -130 130z
m65 -104 l16 -51 -36 5 c-19 4 -37 8 -40 10 -6 6 28 87 36 87 4 0 15 -23 24
-51z"/>
<path d="M2140 2186 c0 -4 18 -42 40 -86 22 -44 40 -84 40 -89 0 -5 -21 -35
-46 -66 -25 -31 -44 -58 -42 -60 2 -2 15 -8 28 -14 22 -8 29 -4 61 32 l36 42
32 -62 c20 -41 41 -68 61 -78 17 -9 30 -14 30 -12 0 3 -20 48 -45 102 l-45 97
45 56 44 57 -26 14 c-26 13 -29 12 -60 -24 -18 -21 -35 -36 -37 -34 -2 2 -16
30 -30 62 -14 32 -31 57 -40 57 -8 0 -21 3 -30 6 -9 3 -16 3 -16 0z"/>
<path d="M716 2133 l-69 -26 7 -151 c4 -83 9 -152 10 -154 2 -1 15 2 29 7 25
10 26 13 20 60 -5 48 -4 51 22 61 28 11 31 9 80 -58 11 -14 65 -8 65 8 0 4
-13 24 -30 45 l-30 37 25 30 c35 41 36 129 3 152 -30 21 -51 20 -132 -11z m92
-35 c32 -32 2 -87 -60 -113 l-38 -15 0 55 c0 54 1 57 33 70 40 18 50 18 65 3z"/>
<path d="M1315 1701 c-38 -10 -86 -26 -105 -36 -26 -15 -65 -21 -150 -26 -129
-7 -196 -27 -280 -85 -38 -26 -60 -34 -94 -34 -59 0 -116 -21 -187 -71 -32
-23 -59 -44 -59 -46 0 -3 16 -35 35 -72 75 -142 377 -502 689 -819 l199 -202
142 0 142 0 179 183 c339 345 642 704 714 846 l29 59 -36 32 c-58 51 -149 90
-211 90 -44 0 -60 5 -90 30 -72 57 -180 90 -298 90 -66 0 -92 5 -137 25 -30
14 -86 32 -124 40 -93 20 -270 18 -358 -4z"/>
<path d="M1372 168 c9 -7 26 -46 39 -86 l23 -73 70 3 69 3 23 69 c13 37 29 75
35 82 10 12 -11 14 -132 14 -116 0 -140 -2 -127 -12z"/>
</g>
</svg>
