<?xml version="1.0" standalone="no"?>
<!DOCTYPE svg PUBLIC "-//W3C//DTD SVG 20010904//EN"
 "http://www.w3.org/TR/2001/REC-SVG-20010904/DTD/svg10.dtd">
<svg version="1.0" xmlns="http://www.w3.org/2000/svg"
 width="300.000000pt" height="300.000000pt" viewBox="0 0 300.000000 300.000000"
 preserveAspectRatio="xMidYMid meet">
<metadata>
Created by potrace 1.11, written by Peter Selinger 2001-2013
</metadata>
<g transform="translate(0.000000,300.000000) scale(0.100000,-0.100000)"
fill="#000000" stroke="none">
<path d="M1000 2502 c-135 -92 -317 -216 -405 -277 -88 -60 -243 -166 -345
-235 -102 -69 -196 -133 -210 -143 l-25 -17 0 -469 0 -469 29 15 c17 9 35 21
42 27 7 6 77 53 156 104 l143 93 0 251 0 252 205 134 c113 74 238 157 279 183
41 27 76 49 79 49 3 0 15 8 26 18 23 20 272 182 280 182 11 0 851 -562 857
-573 4 -7 6 -117 6 -245 0 -128 2 -235 6 -238 3 -3 87 49 186 115 160 107 181
125 182 149 2 83 0 425 -3 426 -16 11 -295 199 -413 280 -82 56 -300 204 -483
329 -183 125 -336 227 -340 227 -4 -1 -117 -76 -252 -168z"/>
<path d="M509 2578 c-1 -2 -2 -74 -3 -160 l-2 -157 36 22 c19 12 71 46 115 77
44 30 110 75 147 100 63 42 67 47 68 83 l0 37 -180 0 c-99 0 -181 -1 -181 -2z"/>
<path d="M2955 2086 c-11 -6 -93 -59 -182 -118 l-162 -107 0 -173 c0 -95 0
-209 -1 -254 l0 -80 -41 -25 c-23 -13 -51 -31 -64 -39 -62 -42 -90 -60 -205
-136 -69 -44 -217 -142 -330 -216 -113 -74 -210 -137 -217 -141 -7 -4 -189
110 -442 278 l-431 286 -1 37 c-1 20 -1 132 -1 249 l0 212 -27 -17 c-14 -9
-99 -65 -187 -124 l-161 -107 0 -221 0 -220 36 -29 c20 -15 112 -79 205 -142
93 -63 205 -139 250 -169 45 -31 140 -96 211 -145 72 -48 186 -127 255 -173
69 -47 160 -110 203 -140 l79 -55 101 70 c56 38 165 112 242 164 77 53 284
194 460 314 176 121 346 236 378 257 31 21 57 42 58 46 3 38 3 932 -1 931 -3
-1 -14 -6 -25 -13z"/>
<path d="M2317 616 c-207 -140 -194 -129 -192 -168 l2 -33 181 -3 182 -2 1 30
c2 122 1 282 -3 285 -2 2 -79 -47 -171 -109z"/>
</g>
</svg>
