<?xml version="1.0" standalone="no"?>
<!DOCTYPE svg PUBLIC "-//W3C//DTD SVG 20010904//EN"
 "http://www.w3.org/TR/2001/REC-SVG-20010904/DTD/svg10.dtd">
<svg version="1.0" xmlns="http://www.w3.org/2000/svg"
 width="300.000000pt" height="300.000000pt" viewBox="0 0 300.000000 300.000000"
 preserveAspectRatio="xMidYMid meet">
<metadata>
Created by potrace 1.11, written by Peter Selinger 2001-2013
</metadata>
<g transform="translate(0.000000,300.000000) scale(0.100000,-0.100000)"
fill="#000000" stroke="none">
<path d="M1470 1956 c0 -44 1 -46 29 -46 32 0 39 11 37 55 -2 26 -6 30 -34 33
-32 3 -32 3 -32 -42z"/>
<path d="M1330 1873 c-170 -26 -233 -40 -334 -74 -292 -97 -542 -268 -740
-504 -48 -58 -168 -236 -163 -241 2 -2 27 8 56 23 142 67 327 64 476 -9 33
-16 68 -37 78 -45 9 -9 19 -14 20 -12 2 2 14 36 26 74 96 295 345 611 617 782
20 13 13 14 -36 6z"/>
<path d="M1630 1869 c0 -5 5 -9 12 -9 35 0 277 -214 362 -320 51 -64 123 -174
159 -245 35 -68 97 -213 97 -227 0 -4 4 -18 10 -32 l9 -25 58 35 c82 50 179
77 277 77 111 1 181 -14 265 -57 17 -9 31 -13 31 -8 0 12 -108 172 -158 232
-99 121 -296 293 -402 351 -14 8 -27 17 -30 20 -13 15 -226 110 -306 137 -148
49 -384 93 -384 71z"/>
<path d="M1400 1829 c-235 -146 -424 -358 -544 -611 -41 -87 -86 -208 -77
-208 3 0 23 11 44 25 176 120 451 119 613 -2 17 -13 33 -23 36 -23 3 0 6 194
6 430 0 237 -2 430 -6 429 -4 0 -36 -18 -72 -40z"/>
<path d="M1525 1440 c0 -237 1 -430 2 -430 1 0 28 16 60 35 155 94 356 106
521 30 29 -13 65 -34 79 -45 14 -11 29 -20 34 -20 12 0 -35 129 -84 230 -113
233 -322 463 -541 594 -33 20 -62 36 -65 36 -3 0 -6 -194 -6 -430z"/>
</g>
</svg>
