<?xml version="1.0" standalone="no"?>
<!DOCTYPE svg PUBLIC "-//W3C//DTD SVG 20010904//EN"
 "http://www.w3.org/TR/2001/REC-SVG-20010904/DTD/svg10.dtd">
<svg version="1.0" xmlns="http://www.w3.org/2000/svg"
 width="16.000000pt" height="16.000000pt" viewBox="0 0 16.000000 16.000000"
 preserveAspectRatio="xMidYMid meet">
<metadata>
Created by potrace 1.11, written by Peter Selinger 2001-2013
</metadata>
<g transform="translate(0.000000,16.000000) scale(0.001209,-0.001209)"
fill="#000000" stroke="none">
<path d="M6520 8681 c-43 -31 -172 -124 -287 -207 -114 -83 -404 -292 -643
-466 -371 -268 -637 -462 -1251 -909 l-106 -78 -639 -5 c-352 -4 -889 -8
-1194 -11 -1049 -9 -1891 -21 -2070 -30 -36 -1 -112 -3 -169 -4 -57 -1 -102
-3 -100 -5 16 -17 1372 -37 3444 -51 l760 -6 235 168 c331 237 690 495 1005
722 149 107 389 280 535 385 146 104 306 219 355 256 50 36 120 86 156 112
l65 46 110 -75 c185 -128 736 -508 791 -546 55 -37 79 -39 107 -8 12 13 16 54
18 209 l2 192 51 -6 c27 -4 52 -8 54 -10 8 -7 10 -38 26 -299 11 -177 16 -241
21 -256 3 -12 485 -357 710 -509 92 -62 185 -127 349 -244 l190 -136 765 5
c2058 14 3312 33 3329 51 2 2 -40 4 -95 5 -54 0 -126 2 -159 4 -204 11 -2144
34 -3385 39 -232 1 -412 6 -421 12 -8 5 -277 193 -597 418 l-582 408 -1 42
c-1 22 -3 52 -4 66 -2 14 -6 77 -9 140 -21 394 -9 360 -126 375 -214 26 -229
21 -231 -73 -1 -31 -2 -104 -3 -162 0 -58 -5 -107 -10 -109 -4 -2 -117 72
-250 165 -503 352 -634 441 -650 441 -10 0 -53 -25 -96 -56z"/>
<path d="M6307 7742 c-3 -6 -2 -233 2 -257 1 -8 132 -11 246 -6 20 1 21 7 20
134 l0 132 -132 2 c-73 1 -134 -2 -136 -5z"/>
<path d="M6659 7713 c-2 -153 -1 -221 3 -229 5 -7 155 -10 251 -5 16 1 17 13
15 134 l-3 132 -132 3 -133 3 -1 -38z"/>
<path d="M6323 7390 c-16 -4 -18 -17 -17 -125 1 -66 2 -126 3 -132 1 -10 34
-13 131 -13 72 0 131 3 131 8 7 38 3 255 -4 259 -12 7 -220 10 -244 3z"/>
<path d="M6677 7392 c-9 -2 -17 -11 -18 -20 -1 -28 -1 -226 0 -240 1 -10 31
-12 134 -10 l132 3 2 133 c2 72 0 132 -5 133 -27 3 -232 3 -245 1z"/>
<path d="M13188 6963 c7 -3 16 -2 19 1 4 3 -2 6 -13 5 -11 0 -14 -3 -6 -6z"/>
<path d="M240 6590 c0 -8 14 -23 30 -32 17 -9 35 -30 42 -45 18 -43 20 -764 2
-848 -19 -89 -48 -139 -92 -156 -13 -5 -22 -15 -19 -22 5 -17 653 -18 752 0
203 35 369 164 434 339 55 145 43 348 -28 481 -80 149 -263 271 -434 289 -28
3 -195 7 -370 7 -276 2 -317 0 -317 -13z m129 -45 c46 -39 50 -86 47 -490 -2
-318 -4 -366 -20 -410 -22 -60 -50 -101 -79 -116 -21 -12 -22 -11 -4 8 10 11
27 47 40 79 21 57 22 70 22 464 0 367 -2 408 -17 437 -10 18 -26 37 -35 42
-16 9 -16 10 -1 11 9 0 30 -11 47 -25z m503 -29 c35 -11 77 -31 93 -44 86 -67
126 -189 130 -398 6 -294 -79 -485 -237 -531 -48 -14 -138 -8 -176 11 -54 28
-56 41 -60 534 l-4 453 96 -2 c67 -1 114 -8 158 -23z"/>
<path d="M4953 6602 c-49 -4 -57 -22 -18 -40 26 -12 51 -53 60 -98 9 -50 5
-749 -5 -802 -5 -28 -16 -66 -23 -85 -15 -35 -60 -77 -83 -77 -14 0 -20 -19
-6 -21 4 -1 125 -2 269 -3 184 -1 264 2 267 10 2 6 -11 16 -29 23 -72 26 -93
109 -91 352 l1 174 65 0 c180 1 316 -57 357 -152 7 -18 19 -33 27 -33 11 0 14
41 14 220 0 204 -1 220 -17 220 -11 0 -25 -15 -36 -41 -25 -53 -87 -106 -150
-125 -27 -9 -98 -17 -157 -20 l-108 -4 0 220 0 220 108 -1 c186 -1 310 -50
433 -173 66 -67 111 -91 103 -58 -26 106 -74 285 -78 289 -6 6 -832 10 -903 5z
m62 -46 c36 -15 51 -36 60 -82 11 -58 6 -757 -6 -814 -19 -90 -45 -128 -104
-149 l-30 -11 28 21 c27 21 53 61 65 102 8 31 15 772 7 836 -5 41 -14 61 -35
83 -33 32 -32 33 15 14z"/>
<path d="M1873 6388 c-6 -7 -91 -177 -190 -378 -182 -368 -231 -449 -298 -493
-19 -12 -35 -27 -35 -32 0 -7 59 -10 160 -10 170 0 202 9 130 38 -56 22 -76
65 -61 132 7 29 27 83 45 121 l33 69 129 -1 c71 -1 132 -2 136 -3 11 -2 84
-149 103 -209 21 -65 14 -96 -25 -112 -67 -28 -27 -35 193 -35 201 0 217 1
217 17 0 10 -6 18 -14 18 -39 0 -101 103 -295 488 -109 218 -203 398 -208 399
-6 2 -15 -2 -20 -9z m14 -305 c30 -65 82 -174 115 -243 126 -263 135 -319 53
-335 -25 -4 -26 -4 -8 4 29 13 36 40 23 96 -12 56 -9 47 -213 474 -39 81 -49
121 -30 121 2 0 29 -53 60 -117z m-38 -74 c28 -65 51 -119 51 -122 0 -3 -50
-5 -111 -5 -60 0 -109 4 -107 8 11 28 112 240 113 238 1 -2 26 -55 54 -119z"/>
<path d="M11325 6303 c-341 -691 -369 -740 -457 -797 -15 -10 -26 -21 -24 -25
4 -5 293 -7 330 -2 14 2 -15 31 -31 31 -8 0 -28 13 -44 29 -38 39 -38 79 1
179 47 123 37 117 190 117 l132 0 21 -40 c52 -96 95 -209 90 -234 -5 -31 -19
-48 -44 -56 -10 -4 -19 -12 -19 -18 0 -17 432 -17 437 0 2 6 -6 17 -18 24 -59
31 -69 48 -295 495 -108 214 -202 390 -208 392 -7 2 -34 -41 -61 -95z m24
-145 c10 -24 44 -97 76 -163 210 -440 218 -473 123 -491 -13 -3 -12 2 7 20 20
20 22 28 15 67 -11 58 -11 57 -198 452 -52 108 -66 157 -46 157 3 0 13 -19 23
-42z m-14 -125 c21 -49 44 -102 51 -119 l13 -32 -104 0 c-57 -1 -107 3 -110 7
-3 5 8 35 24 68 16 32 39 82 51 111 12 28 26 52 30 52 4 0 25 -39 45 -87z"/>
<path d="M2147 6366 c-3 -8 7 -23 24 -35 23 -17 82 -126 243 -449 117 -235
218 -427 225 -427 19 0 17 -4 185 365 157 343 218 443 301 502 77 54 66 59
-122 56 -146 -3 -166 -5 -169 -20 -1 -11 8 -18 31 -22 49 -10 69 -46 61 -112
-9 -74 -25 -119 -109 -295 l-73 -153 -23 45 c-13 24 -66 122 -117 216 -103
188 -126 251 -105 277 8 9 25 22 39 29 54 27 27 32 -179 35 -169 2 -208 0
-212 -12z m138 -90 c14 -18 25 -35 25 -38 0 -6 148 -313 267 -555 44 -89 77
-167 73 -173 -4 -6 -22 20 -42 62 -184 376 -352 711 -370 733 l-21 28 21 -12
c12 -6 33 -26 47 -45z"/>
<path d="M3235 6370 c-3 -6 8 -18 25 -28 20 -11 34 -29 40 -54 11 -39 15 -627
5 -674 -14 -64 -29 -87 -66 -103 -21 -10 -35 -22 -31 -27 4 -6 163 -10 422
-10 l415 0 51 156 c30 92 47 158 41 161 -5 4 -41 -27 -80 -67 -120 -127 -250
-195 -364 -190 -124 6 -145 41 -147 246 -2 92 1 140 8 141 6 1 43 1 81 0 120
-3 218 -47 244 -110 7 -16 19 -32 27 -35 12 -4 14 24 14 174 0 150 -2 180 -14
180 -8 0 -18 -9 -21 -20 -11 -34 -55 -80 -99 -102 -47 -24 -223 -39 -235 -20
-5 8 -7 279 -2 328 2 17 187 9 246 -11 65 -23 139 -71 195 -129 39 -40 70 -58
70 -40 0 5 -28 119 -51 207 l-10 37 -379 0 c-244 0 -381 -4 -385 -10z m129
-70 c18 -30 20 -55 21 -304 1 -375 -10 -439 -85 -479 l-35 -19 27 23 c52 47
53 52 56 389 4 349 1 391 -31 421 l-22 20 25 -9 c14 -5 34 -24 44 -42z"/>
<path d="M6020 6367 c0 -9 9 -19 20 -22 11 -4 28 -21 38 -38 15 -29 17 -67 17
-362 0 -319 -1 -332 -22 -378 -16 -35 -31 -52 -53 -60 -28 -11 -40 -25 -22
-28 4 -1 103 -2 220 -3 160 -2 212 1 212 10 0 7 -14 17 -30 23 -51 17 -62 61
-68 254 l-4 167 53 0 c55 0 108 -23 137 -59 29 -36 84 -162 118 -271 20 -63
40 -117 45 -120 17 -11 322 -5 326 6 2 7 -7 14 -20 18 -52 13 -85 62 -157 238
-43 104 -88 153 -170 183 -55 20 -60 24 -33 24 49 1 150 36 188 66 43 32 63
70 69 129 6 64 -11 111 -60 156 -73 68 -104 73 -476 78 -289 3 -328 2 -328
-11z m139 -106 c5 -20 8 -166 7 -326 -2 -334 -8 -368 -71 -415 -19 -14 -19
-14 -4 5 40 49 44 88 44 425 0 294 -2 329 -17 353 -25 37 -22 44 7 17 14 -13
29 -40 34 -59z m351 47 c80 -25 120 -78 120 -158 0 -104 -82 -165 -227 -169
l-73 -2 0 169 c0 127 3 171 13 175 20 7 129 -3 167 -15z"/>
<path d="M7120 6365 c0 -8 11 -20 25 -27 13 -6 29 -25 35 -42 13 -37 13 -635
0 -692 -11 -48 -40 -87 -71 -94 -13 -3 -24 -12 -24 -20 0 -13 34 -15 213 -15
200 -1 212 0 212 18 0 10 -4 16 -9 13 -17 -11 -61 36 -72 77 -8 27 -12 157
-13 372 -1 298 1 334 16 357 10 15 27 29 38 33 12 4 19 12 17 18 -2 9 -58 13
-185 15 -159 2 -182 0 -182 -13z m124 -70 c14 -29 16 -79 15 -342 -1 -333 -7
-379 -53 -422 l-25 -23 22 43 c21 42 22 58 25 386 3 286 1 347 -11 372 -11 23
-12 28 -2 24 8 -2 21 -20 29 -38z"/>
<path d="M7640 6371 c0 -5 13 -19 30 -31 48 -34 52 -69 48 -424 -3 -303 -4
-323 -24 -361 -15 -28 -30 -42 -52 -49 -33 -9 -41 -21 -19 -28 6 -2 197 -4
422 -4 l410 1 22 65 c56 168 79 250 70 253 -5 1 -50 -38 -101 -88 -128 -126
-245 -182 -360 -170 -67 6 -102 28 -117 72 -16 46 -21 305 -6 314 10 7 74 4
152 -7 48 -6 123 -39 146 -63 9 -10 24 -33 34 -51 10 -20 20 -29 26 -23 14 14
7 345 -8 350 -6 2 -14 -5 -18 -17 -12 -37 -58 -82 -107 -105 -38 -18 -69 -23
-142 -24 l-93 -2 1 173 1 173 98 -2 c151 -3 252 -46 346 -148 42 -46 77 -60
67 -27 -6 21 -56 224 -56 228 0 2 -173 4 -385 4 -231 0 -385 -4 -385 -9z m105
-37 c13 -8 28 -29 34 -46 16 -45 16 -610 0 -672 -12 -48 -56 -106 -81 -106 -7
0 -3 8 11 19 41 32 48 91 49 419 0 301 -5 357 -34 387 -20 19 -10 19 21 -1z"/>
<path d="M8640 6371 c0 -5 13 -23 29 -39 40 -40 43 -70 39 -413 -3 -294 -3
-294 -29 -351 -16 -34 -35 -59 -48 -63 -12 -3 -21 -12 -21 -19 0 -9 70 -11
303 -10 287 1 305 2 367 24 124 44 226 133 271 237 49 114 42 288 -15 401 -52
103 -180 197 -307 226 -75 18 -589 23 -589 7z m118 -59 c15 -23 17 -65 19
-337 2 -286 1 -314 -17 -365 -11 -30 -32 -66 -46 -80 l-26 -25 16 26 c37 59
46 150 43 461 -2 288 -3 297 -24 326 -21 29 -21 30 -2 25 11 -3 28 -17 37 -31z
m385 -6 c69 -20 118 -68 148 -144 20 -51 23 -75 23 -222 1 -137 -2 -174 -18
-220 -43 -126 -112 -190 -209 -196 -64 -3 -114 17 -129 53 -11 28 -23 683 -13
729 4 18 11 20 74 18 38 -1 94 -9 124 -18z"/>
<path d="M9657 6374 c-3 -4 11 -23 32 -44 23 -23 42 -53 48 -78 16 -62 13
-483 -3 -554 -22 -95 -77 -188 -111 -188 -7 0 -13 -8 -13 -18 0 -16 14 -17
160 -17 136 0 160 2 160 15 0 8 -14 23 -30 32 -45 26 -75 82 -96 183 -5 22 -6
497 -1 501 2 2 19 -40 39 -94 126 -336 257 -657 268 -657 8 0 55 103 112 245
55 135 108 263 118 285 9 22 34 83 55 135 21 52 41 98 44 102 4 4 6 -131 5
-300 -2 -349 -6 -376 -64 -404 -73 -37 -49 -43 183 -43 203 0 217 1 217 18 0
10 -4 16 -9 13 -15 -10 -59 33 -73 72 -10 28 -13 121 -13 379 l0 341 24 26
c14 14 30 26 38 26 7 0 13 7 13 15 0 13 -24 15 -158 15 l-158 0 -21 -47 c-12
-27 -60 -145 -108 -263 -48 -118 -90 -220 -94 -227 -3 -7 -61 110 -127 260
l-120 272 -155 3 c-85 1 -158 -1 -162 -4z m171 -34 c2 -8 67 -179 144 -380 77
-201 144 -374 148 -385 4 -11 4 -29 0 -40 -6 -17 -10 -15 -24 20 -21 48 -207
539 -244 644 -16 43 -42 90 -63 115 l-37 42 36 -1 c22 0 37 -6 40 -15z"/>
<path d="M12006 6371 c-3 -5 14 -21 39 -35 34 -20 47 -35 55 -64 5 -21 10
-150 10 -303 0 -222 -3 -276 -17 -320 -23 -74 -57 -125 -101 -148 -12 -6 -22
-15 -22 -19 0 -6 265 -9 318 -3 21 2 13 18 -17 30 -34 15 -72 64 -86 111 -15
52 -18 116 -19 328 -1 138 -1 252 0 252 2 0 158 -172 254 -280 41 -47 98 -109
125 -140 62 -68 56 -61 140 -155 155 -174 160 -178 183 -171 19 7 22 15 23 69
0 34 1 193 3 352 2 250 5 297 20 340 23 63 49 100 86 122 62 36 41 43 -129 43
-88 0 -162 -4 -165 -9 -4 -5 9 -19 28 -31 76 -46 97 -120 100 -339 l2 -154
-261 267 -260 266 -152 0 c-83 0 -154 -4 -157 -9z m174 -81 c32 -36 69 -77 81
-91 50 -54 98 -108 214 -239 66 -74 122 -137 125 -140 3 -3 43 -48 90 -100 47
-52 87 -97 90 -100 65 -68 83 -93 86 -117 3 -28 3 -28 -33 12 -19 22 -103 116
-187 209 -83 93 -158 176 -166 186 -8 9 -44 50 -80 90 -36 40 -72 81 -80 91
-16 17 -152 169 -180 199 -64 70 -61 66 -39 66 13 0 43 -25 79 -66z"/>
<path d="M6760 4868 c-100 -203 -134 -262 -172 -300 -26 -27 -46 -49 -45 -49
1 -1 48 -2 105 -3 73 -1 102 1 102 10 0 6 -11 15 -24 18 -37 9 -47 51 -25 113
31 91 27 88 127 89 l89 1 30 -61 c41 -83 48 -119 28 -140 -9 -9 -21 -16 -27
-16 -6 0 -8 -3 -4 -7 9 -9 286 -11 286 -2 0 3 -17 24 -37 46 -25 26 -84 131
-166 296 -71 142 -132 257 -136 257 -3 0 -63 -114 -131 -252z m183 -72 c47
-101 86 -192 87 -202 4 -36 0 -52 -15 -57 -11 -5 -12 -1 -6 17 6 15 3 38 -9
72 -16 45 -91 210 -158 347 -2 4 1 7 6 7 5 0 48 -83 95 -184z m-76 61 l32 -72
-66 -3 c-36 -2 -67 -1 -69 1 -6 5 58 147 65 147 3 0 20 -33 38 -73z"/>
<path d="M7350 5114 c0 -3 11 -19 25 -35 34 -41 38 -76 32 -257 -6 -176 -16
-220 -65 -269 -18 -18 -29 -34 -25 -34 40 -6 213 -3 213 4 0 5 -12 18 -26 30
-49 38 -57 76 -60 272 -2 159 0 177 12 150 15 -33 154 -388 175 -448 16 -46
25 -38 63 58 15 39 32 79 37 90 4 11 36 88 70 170 33 83 64 153 68 158 12 12
4 -395 -8 -426 -6 -16 -20 -31 -31 -34 -11 -3 -20 -11 -20 -17 0 -17 282 -16
288 2 2 6 -3 12 -12 12 -9 0 -23 12 -33 27 -16 24 -18 55 -19 252 -1 124 2
236 7 248 4 12 17 24 28 28 46 14 5 25 -94 25 l-103 0 -73 -180 c-40 -99 -76
-176 -80 -172 -4 4 -41 84 -83 177 l-75 170 -105 3 c-58 1 -106 -1 -106 -4z
m130 -71 c12 -32 32 -85 45 -118 12 -33 48 -126 79 -207 31 -81 56 -153 56
-160 0 -32 -25 25 -106 241 -49 129 -98 249 -111 268 -21 30 -21 33 -4 33 13
0 25 -17 41 -57z"/>
<path d="M5188 5102 c-16 -3 -61 -149 -51 -165 3 -5 24 11 47 36 49 52 82 74
124 86 57 17 60 3 58 -244 -1 -197 -3 -224 -20 -249 -10 -16 -27 -31 -37 -33
-48 -13 -7 -19 131 -18 141 0 176 5 130 20 -39 12 -44 41 -46 265 -1 118 0
223 3 233 15 54 84 32 171 -53 29 -29 56 -50 58 -47 5 5 -32 157 -41 165 -5 5
-501 9 -527 4z m227 -259 c1 -200 -8 -260 -44 -297 -20 -19 -20 -18 1 24 20
39 22 60 23 244 1 111 -2 212 -7 226 -9 24 -8 24 8 8 16 -16 18 -40 19 -205z"/>
<path d="M5922 5102 l-23 -4 25 -23 26 -24 0 -230 c0 -246 -5 -277 -47 -287
-56 -14 4 -19 259 -19 l270 -1 10 26 c5 14 11 32 13 40 2 8 12 43 23 77 11 34
17 64 15 67 -3 2 -30 -21 -62 -53 -90 -93 -198 -135 -274 -109 -40 15 -47 36
-47 148 l0 102 63 -7 c78 -9 125 -31 146 -67 9 -15 19 -28 24 -28 4 0 7 52 7
115 0 63 -4 115 -8 115 -4 0 -16 -14 -25 -30 -24 -41 -66 -60 -143 -67 l-64
-6 0 117 0 116 74 -4 c86 -5 136 -27 202 -88 25 -23 47 -39 50 -36 6 7 -26
140 -37 152 -7 8 -426 15 -477 8z m73 -280 c0 -206 -2 -229 -19 -252 -13 -18
-16 -19 -10 -5 14 31 17 452 4 489 -10 30 -10 30 7 13 16 -16 18 -40 18 -245z"/>
<path d="M6 4894 c-2 -6 -1 -16 3 -22 5 -9 639 -11 2456 -9 2442 2 2450 2
2450 22 0 20 -7 20 -2452 20 -1764 0 -2454 -3 -2457 -11z"/>
<path d="M8314 4901 c-2 -2 -4 -12 -4 -22 0 -18 91 -19 2456 -18 l2455 0 -3
22 -3 22 -2448 0 c-1347 0 -2451 -2 -2453 -4z"/>
</g>
</svg>
