<?xml version="1.0" standalone="no"?>
<!DOCTYPE svg PUBLIC "-//W3C//DTD SVG 20010904//EN"
 "http://www.w3.org/TR/2001/REC-SVG-20010904/DTD/svg10.dtd">
<svg version="1.0" xmlns="http://www.w3.org/2000/svg"
 width="300.000000pt" height="300.000000pt" viewBox="0 0 300.000000 300.000000"
 preserveAspectRatio="xMidYMid meet">
<metadata>
Created by potrace 1.11, written by Peter Selinger 2001-2013
</metadata>
<g transform="translate(0.000000,300.000000) scale(0.100000,-0.100000)"
fill="#000000" stroke="none">
<path d="M712 2812 c-9 -7 -8 -13 8 -27 11 -10 17 -22 14 -27 -3 -4 -1 -7 4
-6 10 3 33 -20 102 -102 19 -22 58 -65 85 -94 28 -29 84 -90 125 -136 41 -46
86 -95 100 -110 14 -15 52 -57 85 -95 77 -88 109 -123 146 -161 16 -17 29 -37
29 -44 0 -7 3 -11 6 -8 5 6 54 -38 54 -47 0 -3 8 -13 18 -23 9 -10 40 -44 67
-76 49 -56 62 -71 175 -192 118 -126 140 -154 140 -174 0 -12 -13 -35 -30 -53
-16 -18 -30 -35 -30 -39 0 -5 -7 -8 -15 -8 -8 0 -15 -6 -15 -12 0 -7 -25 -39
-55 -72 -30 -32 -55 -62 -55 -67 0 -5 -7 -9 -15 -9 -8 0 -15 -4 -15 -9 0 -4
-15 -24 -32 -44 -135 -148 -169 -185 -210 -228 -27 -27 -48 -52 -48 -55 0 -5
-41 -51 -112 -125 -20 -22 -34 -39 -32 -39 3 0 -18 -22 -46 -50 -27 -27 -50
-54 -50 -60 0 -6 -4 -8 -10 -5 -5 3 -10 1 -10 -4 0 -6 -8 -19 -17 -29 -10 -10
-36 -38 -58 -62 -22 -25 -43 -44 -47 -42 -5 1 -8 -4 -8 -10 0 -7 -20 -32 -45
-55 -24 -24 -41 -43 -37 -43 4 0 -7 -15 -25 -33 -66 -66 -135 -143 -144 -159
-9 -17 12 -18 381 -18 l390 0 48 51 c26 27 70 75 97 106 28 30 69 75 93 100
23 25 42 48 42 53 0 4 13 18 30 31 16 13 30 27 30 31 0 6 44 55 153 169 20 22
44 51 53 65 9 13 23 24 30 24 8 0 14 6 14 13 1 6 28 41 60 77 33 36 60 68 60
73 0 4 7 7 15 7 8 0 14 4 13 8 -2 4 13 26 34 47 89 97 101 111 115 132 8 13
20 20 26 16 5 -3 7 -1 4 4 -8 13 17 36 28 25 5 -4 5 -2 1 5 -3 6 1 18 9 25 23
19 55 53 140 149 16 19 47 53 68 76 l38 42 -28 30 c-27 29 -110 121 -162 179
-13 15 -42 47 -65 72 -22 24 -40 48 -38 52 1 4 -3 7 -10 6 -7 -2 -17 7 -23 20
-5 12 -15 22 -22 22 -7 0 -13 4 -13 9 0 5 -12 23 -27 39 -72 79 -92 105 -87
113 3 5 -2 6 -10 3 -10 -4 -18 1 -22 11 -4 10 -26 36 -48 59 -23 23 -65 69
-94 101 -54 62 -140 159 -180 204 -13 14 -59 65 -103 113 -45 47 -81 88 -81
91 0 3 -23 30 -51 60 -80 83 -104 111 -106 122 -1 6 -12 13 -25 16 -36 10
-759 10 -774 1z"/>
<path d="M373 2023 c-9 -24 6 -43 34 -43 51 0 76 -21 91 -75 29 -107 23 -845
-8 -925 -1 -3 -2 -8 -2 -11 1 -4 -21 -17 -48 -30 -51 -24 -66 -53 -32 -62 27
-8 479 -3 487 5 17 17 -7 46 -43 51 -147 20 -145 14 -140 307 l3 195 105 0
c136 -1 239 -12 266 -30 14 -9 24 -29 28 -59 6 -40 10 -46 32 -46 13 0 24 1
25 3 6 22 10 238 4 272 -5 40 -9 46 -27 43 -15 -2 -25 -15 -32 -40 -18 -64
-41 -72 -201 -76 -77 -1 -155 0 -173 3 l-33 6 5 197 c2 108 6 208 8 222 l3 25
128 1 c129 1 289 -18 295 -36 2 -6 10 -10 17 -10 14 0 23 -19 31 -67 7 -41 26
-57 46 -41 24 19 32 228 9 228 -9 0 -209 1 -445 2 -335 2 -430 0 -433 -9z"/>
</g>
</svg>
