<?xml version="1.0" standalone="no"?>
<!DOCTYPE svg PUBLIC "-//W3C//DTD SVG 20010904//EN"
 "http://www.w3.org/TR/2001/REC-SVG-20010904/DTD/svg10.dtd">
<svg version="1.0" xmlns="http://www.w3.org/2000/svg"
 width="300.000000pt" height="300.000000pt" viewBox="0 0 300.000000 300.000000"
 preserveAspectRatio="xMidYMid meet">
<metadata>
Created by potrace 1.11, written by Peter Selinger 2001-2013
</metadata>
<g transform="translate(0.000000,300.000000) scale(0.100000,-0.100000)"
fill="#000000" stroke="none">
<path d="M2074 2033 l-70 -75 -179 1 c-130 0 -180 3 -186 12 -5 9 -62 13 -211
15 -112 1 -212 3 -223 3 -11 1 -47 26 -81 55 l-61 55 -59 -54 -59 -54 -105 -1
c-58 -1 -145 -2 -194 -3 l-89 -2 -25 -73 c-21 -60 -30 -73 -46 -71 -12 1 -37
1 -57 0 l-36 -1 -87 -210 c-48 -116 -84 -215 -81 -220 3 -4 14 -6 25 -3 16 4
20 0 21 -23 1 -74 -2 -348 -4 -350 -1 -1 -24 -5 -52 -8 -27 -4 -61 -8 -75 -11
-14 -2 -43 -7 -65 -10 -76 -10 -75 -10 -75 -81 l0 -66 88 6 c48 4 119 9 157
12 330 24 549 29 1240 29 699 0 907 -5 1225 -29 36 -3 107 -8 158 -11 52 -4
102 -8 113 -10 17 -4 19 3 19 64 l0 68 -72 12 c-40 6 -91 14 -113 17 -22 3
-58 9 -80 13 l-40 7 0 224 0 225 25 0 c22 0 25 5 26 41 2 40 0 44 -83 120 -47
44 -90 81 -94 82 -5 2 -9 26 -9 53 l0 49 34 0 34 0 -41 63 c-23 34 -45 65 -49
68 -5 3 -57 5 -116 4 -86 -2 -110 1 -122 14 -44 47 -140 131 -147 130 -4 -1
-40 -35 -79 -76z m-1026 -306 l3 -95 -51 0 c-27 -1 -51 2 -51 6 -1 4 -2 44 -3
90 -2 93 1 98 61 96 l38 -1 3 -96z m120 88 c10 -9 9 -148 0 -168 -7 -13 -20
-17 -53 -15 l-45 1 0 97 0 97 46 -3 c26 -2 49 -6 52 -9z m833 -60 c1 -8 1 -26
1 -40 0 -14 0 -29 -1 -33 -1 -5 -20 -6 -43 -3 -42 6 -43 7 -42 41 1 19 2 38 3
43 1 4 19 7 41 7 28 0 40 -4 41 -15z m515 -308 c5 -5 8 -229 5 -279 -1 -3 -29
-5 -63 -5 l-63 2 0 140 c-1 77 3 143 7 146 11 7 106 4 114 -4z m-604 -6 c4 -1
7 -29 5 -63 l-2 -62 -40 0 -40 0 -3 53 c-2 30 -1 59 1 65 4 9 33 12 79 7z
m108 -61 l0 -66 -37 2 c-21 1 -41 3 -45 3 -5 1 -4 126 1 126 0 0 19 0 41 0
l40 0 0 -65z m98 2 c2 -34 -1 -62 -5 -63 -32 -4 -73 -4 -74 1 -6 22 -4 116 2
120 4 3 22 5 41 4 l33 -1 3 -61z m-1072 -113 l1 -129 -46 0 -46 0 0 127 1 128
39 5 c22 3 42 4 45 2 3 -2 5 -62 6 -133z m113 1 l-1 -130 -44 0 -44 0 0 130 0
130 45 0 44 0 0 -130z m-459 -5 l0 -121 -40 -1 c-30 -1 -40 3 -41 16 -5 98 -2
222 6 225 6 2 25 4 43 3 l32 0 0 -122z m108 1 l-3 -121 -40 0 -40 0 -2 110
c-1 61 0 116 2 123 3 8 19 12 45 10 l41 -2 -3 -120z m604 104 c2 -6 2 -30 0
-54 l-4 -43 -44 0 c-24 0 -44 3 -45 6 -4 23 -5 87 -2 94 6 11 91 8 95 -3z
m105 -47 l3 -52 -49 1 -49 0 3 51 c2 29 3 53 4 55 1 2 20 2 43 0 l43 -3 2 -52z
m394 -22 c4 0 7 -26 8 -56 l0 -55 -44 0 -45 0 0 54 c0 61 14 71 81 57z m107
-54 l3 -57 -45 0 -45 0 1 53 c1 28 3 54 4 57 1 3 20 6 41 5 l38 0 3 -58z m100
46 c4 -7 6 -32 4 -58 l-4 -46 -42 3 -41 3 -1 45 c0 25 4 50 8 57 11 14 67 11
76 -4z m-707 -55 c1 -13 0 -27 -1 -33 -1 -5 2 -6 7 -2 4 5 8 18 8 30 0 19 6
22 45 22 l45 0 1 -52 1 -53 -49 0 c-45 0 -49 2 -43 20 4 11 2 20 -4 20 -6 0
-11 -9 -11 -20 0 -17 -7 -20 -45 -20 -25 0 -45 3 -46 8 -4 25 -6 88 -3 93 2 3
24 6 49 7 40 2 45 0 46 -20z"/>
</g>
</svg>
