<?xml version="1.0" standalone="no"?>
<!DOCTYPE svg PUBLIC "-//W3C//DTD SVG 20010904//EN"
 "http://www.w3.org/TR/2001/REC-SVG-20010904/DTD/svg10.dtd">
<svg version="1.0" xmlns="http://www.w3.org/2000/svg"
 width="300.000000pt" height="300.000000pt" viewBox="0 0 300.000000 300.000000"
 preserveAspectRatio="xMidYMid meet">
<metadata>
Created by potrace 1.11, written by Peter Selinger 2001-2013
</metadata>
<g transform="translate(0.000000,300.000000) scale(0.100000,-0.100000)"
fill="#000000" stroke="none">
<path d="M809 1993 c-112 -102 -249 -227 -304 -277 -54 -50 -133 -122 -175
-161 -42 -38 -108 -99 -148 -135 -40 -35 -72 -68 -72 -72 0 -4 22 -8 50 -8 57
0 47 -7 260 189 74 69 162 150 196 180 33 31 134 124 223 206 90 83 167 152
172 153 5 2 48 -32 97 -76 84 -76 89 -80 157 -91 39 -7 130 -24 204 -37 73
-14 135 -23 138 -21 8 9 -292 257 -310 257 -7 0 -5 -5 3 -10 10 -7 -14 -10
-82 -9 l-96 1 -48 49 c-27 27 -51 49 -55 49 -3 0 -98 -84 -210 -187z m371 52
c19 -19 32 -35 29 -35 -3 0 -20 16 -39 35 -19 19 -32 35 -29 35 3 0 20 -16 39
-35z"/>
<path d="M893 1877 c-43 -40 -132 -121 -198 -181 -66 -60 -166 -152 -222 -204
-56 -51 -114 -104 -128 -116 -14 -12 -25 -25 -25 -29 0 -5 24 -7 54 -5 l54 3
272 250 c150 138 276 251 280 253 4 1 128 -112 275 -253 l269 -255 319 2 320
3 2 23 c1 16 -13 33 -52 64 l-54 41 27 28 c20 21 41 30 78 35 48 6 57 13 141
97 50 49 77 80 61 68 l-30 -22 -37 37 -37 36 -79 -6 c-43 -4 -93 -10 -110 -13
-29 -4 -33 -2 -33 16 0 12 6 21 15 21 8 0 15 7 15 15 0 11 -11 15 -39 15 -21
0 -58 3 -83 6 -40 6 -46 4 -51 -15 -3 -14 0 -21 9 -21 10 0 14 -13 14 -48 0
-38 -5 -53 -24 -71 l-25 -23 -45 38 -46 38 -1 71 c-1 38 -4 58 -6 43 -5 -30
-21 -36 -41 -16 -9 9 -12 -7 -12 -75 0 -48 -3 -87 -6 -87 -3 0 -23 14 -45 32
-34 28 -39 36 -39 74 l0 43 -225 3 -224 3 37 -40 c56 -59 10 -22 -114 92 -61
57 -116 103 -122 103 -6 0 -46 -33 -89 -73z"/>
<path d="M2442 1727 l-23 -24 148 -139 c81 -76 166 -156 188 -177 45 -42 65
-50 119 -45 l37 3 -217 200 c-119 110 -220 201 -223 203 -4 1 -17 -8 -29 -21z"/>
<path d="M870 1540 c0 -5 20 -10 45 -10 25 0 45 5 45 10 0 6 -20 10 -45 10
-25 0 -45 -4 -45 -10z"/>
<path d="M995 1540 c-4 -6 13 -10 45 -10 32 0 49 4 45 10 -3 6 -24 10 -45 10
-21 0 -42 -4 -45 -10z"/>
<path d="M2363 1493 c9 -2 25 -2 35 0 9 3 1 5 -18 5 -19 0 -27 -2 -17 -5z"/>
<path d="M2443 1493 c9 -2 23 -2 30 0 6 3 -1 5 -18 5 -16 0 -22 -2 -12 -5z"/>
<path d="M870 1445 l0 -45 45 0 45 0 0 45 0 45 -45 0 -45 0 0 -45z"/>
<path d="M990 1445 l0 -45 50 0 50 0 0 45 0 45 -50 0 -50 0 0 -45z"/>
<path d="M2350 1429 c0 -27 3 -30 28 -27 21 2 28 9 30 31 3 24 0 27 -27 27
-28 0 -31 -3 -31 -31z"/>
<path d="M2430 1429 c0 -27 3 -30 28 -27 21 2 28 9 30 31 3 24 0 27 -27 27
-28 0 -31 -3 -31 -31z"/>
<path d="M103 1288 c6 -19 2798 -19 2805 0 3 9 -282 12 -1403 12 -1121 0
-1406 -3 -1402 -12z"/>
<path d="M389 1199 c-14 -14 -19 -30 -17 -57 3 -39 5 -41 113 -89 30 -14 41
-25 43 -45 4 -30 -28 -58 -66 -58 -25 0 -82 52 -82 75 0 8 -4 17 -10 20 -6 4
-10 -16 -10 -52 1 -52 2 -56 15 -39 13 17 15 17 37 2 36 -26 85 -20 119 13 52
53 31 111 -51 135 -26 8 -58 19 -69 26 -28 14 -27 55 1 74 12 9 17 16 10 16
-6 0 -21 -9 -33 -21z"/>
<path d="M489 1204 c13 -9 29 -31 37 -48 l13 -31 0 50 c1 35 -2 46 -9 35 -8
-12 -13 -13 -30 -2 -29 18 -38 15 -11 -4z"/>
<path d="M848 1194 c-9 -16 -32 -73 -53 -127 -21 -54 -44 -101 -51 -104 -27
-10 -13 -18 31 -18 50 -1 55 4 25 22 -16 11 -18 17 -9 43 10 28 14 30 60 30
47 0 49 -2 64 -36 19 -45 19 -44 -5 -44 -11 0 -20 -4 -20 -8 0 -4 25 -8 55 -8
54 0 72 9 38 18 -12 3 -31 40 -56 109 -21 57 -44 115 -51 128 l-14 25 -14 -30z
m30 -84 l21 -60 -44 0 c-25 0 -45 3 -45 7 0 16 34 113 40 113 3 0 16 -27 28
-60z"/>
<path d="M1178 1213 c22 -4 23 -6 20 -126 -3 -120 -3 -121 -28 -127 -46 -11
-6 -18 85 -15 101 3 143 17 152 52 8 34 -12 71 -42 79 -31 8 -32 16 -3 29 44
19 35 87 -14 104 -17 6 -34 9 -36 6 -3 -3 0 -5 6 -5 32 0 53 -57 33 -88 -10
-16 -74 -32 -101 -25 -17 4 -20 14 -20 59 0 50 1 53 28 57 15 2 -2 4 -38 4
-36 0 -55 -2 -42 -4z m172 -153 c24 -24 26 -57 3 -82 -12 -13 -30 -18 -70 -18
l-53 0 0 60 0 60 50 0 c37 0 55 -5 70 -20z"/>
<path d="M1680 1174 c-12 -27 -35 -84 -52 -127 -16 -43 -36 -81 -44 -84 -27
-10 -14 -18 31 -18 45 0 58 8 30 19 -16 6 -20 33 -9 60 4 12 20 16 56 16 47 0
50 -2 64 -35 18 -44 18 -45 -6 -45 -11 0 -20 -4 -20 -8 0 -4 25 -8 55 -8 30 1
55 4 55 9 0 4 -6 7 -14 7 -8 0 -32 48 -61 123 -26 67 -51 126 -56 131 -5 5
-17 -12 -29 -40z m18 -122 c-22 -2 -42 -1 -44 1 -4 3 13 57 32 107 4 9 15 -7
29 -45 l23 -60 -40 -3z"/>
<path d="M1996 1204 c-3 -9 -6 -32 -5 -52 l1 -37 10 30 c14 38 27 55 53 65 16
7 13 9 -16 9 -25 1 -39 -4 -43 -15z"/>
<path d="M2088 1212 c9 -7 12 -39 10 -128 -3 -115 -4 -119 -25 -122 -49 -7
-20 -22 42 -22 37 0 65 4 65 10 0 6 -11 10 -25 10 l-25 0 0 124 c0 90 3 126
13 129 6 3 -6 6 -28 6 -24 0 -35 -3 -27 -7z"/>
<path d="M2178 1210 c12 -5 32 -29 43 -52 l19 -43 -5 40 c-2 22 -5 46 -5 53 0
7 -14 12 -37 11 -33 0 -35 -1 -15 -9z"/>
<path d="M2463 1200 c-84 -51 -83 -187 2 -240 63 -39 146 -17 183 49 39 69 21
154 -40 191 -46 28 -51 25 -18 -8 33 -33 45 -83 36 -146 -11 -72 -66 -111
-124 -87 -38 16 -53 44 -59 111 -6 65 14 121 50 138 12 6 18 11 12 11 -5 1
-24 -8 -42 -19z"/>
<path d="M1273 860 c0 -25 2 -35 4 -22 2 12 2 32 0 45 -2 12 -4 2 -4 -23z"/>
<path d="M1943 865 c0 -22 2 -30 4 -17 2 12 2 30 0 40 -3 9 -5 -1 -4 -23z"/>
<path d="M1152 865 c0 -16 2 -22 5 -12 2 9 2 23 0 30 -3 6 -5 -1 -5 -18z"/>
<path d="M1082 860 c0 -14 2 -19 5 -12 2 6 2 18 0 25 -3 6 -5 1 -5 -13z"/>
<path d="M278 863 c100 -2 264 -2 365 0 100 1 18 2 -183 2 -201 0 -283 -1
-182 -2z"/>
<path d="M2368 863 c101 -2 263 -2 360 0 97 1 15 2 -183 2 -198 0 -278 -1
-177 -2z"/>
<path d="M1040 841 c0 -6 4 -13 10 -16 6 -3 7 1 4 9 -7 18 -14 21 -14 7z"/>
<path d="M1400 841 c0 -6 4 -13 10 -16 6 -3 7 1 4 9 -7 18 -14 21 -14 7z"/>
</g>
</svg>
