<?xml version="1.0" standalone="no"?>
<!DOCTYPE svg PUBLIC "-//W3C//DTD SVG 20010904//EN"
 "http://www.w3.org/TR/2001/REC-SVG-20010904/DTD/svg10.dtd">
<svg version="1.0" xmlns="http://www.w3.org/2000/svg"
 width="300.000000pt" height="300.000000pt" viewBox="0 0 300.000000 300.000000"
 preserveAspectRatio="xMidYMid meet">
<metadata>
Created by potrace 1.11, written by Peter Selinger 2001-2013
</metadata>
<g transform="translate(0.000000,300.000000) scale(0.100000,-0.100000)"
fill="#000000" stroke="none">
<path d="M1859 2906 c-8 -6 -41 -45 -74 -86 -86 -109 -115 -140 -270 -295
-161 -161 -183 -182 -321 -292 -140 -114 -306 -231 -459 -324 -71 -44 -137
-84 -145 -89 -48 -31 -242 -122 -247 -116 -10 9 102 227 195 381 122 202 283
440 429 634 65 87 78 125 44 134 -39 10 -113 -59 -233 -218 -91 -120 -270
-400 -355 -552 -14 -27 -46 -83 -69 -125 -66 -117 -186 -368 -239 -503 -89
-223 -136 -433 -105 -470 14 -17 38 -19 59 -6 11 7 73 188 86 251 2 12 54 145
92 238 4 8 23 -4 57 -36 95 -90 194 -145 320 -179 78 -20 258 -24 356 -6 175
32 416 128 570 227 69 45 71 47 68 83 -2 28 -9 41 -26 49 -21 10 -42 2 -185
-70 -457 -233 -815 -241 -1029 -24 -49 48 -59 68 -35 68 20 0 351 167 451 227
414 252 787 582 1042 924 41 55 75 107 75 115 1 8 2 21 2 29 0 8 -1 19 -2 24
-2 14 -36 19 -52 7z"/>
<path d="M2150 1753 c-14 -6 -174 -134 -195 -157 -5 -6 -26 -24 -45 -40 -288
-236 -758 -721 -1036 -1071 -88 -110 -223 -302 -235 -333 -17 -45 26 -81 69
-58 11 6 55 52 97 101 100 117 179 208 235 270 25 27 50 55 55 61 16 18 151
166 180 199 171 188 486 512 579 596 l49 44 -25 -41 c-69 -109 -154 -302 -211
-476 -119 -362 -83 -551 88 -468 44 21 53 29 249 214 71 66 153 143 182 170
62 56 227 186 231 182 2 -2 -10 -36 -27 -76 -102 -248 -118 -435 -46 -547 60
-95 136 -134 268 -138 137 -5 309 38 357 89 29 31 40 103 18 112 -8 3 -58 -8
-110 -25 -53 -17 -111 -33 -129 -36 -18 -3 -46 -8 -62 -11 -103 -22 -209 9
-252 73 -54 81 -6 310 117 554 45 91 40 149 -15 179 -36 19 -112 0 -174 -42
-83 -56 -272 -212 -362 -298 -9 -8 -63 -58 -120 -110 -57 -52 -116 -107 -132
-123 -16 -15 -30 -27 -32 -27 -6 0 16 118 35 189 55 197 239 577 420 867 44
71 55 118 36 154 -13 26 -31 33 -57 23z"/>
</g>
</svg>
