<?xml version="1.0" standalone="no"?>
<!DOCTYPE svg PUBLIC "-//W3C//DTD SVG 20010904//EN"
 "http://www.w3.org/TR/2001/REC-SVG-20010904/DTD/svg10.dtd">
<svg version="1.0" xmlns="http://www.w3.org/2000/svg"
 width="300.000000pt" height="300.000000pt" viewBox="0 0 300.000000 300.000000"
 preserveAspectRatio="xMidYMid meet">
<metadata>
Created by potrace 1.11, written by Peter Selinger 2001-2013
</metadata>
<g transform="translate(0.000000,300.000000) scale(0.100000,-0.100000)"
fill="#000000" stroke="none">
<path d="M555 2091 c3 -5 -4 -12 -14 -16 -12 -3 -18 -12 -15 -20 3 -7 -2 -15
-12 -17 -15 -3 -18 -16 -18 -113 l-1 -110 -57 -3 -58 -3 0 -192 0 -192 168 0
167 0 3 308 c2 219 -1 306 -9 302 -6 -4 -13 2 -16 13 -3 11 -12 23 -20 26 -8
3 -11 10 -8 16 4 6 -16 10 -55 10 -35 0 -59 -4 -55 -9z"/>
<path d="M318 1977 l-36 -32 1 -260 2 -260 39 1 40 0 0 277 c1 153 -1 284 -4
292 -4 11 -14 6 -42 -18z"/>
<path d="M739 1927 c-1 -1 -2 -113 -3 -249 -1 -160 2 -249 9 -251 9 -3 177 -2
215 2 13 1 15 18 14 104 -1 56 -2 105 -3 110 -1 4 -22 7 -49 7 l-47 0 1 111
c0 93 -2 112 -16 119 -24 13 -120 50 -121 47z"/>
<path d="M2642 1747 c-84 -25 -169 -147 -194 -280 -14 -74 -30 -85 -68 -47
-11 11 -33 20 -48 20 -16 0 -37 -9 -47 -20 -10 -11 -26 -20 -36 -20 -10 0 -21
9 -24 20 -3 11 -15 20 -25 20 -11 0 -24 -9 -30 -20 -11 -20 -21 -20 -1050 -20
l-1039 0 -21 -22 c-25 -27 -26 -59 -1 -89 19 -23 22 -24 204 -24 102 0 188 -3
191 -6 3 -3 0 -6 -7 -6 -53 0 -282 -93 -341 -138 -30 -23 -34 -30 -22 -37 16
-9 28 -5 136 45 105 48 179 74 294 104 85 22 125 27 251 28 83 1 166 -2 185
-5 l35 -7 -45 -2 c-25 -1 -58 -4 -75 -6 -16 -2 -55 -7 -85 -10 -131 -15 -403
-85 -429 -111 -13 -12 -9 -13 25 -9 21 2 50 8 64 13 14 5 30 10 35 11 6 1 27
6 47 11 73 20 125 25 263 25 144 -1 181 -5 275 -33 64 -18 94 -22 110 -12 20
12 -181 80 -237 80 -12 0 -24 4 -27 9 -5 8 70 6 154 -5 25 -3 46 -6 47 -6 10
2 136 -39 161 -52 34 -17 52 -20 52 -8 -1 13 -81 66 -148 97 l-64 31 168 -1
c161 0 169 -1 191 -22 28 -28 37 -29 64 -2 29 29 60 29 83 1 20 -25 51 -23 74
6 11 15 41 17 235 18 l222 0 28 -25 29 -26 20 25 c23 28 41 28 71 -1 28 -25
44 -24 89 8 23 15 42 22 47 17 4 -5 13 -36 20 -68 50 -260 252 -368 391 -210
149 170 143 546 -11 702 -57 58 -121 78 -187 59z m157 -112 c25 -24 26 -30 22
-113 -6 -139 -5 -281 3 -367 8 -91 -2 -122 -47 -143 -41 -20 -141 -17 -177 5
-46 27 -52 61 -35 203 9 75 8 131 -1 225 -4 44 -8 99 -7 123 1 74 50 104 157
97 48 -4 65 -10 85 -30z"/>
</g>
</svg>
