<?xml version="1.0" standalone="no"?>
<!DOCTYPE svg PUBLIC "-//W3C//DTD SVG 20010904//EN"
 "http://www.w3.org/TR/2001/REC-SVG-20010904/DTD/svg10.dtd">
<svg version="1.0" xmlns="http://www.w3.org/2000/svg"
 width="300.000000pt" height="300.000000pt" viewBox="0 0 300.000000 300.000000"
 preserveAspectRatio="xMidYMid meet">
<metadata>
Created by potrace 1.11, written by Peter Selinger 2001-2013
</metadata>
<g transform="translate(0.000000,300.000000) scale(0.100000,-0.100000)"
fill="#000000" stroke="none">
<path d="M1350 1914 c-67 -18 -130 -54 -164 -94 -54 -64 -66 -181 -28 -257 35
-68 81 -97 227 -147 99 -34 140 -72 131 -120 -11 -53 -38 -71 -109 -71 -64 1
-120 22 -163 63 l-22 21 -66 -69 -66 -68 35 -26 c19 -15 61 -39 93 -54 52 -24
68 -26 182 -27 116 0 128 2 175 27 28 14 62 39 77 55 68 71 89 193 48 278 -36
74 -98 112 -280 172 -62 20 -90 52 -81 95 15 78 155 91 235 21 l25 -22 65 67
64 66 -39 29 c-86 64 -230 89 -339 61z"/>
<path d="M384 1896 c-2 -6 -3 -193 -2 -416 l3 -405 180 1 c261 1 315 12 386
72 116 99 97 282 -33 343 l-49 23 40 25 c80 51 106 154 62 244 -47 98 -113
119 -379 122 -142 1 -205 -1 -208 -9z m382 -170 c49 -33 39 -113 -18 -137 -17
-7 -63 -13 -102 -13 l-71 -1 -1 80 c0 44 1 83 2 86 7 13 166 0 190 -15z m5
-313 c46 -18 65 -61 49 -109 -16 -46 -44 -58 -151 -62 l-95 -4 1 83 c1 46 3
89 3 95 3 18 148 15 193 -3z"/>
<path d="M1856 1900 c-2 -3 -3 -189 -2 -415 l1 -410 100 0 100 0 1 165 c1 91
2 170 3 175 1 8 231 12 307 6 9 -1 11 -49 10 -167 0 -101 3 -168 9 -172 6 -4
52 -7 103 -7 l92 0 0 415 0 416 -102 -1 -101 0 -1 -155 -1 -155 -160 0 -160 0
0 155 0 155 -98 0 c-54 1 -100 -2 -101 -5z"/>
</g>
</svg>
