<?xml version="1.0" standalone="no"?>
<!DOCTYPE svg PUBLIC "-//W3C//DTD SVG 20010904//EN"
 "http://www.w3.org/TR/2001/REC-SVG-20010904/DTD/svg10.dtd">
<svg version="1.0" xmlns="http://www.w3.org/2000/svg"
 width="300.000000pt" height="300.000000pt" viewBox="0 0 300.000000 300.000000"
 preserveAspectRatio="xMidYMid meet">
<metadata>
Created by potrace 1.11, written by Peter Selinger 2001-2013
</metadata>
<g transform="translate(0.000000,300.000000) scale(0.100000,-0.100000)"
fill="#000000" stroke="none">
<path d="M1295 2151 c-99 -38 -241 -92 -315 -121 -74 -29 -141 -52 -147 -53
-7 0 -13 -4 -13 -9 0 -4 -3 -7 -7 -6 -7 2 -107 -33 -178 -63 -11 -4 -87 -33
-170 -64 -82 -31 -212 -81 -288 -111 -76 -30 -145 -54 -153 -54 -8 0 -14 -4
-14 -8 0 -5 424 -9 943 -10 518 0 944 -2 947 -3 3 -1 10 0 15 1 6 1 244 2 529
2 504 1 518 2 480 19 -21 10 -165 65 -319 124 -154 58 -293 111 -310 118 -16
6 -32 12 -35 12 -3 0 -41 15 -85 32 -120 48 -139 56 -150 59 -16 4 -148 54
-170 64 -11 5 -58 23 -105 41 -47 17 -124 46 -172 65 -49 19 -91 34 -95 34 -5
-1 -89 -32 -188 -69z"/>
<path d="M2895 1140 c-3 -5 -1 -10 4 -10 6 0 11 5 11 10 0 6 -2 10 -4 10 -3 0
-8 -4 -11 -10z"/>
<path d="M2800 1109 c-102 -37 -476 -129 -585 -144 -16 -3 -61 -11 -100 -19
-38 -8 -90 -17 -115 -20 -25 -3 -54 -8 -66 -10 -12 -2 -45 -7 -75 -11 -30 -3
-65 -8 -79 -10 -14 -2 -50 -7 -80 -9 -30 -3 -75 -8 -100 -10 -133 -15 -198
-20 -395 -31 -216 -14 -776 -3 -1005 19 -30 3 -88 8 -127 11 l-73 6 0 -55 0
-54 63 -4 c73 -5 899 0 972 6 48 4 143 12 250 21 28 3 70 7 95 11 86 10 105
13 175 19 39 4 79 9 90 12 11 2 34 6 50 8 17 2 44 6 60 9 17 3 48 8 70 11 22
3 64 10 93 16 29 6 67 13 85 15 68 10 85 13 181 34 54 12 108 24 120 26 11 3
35 8 51 11 17 3 38 9 48 14 9 5 17 8 17 5 0 -2 30 4 68 15 37 11 76 22 87 24
34 8 269 86 285 96 25 14 -1 9 -60 -12z"/>
</g>
</svg>
