<?xml version="1.0" standalone="no"?>
<!DOCTYPE svg PUBLIC "-//W3C//DTD SVG 20010904//EN"
 "http://www.w3.org/TR/2001/REC-SVG-20010904/DTD/svg10.dtd">
<svg version="1.0" xmlns="http://www.w3.org/2000/svg"
 width="455.000000pt" height="455.000000pt" viewBox="0 0 455.000000 455.000000"
 preserveAspectRatio="xMidYMid meet">
<metadata>
Created by potrace 1.11, written by Peter Selinger 2001-2013
</metadata>
<g transform="translate(0.000000,455.000000) scale(0.100000,-0.100000)"
fill="#000000" stroke="none">
<path d="M2735 3422 c-6 -4 -28 -14 -50 -21 -22 -7 -53 -19 -70 -27 -16 -7
-120 -47 -230 -89 -110 -42 -245 -94 -300 -115 -55 -22 -161 -62 -235 -90 -74
-29 -174 -67 -222 -86 -49 -19 -92 -34 -97 -34 -5 0 -22 -7 -38 -15 -15 -8
-93 -40 -173 -70 -184 -71 -213 -99 -168 -164 23 -33 58 -31 159 9 46 18 111
43 144 55 33 12 119 45 190 73 72 28 173 67 225 87 52 20 145 56 205 79 61 24
155 60 210 81 106 40 282 108 404 156 40 16 78 29 84 29 5 0 69 -23 141 -51
232 -91 398 -155 526 -204 69 -26 175 -67 235 -90 61 -24 147 -57 192 -74 45
-17 97 -38 116 -47 l33 -16 -1 -325 c0 -313 1 -326 20 -339 15 -11 70 -14 252
-14 l233 0 0 70 0 70 -189 0 -189 0 0 210 c1 186 3 210 17 211 9 0 60 2 113 3
109 3 138 17 138 66 0 49 -29 67 -210 136 -96 37 -227 87 -290 111 -63 24
-144 56 -180 69 -36 14 -87 34 -115 44 -27 10 -115 44 -195 75 -80 32 -179 70
-220 86 -41 15 -133 51 -205 79 -197 78 -240 90 -260 72z"/>
<path d="M20 2187 l0 -74 759 1 c732 1 760 2 780 20 28 25 29 85 1 109 -19 16
-76 17 -780 17 l-760 0 0 -73z"/>
<path d="M331 1583 c-37 -18 -61 -59 -61 -103 0 -58 28 -91 122 -143 64 -36
84 -63 74 -101 -13 -51 -67 -63 -169 -40 -27 6 -28 5 -25 -21 2 -23 10 -30 48
-41 80 -24 166 1 195 56 19 37 19 93 1 129 -13 25 -84 81 -104 81 -17 0 -82
62 -82 79 0 35 39 63 90 63 3 1 24 -2 48 -6 42 -6 42 -6 42 24 0 33 2 32 -86
36 -39 1 -72 -3 -93 -13z"/>
<path d="M2884 1585 c-3 -6 -3 -109 -2 -230 3 -212 4 -220 23 -220 19 0 20 8
23 103 l3 102 38 0 c47 0 58 -12 101 -115 36 -84 44 -95 73 -95 21 0 22 21 3
63 -58 131 -77 167 -88 167 -7 0 1 9 19 20 40 24 53 48 53 100 0 33 -6 48 -29
71 -16 16 -37 29 -45 29 -9 0 -16 3 -16 8 0 11 -152 9 -156 -3z m169 -57 c9
-7 19 -27 23 -44 9 -48 -27 -83 -93 -91 l-53 -6 0 70 c0 38 3 73 7 76 11 12
98 8 116 -5z"/>
<path d="M1100 1565 c0 -24 2 -25 65 -25 l65 0 2 -202 3 -203 25 0 25 0 0 197
c0 108 3 200 8 204 4 4 34 6 67 5 58 -2 60 -2 60 23 l0 26 -160 0 -160 0 0
-25z"/>
<path d="M2010 1360 l0 -230 120 0 120 0 0 25 c0 25 -1 25 -90 25 l-90 0 0 80
0 80 80 0 c79 0 80 0 80 25 0 25 -1 25 -80 25 l-80 0 0 75 0 75 85 0 c84 0 85
0 85 25 l0 25 -115 0 -115 0 0 -230z"/>
<path d="M3772 1363 c3 -227 3 -228 25 -231 23 -3 23 -3 25 180 l3 183 63
-103 c34 -57 62 -105 62 -107 0 -2 21 -38 46 -80 40 -66 49 -75 75 -75 22 0
30 6 34 23 3 12 4 114 2 227 l-2 205 -27 3 -28 3 -2 -183 -3 -183 -104 183
c-103 179 -105 182 -138 182 l-33 0 2 -227z"/>
</g>
</svg>
