<?xml version="1.0" standalone="no"?>
<!DOCTYPE svg PUBLIC "-//W3C//DTD SVG 20010904//EN"
 "http://www.w3.org/TR/2001/REC-SVG-20010904/DTD/svg10.dtd">
<svg version="1.0" xmlns="http://www.w3.org/2000/svg"
 width="300.000000pt" height="300.000000pt" viewBox="0 0 300.000000 300.000000"
 preserveAspectRatio="xMidYMid meet">
<metadata>
Created by potrace 1.11, written by Peter Selinger 2001-2013
</metadata>
<g transform="translate(0.000000,300.000000) scale(0.100000,-0.100000)"
fill="#000000" stroke="none">
<path d="M1703 2299 c-5 -4 -35 -9 -68 -13 -33 -3 -71 -8 -85 -11 -39 -7 -73
-15 -100 -21 -14 -3 -39 -7 -57 -8 -18 -2 -38 -8 -46 -14 -8 -7 -17 -9 -20 -6
-3 3 -28 -1 -55 -10 -27 -9 -57 -18 -68 -20 -10 -2 -31 -9 -46 -15 -16 -6 -28
-8 -28 -5 0 2 -10 -1 -22 -8 -13 -7 -28 -11 -34 -10 -6 1 -41 -9 -79 -23 -37
-13 -73 -22 -78 -18 -6 3 -7 1 -3 -5 5 -8 -2 -12 -18 -12 -14 0 -26 -4 -26
-10 0 -5 -7 -10 -16 -10 -8 0 -40 -11 -70 -25 -30 -14 -57 -25 -61 -25 -12 0
-152 -71 -158 -80 -3 -5 -12 -7 -20 -4 -8 4 -18 -1 -21 -10 -3 -9 -11 -16 -18
-16 -16 0 -139 -80 -149 -96 -5 -8 -13 -11 -19 -8 -7 4 -8 2 -4 -4 4 -7 2 -12
-4 -12 -6 0 -9 -4 -5 -9 3 -5 1 -12 -5 -16 -11 -7 -9 -27 8 -68 7 -16 16 -26
21 -22 5 3 12 1 15 -4 3 -5 23 6 43 25 20 19 41 34 45 34 5 0 18 9 30 20 12
10 24 17 28 15 4 -3 13 2 20 10 7 8 19 15 26 15 8 0 14 4 14 9 0 5 10 13 23
17 12 3 30 13 39 22 10 8 18 12 18 8 0 -4 7 -1 15 6 29 26 45 38 47 37 6 -4
93 44 100 55 4 6 8 8 8 4 0 -4 32 8 72 27 40 18 77 31 82 29 11 -4 15 -51 19
-226 1 -49 5 -88 8 -88 3 0 7 -17 7 -37 4 -136 7 -169 15 -174 5 -4 6 -13 1
-20 -9 -14 -12 -119 -4 -119 3 0 6 -44 7 -98 5 -211 25 -249 94 -184 26 24 29
32 21 53 -7 16 -6 31 0 43 6 11 7 16 1 13 -6 -4 -10 18 -10 56 0 34 -3 125 -7
202 -4 77 -8 198 -10 268 -2 70 -6 131 -10 134 -3 3 -1 12 5 20 6 7 8 13 3 13
-5 0 -10 32 -11 71 -2 38 -5 81 -7 95 -5 25 19 58 35 49 5 -4 9 -1 9 5 0 7 7
10 15 6 8 -3 15 -2 15 3 0 5 12 13 28 19 15 6 36 14 47 18 11 4 23 8 27 8 3 1
10 4 14 9 4 4 18 7 31 7 13 0 23 6 23 13 0 9 3 8 9 -2 6 -9 10 -10 12 -2 3 7
13 14 24 16 11 2 20 4 20 5 0 2 38 11 53 12 6 1 12 6 12 11 0 5 6 7 14 4 8 -3
17 -3 21 1 4 4 11 8 16 8 5 1 11 3 14 4 3 1 10 4 15 5 6 1 11 3 13 5 4 3 41
10 69 13 16 1 28 6 28 11 0 4 7 6 15 3 8 -4 17 -3 19 2 3 4 18 7 33 6 15 -1
34 2 41 8 8 6 12 6 12 -1 0 -5 9 -8 19 -5 12 3 17 11 14 19 -4 11 -19 14 -54
13 -27 -2 -52 -6 -56 -10z"/>
<path d="M2300 2145 c0 -5 -21 -11 -48 -11 -26 -1 -67 -5 -92 -9 -25 -3 -56
-7 -70 -8 -14 -2 -31 -6 -37 -10 -8 -5 -13 -3 -13 5 0 9 -3 9 -8 2 -4 -6 -14
-12 -22 -13 -8 0 -28 -3 -45 -6 -16 -2 -48 -6 -70 -9 -52 -8 -137 -27 -150
-35 -5 -3 -18 -6 -27 -7 -10 -1 -19 -2 -20 -4 -2 -1 -11 -3 -21 -5 -10 -2 -26
-7 -35 -11 -20 -8 -41 -15 -62 -18 -9 -1 -26 -9 -39 -18 -13 -9 -31 -15 -41
-13 -17 3 -29 -12 -36 -44 -1 -8 6 -22 17 -32 21 -19 39 -16 112 15 20 9 37
14 37 12 0 -3 12 1 27 9 15 8 30 12 35 9 4 -3 8 0 8 6 0 6 4 9 10 5 5 -3 17
-1 27 4 40 21 126 41 137 32 11 -9 14 -134 19 -688 1 -95 5 -173 9 -173 3 0 5
-8 3 -17 -2 -10 -4 -18 -5 -18 -1 0 -3 -43 -5 -95 -6 -140 -12 -200 -20 -208
-5 -4 -5 0 0 8 5 8 4 12 0 7 -5 -4 -10 -17 -12 -29 -6 -39 -51 -105 -83 -120
-62 -30 -159 -2 -209 61 -35 44 -76 129 -73 149 2 6 -1 12 -6 12 -5 0 -8 10
-7 23 1 12 -2 30 -7 39 -5 10 -9 34 -10 53 -1 19 -4 35 -7 35 -4 0 -6 12 -5
28 1 15 -3 35 -8 45 -6 11 -5 17 2 17 6 0 8 5 4 12 -4 7 -8 30 -8 53 -1 22 -4
45 -7 50 -3 6 -4 20 -4 32 2 15 -3 21 -16 20 -10 -1 -17 -3 -15 -5 2 -1 0 -19
-4 -38 -4 -18 -4 -34 0 -34 5 0 6 -12 4 -27 -8 -40 -7 -51 1 -113 5 -30 9 -65
9 -77 1 -13 4 -23 8 -23 4 0 7 -8 7 -17 -1 -27 7 -65 19 -93 5 -14 8 -28 6
-31 -2 -4 3 -9 11 -13 8 -3 12 -12 9 -21 -3 -8 -1 -15 5 -15 6 0 11 -9 11 -21
0 -11 5 -17 10 -14 6 3 10 -2 10 -12 0 -25 87 -116 128 -134 17 -8 32 -18 32
-22 0 -5 4 -6 9 -2 5 3 12 1 15 -3 7 -12 78 -5 114 11 39 17 102 68 102 83 0
7 8 18 18 23 9 6 13 11 8 11 -4 0 -1 11 8 25 9 14 14 25 11 25 -3 0 -1 9 5 21
18 32 31 101 34 166 0 24 4 43 7 43 8 0 5 33 -5 48 -4 6 -3 12 1 12 11 0 10
81 -1 98 -4 7 -3 12 2 12 10 0 9 30 -2 48 -4 6 -4 12 1 12 4 0 8 41 8 90 0 50
-4 90 -8 90 -5 0 -5 6 0 13 10 17 10 207 -1 207 -5 0 -4 6 1 13 10 14 9 118
-1 136 -4 6 -2 11 5 11 8 0 8 4 2 13 -6 6 -10 65 -10 130 -1 101 1 117 16 118
23 2 34 4 51 12 8 3 40 11 70 16 30 6 65 12 78 15 13 3 45 6 73 7 27 2 49 6
49 10 0 3 12 7 28 7 15 -1 70 3 122 7 127 9 174 10 188 1 8 -5 10 -2 6 8 -6
15 -25 19 -96 20 -16 0 -28 3 -28 8 0 4 -12 3 -27 -3 -20 -7 -29 -7 -31 1 -3
8 -8 8 -18 -1 -11 -9 -14 -8 -14 2 0 10 -3 10 -12 1 -6 -6 -18 -8 -27 -3 -14
7 -72 8 -78 1 -8 -7 -29 -4 -35 5 -5 6 -8 6 -8 0z"/>
</g>
</svg>
