<?xml version="1.0" standalone="no"?>
<!DOCTYPE svg PUBLIC "-//W3C//DTD SVG 20010904//EN"
 "http://www.w3.org/TR/2001/REC-SVG-20010904/DTD/svg10.dtd">
<svg version="1.0" xmlns="http://www.w3.org/2000/svg"
 width="260.000000pt" height="260.000000pt" viewBox="0 0 260.000000 260.000000"
 preserveAspectRatio="xMidYMid meet">
<metadata>
Created by potrace 1.11, written by Peter Selinger 2001-2013
</metadata>
<g transform="translate(0.000000,260.000000) scale(0.100000,-0.100000)"
fill="#000000" stroke="none">
<path d="M1184 2419 c-2 -4 -17 -5 -34 -4 -16 1 -30 -1 -30 -6 0 -4 -9 -6 -20
-4 -11 2 -20 -1 -20 -6 0 -6 -4 -8 -9 -4 -5 3 -13 1 -16 -5 -5 -8 -11 -7 -21
1 -9 7 -14 8 -13 3 4 -21 -2 -35 -11 -29 -5 3 -10 1 -10 -6 0 -7 -3 -10 -6 -6
-17 17 -103 -113 -107 -162 -1 -17 -4 -31 -7 -31 -3 0 -7 -11 -8 -24 -2 -24 0
-25 56 -20 l57 5 -35 -22 c-55 -34 -86 -84 -76 -122 5 -21 11 -24 46 -22 22 1
40 -1 40 -4 0 -3 -14 -15 -31 -26 -46 -30 -57 -60 -55 -150 l1 -80 63 -1 c34
-1 62 1 62 5 0 3 10 7 23 8 12 1 36 3 52 5 31 3 58 -18 47 -37 -3 -5 -7 -23
-9 -40 -6 -55 -30 -144 -43 -160 -5 -5 -9 -13 -9 -17 -2 -9 -9 -32 -18 -55 -3
-10 -7 -24 -9 -32 -1 -8 -6 -17 -11 -20 -7 -5 -12 -23 -15 -58 -1 -7 -5 -13
-10 -13 -4 0 -8 -13 -8 -28 0 -15 -5 -33 -12 -40 -7 -7 -8 -12 -4 -12 5 0 3
-7 -4 -15 -7 -8 -9 -15 -6 -15 4 0 2 -9 -3 -19 -8 -15 -19 -18 -48 -15 -21 2
-63 6 -93 9 -70 6 -102 12 -109 23 -3 4 -13 7 -21 7 -8 0 -22 7 -31 17 -9 10
-21 18 -28 18 -6 0 -11 9 -11 20 0 11 -4 20 -10 20 -5 0 -9 3 -8 8 2 12 -14
66 -25 80 -5 6 -6 12 -2 12 4 0 3 6 -3 13 -6 7 -18 35 -27 62 -9 28 -19 57
-22 65 -3 8 -7 24 -9 35 -1 11 -7 43 -12 72 -6 35 -5 56 2 63 9 9 -4 15 -27
11 -5 -1 -6 3 -2 9 3 6 10 8 15 5 11 -7 19 52 8 63 -5 5 -2 14 6 21 8 7 12 19
9 27 -4 10 2 14 20 14 59 0 56 101 -6 193 -10 15 -16 27 -13 27 3 0 -2 9 -11
20 -10 11 -20 20 -23 20 -4 0 -7 -24 -9 -52 -5 -90 -6 -96 -13 -91 -8 4 -9 0
-12 -34 -1 -10 -5 -23 -9 -30 -4 -6 -8 -23 -9 -37 -1 -14 -5 -26 -8 -26 -7 0
-5 -171 3 -190 3 -8 8 -28 11 -45 7 -33 10 -43 20 -66 4 -9 6 -20 5 -25 -4
-25 2 -36 17 -30 13 5 14 3 7 -6 -15 -18 -11 -57 7 -68 9 -6 10 -10 3 -10 -9
0 -9 -8 -1 -32 5 -18 11 -43 11 -55 1 -13 4 -23 8 -23 8 0 22 -40 19 -59 -1
-7 3 -10 9 -6 7 4 11 -4 11 -21 0 -15 3 -24 7 -21 3 4 15 -5 25 -20 10 -16 18
-24 18 -20 0 4 9 0 19 -10 11 -10 46 -28 78 -41 61 -24 68 -26 146 -38 69 -10
60 -38 -12 -36 -34 1 -37 -2 -60 -51 -24 -52 -89 -164 -110 -189 -6 -7 -21
-25 -33 -39 -13 -15 -41 -48 -63 -74 -22 -26 -46 -53 -53 -60 -6 -8 -12 -18
-12 -23 0 -6 -4 -12 -9 -14 -13 -5 -61 -105 -61 -127 0 -16 6 -19 37 -18 37 2
38 1 37 -33 -1 -19 -4 -45 -8 -56 -4 -15 -2 -23 9 -27 8 -4 14 -2 12 4 -1 6 8
15 21 20 27 10 27 7 5 -53 -19 -54 -15 -62 30 -63 36 -1 43 -23 20 -61 -12
-20 -11 -22 11 -26 14 -3 27 0 30 6 2 6 5 7 5 1 1 -16 272 -10 282 7 6 9 9 10
9 1 0 -7 7 -10 15 -7 8 3 14 9 13 12 -2 20 3 32 12 27 5 -3 5 7 -2 25 -6 18
-17 34 -24 37 -8 3 -14 12 -14 20 0 8 -4 12 -8 9 -5 -3 -20 6 -35 20 -14 13
-31 24 -37 24 -7 0 -9 8 -5 19 6 21 -13 36 -70 56 -16 5 -29 14 -27 18 2 5
-13 22 -32 39 -48 41 -47 58 4 58 22 0 40 3 40 8 0 4 15 8 33 9 34 3 97 32 97
46 0 12 47 57 54 50 3 -3 8 2 12 11 3 9 10 14 14 11 4 -3 13 2 20 10 7 8 21
15 31 15 10 0 21 5 24 11 4 6 14 8 22 5 8 -3 11 -1 8 4 -3 6 3 11 14 11 23 2
40 5 44 9 1 1 12 4 25 5 31 3 28 -15 -13 -68 -19 -25 -35 -53 -35 -62 0 -9 -4
-24 -9 -34 -13 -23 3 -46 31 -46 13 0 23 -6 22 -12 -1 -7 -2 -27 -2 -44 -1
-19 -6 -28 -13 -24 -6 4 -5 -2 2 -14 11 -17 40 -22 57 -11 1 1 14 2 30 3 29 1
31 -6 17 -70 -6 -26 -3 -33 14 -43 12 -6 26 -8 31 -5 6 3 10 1 10 -6 0 -6 8
-9 19 -6 31 8 53 -25 54 -82 1 -27 5 -47 9 -45 4 3 8 1 8 -5 0 -6 11 -6 28 -1
16 4 36 4 45 -2 11 -6 17 -5 17 2 0 6 5 8 11 4 18 -11 99 -11 99 1 0 5 5 3 10
-5 7 -11 10 -11 10 -2 0 8 5 10 13 5 14 -9 47 -5 64 8 7 6 12 6 15 0 7 -20 38
17 42 50 4 38 -8 67 -36 87 -10 7 -16 18 -12 23 3 5 0 8 -8 7 -8 -2 -14 8 -16
25 -2 15 -8 27 -14 27 -6 0 -5 7 3 18 7 9 9 14 5 10 -5 -4 -15 0 -23 10 -8 9
-11 11 -7 3 5 -10 3 -12 -5 -7 -7 5 -10 14 -7 22 3 8 2 13 -2 13 -21 -4 -42 2
-38 10 3 5 -1 12 -10 15 -10 4 -13 2 -8 -6 4 -7 3 -8 -5 -4 -6 4 -10 14 -9 21
2 8 -1 13 -7 12 -5 -1 -9 -5 -8 -9 2 -4 -4 -5 -12 -2 -8 4 -15 10 -15 15 0 5
-6 9 -14 9 -8 0 -18 5 -22 12 -5 7 -3 8 6 3 9 -5 11 -4 6 4 -6 9 -11 9 -24 -1
-13 -11 -15 -10 -9 5 4 11 3 16 -3 12 -6 -3 -14 5 -20 19 -11 29 -22 36 -14 9
5 -16 4 -16 -6 0 -6 10 -9 26 -5 35 5 14 4 15 -6 4 -18 -17 -30 -15 -23 3 4 8
2 15 -4 15 -30 0 -57 175 -32 205 9 11 9 15 1 15 -7 0 -3 10 9 22 11 12 20 26
20 30 0 5 4 6 10 3 5 -3 7 0 4 8 -3 8 0 18 5 22 6 3 8 11 5 17 -4 7 -2 8 4 4
7 -4 12 -1 12 9 0 9 5 13 10 10 6 -3 10 1 10 10 0 9 10 25 23 36 12 10 16 18
9 19 -10 0 -10 4 0 19 7 11 15 18 19 15 4 -2 10 0 13 5 7 11 70 3 74 -9 2 -4
12 -6 22 -3 11 3 20 0 20 -6 0 -6 7 -11 15 -11 9 0 20 -11 25 -25 5 -14 14
-25 19 -25 6 0 8 -7 4 -15 -3 -9 -2 -15 3 -14 15 4 44 -13 39 -21 -3 -5 5 -6
16 -3 14 4 25 0 31 -10 4 -9 15 -14 23 -10 9 3 22 0 30 -7 8 -7 15 -9 15 -5 0
4 7 2 15 -5 9 -7 13 -21 10 -31 -7 -20 9 -26 20 -9 4 6 10 8 15 5 5 -3 11 -1
15 5 10 16 42 11 49 -8 3 -9 14 -32 25 -50 l19 -32 16 25 c9 14 14 30 11 35
-10 17 5 49 23 49 45 0 85 10 93 22 10 16 2 29 -17 29 -8 0 -14 4 -14 9 0 5
-9 13 -20 16 -15 5 -18 10 -11 23 9 17 11 24 11 41 0 10 50 65 50 54 0 -4 4
-2 8 4 4 7 19 14 32 16 22 4 39 37 19 37 -6 0 -8 4 -5 9 15 23 -78 38 -100 16
-9 -8 -20 -13 -25 -10 -5 4 -9 2 -9 -4 0 -5 -9 -13 -20 -16 -11 -3 -20 -13
-20 -21 0 -22 -28 -29 -48 -11 -9 8 -27 18 -39 21 -13 4 -23 12 -23 17 0 5 -6
9 -12 8 -13 -2 -60 8 -88 18 -8 3 -24 8 -35 9 -11 2 -36 7 -55 10 -19 4 -42 8
-50 10 -8 1 -24 4 -35 7 -38 7 -28 89 10 83 8 -1 17 -5 21 -8 3 -4 13 -4 22
-1 9 4 13 2 9 -4 -4 -6 0 -19 9 -27 14 -15 18 -13 44 16 53 60 80 96 80 107 0
6 5 11 10 11 6 0 10 5 10 11 0 6 9 23 20 39 11 15 17 30 13 34 -3 3 -2 6 3 6
6 0 19 19 29 43 26 59 35 65 98 70 59 4 110 33 85 48 -18 11 -18 51 0 44 11
-4 12 -2 5 7 -7 9 -4 18 8 30 9 9 20 14 23 11 8 -9 37 18 30 28 -3 5 -16 9
-30 9 -14 0 -22 4 -19 10 3 6 1 10 -5 10 -7 0 -9 7 -6 16 3 8 2 12 -4 9 -13
-8 -13 21 1 46 10 19 8 20 -26 18 -33 -3 -54 10 -55 33 0 15 31 36 47 32 25
-6 45 10 37 29 -3 9 -10 14 -15 11 -5 -3 -9 0 -9 5 0 6 -10 9 -22 7 -13 -2
-33 0 -45 5 -13 5 -23 4 -25 -2 -2 -5 -13 -11 -25 -13 -27 -6 -87 -65 -91 -91
-1 -11 -4 -33 -6 -50 -2 -16 -6 -37 -9 -45 -9 -26 -14 -45 -15 -53 -1 -13
-155 -166 -163 -161 -4 2 -9 -2 -12 -10 -9 -23 -54 -7 -62 21 -3 14 -5 26 -3
27 2 1 15 8 31 16 15 7 27 19 27 27 0 7 4 13 9 13 6 0 6 12 1 29 -4 16 -6 32
-3 35 3 2 2 10 -2 15 -4 8 -11 7 -20 -3 -23 -23 -126 10 -173 54 -31 29 -27
76 6 74 12 -1 22 2 22 6 0 3 16 6 35 5 27 -2 40 4 55 22 21 27 17 53 -9 54
-51 2 -96 6 -96 8 0 2 -11 5 -25 7 -14 3 -35 15 -48 28 -21 20 -22 25 -10 52
7 16 20 35 28 41 17 14 83 8 88 -7 2 -6 10 -10 18 -10 8 0 20 -13 25 -30 9
-24 17 -30 40 -30 l29 0 0 96 c0 125 -3 131 -79 129 -34 -1 -61 2 -61 6 0 3
-8 6 -17 6 -58 0 -83 5 -96 18 -8 8 -17 11 -21 8 -3 -4 -6 -1 -6 5 0 7 -5 12
-11 12 -13 0 -44 30 -32 31 4 0 0 4 -10 7 -16 7 -16 9 1 43 26 51 7 88 -40 80
-5 0 -8 3 -8 7 0 9 -60 10 -66 1z"/>
<path d="M1330 216 c0 -2 8 -10 18 -17 15 -13 16 -12 3 4 -13 16 -21 21 -21
13z"/>
</g>
</svg>
