<?xml version="1.0" standalone="no"?>
<!DOCTYPE svg PUBLIC "-//W3C//DTD SVG 20010904//EN"
 "http://www.w3.org/TR/2001/REC-SVG-20010904/DTD/svg10.dtd">
<svg version="1.0" xmlns="http://www.w3.org/2000/svg"
 width="438.000000pt" height="438.000000pt" viewBox="0 0 438.000000 438.000000"
 preserveAspectRatio="xMidYMid meet">
<metadata>
Created by potrace 1.11, written by Peter Selinger 2001-2013
</metadata>
<g transform="translate(0.000000,438.000000) scale(0.100000,-0.100000)"
fill="#000000" stroke="none">
<path d="M1970 4330 c-176 -22 -300 -48 -428 -89 -561 -182 -1010 -566 -1273
-1091 -66 -131 -67 -123 25 -184 64 -41 123 -58 217 -59 156 -2 327 39 511
122 123 55 190 87 371 175 508 247 743 319 1007 310 221 -7 423 -121 549 -309
75 -112 94 -170 97 -296 3 -91 0 -117 -20 -176 -43 -126 -114 -214 -241 -298
-68 -45 -210 -115 -234 -115 -3 0 24 18 60 40 74 44 137 108 169 170 27 54 33
80 33 156 0 110 -41 202 -130 292 -163 165 -398 190 -731 76 -165 -56 -304
-118 -682 -302 -360 -175 -512 -224 -685 -218 -111 3 -177 23 -260 78 -59 39
-130 128 -153 191 -9 26 -19 47 -22 47 -7 0 -47 -149 -64 -237 l-14 -73 29
-44 c123 -195 348 -271 612 -207 170 41 273 81 602 236 55 26 141 65 190 87
50 22 115 52 145 65 243 110 484 182 595 178 101 -3 155 -24 210 -79 103 -103
112 -240 24 -361 -33 -45 -139 -130 -181 -144 -31 -11 -37 -1 -12 20 24 20 54
85 54 118 0 37 -44 89 -80 96 -112 22 -201 -2 -467 -126 -48 -22 -108 -50
-133 -61 -25 -11 -113 -53 -196 -94 -320 -154 -427 -201 -557 -243 -227 -72
-426 -72 -602 2 -100 42 -180 130 -230 253 -13 31 -25 52 -28 47 -6 -10 0
-307 7 -331 3 -9 8 -42 11 -72 30 -259 165 -617 325 -860 120 -183 283 -363
450 -498 36 -29 71 -57 77 -63 51 -40 220 -141 328 -194 205 -101 423 -168
650 -201 152 -22 465 -22 600 1 157 27 302 62 395 96 126 47 237 94 272 116
21 13 40 23 44 23 15 0 188 111 279 180 109 82 278 244 370 355 108 129 305
458 305 509 0 22 -82 87 -138 110 -36 15 -72 19 -157 20 -136 1 -183 -6 -324
-50 -99 -31 -187 -68 -366 -154 -331 -159 -409 -196 -543 -251 -134 -57 -271
-103 -336 -115 -16 -3 -32 -7 -35 -9 -15 -9 -182 -26 -251 -26 -94 1 -139 7
-215 33 -199 65 -374 235 -440 425 -31 88 -33 224 -6 313 54 174 202 315 429
407 28 12 52 21 52 19 0 -2 -26 -19 -58 -39 -71 -44 -146 -119 -172 -173 -92
-188 7 -431 219 -539 102 -52 275 -69 412 -40 70 15 245 68 294 90 17 8 62 26
100 41 68 26 178 78 505 236 194 94 362 162 469 188 275 69 490 -13 600 -227
11 -23 21 -49 21 -58 0 -9 4 -14 9 -11 10 7 35 93 60 216 l20 95 -37 54 c-107
155 -267 231 -457 217 -190 -14 -313 -55 -690 -228 -143 -66 -316 -145 -385
-175 -464 -203 -680 -233 -808 -110 -82 79 -108 168 -78 270 27 94 105 176
231 243 l50 27 -26 -29 c-112 -122 -81 -234 67 -240 93 -3 182 25 399 126 50
23 110 51 135 62 25 12 110 52 190 90 566 273 663 305 910 302 252 -3 414
-101 495 -299 12 -31 25 -53 28 -48 7 10 1 268 -7 318 -2 17 -7 51 -10 76 -15
131 -65 317 -128 479 -158 405 -445 759 -818 1007 -193 129 -483 253 -695 298
-11 3 -31 7 -45 10 -185 39 -492 56 -660 35z"/>
</g>
</svg>
