<?xml version="1.0" standalone="no"?>
<!DOCTYPE svg PUBLIC "-//W3C//DTD SVG 20010904//EN"
 "http://www.w3.org/TR/2001/REC-SVG-20010904/DTD/svg10.dtd">
<svg version="1.0" xmlns="http://www.w3.org/2000/svg"
 width="300.000000pt" height="300.000000pt" viewBox="0 0 300.000000 300.000000"
 preserveAspectRatio="xMidYMid meet">
<metadata>
Created by potrace 1.11, written by Peter Selinger 2001-2013
</metadata>
<g transform="translate(0.000000,300.000000) scale(0.100000,-0.100000)"
fill="#000000" stroke="none">
<path d="M1608 2256 c-171 -104 -257 -156 -260 -156 -2 0 -2 17 0 39 2 23 -1
42 -8 46 -18 11 -65 -41 -97 -106 l-28 -60 -230 -146 -230 -147 -77 -1 c-47 0
-83 -6 -90 -13 -9 -9 9 -12 86 -12 85 0 104 3 135 23 19 12 44 27 53 32 65 37
296 181 311 194 18 15 19 14 13 -14 -3 -17 -10 -48 -15 -70 -6 -22 -11 -56
-11 -76 l0 -37 -133 1 c-149 0 -173 -6 -136 -34 28 -22 46 -25 30 -5 -18 21 5
25 129 22 82 -2 114 -7 120 -17 13 -20 23 -4 12 18 -37 70 89 433 151 433 40
0 -128 -515 -178 -544 -11 -7 -45 -27 -75 -45 -44 -27 -65 -33 -107 -33 -37 0
-53 -4 -53 -13 0 -7 8 -12 17 -11 31 2 26 -40 -11 -94 -19 -28 -41 -66 -47
-85 -7 -19 -17 -35 -21 -35 -4 0 -7 3 -7 8 4 24 -3 23 -20 -4 -21 -35 -37 -41
-101 -40 -45 1 -45 1 -50 41 -9 66 -3 75 45 75 38 0 44 -3 49 -26 10 -40 21
-19 21 42 0 54 -10 70 -22 37 -9 -25 -23 -33 -60 -33 -33 0 -33 0 -33 50 0 28
1 53 3 58 1 4 26 7 56 7 49 0 56 -3 70 -27 22 -39 33 -35 29 10 l-3 37 -133 1
c-73 0 -135 -3 -138 -8 -3 -4 4 -8 15 -8 30 0 34 -14 36 -129 2 -121 0 -131
-25 -131 -11 0 -22 -4 -25 -10 -5 -8 210 -17 262 -11 6 1 14 -8 18 -19 15 -47
65 -45 131 5 17 13 34 21 38 18 12 -13 100 -12 132 2 49 20 57 45 55 163 -1
96 0 104 19 109 30 8 13 23 -25 23 l-35 0 17 34 c14 31 26 38 104 65 48 17 90
31 94 31 3 0 5 -9 5 -20 0 -27 40 -48 54 -28 6 8 26 18 44 21 19 4 54 20 78
37 l44 29 -6 -27 c-4 -15 -11 -35 -16 -44 -14 -29 13 -22 98 24 l77 41 -7 -36
c-4 -19 -3 -38 2 -41 5 -3 41 3 81 14 87 25 81 25 81 -4 l0 -24 75 24 c77 24
104 29 92 17 -4 -3 -2 -12 3 -18 13 -16 86 0 94 20 4 10 -2 11 -27 4 -18 -5
-33 -9 -34 -9 -2 0 -3 11 -3 25 0 14 -1 25 -3 25 -2 0 -37 -11 -77 -25 -40
-14 -75 -25 -78 -25 -2 0 -1 11 2 25 8 30 12 29 -60 6 -33 -10 -74 -22 -92
-26 -31 -6 -32 -6 -23 18 5 13 5 30 1 38 -8 11 -15 11 -47 0 -21 -8 -55 -25
-76 -38 l-39 -24 7 33 c7 33 21 58 101 176 l41 61 97 -65 97 -65 96 3 96 3 63
118 c35 65 64 120 64 123 0 2 -45 4 -101 4 -113 0 -89 -11 -344 151 -170 108
-149 102 -227 55z m232 -111 c0 -17 -41 -128 -61 -165 -31 -56 -92 -150 -96
-146 -6 5 100 270 121 300 18 29 36 34 36 11z m-254 -97 c62 -40 113 -78 114
-84 0 -21 -83 -209 -99 -222 -33 -26 -97 -61 -124 -67 -22 -6 -26 -4 -21 8 7
20 -13 57 -31 57 -7 0 -20 -6 -27 -13 -20 -21 -53 -37 -128 -62 l-67 -23 37
102 c20 55 49 144 65 197 l29 96 65 42 c36 22 68 41 70 41 2 0 55 -33 117 -72z
m-149 -363 c-4 -31 -16 -43 -26 -26 -12 18 -2 51 16 51 9 0 13 -8 10 -25z
m-342 -207 c-30 -64 -55 -122 -55 -129 0 -7 -3 -9 -7 -5 -4 4 -8 45 -9 92 0
80 1 85 23 90 12 4 21 10 18 14 -3 4 3 14 12 21 16 14 66 38 71 34 1 -1 -23
-54 -53 -117z m77 27 c3 -14 6 -60 7 -103 2 -66 -1 -82 -19 -105 -17 -21 -30
-27 -60 -27 -69 0 -69 16 -6 145 32 63 61 115 66 115 4 0 10 -11 12 -25z
m-195 -220 c9 -16 7 -23 -15 -41 -36 -32 -73 -40 -88 -19 -20 27 9 119 65 205
16 24 16 23 21 -50 3 -41 10 -84 17 -95z"/>
<path d="M1406 1999 c-49 -38 -35 -49 64 -49 71 0 90 3 90 14 0 25 -50 56 -90
56 -23 0 -48 -8 -64 -21z"/>
<path d="M1385 1932 c-3 -3 -5 -18 -5 -34 0 -26 3 -28 40 -28 38 0 40 1 40 33
0 30 -2 32 -35 33 -19 0 -37 -1 -40 -4z"/>
<path d="M1485 1932 c-3 -3 -5 -18 -5 -34 0 -26 3 -28 40 -28 38 0 40 1 40 33
0 30 -2 32 -35 33 -19 0 -37 -1 -40 -4z"/>
<path d="M1380 1817 c0 -32 2 -34 40 -35 39 -2 40 -1 40 33 0 34 -1 35 -40 35
-39 0 -40 -1 -40 -33z"/>
<path d="M1482 1818 c3 -30 6 -33 41 -36 36 -3 37 -3 37 32 0 35 -1 36 -41 36
-39 0 -40 -1 -37 -32z"/>
<path d="M2282 2003 c-10 -18 -5 -37 35 -122 35 -77 51 -101 65 -101 24 0 22
7 -41 142 -44 93 -49 100 -59 81z"/>
<path d="M2225 1879 c-4 -6 -5 -13 -2 -16 7 -7 89 -25 93 -20 2 2 -5 13 -16
25 -22 23 -64 29 -75 11z"/>
<path d="M2219 1840 c-5 -46 -2 -55 19 -58 18 -3 22 1 22 26 0 18 -6 32 -16
36 -21 8 -24 8 -25 -4z"/>
<path d="M2272 1800 c-1 -25 3 -30 22 -30 18 0 22 6 22 30 0 24 -4 30 -21 30
-18 0 -22 -6 -23 -30z"/>
<path d="M2218 1753 c-7 -31 3 -53 23 -53 17 0 20 6 17 32 -3 36 -32 51 -40
21z"/>
<path d="M2368 1763 c-2 -4 -4 -19 -4 -33 1 -25 1 -25 114 -28 88 -2 113 0
110 10 -3 8 -30 13 -86 13 -70 1 -84 4 -105 24 -14 12 -27 19 -29 14z"/>
<path d="M2274 1733 c1 -21 6 -28 20 -28 22 0 32 35 13 47 -23 15 -34 8 -33
-19z"/>
<path d="M120 1653 c0 -16 645 -19 655 -3 8 13 21 12 -342 14 -244 1 -313 -2
-313 -11z"/>
<path d="M2215 1661 c-18 -17 47 -21 331 -21 255 0 325 3 322 12 -4 10 -79 13
-327 13 -177 0 -324 -2 -326 -4z"/>
<path d="M1684 1549 c-28 -10 -54 -47 -54 -76 0 -42 22 -72 69 -93 70 -31 76
-35 79 -59 5 -31 -15 -51 -49 -51 -28 0 -69 30 -69 50 0 25 -26 7 -28 -20 -3
-33 13 -45 69 -53 74 -9 137 51 118 115 -12 43 -23 53 -84 78 -29 12 -56 28
-59 37 -9 23 12 53 37 53 28 0 41 -9 56 -37 6 -13 16 -23 21 -23 12 0 13 67 1
74 -16 10 -86 14 -107 5z"/>
<path d="M1886 1537 c-3 -14 -9 -32 -12 -41 -8 -22 12 -20 35 3 11 11 31 18
52 17 l34 -1 2 -113 2 -112 -32 -17 -32 -18 48 -3 c26 -2 67 -2 90 0 l42 4
-28 12 -28 12 3 116 c3 107 5 117 22 120 26 4 56 -13 56 -31 0 -8 7 -15 15
-15 12 0 15 11 13 45 -1 38 -4 45 -17 39 -21 -9 -221 -9 -242 0 -12 5 -18 1
-23 -17z"/>
<path d="M130 1543 c0 -5 9 -14 20 -21 18 -11 19 -21 16 -121 -4 -114 -8 -131
-32 -131 -8 0 -14 -4 -14 -10 0 -5 25 -10 55 -10 54 0 74 13 35 23 -18 5 -20
14 -20 103 0 53 2 95 4 93 3 -3 25 -52 50 -109 24 -57 49 -106 54 -108 5 -1
15 12 21 30 22 62 76 187 81 188 3 0 7 -43 8 -96 2 -88 0 -96 -18 -101 -43
-11 -16 -22 55 -22 41 0 75 3 75 5 0 2 -11 9 -25 14 -23 9 -25 15 -26 72 0 35
-2 89 -4 121 -2 41 1 57 10 57 7 0 18 7 25 15 11 13 6 15 -38 15 -58 0 -55 3
-99 -104 -18 -44 -36 -83 -41 -88 -4 -4 -27 37 -50 91 l-42 98 -50 2 c-28 1
-50 -2 -50 -6z"/>
<path d="M1300 1541 c0 -5 9 -13 20 -16 23 -7 23 -7 22 -133 -1 -98 -6 -127
-21 -118 -5 3 -14 -1 -21 -9 -10 -12 8 -14 129 -14 l141 -1 0 45 c0 50 -11 58
-28 20 -14 -30 -43 -43 -97 -41 l-40 1 0 110 c-1 115 6 145 30 145 8 0 15 5
15 10 0 6 -32 10 -75 10 -41 0 -75 -4 -75 -9z"/>
<path d="M2220 1539 c0 -4 10 -9 23 -11 21 -3 22 -7 25 -130 2 -122 2 -128
-17 -128 -11 0 -22 -4 -26 -9 -8 -14 255 -19 270 -6 16 13 27 73 15 80 -6 3
-15 -5 -21 -18 -13 -30 -40 -42 -95 -46 -50 -3 -58 7 -59 72 l-1 47 43 0 c37
0 45 -4 53 -25 15 -39 20 -30 20 35 0 63 -8 75 -25 38 -8 -18 -18 -23 -50 -23
l-40 0 -1 45 c-1 66 1 68 62 65 40 -1 59 -7 69 -21 8 -10 15 -22 15 -26 0 -5
5 -8 11 -8 6 0 9 16 7 38 l-3 37 -137 1 c-76 0 -138 -3 -138 -7z"/>
<path d="M2573 1538 c-2 -5 5 -8 16 -8 31 0 37 -26 35 -135 -2 -130 -1 -125
-23 -125 -11 0 -23 -4 -26 -10 -4 -6 44 -10 138 -10 l144 0 7 41 c7 41 -2 68
-12 40 -13 -39 -46 -57 -102 -56 l-55 0 -3 58 -3 57 44 0 c40 0 46 -3 51 -26
10 -40 21 -19 21 42 0 37 -4 54 -12 54 -7 0 -13 -8 -13 -19 0 -19 -25 -31 -67
-31 -21 0 -23 4 -23 58 l0 58 53 -2 c69 -2 66 -1 79 -29 17 -37 28 -31 28 15
l0 41 -136 -3 c-75 -2 -138 -6 -141 -10z"/>
<path d="M123 1147 c5 -17 2739 -17 2744 -1 3 9 -340 12 -1372 12 -1035 0
-1375 -3 -1372 -11z"/>
<path d="M125 1040 c-3 -5 0 -10 5 -12 13 -4 17 -93 6 -125 -7 -21 -4 -23 28
-23 20 0 36 5 36 10 0 6 -4 10 -10 10 -5 0 -10 13 -10 28 0 26 4 29 35 30 32
1 35 -1 35 -28 0 -17 -5 -30 -11 -30 -5 0 -7 -4 -4 -10 3 -5 23 -10 43 -10 28
0 33 3 24 12 -15 15 -16 138 -1 138 5 0 7 4 4 10 -7 11 -75 10 -75 -2 0 -4 5
-8 10 -8 6 0 10 -11 10 -25 0 -22 -4 -25 -35 -25 -31 0 -35 3 -35 25 0 14 5
25 10 25 6 0 10 4 10 9 0 11 -68 12 -75 1z"/>
<path d="M368 1030 c-43 -33 -42 -104 0 -136 29 -23 90 -17 117 11 77 76 -32
192 -117 125z m86 -22 c31 -43 13 -108 -28 -108 -31 0 -45 18 -48 62 -4 63 44
92 76 46z"/>
<path d="M540 1040 c0 -5 5 -10 10 -10 15 0 8 -121 -7 -127 -19 -8 -5 -23 21
-23 30 0 38 9 22 25 -8 8 -11 27 -8 46 l5 33 21 -52 c12 -29 24 -52 28 -52 4
0 18 24 32 53 l24 52 1 -40 c1 -23 -4 -46 -11 -53 -9 -9 -2 -12 31 -12 38 0
42 2 31 15 -18 22 -20 125 -3 132 19 8 5 23 -21 23 -18 0 -28 -12 -48 -57
l-26 -57 -26 57 c-22 46 -32 57 -52 57 -13 0 -24 -4 -24 -10z"/>
<path d="M775 1040 c-3 -5 -1 -10 4 -10 7 0 11 -26 11 -65 0 -37 -4 -65 -10
-65 -5 0 -10 -4 -10 -10 0 -6 28 -10 64 -10 57 0 65 3 71 21 9 27 -4 39 -16
16 -6 -9 -21 -17 -34 -17 -21 0 -25 5 -25 30 0 20 5 30 15 30 8 0 15 -4 15
-10 0 -5 5 -10 10 -10 6 0 10 12 10 28 0 15 4 33 9 41 18 28 1 41 -54 41 -30
0 -57 -4 -60 -10z m98 -24 c6 -16 -11 -36 -30 -36 -7 0 -13 11 -13 25 0 18 5
25 19 25 10 0 21 -6 24 -14z"/>
<path d="M1026 1035 c-25 -26 -19 -51 21 -82 21 -18 33 -34 29 -41 -12 -19
-44 -14 -51 9 -5 14 -10 18 -17 11 -19 -19 10 -52 45 -52 40 0 57 15 57 51 0
20 -9 33 -35 49 -19 12 -35 26 -35 31 0 19 31 21 51 3 21 -19 21 -19 18 6 -3
20 -11 26 -35 28 -19 2 -38 -3 -48 -13z"/>
<path d="M1140 1040 c0 -5 4 -10 9 -10 4 0 9 -29 9 -65 0 -51 -3 -65 -14 -65
-9 0 -13 -4 -10 -9 3 -4 34 -9 70 -10 56 -1 64 1 69 19 6 24 -11 38 -19 16
-10 -25 -51 -20 -58 6 -7 28 9 47 26 30 7 -7 16 -12 20 -12 12 0 10 48 -2 55
-5 3 -10 1 -10 -4 0 -6 -8 -11 -19 -11 -13 0 -18 7 -17 22 1 29 33 36 51 11
13 -17 14 -16 15 10 0 26 -1 27 -60 27 -33 0 -60 -4 -60 -10z"/>
<path d="M1290 1038 c0 -4 5 -8 10 -8 6 0 10 -28 10 -65 0 -37 -4 -65 -10 -65
-5 0 -10 -4 -10 -10 0 -6 28 -10 64 -10 55 0 64 3 69 20 6 24 -11 38 -19 16
-3 -9 -17 -16 -30 -16 -23 0 -24 3 -24 63 0 36 5 68 12 75 9 9 3 12 -30 10
-23 -1 -42 -5 -42 -10z"/>
<path d="M1440 1039 c0 -5 5 -9 10 -9 6 0 10 -28 10 -65 0 -37 -4 -65 -10 -65
-5 0 -10 -4 -10 -10 0 -6 27 -10 60 -10 48 0 61 4 70 19 7 13 7 22 0 26 -6 3
-13 -1 -16 -9 -3 -9 -17 -16 -30 -16 -23 0 -24 3 -24 65 0 39 4 65 11 65 5 0
8 4 5 9 -3 5 -22 9 -41 9 -19 0 -35 -4 -35 -9z"/>
<path d="M1590 1039 c0 -5 5 -9 10 -9 6 0 10 -28 10 -65 0 -37 -4 -65 -10 -65
-5 0 -10 -4 -10 -10 0 -5 19 -10 41 -10 35 0 40 2 29 15 -15 18 -15 122 0 140
9 11 4 14 -29 13 -23 0 -41 -4 -41 -9z"/>
<path d="M1690 1041 c0 -6 5 -13 10 -16 6 -3 10 -33 10 -66 0 -33 -4 -59 -10
-59 -5 0 -10 -4 -10 -10 0 -5 14 -10 30 -10 29 0 40 13 20 25 -5 3 -10 25 -10
48 l1 42 52 -58 c29 -31 55 -57 60 -57 4 0 7 34 7 75 0 43 4 75 10 75 6 0 10
5 10 10 0 6 -13 10 -29 10 -17 0 -33 -4 -36 -10 -3 -5 1 -10 9 -10 12 0 16
-11 16 -42 l-1 -43 -49 53 c-44 47 -90 69 -90 43z"/>
<path d="M1945 1041 c-30 -13 -45 -34 -50 -71 -6 -47 39 -90 93 -90 56 0 71 7
64 32 -3 11 1 24 9 29 8 5 10 9 4 10 -47 5 -66 5 -77 -2 -10 -7 -9 -9 5 -9 10
0 17 -8 17 -20 0 -12 -7 -20 -17 -20 -52 1 -76 72 -40 118 13 17 66 15 73 -3
9 -23 26 -18 22 8 -2 18 -10 22 -43 24 -22 1 -49 -2 -60 -6z"/>
<path d="M2170 1023 c1 -25 2 -26 14 -10 7 9 21 17 30 17 24 0 23 -117 -1
-136 -16 -12 -12 -13 30 -14 26 0 47 5 47 10 0 6 -6 10 -12 10 -9 0 -13 19
-12 62 0 51 4 64 17 66 9 2 20 -4 23 -12 8 -20 24 -11 24 15 0 17 -7 19 -80
19 l-80 0 0 -27z"/>
<path d="M2350 1040 c0 -5 5 -10 10 -10 6 0 10 -28 10 -65 0 -52 -3 -65 -16
-65 -8 0 -12 -4 -9 -10 3 -5 33 -10 65 -10 50 0 61 3 70 21 15 27 2 40 -15 16
-21 -29 -59 -19 -60 16 -2 27 17 38 30 17 12 -20 24 -10 21 18 -5 38 -5 39
-15 23 -11 -17 -41 -7 -41 14 0 24 28 29 50 10 19 -18 20 -17 20 7 0 24 -3 25
-60 27 -36 1 -60 -3 -60 -9z"/>
<path d="M2563 1038 c-5 -7 -20 -41 -33 -75 -12 -35 -26 -63 -31 -63 -5 0 -9
-4 -9 -10 0 -5 14 -10 32 -10 23 0 29 3 21 11 -16 16 -4 49 18 49 24 0 42 -33
27 -48 -9 -9 -3 -12 24 -12 20 0 40 5 43 10 3 6 0 10 -8 10 -8 0 -23 29 -37
75 -24 76 -30 85 -47 63z m7 -63 c0 -8 -4 -15 -10 -15 -5 0 -7 7 -4 15 4 8 8
15 10 15 2 0 4 -7 4 -15z"/>
<path d="M2670 1040 c0 -5 4 -10 10 -10 12 0 11 -118 -1 -126 -19 -12 -7 -24
23 -24 25 0 29 3 20 12 -7 7 -12 30 -11 52 l0 41 25 -54 c13 -30 27 -51 30
-48 4 3 17 28 29 54 l23 48 1 -40 c1 -23 -4 -46 -11 -53 -9 -9 -2 -12 31 -12
37 0 42 2 31 15 -17 20 -19 126 -3 132 19 7 5 23 -20 23 -17 0 -28 -12 -45
-50 -13 -27 -26 -50 -31 -50 -4 0 -17 23 -28 50 -18 42 -26 50 -47 50 -14 0
-26 -4 -26 -10z"/>
</g>
</svg>
