<?xml version="1.0" standalone="no"?>
<!DOCTYPE svg PUBLIC "-//W3C//DTD SVG 20010904//EN"
 "http://www.w3.org/TR/2001/REC-SVG-20010904/DTD/svg10.dtd">
<svg version="1.0" xmlns="http://www.w3.org/2000/svg"
 width="300.000000pt" height="300.000000pt" viewBox="0 0 300.000000 300.000000"
 preserveAspectRatio="xMidYMid meet">
<metadata>
Created by potrace 1.11, written by Peter Selinger 2001-2013
</metadata>
<g transform="translate(0.000000,300.000000) scale(0.100000,-0.100000)"
fill="#000000" stroke="none">
<path d="M940 2029 c-300 -302 -546 -552 -547 -556 -2 -5 50 -7 114 -6 l118 3
432 433 432 434 413 -416 c227 -229 424 -424 437 -435 23 -18 37 -20 211 -17
l45 1 -188 188 -187 187 0 123 c0 92 3 122 13 122 20 0 10 118 -11 121 -4 1
-40 2 -80 3 -52 2 -76 -2 -84 -12 -17 -20 -20 -102 -3 -108 14 -6 19 -84 6
-84 -4 0 -128 122 -276 271 -149 149 -277 276 -285 284 -13 11 -91 -64 -560
-536z"/>
<path d="M1120 1793 l-366 -368 2 -360 c1 -303 3 -360 15 -357 8 2 44 14 80
28 36 13 74 26 85 28 10 2 33 10 49 17 33 13 40 16 70 22 11 3 45 12 76 21 31
9 67 19 80 22 32 6 98 21 129 28 14 3 39 8 55 11 17 3 44 7 60 10 17 3 46 8
65 10 19 3 44 8 56 10 18 4 59 8 199 21 114 10 232 16 332 17 l113 2 0 237 0
236 -363 366 c-200 201 -365 366 -368 366 -2 0 -169 -165 -369 -367z m317
-239 l2 -61 -61 1 -62 1 -1 55 c-1 30 -1 58 1 61 2 3 29 5 61 5 l58 -1 2 -61z
m214 43 c2 -31 2 -80 0 -93 -1 -6 -25 -11 -61 -11 l-60 0 0 62 0 62 60 1 c55
0 60 -2 61 -21z m-213 -254 l3 -61 -45 0 c-25 0 -50 -3 -55 -6 -16 -10 -26 16
-26 69 0 57 4 60 72 60 l48 -1 3 -61z m207 55 c8 -5 11 -44 6 -105 -1 -9 -20
-13 -61 -13 l-60 0 0 59 c0 33 5 61 10 63 17 5 94 3 105 -4z"/>
<path d="M2047 844 c-1 -1 -54 -5 -117 -9 -63 -3 -131 -8 -150 -9 -134 -13
-263 -31 -350 -47 -129 -25 -323 -73 -425 -107 -60 -20 -112 -36 -115 -37 -3
-1 -18 -7 -33 -13 -16 -7 -30 -12 -33 -12 -40 0 -474 -234 -474 -256 0 -3 3
-4 8 -2 11 6 54 25 92 41 111 47 478 158 735 222 162 40 169 42 229 51 22 3
43 7 46 9 5 3 182 36 265 49 17 3 46 8 65 11 19 4 53 8 74 10 21 3 57 7 80 11
59 9 82 12 166 20 41 3 82 8 91 9 13 3 73 7 269 20 19 2 72 3 118 4 45 1 82 4
82 9 0 4 -10 7 -22 8 -13 0 -84 4 -158 9 -120 7 -439 13 -443 9z"/>
</g>
</svg>
