<?xml version="1.0" standalone="no"?>
<!DOCTYPE svg PUBLIC "-//W3C//DTD SVG 20010904//EN"
 "http://www.w3.org/TR/2001/REC-SVG-20010904/DTD/svg10.dtd">
<svg version="1.0" xmlns="http://www.w3.org/2000/svg"
 width="300.000000pt" height="300.000000pt" viewBox="0 0 300.000000 300.000000"
 preserveAspectRatio="xMidYMid meet">
<metadata>
Created by potrace 1.11, written by Peter Selinger 2001-2013
</metadata>
<g transform="translate(0.000000,300.000000) scale(0.100000,-0.100000)"
fill="#000000" stroke="none">
<path d="M20 1680 l0 -1290 1477 0 1476 0 -6 962 c-4 529 -7 1109 -7 1290 l0
328 -1470 0 -1470 0 0 -1290z m725 935 c59 -102 109 -185 112 -185 3 0 123 83
265 185 155 111 264 182 271 178 7 -4 121 -85 255 -180 133 -96 248 -176 256
-179 9 -3 44 49 111 165 53 94 103 178 111 188 11 15 13 -22 14 -254 l0 -272
248 -177 c136 -96 254 -182 262 -190 12 -12 -7 -14 -140 -14 l-155 0 -483 345
c-266 190 -485 345 -487 345 -3 0 -222 -155 -487 -345 l-483 -345 -160 0
c-145 1 -158 2 -140 16 11 8 131 94 267 191 l248 176 0 269 c0 147 2 268 4
268 2 0 52 -83 111 -185z m430 -815 c113 -226 209 -409 213 -406 4 2 97 185
207 405 110 221 204 401 210 401 5 -1 82 -54 170 -118 l160 -118 0 -520 0
-519 -135 0 -135 0 -5 393 -5 393 -231 -477 c-127 -263 -235 -479 -241 -481
-6 -2 -17 11 -24 30 -8 19 -111 233 -229 476 l-215 442 -5 -388 -5 -388 -135
0 -135 0 -3 516 c-2 481 -1 517 15 532 18 15 316 236 320 237 2 0 95 -185 208
-410z"/>
<path d="M934 296 c-47 -21 -74 -62 -74 -111 0 -88 79 -150 160 -126 53 16 70
35 70 82 0 35 -3 39 -24 39 -21 0 -25 -5 -28 -37 -3 -36 -5 -38 -42 -41 -52
-5 -86 27 -86 80 0 50 27 78 78 78 21 0 43 -5 48 -10 8 -8 15 -6 24 5 31 38
-65 69 -126 41z"/>
<path d="M1195 291 c-83 -37 -96 -145 -25 -205 43 -36 81 -41 133 -18 47 21
77 67 77 119 0 59 -64 123 -122 123 -13 0 -41 -9 -63 -19z m106 -50 c67 -68 3
-169 -86 -135 -25 10 -47 62 -40 95 7 32 48 69 77 69 11 0 33 -13 49 -29z"/>
<path d="M1770 303 c-46 -17 -65 -70 -37 -106 6 -9 35 -24 62 -34 37 -14 50
-24 50 -38 0 -26 -54 -33 -87 -11 -22 14 -25 14 -36 -5 -11 -18 -9 -21 30 -39
52 -24 70 -25 108 -5 66 34 47 108 -35 135 -36 12 -51 22 -53 37 -4 27 25 37
62 23 36 -13 43 -13 50 5 10 28 -69 55 -114 38z"/>
<path d="M30 176 l0 -123 25 5 c24 4 25 8 25 74 0 40 4 67 9 63 5 -3 21 -30
35 -60 31 -69 50 -70 79 -7 39 83 42 83 47 3 5 -68 7 -75 28 -76 22 -2 22 0
22 122 l0 123 -33 0 c-30 0 -35 -5 -65 -65 -18 -37 -36 -64 -40 -61 -4 2 -21
32 -37 65 -27 57 -31 61 -62 61 l-33 0 0 -124z"/>
<path d="M387 190 c-26 -60 -50 -115 -52 -122 -3 -9 3 -13 20 -13 17 0 28 8
36 27 11 26 15 28 71 28 55 0 60 -2 69 -27 7 -21 16 -28 34 -28 14 0 24 3 23
6 -105 247 -101 239 -128 239 -23 0 -30 -11 -73 -110z m103 -21 c0 -14 -7 -19
-30 -19 -33 0 -37 13 -18 56 l12 26 18 -22 c10 -12 18 -31 18 -41z"/>
<path d="M620 180 l0 -120 25 0 c23 0 25 4 25 40 0 35 3 40 23 40 16 0 33 -13
53 -42 23 -33 37 -43 57 -43 15 0 27 1 27 3 0 2 -11 18 -25 36 -30 40 -30 41
-5 73 27 35 26 78 -5 108 -21 22 -33 25 -100 25 l-75 0 0 -120z m148 52 c5
-34 -15 -52 -59 -52 -39 0 -39 0 -39 41 l0 40 48 -3 c40 -3 47 -6 50 -26z"/>
<path d="M1420 178 l0 -123 77 2 c71 1 78 3 81 22 3 19 -1 21 -52 21 l-56 0 0
100 0 100 -25 0 -25 0 0 -122z"/>
<path d="M1622 178 c3 -118 4 -121 26 -123 22 -2 22 0 22 122 l0 123 -25 0
-26 0 3 -122z"/>
<path d="M1970 285 c0 -11 11 -15 40 -15 l40 0 0 -109 c0 -98 2 -109 18 -107
15 3 17 16 18 107 l1 104 36 3 c24 2 37 8 37 18 0 11 -19 14 -95 14 -78 0 -95
-3 -95 -15z"/>
<path d="M2200 182 c0 -65 2 -121 4 -123 2 -2 43 -3 90 -1 66 3 86 7 86 18 0
11 -16 14 -71 14 l-70 0 3 37 3 38 58 3 c42 2 57 7 57 17 0 12 -14 15 -60 15
l-60 0 0 35 0 35 65 0 c51 0 65 3 65 15 0 12 -16 15 -85 15 l-85 0 0 -118z"/>
<path d="M2458 191 c-66 -150 -63 -140 -39 -134 12 3 24 16 27 29 3 13 10 24
15 25 5 0 34 0 64 0 30 0 59 0 64 0 5 -1 14 -14 20 -29 10 -24 41 -41 41 -23
0 3 -23 59 -51 124 -69 156 -77 156 -141 8z m95 16 c9 -23 17 -46 17 -50 0 -4
-20 -7 -45 -7 -25 0 -45 2 -45 4 0 12 42 96 48 96 4 0 15 -19 25 -43z"/>
<path d="M2690 177 c0 -103 2 -124 15 -124 12 0 15 17 15 94 0 55 4 93 10 93
5 0 28 -36 50 -81 48 -94 51 -94 99 11 18 38 37 70 42 70 5 0 9 -42 9 -94 0
-89 1 -94 20 -89 19 5 20 14 20 124 l0 119 -34 0 c-32 0 -35 -3 -64 -69 -17
-38 -36 -72 -41 -76 -6 -3 -27 27 -48 70 -33 66 -41 75 -65 75 l-28 0 0 -123z"/>
</g>
</svg>
