<?xml version="1.0" standalone="no"?>
<!DOCTYPE svg PUBLIC "-//W3C//DTD SVG 20010904//EN"
 "http://www.w3.org/TR/2001/REC-SVG-20010904/DTD/svg10.dtd">
<svg version="1.0" xmlns="http://www.w3.org/2000/svg"
 width="16.000000pt" height="16.000000pt" viewBox="0 0 16.000000 16.000000"
 preserveAspectRatio="xMidYMid meet">
<metadata>
Created by potrace 1.11, written by Peter Selinger 2001-2013
</metadata>
<g transform="translate(0.000000,16.000000) scale(0.005818,-0.005818)"
fill="#000000" stroke="none">
<path d="M815 2609 c-4 -6 27 -46 69 -89 l76 -78 0 -1077 0 -1077 -76 -78
c-42 -43 -73 -83 -69 -89 4 -7 96 -11 281 -11 318 0 313 -2 213 89 -34 31 -67
68 -75 83 -11 22 -14 118 -14 523 l0 495 170 0 170 0 0 -506 0 -506 -76 -78
c-42 -43 -73 -83 -69 -89 4 -7 96 -11 281 -11 235 0 274 2 274 15 0 8 -27 40
-61 72 -33 32 -67 70 -75 85 -21 40 -21 2126 0 2166 8 15 42 53 75 86 34 32
61 64 61 72 0 12 -47 14 -274 14 -185 0 -277 -4 -281 -11 -4 -6 27 -46 69 -89
l76 -78 0 -481 0 -481 -170 0 -170 0 0 470 c0 385 3 476 14 498 8 15 42 53 75
84 98 91 104 88 -213 88 -185 0 -277 -4 -281 -11z"/>
</g>
</svg>
