<?xml version="1.0" standalone="no"?>
<!DOCTYPE svg PUBLIC "-//W3C//DTD SVG 20010904//EN"
 "http://www.w3.org/TR/2001/REC-SVG-20010904/DTD/svg10.dtd">
<svg version="1.0" xmlns="http://www.w3.org/2000/svg"
 width="300.000000pt" height="300.000000pt" viewBox="0 0 300.000000 300.000000"
 preserveAspectRatio="xMidYMid meet">
<metadata>
Created by potrace 1.11, written by Peter Selinger 2001-2013
</metadata>
<g transform="translate(0.000000,300.000000) scale(0.100000,-0.100000)"
fill="#000000" stroke="none">
<path d="M1394 2570 c-43 -72 -95 -156 -115 -188 -20 -31 -145 -237 -279 -457
-133 -220 -253 -416 -265 -435 -13 -19 -157 -255 -320 -525 -164 -269 -317
-522 -341 -561 -24 -39 -44 -74 -44 -77 0 -4 253 -7 563 -7 l562 0 82 133
c163 267 352 576 434 710 46 76 134 220 196 320 61 100 126 206 143 235 l30
52 -23 43 c-37 65 -139 228 -142 225 -6 -9 -512 -837 -729 -1195 -78 -128
-147 -234 -154 -237 -18 -8 -61 14 -64 33 -2 9 29 70 69 136 40 66 77 127 82
135 5 8 56 92 114 185 57 94 162 265 232 380 71 116 189 308 262 429 74 120
133 223 131 230 -7 27 -114 195 -122 193 -5 -2 -14 -12 -20 -23 -6 -10 -25
-41 -42 -69 -41 -67 -147 -240 -287 -470 -64 -104 -131 -215 -150 -245 -19
-30 -91 -147 -159 -260 -69 -113 -184 -302 -257 -420 -72 -118 -139 -220 -149
-226 -25 -16 -60 0 -68 30 -5 21 17 63 115 222 67 108 121 200 121 205 0 5 5
9 10 9 6 0 10 4 10 9 0 4 140 237 311 517 172 280 355 581 409 670 l98 160
-78 127 c-42 70 -79 130 -82 132 -3 3 -41 -53 -84 -125z"/>
<path d="M2067 1644 c-13 -22 -70 -115 -127 -209 -56 -93 -119 -197 -140 -230
-21 -33 -80 -130 -133 -215 -99 -163 -396 -650 -404 -662 -2 -5 78 -8 179 -8
l184 0 41 68 c99 163 368 601 392 637 15 22 35 41 45 43 20 4 56 -24 56 -44 0
-11 -354 -598 -401 -666 -11 -14 -19 -29 -19 -32 0 -4 71 -5 157 -4 l157 3
120 197 c128 208 136 216 183 183 15 -10 20 -21 16 -33 -4 -9 -53 -92 -109
-184 l-102 -168 379 0 c208 0 379 2 379 5 0 3 -6 16 -14 28 -7 12 -102 168
-211 347 -109 179 -208 341 -220 360 -22 33 -124 200 -285 465 -107 176 -94
164 -123 119z"/>
</g>
</svg>
