<?xml version="1.0" standalone="no"?>
<!DOCTYPE svg PUBLIC "-//W3C//DTD SVG 20010904//EN"
 "http://www.w3.org/TR/2001/REC-SVG-20010904/DTD/svg10.dtd">
<svg version="1.0" xmlns="http://www.w3.org/2000/svg"
 width="300.000000pt" height="300.000000pt" viewBox="0 0 300.000000 300.000000"
 preserveAspectRatio="xMidYMid meet">
<metadata>
Created by potrace 1.11, written by Peter Selinger 2001-2013
</metadata>
<g transform="translate(0.000000,300.000000) scale(0.100000,-0.100000)"
fill="#000000" stroke="none">
<path d="M1515 2110 c-88 -55 -163 -101 -166 -102 -3 -2 -9 -15 -13 -31 l-6
-27 71 44 71 44 113 -74 c63 -41 116 -74 119 -74 3 0 23 37 44 83 46 97 73
134 92 122 20 -12 5 -86 -35 -172 -19 -42 -32 -80 -28 -83 5 -4 49 -35 99 -68
l91 -62 89 0 90 0 66 123 66 122 -106 5 -107 5 -194 123 c-106 67 -194 122
-195 121 0 0 -73 -45 -161 -99z"/>
<path d="M1065 1833 c-342 -219 -300 -197 -395 -204 l-85 -6 97 -1 96 -2 211
128 c163 99 212 133 220 155 5 15 9 27 8 27 -1 0 -69 -44 -152 -97z"/>
<path d="M1402 1903 l-27 -28 89 -3 c49 -2 91 0 95 3 3 4 -7 18 -22 31 -40 35
-99 33 -135 -3z"/>
<path d="M2282 1914 c-13 -25 78 -224 102 -224 9 0 16 2 16 5 0 3 -24 57 -54
121 -45 97 -56 113 -64 98z"/>
<path d="M1386 1843 c-3 -3 -6 -19 -6 -35 0 -26 3 -28 40 -28 39 0 40 1 40 33
0 31 -2 34 -34 35 -18 1 -36 -2 -40 -5z"/>
<path d="M1486 1843 c-3 -3 -6 -19 -6 -35 0 -26 3 -28 41 -28 39 0 40 1 37 32
-3 28 -7 33 -34 35 -17 1 -34 0 -38 -4z"/>
<path d="M2225 1789 c-9 -13 -8 -14 43 -26 44 -11 52 -5 26 21 -18 18 -60 21
-69 5z"/>
<path d="M1380 1730 c0 -28 2 -30 40 -30 38 0 40 2 40 30 0 28 -2 30 -40 30
-38 0 -40 -2 -40 -30z"/>
<path d="M1480 1730 c0 -28 2 -30 40 -30 38 0 40 2 40 30 0 28 -2 30 -40 30
-38 0 -40 -2 -40 -30z"/>
<path d="M2220 1725 c0 -28 4 -35 20 -35 15 0 20 7 20 29 0 17 -6 31 -16 35
-24 9 -24 9 -24 -29z"/>
<path d="M2282 1713 c4 -39 28 -42 28 -4 0 21 -5 31 -16 31 -11 0 -14 -8 -12
-27z"/>
<path d="M2220 1650 c0 -23 4 -30 20 -30 25 0 28 45 4 54 -23 9 -24 8 -24 -24z"/>
<path d="M2280 1642 c0 -19 5 -29 15 -29 10 0 15 10 15 29 0 18 -5 28 -15 28
-10 0 -15 -10 -15 -28z"/>
<path d="M2370 1643 l0 -28 102 2 c57 1 104 5 106 10 1 4 -36 9 -82 11 -59 2
-88 7 -96 17 -19 23 -30 18 -30 -12z"/>
<path d="M1693 1463 c-37 -7 -66 -52 -59 -92 7 -43 27 -65 76 -81 22 -7 49
-23 61 -36 21 -22 21 -24 5 -49 -12 -18 -25 -25 -50 -25 -32 0 -66 24 -66 48
0 22 -18 12 -22 -12 -8 -38 6 -49 66 -54 51 -4 57 -2 86 26 32 32 39 76 19
113 -6 11 -37 32 -69 46 -66 28 -82 53 -54 84 24 26 41 24 74 -11 15 -16 31
-30 34 -30 8 0 7 43 -2 57 -8 13 -67 23 -99 16z"/>
<path d="M1883 1430 c-11 -44 -5 -50 22 -20 12 13 31 20 57 20 l38 0 0 -120
c0 -119 0 -120 -25 -126 -45 -11 -26 -19 50 -20 72 -1 97 8 55 19 -19 5 -20
14 -20 126 l0 121 35 0 c29 0 37 -5 46 -26 12 -34 21 -25 23 26 2 38 -6 51
-19 30 -4 -6 -53 -10 -115 -10 -62 0 -111 4 -115 10 -12 19 -21 10 -32 -30z"/>
<path d="M130 1451 c0 -5 9 -11 21 -14 19 -5 20 -12 18 -110 -3 -114 -10 -147
-34 -147 -8 0 -15 -4 -15 -8 0 -4 25 -8 55 -8 30 -1 55 3 55 7 0 5 -6 9 -14 9
-28 0 -33 25 -27 120 l6 95 50 -117 c27 -65 52 -118 55 -118 3 0 25 52 50 115
25 63 48 115 53 115 4 0 7 -45 7 -101 0 -92 -2 -101 -20 -106 -39 -10 -19 -18
50 -18 67 -1 90 7 52 17 -15 4 -20 19 -25 74 -4 38 -7 93 -7 122 0 48 2 54 28
64 27 12 27 12 -17 16 -24 2 -49 1 -56 -1 -6 -3 -29 -48 -51 -101 -21 -53 -42
-96 -45 -96 -4 0 -26 45 -49 100 l-43 100 -49 0 c-26 0 -48 -4 -48 -9z"/>
<path d="M570 1448 c0 -5 9 -8 20 -8 27 0 31 -25 28 -150 -3 -100 -4 -105 -25
-108 -13 -2 -23 -7 -23 -11 0 -3 63 -7 139 -8 l139 -2 4 40 c2 21 1 39 -1 39
-3 0 -15 -12 -27 -27 -19 -24 -29 -27 -80 -28 l-59 0 -3 61 -3 62 42 -1 c37
-1 43 -5 55 -31 13 -30 13 -29 13 34 0 63 0 64 -15 38 -12 -23 -21 -28 -54
-28 l-40 0 0 60 0 60 60 0 c57 0 60 -1 77 -32 l18 -33 3 28 c7 57 4 58 -138
55 -71 -2 -130 -6 -130 -10z"/>
<path d="M920 1450 c0 -5 9 -10 20 -10 12 0 21 -7 21 -17 1 -10 3 -60 5 -112
3 -100 7 -121 23 -121 23 0 33 47 32 147 -2 98 -1 103 19 103 11 0 20 5 20 10
0 6 -30 10 -70 10 -40 0 -70 -4 -70 -10z"/>
<path d="M1160 1451 c0 -6 5 -13 10 -16 6 -3 10 -52 10 -110 0 -95 -2 -106
-22 -125 -23 -21 -43 -22 -123 -8 -13 2 -20 -3 -20 -12 0 -11 15 -16 63 -18
58 -3 65 -1 92 27 30 29 30 31 30 140 0 92 3 111 15 111 8 0 15 5 15 10 0 6
-16 10 -35 10 -19 0 -35 -4 -35 -9z"/>
<path d="M1300 1455 c0 -3 11 -10 25 -15 26 -10 26 -10 24 -129 -1 -117 -1
-119 -25 -125 -54 -14 -17 -21 109 -21 l132 0 3 45 3 45 -28 -33 c-25 -30 -34
-34 -83 -35 l-55 -2 0 124 c0 119 1 124 23 132 38 14 25 19 -53 19 -41 0 -75
-2 -75 -5z"/>
<path d="M2226 1448 c3 -5 14 -8 25 -8 16 0 19 -7 19 -47 1 -27 2 -84 3 -128
1 -73 0 -80 -18 -83 -58 -11 -19 -18 104 -19 135 -1 139 -1 145 20 3 12 6 31
6 42 -1 17 -4 16 -25 -10 -23 -27 -30 -30 -87 -30 l-63 0 0 60 0 60 43 1 c39
1 44 -2 57 -30 13 -31 13 -30 14 32 1 35 -3 62 -9 62 -5 0 -10 -9 -10 -19 0
-22 -19 -31 -66 -31 l-34 0 0 60 0 60 60 0 c57 0 62 -2 78 -30 23 -40 34 -38
30 8 l-3 37 -137 0 c-75 0 -134 -3 -132 -7z"/>
<path d="M2580 1448 c0 -4 10 -8 23 -10 21 -3 22 -6 22 -128 0 -122 -1 -125
-22 -128 -13 -2 -23 -7 -23 -11 0 -4 62 -7 137 -7 l138 1 6 38 c7 44 2 46 -26
11 -17 -21 -32 -28 -73 -32 -29 -2 -57 0 -64 6 -8 6 -13 33 -13 64 l0 53 45 0
c37 0 47 -4 55 -22 16 -37 20 -27 16 34 -3 57 -3 57 -18 30 -12 -25 -19 -28
-55 -25 l-41 3 0 55 0 55 61 3 c60 3 61 2 79 -30 l18 -33 3 28 c7 57 4 58
-138 55 -71 -2 -130 -6 -130 -10z"/>
<path d="M130 950 c0 -5 5 -10 10 -10 13 0 13 -117 0 -125 -20 -12 -9 -21 25
-21 19 0 35 4 35 8 0 4 -4 8 -10 8 -5 0 -10 14 -10 30 0 28 3 30 36 30 37 0
37 0 32 -37 -5 -36 -4 -38 23 -38 22 0 28 4 23 15 -9 21 -9 111 0 133 7 14 3
17 -22 17 -30 0 -31 -1 -25 -35 6 -35 5 -35 -32 -35 -37 0 -38 0 -32 35 5 33
4 35 -24 35 -16 0 -29 -4 -29 -10z"/>
<path d="M365 935 c-50 -50 -23 -130 47 -142 32 -5 41 -1 68 25 16 17 30 40
30 52 0 78 -91 119 -145 65z m85 -5 c23 -23 28 -88 8 -108 -16 -16 -53 -15
-67 2 -7 8 -15 30 -18 49 -4 27 -1 39 16 56 26 26 36 26 61 1z"/>
<path d="M540 951 c0 -6 5 -11 10 -11 6 0 10 -26 10 -59 0 -33 -4 -63 -10 -66
-18 -11 -11 -20 15 -20 26 0 33 9 15 20 -11 6 -9 75 1 75 4 0 17 -24 29 -52
l23 -53 28 60 c15 33 28 56 29 50 3 -15 -1 -68 -5 -85 -4 -11 4 -15 25 -16 17
-1 30 3 30 7 0 5 -4 9 -9 9 -4 0 -9 29 -10 65 -1 39 2 65 9 65 5 0 10 5 10 10
0 6 -9 10 -20 10 -15 0 -28 -16 -47 -55 -15 -30 -30 -55 -33 -55 -3 0 -15 24
-26 53 -17 42 -27 53 -48 55 -14 2 -26 -1 -26 -7z"/>
<path d="M788 885 c3 -51 1 -75 -7 -75 -6 0 -11 -3 -11 -7 0 -5 28 -8 61 -7
46 1 64 5 71 17 10 19 -2 23 -19 6 -18 -18 -56 -6 -60 19 -4 27 21 40 42 22
13 -11 15 -7 15 21 0 26 -3 30 -12 21 -19 -19 -48 -15 -48 8 0 26 27 37 51 21
16 -9 19 -8 19 9 0 17 -7 20 -53 20 l-52 0 3 -75z"/>
<path d="M1026 941 c-23 -26 -13 -57 25 -76 37 -20 40 -55 4 -55 -14 0 -28 7
-31 15 -7 16 -24 21 -24 6 0 -18 31 -41 54 -41 26 0 56 28 56 53 0 9 -16 29
-35 44 -19 15 -35 33 -35 39 0 20 29 24 45 7 19 -18 28 -13 19 11 -9 22 -57
20 -78 -3z"/>
<path d="M1148 949 c14 -16 17 -139 2 -139 -5 0 -10 -3 -10 -7 0 -5 28 -8 62
-7 59 1 63 2 66 25 3 22 3 23 -10 6 -22 -29 -62 -19 -66 16 -3 21 1 27 17 27
10 0 21 -6 24 -12 3 -9 7 -7 12 5 4 9 4 24 1 33 -5 14 -7 14 -22 0 -20 -20
-34 -12 -34 20 0 18 5 24 23 24 13 0 29 -6 36 -12 10 -11 12 -9 9 7 -3 17 -12
20 -63 23 -48 2 -58 1 -47 -9z"/>
<path d="M1304 938 c16 -26 15 -110 -1 -129 -9 -12 0 -14 50 -14 54 0 62 3 65
20 3 16 1 18 -9 8 -7 -7 -24 -13 -37 -13 -24 0 -24 1 -20 75 l3 75 -33 0 c-31
0 -32 -1 -18 -22z"/>
<path d="M1448 948 c15 -15 16 -138 2 -138 -5 0 -10 -3 -10 -7 0 -5 28 -8 62
-8 55 0 63 3 66 20 3 16 1 18 -9 8 -7 -7 -24 -13 -37 -13 -24 0 -24 1 -20 75
l3 75 -34 0 c-27 0 -32 -3 -23 -12z"/>
<path d="M1598 948 c16 -16 16 -138 0 -138 -26 0 4 -13 32 -14 30 -1 39 7 20
19 -5 3 -10 33 -10 66 0 33 4 59 10 59 6 0 10 5 10 10 0 6 -17 10 -37 10 -29
0 -34 -3 -25 -12z"/>
<path d="M1690 950 c0 -5 5 -10 11 -10 8 0 10 -24 8 -73 -4 -69 -3 -72 18 -73
23 -2 32 11 12 18 -6 2 -9 23 -7 50 l3 47 50 -59 c28 -33 53 -60 58 -60 4 0 7
33 7 73 0 43 5 78 12 85 9 9 5 12 -20 12 -18 0 -32 -4 -32 -10 0 -5 5 -10 10
-10 6 0 10 -18 10 -40 0 -22 -3 -40 -7 -40 -5 1 -26 23 -48 50 -26 33 -48 50
-62 50 -13 0 -23 -4 -23 -10z"/>
<path d="M1943 950 c-66 -27 -54 -139 17 -155 52 -11 87 2 92 35 4 26 1 29
-29 32 -18 2 -33 0 -33 -4 0 -4 5 -8 10 -8 6 0 10 -9 10 -20 0 -28 -44 -27
-64 2 -23 32 -20 65 9 93 29 30 39 31 65 5 26 -26 32 -25 28 3 -2 18 -10 22
-43 24 -22 1 -50 -2 -62 -7z"/>
<path d="M2177 953 c-4 -3 -7 -13 -7 -22 0 -12 3 -12 12 -3 7 7 20 12 30 12
15 0 18 -9 18 -65 0 -37 -4 -65 -10 -65 -5 0 -10 -4 -10 -8 0 -4 16 -8 35 -8
34 0 45 9 25 21 -5 3 -10 33 -10 66 0 56 1 59 25 59 14 0 25 -4 25 -10 0 -5 4
-10 8 -10 4 0 8 9 8 20 0 18 -7 20 -71 20 -40 0 -75 -3 -78 -7z"/>
<path d="M2358 949 c14 -16 17 -139 2 -139 -5 0 -10 -3 -10 -7 0 -5 28 -8 62
-7 53 1 64 4 67 20 3 16 1 16 -12 5 -27 -21 -62 -10 -65 22 -3 22 1 27 17 27
12 0 21 -4 21 -10 0 -5 4 -10 8 -10 9 0 8 47 -1 57 -4 3 -7 1 -7 -5 0 -7 -9
-12 -20 -12 -15 0 -20 7 -20 25 0 19 5 25 23 25 13 0 29 -6 36 -12 10 -11 12
-9 9 7 -3 17 -12 20 -63 23 -48 2 -58 1 -47 -9z"/>
<path d="M2561 942 c-6 -10 -20 -45 -31 -76 -12 -31 -26 -56 -31 -56 -5 0 -9
-4 -9 -9 0 -5 11 -8 25 -7 16 0 23 6 20 14 -8 21 6 42 30 42 24 0 38 -21 30
-42 -4 -9 5 -13 25 -14 16 -1 30 3 30 7 0 5 -4 9 -9 9 -5 0 -19 30 -31 68 -27
80 -35 91 -49 64z m19 -63 c0 -5 -7 -9 -15 -9 -15 0 -20 12 -9 23 8 8 24 -1
24 -14z"/>
<path d="M2670 950 c0 -5 5 -10 10 -10 6 0 10 -26 10 -59 0 -33 -4 -63 -10
-66 -17 -11 -11 -20 14 -20 25 0 26 3 11 78 -7 35 13 15 35 -35 l23 -53 29 60
29 60 -4 -55 c-3 -54 -3 -55 25 -55 28 0 36 9 18 20 -5 3 -10 33 -10 66 0 33
4 59 10 59 6 0 10 5 10 10 0 6 -9 10 -20 10 -14 0 -28 -17 -49 -57 l-29 -58
-27 58 c-22 46 -31 57 -51 57 -13 0 -24 -4 -24 -10z"/>
</g>
</svg>
