<?xml version="1.0" standalone="no"?>
<!DOCTYPE svg PUBLIC "-//W3C//DTD SVG 20010904//EN"
 "http://www.w3.org/TR/2001/REC-SVG-20010904/DTD/svg10.dtd">
<svg version="1.0" xmlns="http://www.w3.org/2000/svg"
 width="256.000000pt" height="256.000000pt" viewBox="0 0 256.000000 256.000000"
 preserveAspectRatio="xMidYMid meet">
<metadata>
Created by potrace 1.11, written by Peter Selinger 2001-2013
</metadata>
<g transform="translate(0.000000,256.000000) scale(0.100000,-0.100000)"
fill="#000000" stroke="none">
<path d="M0 1280 l0 -1280 1280 0 1280 0 0 1280 0 1280 -1280 0 -1280 0 0
-1280z m1500 616 c210 -44 351 -172 367 -333 l6 -54 -153 3 -152 3 -13 39
c-37 108 -167 165 -348 154 -94 -6 -148 -26 -194 -70 -28 -27 -33 -39 -33 -78
0 -85 38 -102 353 -150 372 -58 488 -104 550 -218 52 -95 44 -243 -17 -340
-79 -125 -250 -195 -513 -208 -273 -14 -492 44 -609 161 -54 54 -86 121 -99
208 l-7 47 160 0 161 0 11 -42 c16 -58 36 -85 87 -115 90 -52 240 -68 373 -37
84 19 129 47 153 96 15 31 16 43 7 77 -18 68 -84 91 -380 136 -344 52 -443 94
-502 213 -33 68 -33 215 0 287 76 166 280 250 587 240 72 -2 164 -11 205 -19z"/>
</g>
</svg>
