<?xml version="1.0" standalone="no"?>
<!DOCTYPE svg PUBLIC "-//W3C//DTD SVG 20010904//EN"
 "http://www.w3.org/TR/2001/REC-SVG-20010904/DTD/svg10.dtd">
<svg version="1.0" xmlns="http://www.w3.org/2000/svg"
 width="302.000000pt" height="302.000000pt" viewBox="0 0 302.000000 302.000000"
 preserveAspectRatio="xMidYMid meet">
<metadata>
Created by potrace 1.11, written by Peter Selinger 2001-2013
</metadata>
<g transform="translate(0.000000,302.000000) scale(0.100000,-0.100000)"
fill="#000000" stroke="none">
<path d="M810 2368 c-29 -73 -81 -212 -117 -308 -84 -226 -298 -804 -330 -895
-14 -38 -54 -146 -89 -240 -35 -93 -61 -172 -56 -176 4 -4 59 -26 122 -49 215
-79 245 -90 247 -90 1 0 6 15 11 33 5 17 46 145 92 282 104 320 180 556 185
575 4 15 37 111 50 142 5 13 17 -2 47 -60 72 -139 209 -384 316 -567 132 -226
144 -245 159 -245 12 0 171 241 378 575 65 105 137 221 161 259 l43 68 12 -28
c7 -16 17 -42 24 -59 7 -16 90 -237 184 -490 94 -253 175 -466 179 -473 8 -12
35 -3 167 58 38 17 59 27 179 79 30 13 46 26 43 33 -26 63 -222 530 -232 553
-8 17 -72 170 -143 340 -72 171 -158 375 -192 455 -33 80 -76 180 -93 222 -20
48 -38 78 -47 78 -9 0 -55 -67 -110 -160 -52 -88 -103 -173 -112 -188 -10 -15
-21 -33 -25 -41 -9 -20 -247 -416 -317 -530 l-59 -93 -39 68 c-36 61 -302 532
-371 656 -14 25 -59 104 -99 175 -40 70 -77 137 -83 147 -21 41 -34 25 -85
-106z"/>
</g>
</svg>
