<?xml version="1.0" standalone="no"?>
<!DOCTYPE svg PUBLIC "-//W3C//DTD SVG 20010904//EN"
 "http://www.w3.org/TR/2001/REC-SVG-20010904/DTD/svg10.dtd">
<svg version="1.0" xmlns="http://www.w3.org/2000/svg"
 width="300.000000pt" height="300.000000pt" viewBox="0 0 300.000000 300.000000"
 preserveAspectRatio="xMidYMid meet">
<metadata>
Created by potrace 1.11, written by Peter Selinger 2001-2013
</metadata>
<g transform="translate(0.000000,300.000000) scale(0.100000,-0.100000)"
fill="#000000" stroke="none">
<path d="M1257 1933 c-2 -5 -3 -38 -2 -75 1 -38 -2 -68 -5 -68 -4 0 -16 10
-28 23 -20 21 -29 22 -140 22 l-119 0 -83 -75 c-46 -41 -92 -83 -104 -93 -37
-32 -149 -132 -160 -142 -19 -17 -199 -177 -266 -237 -89 -78 -140 -125 -140
-129 0 -2 22 -3 50 -2 49 2 80 20 170 103 17 15 25 23 140 120 36 30 67 57 70
60 3 3 34 29 70 59 36 30 70 59 75 65 6 6 35 31 65 56 30 25 71 60 90 78 l35
32 169 -172 169 -172 85 -1 c94 -1 92 -2 211 111 20 18 41 34 46 34 6 0 26
-15 46 -33 20 -17 57 -50 83 -73 l48 -40 93 0 93 1 4 -32 4 -33 -63 0 -63 0 0
-64 c0 -42 4 -65 13 -68 30 -11 216 0 234 13 10 8 52 41 91 73 80 65 83 65
148 9 16 -14 47 -40 70 -59 l41 -34 149 0 149 1 -46 42 c-25 23 -85 78 -134
122 -48 44 -104 95 -124 113 -178 166 -180 167 -229 167 l-47 1 2 47 c1 31 -3
49 -12 54 -7 5 -57 7 -110 5 l-96 -3 1 -62 c3 -116 4 -113 -32 -72 -23 27 -38
36 -54 32 -18 -3 -51 19 -143 98 l-120 101 -85 -1 -86 -1 0 53 0 53 -109 0
c-61 0 -111 -3 -114 -7z"/>
<path d="M872 1537 c-7 -10 -8 -48 -3 -78 1 -4 20 -6 44 -5 l42 1 0 45 c0 44
0 44 -37 46 -20 1 -41 -3 -46 -9z"/>
<path d="M1012 1501 l3 -46 43 -2 c37 -2 42 1 43 20 0 12 2 32 3 45 3 25 6 24
-52 27 l-43 2 3 -46z"/>
<path d="M868 1423 c-2 -5 -4 -24 -3 -43 1 -34 2 -35 48 -38 l47 -3 0 45 0 46
-44 0 c-25 0 -46 -3 -48 -7z"/>
<path d="M1010 1385 l0 -46 47 3 47 3 0 40 0 40 -47 3 -47 3 0 -46z"/>
<path d="M1603 1394 c-6 -17 6 -36 18 -29 5 4 9 1 9 -4 0 -6 -7 -11 -16 -11
-9 0 -14 -7 -12 -17 2 -10 12 -18 22 -18 18 0 23 23 17 83 -1 14 -32 10 -38
-4z"/>
<path d="M1674 1402 c-14 -10 -11 -37 4 -36 25 2 29 4 29 19 0 16 -19 26 -33
17z"/>
<path d="M1660 1343 c1 -34 41 -42 46 -10 1 12 -5 17 -22 17 -13 0 -24 -3 -24
-7z"/>
<path d="M2230 1219 c0 -27 4 -39 12 -37 18 6 30 61 15 70 -22 14 -27 8 -27
-33z"/>
<path d="M2280 1239 c0 -9 6 -20 13 -22 10 -4 10 -6 0 -6 -11 -1 -20 -31 -9
-31 22 0 31 14 28 44 -4 34 -32 48 -32 15z"/>
</g>
</svg>
