<?xml version="1.0" standalone="no"?>
<!DOCTYPE svg PUBLIC "-//W3C//DTD SVG 20010904//EN"
 "http://www.w3.org/TR/2001/REC-SVG-20010904/DTD/svg10.dtd">
<svg version="1.0" xmlns="http://www.w3.org/2000/svg"
 width="16.000000pt" height="16.000000pt" viewBox="0 0 16.000000 16.000000"
 preserveAspectRatio="xMidYMid meet">
<metadata>
Created by potrace 1.11, written by Peter Selinger 2001-2013
</metadata>
<g transform="translate(0.000000,16.000000) scale(0.005333,-0.005333)"
fill="#000000" stroke="none">
<path d="M597 1943 c-1 -1 -29 -5 -62 -8 -114 -13 -248 -54 -360 -110 -106
-53 -153 -81 -144 -88 2 -2 44 -15 94 -29 50 -14 120 -37 157 -51 59 -23 69
-24 82 -11 19 18 143 81 187 95 106 32 322 44 449 24 19 -3 53 -7 75 -10 21
-3 55 -10 75 -15 19 -5 46 -11 60 -14 42 -7 182 -44 248 -65 268 -86 554 -73
720 33 l43 27 -91 69 c-50 39 -93 70 -96 70 -4 0 -14 -11 -25 -24 -26 -33
-144 -93 -207 -104 -89 -16 -247 0 -412 43 -15 4 -329 99 -385 116 -50 16
-167 40 -220 45 -51 5 -185 10 -188 7z"/>
<path d="M777 1714 c-1 -1 -27 -4 -57 -7 -77 -8 -177 -41 -232 -76 -27 -17
-48 -33 -48 -36 0 -3 21 -15 48 -27 26 -12 85 -44 131 -70 46 -26 86 -48 88
-48 3 0 17 9 31 19 15 10 54 32 87 49 53 26 89 37 185 58 30 6 214 6 250 0 14
-3 48 -7 75 -11 28 -3 87 -15 132 -25 46 -11 93 -22 105 -24 13 -2 68 -18 123
-34 225 -66 314 -81 470 -78 164 3 253 28 362 100 18 11 33 24 33 27 0 4 -26
19 -57 34 -65 30 -120 59 -175 92 -35 21 -37 21 -53 3 -31 -34 -130 -78 -214
-95 -66 -14 -115 -16 -225 -12 -78 3 -154 8 -171 12 -16 3 -64 12 -105 21 -41
8 -109 24 -150 35 -41 11 -109 29 -150 40 -118 31 -255 51 -373 53 -59 1 -108
1 -110 0z"/>
<path d="M1077 1534 c-1 -1 -24 -5 -50 -8 -58 -8 -130 -34 -190 -69 -73 -43
-74 -48 -9 -94 31 -22 80 -61 108 -86 l50 -46 75 45 c121 72 183 89 329 89 69
0 147 -4 173 -8 63 -10 250 -59 352 -92 89 -29 173 -51 223 -60 17 -3 47 -8
65 -11 17 -3 83 -7 146 -9 129 -3 277 19 381 57 84 30 208 99 239 132 23 24
23 26 5 27 -43 2 -82 12 -196 50 l-118 41 -37 -33 c-46 -40 -140 -83 -216 -99
-57 -11 -256 -15 -307 -6 -14 3 -45 7 -70 10 -25 3 -79 12 -120 21 -41 9 -84
18 -95 21 -11 2 -76 20 -145 40 -149 43 -278 74 -340 80 -50 5 -249 12 -253 8z"/>
</g>
</svg>
