<?xml version="1.0" standalone="no"?>
<!DOCTYPE svg PUBLIC "-//W3C//DTD SVG 20010904//EN"
 "http://www.w3.org/TR/2001/REC-SVG-20010904/DTD/svg10.dtd">
<svg version="1.0" xmlns="http://www.w3.org/2000/svg"
 width="300.000000pt" height="300.000000pt" viewBox="0 0 300.000000 300.000000"
 preserveAspectRatio="xMidYMid meet">
<metadata>
Created by potrace 1.11, written by Peter Selinger 2001-2013
</metadata>
<g transform="translate(0.000000,300.000000) scale(0.100000,-0.100000)"
fill="#000000" stroke="none">
<path d="M1390 2641 c0 -6 -13 -8 -30 -6 -16 2 -30 0 -30 -5 0 -4 -10 -8 -22
-9 -58 -2 -88 -7 -88 -13 0 -4 -6 -5 -14 -2 -8 3 -17 0 -21 -5 -3 -6 -11 -9
-16 -6 -5 4 -9 1 -9 -5 0 -6 -4 -8 -10 -5 -5 3 -16 3 -22 -2 -7 -4 -17 -8 -23
-9 -5 -1 -32 -12 -60 -25 -27 -12 -53 -22 -57 -21 -5 1 -8 -3 -8 -9 0 -5 -4
-7 -10 -4 -5 3 -10 1 -10 -5 0 -6 -4 -9 -9 -5 -5 3 -13 0 -17 -6 -3 -6 -22
-17 -40 -25 -19 -8 -34 -19 -34 -24 0 -6 -6 -10 -14 -10 -8 0 -16 -7 -20 -15
-3 -8 -12 -12 -21 -9 -10 4 -15 2 -13 -6 2 -6 -6 -17 -16 -23 -11 -7 -34 -28
-53 -47 -18 -19 -33 -31 -33 -26 0 4 -12 -7 -27 -25 -16 -19 -35 -41 -43 -49
-8 -9 -24 -29 -35 -44 -11 -16 -29 -38 -40 -49 -11 -11 -14 -17 -8 -13 9 5 11
2 7 -8 -3 -9 -10 -13 -15 -10 -5 3 -9 -2 -9 -10 0 -9 -5 -16 -11 -16 -5 0 -7
-4 -4 -10 3 -5 2 -10 -3 -10 -4 0 -14 -16 -22 -35 -7 -19 -20 -37 -27 -40 -8
-2 -12 -9 -8 -15 3 -5 0 -20 -7 -32 -12 -23 -14 -29 -17 -49 0 -5 -5 -8 -10
-5 -4 3 -7 -6 -5 -19 1 -14 -2 -25 -8 -25 -6 0 -8 -7 -4 -15 3 -8 1 -15 -5
-15 -6 0 -7 -4 -4 -10 3 -5 0 -10 -7 -10 -10 0 -10 -2 1 -9 11 -7 10 -12 -2
-32 -9 -13 -14 -36 -13 -52 2 -15 -1 -30 -7 -34 -6 -4 -7 -1 -2 7 5 7 4 11 -1
8 -5 -4 -8 -31 -8 -62 1 -30 -2 -54 -5 -52 -4 3 -7 -4 -7 -14 0 -10 4 -16 9
-13 5 3 4 -3 -1 -13 -15 -28 -15 -36 -1 -45 10 -6 10 -11 1 -21 -6 -8 -7 -19
-2 -28 4 -7 4 -24 -1 -37 -8 -22 -5 -27 15 -24 5 1 4 -5 -3 -13 -7 -9 -9 -21
-5 -28 5 -7 7 -21 6 -31 -2 -10 2 -26 10 -35 11 -13 11 -14 -1 -7 -11 6 -12 5
-5 -6 9 -14 12 -29 17 -64 1 -11 5 -22 9 -25 4 -3 8 -20 10 -37 1 -17 6 -29
10 -27 7 5 13 -26 9 -48 0 -5 3 -8 9 -8 5 0 10 -7 10 -15 0 -8 5 -15 11 -15 5
0 8 -4 5 -9 -6 -9 22 -71 37 -82 5 -3 8 -9 8 -13 -3 -20 0 -26 9 -21 6 3 10
-3 10 -14 0 -12 5 -21 10 -21 6 0 10 -7 10 -15 0 -8 5 -15 10 -15 6 0 10 -6
10 -14 0 -8 7 -17 16 -20 8 -3 13 -10 10 -14 -3 -4 6 -16 20 -26 13 -11 24
-23 24 -28 0 -13 26 -38 39 -38 6 0 10 -6 9 -12 -2 -7 3 -12 10 -10 6 1 12 -3
12 -9 0 -13 38 -49 51 -49 4 0 10 -9 14 -20 3 -11 9 -19 13 -19 20 3 32 -2 27
-11 -3 -6 0 -10 8 -10 7 0 23 -9 35 -20 12 -11 26 -20 32 -20 5 0 10 -4 10 -8
0 -5 16 -14 35 -22 19 -8 35 -18 35 -22 0 -5 5 -6 10 -3 6 3 10 1 10 -5 0 -6
4 -8 10 -5 5 3 10 1 10 -4 0 -6 9 -11 20 -11 11 0 20 -4 20 -10 0 -5 9 -10 20
-10 11 0 20 -6 20 -12 0 -9 4 -8 10 2 6 10 10 11 10 3 0 -7 9 -13 19 -13 11 0
23 -5 26 -11 4 -6 13 -8 21 -5 7 3 16 1 19 -5 4 -5 11 -6 17 -3 6 4 13 2 17
-4 4 -6 21 -12 39 -14 18 -1 32 -6 32 -10 0 -5 8 -4 18 1 13 7 22 7 29 0 5 -5
40 -11 76 -12 37 -1 67 -6 67 -12 0 -5 4 -4 9 3 4 8 12 14 16 14 4 0 12 -6 16
-14 7 -10 9 -10 9 0 0 10 5 10 21 1 13 -6 19 -7 15 -1 -4 7 9 9 34 7 22 -2 40
1 40 5 0 5 16 7 36 6 20 -2 41 3 49 10 10 11 15 11 19 1 5 -9 7 -9 12 1 3 6
10 9 15 6 6 -3 15 -1 22 4 7 5 20 8 30 7 9 -2 17 1 17 7 0 6 9 8 20 5 11 -3
27 1 35 9 8 8 16 14 17 14 2 0 17 4 33 10 17 6 34 10 38 10 4 -1 15 6 23 15 9
8 19 13 24 10 4 -3 11 2 14 11 3 8 10 12 16 9 5 -3 10 -1 10 5 0 6 5 8 10 5 6
-3 10 -1 10 5 0 6 5 8 10 5 6 -3 13 1 16 9 3 9 12 16 20 16 8 0 23 9 34 20 11
11 20 17 20 13 0 -4 7 2 15 13 8 10 15 15 15 11 0 -4 20 13 44 38 24 25 50 45
57 45 7 0 10 2 7 6 -3 3 15 26 41 52 25 26 46 49 46 52 0 3 4 4 9 2 5 -2 6 4
3 12 -4 9 1 17 14 21 10 4 17 11 14 16 -4 5 -1 9 5 9 6 0 9 4 6 9 -3 4 4 17
15 27 11 10 17 24 14 31 -2 8 -1 12 3 9 5 -3 16 8 26 25 9 16 14 29 9 29 -4 0
-2 4 5 8 7 5 15 19 17 33 3 13 9 25 15 27 6 2 8 8 4 13 -3 5 0 9 5 9 6 0 10 3
9 8 -1 4 5 27 12 52 16 54 17 57 19 71 0 5 4 8 9 6 4 -3 7 7 8 21 0 15 4 36 9
46 7 15 5 17 -6 11 -12 -8 -12 -6 0 9 18 21 22 56 7 56 -6 0 -4 4 4 10 8 5 11
12 7 16 -4 4 -2 13 4 21 6 7 8 13 4 13 -4 0 -2 6 4 14 7 8 8 17 3 19 -4 3 -8
47 -7 97 1 50 -2 93 -7 96 -4 3 -5 11 -1 19 3 9 0 22 -6 29 -9 11 -9 16 0 21
8 5 8 9 0 14 -6 4 -11 21 -13 39 -1 18 -5 32 -8 32 -5 0 -7 9 -11 65 -1 13 -5
22 -10 19 -9 -5 -13 9 -10 34 1 6 -2 12 -7 12 -5 0 -9 7 -10 15 -1 8 -3 22 -4
30 -1 8 -5 15 -10 15 -4 0 -8 9 -8 21 0 13 -4 18 -12 13 -8 -5 -9 -2 -5 9 3 9
2 19 -3 22 -5 3 -15 18 -23 33 -37 70 -45 81 -52 74 -5 -4 -5 1 -2 11 4 11 1
17 -9 17 -8 0 -13 4 -10 9 3 5 -1 11 -9 15 -8 3 -15 10 -15 16 0 5 -16 27 -35
47 -19 20 -35 41 -35 45 0 4 -8 8 -17 8 -9 0 -13 3 -10 6 10 10 -34 45 -46 37
-5 -3 -7 -2 -4 4 4 6 -5 21 -18 33 -14 13 -25 19 -25 14 0 -5 -5 -1 -11 9 -5
9 -17 17 -24 17 -8 0 -15 7 -15 16 0 8 -4 12 -10 9 -5 -3 -10 -2 -10 3 0 5
-10 14 -22 21 -13 6 -36 20 -53 30 -16 10 -33 16 -37 14 -5 -2 -8 0 -8 5 0 10
-60 38 -72 34 -5 -1 -8 3 -8 10 0 6 -3 9 -6 6 -3 -4 -24 2 -47 13 -23 10 -52
19 -64 19 -13 0 -23 4 -23 8 0 5 -6 9 -12 10 -50 5 -83 10 -85 12 -2 1 -12 3
-22 4 -11 0 -22 4 -26 8 -4 3 -18 4 -32 2 -18 -3 -23 -1 -17 8 6 11 5 10 -8 0
-13 -10 -17 -10 -21 0 -4 10 -6 10 -6 -1 -1 -11 -4 -11 -16 -1 -12 10 -15 10
-15 0 0 -9 -4 -9 -13 -2 -7 6 -18 7 -27 2 -7 -4 -23 -5 -35 0 -12 5 -28 4 -35
0 -8 -5 -22 -4 -32 1 -12 6 -18 6 -18 0z m-322 -874 c72 -36 117 -81 151 -149
27 -52 29 -67 27 -136 -4 -89 -5 -94 -34 -147 -62 -115 -178 -177 -317 -170
-112 7 -224 75 -271 168 -23 42 -41 115 -39 152 3 50 17 125 24 125 3 0 12 13
19 28 13 30 63 86 98 109 91 59 246 68 342 20z m430 9 c7 -8 44 -69 81 -136
58 -106 130 -220 133 -213 2 4 3 19 2 33 -1 14 0 33 2 42 6 20 141 131 147
120 8 -13 4 -427 -4 -438 -10 -12 -128 -12 -149 1 -8 6 -21 21 -29 34 -7 13
-36 64 -65 113 -28 49 -65 113 -81 143 -17 29 -33 56 -36 59 -3 3 -5 -72 -4
-167 1 -94 0 -177 -2 -182 -3 -9 -106 -13 -144 -6 -10 2 -7 595 3 602 12 8
137 4 146 -5z m362 -1 c0 -5 -15 -20 -34 -33 -18 -12 -48 -36 -66 -52 -18 -16
-36 -27 -41 -25 -4 3 -7 31 -6 63 l1 58 73 -1 c42 0 73 -4 73 -10z m543 6 c4
0 7 -29 5 -63 l-3 -63 -122 -3 -123 -3 0 -49 0 -49 93 -3 92 -3 3 -62 c3 -72
16 -65 -120 -65 l-68 0 0 -54 0 -53 123 -3 122 -3 3 -62 c3 -55 1 -63 -15 -64
-72 -3 -374 0 -381 5 -11 6 -12 589 -1 596 6 4 366 5 392 1z"/>
<path d="M883 1650 c-58 -13 -112 -62 -120 -109 -26 -140 44 -235 168 -230
100 5 172 112 146 219 -20 84 -109 139 -194 120z"/>
</g>
</svg>
