<?xml version="1.0" standalone="no"?>
<!DOCTYPE svg PUBLIC "-//W3C//DTD SVG 20010904//EN"
 "http://www.w3.org/TR/2001/REC-SVG-20010904/DTD/svg10.dtd">
<svg version="1.0" xmlns="http://www.w3.org/2000/svg"
 width="16.000000pt" height="16.000000pt" viewBox="0 0 16.000000 16.000000"
 preserveAspectRatio="xMidYMid meet">
<metadata>
Created by potrace 1.11, written by Peter Selinger 2001-2013
</metadata>
<g transform="translate(0.000000,16.000000) scale(0.000572,-0.000572)"
fill="#000000" stroke="none">
<path d="M13955 17135 c-429 -135 -786 -245 -792 -245 -10 0 -13 31 -13 120
l0 120 -320 0 -320 0 0 -189 c0 -209 -3 -201 68 -201 20 0 42 -4 49 -8 7 -4
-634 -209 -1510 -482 -837 -260 -1571 -489 -1632 -508 l-110 -35 30 -14 c29
-14 153 17 2695 666 l2665 680 2720 -605 c1496 -332 2723 -603 2727 -602 4 2
-524 153 -1175 337 -650 184 -1357 384 -1570 444 -226 64 -383 113 -375 117
19 11 935 270 953 270 8 0 1257 -270 2776 -601 1518 -330 2763 -599 2764 -597
5 5 -5525 1429 -5545 1428 -8 0 -270 -102 -582 -227 l-568 -227 -1068 302
c-587 166 -1072 302 -1077 301 -6 0 -361 -110 -790 -244z"/>
<path d="M4946 16248 c-3 -13 -7 -74 -8 -135 -3 -96 -1 -113 12 -113 10 0 19
17 27 50 13 54 32 85 72 116 22 16 46 20 154 22 l128 4 -3 -487 -3 -487 -33
-29 c-25 -23 -42 -29 -77 -29 -33 0 -45 -4 -45 -15 0 -13 33 -15 240 -15 207
0 240 2 240 15 0 11 -11 15 -40 15 -47 0 -93 21 -106 47 -5 10 -10 235 -12
501 l-3 482 113 0 c98 0 120 -3 158 -22 46 -23 82 -77 95 -140 3 -17 12 -28
22 -28 14 0 15 11 10 98 -4 53 -7 114 -7 135 l0 37 -465 0 -465 0 -4 -22z"/>
<path d="M6040 16256 c0 -9 18 -16 50 -20 35 -5 60 -16 83 -36 l32 -28 3 -414
c4 -488 1 -530 -38 -570 -24 -23 -37 -28 -79 -28 -39 0 -51 -4 -51 -15 0 -13
34 -15 245 -15 211 0 245 2 245 15 0 11 -11 15 -36 15 -53 0 -101 26 -113 62
-7 18 -11 119 -11 245 l0 213 263 -2 262 -3 3 -165 c4 -229 -3 -286 -38 -322
-24 -23 -37 -28 -79 -28 -39 0 -51 -4 -51 -15 0 -13 34 -15 245 -15 211 0 245
2 245 15 0 11 -11 15 -35 15 -62 0 -102 24 -115 67 -8 26 -10 177 -8 494 3
525 -3 490 99 511 36 7 59 17 59 25 0 10 -51 13 -245 13 -201 0 -245 -2 -245
-14 0 -9 18 -16 50 -20 35 -5 60 -16 83 -36 l32 -28 3 -216 4 -216 -267 0
-266 0 3 219 c4 255 3 253 99 273 36 7 59 17 59 25 0 10 -51 13 -245 13 -201
0 -245 -2 -245 -14z"/>
<path d="M7380 16256 c0 -9 17 -16 50 -20 31 -4 60 -16 77 -30 l28 -24 3 -459
c2 -318 0 -470 -8 -496 -13 -43 -53 -67 -115 -67 -24 0 -35 -4 -35 -15 0 -13
55 -15 439 -15 l439 0 46 135 c25 75 46 138 46 140 0 3 -8 5 -17 5 -11 0 -29
-20 -47 -52 -45 -79 -112 -142 -168 -156 -26 -7 -117 -12 -206 -12 -224 0
-206 -23 -210 269 l-3 231 155 0 c218 0 252 -16 271 -127 4 -27 12 -43 21 -43
12 0 14 34 14 200 0 163 -3 200 -14 200 -8 0 -15 -16 -19 -42 -3 -23 -14 -53
-25 -67 -36 -49 -64 -56 -237 -56 l-160 0 -3 223 -2 222 200 0 c218 0 250 -6
287 -54 12 -15 27 -49 34 -76 10 -38 17 -50 32 -50 17 0 19 5 13 38 -3 20 -6
76 -6 125 l0 87 -440 0 c-366 0 -440 -2 -440 -14z"/>
<path d="M10830 15885 c-298 -56 -539 -235 -661 -490 -52 -108 -70 -180 -76
-311 -17 -329 135 -577 501 -818 141 -94 227 -144 601 -356 284 -160 379 -225
466 -318 169 -180 212 -383 120 -577 -143 -304 -547 -415 -963 -265 -234 85
-415 256 -498 472 -32 83 -100 333 -100 369 0 16 -7 19 -50 19 l-50 0 0 -555
0 -555 48 0 47 0 13 53 c33 139 99 154 347 77 404 -125 467 -136 708 -127 173
6 266 24 385 72 266 108 474 327 554 585 20 66 23 95 23 245 0 165 -1 173 -32
258 -45 128 -114 237 -213 337 -124 126 -234 196 -820 520 -338 186 -562 350
-639 467 -118 177 -85 393 83 558 127 125 256 171 461 162 94 -4 139 -11 205
-32 357 -115 560 -359 635 -761 9 -49 18 -99 21 -111 4 -20 11 -23 49 -23 l45
0 0 561 0 560 -46 -3 c-45 -3 -46 -3 -64 -57 -10 -29 -32 -67 -49 -85 -29 -28
-37 -31 -94 -31 -52 0 -85 10 -202 57 -222 88 -318 110 -515 114 -114 2 -188
-1 -240 -11z"/>
<path d="M130 15787 l0 -44 108 -6 c177 -8 283 -64 316 -165 35 -107 37 -172
34 -1422 -3 -1179 -4 -1238 -22 -1293 -41 -125 -141 -184 -328 -194 l-108 -6
0 -43 0 -44 695 0 695 0 0 44 0 43 -112 6 c-183 9 -278 57 -317 161 -34 91
-41 222 -41 756 l0 510 170 0 169 0 553 -760 552 -760 438 0 438 0 0 45 c0 38
-3 45 -22 49 -217 41 -327 78 -420 139 -65 44 -202 180 -281 279 -76 96 -780
1069 -775 1072 1 1 41 13 88 25 194 51 357 139 476 256 203 201 277 475 204
762 -72 280 -333 511 -654 579 -201 42 -285 46 -1083 51 l-773 5 0 -45z m1502
-166 c232 -60 403 -236 463 -476 24 -93 24 -267 2 -355 -33 -124 -81 -206
-181 -305 -73 -73 -108 -99 -177 -133 -150 -74 -379 -117 -589 -110 l-95 3 -3
677 -2 676 92 17 c224 39 353 41 490 6z"/>
<path d="M23608 15793 c7 -3 16 -2 19 1 4 3 -2 6 -13 5 -11 0 -14 -3 -6 -6z"/>
<path d="M23648 15783 c7 -3 16 -2 19 1 4 3 -2 6 -13 5 -11 0 -14 -3 -6 -6z"/>
<path d="M26555 15097 c-73 -15 -76 -21 -73 -138 l3 -101 123 1 c68 1 129 -2
135 -7 7 -6 45 -13 85 -17 l72 -7 1 33 c1 20 3 25 6 14 14 -71 7 -65 91 -65
71 0 188 -23 255 -49 16 -6 31 -11 33 -11 11 0 -53 102 -83 135 -18 19 -33 38
-33 41 0 11 -59 64 -70 64 -5 0 -10 4 -10 9 0 4 -24 21 -52 37 -48 25 -64 28
-162 30 -60 2 -112 7 -115 12 -3 5 -36 14 -72 21 -73 12 -66 12 -134 -2z m290
-74 c11 -21 23 -40 26 -43 4 -3 9 -18 11 -35 3 -16 3 -24 1 -17 -3 6 -9 12
-14 12 -5 0 -9 7 -9 15 0 9 -11 33 -25 55 -27 42 -29 50 -17 50 4 0 16 -17 27
-37z"/>
<path d="M26263 15093 c-24 -2 -43 -8 -43 -14 0 -5 -7 -9 -15 -9 -21 0 -104
-86 -111 -116 -7 -26 -24 -33 -24 -9 0 8 5 15 10 15 6 0 10 5 10 11 0 6 11 25
24 42 45 62 47 61 -36 54 -42 -3 -84 -9 -94 -14 -11 -5 -34 -17 -52 -26 -19
-9 -39 -17 -46 -17 -7 0 -27 -13 -46 -30 -18 -16 -44 -37 -56 -47 -13 -10 -24
-21 -24 -26 0 -4 -10 -18 -22 -30 -26 -25 -58 -82 -58 -102 0 -7 -6 -16 -12
-18 -10 -4 -10 -6 0 -6 8 -1 28 5 45 13 76 33 143 46 233 46 l94 0 0 30 c0 17
5 30 10 30 6 0 10 -9 10 -21 0 -19 4 -20 48 -13 26 3 52 11 59 16 6 5 76 8
155 7 l143 -1 3 108 c1 59 -1 111 -6 116 -10 10 -141 17 -199 11z m-196 -205
c-3 -7 -5 -2 -5 12 0 14 2 19 5 13 2 -7 2 -19 0 -25z"/>
<path d="M25740 14970 c-25 -9 -60 -23 -77 -30 -18 -6 -33 -15 -33 -19 0 -3
-14 -12 -30 -19 -37 -17 -150 -128 -150 -148 0 -8 -4 -14 -10 -14 -5 0 -10 -7
-10 -15 0 -8 -4 -15 -9 -15 -9 0 -25 -49 -18 -57 3 -2 11 2 18 9 24 24 122 62
174 67 45 5 51 9 60 36 16 48 72 133 115 174 59 56 52 63 -30 31z"/>
<path d="M27156 14968 c10 -13 22 -25 25 -28 17 -16 89 -119 89 -128 0 -7 4
-12 8 -12 5 0 14 -15 22 -34 12 -31 19 -35 79 -49 69 -16 132 -38 141 -48 8
-10 50 -21 50 -14 0 4 -6 12 -12 20 -7 7 -22 26 -33 41 -31 45 -159 174 -172
174 -7 0 -13 4 -13 8 0 13 -167 92 -192 92 -6 0 -3 -10 8 -22z"/>
<path d="M4464 14886 c-229 -44 -398 -132 -571 -299 -208 -201 -317 -435 -345
-744 -23 -251 18 -493 116 -698 113 -234 312 -434 532 -531 214 -95 498 -117
734 -58 297 75 571 308 716 609 65 136 100 264 115 433 21 234 -16 470 -105
657 -142 301 -411 533 -711 615 -102 28 -371 37 -481 16z m341 -121 c291 -62
482 -314 552 -730 14 -87 18 -161 17 -360 0 -230 -2 -260 -26 -370 -47 -222
-114 -355 -238 -476 -126 -122 -277 -182 -460 -182 -188 -1 -305 47 -435 178
-97 97 -155 196 -206 350 -62 184 -74 275 -74 555 1 192 4 265 18 339 60 316
203 548 400 648 118 59 303 79 452 48z"/>
<path d="M13285 13933 c-229 -533 -440 -1011 -467 -1063 -27 -53 -67 -117 -89
-143 -39 -45 -68 -59 -196 -93 -7 -2 -13 -17 -13 -34 l0 -30 360 0 360 0 0 29
c0 31 -14 41 -58 41 -58 0 -142 32 -172 67 -53 60 -39 120 104 448 l74 170
445 3 445 2 77 -187 c94 -228 113 -281 120 -341 11 -85 -44 -145 -142 -158
-80 -11 -83 -12 -83 -44 l0 -30 450 0 450 0 0 30 c0 24 -5 31 -27 35 -86 18
-119 27 -143 40 -46 24 -116 111 -162 202 -25 49 -226 523 -449 1056 l-403
967 -32 0 -31 0 -418 -967z m545 -8 c100 -242 185 -446 187 -452 4 -10 -76
-13 -381 -13 -212 0 -386 2 -386 5 0 2 82 192 181 422 100 230 188 433 196
452 8 18 16 32 17 30 2 -2 86 -202 186 -444z"/>
<path d="M5990 14820 c0 -30 1 -30 55 -30 111 0 218 -51 318 -152 l77 -79 0
-859 c0 -582 -4 -875 -11 -910 -21 -99 -93 -148 -230 -157 -79 -6 -79 -6 -79
-34 l0 -29 400 0 400 0 0 29 0 28 -84 6 c-137 10 -194 43 -223 131 -16 46 -18
129 -21 826 -3 770 -3 775 17 755 10 -11 346 -420 746 -910 679 -830 729 -890
761 -893 l33 -3 3 1038 c3 801 7 1047 16 1076 31 92 109 137 239 137 l73 0 0
30 0 30 -400 0 -400 0 0 -30 0 -30 66 0 c94 0 150 -17 194 -59 60 -58 62 -76
58 -874 l-3 -698 -690 843 -690 843 -313 3 -312 2 0 -30z"/>
<path d="M14900 14821 c0 -27 3 -28 54 -34 105 -11 164 -60 210 -173 13 -33
184 -509 379 -1059 196 -550 359 -1008 362 -1017 5 -12 18 -18 36 -18 17 0 32
7 37 18 5 9 121 338 258 730 137 393 250 710 252 705 1 -4 119 -332 260 -728
l257 -720 39 0 38 0 347 1025 c191 564 358 1048 371 1075 48 100 139 165 229
165 28 0 31 3 31 30 l0 30 -340 0 -340 0 0 -30 c0 -29 2 -30 43 -30 68 0 142
-26 171 -61 35 -41 41 -71 28 -143 -11 -62 -482 -1466 -492 -1466 -8 0 -468
1318 -490 1404 -26 105 -26 154 3 197 32 48 79 69 155 69 l62 0 0 30 0 30
-445 0 -445 0 0 -30 c0 -29 2 -30 43 -30 90 0 187 -72 242 -180 14 -28 54
-132 90 -231 l64 -181 -187 -539 c-102 -296 -187 -537 -189 -535 -10 9 -486
1385 -505 1456 l-22 86 20 40 c26 51 89 84 161 84 52 0 53 0 53 30 l0 30 -420
0 -420 0 0 -29z"/>
<path d="M18200 14820 c0 -26 4 -30 28 -30 37 0 159 -60 206 -100 51 -46 80
-86 461 -671 l336 -514 -3 -355 c-4 -374 -7 -398 -52 -449 -33 -38 -101 -63
-187 -68 -79 -6 -79 -6 -79 -34 l0 -29 485 0 485 0 0 29 0 28 -82 6 c-115 9
-182 43 -212 106 -20 44 -21 62 -24 427 l-3 381 312 489 c172 269 331 514 355
545 90 117 216 198 322 207 50 4 52 6 52 33 l0 29 -400 0 -400 0 0 -29 c0 -27
2 -28 60 -34 70 -6 116 -30 148 -78 31 -45 27 -121 -11 -201 -34 -70 -500
-800 -512 -802 -12 -1 -503 756 -541 834 -15 30 -29 76 -32 101 -4 40 -1 50
27 82 38 42 103 67 178 67 52 0 53 0 53 30 l0 30 -485 0 -485 0 0 -30z"/>
<path d="M20780 14820 l0 -30 79 0 c138 0 209 -41 233 -134 10 -40 13 -239 13
-956 l0 -905 -25 -50 c-34 -69 -104 -104 -219 -112 l-81 -6 0 -28 0 -29 880 0
c484 0 880 1 880 3 0 2 43 127 95 278 52 151 95 277 95 282 0 4 -15 7 -34 7
-31 0 -37 -5 -66 -57 -94 -168 -208 -295 -302 -338 -83 -38 -161 -45 -486 -45
-337 0 -357 3 -389 62 -16 30 -18 71 -21 486 l-4 452 301 0 c331 0 377 -6 448
-53 59 -40 80 -83 101 -197 15 -88 16 -90 44 -90 l28 0 0 395 0 395 -29 0
c-27 0 -29 -3 -35 -55 -14 -126 -75 -217 -163 -246 -26 -9 -140 -14 -366 -16
l-327 -4 2 448 3 448 390 0 c439 0 465 -3 543 -71 60 -51 78 -89 122 -261 10
-39 14 -43 42 -43 l31 0 -7 153 c-3 83 -9 196 -13 250 l-6 97 -878 0 -879 0 0
-30z"/>
<path d="M22930 14820 l0 -30 78 0 c60 0 88 -5 127 -24 65 -30 81 -49 100
-121 13 -51 15 -177 15 -932 0 -591 -4 -888 -11 -923 -21 -99 -93 -148 -230
-157 -79 -6 -79 -6 -79 -34 l0 -29 485 0 485 0 0 29 0 28 -80 6 c-96 6 -164
36 -196 84 -37 56 -44 138 -44 539 l0 379 115 1 116 1 387 -533 387 -534 308
0 307 0 0 29 c0 32 -5 35 -80 46 -52 9 -174 51 -210 73 -56 35 -123 97 -183
170 -51 62 -541 732 -569 778 -6 8 18 20 80 39 308 96 462 283 462 560 0 165
-41 266 -155 380 -118 119 -247 172 -470 194 -63 6 -324 11 -627 11 l-518 0 0
-30z m1045 -115 c90 -24 144 -54 206 -115 184 -181 183 -500 -2 -682 -107
-104 -253 -155 -476 -165 l-123 -6 0 476 0 475 73 12 c39 7 77 14 82 15 31 10
189 3 240 -10z"/>
<path d="M27460 14823 c0 -5 13 -21 28 -38 46 -50 92 -112 92 -124 0 -6 4 -11
9 -11 5 0 12 -9 16 -20 6 -18 56 -50 79 -50 6 0 29 -12 49 -26 46 -31 61 -24
24 10 -15 14 -27 28 -27 31 0 8 -47 60 -110 123 -78 78 -160 132 -160 105z"/>
<path d="M25391 14770 c-56 -36 -126 -94 -155 -128 -6 -7 -23 -26 -38 -42 -16
-15 -28 -33 -28 -39 0 -6 -4 -11 -10 -11 -5 0 -12 -11 -16 -25 -3 -14 -10 -25
-15 -25 -5 0 -9 -6 -9 -12 0 -7 11 -2 24 12 63 68 132 110 176 110 24 0 60 34
60 57 0 7 4 13 8 13 4 0 16 20 26 45 11 25 22 45 26 45 4 0 10 9 13 20 3 11 4
20 3 20 -2 0 -31 -18 -65 -40z"/>
<path d="M26191 14609 c-57 -67 -101 -127 -101 -138 0 -5 -4 -11 -8 -13 -9 -3
-62 -111 -62 -125 0 -5 -8 -16 -17 -24 -34 -30 -125 -150 -152 -199 -16 -30
-81 -161 -104 -210 l-16 -35 0 31 c-1 17 6 48 14 67 19 45 19 61 2 54 -15 -6
-37 69 -37 122 0 30 22 40 123 58 l49 8 4 58 4 57 -50 0 c-27 0 -61 -5 -75
-12 -34 -16 -45 0 -45 67 0 74 -3 72 143 91 l47 7 0 45 0 45 -68 -6 c-37 -3
-79 -10 -92 -15 -95 -37 -111 -47 -116 -68 -10 -39 2 -527 14 -561 6 -20 7
-33 1 -33 -15 0 -199 182 -199 197 0 7 4 13 9 13 16 0 121 114 121 131 0 10 5
21 10 24 20 12 11 94 -14 133 -38 60 -64 76 -122 77 -59 0 -107 -23 -144 -68
-24 -30 -25 -34 -23 -196 2 -163 9 -244 33 -369 11 -57 14 -62 34 -56 30 9 30
8 17 76 -16 84 -24 148 -18 148 3 0 42 -36 87 -80 l82 -81 61 7 c34 4 69 7 77
7 8 0 21 4 27 9 7 6 23 8 35 5 13 -3 43 -2 67 1 36 6 47 13 65 44 26 46 138
211 147 218 3 3 9 15 13 28 4 12 12 22 17 22 5 0 9 6 9 14 0 13 23 63 67 151
52 100 145 221 212 275 17 14 31 28 31 32 0 5 -28 8 -62 8 -61 -1 -64 -2 -97
-41z m-755 -235 c43 -12 59 -106 27 -161 -18 -32 -81 -73 -111 -73 -17 0 -20
10 -26 69 -10 104 -2 134 42 153 43 20 41 19 68 12z"/>
<path d="M26360 14513 c-49 -49 -90 -93 -90 -98 0 -4 -10 -17 -22 -29 -26 -25
-108 -143 -108 -156 0 -5 -3 -10 -7 -12 -11 -4 -43 -67 -43 -84 0 -8 -4 -14
-10 -14 -5 0 -12 -16 -16 -35 -3 -19 -10 -38 -15 -41 -5 -3 -9 -14 -9 -25 0
-10 -10 -30 -22 -45 -13 -14 -26 -33 -30 -43 -7 -20 10 -20 87 0 36 10 43 17
70 75 17 35 33 64 36 64 4 0 9 8 13 18 3 9 15 31 26 47 11 17 23 37 27 45 3 8
15 22 25 31 10 9 18 21 18 26 0 12 112 133 123 133 4 0 7 -97 7 -215 l0 -215
48 0 c35 0 52 5 65 20 9 11 17 23 17 26 0 2 18 29 40 59 22 30 40 58 40 64 0
5 3 11 8 13 4 2 23 23 42 48 19 25 39 50 45 56 5 7 32 37 58 68 68 79 80 76
73 -21 -3 -43 -7 -139 -9 -213 l-2 -135 58 -3 57 -3 0 318 0 319 -33 12 c-40
14 -67 15 -67 3 0 -6 -11 -22 -25 -37 -14 -16 -43 -48 -63 -72 -20 -24 -48
-56 -62 -71 -14 -15 -41 -47 -60 -71 -48 -62 -62 -79 -86 -109 l-22 -25 6 197
5 197 -40 0 c-21 0 -44 5 -51 12 -8 8 -33 -11 -102 -79z"/>
<path d="M27033 14414 c-1 -166 -21 -432 -35 -458 -13 -25 -2 -33 64 -39 l56
-5 6 46 c4 26 9 69 12 95 l6 48 46 -7 c26 -3 51 -10 57 -15 5 -5 17 -9 26 -9
44 0 26 -46 -43 -111 -45 -43 -48 -65 -10 -72 15 -3 36 -8 47 -12 13 -4 28 1
43 15 l22 21 11 -25 c12 -27 43 -40 117 -50 42 -6 43 -5 37 16 -16 55 -30 88
-36 88 -4 0 -10 11 -13 25 -4 14 -11 25 -16 25 -16 0 -11 25 10 50 21 25 47
21 56 -7 3 -10 9 -27 13 -38 24 -62 41 -126 41 -151 0 -30 44 -84 68 -84 13 0
14 15 9 93 -8 103 -42 243 -68 272 -11 11 -12 42 -1 47 7 3 58 78 79 116 24
44 26 86 5 110 -26 29 -34 28 -56 -10 -11 -17 -27 -41 -37 -52 -10 -12 -27
-32 -38 -46 l-20 -25 -35 40 c-20 22 -36 44 -36 48 0 4 -11 18 -25 31 -14 13
-25 28 -25 35 0 6 -4 11 -8 11 -4 0 -12 13 -18 29 -6 16 -26 35 -44 45 -35 17
-64 21 -58 8 2 -4 19 -41 39 -82 55 -112 69 -146 69 -164 0 -9 3 -16 8 -16 4
0 15 -18 26 -39 18 -38 18 -40 0 -65 -22 -29 -34 -33 -34 -11 0 43 -65 198
-122 292 -64 107 -83 123 -143 123 l-52 0 0 -136z m132 -64 c3 -11 11 -20 16
-20 5 0 9 -4 9 -10 0 -5 14 -32 30 -58 17 -27 30 -60 29 -73 0 -13 -3 -18 -6
-11 -2 6 -10 12 -16 12 -7 0 -29 5 -49 11 l-38 10 0 79 c0 76 11 103 25 60z"/>
<path d="M25902 13940 c-16 -26 -15 -30 7 -30 27 0 37 19 19 36 -11 12 -15 11
-26 -6z"/>
<path d="M26200 13553 c-19 -3 -39 -9 -44 -14 -6 -5 -18 -9 -27 -9 -10 0 -22
-12 -27 -27 -9 -24 -11 -25 -11 -7 -1 12 -8 25 -17 28 -25 9 -212 7 -218 -3
-3 -5 -26 -12 -51 -15 -25 -4 -46 -13 -46 -19 -3 -25 2 -53 13 -74 6 -12 7
-29 3 -40 -6 -13 -11 -4 -18 37 -6 30 -15 58 -21 62 -36 24 -216 -4 -258 -40
-19 -16 -25 -72 -8 -72 6 0 10 -9 10 -20 0 -11 5 -20 10 -20 6 0 10 -7 10 -16
0 -9 6 -28 14 -42 36 -69 96 -200 96 -209 0 -6 3 -13 8 -15 10 -4 42 -67 42
-83 0 -7 3 -15 8 -17 4 -1 19 -27 34 -56 37 -71 62 -116 68 -122 3 -3 21 -36
40 -75 19 -38 38 -72 41 -75 4 -3 26 -36 49 -75 23 -38 45 -72 49 -75 10 -8
31 -43 37 -62 4 -10 10 -18 14 -18 4 0 11 -11 14 -25 4 -14 11 -25 16 -25 6 0
10 -7 10 -15 0 -8 4 -15 10 -15 5 0 12 -11 16 -25 3 -14 10 -25 14 -25 4 0 10
-8 14 -17 6 -19 27 -54 37 -63 3 -3 14 -21 25 -40 10 -19 22 -37 25 -40 3 -3
9 -12 12 -20 4 -8 16 -30 27 -47 11 -18 17 -33 14 -33 -7 0 -43 43 -44 52 0 4
-27 50 -61 103 -33 53 -63 104 -66 113 -4 9 -14 24 -23 32 -10 8 -20 25 -24
38 -4 12 -11 22 -16 22 -4 0 -11 11 -14 25 -4 14 -11 25 -16 25 -6 0 -10 7
-10 15 0 8 -4 15 -9 15 -5 0 -11 8 -15 18 -6 18 -27 53 -37 62 -3 3 -14 21
-25 40 -10 19 -25 41 -31 48 -7 7 -13 20 -13 28 0 8 -3 14 -7 14 -5 0 -17 19
-28 43 -11 23 -22 44 -25 47 -3 3 -16 26 -30 53 -42 80 -66 124 -89 162 -11
20 -21 43 -21 51 0 8 -4 14 -9 14 -5 0 -12 14 -16 30 -4 17 -10 30 -14 30 -3
0 -15 23 -26 50 -11 28 -23 50 -27 50 -4 0 -8 7 -8 16 0 14 -44 118 -71 166
-5 10 -9 25 -9 33 0 35 -171 6 -178 -30 -4 -16 24 -93 38 -105 3 -3 21 -36 39
-75 19 -38 37 -72 40 -75 3 -3 15 -22 25 -42 11 -21 22 -38 26 -38 5 0 10 -10
14 -23 3 -12 13 -32 23 -43 20 -23 40 -52 50 -74 4 -8 17 -26 30 -40 13 -14
23 -28 23 -33 0 -4 5 -13 10 -20 21 -25 46 -56 65 -83 11 -16 38 -51 60 -79
22 -27 58 -75 80 -105 21 -30 47 -63 57 -73 10 -10 18 -21 18 -26 0 -4 8 -16
18 -27 10 -10 38 -46 62 -79 25 -33 51 -66 58 -73 6 -7 12 -18 12 -23 0 -6 10
-21 23 -34 32 -35 41 -46 62 -82 11 -18 23 -33 26 -33 4 0 10 -8 13 -18 4 -10
15 -28 27 -40 11 -12 15 -22 10 -22 -6 0 -36 35 -67 78 -32 42 -61 79 -66 80
-4 2 -8 8 -8 13 0 9 -8 21 -37 54 -7 7 -13 17 -13 20 0 6 -56 82 -70 95 -12
12 -60 79 -60 85 0 4 -13 20 -30 37 -16 16 -30 33 -30 37 0 4 -8 16 -17 27
-10 10 -38 46 -63 79 -25 33 -47 62 -50 65 -15 15 -70 90 -70 95 0 4 -6 13
-12 20 -30 33 -38 45 -38 55 0 5 -4 10 -8 10 -4 0 -16 15 -27 33 -10 17 -21
34 -24 37 -10 9 -31 44 -37 63 -4 9 -10 17 -15 17 -5 0 -9 7 -9 15 0 8 -4 15
-10 15 -5 0 -12 11 -16 25 -3 14 -10 25 -14 25 -4 0 -11 11 -14 25 -4 14 -11
25 -16 25 -6 0 -10 5 -10 11 0 12 -31 81 -39 89 -4 3 -18 28 -32 55 -22 42
-30 50 -52 48 -30 -2 -77 -44 -77 -68 0 -9 11 -33 25 -53 14 -20 25 -42 25
-49 0 -7 3 -13 8 -13 4 0 23 -27 41 -60 19 -33 39 -60 43 -60 4 0 8 -7 8 -15
0 -8 3 -15 8 -15 4 0 16 -16 26 -35 11 -19 23 -35 28 -35 4 0 8 -6 8 -13 0 -8
9 -25 21 -38 46 -54 55 -65 72 -92 10 -16 28 -40 40 -54 12 -15 41 -49 65 -77
23 -28 76 -87 117 -131 41 -44 84 -92 97 -106 86 -99 129 -148 175 -198 29
-31 53 -59 53 -63 0 -4 10 -17 23 -30 12 -13 38 -43 57 -68 19 -25 42 -50 50
-57 8 -6 11 -15 7 -19 -4 -5 -11 -4 -15 2 -4 6 -25 33 -47 59 -63 75 -69 82
-95 115 -14 18 -43 52 -65 75 -22 23 -52 57 -65 75 -14 17 -53 60 -87 95 -35
36 -63 66 -63 69 0 2 -24 29 -52 58 -29 30 -64 69 -78 87 -14 18 -36 45 -50
60 -14 14 -43 50 -65 80 -22 30 -50 66 -62 79 -12 13 -25 33 -28 43 -4 11 -11
19 -16 19 -5 0 -9 6 -9 13 0 7 -10 24 -22 38 -29 32 -47 59 -54 82 -4 9 -10
17 -14 17 -4 0 -15 17 -26 38 -10 20 -21 39 -24 42 -3 3 -19 27 -36 53 -30 46
-32 48 -48 31 -20 -20 -16 -66 9 -90 8 -9 15 -22 15 -30 0 -8 5 -14 10 -14 6
0 10 -7 10 -15 0 -8 4 -15 10 -15 5 0 12 -11 16 -25 3 -14 10 -25 14 -25 4 0
11 -8 14 -17 10 -29 59 -102 98 -148 9 -11 26 -31 37 -45 37 -45 85 -101 129
-148 23 -26 42 -50 42 -53 0 -4 47 -54 105 -113 58 -59 105 -108 105 -109 0
-1 -5791 -1 -12870 1 l-12870 2 0 -875 0 -875 13960 0 13960 0 0 875 0 875
-359 0 -359 0 37 38 c142 150 181 193 181 201 0 5 3 11 8 13 6 3 41 42 99 110
12 15 30 39 40 55 17 27 26 38 72 92 12 13 21 27 21 31 0 3 8 15 18 26 23 27
41 55 48 77 4 9 9 17 13 17 4 0 15 17 26 38 11 20 24 40 28 43 5 3 11 25 14
48 7 53 -16 56 -43 6 -10 -19 -22 -35 -26 -35 -5 0 -8 -6 -8 -14 0 -8 -3 -16
-7 -18 -5 -1 -30 -36 -57 -75 -27 -40 -53 -73 -58 -73 -4 0 -8 -5 -8 -11 0 -6
-6 -17 -12 -24 -26 -29 -38 -44 -38 -49 0 -2 -16 -21 -35 -42 -19 -20 -35 -41
-35 -45 0 -5 -13 -22 -30 -39 -16 -17 -30 -33 -30 -36 0 -3 -6 -11 -12 -19 -7
-7 -24 -28 -38 -46 -14 -18 -34 -42 -45 -54 -11 -11 -35 -38 -54 -60 -61 -72
-155 -176 -221 -246 -36 -38 -76 -83 -89 -100 -42 -53 -172 -182 -178 -176 -3
3 18 29 46 57 28 28 51 53 51 55 0 2 45 50 100 107 55 57 100 106 100 109 0 4
26 34 58 66 31 33 76 82 99 109 22 27 51 59 62 71 12 12 21 25 21 29 0 4 16
21 35 40 19 18 35 37 35 43 0 5 15 25 33 45 19 19 42 47 53 61 20 28 58 75 87
108 9 11 17 24 17 28 0 8 25 41 56 73 5 6 19 26 29 44 11 17 23 32 27 32 4 0
8 7 8 15 0 8 4 15 10 15 5 0 12 11 16 25 3 14 9 25 13 25 12 0 41 58 41 83 0
18 -10 31 -36 46 -19 12 -39 19 -44 16 -4 -3 -18 -24 -30 -47 -12 -24 -25 -45
-29 -48 -3 -3 -15 -22 -26 -42 -11 -21 -23 -38 -27 -38 -5 0 -8 -6 -8 -14 0
-8 -6 -21 -12 -28 -7 -7 -22 -30 -32 -51 -11 -20 -22 -37 -26 -37 -5 0 -11
-11 -14 -25 -4 -14 -11 -25 -16 -25 -6 0 -10 -7 -10 -15 0 -8 -3 -15 -8 -15
-4 0 -16 -16 -26 -35 -11 -19 -22 -35 -26 -35 -5 0 -11 -11 -14 -25 -4 -14
-11 -25 -16 -25 -6 0 -10 -5 -10 -10 0 -6 -5 -16 -10 -23 -6 -7 -36 -48 -67
-92 -32 -44 -65 -89 -75 -99 -10 -11 -18 -23 -18 -26 0 -4 -9 -18 -21 -31 -11
-13 -30 -37 -42 -52 -12 -16 -28 -35 -34 -42 -7 -8 -13 -16 -13 -20 0 -3 -16
-23 -35 -43 -19 -20 -35 -40 -35 -44 0 -4 -13 -21 -30 -38 -16 -17 -30 -33
-30 -36 0 -6 -16 -25 -62 -74 -21 -22 -38 -41 -38 -44 0 -3 -26 -33 -58 -66
-42 -43 -64 -59 -75 -54 -22 8 -23 6 18 70 19 30 35 56 35 58 0 7 133 221 141
226 4 3 11 18 14 33 4 15 11 27 15 27 4 0 10 8 14 18 5 17 26 52 36 62 3 3 14
23 25 45 11 22 22 42 25 45 7 7 29 43 37 60 4 8 9 17 12 20 3 3 15 22 25 43
11 20 23 37 28 37 4 0 8 7 8 16 0 17 27 71 48 92 6 7 12 20 12 28 0 8 3 14 8
14 4 0 12 10 18 23 24 50 79 152 85 157 4 3 9 15 13 28 4 12 12 22 17 22 5 0
9 7 9 15 0 8 5 15 10 15 6 0 10 7 10 15 0 8 9 32 21 53 l21 37 -7 -35 c-4 -19
-11 -37 -15 -40 -5 -3 -12 -18 -15 -33 -4 -15 -11 -27 -16 -27 -5 0 -9 -7 -9
-15 0 -8 -4 -15 -10 -15 -5 0 -12 -11 -16 -25 -3 -14 -10 -25 -15 -25 -5 0 -9
-7 -9 -15 0 -9 -18 -44 -40 -79 -22 -35 -40 -68 -40 -75 0 -6 -3 -11 -8 -11
-4 0 -16 -20 -27 -45 -11 -25 -23 -45 -26 -45 -4 0 -9 -10 -13 -23 -3 -12 -13
-32 -23 -43 -17 -19 -27 -35 -70 -116 -10 -18 -20 -35 -23 -38 -3 -3 -14 -24
-25 -47 -11 -24 -23 -43 -27 -43 -5 0 -8 -7 -8 -15 0 -8 -4 -15 -10 -15 -5 0
-12 -11 -16 -25 -3 -14 -10 -25 -15 -25 -5 0 -9 -6 -9 -14 0 -8 -6 -21 -12
-28 -7 -7 -22 -29 -32 -48 -11 -19 -22 -37 -25 -40 -4 -3 -12 -16 -18 -30 -7
-14 -24 -43 -38 -65 -14 -22 -28 -47 -32 -55 -3 -8 -9 -17 -12 -20 -9 -7 -41
-67 -41 -75 0 -10 99 88 100 98 0 4 23 30 50 57 28 27 50 54 50 60 0 5 18 28
40 50 22 22 40 43 40 46 0 4 15 23 33 44 43 49 58 69 81 105 11 17 25 35 31
40 6 6 36 44 65 85 30 41 60 81 67 88 7 7 13 16 13 20 0 4 11 20 25 36 14 16
25 34 25 40 0 7 9 18 20 26 11 8 20 20 20 26 0 7 6 19 13 26 14 17 35 47 44
68 4 8 10 17 13 20 4 3 27 37 51 75 24 39 47 72 51 73 4 2 8 8 8 14 0 6 20 43
45 82 25 40 45 78 45 84 0 7 5 12 10 12 16 0 11 33 -8 56 -26 32 -55 44 -109
44 -46 -1 -49 -2 -65 -39 -10 -20 -18 -43 -18 -49 0 -7 -4 -12 -10 -12 -5 0
-10 -8 -11 -17 0 -10 -3 -13 -5 -6 -3 6 3 31 14 55 40 90 38 96 -32 128 -56
25 -108 33 -161 26 -37 -6 -45 -11 -46 -29 -1 -21 -1 -21 -8 2 -3 13 -15 29
-26 35 -11 6 -22 14 -25 18 -3 4 -32 12 -65 18 -149 28 -208 25 -220 -13 -7
-21 -8 -21 -12 6 -4 22 -9 27 -33 27 -16 0 -32 5 -35 10 -4 6 -60 10 -135 10
-75 0 -131 -4 -135 -10 -3 -5 -15 -10 -26 -10 -18 0 -19 -15 -22 -667 l-2
-668 -3 668 c-2 635 -3 667 -20 667 -10 0 -22 4 -27 9 -11 10 -173 20 -225 14z
m-81 -130 c-1 -44 -3 -51 -8 -28 -6 29 -3 85 5 85 2 0 3 -26 3 -57z m740 -10
c-1 -41 -2 -44 -8 -18 -7 28 -4 65 5 65 2 0 3 -21 3 -47z m336 -47 c-4 -25
-11 -46 -15 -46 -4 0 -11 -20 -14 -45 -7 -45 -26 -63 -26 -25 0 11 4 20 9 20
5 0 12 20 15 45 4 24 11 47 17 50 5 4 9 18 9 32 0 15 3 24 6 21 3 -4 2 -27 -1
-52z m-1408 -38 c-3 -7 -5 -2 -5 12 0 14 2 19 5 13 2 -7 2 -19 0 -25z m1050
-30 c-2 -13 -4 -3 -4 22 0 25 2 35 4 23 2 -13 2 -33 0 -45z m-697 17 c0 -19
-4 -35 -10 -35 -5 0 -10 16 -10 35 0 19 5 35 10 35 6 0 10 -16 10 -35z m-313
-71 c8 -23 13 -50 10 -60 -3 -14 -5 -11 -6 8 0 14 -5 28 -10 30 -5 2 -12 26
-15 53 -3 28 -3 41 0 30 3 -11 12 -39 21 -61z m320 -61 c-2 -16 -4 -3 -4 27 0
30 2 43 4 28 2 -16 2 -40 0 -55z m683 42 c0 -14 -4 -25 -10 -25 -5 0 -10 11
-10 25 0 14 5 25 10 25 6 0 10 -11 10 -25z m310 -25 c0 -11 -4 -20 -10 -20 -5
0 -10 -10 -10 -22 0 -12 -3 -19 -6 -16 -8 9 7 78 17 78 5 0 9 -9 9 -20z
m-1267 -96 c3 -6 2 -16 -4 -24 -6 -11 -9 -8 -9 13 0 15 -4 27 -10 27 -12 0
-14 33 -3 44 5 4 11 -6 14 -22 3 -16 8 -33 12 -38z m934 4 c-2 -13 -4 -3 -4
22 0 25 2 35 4 23 2 -13 2 -33 0 -45z m-638 -5 c-1 -41 -2 -44 -8 -18 -7 28
-4 65 5 65 2 0 3 -21 3 -47z m941 11 c0 -8 -4 -14 -10 -14 -5 0 -10 9 -10 21
0 11 5 17 10 14 6 -3 10 -13 10 -21z m-34 -86 c-9 -17 -16 -37 -16 -45 0 -7
-4 -13 -10 -13 -5 0 -10 6 -10 14 0 8 5 18 10 21 6 3 10 15 10 26 0 10 5 19
10 19 6 0 11 10 11 23 1 16 2 18 6 5 2 -10 -3 -32 -11 -50z m-289 -10 c-2 -13
-4 -3 -4 22 0 25 2 35 4 23 2 -13 2 -33 0 -45z m-900 15 c-3 -10 -5 -4 -5 12
0 17 2 24 5 18 2 -7 2 -21 0 -30z m303 -28 c0 -19 -4 -35 -10 -35 -5 0 -10 16
-10 35 0 19 5 35 10 35 6 0 10 -16 10 -35z m-280 -15 c0 -11 -4 -20 -10 -20
-5 0 -10 9 -10 20 0 11 5 20 10 20 6 0 10 -9 10 -20z m867 -62 c-3 -20 -4 -21
-11 -5 -5 9 -5 29 0 45 7 25 8 26 11 5 3 -13 3 -33 0 -45z m-860 0 c-3 -7 -5
-2 -5 12 0 14 2 19 5 13 2 -7 2 -19 0 -25z m1123 10 c0 -18 -2 -20 -9 -8 -6 8
-7 18 -5 22 9 14 14 9 14 -14z m-838 -37 c0 -23 -2 -45 -6 -48 -3 -4 -6 18 -6
47 0 29 3 51 6 48 3 -3 5 -25 6 -47z m813 -25 c-4 -20 -11 -36 -16 -36 -5 0
-9 -11 -9 -25 0 -14 -4 -25 -9 -25 -5 0 -12 -18 -16 -40 -4 -22 -10 -40 -15
-40 -5 0 -11 -18 -15 -40 -4 -22 -11 -40 -16 -40 -5 0 -9 -9 -9 -21 0 -11 -4
-18 -9 -15 -9 6 7 65 20 76 4 3 10 21 14 40 4 19 11 40 14 45 4 6 16 33 26 60
10 28 22 54 26 60 5 5 9 18 9 29 0 10 3 17 6 14 3 -3 2 -22 -1 -42z m-1059
-23 c8 -17 13 -39 13 -50 -1 -16 -2 -16 -6 -1 -2 9 -13 34 -23 55 -10 21 -16
42 -12 47 3 6 7 3 10 -4 2 -8 10 -29 18 -47z m801 -25 c-2 -13 -4 -3 -4 22 0
25 2 35 4 23 2 -13 2 -33 0 -45z m-540 -55 c-2 -16 -4 -5 -4 22 0 28 2 40 4
28 2 -13 2 -35 0 -50z m525 -30 c-7 -36 -12 -27 -11 20 0 30 3 36 8 23 4 -11
6 -30 3 -43z m-742 -3 c4 0 11 -18 15 -40 4 -22 11 -40 16 -40 5 0 9 -11 9
-25 0 -14 4 -25 10 -25 5 0 13 -18 16 -40 4 -22 10 -40 15 -40 5 0 9 -8 9 -18
0 -10 4 -22 10 -28 6 -6 6 -15 0 -24 -8 -13 -10 -13 -10 1 0 9 -7 30 -15 45
-8 16 -15 37 -15 47 0 9 -4 17 -10 17 -5 0 -10 9 -10 19 0 11 -4 22 -9 25 -5
3 -12 23 -16 43 -4 21 -11 40 -15 43 -4 3 -10 21 -13 40 -2 19 -2 27 0 18 2
-10 8 -18 13 -18z m240 -46 c0 -19 -4 -34 -10 -34 -5 0 -10 18 -10 41 0 24 4
38 10 34 6 -3 10 -22 10 -41z m490 -25 c0 -24 -4 -38 -10 -34 -17 10 -11 75 7
75 2 0 3 -18 3 -41z m-483 -91 c-2 -13 -4 -3 -4 22 0 25 2 35 4 23 2 -13 2
-33 0 -45z m460 -20 c-2 -13 -4 -3 -4 22 0 25 2 35 4 23 2 -13 2 -33 0 -45z
m178 -12 c-4 -20 -11 -36 -15 -36 -5 0 -11 -10 -13 -22 -2 -13 -2 -5 0 17 2
22 8 42 13 43 6 2 10 13 10 25 0 11 3 18 6 15 3 -3 2 -22 -1 -42z m-618 -68
c-3 -22 -4 -21 -11 4 -5 16 -5 36 0 45 7 16 8 15 11 -4 3 -13 3 -33 0 -45z
m433 18 c0 -19 -4 -38 -10 -41 -6 -4 -10 10 -10 34 0 23 5 41 10 41 6 0 10
-15 10 -34z m135 -68 c-4 -18 -11 -39 -15 -48 -22 -44 -40 -92 -40 -105 0 -8
-4 -15 -10 -15 -5 0 -10 -6 -10 -12 0 -7 -8 -32 -17 -55 -18 -43 -33 -56 -33
-28 0 8 5 15 10 15 6 0 10 9 10 20 0 11 4 20 9 20 5 0 12 18 16 40 4 22 11 40
16 40 5 0 9 11 9 25 0 14 4 25 9 25 5 0 12 12 15 28 8 30 29 82 34 82 2 0 0
-14 -3 -32z m-704 -18 c5 0 9 -8 9 -18 0 -10 4 -22 10 -28 6 -6 6 -15 0 -24
-8 -13 -10 -13 -10 1 0 9 -7 30 -15 45 -8 16 -14 38 -14 49 2 17 2 17 6 -2 2
-13 9 -23 14 -23z m159 -7 c0 -12 -4 -25 -10 -28 -6 -4 -10 11 -10 37 0 31 3
39 10 28 5 -8 10 -25 10 -37z m387 -25 c-2 -13 -4 -3 -4 22 0 25 2 35 4 23 2
-13 2 -33 0 -45z m-380 -90 c-2 -13 -4 -3 -4 22 0 25 2 35 4 23 2 -13 2 -33 0
-45z m360 0 c-2 -13 -4 -3 -4 22 0 25 2 35 4 23 2 -13 2 -33 0 -45z m-471 -15
c8 -17 14 -36 14 -42 0 -6 5 -11 10 -11 6 0 10 -11 10 -25 0 -14 4 -25 10 -25
5 0 12 -16 16 -35 3 -19 10 -35 15 -35 5 0 9 -8 9 -18 0 -10 4 -22 9 -27 5 -6
12 -21 16 -35 7 -22 6 -23 -9 -8 -9 9 -16 24 -16 32 0 9 -4 16 -9 16 -5 0 -12
18 -16 40 -4 22 -10 40 -15 40 -4 0 -11 11 -14 25 -4 14 -18 50 -31 80 -14 29
-25 62 -24 72 0 14 2 14 6 3 2 -8 11 -29 19 -47z m131 -75 c-3 -22 -4 -21 -11
4 -5 16 -5 36 0 45 7 16 8 15 11 -4 3 -13 3 -33 0 -45z m333 22 c0 -16 -4 -32
-10 -35 -6 -4 -10 10 -10 35 0 25 4 39 10 35 6 -3 10 -19 10 -35z m-193 -162
c-2 -24 -4 -5 -4 42 0 47 2 66 4 43 2 -24 2 -62 0 -85z m-130 60 c-2 -13 -4
-5 -4 17 -1 22 1 32 4 23 2 -10 2 -28 0 -40z m300 -10 c-2 -13 -4 -3 -4 22 0
25 2 35 4 23 2 -13 2 -33 0 -45z m69 -30 c-9 -17 -16 -35 -16 -40 0 -5 -7 -16
-15 -24 -19 -19 -19 -14 0 22 8 16 15 37 15 47 0 9 5 17 10 17 6 0 11 10 11
23 1 16 2 18 6 5 2 -10 -3 -32 -11 -50z m-349 -35 c-3 -10 -5 -2 -5 17 0 19 2
27 5 18 2 -10 2 -26 0 -35z m260 -10 c-3 -10 -5 -2 -5 17 0 19 2 27 5 18 2
-10 2 -26 0 -35z m-22237 -497 c95 -217 183 -411 197 -431 15 -23 35 -38 54
-42 16 -3 29 -12 29 -19 0 -11 -39 -14 -215 -14 -130 0 -215 4 -215 10 0 5 17
12 38 15 46 8 66 18 70 37 1 8 -14 53 -34 101 l-36 87 -154 0 -153 0 -15 -27
c-34 -68 -47 -126 -35 -155 11 -27 25 -34 78 -40 14 -2 26 -9 29 -15 3 -10
-31 -13 -147 -13 -155 0 -181 7 -117 34 18 8 45 29 59 48 20 26 233 487 358
776 10 23 22 42 27 42 5 0 87 -178 182 -394z m5865 365 c74 -31 98 -29 110 9
3 11 13 20 21 20 11 0 14 -26 14 -145 0 -113 -3 -145 -13 -145 -7 0 -21 24
-30 53 -34 106 -136 187 -237 187 -88 0 -140 -42 -140 -112 0 -58 42 -97 188
-173 171 -89 223 -130 258 -201 53 -109 31 -218 -63 -304 -92 -84 -213 -103
-353 -55 -40 14 -82 25 -92 25 -10 0 -30 -11 -44 -25 -14 -14 -29 -25 -34 -25
-6 0 -10 67 -10 165 0 140 2 165 15 165 8 0 15 -8 15 -17 0 -26 53 -133 84
-170 39 -47 138 -93 198 -93 92 0 158 53 158 127 0 77 -33 108 -217 202 -208
107 -281 218 -239 363 19 65 83 134 148 160 70 28 179 23 263 -11z m3169 -366
c94 -215 182 -407 195 -428 15 -25 33 -40 52 -44 16 -3 29 -12 29 -19 0 -11
-38 -14 -210 -14 -131 0 -210 4 -210 10 0 9 17 15 64 22 10 2 24 11 30 20 11
19 4 45 -40 144 l-24 54 -154 0 -153 0 -27 -61 c-45 -105 -28 -159 51 -159 23
0 33 -5 33 -15 0 -13 -23 -15 -145 -15 -112 0 -145 3 -145 13 0 7 15 19 34 25
24 9 44 28 64 60 15 26 104 217 197 425 93 207 173 376 178 374 6 -2 87 -178
181 -392z m9295 88 c228 -521 246 -555 295 -564 11 -2 21 -10 24 -16 3 -10
-44 -13 -212 -13 -125 0 -216 4 -216 9 0 5 15 12 33 16 63 13 67 15 67 46 0
16 -14 63 -32 104 l-32 75 -154 0 -153 0 -25 -55 c-50 -109 -40 -154 36 -164
24 -3 45 -12 48 -18 3 -10 -31 -13 -147 -13 -151 0 -183 8 -124 31 63 24 67
31 278 504 163 366 163 365 173 365 4 0 67 -138 141 -307z m3759 285 c47 -9
66 -17 69 -29 5 -19 51 -39 89 -39 24 0 24 -2 24 -94 l0 -94 -92 -6 c-51 -3
-145 -8 -208 -10 l-116 -5 -27 107 c-15 59 -27 117 -27 128 0 26 28 33 209 52
7 1 43 -3 79 -10z m-25453 -13 c108 -29 173 -101 182 -203 3 -35 0 -74 -7 -97
-17 -51 -88 -121 -139 -136 -23 -7 -41 -14 -41 -16 0 -12 246 -346 267 -363
14 -11 34 -20 44 -20 11 0 19 -7 19 -15 0 -13 -22 -15 -142 -15 l-143 1 -140
199 c-123 176 -143 199 -167 200 l-28 0 0 -169 c0 -189 0 -191 73 -200 22 -3
42 -12 45 -18 3 -10 -47 -13 -227 -13 -209 0 -262 6 -215 24 9 3 28 6 43 6 15
0 36 6 47 14 18 14 19 31 22 368 2 194 0 368 -3 386 -5 26 -14 37 -40 48 -19
8 -46 14 -60 14 -14 0 -25 5 -25 10 0 6 103 10 288 10 227 0 300 -3 347 -15z
m1853 -112 c-2 -85 -7 -128 -15 -130 -6 -2 -14 11 -18 29 -18 83 -68 142 -139
163 -28 9 -90 15 -143 15 l-93 0 0 -180 0 -180 28 0 c15 0 45 9 68 19 45 21
76 72 89 149 4 26 12 41 18 39 9 -3 12 -68 12 -232 0 -164 -3 -229 -12 -232
-6 -2 -14 13 -18 39 -17 101 -79 168 -155 168 l-33 0 5 -165 c6 -205 6 -205
118 -205 153 0 239 47 292 160 35 75 63 94 53 38 -6 -40 -35 -236 -35 -243 0
-3 -173 -5 -385 -5 -355 0 -448 7 -347 24 63 12 70 16 81 48 12 33 16 694 5
736 -8 27 -52 52 -94 52 -16 0 -30 5 -30 10 0 6 132 10 375 10 l376 0 -3 -127z
m3072 117 c0 -5 -16 -10 -35 -10 -54 0 -93 -24 -100 -63 -3 -17 -5 -186 -3
-374 2 -264 6 -345 16 -355 15 -15 207 -19 254 -5 47 13 99 68 135 142 18 38
33 77 33 87 0 12 8 18 21 18 17 0 20 -5 15 -27 -3 -16 -11 -85 -17 -155 l-12
-128 -394 0 c-367 0 -462 7 -350 25 81 14 77 -9 77 415 0 426 4 406 -79 417
-23 3 -41 10 -41 14 0 5 108 9 240 9 153 0 240 -4 240 -10z m2960 -120 c0
-101 -3 -130 -13 -130 -7 0 -19 22 -26 51 -15 56 -57 111 -105 136 -21 11 -66
18 -143 21 l-113 5 0 -182 0 -181 23 0 c12 0 40 9 63 19 46 21 78 74 90 149 4
26 12 42 20 42 12 0 14 -43 14 -235 0 -186 -3 -235 -13 -235 -8 0 -18 23 -25
56 -20 99 -73 154 -147 154 l-25 0 0 -168 c0 -213 -4 -207 137 -200 80 4 107
10 151 32 57 29 111 94 133 158 11 34 39 54 39 28 0 -14 -30 -221 -35 -247
l-5 -23 -385 0 c-233 0 -385 4 -385 9 0 6 21 13 46 17 88 13 84 -6 84 413 0
422 3 409 -83 418 -26 3 -47 10 -47 14 0 5 169 9 375 9 l375 0 0 -130z m3140
10 c0 -96 -3 -120 -14 -120 -8 0 -17 12 -21 28 -26 109 -90 162 -193 162 l-62
0 0 -380 c0 -429 -3 -410 78 -424 23 -3 42 -11 42 -16 0 -6 -85 -10 -230 -10
-145 0 -230 4 -230 10 0 5 19 13 42 16 81 14 78 -5 78 425 l0 382 -74 -5
c-107 -7 -150 -42 -178 -145 -7 -24 -18 -43 -25 -43 -10 0 -13 29 -13 120 l0
120 400 0 400 0 0 -120z m3178 3 c-3 -132 -16 -154 -43 -73 -33 98 -88 140
-185 140 l-60 0 0 -385 0 -385 23 -14 c12 -8 39 -18 60 -21 89 -17 22 -25
-198 -25 -140 0 -235 4 -235 9 0 6 20 13 43 16 89 14 87 2 87 434 l0 371 -60
0 c-105 0 -159 -37 -191 -132 -29 -88 -39 -72 -39 61 l0 121 400 0 401 0 -3
-117z m1552 -14 c0 -143 -9 -160 -39 -72 -40 118 -84 145 -248 151 l-113 4 0
-182 0 -183 43 7 c74 11 119 64 135 156 4 24 13 45 20 48 9 3 12 -50 12 -233
0 -183 -3 -236 -12 -233 -7 3 -16 23 -20 45 -9 55 -43 119 -73 139 -13 9 -42
18 -65 21 l-40 6 0 -167 c0 -206 0 -206 118 -206 151 0 244 53 296 169 25 57
46 78 46 49 0 -7 -7 -70 -17 -140 l-17 -128 -383 0 c-357 0 -450 7 -342 25 82
14 79 -3 79 418 0 422 4 403 -79 414 -23 3 -41 10 -41 14 0 5 167 9 370 9
l370 0 0 -131z m2770 10 c0 -130 -10 -149 -37 -69 -33 100 -88 140 -193 140
l-61 0 3 -379 c3 -429 0 -413 84 -426 24 -3 44 -10 44 -16 0 -5 -95 -9 -235
-9 -140 0 -235 4 -235 9 0 6 20 13 44 16 84 13 81 -3 84 427 l3 380 -75 -4
c-56 -2 -82 -9 -103 -24 -37 -28 -71 -78 -83 -126 -19 -70 -30 -41 -30 82 l0
120 395 0 395 0 0 -121z m1630 -10 c0 -143 -9 -160 -39 -72 -40 118 -84 145
-248 151 l-113 4 0 -182 0 -183 43 7 c74 11 119 64 135 156 4 24 13 45 20 48
9 3 12 -50 12 -233 0 -183 -3 -236 -12 -233 -7 3 -16 23 -20 45 -9 55 -43 119
-73 139 -13 9 -42 18 -65 21 l-40 6 0 -167 c0 -206 0 -206 118 -206 151 0 244
53 296 169 25 57 46 78 46 49 0 -7 -7 -70 -17 -140 l-17 -128 -383 0 c-357 0
-450 7 -342 25 82 14 79 -3 79 418 0 422 4 403 -79 414 -23 3 -41 10 -41 14 0
5 167 9 370 9 l370 0 0 -131z m3124 -102 c55 -127 111 -257 124 -287 l24 -54
117 284 117 285 182 3 c102 1 182 -1 182 -6 0 -5 -18 -12 -41 -15 -83 -11 -79
9 -79 -418 l0 -379 23 -14 c12 -8 39 -18 60 -21 89 -17 22 -25 -198 -25 -219
0 -288 8 -197 24 20 4 44 9 53 12 36 10 39 50 37 404 l-3 345 -158 -381 c-87
-209 -162 -387 -167 -395 -6 -9 -12 -10 -19 -4 -5 6 -82 179 -171 385 -89 206
-164 377 -166 379 -2 2 -4 -149 -4 -337 l0 -341 23 -27 c14 -16 38 -29 62 -33
21 -3 40 -12 43 -19 3 -9 -32 -12 -152 -12 -86 0 -156 4 -156 9 0 11 25 21 51
21 11 0 31 11 44 25 l25 24 0 369 c0 417 4 398 -79 409 -23 3 -41 10 -41 14 0
5 82 9 183 9 l182 0 99 -233z m2343 -89 c-3 -8 -6 -5 -6 6 -1 11 2 17 5 13 3
-3 4 -12 1 -19z m-97 -13 c0 -8 -4 -15 -10 -15 -5 0 -7 7 -4 15 4 8 8 15 10
15 2 0 4 -7 4 -15z m-73 -37 c-3 -7 -5 -2 -5 12 0 14 2 19 5 13 2 -7 2 -19 0
-25z m150 -30 c-3 -7 -5 -2 -5 12 0 14 2 19 5 13 2 -7 2 -19 0 -25z m-206
-118 c12 0 19 7 19 20 0 19 1 19 25 -2 24 -21 25 -26 25 -140 l0 -118 -48 0
c-62 0 -69 13 -80 138 -7 85 -6 92 10 92 15 0 18 10 20 58 l2 57 3 -52 c3 -45
7 -53 24 -53z m112 -237 c-7 -2 -19 -2 -25 0 -7 3 -2 5 12 5 14 0 19 -2 13 -5z"/>
<path d="M4038 11479 l-66 -149 129 0 c71 0 129 3 129 6 0 5 -119 286 -123
291 -1 1 -32 -66 -69 -148z"/>
<path d="M13072 11479 c-35 -78 -61 -143 -59 -146 2 -2 61 -2 129 -1 l125 3
-61 142 c-33 79 -63 143 -66 143 -3 0 -33 -64 -68 -141z"/>
<path d="M22456 11590 c-8 -19 -37 -84 -64 -145 l-50 -110 125 -3 c69 -1 127
-1 130 1 4 4 -84 214 -111 264 l-15 28 -15 -35z"/>
<path d="M710 11669 l0 -192 77 7 c134 11 183 60 183 183 0 138 -54 192 -192
193 l-68 0 0 -191z"/>
</g>
</svg>
