<?xml version="1.0" standalone="no"?>
<!DOCTYPE svg PUBLIC "-//W3C//DTD SVG 20010904//EN"
 "http://www.w3.org/TR/2001/REC-SVG-20010904/DTD/svg10.dtd">
<svg version="1.0" xmlns="http://www.w3.org/2000/svg"
 width="300.000000pt" height="300.000000pt" viewBox="0 0 300.000000 300.000000"
 preserveAspectRatio="xMidYMid meet">
<metadata>
Created by potrace 1.11, written by Peter Selinger 2001-2013
</metadata>
<g transform="translate(0.000000,300.000000) scale(0.100000,-0.100000)"
fill="#000000" stroke="none">
<path d="M1445 2524 c-144 -30 -276 -117 -326 -217 -37 -71 -59 -149 -66 -224
l-6 -73 44 23 c203 107 415 123 535 40 24 -16 61 -30 94 -34 32 -5 89 -25 135
-49 72 -36 273 -173 351 -239 17 -14 40 -33 50 -41 10 -8 42 -34 70 -58 27
-23 53 -42 56 -42 10 0 21 90 23 188 8 295 -163 557 -437 668 -150 61 -382 87
-523 58z"/>
<path d="M764 2510 c-102 -26 -137 -43 -189 -91 -85 -78 -122 -174 -142 -364
-11 -103 -8 -138 18 -180 l23 -39 9 34 c25 97 87 179 167 220 59 30 204 69
265 71 29 1 58 5 63 8 5 3 17 31 25 61 28 95 96 187 191 256 l29 21 -30 -2
c-17 -1 -66 3 -109 7 -162 18 -246 17 -320 -2z"/>
<path d="M2395 2168 c78 -147 107 -305 85 -468 -5 -41 -12 -93 -14 -114 -4
-30 7 -71 45 -174 76 -206 78 -257 22 -422 -22 -63 -44 -124 -48 -134 -8 -19
-7 -19 22 -1 41 24 243 222 330 323 87 102 130 201 119 279 -3 27 -8 75 -11
108 -27 270 -188 488 -459 620 -39 19 -83 37 -98 41 l-27 6 34 -64z"/>
<path d="M889 2086 c-2 -2 -26 -7 -52 -10 -70 -10 -154 -44 -195 -80 -38 -33
-86 -126 -98 -191 -4 -22 -8 -80 -9 -130 -2 -94 -8 -148 -30 -252 -7 -34 -9
-65 -5 -70 5 -4 38 -69 75 -143 106 -211 152 -274 268 -359 137 -101 303 -161
459 -167 78 -3 188 8 228 22 8 3 -23 25 -80 56 -80 43 -202 120 -260 165 -181
140 -265 229 -322 344 -105 211 -125 345 -73 491 15 42 34 85 44 95 46 51 79
101 86 130 4 19 19 41 36 54 45 32 38 49 -19 49 -27 0 -51 -2 -53 -4z"/>
<path d="M1298 2045 c-2 -2 -22 -6 -46 -10 -128 -19 -311 -156 -363 -271 -25
-54 -32 -103 -32 -198 1 -69 5 -88 36 -150 19 -39 44 -92 55 -117 11 -25 46
-77 78 -115 32 -38 59 -71 61 -73 2 -2 6 -1 9 2 4 4 1 35 -6 69 -7 35 -16 106
-19 158 l-6 94 -39 8 c-45 10 -76 33 -76 58 0 21 57 74 160 147 81 58 296 193
307 193 3 0 17 8 31 19 33 23 131 59 180 67 21 3 40 8 44 11 18 10 -25 63 -69
84 -42 21 -64 24 -175 26 -69 0 -128 0 -130 -2z"/>
<path d="M275 1979 c-87 -43 -195 -123 -212 -159 -31 -63 -27 -200 11 -379 28
-131 128 -376 172 -421 12 -12 14 -11 14 11 0 61 57 186 128 281 30 40 35 56
38 110 2 35 12 119 22 187 l18 124 -34 41 c-39 46 -69 106 -86 174 -6 25 -15
47 -21 48 -5 2 -28 -6 -50 -17z"/>
<path d="M1746 1909 c-16 -12 -44 -24 -64 -26 -35 -4 -61 -18 -51 -27 2 -2 65
-34 139 -70 143 -70 295 -161 354 -212 44 -38 62 -83 47 -113 -10 -18 -29 -25
-101 -35 l-25 -3 0 -144 c0 -120 -3 -150 -19 -181 -10 -21 -15 -45 -12 -54 16
-43 129 82 200 221 94 185 94 287 0 380 -66 64 -260 205 -332 239 -98 48 -105
49 -136 25z"/>
<path d="M1319 1678 c-129 -82 -243 -153 -254 -158 -17 -8 -16 -9 10 -10 72
-5 987 -1 992 3 2 3 -28 24 -69 48 -40 23 -143 85 -228 137 -85 52 -169 103
-186 112 l-30 18 -235 -150z"/>
<path d="M2355 1430 c-4 -30 -18 -82 -30 -116 -26 -69 -82 -186 -94 -194 -4
-3 -48 -53 -99 -112 -99 -115 -124 -137 -249 -221 -280 -189 -541 -239 -807
-156 -33 10 -62 16 -64 14 -7 -7 27 -74 74 -146 91 -140 172 -182 347 -180
139 1 202 8 337 37 63 13 126 27 140 30 105 21 224 94 281 171 24 32 65 82 92
110 70 73 84 99 141 258 39 111 50 155 52 211 4 121 -34 249 -94 324 l-20 24
-7 -54z"/>
<path d="M1201 1450 c-4 -3 -7 -100 -7 -216 l1 -212 25 -20 c45 -37 219 -142
234 -142 13 0 16 28 18 192 l3 192 88 0 c49 1 91 -2 93 -5 2 -4 4 -108 4 -233
1 -146 5 -226 11 -226 15 0 186 118 226 156 l34 33 -3 243 -3 243 -358 0
c-197 0 -362 -2 -366 -5z"/>
<path d="M395 1178 c-63 -130 -79 -198 -79 -348 -1 -143 11 -234 42 -310 10
-25 89 -108 127 -133 85 -55 331 -87 446 -57 66 17 139 43 139 50 0 4 -19 31
-41 61 -23 30 -59 91 -81 137 -33 69 -45 85 -78 102 -64 33 -294 330 -330 427
-34 93 -71 163 -86 163 -7 0 -34 -42 -59 -92z"/>
<path d="M52 1151 c-17 -56 -15 -111 8 -151 57 -104 71 -142 76 -207 2 -37 11
-91 20 -119 17 -55 74 -137 113 -163 23 -15 24 -15 14 4 -20 39 -43 210 -47
350 -1 30 -10 51 -32 78 -17 21 -54 85 -82 142 -29 58 -53 105 -55 105 -2 0
-9 -17 -15 -39z"/>
<path d="M2853 1073 c-82 -96 -241 -251 -358 -348 -66 -55 -147 -127 -180
-161 -33 -33 -95 -87 -138 -119 -43 -32 -75 -60 -73 -63 6 -5 160 -3 197 3 23
3 45 6 214 21 83 7 149 41 227 119 87 85 199 343 197 454 -1 62 -18 132 -35
138 -5 2 -28 -18 -51 -44z"/>
</g>
</svg>
