<?xml version="1.0" standalone="no"?>
<!DOCTYPE svg PUBLIC "-//W3C//DTD SVG 20010904//EN"
 "http://www.w3.org/TR/2001/REC-SVG-20010904/DTD/svg10.dtd">
<svg version="1.0" xmlns="http://www.w3.org/2000/svg"
 width="300.000000pt" height="300.000000pt" viewBox="0 0 300.000000 300.000000"
 preserveAspectRatio="xMidYMid meet">
<metadata>
Created by potrace 1.11, written by Peter Selinger 2001-2013
</metadata>
<g transform="translate(0.000000,300.000000) scale(0.100000,-0.100000)"
fill="#000000" stroke="none">
<path d="M1348 2995 c-2 -1 -28 -6 -58 -9 -81 -10 -204 -41 -296 -75 -529
-195 -892 -639 -979 -1200 -14 -85 -14 -361 -1 -426 4 -16 14 -66 22 -110 9
-44 30 -118 46 -165 212 -604 774 -1006 1408 -1008 112 0 208 8 280 23 14 2
50 10 80 16 240 49 530 214 719 408 274 280 418 624 426 1016 6 271 -38 469
-157 705 -228 455 -645 750 -1158 819 -60 8 -324 13 -332 6z m435 -151 c311
-63 602 -247 815 -516 11 -14 5 -19 -50 -45 -72 -34 -119 -71 -159 -125 l-27
-38 -29 40 c-31 41 -90 93 -133 115 -54 28 -157 55 -229 61 -151 11 -172 11
-175 5 -2 -3 15 -27 37 -52 95 -104 186 -206 210 -235 l27 -31 -65 -5 c-103
-9 -211 -67 -326 -177 l-94 -90 115 -2 c63 -1 133 -3 155 -4 22 -1 53 -3 69
-4 27 -1 28 -2 13 -19 -24 -27 -63 -120 -76 -182 -6 -30 -13 -99 -15 -152 l-4
-97 81 67 c44 37 144 120 221 184 78 65 144 118 147 118 10 0 -11 -133 -32
-205 -31 -103 -80 -193 -149 -274 l-21 -25 -422 -1 c-232 0 -428 1 -434 3 -10
3 -13 72 -13 298 l0 295 60 -41 59 -40 16 25 c8 14 22 37 31 52 16 26 16 27
-12 47 -84 62 -833 566 -851 573 -7 3 -41 -16 -76 -41 -36 -25 -68 -46 -72
-46 -30 0 191 233 298 313 78 58 216 141 223 135 4 -4 -73 -77 -210 -200 l-41
-37 42 -42 42 -43 108 100 c59 54 118 110 130 123 13 13 25 22 28 19 3 -3 -15
-49 -40 -102 -25 -54 -45 -100 -45 -104 0 -4 24 -16 53 -28 l52 -20 51 105 52
106 -2 -267 c-1 -148 0 -269 3 -269 21 -5 103 -4 106 1 2 3 5 128 7 277 2 149
6 269 9 267 3 -1 27 -57 54 -123 l48 -120 50 19 c27 10 52 21 55 24 3 3 -17
59 -45 123 -28 65 -49 119 -48 121 2 2 60 -52 130 -120 69 -68 130 -123 135
-123 5 0 26 15 48 34 l39 35 -126 123 -126 123 60 -24 c59 -23 309 -125 454
-185 41 -17 75 -31 76 -31 1 0 12 23 25 51 18 38 21 52 12 58 -7 4 -141 59
-297 122 -157 63 -285 119 -285 125 0 25 22 29 110 22 50 -4 127 -14 173 -24z
m-443 6 c0 -6 -17 -29 -37 -51 -31 -31 -49 -42 -95 -51 -51 -11 -63 -10 -104
8 -26 10 -49 24 -51 30 -2 6 30 20 74 33 147 41 213 50 213 31z m-712 -707
c61 -43 190 -132 287 -198 l175 -120 0 -332 c0 -259 -3 -333 -12 -334 -55 -5
-286 -3 -298 2 -13 6 -15 40 -14 217 0 136 -3 215 -10 224 -17 23 -86 63 -140
81 -104 36 -204 16 -297 -57 l-57 -44 0 -199 c0 -109 -1 -205 -1 -213 -1 -14
-30 -18 -83 -11 -11 2 -28 73 -45 191 -9 64 -5 266 7 344 18 121 19 125 56
236 l36 105 131 92 c73 50 137 92 143 92 6 1 61 -34 122 -76z m1528 21 c47
-27 86 -69 113 -123 18 -36 35 -91 27 -91 -2 0 -54 57 -116 126 -115 129 -119
143 -24 88z m467 2 c-73 -88 -179 -205 -190 -210 -9 -3 -8 5 2 33 33 93 76
145 157 188 58 31 64 29 31 -11z m120 -83 c8 -16 18 -38 21 -50 7 -21 5 -22
-46 -16 -29 3 -55 7 -57 9 -3 3 59 80 66 83 1 1 9 -11 16 -26z m-621 -184 l43
-12 -40 -17 c-39 -16 -55 -17 -204 -11 -33 1 -19 13 37 32 59 20 112 23 164 8z
m645 -8 c46 -13 65 -30 36 -32 -93 -6 -144 -2 -183 12 -44 17 -44 18 -20 27
32 12 112 9 167 -7z m-517 -106 c0 -7 -253 -215 -258 -211 -6 6 29 68 60 107
38 47 105 84 196 108 1 1 2 -1 2 -4z m360 -35 c19 -10 47 -29 62 -43 29 -27
88 -114 88 -130 0 -8 -50 23 -82 53 -9 8 -53 44 -97 80 -44 36 -80 68 -81 72
0 9 68 -11 110 -32z m241 -9 c3 -1 6 -7 6 -13 0 -7 3 -33 6 -57 4 -24 5 -42 4
-40 -2 2 -18 29 -35 60 -34 60 -35 57 19 50z m-205 -231 l214 -175 -4 -45 c-3
-25 -8 -58 -11 -74 -13 -63 4 -60 -314 -61 l-290 0 15 23 c94 143 154 324 154
464 0 31 4 48 11 46 6 -2 107 -82 225 -178z m-2045 43 l54 -28 2 -180 c1 -99
-2 -182 -7 -185 -6 -4 -238 -5 -261 -1 -3 1 -6 83 -6 184 0 199 -2 192 62 222
46 22 96 18 156 -12z m2183 -538 c-4 -11 -25 -58 -48 -105 l-41 -85 -1194 0
-1194 0 -20 35 c-27 48 -76 163 -72 170 2 3 582 5 1289 5 1281 0 1286 0 1280
-20z m-184 -321 c0 -15 -73 -104 -127 -154 l-58 -55 -917 0 -918 1 -51 49
c-28 28 -71 76 -96 108 l-44 57 1105 0 c608 0 1106 -3 1106 -6z m-350 -330 c0
-6 -132 -83 -173 -103 -95 -43 -223 -85 -301 -97 -21 -3 -48 -8 -60 -11 -37
-9 -339 -12 -401 -3 -163 22 -272 54 -400 117 -59 29 -165 91 -165 97 0 1 338
2 750 2 413 0 750 -1 750 -2z"/>
</g>
</svg>
