<?xml version="1.0" standalone="no"?>
<!DOCTYPE svg PUBLIC "-//W3C//DTD SVG 20010904//EN"
 "http://www.w3.org/TR/2001/REC-SVG-20010904/DTD/svg10.dtd">
<svg version="1.0" xmlns="http://www.w3.org/2000/svg"
 width="300.000000pt" height="300.000000pt" viewBox="0 0 300.000000 300.000000"
 preserveAspectRatio="xMidYMid meet">
<metadata>
Created by potrace 1.11, written by Peter Selinger 2001-2013
</metadata>
<g transform="translate(0.000000,300.000000) scale(0.100000,-0.100000)"
fill="#000000" stroke="none">
<path d="M1335 2718 c-223 -34 -440 -125 -590 -248 -73 -60 -214 -211 -256
-275 -153 -233 -213 -431 -213 -705 0 -166 23 -291 83 -446 158 -409 547 -714
983 -771 196 -25 410 1 598 73 407 155 708 525 777 959 10 59 10 323 1 380
-90 567 -559 1001 -1121 1041 -45 3 -95 7 -112 8 -16 1 -84 -6 -150 -16z m359
-83 c403 -71 726 -337 880 -724 53 -133 71 -233 71 -401 0 -169 -6 -215 -41
-336 -110 -380 -418 -686 -794 -788 -113 -31 -183 -40 -310 -40 -145 1 -221
12 -345 51 -482 152 -812 614 -800 1121 4 173 29 290 96 445 79 182 244 382
405 489 134 89 328 167 459 184 28 3 51 7 53 9 11 10 252 3 326 -10z"/>
<path d="M1457 2584 c-1 -1 -31 -4 -67 -7 -78 -7 -116 -15 -249 -53 -44 -13
-182 -84 -244 -126 -257 -175 -433 -461 -471 -768 -7 -53 -9 -216 -2 -245 2
-11 7 -42 10 -70 10 -77 54 -212 97 -298 53 -107 110 -188 190 -271 l68 -71 1
521 0 521 38 25 c20 13 44 27 52 31 8 4 159 94 335 201 l320 194 3 -880 2
-880 51 5 c28 3 54 8 57 11 3 4 6 322 6 708 l1 702 112 52 c62 29 114 50 116
46 2 -4 3 -329 2 -722 -1 -393 0 -718 2 -722 4 -8 95 29 103 42 3 4 5 245 4
535 l0 527 50 23 c66 29 170 77 176 80 3 2 5 -218 4 -488 0 -271 2 -498 4
-505 6 -16 88 72 154 163 94 132 145 250 184 430 30 135 23 326 -16 475 -111
428 -484 756 -914 805 -56 7 -175 13 -179 9z"/>
</g>
</svg>
