<?xml version="1.0" standalone="no"?>
<!DOCTYPE svg PUBLIC "-//W3C//DTD SVG 20010904//EN"
 "http://www.w3.org/TR/2001/REC-SVG-20010904/DTD/svg10.dtd">
<svg version="1.0" xmlns="http://www.w3.org/2000/svg"
 width="300.000000pt" height="300.000000pt" viewBox="0 0 300.000000 300.000000"
 preserveAspectRatio="xMidYMid meet">
<metadata>
Created by potrace 1.11, written by Peter Selinger 2001-2013
</metadata>
<g transform="translate(0.000000,300.000000) scale(0.100000,-0.100000)"
fill="#000000" stroke="none">
<path d="M1390 2526 c0 -5 -3 -7 -6 -3 -3 3 -26 -3 -50 -14 -25 -10 -74 -21
-110 -23 -36 -2 -70 -9 -77 -14 -7 -6 -16 -11 -22 -11 -23 -2 -75 -23 -75 -31
0 -4 -13 -13 -30 -20 -16 -7 -30 -16 -30 -20 0 -6 -36 -21 -43 -17 -2 1 -43
-31 -69 -55 -10 -10 -18 -15 -18 -12 0 3 -12 -9 -27 -28 -16 -18 -38 -44 -50
-58 -13 -14 -23 -28 -23 -32 0 -5 -8 -16 -17 -26 -24 -24 -73 -127 -73 -152 0
-11 -4 -20 -9 -20 -5 0 -12 -15 -15 -32 -12 -63 -16 -93 -20 -129 -2 -20 -6
-42 -10 -48 -4 -6 -3 -11 3 -11 8 0 8 -20 1 -40 -1 -3 -1 -9 0 -15 1 -5 4 -32
6 -60 4 -59 11 -120 14 -120 1 0 3 -11 6 -25 3 -20 31 -116 39 -140 15 -40 31
-70 37 -70 4 0 8 -5 8 -12 0 -14 44 -81 78 -118 12 -14 22 -28 22 -32 0 -3 14
-20 30 -36 16 -17 30 -34 30 -37 0 -4 14 -20 30 -35 17 -15 30 -30 30 -33 0
-6 78 -91 167 -182 39 -40 69 -76 66 -79 -4 -3 -2 -6 4 -6 5 0 48 -38 95 -85
57 -56 94 -85 109 -86 132 -4 199 -2 199 5 0 5 3 7 6 3 4 -3 77 65 163 152
179 182 281 291 272 291 -3 0 -1 4 4 8 14 10 77 83 100 116 11 16 32 43 48 61
15 18 27 38 27 44 0 6 4 11 8 11 8 0 55 83 58 102 1 4 3 10 4 13 1 3 3 8 4 13
1 4 7 17 14 30 7 12 10 22 8 22 -3 0 -1 12 5 28 12 30 20 73 22 115 1 15 5 27
8 27 3 0 5 20 4 45 -1 25 2 45 7 45 4 0 5 6 3 13 -11 30 -13 67 -4 67 6 0 7 5
4 10 -4 6 -8 28 -10 48 -2 20 -9 60 -15 87 -6 28 -14 62 -17 78 -3 15 -9 30
-14 33 -5 3 -9 14 -9 24 0 10 -4 20 -9 22 -5 2 -11 10 -13 18 -7 32 -84 138
-142 195 -34 33 -83 71 -111 85 -27 14 -58 33 -69 42 -23 21 -101 58 -121 58
-8 0 -15 4 -15 8 0 5 -13 7 -30 6 -17 -1 -30 3 -30 9 0 7 -5 5 -10 -3 -6 -10
-10 -11 -10 -3 0 9 -7 10 -23 4 -15 -6 -29 -4 -42 5 -10 8 -27 14 -37 14 -10
0 -18 4 -18 8 0 11 -5 11 -122 15 -59 2 -98 -1 -98 -7z"/>
<path d="M1382 518 c-14 -14 -16 -62 -2 -53 9 5 14 -21 13 -62 -1 -7 3 -13 7
-13 4 0 10 -8 13 -19 4 -16 57 -37 57 -22 0 4 18 5 39 3 33 -3 41 0 52 20 7
12 14 25 14 28 10 39 20 68 29 79 8 10 5 17 -9 27 -11 8 -25 12 -32 10 -7 -3
-13 -1 -13 4 0 6 -11 5 -27 -1 -35 -13 -34 -13 -44 3 -5 7 -9 8 -9 2 0 -12
-29 -12 -48 0 -7 4 -12 2 -12 -6 0 -10 -2 -10 -8 -1 -6 10 -11 10 -20 1z"/>
<path d="M1664 497 c-27 -14 -26 -13 -30 -50 -5 -41 18 -72 60 -79 23 -5 36 0
57 21 60 60 -12 149 -87 108z"/>
</g>
</svg>
