<?xml version="1.0" standalone="no"?>
<!DOCTYPE svg PUBLIC "-//W3C//DTD SVG 20010904//EN"
 "http://www.w3.org/TR/2001/REC-SVG-20010904/DTD/svg10.dtd">
<svg version="1.0" xmlns="http://www.w3.org/2000/svg"
 width="16.000000pt" height="16.000000pt" viewBox="0 0 16.000000 16.000000"
 preserveAspectRatio="xMidYMid meet">
<metadata>
Created by potrace 1.11, written by Peter Selinger 2001-2013
</metadata>
<g transform="translate(0.000000,16.000000) scale(0.008421,-0.008421)"
fill="#000000" stroke="none">
<path d="M960 1474 c-76 -13 -163 -41 -224 -71 -72 -35 -130 -72 -124 -79 2
-2 36 9 74 25 189 77 390 80 557 9 291 -124 460 -384 456 -700 -1 -66 2 -93
12 -99 24 -15 105 -10 119 6 15 18 20 201 7 280 -21 132 -94 275 -197 387 -61
68 -194 163 -260 188 -19 7 -39 17 -45 20 -5 4 -28 11 -50 15 -22 5 -47 10
-55 12 -23 7 -241 12 -270 7z"/>
<path d="M1090 1183 c0 -5 -15 -24 -33 -43 -17 -19 -68 -75 -112 -125 -44 -49
-94 -105 -112 -125 -17 -19 -47 -53 -67 -75 -19 -22 -36 -43 -36 -47 0 -11 76
-29 94 -22 8 3 55 52 105 107 49 56 108 122 130 147 l41 45 32 -35 c17 -19 63
-71 102 -115 39 -43 78 -86 86 -95 8 -8 52 -59 98 -112 86 -101 113 -118 184
-118 44 0 43 5 -7 62 -16 18 -82 92 -145 163 -63 72 -117 132 -120 135 -3 3
-57 62 -119 133 -62 70 -115 127 -117 127 -2 0 -4 -3 -4 -7z"/>
<path d="M954 1160 c-12 -5 -25 -13 -29 -19 -3 -6 -11 -11 -16 -11 -6 0 -7 5
-4 10 8 14 -58 13 -87 -1 -13 -6 -49 -41 -81 -78 -31 -36 -74 -84 -95 -106
-91 -100 -143 -165 -130 -166 7 0 22 -2 33 -4 11 -2 33 3 49 11 36 18 42 18
26 0 -9 -12 -6 -16 23 -21 45 -9 53 -4 123 75 31 36 88 99 125 140 117 130
130 145 140 163 8 15 5 17 -23 16 -18 0 -43 -4 -54 -9z m-76 -69 c-13 -17 -27
-30 -32 -30 -6 -1 3 13 19 29 37 38 43 39 13 1z m-139 -156 c-56 -63 -104
-115 -106 -115 -6 0 61 80 131 155 30 33 56 63 56 68 0 4 5 7 11 7 6 0 -36
-52 -92 -115z"/>
<path d="M706 1129 c-17 -4 -41 -21 -55 -36 -13 -15 -43 -48 -65 -73 -23 -25
-70 -79 -106 -120 -36 -40 -72 -82 -82 -91 -15 -16 -14 -17 15 -22 48 -7 82
10 124 61 21 26 56 67 78 91 22 23 51 55 65 70 63 68 90 101 92 112 4 15 -29
19 -66 8z"/>
<path d="M1040 820 c0 -28 3 -30 35 -30 32 0 35 2 35 30 0 28 -3 30 -35 30
-32 0 -35 -2 -35 -30z"/>
<path d="M1120 820 c0 -27 3 -30 30 -30 27 0 30 3 30 30 0 27 -3 30 -30 30
-27 0 -30 -3 -30 -30z"/>
<path d="M1040 750 c0 -28 3 -30 35 -30 32 0 35 2 35 30 0 28 -3 30 -35 30
-32 0 -35 -2 -35 -30z"/>
<path d="M1120 750 c0 -27 3 -30 30 -30 27 0 30 3 30 30 0 27 -3 30 -30 30
-27 0 -30 -3 -30 -30z"/>
<path d="M285 754 c-68 -13 -68 -13 35 -19 123 -7 216 -24 400 -72 414 -108
552 -142 597 -148 26 -3 68 -8 93 -12 53 -7 283 -7 321 0 15 3 52 8 83 12 64
8 66 19 3 21 -57 1 -212 14 -239 20 -13 2 -39 7 -58 10 -37 7 -331 74 -545
125 -251 60 -370 78 -505 77 -69 -1 -152 -7 -185 -14z"/>
<path d="M114 689 c-98 -16 -102 -25 -13 -27 149 -3 229 -18 524 -97 461 -124
556 -140 785 -139 113 1 250 20 250 35 0 5 -40 9 -89 9 -152 0 -312 27 -625
106 -99 25 -183 47 -186 49 -4 2 -22 7 -41 10 -19 3 -50 10 -69 15 -19 5 -51
12 -70 15 -19 3 -42 8 -50 10 -45 13 -88 16 -220 20 -80 1 -168 -1 -196 -6z"/>
</g>
</svg>
