<?xml version="1.0" standalone="no"?>
<!DOCTYPE svg PUBLIC "-//W3C//DTD SVG 20010904//EN"
 "http://www.w3.org/TR/2001/REC-SVG-20010904/DTD/svg10.dtd">
<svg version="1.0" xmlns="http://www.w3.org/2000/svg"
 width="127.000000pt" height="127.000000pt" viewBox="0 0 127.000000 127.000000"
 preserveAspectRatio="xMidYMid meet">
<metadata>
Created by potrace 1.11, written by Peter Selinger 2001-2013
</metadata>
<g transform="translate(0.000000,127.000000) scale(0.100000,-0.100000)"
fill="#000000" stroke="none">
<path d="M489 1128 c-1 -27 -1 -128 0 -143 1 -7 28 -11 66 -10 61 0 65 2 65
23 0 18 6 22 29 22 l28 0 1 -157 c0 -87 1 -165 1 -174 1 -12 16 -15 81 -15
l80 -1 1 34 c3 86 1 103 -16 103 -18 0 -17 -16 -18 175 l-2 160 -157 3 -158 3
-1 -23z"/>
<path d="M837 973 c-3 -5 -5 -32 -4 -60 0 -38 4 -53 13 -53 15 0 15 3 17 -125
l2 -90 63 0 62 -1 0 168 0 168 -74 0 c-41 0 -77 -3 -79 -7z"/>
<path d="M377 952 l-57 -3 2 -72 3 -72 65 0 c45 0 65 4 66 13 1 6 2 16 3 22 0
5 42 8 99 7 l97 -2 3 53 3 52 -53 1 c-29 0 -80 1 -113 2 -33 1 -86 1 -118 -1z"/>
<path d="M482 801 l3 -26 -172 -3 -173 -2 0 -148 0 -147 88 0 87 0 0 65 c0 60
-2 65 -22 68 -18 3 -23 10 -23 31 l0 27 180 -1 181 -1 -3 81 -3 80 -73 1 c-73
1 -73 1 -70 -25z"/>
<path d="M1010 755 c0 -53 3 -63 19 -68 13 -3 18 -13 17 -33 l-2 -29 -174 -3
c-99 -1 -177 -7 -180 -12 -5 -8 -6 -113 -1 -142 0 -5 28 -8 61 -8 57 0 66 5
61 33 -1 8 -6 8 191 10 86 1 160 5 164 9 9 9 9 287 0 296 -4 3 -40 6 -81 7
l-75 2 0 -62z"/>
<path d="M353 632 c-23 -3 -23 -5 -23 -168 l0 -164 83 0 83 0 -1 62 c0 50 -4
63 -17 66 -13 3 -16 19 -17 99 -1 53 -3 99 -6 101 -5 5 -74 8 -102 4z"/>
<path d="M470 545 c0 -59 2 -65 20 -65 20 0 21 -5 20 -152 -1 -84 -1 -162 -1
-173 1 -20 7 -20 156 -20 l156 0 -3 85 -3 85 -62 0 c-58 1 -63 -1 -63 -21 0
-16 -6 -21 -22 -20 -23 1 -23 3 -28 171 l-5 170 -82 2 -83 2 0 -64z"/>
<path d="M860 462 c0 -16 -10 -18 -95 -17 l-95 1 0 -58 0 -58 170 0 170 0 0
75 0 75 -75 0 c-65 0 -75 -2 -75 -18z"/>
</g>
</svg>
