<?xml version="1.0" standalone="no"?>
<!DOCTYPE svg PUBLIC "-//W3C//DTD SVG 20010904//EN"
 "http://www.w3.org/TR/2001/REC-SVG-20010904/DTD/svg10.dtd">
<svg version="1.0" xmlns="http://www.w3.org/2000/svg"
 width="300.000000pt" height="300.000000pt" viewBox="0 0 300.000000 300.000000"
 preserveAspectRatio="xMidYMid meet">
<metadata>
Created by potrace 1.11, written by Peter Selinger 2001-2013
</metadata>
<g transform="translate(0.000000,300.000000) scale(0.100000,-0.100000)"
fill="#000000" stroke="none">
<path d="M953 1994 c-263 -267 -479 -489 -481 -492 -1 -4 113 -122 253 -262
l255 -255 25 30 c54 65 58 100 62 490 4 406 4 408 -60 413 -20 2 -37 7 -37 13
0 5 65 9 156 9 101 0 153 -3 149 -10 -3 -5 -20 -10 -36 -10 -22 0 -32 -6 -39
-26 -6 -14 -10 -163 -10 -348 0 -354 -3 -378 -58 -459 -18 -25 -55 -62 -83
-83 l-51 -37 251 -251 251 -251 310 310 c170 170 310 313 310 317 0 5 -38 8
-84 8 l-84 0 -79 52 c-43 29 -109 84 -148 123 l-70 70 68 3 c60 3 71 0 102
-24 35 -26 36 -26 50 -8 8 10 24 50 36 87 18 56 20 85 17 165 -6 120 -32 194
-91 254 -133 137 -335 110 -408 -55 -20 -44 -23 -69 -24 -162 0 -121 15 -180
63 -249 36 -52 75 -79 112 -79 l31 0 -40 -40 -40 -40 -45 17 c-145 56 -249
253 -218 417 33 179 150 292 330 319 208 32 400 -68 452 -237 47 -151 7 -318
-102 -423 l-39 -39 63 -47 c35 -25 87 -58 116 -72 l53 -26 172 172 172 172
-515 515 c-283 283 -520 515 -526 515 -7 0 -227 -219 -491 -486z m717 -819 c0
-18 -5 -25 -20 -25 -15 0 -20 7 -20 25 0 18 5 25 20 25 15 0 20 -7 20 -25z
m58 3 c-5 -34 -38 -37 -38 -4 0 20 5 26 21 26 15 0 20 -5 17 -22z m-58 -58 c0
-13 -7 -20 -20 -20 -13 0 -20 7 -20 20 0 13 7 20 20 20 13 0 20 -7 20 -20z
m60 0 c0 -13 -7 -20 -20 -20 -13 0 -20 7 -20 20 0 13 7 20 20 20 13 0 20 -7
20 -20z"/>
</g>
</svg>
