<?xml version="1.0" standalone="no"?>
<!DOCTYPE svg PUBLIC "-//W3C//DTD SVG 20010904//EN"
 "http://www.w3.org/TR/2001/REC-SVG-20010904/DTD/svg10.dtd">
<svg version="1.0" xmlns="http://www.w3.org/2000/svg"
 width="16.000000pt" height="16.000000pt" viewBox="0 0 16.000000 16.000000"
 preserveAspectRatio="xMidYMid meet">
<metadata>
Created by potrace 1.11, written by Peter Selinger 2001-2013
</metadata>
<g transform="translate(0.000000,16.000000) scale(0.002054,-0.002054)"
fill="#000000" stroke="none">
<path d="M2690 4915 c-184 -85 -360 -165 -390 -179 -67 -30 -273 -124 -355
-161 -33 -15 -139 -63 -235 -107 -96 -44 -200 -91 -230 -105 -30 -14 -125 -57
-210 -96 l-155 -71 -390 -2 c-214 -1 -399 -3 -411 -3 -17 -1 -20 -6 -16 -31
l4 -30 112 -1 c61 0 318 0 571 0 l460 0 77 36 c42 19 78 35 80 35 2 0 3 -192
3 -427 l0 -428 66 -3 c57 -2 67 0 71 15 2 10 3 219 3 464 l-1 447 43 17 c23
10 45 17 49 16 4 0 8 -216 8 -478 l1 -478 69 0 70 0 0 515 -1 516 186 84 c102
46 331 150 508 231 177 81 331 150 341 153 17 6 98 -28 432 -181 30 -14 98
-44 150 -68 52 -24 129 -58 170 -77 41 -19 122 -57 180 -83 58 -26 139 -63
180 -82 41 -19 98 -44 125 -55 28 -12 54 -25 59 -29 5 -4 9 -214 10 -466 l1
-458 68 -1 67 -2 1 37 c0 20 0 212 1 428 l0 392 50 -20 c27 -11 63 -26 79 -35
27 -13 192 -15 1422 -15 766 0 1405 0 1420 0 26 1 28 4 25 33 l-3 32 -1255 1
-1255 1 -240 111 -240 111 -2 139 c-1 76 -2 144 -2 151 -1 8 -22 12 -70 12
l-70 0 2 -119 2 -118 -40 17 c-46 20 -361 164 -483 221 -46 22 -85 39 -87 39
-2 0 -51 23 -110 50 -59 28 -108 50 -110 50 -2 0 -36 15 -77 34 -40 18 -100
46 -133 61 -33 15 -103 47 -156 71 -53 24 -98 44 -100 43 -2 0 -155 -70 -339
-154z"/>
<path d="M2849 4471 c-1 -3 -2 -39 -3 -79 l-2 -73 80 3 80 3 0 75 1 75 -78 1
c-42 0 -77 -2 -78 -5z"/>
<path d="M3065 4472 c-3 -3 -5 -38 -5 -79 l0 -73 80 0 80 0 0 79 0 79 -75 -1
c-41 0 -77 -3 -80 -5z"/>
<path d="M2849 4253 c-1 -10 -1 -135 0 -145 2 -14 148 -9 153 5 2 6 4 41 3 77
l0 65 -78 3 c-42 2 -77 -1 -78 -5z"/>
<path d="M3060 4180 l0 -80 80 0 80 0 0 80 0 80 -80 0 -80 0 0 -80z"/>
<path d="M305 4030 c-3 -5 95 -237 206 -490 11 -25 35 -79 53 -120 l32 -75 76
-1 76 -2 92 222 c51 121 98 235 105 251 46 102 85 208 80 213 -3 4 -37 7 -75
7 l-68 0 -72 -175 c-90 -220 -84 -206 -109 -262 -12 -26 -21 -52 -21 -58 0
-36 -27 19 -114 238 -55 136 -101 249 -103 251 -5 7 -154 7 -158 1z"/>
<path d="M4898 4032 c-13 -2 -15 -19 -14 -92 l1 -90 -86 0 c-162 0 -238 -46
-272 -165 -31 -108 -7 -214 64 -283 48 -47 102 -58 274 -58 l150 1 1 345 1
345 -52 0 c-28 0 -58 -1 -67 -3z m-17 -299 c4 -38 3 -267 -2 -275 -9 -14 -150
-4 -177 13 -31 19 -47 65 -45 132 1 67 20 102 66 122 34 15 156 20 158 8z"/>
<path d="M5154 4031 c-2 -2 -4 -44 -4 -92 l0 -88 -47 -3 -48 -3 0 -47 0 -48
47 0 48 0 0 -147 c0 -163 9 -198 63 -237 22 -16 43 -20 119 -20 l92 -1 1 35
c2 51 -11 71 -42 66 -39 -8 -93 18 -94 46 -1 13 -3 75 -4 140 l-3 116 32 0
c17 0 49 0 71 1 l41 1 -1 48 0 47 -70 5 -70 5 -2 75 c0 41 -2 82 -2 90 -1 12
-14 15 -62 15 -33 0 -63 -2 -65 -4z"/>
<path d="M3903 3842 c-107 -35 -166 -120 -167 -243 0 -84 24 -148 74 -193 57
-51 103 -68 192 -69 63 0 86 4 131 27 183 89 185 370 3 464 -62 32 -157 38
-233 14z m175 -119 c61 -46 68 -186 11 -243 -31 -30 -44 -34 -108 -32 -41 2
-83 38 -98 85 -13 43 -7 120 11 155 31 60 127 78 184 35z"/>
<path d="M1039 3846 c-1 -8 -1 -72 0 -88 1 -10 34 -13 134 -13 173 1 207 -11
207 -73 0 -18 -9 -20 -138 -24 -121 -3 -141 -6 -173 -26 -20 -12 -42 -35 -49
-51 -17 -41 -14 -124 5 -160 30 -58 58 -65 282 -68 127 -1 204 1 208 8 4 5 6
89 6 186 -1 201 -11 238 -78 283 -36 24 -46 25 -220 28 -101 2 -183 1 -184 -2z
m342 -303 c5 -44 2 -93 -6 -96 -5 -2 -55 -3 -109 -2 -81 2 -102 6 -112 20 -15
20 -10 56 11 71 18 13 214 19 216 7z"/>
<path d="M2200 3830 c-96 -33 -144 -112 -142 -236 2 -123 53 -205 144 -234 43
-14 243 -24 284 -15 18 4 21 12 20 55 l0 50 -112 0 c-136 0 -171 10 -182 53
-5 18 -8 33 -6 35 1 2 68 4 148 4 94 1 146 5 149 12 2 6 3 29 3 51 l-1 40
-150 5 c-161 5 -160 5 -133 58 15 30 42 35 172 36 l110 1 2 53 1 52 -126 0
c-97 -1 -139 -5 -181 -20z"/>
<path d="M2703 3836 c-22 -8 -55 -23 -71 -35 -99 -70 -109 -302 -18 -392 52
-51 117 -67 261 -65 l120 1 3 53 3 52 -118 0 c-75 0 -127 5 -143 13 -24 12
-49 61 -38 73 4 3 72 6 152 6 l146 1 0 53 0 54 -150 0 c-144 0 -150 1 -150 20
0 29 44 70 77 71 15 1 72 2 126 2 l97 2 0 52 0 53 -127 -1 c-75 0 -145 -6
-170 -13z"/>
<path d="M3343 3840 c-118 -27 -187 -157 -161 -302 16 -86 53 -139 123 -175
25 -13 106 -21 233 -23 20 0 14 -29 -12 -55 -21 -21 -33 -23 -107 -24 -46 0
-108 0 -136 0 l-53 -1 0 -51 0 -51 173 4 c190 3 217 11 252 70 26 44 28 72 29
353 l1 260 -155 1 c-85 1 -170 -2 -187 -6z m207 -245 l0 -145 -32 -1 c-138 -4
-194 28 -199 116 -4 80 1 101 29 132 35 39 43 41 130 42 l72 1 0 -145z"/>
<path d="M5600 3837 c-59 -14 -122 -76 -139 -140 -31 -109 -10 -228 50 -288
48 -48 95 -61 234 -66 152 -4 152 -4 151 57 l-1 50 -117 0 c-66 0 -128 5 -142
11 -29 14 -51 64 -33 76 7 4 68 6 137 5 69 -1 132 1 141 3 11 4 15 18 15 53
l-1 47 -151 5 -150 5 8 33 c12 45 40 54 175 55 70 0 114 5 116 11 2 6 3 29 3
51 l-1 40 -125 1 c-69 0 -145 -4 -170 -9z"/>
<path d="M5963 3798 l2 -53 130 -1 c72 -1 137 -2 146 -3 27 -2 61 -35 64 -63
l3 -26 -136 -4 c-191 -5 -229 -28 -239 -145 -3 -46 0 -64 16 -90 41 -65 52
-68 286 -68 l210 0 0 174 c1 212 -9 250 -73 296 l-44 30 -183 3 -184 4 2 -54z
m344 -300 l-2 -52 -95 -1 c-112 -2 -140 7 -140 44 0 53 12 58 142 60 l96 2 -1
-53z"/>
<path d="M6538 3843 c-2 -4 -4 -118 -4 -253 l1 -245 68 -2 67 -1 0 199 0 199
75 0 c41 0 76 -3 76 -7 1 -5 3 -91 4 -193 2 -102 3 -188 4 -191 2 -11 120 -9
127 2 3 6 7 96 7 200 l0 189 48 0 c65 0 97 -14 105 -46 4 -15 7 -100 8 -188
l1 -161 65 0 65 0 0 195 c0 223 -6 245 -80 284 -38 20 -58 21 -337 24 -163 2
-298 -1 -300 -5z"/>
<path d="M7336 3834 c-12 -12 -16 -36 -16 -100 l0 -84 70 0 c62 0 70 2 70 19
0 16 -6 19 -42 17 -55 -3 -68 2 -68 25 0 16 8 19 55 19 49 0 55 2 55 21 0 18
-5 20 -52 18 -42 -3 -54 0 -56 13 -4 22 9 29 63 30 37 0 45 4 45 19 0 16 -8
19 -54 19 -36 0 -60 -5 -70 -16z"/>
<path d="M7360 3633 c-42 -17 -54 -89 -20 -123 45 -45 120 -11 120 55 0 55
-48 88 -100 68z m54 -39 c26 -10 20 -53 -9 -60 -33 -8 -55 1 -55 24 0 34 29
50 64 36z"/>
<path d="M7327 3483 c-4 -3 -7 -23 -7 -44 0 -63 50 -95 103 -68 31 17 37 28
37 77 0 51 -23 54 -30 3 -10 -69 -72 -67 -78 3 -3 34 -11 44 -25 29z"/>
<path d="M7430 3341 c0 -12 6 -21 16 -21 9 0 14 7 12 17 -5 25 -28 28 -28 4z"/>
<path d="M299 3100 c0 -11 -1 -33 -1 -50 0 -65 2 -80 12 -80 6 0 10 16 10 35
0 32 2 35 30 35 17 0 30 5 30 10 0 6 -13 10 -30 10 -23 0 -30 4 -30 20 0 16 7
20 30 20 17 0 30 5 30 10 0 6 -18 10 -40 10 -33 0 -40 -3 -41 -20z"/>
<path d="M477 3113 c-8 -17 -1 -133 8 -133 6 0 10 11 11 25 2 50 14 46 58 -20
24 -35 29 -8 6 29 -12 20 -17 36 -12 36 18 0 20 39 3 54 -18 16 -67 22 -74 9z
m63 -32 c0 -10 -9 -21 -19 -24 -14 -3 -20 2 -24 19 -3 20 0 24 19 24 17 0 24
-6 24 -19z"/>
<path d="M685 3095 c-14 -13 -25 -36 -25 -50 0 -35 42 -75 78 -75 47 0 92 63
72 100 -30 56 -84 67 -125 25z m89 -11 c24 -23 20 -61 -9 -80 -27 -18 -60 -12
-74 15 -30 54 40 109 83 65z"/>
<path d="M910 3045 c0 -43 4 -75 10 -75 6 0 10 26 10 58 l1 57 24 -28 25 -28
25 28 24 28 1 -57 c0 -32 5 -58 10 -58 6 0 10 32 10 75 0 41 -4 75 -9 75 -5 0
-21 -14 -34 -32 l-25 -32 -27 32 c-15 18 -31 32 -36 32 -5 0 -9 -34 -9 -75z"/>
<path d="M1222 3097 c-60 -63 21 -158 99 -117 12 7 19 21 19 40 0 25 -4 30
-24 30 -26 0 -47 -21 -28 -28 19 -6 14 -22 -6 -22 -24 0 -42 19 -42 46 0 32
25 47 65 41 36 -6 43 1 23 21 -21 21 -82 14 -106 -11z"/>
<path d="M1467 3108 c-9 -7 -21 -26 -27 -41 -25 -68 59 -124 118 -80 37 27 42
83 11 112 -25 24 -76 28 -102 9z m69 -26 c18 -11 21 -47 5 -65 -17 -21 -35
-21 -56 -1 -24 24 -4 74 30 74 6 0 15 -4 21 -8z"/>
<path d="M1690 3046 l0 -73 50 -2 c38 0 50 3 50 14 0 10 -10 15 -30 15 l-30 0
0 60 c0 53 -2 60 -20 60 -18 0 -20 -7 -20 -74z"/>
<path d="M1883 3045 l1 -76 41 2 c71 4 106 33 99 84 -5 43 -37 65 -94 65 l-48
0 1 -75z m95 33 c26 -26 9 -66 -31 -74 -26 -4 -27 -3 -27 41 0 40 2 45 23 45
13 0 28 -5 35 -12z"/>
<path d="M2160 3111 c0 -5 12 -11 27 -13 26 -3 28 -6 28 -58 0 -30 5 -56 10
-58 6 -1 10 22 10 55 0 56 1 58 28 61 53 6 26 22 -38 22 -36 0 -65 -4 -65 -9z"/>
<path d="M2396 3099 c-19 -15 -26 -30 -26 -54 0 -36 37 -75 71 -75 70 0 109
76 64 124 -30 32 -72 34 -109 5z m88 -15 c18 -17 21 -51 7 -73 -14 -21 -67
-22 -86 -1 -44 49 32 121 79 74z"/>
<path d="M2682 3108 c-24 -24 -14 -55 23 -72 19 -9 35 -22 35 -28 0 -7 -13 -9
-35 -5 -26 4 -35 2 -35 -8 0 -34 94 -30 105 4 9 28 -3 46 -42 65 -28 13 -33
20 -23 26 8 5 22 4 33 -2 22 -11 32 -5 24 17 -8 18 -67 21 -85 3z"/>
<path d="M2892 3097 c-71 -75 42 -174 115 -101 20 20 24 31 19 57 -12 65 -91
90 -134 44z m88 -23 c17 -20 2 -67 -23 -72 -24 -5 -47 16 -47 42 0 42 45 61
70 30z"/>
<path d="M3128 3108 c-3 -12 -3 -39 1 -115 1 -19 6 -22 49 -21 35 0 49 4 49
14 0 9 -12 14 -33 14 -33 0 -34 0 -33 48 2 67 1 72 -15 72 -8 0 -16 -6 -18
-12z"/>
<path d="M3319 3115 c0 -3 0 -25 0 -50 0 -104 -5 -96 51 -92 62 5 90 28 90 73
0 45 -38 74 -96 74 -24 0 -44 -2 -45 -5z m89 -37 c21 -26 17 -51 -10 -67 -33
-19 -41 -12 -43 39 -2 35 1 40 20 40 13 0 27 -6 33 -12z"/>
<path d="M3790 3110 c0 -5 13 -10 29 -10 29 0 29 0 28 -62 -1 -40 3 -63 11
-66 7 -2 12 0 11 5 -1 4 -1 34 0 66 1 54 2 57 26 57 14 0 25 5 25 10 0 6 -28
10 -65 10 -37 0 -65 -4 -65 -10z"/>
<path d="M4010 3062 c0 -74 20 -98 74 -88 44 8 47 13 50 86 2 43 -1 60 -10 60
-7 0 -12 -12 -12 -27 2 -81 -1 -92 -27 -99 -39 -10 -55 11 -55 72 0 30 -4 54
-10 54 -6 0 -10 -26 -10 -58z"/>
<path d="M4252 3097 c-58 -62 11 -152 92 -121 29 11 17 26 -14 19 -63 -14
-105 49 -60 90 14 13 29 16 55 12 35 -6 48 6 19 17 -33 13 -71 5 -92 -17z"/>
<path d="M4457 3113 c-17 -16 -5 -53 23 -73 17 -12 30 -25 30 -30 0 -15 -32
-20 -47 -8 -13 10 -15 9 -12 -7 5 -23 43 -32 65 -15 23 20 16 48 -16 72 -38
27 -40 52 -5 46 17 -4 25 -1 25 8 0 14 -51 20 -63 7z"/>
<path d="M4649 3107 c-61 -47 -27 -137 52 -137 30 0 69 44 69 78 0 55 -77 93
-121 59z m86 -27 c41 -46 -29 -116 -75 -75 -24 22 -26 52 -3 77 21 24 55 23
78 -2z"/>
<path d="M4868 3108 c-3 -7 -4 -40 -4 -73 1 -68 20 -79 22 -12 1 23 2 46 3 51
1 4 22 -17 48 -48 26 -31 51 -56 55 -56 9 0 14 54 9 108 -5 62 -21 51 -21 -15
l0 -58 -31 35 c-17 19 -37 45 -46 58 -17 25 -29 28 -35 10z"/>
<path d="M5177 3066 c-33 -71 -40 -96 -29 -96 5 0 14 11 20 25 15 33 66 31 82
-3 5 -13 15 -20 21 -17 7 5 6 14 -4 28 -8 12 -22 43 -32 70 -10 26 -21 47 -26
47 -4 0 -19 -24 -32 -54z m37 -29 c-21 -12 -27 -3 -19 24 7 22 8 22 21 4 12
-17 12 -20 -2 -28z"/>
<path d="M5355 3110 c-4 -6 12 -10 40 -10 l46 0 -33 -45 c-67 -92 -68 -84 6
-83 36 1 66 5 66 9 0 5 -20 9 -45 9 -42 0 -45 2 -35 19 5 11 16 25 23 33 7 7
23 28 36 46 l22 32 -60 0 c-33 0 -63 -4 -66 -10z"/>
<path d="M5620 3046 c0 -44 4 -76 10 -76 11 0 13 12 10 48 -2 32 14 27 48 -15
35 -44 54 -39 23 6 -19 26 -20 33 -9 51 19 29 -1 54 -46 58 l-36 3 0 -75z m68
32 c3 -13 -3 -18 -22 -18 -20 0 -26 5 -26 21 0 15 5 20 22 17 13 -2 24 -11 26
-20z"/>
<path d="M5813 3045 l1 -75 44 2 c42 1 71 17 35 19 -55 3 -58 5 -59 27 -1 18
4 23 20 21 35 -2 50 1 42 9 -4 4 -20 7 -34 7 -20 0 -27 5 -27 20 0 15 8 21 33
23 48 5 39 22 -12 22 l-44 0 1 -75z"/>
<path d="M6012 3048 c-16 -40 -28 -75 -26 -78 3 -2 15 8 27 23 16 20 28 26 47
22 14 -3 26 -8 28 -12 6 -19 21 -37 27 -32 7 8 -50 142 -63 147 -5 1 -23 -30
-40 -70z m58 -3 c0 -6 -9 -11 -20 -11 -23 0 -23 1 -9 28 9 17 13 18 20 7 5 -8
9 -19 9 -24z"/>
<path d="M6208 3113 c-2 -5 -4 -37 -3 -73 l0 -65 43 -3 c24 -1 42 2 42 8 0 5
-13 10 -30 10 -33 0 -33 1 -32 83 1 41 -10 62 -20 40z"/>
<path d="M6439 3115 c-4 -24 -1 -115 4 -128 7 -19 71 -24 82 -7 7 11 -5 13
-42 10 -18 -1 -23 4 -23 24 0 22 4 26 30 26 17 0 30 4 30 10 0 5 -12 8 -27 7
-22 -2 -29 3 -31 21 -3 19 1 22 33 22 22 0 34 4 30 10 -6 10 -84 15 -86 5z"/>
<path d="M6627 3114 c-16 -16 -5 -51 25 -77 24 -21 28 -31 19 -40 -9 -9 -16
-9 -32 1 -18 12 -20 11 -17 -5 4 -22 43 -29 64 -13 23 20 16 48 -16 72 -37 27
-40 51 -5 46 13 -2 25 2 27 7 3 12 -54 19 -65 9z"/>
<path d="M6780 3110 c0 -5 11 -10 25 -10 14 0 25 -4 26 -10 1 -5 1 -35 2 -65
1 -33 5 -55 12 -55 7 0 11 23 11 63 -1 60 0 62 27 65 53 6 26 22 -38 22 -37 0
-65 -4 -65 -10z"/>
<path d="M6992 3050 c-17 -38 -27 -72 -21 -75 5 -4 14 5 20 18 8 18 18 23 42
22 17 -1 32 -6 34 -11 8 -21 22 -38 28 -32 7 7 -55 148 -65 148 -4 0 -21 -31
-38 -70z m57 -12 c1 -4 -8 -6 -19 -5 -23 2 -23 2 -8 30 11 21 11 21 19 2 4
-11 8 -23 8 -27z"/>
<path d="M7150 3110 c0 -5 14 -10 31 -10 28 0 30 -2 29 -32 -4 -63 0 -98 10
-98 6 0 10 28 10 65 0 63 1 65 25 65 14 0 25 5 25 10 0 6 -28 10 -65 10 -37 0
-65 -4 -65 -10z"/>
<path d="M7370 3046 l0 -73 45 -1 c25 -1 45 3 45 8 0 6 -16 10 -35 10 -30 0
-35 3 -35 24 0 17 6 23 23 23 41 1 48 3 42 14 -4 5 -19 9 -33 7 -22 -2 -28 2
-30 20 -3 19 1 22 32 22 20 0 36 5 36 10 0 6 -20 10 -45 10 l-45 0 0 -74z"/>
<path d="M3605 3020 c3 -5 15 -10 25 -10 10 0 22 5 25 10 4 6 -7 10 -25 10
-18 0 -29 -4 -25 -10z"/>
</g>
</svg>
