<?xml version="1.0" standalone="no"?>
<!DOCTYPE svg PUBLIC "-//W3C//DTD SVG 20010904//EN"
 "http://www.w3.org/TR/2001/REC-SVG-20010904/DTD/svg10.dtd">
<svg version="1.0" xmlns="http://www.w3.org/2000/svg"
 width="300.000000pt" height="300.000000pt" viewBox="0 0 300.000000 300.000000"
 preserveAspectRatio="xMidYMid meet">
<metadata>
Created by potrace 1.11, written by Peter Selinger 2001-2013
</metadata>
<g transform="translate(0.000000,300.000000) scale(0.100000,-0.100000)"
fill="#000000" stroke="none">
<path d="M2057 2681 c-29 -19 -60 -57 -65 -79 -8 -32 -3 -102 8 -114 6 -7 19
-23 30 -36 10 -13 25 -24 32 -26 7 -1 19 -5 26 -9 6 -5 12 -5 12 0 0 4 5 1 10
-7 6 -9 10 -11 10 -3 0 7 6 10 14 7 8 -3 17 -1 20 5 4 6 13 8 21 5 7 -3 22 3
33 14 11 11 23 18 26 14 3 -3 6 2 6 12 0 9 4 15 8 12 11 -6 13 4 17 74 3 62
-16 98 -69 131 -37 23 -106 23 -139 0z"/>
<path d="M1953 2307 c-13 -6 -23 -17 -24 -26 -1 -9 -2 -27 -3 -41 0 -14 -5
-31 -9 -37 -5 -8 -3 -13 4 -13 7 0 8 -4 2 -12 -5 -7 -10 -26 -12 -43 -2 -16
-6 -34 -11 -40 -4 -5 -6 -21 -5 -33 1 -13 -4 -26 -12 -29 -7 -3 -10 -10 -6
-16 7 -12 -4 -5 -69 40 -27 18 -48 30 -48 26 0 -5 -4 -3 -8 4 -9 14 -112 56
-112 45 0 -4 -4 -1 -9 6 -11 18 -150 20 -161 2 -4 -6 -10 -11 -14 -11 -3 1
-10 1 -15 1 -6 0 -40 -31 -78 -68 -79 -79 -145 -152 -137 -152 3 0 -9 -15 -26
-32 -17 -18 -38 -45 -46 -60 -8 -16 -19 -28 -24 -28 -6 0 -10 -7 -10 -17 0 -9
-3 -13 -7 -10 -3 4 -14 -6 -24 -22 -21 -35 -48 -68 -71 -90 -10 -8 -18 -19
-18 -23 0 -8 -37 -51 -112 -130 -27 -28 -48 -55 -48 -61 0 -6 -2 -8 -5 -5 -3
2 -26 -15 -53 -39 -26 -24 -75 -63 -109 -86 -60 -41 -84 -70 -79 -98 4 -28 38
-67 74 -85 20 -10 39 -22 42 -25 18 -23 140 -12 140 13 0 4 7 8 15 8 8 0 15 5
15 10 0 6 4 10 9 10 5 0 26 15 47 33 54 46 185 177 178 177 -3 0 8 14 26 30
18 17 29 30 26 30 -3 0 2 8 11 18 29 30 63 72 61 75 -3 3 28 41 64 78 15 16
25 29 21 29 -3 0 8 13 25 30 18 17 29 30 25 30 -3 0 5 10 18 23 35 34 99 107
99 112 0 11 53 64 59 60 4 -2 13 0 21 5 9 6 23 2 41 -11 15 -10 30 -19 33 -19
6 0 75 -43 101 -63 6 -4 57 -42 115 -84 106 -78 119 -88 145 -110 7 -7 18 -13
24 -13 5 0 17 -10 25 -22 9 -12 16 -19 16 -14 0 5 7 2 16 -5 10 -8 33 -22 53
-31 32 -15 38 -15 61 -1 26 15 70 70 69 87 -1 5 3 12 8 15 15 11 32 71 20 71
-8 0 -8 3 1 12 8 8 2 18 -26 39 -20 15 -40 25 -44 23 -5 -3 -8 0 -8 6 0 6 -4
9 -8 6 -5 -3 -15 4 -22 15 -8 10 -20 19 -27 19 -7 0 -13 3 -13 8 0 4 -17 18
-38 31 l-39 24 20 41 c11 22 24 43 28 44 5 2 7 8 3 13 -3 5 0 9 5 9 6 0 10 3
9 8 -1 6 20 59 43 105 6 11 5 17 -1 17 -7 0 -7 6 0 20 7 14 7 20 0 20 -5 0
-10 9 -10 21 0 39 -69 120 -120 141 -51 21 -76 25 -97 15z"/>
<path d="M1533 1232 c-54 -48 -75 -118 -49 -161 7 -10 5 -12 -5 -7 -10 6 -10
4 1 -6 8 -7 15 -17 15 -23 1 -18 28 -65 37 -65 5 0 25 17 44 38 32 34 34 42
33 95 -1 31 -7 57 -12 57 -5 0 -7 6 -4 14 3 8 -1 20 -8 26 -8 7 -13 15 -11 19
2 3 -2 11 -9 18 -10 9 -17 8 -32 -5z"/>
<path d="M1220 1200 c0 -6 -4 -8 -10 -5 -5 3 -10 1 -10 -6 0 -6 -9 -20 -20
-29 -22 -19 -37 -110 -18 -110 5 0 8 -8 6 -17 -4 -18 25 -87 40 -97 5 -3 23 8
41 24 18 17 30 30 26 30 -3 0 1 10 8 23 8 12 12 31 11 42 -2 11 -5 32 -7 47
-8 52 -67 139 -67 98z"/>
<path d="M1460 829 c0 -5 -5 -9 -11 -9 -31 0 -51 -54 -28 -77 7 -7 8 -19 4
-30 -5 -10 -9 -21 -9 -25 -1 -4 -7 -13 -13 -19 -7 -7 -13 -19 -13 -26 0 -6 -7
-16 -16 -21 -9 -5 -15 -12 -15 -15 3 -20 0 -28 -8 -23 -4 3 -13 -6 -19 -19 -7
-14 -16 -25 -22 -25 -6 0 -8 -4 -5 -10 3 -5 -1 -10 -9 -10 -9 0 -16 -4 -16 -9
0 -4 -22 -20 -50 -34 -27 -14 -50 -21 -50 -15 0 7 -5 6 -15 -2 -11 -9 -15 -9
-15 -1 0 7 -5 9 -10 6 -12 -8 -52 16 -88 52 -19 20 -27 22 -33 11 -5 -7 -9 -9
-9 -4 0 5 -11 -3 -25 -18 -14 -15 -25 -31 -25 -35 0 -14 41 -61 52 -61 6 0 19
-6 27 -13 53 -44 183 -57 251 -24 40 20 130 100 130 116 0 6 4 11 10 11 5 0
12 11 16 24 3 14 12 27 21 30 8 3 12 10 9 15 -3 4 3 16 14 26 14 12 20 14 20
5 0 -9 3 -10 13 -1 8 6 16 9 19 6 2 -3 15 6 28 20 l24 25 -34 67 c-18 37 -39
74 -47 81 -7 8 -11 17 -8 22 3 4 -6 10 -20 12 -14 3 -25 1 -25 -3z"/>
</g>
</svg>
