<?xml version="1.0" standalone="no"?>
<!DOCTYPE svg PUBLIC "-//W3C//DTD SVG 20010904//EN"
 "http://www.w3.org/TR/2001/REC-SVG-20010904/DTD/svg10.dtd">
<svg version="1.0" xmlns="http://www.w3.org/2000/svg"
 width="300.000000pt" height="300.000000pt" viewBox="0 0 300.000000 300.000000"
 preserveAspectRatio="xMidYMid meet">
<metadata>
Created by potrace 1.11, written by Peter Selinger 2001-2013
</metadata>
<g transform="translate(0.000000,300.000000) scale(0.100000,-0.100000)"
fill="#000000" stroke="none">
<path d="M1497 2393 c-5 -7 -6 -13 -4 -13 3 0 -2 -33 -9 -72 -8 -40 -17 -89
-20 -108 -2 -19 -9 -58 -15 -87 -6 -28 -11 -61 -12 -72 -1 -18 -42 -39 -54
-27 -3 2 -24 46 -48 96 -43 91 -63 123 -52 85 3 -11 9 -63 12 -116 7 -91 6
-96 -14 -102 -16 -4 -43 23 -147 149 -70 85 -129 152 -130 151 -2 -2 23 -77
55 -168 79 -223 76 -206 51 -219 -18 -10 -32 -3 -106 49 -46 34 -87 61 -89 61
-3 0 24 -42 59 -93 57 -82 63 -94 51 -111 -13 -17 -17 -17 -57 -3 -24 8 -108
38 -187 66 -80 28 -146 50 -147 48 -2 -2 18 -20 44 -40 26 -20 58 -46 72 -59
14 -13 60 -52 103 -88 43 -36 77 -72 77 -82 0 -17 -9 -18 -117 -13 -120 5
-129 0 -56 -28 23 -9 64 -26 90 -38 134 -58 159 -69 171 -71 9 -2 19 16 28 51
43 162 181 292 354 333 111 27 236 6 344 -57 90 -53 195 -194 211 -286 9 -48
11 -49 63 -25 26 13 100 45 164 72 65 27 118 52 118 56 0 4 -6 5 -12 3 -7 -2
-61 -6 -120 -9 -79 -4 -107 -2 -111 7 -4 11 138 141 266 245 22 17 36 32 32
32 -4 0 -88 -30 -187 -66 -143 -52 -182 -63 -194 -53 -15 13 -11 21 68 142 21
32 38 61 38 63 0 3 -40 -22 -88 -55 -90 -62 -106 -69 -117 -51 -3 5 23 96 59
202 75 222 86 224 -123 -25 -104 -124 -117 -116 -100 63 4 41 5 77 3 79 -2 2
-24 -39 -48 -91 -24 -53 -49 -99 -54 -102 -14 -8 -39 2 -39 17 0 7 -3 25 -6
40 -9 43 -55 290 -59 312 -2 14 -6 16 -11 8z"/>
<path d="M1390 1510 c-58 -59 -210 -214 -337 -344 -128 -130 -233 -238 -233
-239 0 -2 36 -3 80 -4 l80 -1 0 32 c0 28 30 61 260 291 l260 260 137 -137 c76
-75 192 -189 257 -253 99 -96 120 -122 125 -153 l6 -37 80 -2 79 -3 -46 48
c-26 26 -108 110 -183 187 -192 197 -457 465 -458 464 -1 0 -49 -49 -107 -109z"/>
<path d="M477 1413 c-45 -43 -93 -89 -107 -103 -15 -14 -74 -70 -131 -124
-293 -279 -283 -262 -146 -261 80 0 92 2 89 16 -1 10 28 44 75 85 43 38 80 71
83 74 3 3 41 36 85 75 44 38 82 72 85 75 3 3 17 15 31 28 l26 23 84 -72 c92
-79 143 -122 176 -151 17 -16 25 -18 42 -9 30 16 26 29 -16 65 -20 17 -93 79
-161 138 l-124 107 -131 -112 c-73 -62 -148 -126 -167 -144 -19 -18 -36 -30
-38 -28 -5 4 -1 8 191 184 76 69 142 127 145 128 4 2 43 -28 88 -65 44 -37
100 -83 124 -102 24 -19 66 -54 94 -77 l51 -42 93 92 93 92 -43 12 c-49 15
-57 26 -53 65 4 27 3 28 -45 28 l-50 0 0 -100 c0 -97 -1 -100 -20 -88 -10 7
-20 21 -22 32 -2 12 -59 60 -153 127 -82 59 -154 108 -158 108 -5 1 -45 -34
-90 -76z m-257 -327 c0 -2 -8 -10 -17 -17 -16 -13 -17 -12 -4 4 13 16 21 21
21 13z"/>
<path d="M2270 1384 c-95 -69 -149 -115 -157 -133 -7 -16 -19 -31 -28 -34 -13
-6 -15 7 -15 93 l0 100 -49 0 -48 0 2 -37 c2 -37 1 -38 -46 -53 l-49 -16 93
-92 c90 -90 93 -92 113 -75 21 19 60 51 227 187 l109 88 31 -29 c18 -16 61
-56 97 -90 36 -33 104 -96 153 -138 48 -43 87 -80 87 -82 0 -4 -89 65 -100 78
-3 3 -64 55 -136 116 l-130 110 -25 -19 c-13 -11 -44 -37 -69 -59 -25 -21 -56
-48 -70 -60 -14 -11 -49 -42 -79 -67 -29 -26 -62 -55 -73 -64 -19 -16 -19 -17
6 -33 29 -20 7 -34 186 120 58 49 108 94 112 99 5 7 109 -73 148 -114 3 -3 36
-32 74 -65 131 -113 176 -158 174 -174 -3 -14 11 -16 95 -17 100 -2 116 6 83
38 -7 7 -96 92 -197 188 -101 96 -221 211 -267 255 -46 44 -89 81 -95 82 -7 1
-77 -46 -157 -103z"/>
<path d="M1380 1165 c0 -25 5 -45 10 -46 6 0 24 -1 40 -1 59 0 58 0 57 47 l-2
45 -52 0 -53 0 0 -45z"/>
<path d="M1510 1165 c0 -25 5 -45 10 -46 6 -1 19 -1 30 -1 69 0 68 -1 68 47
l0 45 -54 0 -54 0 0 -45z"/>
<path d="M519 1165 c0 0 -3 -12 -5 -27 -4 -25 -2 -28 26 -28 26 0 29 3 26 23
-3 12 -5 24 -5 27 -1 4 -35 8 -42 5z"/>
<path d="M593 1163 c-7 -3 -13 -16 -13 -29 0 -19 5 -24 25 -24 20 0 25 5 25
24 0 25 -15 36 -37 29z"/>
<path d="M2370 1139 c0 -24 4 -29 25 -29 20 0 25 5 25 24 0 17 -7 25 -25 28
-22 5 -25 2 -25 -23z"/>
<path d="M2439 1165 c0 0 -3 -12 -5 -27 -4 -25 -2 -28 24 -28 28 0 30 4 23 50
-1 4 -35 8 -42 5z"/>
<path d="M517 1083 c-2 -5 -2 -14 -1 -20 1 -7 2 -17 3 -22 0 -5 9 -8 19 -6 9
2 20 4 24 4 3 1 5 9 3 19 -2 9 -4 20 -4 25 -1 4 -10 7 -20 7 -11 0 -22 -3 -24
-7z"/>
<path d="M582 1063 c4 -39 42 -39 46 0 3 23 0 27 -23 27 -23 0 -26 -4 -23 -27z"/>
<path d="M1380 1037 l0 -48 53 3 52 3 2 46 1 45 -54 0 -54 -1 0 -48z"/>
<path d="M1522 1082 c-7 -2 -12 -22 -12 -48 l0 -44 53 2 52 3 0 45 0 45 -40 1
c-23 0 -46 -1 -53 -4z"/>
<path d="M2372 1063 c2 -20 9 -28 23 -28 14 0 21 8 23 28 3 23 0 27 -23 27
-23 0 -26 -4 -23 -27z"/>
<path d="M2430 1073 c0 -37 32 -52 49 -24 14 22 2 41 -25 41 -16 0 -24 -6 -24
-17z"/>
<path d="M1567 864 c-1 -1 -101 -5 -222 -9 -319 -10 -520 -21 -565 -31 -14 -2
-47 -7 -75 -9 -127 -13 -179 -20 -360 -54 -82 -16 -194 -37 -247 -46 -79 -15
-98 -22 -98 -35 0 -14 8 -17 37 -14 21 1 83 5 138 9 55 3 111 7 125 10 14 2
86 7 160 10 74 4 164 8 200 10 440 23 1522 23 1920 0 30 -1 118 -6 195 -10 77
-4 159 -8 183 -9 42 -2 43 -2 40 28 -3 33 4 30 -118 50 -19 3 -46 8 -60 11
-73 15 -184 32 -270 40 -36 4 -76 8 -90 10 -14 2 -70 7 -125 10 -55 4 -116 8
-135 10 -53 6 -628 23 -633 19z"/>
</g>
</svg>
