<?xml version="1.0" standalone="no"?>
<!DOCTYPE svg PUBLIC "-//W3C//DTD SVG 20010904//EN"
 "http://www.w3.org/TR/2001/REC-SVG-20010904/DTD/svg10.dtd">
<svg version="1.0" xmlns="http://www.w3.org/2000/svg"
 width="300.000000pt" height="300.000000pt" viewBox="0 0 300.000000 300.000000"
 preserveAspectRatio="xMidYMid meet">
<metadata>
Created by potrace 1.11, written by Peter Selinger 2001-2013
</metadata>
<g transform="translate(0.000000,300.000000) scale(0.100000,-0.100000)"
fill="#000000" stroke="none">
<path d="M651 2223 c2 -16 0 -34 -4 -41 -5 -6 -4 -12 1 -12 10 0 9 -30 -2 -48
-4 -6 -3 -12 2 -12 10 0 9 -30 -2 -48 -4 -6 -3 -12 2 -12 10 0 9 -30 -2 -48
-4 -6 -3 -12 2 -12 10 0 9 -30 -2 -48 -4 -6 -3 -12 2 -12 10 0 9 -30 -2 -48
-4 -6 -3 -12 2 -12 10 0 9 -30 -2 -48 -4 -6 -3 -12 2 -12 10 0 9 -30 -2 -48
-4 -6 -3 -12 2 -12 10 0 9 -30 -2 -48 -4 -6 -3 -12 2 -12 10 0 9 -30 -2 -48
-4 -6 -3 -12 2 -12 10 0 9 -30 -2 -48 -4 -6 -3 -12 2 -12 10 0 9 -30 -2 -48
-4 -6 -3 -12 2 -12 10 0 9 -30 -2 -48 -4 -6 -3 -12 2 -12 10 0 9 -30 -2 -48
-4 -6 -3 -12 2 -12 10 0 9 -30 -2 -48 -4 -6 -3 -12 1 -12 13 0 10 -35 -4 -48
-8 -8 -14 -8 -18 -1 -5 7 -11 6 -21 -2 -10 -8 -14 -8 -14 -1 0 6 -6 9 -12 7
-28 -10 -88 -12 -88 -2 0 6 -5 5 -13 -1 -7 -6 -19 -7 -26 -3 -7 5 -28 5 -47 1
-20 -5 -34 -4 -34 2 0 5 -6 6 -12 2 -18 -11 -62 -11 -70 0 -4 6 -12 5 -20 -1
-7 -6 -17 -11 -21 -11 -5 0 -12 -4 -15 -8 -4 -4 -1 -4 5 0 7 4 13 2 13 -3 0
-6 9 -11 20 -11 11 0 20 -4 20 -9 0 -8 37 -24 53 -22 4 1 7 -3 7 -8 0 -7 28
-19 47 -19 3 0 9 -4 12 -9 3 -4 38 -24 76 -43 39 -19 73 -39 77 -45 4 -5 8 -7
8 -2 0 4 23 -6 51 -22 28 -16 139 -73 247 -127 108 -55 201 -103 207 -107 5
-4 55 -30 110 -58 55 -28 118 -60 140 -72 22 -12 43 -20 48 -19 4 1 7 -3 7 -9
0 -5 4 -8 9 -4 5 3 12 1 15 -4 9 -14 83 -50 116 -56 21 -4 32 0 39 12 6 10 11
15 11 11 0 -7 104 45 211 105 26 14 49 23 53 20 3 -4 6 -1 6 5 0 7 6 12 14 12
8 0 16 5 18 10 2 6 14 12 27 15 14 2 27 9 30 14 3 5 25 17 49 27 23 10 42 22
42 27 0 4 5 5 10 2 6 -3 10 -1 10 5 0 6 5 8 10 5 6 -3 10 -1 10 6 0 7 3 10 6
6 3 -3 27 7 52 22 26 15 90 49 142 77 52 27 98 54 102 59 4 6 8 7 8 3 0 -4 21
5 48 20 26 16 66 37 90 47 23 10 42 22 42 27 0 4 6 8 13 8 7 0 47 20 89 44 43
24 80 41 83 38 3 -3 5 0 5 6 0 7 5 11 11 10 6 -2 14 3 17 11 3 8 0 11 -7 7 -6
-4 -11 -3 -11 3 0 7 -8 7 -23 2 -13 -5 -29 -6 -35 -2 -10 6 -57 6 -72 1 -18
-7 -86 -3 -93 5 -6 7 -10 7 -13 0 -4 -11 -66 -11 -83 0 -6 3 -11 1 -11 -5 0
-8 -4 -7 -13 2 -15 15 -17 124 -3 147 6 9 5 12 0 8 -14 -8 -13 126 0 135 8 5
8 8 0 8 -12 0 -13 149 0 169 6 9 5 12 0 8 -14 -8 -13 126 0 135 8 5 8 8 1 8
-13 0 -13 239 -1 259 6 9 5 12 -2 8 -6 -5 -10 8 -9 35 l2 43 -873 3 -874 2 3
-27z"/>
<path d="M2542 1515 c-12 -5 -28 -22 -35 -37 -6 -16 -15 -28 -18 -28 -12 0 8
-81 25 -99 15 -17 22 -19 66 -23 11 -1 20 -6 20 -11 0 -4 6 -5 13 0 6 4 18 8
25 9 34 6 73 65 68 105 -7 69 -95 114 -164 84z m94 -32 c12 -7 24 -9 28 -6 3
3 6 -1 6 -10 0 -9 4 -17 9 -17 9 0 10 -31 1 -40 -3 -3 -11 -16 -17 -30 l-11
-25 -12 30 c-8 20 -8 35 -2 46 14 21 2 38 -35 48 -37 11 -40 6 -39 -63 1 -30
6 -51 14 -54 7 -2 12 5 12 17 0 14 5 19 15 14 9 -3 13 -8 11 -11 -3 -3 -1 -11
5 -19 20 -23 -54 -16 -79 7 -17 16 -21 29 -17 56 8 62 57 87 111 57z m-26 -53
c-18 -11 -24 -6 -16 16 5 14 9 15 19 5 9 -9 9 -14 -3 -21z"/>
</g>
</svg>
