<?xml version="1.0" standalone="no"?>
<!DOCTYPE svg PUBLIC "-//W3C//DTD SVG 20010904//EN"
 "http://www.w3.org/TR/2001/REC-SVG-20010904/DTD/svg10.dtd">
<svg version="1.0" xmlns="http://www.w3.org/2000/svg"
 width="300.000000pt" height="300.000000pt" viewBox="0 0 300.000000 300.000000"
 preserveAspectRatio="xMidYMid meet">
<metadata>
Created by potrace 1.11, written by Peter Selinger 2001-2013
</metadata>
<g transform="translate(0.000000,300.000000) scale(0.100000,-0.100000)"
fill="#000000" stroke="none">
<path d="M202 1888 l3 -802 173 0 c94 0 172 -3 172 -7 0 -6 -30 -79 -76 -186
-8 -18 -21 -50 -30 -70 -9 -21 -22 -51 -30 -66 -18 -38 -14 -36 131 60 319
211 412 269 433 271 21 1 22 -3 23 -71 0 -40 1 -137 2 -216 l2 -144 520 -1
c528 -1 541 -2 575 -36 3 -3 16 -11 29 -18 57 -33 93 -54 216 -127 143 -85
230 -135 238 -135 4 0 -70 176 -103 245 -5 11 -14 32 -19 46 l-9 25 171 1 c95
1 175 2 180 2 4 1 7 363 7 804 l0 804 -392 1 c-216 0 -400 1 -410 1 -14 1 -16
21 -17 194 0 105 0 200 -1 210 0 16 -49 17 -895 17 l-895 0 2 -802z"/>
</g>
</svg>
