<?xml version="1.0" standalone="no"?>
<!DOCTYPE svg PUBLIC "-//W3C//DTD SVG 20010904//EN"
 "http://www.w3.org/TR/2001/REC-SVG-20010904/DTD/svg10.dtd">
<svg version="1.0" xmlns="http://www.w3.org/2000/svg"
 width="300.000000pt" height="300.000000pt" viewBox="0 0 300.000000 300.000000"
 preserveAspectRatio="xMidYMid meet">
<metadata>
Created by potrace 1.11, written by Peter Selinger 2001-2013
</metadata>
<g transform="translate(0.000000,300.000000) scale(0.100000,-0.100000)"
fill="#000000" stroke="none">
<path d="M1195 2179 c-170 -116 -420 -285 -555 -376 -218 -147 -296 -203 -265
-192 6 2 263 131 572 287 310 155 567 282 572 282 6 0 261 -122 568 -271 646
-313 583 -284 583 -271 0 5 -6 12 -13 15 -8 3 -263 168 -567 367 -304 200
-560 364 -569 366 -9 2 -155 -92 -326 -207z"/>
<path d="M1430 1955 l0 -45 45 0 45 0 0 45 0 45 -45 0 -45 0 0 -45z"/>
<path d="M1530 1955 l0 -45 45 0 45 0 0 45 0 45 -45 0 -45 0 0 -45z"/>
<path d="M1432 1858 c3 -43 3 -43 43 -43 40 0 40 0 43 43 l3 42 -46 0 -46 0 3
-42z"/>
<path d="M1530 1854 l0 -45 43 3 c42 3 42 3 45 46 l3 42 -45 0 -46 0 0 -46z"/>
<path d="M1144 1658 c-66 -61 -66 -165 0 -225 36 -33 36 -33 140 -33 114 0
134 -9 122 -55 l-6 -25 -140 0 -140 0 0 -55 0 -55 160 0 159 0 36 31 c58 52
68 136 24 208 -28 46 -72 61 -183 61 -83 0 -95 2 -101 19 -6 19 2 51 14 51 3
0 65 2 136 3 l130 2 3 53 3 52 -161 0 -160 0 -36 -32z"/>
<path d="M1542 1638 l3 -53 125 -2 c69 -1 133 -2 143 -2 14 -1 18 -8 15 -33
l-3 -33 -100 -5 c-158 -9 -177 -29 -183 -193 l-4 -108 58 3 58 3 -3 67 c-2 61
0 70 23 93 23 23 33 25 109 25 70 0 89 3 111 21 37 29 56 71 56 124 0 53 -19
95 -56 124 -25 19 -40 21 -191 21 l-164 0 3 -52z"/>
<path d="M102 1074 c-36 -25 -29 -70 18 -113 22 -20 40 -42 40 -49 0 -15 -32
-16 -46 -2 -13 13 -44 2 -44 -15 0 -42 92 -61 125 -25 29 33 22 67 -26 116
-44 45 -48 65 -9 44 18 -10 25 -9 39 5 15 15 14 18 -8 36 -28 23 -59 24 -89 3z"/>
<path d="M929 1067 c-60 -40 -76 -105 -39 -164 24 -39 50 -54 99 -55 43 0 101
26 101 46 0 25 -23 36 -44 20 -24 -17 -76 -18 -99 -1 -9 6 -20 26 -23 44 -5
26 -1 37 19 57 30 30 62 33 95 10 18 -12 26 -13 37 -4 22 18 18 28 -17 50 -43
26 -87 25 -129 -3z"/>
<path d="M290 965 l0 -115 65 0 c63 0 65 1 65 25 0 23 -4 25 -40 25 -36 0 -40
3 -40 25 0 23 4 25 40 25 36 0 40 3 40 25 0 23 -4 25 -40 25 -29 0 -40 4 -40
15 0 11 11 15 40 15 36 0 40 3 40 25 0 24 -2 25 -65 25 l-65 0 0 -115z"/>
<path d="M495 1068 c-2 -7 -3 -58 -2 -113 l2 -100 58 -3 c55 -3 57 -2 57 23 0
21 -5 25 -30 25 l-30 0 0 90 c0 90 0 90 -25 90 -14 0 -28 -6 -30 -12z"/>
<path d="M680 965 l0 -115 65 0 c63 0 65 1 65 25 0 23 -4 25 -40 25 -36 0 -40
3 -40 25 0 23 4 25 40 25 36 0 40 3 40 25 0 23 -4 25 -40 25 -29 0 -40 4 -40
15 0 11 11 15 40 15 36 0 40 3 40 25 0 24 -2 25 -65 25 l-65 0 0 -115z"/>
<path d="M1150 1055 c0 -17 5 -25 18 -25 15 0 17 -11 17 -87 l0 -88 28 -3 27
-3 0 90 c0 84 1 91 20 91 15 0 20 7 20 25 0 24 -2 25 -65 25 -63 0 -65 -1 -65
-25z"/>
<path d="M1470 965 l0 -115 24 0 c23 0 25 5 28 48 3 42 6 47 28 50 37 5 60 31
60 67 0 46 -26 65 -88 65 l-52 0 0 -115z m90 50 c0 -8 -9 -15 -20 -15 -11 0
-20 7 -20 15 0 8 9 15 20 15 11 0 20 -7 20 -15z"/>
<path d="M1690 964 l0 -115 28 3 c25 3 27 6 25 48 l-2 45 25 -47 c19 -38 30
-48 49 -48 31 0 31 4 3 57 -22 41 -22 42 -4 62 23 26 24 66 1 91 -14 15 -31
20 -72 20 l-53 0 0 -116z m90 51 c0 -8 -8 -15 -18 -15 -10 0 -19 7 -19 15 0 8
9 15 19 15 10 0 18 -7 18 -15z"/>
<path d="M1912 968 l3 -113 65 0 c60 0 65 2 68 23 3 20 -1 22 -37 22 -37 0
-41 3 -41 24 0 21 5 25 38 28 30 2 38 7 40 26 3 20 -1 22 -37 22 -55 0 -58 27
-3 32 30 2 38 7 40 26 3 21 0 22 -68 22 l-71 0 3 -112z"/>
<path d="M2126 988 c-9 -51 -19 -103 -22 -116 -4 -21 -1 -23 23 -20 25 3 28 8
38 63 l11 60 20 -60 c17 -50 24 -60 44 -60 20 0 27 10 44 60 l20 60 10 -60
c10 -52 14 -60 35 -63 23 -4 24 -2 18 45 -3 26 -11 79 -17 116 -12 65 -13 68
-38 65 -22 -3 -29 -12 -46 -65 -11 -35 -23 -63 -26 -63 -3 0 -15 28 -26 63
-17 53 -24 62 -46 65 -25 3 -26 1 -42 -90z"/>
<path d="M2440 965 l0 -115 25 0 25 0 0 115 0 115 -25 0 -25 0 0 -115z"/>
<path d="M2572 968 l3 -113 65 0 c60 0 65 2 68 23 3 20 -1 22 -36 22 -34 0
-40 3 -44 24 -5 23 -2 25 36 28 33 2 41 7 41 23 0 16 -8 21 -35 23 -53 5 -58
26 -7 32 34 4 43 9 45 28 3 21 0 22 -68 22 l-71 0 3 -112z"/>
<path d="M2780 965 l0 -115 25 0 c23 0 25 4 25 48 l1 47 25 -47 c19 -38 30
-48 49 -48 30 0 30 -1 3 54 -20 43 -21 46 -5 64 22 25 22 75 -1 95 -12 11 -36
17 -70 17 l-52 0 0 -115z m90 50 c0 -8 -9 -15 -20 -15 -11 0 -20 7 -20 15 0 8
9 15 20 15 11 0 20 -7 20 -15z"/>
<path d="M1155 781 c-92 -39 -71 -171 27 -171 51 0 88 35 88 84 0 61 -63 109
-115 87z m56 -41 c27 -15 25 -64 -3 -84 -12 -9 -26 -16 -30 -16 -14 0 -48 39
-48 55 0 17 35 55 51 55 6 0 19 -5 30 -10z"/>
<path d="M2158 779 c-28 -16 -22 -57 13 -89 34 -30 33 -59 -1 -38 -15 10 -22
10 -32 0 -18 -19 18 -44 57 -40 22 2 32 10 39 31 9 24 6 31 -22 60 -36 38 -41
53 -12 37 28 -15 41 17 15 36 -22 16 -34 17 -57 3z"/>
<path d="M790 695 c0 -77 2 -86 18 -83 11 2 18 14 20 35 2 23 9 33 27 37 28 7
44 50 28 75 -6 9 -27 17 -52 19 l-41 3 0 -86z m60 35 c0 -5 -7 -10 -16 -10 -8
0 -12 5 -9 10 3 6 10 10 16 10 5 0 9 -4 9 -10z"/>
<path d="M942 698 c3 -70 6 -83 21 -86 13 -3 17 4 17 30 l0 33 20 -32 c20 -33
50 -45 50 -20 0 7 -7 23 -16 35 -15 21 -15 25 0 41 36 39 7 81 -55 81 l-40 0
3 -82z m68 32 c0 -5 -7 -10 -15 -10 -8 0 -15 5 -15 10 0 6 7 10 15 10 8 0 15
-4 15 -10z"/>
<path d="M1320 695 c0 -78 2 -85 20 -85 16 0 20 7 20 35 0 28 4 35 20 35 11 0
27 11 36 25 15 23 15 27 0 50 -13 20 -25 25 -56 25 l-40 0 0 -85z m70 35 c0
-5 -7 -10 -15 -10 -8 0 -15 5 -15 10 0 6 7 10 15 10 8 0 15 -4 15 -10z"/>
<path d="M1480 695 l0 -85 45 0 c38 0 45 3 45 20 0 15 -7 20 -28 20 -19 0 -29
5 -29 15 0 10 10 15 29 15 21 0 28 5 28 20 0 16 -7 20 -30 20 -16 0 -30 5 -30
10 0 6 14 10 30 10 23 0 30 4 30 20 0 17 -7 20 -45 20 l-45 0 0 -85z"/>
<path d="M1624 767 c-3 -8 -4 -45 -2 -83 2 -56 6 -69 21 -72 13 -3 17 4 17 30
l0 33 20 -32 c20 -33 50 -45 50 -20 0 7 -7 23 -16 35 -14 20 -14 24 0 38 20
20 20 48 0 68 -19 20 -83 21 -90 3z m66 -37 c0 -5 -7 -10 -15 -10 -8 0 -15 5
-15 10 0 6 7 10 15 10 8 0 15 -4 15 -10z"/>
<path d="M1770 760 c0 -11 7 -20 15 -20 8 0 14 -3 14 -7 -1 -5 -1 -34 0 -65 1
-44 5 -58 16 -58 12 0 15 14 15 65 0 51 3 65 15 65 8 0 15 9 15 20 0 17 -7 20
-45 20 -38 0 -45 -3 -45 -20z"/>
<path d="M1900 695 c0 -78 2 -85 20 -85 18 0 20 7 20 85 0 78 -2 85 -20 85
-18 0 -20 -7 -20 -85z"/>
<path d="M2000 695 l0 -85 45 0 c38 0 45 3 45 20 0 14 -7 20 -24 20 -13 0 -26
7 -30 15 -4 11 2 15 24 15 23 0 30 4 30 20 0 15 -7 20 -24 20 -14 0 -28 5 -31
10 -4 6 7 10 24 10 24 0 31 4 31 20 0 17 -7 20 -45 20 l-45 0 0 -85z"/>
</g>
</svg>
