<?xml version="1.0" standalone="no"?>
<!DOCTYPE svg PUBLIC "-//W3C//DTD SVG 20010904//EN"
 "http://www.w3.org/TR/2001/REC-SVG-20010904/DTD/svg10.dtd">
<svg version="1.0" xmlns="http://www.w3.org/2000/svg"
 width="300.000000pt" height="300.000000pt" viewBox="0 0 300.000000 300.000000"
 preserveAspectRatio="xMidYMid meet">
<metadata>
Created by potrace 1.11, written by Peter Selinger 2001-2013
</metadata>
<g transform="translate(0.000000,300.000000) scale(0.100000,-0.100000)"
fill="#000000" stroke="none">
<path d="M1035 2016 c0 -542 1 -984 2 -983 1 1 106 105 232 231 l231 228 221
-221 c122 -122 223 -221 225 -221 2 0 4 439 4 975 l0 975 -457 0 -458 0 0
-984z"/>
<path d="M2029 2241 c0 -9 -1 -299 -1 -646 l-1 -630 342 -340 c188 -187 344
-342 347 -344 2 -2 4 441 4 986 l0 990 -345 0 c-309 0 -345 -2 -346 -16z"/>
<path d="M270 988 l0 -723 348 350 348 350 -2 365 c-1 201 -3 368 -3 373 -1 4
-156 7 -346 7 l-345 0 0 -722z"/>
<path d="M1265 1139 l-230 -229 0 -455 0 -455 457 0 458 0 0 463 0 462 -219
223 c-121 122 -223 222 -228 221 -4 0 -111 -103 -238 -230z"/>
<path d="M2029 830 c-1 -18 -1 -799 0 -817 1 -10 77 -13 346 -13 l345 0 0 76
0 76 -345 346 c-189 191 -345 340 -346 332z"/>
<path d="M612 489 l-342 -339 0 -75 0 -75 345 0 c269 0 345 3 346 13 4 51 3
810 -1 812 -3 2 -159 -149 -348 -336z"/>
</g>
</svg>
