<?xml version="1.0" standalone="no"?>
<!DOCTYPE svg PUBLIC "-//W3C//DTD SVG 20010904//EN"
 "http://www.w3.org/TR/2001/REC-SVG-20010904/DTD/svg10.dtd">
<svg version="1.0" xmlns="http://www.w3.org/2000/svg"
 width="16.000000pt" height="16.000000pt" viewBox="0 0 16.000000 16.000000"
 preserveAspectRatio="xMidYMid meet">
<metadata>
Created by potrace 1.11, written by Peter Selinger 2001-2013
</metadata>
<g transform="translate(0.000000,16.000000) scale(0.005926,-0.005926)"
fill="#000000" stroke="none">
<path d="M1085 2670 c-568 -113 -996 -568 -1070 -1135 -15 -114 -7 -337 15
-439 61 -280 169 -478 369 -677 264 -263 566 -389 932 -389 375 0 688 128 949
390 187 187 296 383 361 650 19 82 23 121 23 285 0 159 -3 206 -21 286 -118
528 -530 928 -1060 1028 -141 27 -367 28 -498 1z m195 -243 c0 -8 -11 -19 -24
-25 l-24 -11 -4 -398 c-5 -464 -7 -474 -89 -554 -57 -55 -128 -86 -233 -99
-92 -11 -193 1 -335 41 -98 27 -119 30 -146 20 -58 -21 -58 -24 2 140 45 122
64 149 71 101 9 -60 146 -116 287 -117 100 0 139 15 179 68 20 28 21 40 24
407 l3 378 -25 20 c-49 38 -35 42 144 42 135 0 170 -3 170 -13z m150 -939 c0
-6 -8 -20 -17 -31 -17 -18 -13 -29 111 -273 111 -220 146 -279 146 -246 0 4
54 111 120 237 129 245 143 281 116 291 -9 3 -16 12 -16 20 0 11 31 14 170 14
130 0 170 -3 170 -13 0 -7 -9 -18 -20 -25 -19 -12 -20 -23 -20 -432 0 -408 1
-421 20 -437 11 -10 20 -21 20 -25 0 -5 -63 -8 -140 -8 -77 0 -140 4 -140 9 0
5 9 15 20 22 20 14 20 22 18 306 l-3 293 -170 -315 c-126 -233 -173 -311 -180
-301 -5 8 -80 149 -165 315 l-155 301 -3 -292 c-2 -285 -2 -293 18 -307 11 -7
20 -17 20 -22 0 -5 -61 -9 -135 -9 -74 0 -135 2 -135 5 0 2 11 15 25 29 l25
25 0 384 0 384 26 24 c14 13 34 38 45 56 l21 33 104 0 c73 0 104 -4 104 -12z"/>
</g>
</svg>
