<?xml version="1.0" standalone="no"?>
<!DOCTYPE svg PUBLIC "-//W3C//DTD SVG 20010904//EN"
 "http://www.w3.org/TR/2001/REC-SVG-20010904/DTD/svg10.dtd">
<svg version="1.0" xmlns="http://www.w3.org/2000/svg"
 width="16.000000pt" height="16.000000pt" viewBox="0 0 16.000000 16.000000"
 preserveAspectRatio="xMidYMid meet">
<metadata>
Created by potrace 1.11, written by Peter Selinger 2001-2013
</metadata>
<g transform="translate(0.000000,16.000000) scale(0.005333,-0.005333)"
fill="#000000" stroke="none">
<path d="M2589 2393 c-1 -54 -3 -116 -4 -138 -8 -163 -17 -308 -20 -350 -15
-182 -22 -257 -30 -315 -2 -19 -7 -55 -10 -80 -6 -51 -16 -115 -21 -145 -2
-11 -11 -56 -19 -100 -39 -204 -102 -409 -157 -510 -71 -133 -227 -234 -438
-285 -162 -39 -281 -61 -460 -84 -122 -16 -166 -21 -270 -31 -36 -3 -83 -8
-105 -10 -22 -3 -83 -8 -135 -11 -52 -3 -113 -7 -135 -9 -22 -2 -69 -3 -104
-4 -35 -1 -62 -4 -58 -7 3 -3 449 -7 991 -8 l986 -1 0 1093 c0 600 -2 1092 -5
1092 -3 0 -6 -44 -6 -97z"/>
<path d="M586 308 c3 -5 10 -6 15 -3 13 9 11 12 -6 12 -8 0 -12 -4 -9 -9z"/>
</g>
</svg>
