<?xml version="1.0" standalone="no"?>
<!DOCTYPE svg PUBLIC "-//W3C//DTD SVG 20010904//EN"
 "http://www.w3.org/TR/2001/REC-SVG-20010904/DTD/svg10.dtd">
<svg version="1.0" xmlns="http://www.w3.org/2000/svg"
 width="300.000000pt" height="300.000000pt" viewBox="0 0 300.000000 300.000000"
 preserveAspectRatio="xMidYMid meet">
<metadata>
Created by potrace 1.11, written by Peter Selinger 2001-2013
</metadata>
<g transform="translate(0.000000,300.000000) scale(0.100000,-0.100000)"
fill="#000000" stroke="none">
<path d="M1215 2423 c-319 -64 -603 -237 -810 -493 -165 -204 -277 -473 -299
-720 l-6 -65 650 650 c357 357 650 651 650 653 0 7 -82 -4 -185 -25z"/>
<path d="M1606 2438 c4 -7 189 -195 410 -418 222 -223 509 -513 639 -645 l237
-240 -6 90 c-3 50 -8 104 -11 120 -3 17 -8 44 -11 60 -63 352 -321 695 -653
868 -156 82 -340 143 -486 162 -128 16 -127 16 -119 3z"/>
<path d="M1467 2136 c-16 -17 -111 -116 -212 -221 -100 -104 -209 -218 -241
-252 -85 -88 -221 -231 -429 -448 -100 -104 -204 -212 -230 -240 l-47 -50 -92
-2 c-50 -1 -97 -2 -103 -2 -8 -1 -11 -12 -7 -33 18 -109 38 -193 61 -265 l26
-83 1302 0 1303 0 25 83 c34 108 45 152 52 212 4 28 9 58 11 68 6 20 13 18
-97 21 l-86 3 -130 134 c-135 138 -183 187 -588 604 -132 135 -296 304 -365
375 l-125 128 -28 -32z m-31 -708 c4 -5 6 -77 5 -160 l-1 -78 -119 0 -120 0
-3 43 c-2 23 -2 77 0 119 3 60 7 77 19 80 18 3 215 -1 219 -4z m324 3 l35 -1
0 -120 1 -120 -121 0 -121 0 -1 116 c-1 134 -4 130 104 127 37 -1 84 -2 103
-2z m-318 -378 c2 -32 1 -86 0 -120 l-4 -63 -118 0 -118 0 -4 78 c-2 42 -2 96
0 120 l3 42 119 0 119 0 3 -57z m353 -63 l0 -120 -121 0 -121 0 1 120 0 120
121 0 120 0 0 -120z"/>
</g>
</svg>
