<?xml version="1.0" standalone="no"?>
<!DOCTYPE svg PUBLIC "-//W3C//DTD SVG 20010904//EN"
 "http://www.w3.org/TR/2001/REC-SVG-20010904/DTD/svg10.dtd">
<svg version="1.0" xmlns="http://www.w3.org/2000/svg"
 width="300.000000pt" height="300.000000pt" viewBox="0 0 300.000000 300.000000"
 preserveAspectRatio="xMidYMid meet">
<metadata>
Created by potrace 1.11, written by Peter Selinger 2001-2013
</metadata>
<g transform="translate(0.000000,300.000000) scale(0.100000,-0.100000)"
fill="#000000" stroke="none">
<path d="M1335 2634 c-131 -21 -144 -24 -234 -56 -402 -141 -690 -489 -758
-913 -15 -92 -9 -314 11 -399 48 -208 124 -364 249 -511 175 -205 409 -341
677 -392 49 -10 367 -9 414 1 21 4 46 9 55 11 47 10 164 51 221 77 317 148
550 433 637 781 34 138 39 344 10 480 -56 270 -197 504 -405 673 -85 69 -118
89 -227 143 -201 98 -447 138 -650 105z"/>
</g>
</svg>
