<?xml version="1.0" standalone="no"?>
<!DOCTYPE svg PUBLIC "-//W3C//DTD SVG 20010904//EN"
 "http://www.w3.org/TR/2001/REC-SVG-20010904/DTD/svg10.dtd">
<svg version="1.0" xmlns="http://www.w3.org/2000/svg"
 width="166.000000pt" height="166.000000pt" viewBox="0 0 166.000000 166.000000"
 preserveAspectRatio="xMidYMid meet">
<metadata>
Created by potrace 1.11, written by Peter Selinger 2001-2013
</metadata>
<g transform="translate(0.000000,166.000000) scale(0.100000,-0.100000)"
fill="#000000" stroke="none">
<path d="M660 1580 c-24 -9 -48 -23 -54 -31 -8 -10 -32 -15 -81 -14 l-70 0 -8
-58 c-6 -46 -5 -64 7 -82 13 -20 13 -25 2 -35 -10 -7 -16 -8 -21 0 -3 5 -12
10 -19 10 -14 0 -96 -68 -96 -79 0 -5 15 -19 33 -31 18 -13 38 -35 44 -49 15
-34 17 -161 3 -161 -5 0 -10 6 -10 13 0 9 -10 12 -31 9 -22 -3 -27 -7 -18 -13
10 -6 11 -9 2 -9 -17 0 -17 -27 0 -33 10 -4 9 -6 0 -6 -7 -1 -13 -8 -13 -16 0
-8 6 -15 13 -15 8 0 7 -4 -3 -10 -11 -7 -6 -10 22 -10 20 0 39 6 41 13 3 7 6
5 6 -5 1 -10 5 -18 10 -18 5 0 11 62 13 138 l3 137 40 37 40 36 -25 20 c-14
11 -22 24 -18 28 4 3 21 -7 37 -25 16 -17 35 -31 43 -31 22 0 58 -44 58 -71 0
-13 -16 -60 -35 -104 -19 -44 -35 -87 -35 -97 0 -9 -11 -52 -24 -95 -35 -111
-37 -137 -16 -206 29 -100 60 -296 60 -377 -1 -41 -7 -97 -14 -125 -17 -63
-11 -85 23 -86 53 -2 67 3 94 37 16 19 37 34 46 34 10 0 35 13 57 30 46 35 59
36 102 10 31 -19 43 -52 23 -64 -19 -12 -40 -96 -31 -121 8 -21 16 -25 48 -25
61 0 82 21 82 86 0 59 15 70 51 38 14 -13 29 -15 63 -10 44 7 45 7 39 40 -6
38 1 42 70 45 83 4 175 80 162 134 -4 15 -11 25 -15 24 -14 -4 -71 84 -77 117
-3 20 1 45 11 64 19 37 5 43 -29 14 -38 -32 -55 -66 -55 -109 0 -51 -15 -59
-17 -9 0 19 -10 47 -21 63 -11 15 -24 49 -29 74 -6 26 -23 64 -39 84 -25 33
-29 48 -30 101 0 55 -5 69 -37 118 -21 32 -44 83 -52 119 -15 64 -32 257 -23
257 3 0 23 -27 44 -60 60 -93 66 -81 34 64 -11 49 -26 99 -34 110 -26 40 -146
155 -177 171 -53 28 -121 34 -169 15z m-230 -260 c0 -5 7 -10 16 -10 19 0 15
-29 -7 -43 -23 -14 -69 0 -69 21 0 10 5 23 12 30 15 15 48 16 48 2z m760 -984
c-10 -28 -30 -35 -30 -11 0 8 5 26 12 40 9 21 13 23 20 11 4 -8 4 -26 -2 -40z"/>
</g>
</svg>
