<?xml version="1.0" standalone="no"?>
<!DOCTYPE svg PUBLIC "-//W3C//DTD SVG 20010904//EN"
 "http://www.w3.org/TR/2001/REC-SVG-20010904/DTD/svg10.dtd">
<svg version="1.0" xmlns="http://www.w3.org/2000/svg"
 width="300.000000pt" height="300.000000pt" viewBox="0 0 300.000000 300.000000"
 preserveAspectRatio="xMidYMid meet">
<metadata>
Created by potrace 1.11, written by Peter Selinger 2001-2013
</metadata>
<g transform="translate(0.000000,300.000000) scale(0.100000,-0.100000)"
fill="#000000" stroke="none">
<path d="M1489 2552 c-12 -26 -45 -96 -74 -157 -29 -60 -73 -153 -97 -205 -25
-52 -61 -129 -81 -170 -19 -41 -65 -137 -101 -214 -36 -76 -66 -139 -66 -141
0 -1 -30 -65 -66 -141 -89 -187 -150 -315 -189 -399 -55 -118 -109 -233 -189
-398 -42 -87 -76 -160 -76 -161 0 -4 -119 -256 -127 -268 -2 -5 45 -8 106 -8
l110 0 42 87 c23 49 72 151 109 228 37 77 101 210 142 295 l75 155 498 0 498
0 51 -105 c28 -58 80 -166 115 -240 35 -74 96 -199 134 -277 l69 -143 110 0
c60 0 107 3 105 8 -2 4 -11 23 -20 42 -8 19 -39 85 -67 145 -29 61 -74 160
-102 220 -53 116 -88 191 -158 340 -94 200 -84 97 -86 830 -1 358 -2 658 -3
667 -1 16 -12 18 -95 16 l-93 -1 0 -423 c0 -233 -2 -426 -4 -429 -3 -2 -56
100 -119 228 -62 127 -162 330 -221 449 l-107 217 -23 -47z"/>
</g>
</svg>
