<?xml version="1.0" standalone="no"?>
<!DOCTYPE svg PUBLIC "-//W3C//DTD SVG 20010904//EN"
 "http://www.w3.org/TR/2001/REC-SVG-20010904/DTD/svg10.dtd">
<svg version="1.0" xmlns="http://www.w3.org/2000/svg"
 width="16.000000pt" height="16.000000pt" viewBox="0 0 16.000000 16.000000"
 preserveAspectRatio="xMidYMid meet">
<metadata>
Created by potrace 1.11, written by Peter Selinger 2001-2013
</metadata>
<g transform="translate(0.000000,16.000000) scale(0.005461,-0.005461)"
fill="#000000" stroke="none">
<path d="M1095 2559 c-204 -204 -352 -360 -330 -345 65 41 152 67 252 73 111
7 187 -6 303 -53 l85 -35 20 26 c26 31 43 32 49 3 6 -27 26 -220 26 -248 0
-39 -36 -22 -64 30 -44 80 -120 156 -194 192 -57 28 -76 33 -142 32 -123 -1
-204 -54 -265 -173 -72 -143 -73 -359 -1 -499 83 -162 237 -225 377 -154 72
36 80 55 77 179 -4 121 -15 140 -94 151 -55 8 -74 37 -32 47 40 10 448 1 449
-10 1 -5 -24 -18 -54 -28 -61 -20 -67 -29 -67 -109 l0 -47 43 -5 c23 -4 130
-5 237 -4 215 3 269 -6 381 -62 194 -98 291 -366 210 -579 -11 -30 -19 -56
-18 -58 2 -1 134 129 295 290 l292 292 -733 733 -732 732 -370 -371z"/>
<path d="M241 1703 l-243 -236 734 -734 733 -734 237 243 237 243 -77 77 -76
78 -231 2 c-222 3 -230 4 -230 23 0 17 9 21 49 26 75 8 92 34 101 155 l8 96
-189 189 -189 189 -55 0 c-206 1 -395 111 -473 277 -28 61 -32 79 -35 180 -4
105 -6 113 -31 137 l-27 25 -243 -236z"/>
<path d="M1709 1519 c-7 -15 -11 -139 -12 -395 l-2 -373 28 -28 c26 -26 33
-28 110 -27 102 0 158 25 222 96 66 73 90 157 89 308 -1 91 -6 129 -23 180
-59 174 -171 260 -337 260 -54 0 -65 -3 -75 -21z"/>
</g>
</svg>
