<?xml version="1.0" standalone="no"?>
<!DOCTYPE svg PUBLIC "-//W3C//DTD SVG 20010904//EN"
 "http://www.w3.org/TR/2001/REC-SVG-20010904/DTD/svg10.dtd">
<svg version="1.0" xmlns="http://www.w3.org/2000/svg"
 width="300.000000pt" height="300.000000pt" viewBox="0 0 300.000000 300.000000"
 preserveAspectRatio="xMidYMid meet">
<metadata>
Created by potrace 1.11, written by Peter Selinger 2001-2013
</metadata>
<g transform="translate(0.000000,300.000000) scale(0.100000,-0.100000)"
fill="#000000" stroke="none">
<path d="M1355 2937 c-22 -8 -53 -21 -70 -29 -16 -8 -66 -18 -110 -21 -103 -7
-196 -37 -264 -84 -69 -49 -67 -48 -126 -75 -61 -28 -195 -158 -254 -246 -42
-62 -103 -183 -116 -232 -7 -22 -2 -19 36 19 66 65 181 111 280 111 17 0 49
14 76 34 78 56 161 79 283 78 93 0 111 2 157 25 29 14 95 32 147 41 81 14 107
14 183 3 48 -7 115 -24 148 -38 51 -22 77 -27 170 -29 128 -2 212 -26 288 -80
27 -20 59 -34 76 -34 98 0 214 -45 279 -108 23 -23 42 -37 42 -31 0 24 -82
183 -131 254 -64 93 -179 202 -245 233 -58 27 -56 26 -125 75 -67 46 -161 77
-259 83 -50 4 -95 14 -135 32 -52 23 -76 27 -175 29 -75 2 -129 -2 -155 -10z"/>
<path d="M1256 2099 c-43 -88 -75 -163 -72 -166 3 -3 20 -3 38 1 31 6 38 15
114 166 l80 160 -41 0 -42 0 -77 -161z"/>
<path d="M1452 2194 c-29 -58 -32 -73 -32 -154 l0 -90 30 0 29 0 3 98 3 97 35
-47 c19 -26 38 -47 41 -48 3 0 18 18 35 40 16 22 32 40 37 40 4 0 7 -40 7 -89
l0 -89 27 -5 c16 -3 31 -3 35 -1 4 2 6 73 5 157 l-2 152 -35 3 c-32 3 -39 -1
-69 -43 -18 -25 -36 -45 -41 -45 -5 0 -18 15 -29 34 -39 62 -44 61 -79 -10z"/>
<path d="M1085 2224 c-38 -7 -81 -16 -94 -19 l-24 -6 6 -151 c4 -83 8 -152 10
-154 10 -10 114 21 130 39 31 35 22 47 -28 40 -45 -6 -45 -6 -45 25 0 34 5 37
83 48 44 6 47 8 47 36 0 30 0 30 -42 24 -24 -4 -53 -9 -65 -13 -21 -5 -23 -1
-23 30 l0 35 57 7 c77 9 83 13 83 46 0 33 2 32 -95 13z"/>
<path d="M1823 2088 c-62 -147 -63 -158 -15 -158 17 0 26 8 33 30 9 24 17 30
37 29 65 -3 85 -13 97 -48 8 -24 20 -38 39 -44 15 -5 30 -7 33 -3 7 6 -85 306
-99 324 -6 6 -23 12 -38 12 -26 0 -31 -8 -87 -142z m116 -35 c1 -15 -27 -17
-47 -5 -10 7 -9 17 4 48 l17 39 13 -35 c7 -19 13 -41 13 -47z"/>
<path d="M2151 2100 c22 -45 39 -85 39 -90 0 -6 -21 -37 -47 -70 -25 -33 -44
-62 -42 -64 2 -2 20 -7 39 -11 32 -5 37 -3 59 30 13 19 27 35 31 35 4 0 18
-26 32 -58 21 -49 30 -59 61 -69 l36 -11 -26 57 c-14 31 -32 75 -41 97 l-15
42 47 56 48 56 -27 10 c-41 16 -52 12 -81 -26 l-27 -35 -22 53 c-21 52 -49 78
-86 78 -13 0 -9 -16 22 -80z"/>
<path d="M720 2126 l-65 -23 3 -154 c2 -85 5 -155 6 -156 1 -2 17 3 34 9 30
12 32 15 32 64 0 39 4 53 16 58 16 6 26 -2 61 -52 13 -19 22 -22 47 -16 48 10
49 13 11 64 -32 43 -34 49 -18 61 46 39 52 125 10 154 -29 20 -59 18 -137 -9z
m95 -66 c9 -28 -10 -56 -46 -69 -47 -16 -49 -15 -49 33 0 47 6 52 62 55 18 1
29 -5 33 -19z"/>
<path d="M1351 1715 c-41 -7 -100 -23 -130 -33 -33 -12 -97 -22 -153 -26 -112
-6 -200 -32 -273 -80 -33 -22 -73 -37 -115 -44 -73 -13 -149 -47 -200 -91
l-35 -29 33 -64 c82 -159 310 -433 646 -775 l228 -233 142 0 142 0 205 208
c370 375 585 631 669 796 l35 68 -35 29 c-51 43 -127 78 -201 91 -39 8 -81 24
-107 41 -70 48 -169 77 -279 83 -54 3 -115 12 -137 20 -117 44 -315 62 -435
39z"/>
<path d="M1360 210 c0 -5 4 -10 9 -10 5 0 17 -32 27 -70 10 -39 21 -75 24 -81
5 -6 33 -8 82 -3 l76 7 17 66 c10 36 22 70 26 75 20 22 2 26 -126 26 -83 0
-135 -4 -135 -10z"/>
<path d="M1755 208 c-52 -28 -62 -92 -20 -133 31 -32 75 -32 111 -1 73 62 -7
181 -91 134z m79 -19 c49 -38 20 -129 -41 -129 -32 0 -73 43 -73 75 0 30 41
75 68 75 11 0 31 -9 46 -21z"/>
<path d="M1761 133 c0 -39 2 -44 9 -25 12 27 30 29 37 2 3 -11 10 -20 15 -20
5 0 6 6 1 12 -4 7 -7 26 -8 43 0 25 -4 31 -27 33 -27 3 -28 2 -27 -45z m49 22
c0 -8 -9 -15 -20 -15 -11 0 -20 7 -20 15 0 8 9 15 20 15 11 0 20 -7 20 -15z"/>
</g>
</svg>
