<?xml version="1.0" standalone="no"?>
<!DOCTYPE svg PUBLIC "-//W3C//DTD SVG 20010904//EN"
 "http://www.w3.org/TR/2001/REC-SVG-20010904/DTD/svg10.dtd">
<svg version="1.0" xmlns="http://www.w3.org/2000/svg"
 width="300.000000pt" height="300.000000pt" viewBox="0 0 300.000000 300.000000"
 preserveAspectRatio="xMidYMid meet">
<metadata>
Created by potrace 1.11, written by Peter Selinger 2001-2013
</metadata>
<g transform="translate(0.000000,300.000000) scale(0.100000,-0.100000)"
fill="#000000" stroke="none">
<path d="M460 2196 c-141 -39 -232 -130 -281 -281 -31 -96 -31 -243 0 -334 43
-125 116 -211 220 -260 55 -25 59 -26 366 -31 225 -4 316 -9 332 -18 72 -41
71 -195 -1 -243 -17 -11 -101 -15 -441 -19 l-420 -5 0 -155 0 -155 460 -3
c512 -3 526 -1 620 63 77 53 137 139 166 240 20 72 18 266 -4 328 -29 83 -57
129 -111 182 -101 101 -165 115 -536 115 -215 0 -259 2 -278 16 -74 52 -68
186 11 234 30 19 53 20 450 20 l418 0 -3 158 -3 157 -460 2 c-342 1 -472 -2
-505 -11z"/>
<path d="M1587 2203 c-4 -3 -7 -75 -7 -160 l0 -153 415 0 c453 0 453 0 490
-57 23 -35 26 -119 5 -157 -27 -52 -49 -56 -292 -56 -241 0 -337 -10 -404 -39
-57 -26 -136 -100 -161 -153 -48 -99 -48 -98 -48 -423 l0 -310 160 0 160 0 5
230 c5 240 7 252 54 303 47 53 63 56 336 62 247 6 257 7 312 33 104 47 183
146 222 276 21 70 21 218 1 296 -30 112 -112 223 -199 267 -86 44 -127 47
-597 48 -245 0 -449 -3 -452 -7z"/>
</g>
</svg>
