<?xml version="1.0" standalone="no"?>
<!DOCTYPE svg PUBLIC "-//W3C//DTD SVG 20010904//EN"
 "http://www.w3.org/TR/2001/REC-SVG-20010904/DTD/svg10.dtd">
<svg version="1.0" xmlns="http://www.w3.org/2000/svg"
 width="300.000000pt" height="300.000000pt" viewBox="0 0 300.000000 300.000000"
 preserveAspectRatio="xMidYMid meet">
<metadata>
Created by potrace 1.11, written by Peter Selinger 2001-2013
</metadata>
<g transform="translate(0.000000,300.000000) scale(0.100000,-0.100000)"
fill="#000000" stroke="none">
<path d="M79 2812 c-12 -2 -14 -91 -13 -614 1 -405 5 -613 12 -617 8 -5 1284
-7 1315 -2 4 0 7 278 7 616 l0 615 -532 1 c-293 1 -587 2 -654 3 -66 0 -127 0
-135 -2z m706 -128 c13 -5 14 -9 4 -15 -25 -15 -1 -20 41 -9 61 16 113 21 128
12 7 -5 15 -20 17 -35 9 -44 -35 -55 -137 -34 -10 1 -21 6 -24 10 -14 14 -24
7 -24 -16 0 -12 11 -74 24 -137 14 -63 21 -117 16 -120 -4 -3 -41 -5 -82 -4
-51 0 -72 4 -70 13 1 6 4 27 7 46 2 19 9 51 14 73 6 21 13 54 15 73 3 19 5 34
6 34 1 0 3 10 6 23 5 26 0 27 -56 7 -86 -30 -150 -12 -131 36 5 15 16 29 24
32 23 9 90 0 131 -17 35 -15 38 -15 32 1 -10 26 22 41 59 27z m80 -434 l0 -55
-107 -1 -108 -2 0 60 0 59 108 -3 107 -3 0 -55z m-8 -345 c41 -103 3 -198 -82
-209 -131 -15 -178 106 -98 254 15 29 39 72 52 97 l23 44 47 -78 c26 -43 52
-91 58 -108z m-451 134 c39 -43 97 -53 208 -35 42 7 64 -7 47 -28 -7 -9 -17
-13 -22 -10 -5 3 -9 0 -9 -6 0 -6 -4 -9 -8 -6 -8 4 -107 10 -146 7 -16 -1 -17
-4 -8 -13 8 -8 42 -13 87 -14 41 0 77 -3 80 -6 3 -3 2 -13 -1 -22 -6 -15 -17
-17 -81 -12 -78 6 -96 1 -145 -39 -16 -14 -37 -21 -53 -20 -32 4 -75 31 -75
48 0 9 2 9 8 0 19 -29 111 -17 113 15 5 88 4 97 -14 115 -21 21 -94 21 -89 0
1 -7 -2 -13 -8 -13 -22 0 -6 30 25 48 31 18 70 14 91 -9z m798 0 c37 -29 33
-39 -18 -39 -40 0 -44 -2 -49 -30 -4 -16 -4 -36 -1 -44 6 -14 43 -32 79 -38
19 -3 19 -4 -3 -26 -38 -38 -106 -27 -160 25 -8 8 -34 11 -75 8 -77 -5 -107 2
-107 24 0 15 10 17 68 16 37 0 78 2 92 5 47 11 -1 24 -93 24 -66 1 -90 5 -97
16 -13 21 -5 24 58 21 142 -7 146 -6 184 29 40 35 84 39 122 9z m-834 -49 c0
-5 -2 -10 -4 -10 -3 0 -8 5 -11 10 -3 6 -1 10 4 10 6 0 11 -4 11 -10z m9 -62
c-12 -23 -28 -38 -40 -38 -6 0 42 59 49 60 1 0 -3 -10 -9 -22z"/>
<path d="M723 2447 c2 -7 18 -12 35 -12 42 0 35 19 -7 22 -21 1 -31 -3 -28
-10z"/>
<path d="M670 1782 c0 -16 30 -50 49 -55 36 -9 41 9 6 27 -19 11 -35 23 -35
28 0 4 -4 8 -10 8 -5 0 -10 -3 -10 -8z"/>
<path d="M2202 2812 l-592 -2 2 -617 3 -618 662 0 663 0 1 510 c1 281 2 558 3
618 1 90 -1 107 -14 108 -53 3 -200 4 -728 1z m456 -217 c58 -8 77 -29 48 -50
-15 -11 -15 -13 -1 -19 9 -3 13 -10 10 -16 -4 -6 -63 -10 -147 -10 -78 0 -138
-3 -135 -6 4 -4 71 -7 149 -8 130 -1 143 -3 146 -19 2 -10 -3 -26 -12 -36 -12
-14 -15 -47 -14 -195 1 -145 -1 -179 -13 -186 -10 -6 -14 -30 -15 -75 -2 -96
-34 -118 -48 -33 -4 24 -15 47 -27 56 -11 7 -18 20 -17 27 2 8 0 13 -3 12 -16
-5 -39 29 -39 58 0 29 3 32 32 33 51 1 58 20 57 159 0 68 -4 121 -9 118 -4 -3
-7 -54 -6 -114 2 -122 -2 -143 -30 -147 -37 -7 -48 5 -23 25 18 14 23 29 23
60 0 23 -6 47 -13 54 -10 10 -11 6 -6 -15 4 -17 3 -28 -3 -28 -5 0 -13 11 -16
24 -3 13 -9 31 -12 40 -5 12 -2 15 10 10 24 -9 19 3 -6 18 -13 7 -70 15 -128
18 l-105 5 -2 29 c-3 43 4 40 -119 44 l-61 2 2 75 c1 41 3 76 6 79 2 2 33 6
69 8 l65 3 0 -75 c1 -89 -6 -86 160 -84 122 2 125 1 120 -50 -2 -15 0 -25 3
-21 11 11 9 69 -2 77 -6 4 -68 8 -138 8 l-128 0 0 74 0 74 111 1 c61 0 113 1
114 3 5 5 96 0 153 -7z m-548 -77 c-1 -46 -1 -87 0 -93 1 -5 1 -30 0 -55 -2
-51 -17 -77 -34 -60 -14 14 -16 200 -1 200 5 0 4 4 -3 8 -15 10 -10 51 8 62
10 6 8 9 -6 13 -13 3 -10 5 9 6 l28 1 -1 -82z m-60 -10 c0 -53 -3 -79 -10 -72
-5 5 -11 18 -13 29 -1 11 -7 26 -12 34 -5 10 -4 16 3 19 6 2 9 9 6 17 -5 13
11 55 21 55 3 0 5 -37 5 -82z m-133 57 c8 -9 18 -13 21 -10 4 3 0 10 -8 15
-11 7 -5 10 22 10 l36 0 4 -51 c4 -69 -4 -86 -39 -84 -15 1 -27 7 -25 13 1 7
-2 12 -8 12 -5 0 -10 -7 -10 -15 0 -10 -8 -14 -22 -11 -20 2 -23 10 -26 56 -2
29 -1 59 2 66 7 19 34 18 53 -1z m-69 -62 c1 -53 0 -56 -14 -39 -15 21 -18 54
-8 80 12 32 22 14 22 -41z m257 -213 c3 5 14 9 23 9 15 -1 15 -2 1 -6 -13 -3
-15 -12 -9 -46 4 -23 7 -67 6 -97 -1 -55 -1 -55 -31 -53 l-30 2 31 -11 c30
-10 32 -12 27 -52 -7 -50 -7 -50 -44 -52 -29 -1 -29 0 -30 55 -3 123 2 236 11
239 6 2 7 8 4 14 -4 6 2 6 14 -1 14 -7 23 -8 27 -1z m15 -325 c0 -1 -12 -2
-26 -2 -17 0 -22 2 -13 7 10 7 39 3 39 -5z m565 -183 c7 -8 30 -16 51 -18 58
-5 84 -13 84 -25 0 -8 -4 -8 -12 -1 -7 5 -37 12 -67 15 -64 7 -80 20 -86 73
l-5 39 11 -35 c6 -19 16 -41 24 -48z"/>
<path d="M2550 2569 c0 -12 24 -15 60 -8 19 3 33 7 30 8 -13 6 -90 6 -90 0z"/>
<path d="M2225 2560 c4 -6 11 -8 16 -5 14 9 11 15 -7 15 -8 0 -12 -5 -9 -10z"/>
<path d="M2337 2533 c-4 -3 -7 -11 -7 -17 0 -6 5 -5 12 2 6 6 9 14 7 17 -3 3
-9 2 -12 -2z"/>
<path d="M2500 2532 c0 -4 17 -6 38 -4 64 6 69 10 15 11 -29 0 -53 -3 -53 -7z"/>
<path d="M2230 2449 c0 -5 5 -7 10 -4 6 3 10 8 10 11 0 2 -4 4 -10 4 -5 0 -10
-5 -10 -11z"/>
<path d="M2638 2028 c-6 -17 3 -58 12 -58 10 0 10 59 0 65 -4 3 -10 0 -12 -7z"/>
<path d="M2645 1940 c3 -5 8 -10 11 -10 2 0 4 5 4 10 0 6 -5 10 -11 10 -5 0
-7 -4 -4 -10z"/>
<path d="M1910 2536 c0 -11 9 -16 30 -16 23 0 28 4 23 16 -4 12 -8 13 -14 3
-6 -10 -11 -10 -23 0 -13 11 -16 11 -16 -3z"/>
<path d="M1945 2490 c-3 -5 -2 -18 4 -27 7 -14 9 -12 8 10 -2 30 -3 31 -12 17z"/>
<path d="M70 785 l0 -620 662 1 663 1 3 617 c1 339 -1 616 -5 617 -5 0 -304 2
-666 2 l-657 2 0 -620z m616 389 c3 -32 16 -42 46 -33 73 21 318 -11 318 -42
0 -6 8 -8 19 -4 25 8 33 -25 36 -140 1 -49 6 -110 10 -135 4 -25 9 -72 10
-105 1 -33 3 -70 4 -82 1 -24 63 -63 100 -63 29 0 35 -17 14 -39 -18 -19 -19
-18 -102 16 -77 32 -111 36 -111 15 0 -5 15 -15 33 -22 97 -37 119 -51 107
-65 -17 -21 -39 -19 -104 10 -64 28 -91 31 -99 11 -4 -10 4 -18 24 -25 16 -5
29 -11 29 -13 0 -3 -730 -2 -757 1 -10 1 -13 55 -13 236 0 220 1 235 18 235
10 0 22 -4 28 -8 5 -5 51 -24 101 -42 78 -27 96 -30 109 -19 13 10 19 10 36 0
16 -10 23 -10 32 -1 8 9 8 14 -1 17 -21 8 -2 33 26 33 14 0 31 4 37 8 13 9 34
46 40 73 2 10 6 28 9 40 3 16 0 19 -14 14 -12 -3 -27 3 -42 19 -12 13 -28 22
-35 19 -13 -5 -24 39 -17 68 7 27 51 48 82 39 14 -3 26 -11 27 -16z m-161
-223 c-3 -6 4 -15 16 -21 11 -7 18 -14 15 -17 -3 -3 -12 0 -20 6 -11 10 -15 9
-18 -6 -2 -10 -6 -13 -10 -8 -6 11 7 55 17 55 4 0 4 -4 0 -9z"/>
<path d="M714 932 c-43 -67 -81 -105 -99 -99 -17 7 -42 -10 -30 -21 6 -5 58
-25 116 -46 85 -30 110 -35 132 -27 24 9 25 13 21 58 -3 26 -6 63 -8 81 -3 27
2 37 25 55 41 30 25 41 -78 52 -42 5 -43 4 -79 -53z"/>
<path d="M969 893 c-37 -25 -39 -33 -35 -98 2 -33 0 -70 -5 -82 -10 -26 2 -37
54 -51 61 -17 68 -10 63 67 -2 36 -11 80 -20 96 -9 17 -16 40 -16 52 0 30 -13
35 -41 16z"/>
<path d="M290 868 c0 -7 20 -21 45 -30 36 -14 45 -14 45 -3 0 7 -12 18 -27 23
-16 5 -36 13 -45 17 -12 5 -18 3 -18 -7z"/>
<path d="M426 811 c-8 -12 143 -74 162 -66 21 8 12 14 -69 47 -77 31 -85 32
-93 19z"/>
<path d="M644 729 c-8 -13 -9 -13 65 -44 44 -18 67 -23 74 -16 14 14 11 17
-66 45 -43 17 -68 22 -73 15z"/>
<path d="M594 658 c-8 -13 -9 -12 65 -42 39 -16 68 -23 74 -17 11 11 -6 21
-81 49 -31 12 -54 16 -58 10z"/>
<path d="M845 650 c-10 -15 0 -23 63 -48 49 -20 82 -21 82 -2 0 4 -28 18 -62
31 -35 13 -66 25 -70 27 -3 2 -9 -2 -13 -8z"/>
<path d="M785 580 c-9 -14 -11 -13 58 -44 67 -30 73 -31 80 -12 4 11 -9 21
-46 35 -29 10 -59 22 -68 26 -10 3 -20 1 -24 -5z"/>
<path d="M1627 1402 c-16 -3 -17 -51 -17 -618 0 -484 3 -614 13 -615 6 0 306
-1 665 -2 428 -1 652 1 653 8 1 6 1 19 1 30 -1 11 -1 284 -2 608 0 554 -1 587
-17 588 -51 3 -1282 4 -1296 1z m647 -151 c18 -15 21 -53 5 -82 -8 -16 -7 -25
8 -41 10 -11 26 -23 36 -27 17 -6 68 -116 101 -216 23 -70 38 -94 53 -88 23 9
33 -16 33 -86 0 -61 -10 -77 -17 -28 -2 12 -11 28 -20 35 -10 7 -12 12 -4 12
7 0 9 5 6 10 -3 6 -17 10 -30 10 -18 0 -23 -4 -19 -15 5 -11 -1 -15 -20 -15
-16 0 -26 6 -27 15 -1 8 -2 23 -3 32 -1 12 8 20 26 23 31 6 33 -3 -27 99 -16
28 -32 51 -35 51 -3 0 -5 -108 -5 -241 0 -132 -4 -243 -8 -246 -10 -6 2 -43
19 -61 8 -7 14 -17 14 -22 0 -16 -47 -3 -69 19 -19 19 -22 34 -24 134 -4 127
-19 179 -31 106 -5 -24 -7 -62 -6 -84 6 -138 6 -137 -22 -167 -31 -33 -48 -36
-48 -8 0 11 5 20 10 20 7 0 9 20 4 57 -3 32 -6 81 -5 108 1 28 -5 71 -13 97
-10 34 -12 80 -9 165 3 65 3 116 0 113 -20 -21 -66 -127 -61 -142 3 -10 4 -18
2 -18 -2 0 -17 -4 -35 -9 -28 -8 -31 -7 -24 7 4 10 15 33 24 53 9 20 18 48 21
63 3 15 12 50 20 79 8 29 17 67 20 86 2 18 10 39 16 45 11 11 15 12 43 15 21
2 36 43 24 62 -14 23 0 87 21 92 25 5 38 3 56 -12z m-184 -507 c0 -23 -65
-241 -74 -246 -8 -6 -7 -8 2 -8 7 0 10 -4 7 -10 -12 -20 -23 -10 -20 18 9 68
18 190 16 214 -1 20 4 28 21 31 37 7 48 7 48 1z"/>
</g>
</svg>
