<?xml version="1.0" standalone="no"?>
<!DOCTYPE svg PUBLIC "-//W3C//DTD SVG 20010904//EN"
 "http://www.w3.org/TR/2001/REC-SVG-20010904/DTD/svg10.dtd">
<svg version="1.0" xmlns="http://www.w3.org/2000/svg"
 width="300.000000pt" height="300.000000pt" viewBox="0 0 300.000000 300.000000"
 preserveAspectRatio="xMidYMid meet">
<metadata>
Created by potrace 1.11, written by Peter Selinger 2001-2013
</metadata>
<g transform="translate(0.000000,300.000000) scale(0.100000,-0.100000)"
fill="#000000" stroke="none">
<path d="M1368 2114 c-4 -3 -25 -8 -48 -10 -23 -2 -46 -6 -51 -9 -5 -4 -9 0
-9 7 0 8 -3 9 -8 3 -13 -19 -61 -35 -68 -24 -5 8 -8 8 -13 0 -4 -6 -18 -12
-31 -13 -14 -2 -28 -6 -31 -11 -3 -4 -15 -9 -26 -11 -12 -3 -34 -11 -51 -20
-16 -8 -32 -12 -36 -9 -3 4 -6 1 -6 -5 0 -7 -7 -12 -15 -12 -8 0 -15 -4 -15
-10 0 -5 -7 -10 -15 -10 -8 0 -38 -16 -65 -35 -28 -19 -50 -33 -50 -30 0 4
-10 -5 -22 -18 -13 -13 -29 -26 -37 -29 -8 -2 -16 -15 -18 -28 -2 -13 -1 -21
2 -18 7 7 185 -171 185 -185 0 -6 2 -8 5 -5 7 7 285 -271 285 -284 0 -5 3 -7
8 -5 8 4 132 -120 125 -126 -2 -3 4 -7 15 -9 15 -4 18 1 17 28 0 18 -3 36 -7
40 -4 3 -3 15 2 25 6 9 7 25 3 35 -5 13 -3 15 7 9 10 -6 11 -4 4 6 -13 20 -14
170 -1 162 6 -4 7 -1 1 8 -14 23 -16 101 -1 93 9 -6 9 -4 0 8 -7 8 -10 18 -6
21 3 4 0 13 -6 21 -8 10 -9 16 -1 21 5 3 10 11 10 16 0 6 -6 7 -12 3 -10 -6
-10 -4 -2 7 5 8 9 40 8 71 -1 38 2 56 9 51 6 -4 7 -1 1 8 -14 23 -16 101 -1
93 9 -6 9 -4 0 8 -7 8 -10 18 -6 21 3 4 0 13 -6 21 -8 10 -9 16 -1 21 5 3 10
11 10 16 0 6 -6 7 -12 3 -10 -6 -10 -4 -2 7 18 23 0 102 -18 83z"/>
<path d="M1544 2101 c4 -6 2 -11 -4 -11 -7 0 -8 -6 -1 -18 5 -10 6 -24 1 -32
-4 -7 -4 -24 1 -37 12 -32 11 -36 -3 -27 -9 5 -9 2 1 -9 10 -13 11 -20 2 -31
-8 -10 -9 -16 -1 -21 14 -9 13 -28 -2 -19 -10 5 -10 4 -1 -6 8 -9 9 -19 3 -31
-7 -11 -7 -20 0 -24 5 -3 10 -11 10 -16 0 -6 -6 -7 -12 -3 -9 5 -9 2 1 -9 10
-13 11 -20 2 -31 -8 -10 -9 -16 -1 -21 5 -3 10 -11 10 -16 0 -6 -4 -8 -9 -5
-9 6 -7 -29 4 -64 6 -17 4 -21 -6 -14 -12 6 -12 5 0 -9 10 -13 11 -20 2 -31
-8 -10 -9 -16 -1 -21 14 -9 13 -28 -2 -19 -10 5 -10 4 -1 -6 8 -9 9 -19 3 -31
-7 -11 -7 -20 0 -24 5 -3 10 -11 10 -16 0 -6 -6 -7 -12 -3 -9 5 -9 2 1 -9 10
-13 11 -20 2 -31 -8 -10 -9 -16 -1 -21 5 -3 10 -11 10 -16 0 -6 -4 -7 -10 -4
-6 4 -6 -4 1 -22 6 -15 11 -28 11 -28 1 0 -4 -10 -10 -22 -8 -14 -9 -24 -2
-28 5 -3 10 -11 10 -16 0 -6 -4 -7 -10 -4 -6 4 -7 -2 -1 -18 5 -13 5 -30 1
-37 -5 -9 -4 -20 2 -27 8 -11 19 -5 50 27 22 22 44 40 50 40 6 0 9 2 6 5 -7 8
55 72 65 67 4 -2 7 1 7 5 0 12 119 133 130 133 6 0 10 4 10 9 0 12 91 101 103
101 6 0 8 2 5 5 -5 6 160 175 171 175 4 0 14 11 21 25 7 14 17 25 22 25 4 0 8
7 8 15 0 8 -4 15 -8 15 -5 0 -20 9 -33 20 -13 11 -28 23 -34 28 -5 4 -25 17
-42 27 -18 11 -33 23 -33 28 0 4 -4 6 -9 3 -5 -3 -14 1 -21 9 -7 8 -21 15 -31
15 -11 0 -19 5 -19 11 0 5 -4 7 -10 4 -5 -3 -10 -1 -10 4 0 6 -9 11 -19 11
-11 0 -23 5 -26 10 -4 6 -11 8 -16 5 -5 -4 -9 -1 -9 4 0 6 -11 11 -25 11 -14
0 -25 4 -25 10 0 5 -7 7 -15 4 -8 -4 -15 -2 -15 4 0 6 -9 8 -20 5 -11 -3 -20
-1 -20 5 0 6 -8 9 -17 7 -10 -1 -23 2 -29 7 -7 5 -16 8 -20 7 -5 -1 -11 0 -14
1 -3 1 -34 4 -69 7 -44 3 -61 1 -57 -6z"/>
<path d="M623 1719 c-10 -12 -26 -30 -35 -41 -10 -10 -16 -18 -13 -18 3 0 -3
-10 -15 -22 -11 -12 -20 -28 -20 -35 0 -7 -4 -13 -10 -13 -5 0 -10 -7 -10 -15
0 -8 -5 -15 -12 -15 -6 0 -8 -3 -5 -6 4 -4 -3 -20 -14 -35 -11 -16 -22 -38
-24 -51 -3 -12 -8 -24 -12 -27 -8 -6 -15 -27 -16 -48 0 -7 -4 -13 -9 -13 -4 0
-7 -3 -7 -7 1 -5 1 -10 -1 -13 -1 -3 -3 -16 -6 -29 -2 -14 -9 -30 -15 -38 -9
-10 -8 -13 1 -13 9 0 10 -3 1 -14 -6 -7 -12 -26 -13 -42 -1 -16 -4 -33 -6 -38
-3 -5 -7 -29 -9 -53 -2 -35 0 -43 15 -44 23 -1 873 -1 891 0 7 1 0 13 -18 30
-17 16 -31 35 -31 42 0 7 -2 10 -6 7 -6 -7 -494 479 -494 493 0 5 -6 8 -12 7
-7 -2 -12 3 -10 10 1 6 -2 12 -8 12 -5 0 -20 11 -34 25 l-26 26 -17 -22z"/>
<path d="M2260 1700 c-14 -16 -31 -30 -38 -30 -7 0 -12 -3 -10 -7 2 -5 -23
-33 -54 -64 -32 -31 -58 -55 -58 -54 0 2 -25 -22 -55 -53 -30 -31 -55 -60 -55
-66 0 -5 -3 -7 -6 -3 -3 3 -24 -14 -45 -39 -21 -25 -39 -43 -39 -40 0 3 -27
-24 -60 -59 -33 -35 -60 -63 -60 -61 0 2 -18 -14 -40 -36 -22 -22 -40 -43 -40
-45 0 -3 -11 -14 -25 -25 -14 -11 -25 -22 -25 -26 0 -6 885 -7 900 -2 3 2 8 2
11 2 4 -1 6 14 5 33 0 19 -5 35 -10 35 -5 0 -3 6 3 14 7 8 8 16 2 18 -5 1 -11
19 -14 38 -14 85 -20 110 -30 110 -6 0 -8 3 -4 6 3 3 -3 28 -13 54 -10 26 -16
51 -13 54 4 3 2 6 -4 6 -6 0 -21 25 -34 55 -13 30 -27 55 -31 55 -5 0 -8 6 -8
13 0 7 -9 23 -20 35 -11 12 -20 26 -20 32 0 5 -4 10 -10 10 -5 0 -10 7 -10 15
0 8 -4 15 -9 15 -5 0 -13 9 -16 20 -9 29 -36 25 -65 -10z"/>
</g>
</svg>
