<?xml version="1.0" standalone="no"?>
<!DOCTYPE svg PUBLIC "-//W3C//DTD SVG 20010904//EN"
 "http://www.w3.org/TR/2001/REC-SVG-20010904/DTD/svg10.dtd">
<svg version="1.0" xmlns="http://www.w3.org/2000/svg"
 width="300.000000pt" height="300.000000pt" viewBox="0 0 300.000000 300.000000"
 preserveAspectRatio="xMidYMid meet">
<metadata>
Created by potrace 1.11, written by Peter Selinger 2001-2013
</metadata>
<g transform="translate(0.000000,300.000000) scale(0.100000,-0.100000)"
fill="#000000" stroke="none">
<path d="M2508 2479 c-47 -7 -281 -71 -420 -115 -82 -26 -99 -45 -78 -85 12
-22 1 -38 -26 -39 -6 0 -16 -19 -23 -42 -7 -24 -19 -52 -26 -63 -7 -12 -15
-37 -18 -55 -8 -55 -28 -182 -33 -210 -2 -14 -9 -54 -14 -90 -6 -36 -13 -76
-15 -90 -3 -14 -7 -45 -11 -70 -3 -25 -12 -83 -19 -130 -8 -47 -21 -132 -29
-190 -15 -107 -24 -165 -31 -210 -3 -14 -7 -50 -11 -80 -3 -30 -8 -57 -9 -60
-2 -3 -7 -35 -10 -70 -4 -36 -8 -67 -10 -70 -7 -11 -18 -137 -19 -210 l-1 -75
41 -3 c24 -2 81 8 134 24 86 24 114 31 133 33 4 1 6 4 6 9 -1 4 -1 22 0 40 1
34 1 34 44 28 23 -3 42 -5 43 -5 0 -1 -1 -15 -4 -31 -5 -37 -1 -37 105 -3 82
27 83 28 83 60 0 18 0 36 -1 40 -1 9 23 21 86 43 l55 19 0 -29 c0 -27 1 -28
43 -23 42 6 107 43 159 91 21 19 25 29 17 43 -8 15 -4 20 28 28 21 6 43 11 48
11 15 0 57 66 55 87 -5 48 2 76 27 101 14 14 27 35 27 47 2 31 15 45 42 45 13
0 24 3 24 8 0 4 4 34 10 67 5 33 12 78 15 100 4 22 8 47 10 55 2 8 7 29 10 45
10 62 14 75 34 121 25 56 25 53 4 49 -30 -4 -31 2 -12 70 l18 65 -28 0 c-31 0
-41 18 -41 73 0 21 -5 27 -22 28 -13 0 -33 2 -45 3 -13 2 -24 -3 -24 -11 -1
-7 -3 -17 -4 -23 -1 -5 -3 -14 -4 -19 -1 -10 -41 -9 -41 2 0 4 0 16 0 27 0 13
7 20 19 20 13 0 18 6 16 18 -2 9 -4 22 -4 28 -1 6 -32 20 -71 30 -56 14 -69
21 -67 36 4 25 17 36 47 40 22 3 30 17 67 113 35 90 42 121 40 169 -2 67 -18
82 -37 36 -7 -16 -18 -30 -24 -31 -6 0 -19 -2 -28 -4 -23 -4 -24 25 -3 65 11
21 23 30 39 30 20 0 36 16 36 36 0 2 -15 4 -34 4 -19 0 -36 5 -38 12 -5 13
-94 39 -148 42 -19 1 -56 -1 -82 -5z m182 -131 c-1 -7 -9 -31 -20 -53 -11 -22
-19 -46 -20 -52 0 -26 -17 -12 -47 41 l-30 53 46 10 c65 14 71 14 71 1z m-83
-153 c-2 -19 -6 -38 -9 -41 -6 -5 -9 3 -24 59 -4 12 0 17 16 17 18 0 20 -5 17
-35z m128 1 c17 -12 17 -16 5 -31 -13 -15 -15 -15 -31 6 -27 36 -10 51 26 25z
m-572 -5 c15 -6 13 -9 -16 -23 -39 -19 -47 -16 -40 13 5 19 24 23 56 10z m423
-70 c-3 -4 -6 -33 -7 -63 -2 -44 -7 -62 -29 -86 -16 -18 -115 -79 -241 -147
-118 -64 -223 -124 -234 -134 -60 -51 -59 -52 -52 14 7 69 9 76 43 245 14 69
29 128 33 132 3 4 99 11 211 14 141 4 213 11 230 20 29 15 54 18 46 5z m-216
-411 c-6 -11 -15 -20 -20 -20 -6 0 -10 9 -10 20 0 13 7 20 20 20 18 0 19 -3
10 -20z m279 -29 c9 -15 5 -20 -29 -31 -73 -24 -58 -56 55 -116 27 -15 52 -28
54 -30 13 -11 19 -97 10 -149 -10 -56 -15 -64 -77 -122 -37 -34 -85 -69 -107
-77 -22 -8 -185 -64 -361 -124 -253 -87 -321 -107 -318 -94 5 25 33 173 38
202 2 14 12 64 21 111 l17 85 127 38 c89 27 134 46 154 65 15 15 90 53 167 85
77 32 137 62 134 67 -3 5 -19 15 -36 22 l-31 13 44 29 c37 24 67 35 121 44 4
0 12 -7 17 -18z m101 -26 c0 -16 -6 -25 -15 -25 -15 0 -21 31 -8 43 13 14 23
6 23 -18z m-683 -89 c2 -2 -10 -11 -28 -20 -38 -19 -45 -16 -30 13 10 18 43
22 58 7z m193 -10 c0 -9 -247 -146 -264 -146 0 0 -1 21 -1 47 l1 46 64 14 c36
7 85 19 110 27 43 13 90 20 90 12z m-220 -847 c-46 -21 -174 -59 -197 -59 -29
0 12 39 51 49 94 23 123 29 156 30 l35 1 -45 -21z m170 -29 c0 -5 -3 -10 -7
-10 -5 0 -18 -3 -30 -6 -17 -5 -23 -2 -23 10 0 11 9 16 30 16 17 0 30 -4 30
-10z"/>
<path d="M1035 2196 c-11 -8 -30 -12 -43 -10 -18 4 -25 -1 -29 -16 -4 -16 -11
-20 -27 -16 -18 4 -24 -1 -35 -29 -13 -37 -33 -40 -26 -4 4 20 1 20 -62 13
-65 -7 -68 -8 -128 -70 -50 -52 -66 -62 -89 -60 -21 3 -30 -2 -38 -20 -6 -14
-23 -26 -42 -30 -38 -8 -165 -129 -210 -199 -18 -27 -47 -80 -66 -117 -20 -39
-46 -73 -63 -83 -15 -9 -34 -31 -42 -48 -53 -126 -116 -301 -125 -346 -9 -47
-6 -133 6 -152 2 -3 6 -21 9 -40 3 -19 10 -54 15 -79 5 -25 11 -56 13 -70 1
-15 39 -68 90 -126 l87 -100 53 4 c28 2 59 8 67 13 13 8 13 9 0 8 -38 -4 -48
1 -43 21 5 20 46 28 69 12 18 -12 36 -52 30 -68 -3 -8 -3 -14 0 -14 2 0 80 19
172 42 189 47 303 100 321 150 5 14 7 29 4 31 -2 3 5 15 17 27 14 14 39 23 73
27 53 5 87 25 87 50 0 10 19 13 79 13 l78 0 64 -57 c35 -31 104 -108 153 -170
69 -88 94 -113 110 -111 18 3 22 12 26 58 3 30 13 71 22 90 9 19 15 53 13 75
-1 22 -3 51 -4 65 0 15 -11 32 -24 40 -13 8 -61 58 -108 110 -46 52 -97 108
-112 123 -17 17 -26 34 -23 43 3 9 6 19 6 24 0 4 13 12 28 18 24 8 32 20 47
73 9 35 39 109 66 163 32 65 54 127 64 179 19 99 19 97 -5 97 -17 0 -19 5 -15
28 20 98 25 153 19 192 -4 25 -8 48 -8 52 -1 3 -4 10 -8 13 -4 4 -5 -4 -3 -18
3 -14 -1 -30 -9 -36 -12 -10 -18 -2 -35 45 -12 31 -21 64 -19 73 6 46 -47 96
-87 81 -19 -7 -19 -8 -2 -15 20 -8 46 -54 40 -71 -2 -7 -27 11 -54 40 -28 28
-53 47 -55 41 -12 -27 -21 -32 -51 -28 -24 4 -33 10 -33 25 0 16 5 19 29 13
23 -5 29 -2 33 13 5 18 0 19 -108 16 -68 -2 -115 0 -119 6 -8 14 -18 13 -40
-4z m137 -303 c16 -2 56 -25 90 -51 35 -25 70 -45 78 -44 17 3 52 -84 51 -128
-2 -57 -34 -137 -72 -180 -21 -25 -44 -62 -49 -82 -6 -21 -23 -46 -39 -57 -26
-19 -32 -20 -80 -7 -29 7 -64 24 -79 38 -65 60 -78 68 -123 83 -61 20 -95 17
-136 -12 -17 -13 -44 -23 -58 -23 -64 0 -115 -80 -60 -94 14 -4 25 -14 26 -24
3 -55 7 -74 18 -85 9 -9 13 -7 17 11 7 24 34 31 34 8 0 -8 16 -27 35 -43 32
-26 34 -31 28 -71 -9 -69 -78 -133 -175 -165 -42 -14 -90 -33 -106 -41 -16 -8
-51 -18 -78 -21 -27 -3 -65 -8 -84 -10 -19 -3 -55 -7 -80 -10 -25 -3 -53 -8
-62 -11 -15 -4 -18 1 -18 30 0 32 -3 36 -36 42 -19 4 -38 13 -41 20 -3 8 4 45
16 83 26 84 26 79 -1 83 -27 4 -26 20 4 91 16 36 26 47 43 47 23 0 27 7 84
162 6 17 24 33 45 42 28 12 42 29 69 83 34 67 36 69 166 151 72 45 135 82 140
82 5 0 64 20 130 46 67 25 147 48 179 51 31 3 58 6 60 7 4 5 38 4 64 -1z"/>
</g>
</svg>
