<?xml version="1.0" standalone="no"?>
<!DOCTYPE svg PUBLIC "-//W3C//DTD SVG 20010904//EN"
 "http://www.w3.org/TR/2001/REC-SVG-20010904/DTD/svg10.dtd">
<svg version="1.0" xmlns="http://www.w3.org/2000/svg"
 width="300.000000pt" height="300.000000pt" viewBox="0 0 300.000000 300.000000"
 preserveAspectRatio="xMidYMid meet">
<metadata>
Created by potrace 1.11, written by Peter Selinger 2001-2013
</metadata>
<g transform="translate(0.000000,300.000000) scale(0.100000,-0.100000)"
fill="#000000" stroke="none">
<path d="M1262 2680 c-476 -96 -852 -457 -962 -924 -131 -555 135 -1127 645
-1384 96 -48 210 -88 314 -109 103 -20 326 -24 433 -7 352 56 675 275 861 584
80 132 142 309 163 460 10 71 10 270 1 340 -50 367 -275 703 -600 894 -66 39
-207 103 -246 111 -9 2 -52 13 -96 25 -115 31 -381 36 -513 10z"/>
</g>
</svg>
