<?xml version="1.0" standalone="no"?>
<!DOCTYPE svg PUBLIC "-//W3C//DTD SVG 20010904//EN"
 "http://www.w3.org/TR/2001/REC-SVG-20010904/DTD/svg10.dtd">
<svg version="1.0" xmlns="http://www.w3.org/2000/svg"
 width="300.000000pt" height="300.000000pt" viewBox="0 0 300.000000 300.000000"
 preserveAspectRatio="xMidYMid meet">
<metadata>
Created by potrace 1.11, written by Peter Selinger 2001-2013
</metadata>
<g transform="translate(0.000000,300.000000) scale(0.100000,-0.100000)"
fill="#000000" stroke="none">
<path d="M1333 2406 c3 -6 -6 -11 -19 -11 -13 0 -24 4 -24 9 0 5 -6 3 -13 -3
-8 -6 -17 -8 -20 -4 -4 3 -7 1 -7 -6 0 -7 -4 -10 -9 -6 -5 3 -12 1 -16 -4 -3
-6 -12 -8 -20 -4 -8 3 -15 0 -15 -7 0 -7 -7 -10 -15 -6 -8 3 -15 1 -15 -5 0
-6 -7 -8 -16 -5 -8 3 -13 2 -9 -3 3 -5 -11 -15 -30 -21 -19 -6 -35 -16 -35
-21 0 -5 -9 -9 -21 -9 -11 0 -17 -4 -14 -10 3 -5 -1 -10 -9 -10 -9 0 -16 -5
-16 -10 0 -6 -8 -14 -17 -17 -20 -8 -53 -42 -53 -55 0 -5 -3 -7 -7 -5 -5 2
-16 -4 -25 -15 -10 -10 -16 -18 -13 -18 6 0 -6 -16 -37 -51 -10 -10 -15 -19
-11 -19 3 0 -2 -9 -13 -21 -10 -12 -18 -23 -17 -25 4 -10 -11 -44 -20 -44 -6
0 -7 -3 -4 -7 4 -3 0 -17 -8 -29 -11 -17 -12 -25 -3 -30 8 -5 6 -11 -6 -20
-10 -7 -17 -15 -17 -18 1 -3 1 -7 0 -8 -6 -22 -5 -38 4 -38 6 0 3 -6 -8 -13
-12 -10 -14 -16 -7 -21 7 -4 12 -13 12 -19 0 -8 -3 -7 -9 2 -6 9 -9 -14 -9
-62 1 -46 5 -74 11 -70 5 3 4 -3 -1 -14 -6 -11 -7 -25 -2 -33 5 -8 7 -17 4
-21 -2 -4 0 -10 6 -14 6 -4 8 -11 4 -16 -3 -5 0 -16 6 -24 7 -8 10 -22 6 -30
-3 -8 -1 -15 4 -15 6 0 10 -5 10 -11 0 -19 53 -119 63 -119 6 0 8 -3 4 -6 -3
-3 5 -17 18 -30 13 -13 26 -33 30 -44 4 -12 9 -19 12 -16 3 3 34 -23 69 -57
105 -102 132 -127 141 -127 4 0 23 -16 42 -35 19 -19 38 -32 42 -29 4 2 10 -5
14 -16 4 -11 10 -18 15 -15 4 3 10 -2 14 -10 3 -8 10 -15 16 -15 9 0 35 -19
65 -47 8 -7 16 -13 20 -13 3 0 11 -5 18 -10 46 -39 61 -50 69 -50 5 0 6 -5 3
-10 -4 -6 -3 -9 2 -8 11 4 83 -44 83 -55 0 -5 4 -6 9 -3 5 3 21 -6 35 -19 15
-14 31 -25 36 -25 4 0 10 -4 12 -9 2 -5 10 -11 17 -13 8 -2 26 -15 38 -30 14
-15 30 -25 38 -21 8 3 18 -2 21 -11 3 -9 12 -16 20 -16 8 0 14 -5 14 -11 0 -5
5 -7 10 -4 5 3 10 2 10 -4 0 -5 9 -13 20 -16 11 -4 18 -11 15 -16 -3 -5 1 -6
9 -3 9 4 18 -1 22 -10 3 -9 10 -13 15 -10 5 3 12 -2 15 -10 3 -9 10 -13 15
-10 5 3 9 0 9 -5 0 -6 7 -11 15 -11 9 0 18 -7 21 -15 4 -8 10 -15 16 -15 5 0
6 6 3 13 -3 6 2 2 11 -11 9 -12 23 -22 30 -22 8 0 14 -5 14 -11 0 -5 4 -8 9
-5 5 3 14 -1 21 -9 9 -11 15 -12 25 -2 9 9 10 14 1 19 -7 5 -7 8 0 8 6 0 10
18 9 43 0 23 3 50 8 60 5 11 4 17 -5 17 -9 0 -9 3 2 10 13 9 13 10 0 10 -11 0
-12 2 -3 8 7 4 11 16 9 27 -2 11 2 24 8 28 8 6 7 10 -1 14 -7 2 -13 9 -13 14
0 6 3 8 8 6 4 -3 8 31 8 75 1 56 5 83 15 89 10 6 11 9 2 9 -7 0 -13 8 -13 18
0 10 6 24 13 31 8 10 9 12 0 7 -9 -5 -11 4 -7 31 2 21 6 53 8 71 3 20 0 32 -7
32 -8 0 -7 3 2 9 9 6 10 11 2 15 -6 4 -7 15 -2 29 10 26 9 442 -1 452 -4 4 -3
17 1 29 9 25 8 37 -2 54 -5 7 -4 12 2 12 6 0 11 5 11 11 0 5 -4 8 -9 5 -5 -3
-11 5 -13 19 -3 15 -1 25 6 25 6 0 5 4 -3 9 -9 6 -10 11 -2 15 8 5 8 13 1 27
-6 10 -8 19 -4 19 3 0 2 6 -5 13 -8 10 -7 17 2 27 7 8 7 10 1 7 -11 -6 -14 9
-15 66 0 9 -5 17 -10 17 -6 0 -8 4 -5 9 4 5 0 12 -6 14 -10 4 -10 8 1 15 9 7
10 11 2 13 -7 3 -13 14 -14 26 0 13 -7 25 -14 27 -7 3 -13 12 -13 21 0 8 -5
15 -11 15 -5 0 -8 4 -4 9 3 5 -1 16 -9 24 -8 8 -12 17 -9 21 4 3 -1 6 -10 6
-11 0 -17 8 -17 22 0 12 -2 19 -6 16 -5 -6 -61 44 -58 52 1 3 -4 11 -12 18 -8
7 -14 10 -14 7 0 -5 -25 14 -60 45 -25 23 -58 40 -75 40 -9 0 -13 5 -10 10 5
9 -15 15 -37 11 -5 0 -8 4 -8 10 0 5 -4 8 -9 4 -5 -3 -12 -1 -16 5 -3 5 -17
10 -31 10 -14 0 -23 4 -19 9 3 6 -4 8 -16 6 -13 -3 -29 1 -38 8 -12 10 -13 9
-6 -3 6 -11 3 -10 -12 3 -11 9 -24 17 -29 17 -5 0 -2 -5 6 -10 8 -5 10 -10 4
-10 -6 0 -14 3 -18 8 -12 12 -130 11 -145 -2 -10 -7 -13 -7 -8 0 3 6 -1 11 -9
11 -8 0 -13 -5 -11 -11z m132 -446 c5 8 11 8 19 1 7 -6 16 -8 19 -4 4 3 7 1 7
-5 0 -6 9 -9 20 -7 11 2 19 -1 17 -8 -1 -6 4 -11 11 -12 16 0 83 -76 76 -86
-3 -5 1 -9 8 -9 9 0 13 -12 13 -35 -1 -19 2 -32 6 -29 4 2 10 0 14 -6 3 -5 2
-10 -4 -10 -6 0 -8 -12 -4 -30 3 -20 1 -30 -6 -30 -7 0 -10 -4 -6 -10 3 -5 -4
-29 -15 -53 -19 -41 -40 -64 -95 -107 -17 -13 -18 -13 -10 0 4 8 -4 4 -18 -9
-19 -17 -27 -20 -27 -10 0 9 -3 10 -8 3 -10 -16 -92 -17 -92 -1 0 8 -4 7 -10
-3 -6 -10 -10 -11 -10 -2 0 7 -13 12 -31 12 -22 0 -32 5 -36 19 -3 12 -11 17
-19 14 -9 -3 -14 1 -14 12 0 9 -4 13 -10 10 -5 -3 -10 1 -10 9 0 9 -4 16 -10
16 -5 0 -10 7 -10 16 0 9 -5 12 -12 8 -6 -4 -8 -3 -5 3 3 5 0 22 -8 37 -10 18
-10 24 -2 19 9 -5 9 -3 0 8 -13 17 -10 97 5 126 6 11 9 23 5 26 -3 4 2 9 11
13 9 3 16 13 16 20 0 8 7 17 15 20 8 4 12 10 9 15 -3 5 3 6 12 2 11 -4 15 -2
11 4 -7 11 56 46 81 46 6 0 12 3 12 7 0 4 14 6 31 4 21 -3 28 0 24 9 -4 6 0 4
8 -6 10 -12 17 -15 22 -7z"/>
</g>
</svg>
