<?xml version="1.0" standalone="no"?>
<!DOCTYPE svg PUBLIC "-//W3C//DTD SVG 20010904//EN"
 "http://www.w3.org/TR/2001/REC-SVG-20010904/DTD/svg10.dtd">
<svg version="1.0" xmlns="http://www.w3.org/2000/svg"
 width="1486.000000pt" height="1486.000000pt" viewBox="0 0 1486.000000 1486.000000"
 preserveAspectRatio="xMidYMid meet">
<metadata>
Created by potrace 1.11, written by Peter Selinger 2001-2013
</metadata>
<g transform="translate(0.000000,1486.000000) scale(0.100000,-0.100000)"
fill="#000000" stroke="none">
<path d="M4199 10951 c13 -12 31 -21 40 -21 9 0 204 -186 433 -412 795 -789
2561 -2543 2612 -2596 l52 -53 199 1 c110 1 328 3 485 5 157 2 451 7 654 9
203 3 370 7 372 9 2 2 -27 39 -64 83 -38 43 -77 90 -88 102 -10 13 -35 41 -54
62 -19 21 -44 49 -54 62 -11 12 -74 86 -140 162 -67 77 -154 178 -195 225 -40
47 -97 112 -125 145 -28 32 -54 64 -58 70 -4 8 30 11 125 9 73 -1 372 -3 666
-5 l534 -3 112 220 c62 121 163 319 225 440 168 330 368 722 450 883 40 78 71
145 68 147 -3 3 -29 0 -59 -5 -30 -6 -72 -13 -94 -16 -22 -4 -49 -7 -60 -9
-11 -2 -42 -6 -70 -10 -27 -4 -59 -9 -70 -11 -11 -3 -36 -7 -55 -10 -19 -2
-57 -9 -85 -14 -27 -5 -70 -11 -95 -15 -25 -3 -56 -7 -70 -10 -13 -2 -42 -7
-65 -10 -22 -4 -51 -8 -65 -10 -14 -2 -45 -7 -70 -10 -25 -3 -52 -8 -60 -10
-8 -2 -33 -6 -55 -10 -22 -3 -69 -10 -105 -16 -36 -6 -76 -12 -90 -14 -14 -2
-41 -6 -60 -9 -19 -3 -53 -8 -75 -11 -22 -3 -65 -10 -95 -15 -81 -15 -100 -18
-150 -24 -25 -3 -56 -8 -70 -11 -13 -2 -42 -7 -65 -10 -54 -8 -89 -14 -155
-25 -30 -5 -73 -12 -95 -15 -22 -2 -50 -7 -62 -9 -11 -3 -43 -8 -70 -12 -26
-3 -57 -8 -68 -10 -10 -2 -37 -6 -60 -9 -22 -3 -51 -8 -65 -10 -14 -3 -41 -7
-60 -10 -19 -3 -60 -10 -90 -15 -30 -5 -75 -12 -100 -15 -52 -7 -215 -33 -246
-39 -12 -2 -45 -7 -74 -11 -29 -4 -62 -9 -74 -11 -12 -2 -48 -8 -81 -13 -33
-5 -64 -10 -70 -12 -14 -4 -64 8 -195 48 -63 19 -142 43 -175 52 -138 41 -711
213 -725 218 -19 8 -17 7 -70 22 -25 6 -56 16 -70 22 -14 5 -34 11 -45 13 -11
3 -126 37 -255 76 -129 39 -255 77 -280 85 -71 20 -444 132 -555 167 -55 17
-113 34 -130 39 -52 13 -595 178 -603 183 -5 3 -19 7 -33 10 -13 2 -37 7 -54
11 l-30 6 24 -20z"/>
<path d="M4130 10707 c-25 -23 -90 -80 -145 -127 -55 -47 -107 -92 -115 -100
-9 -8 -47 -42 -85 -75 -38 -33 -73 -64 -79 -70 -6 -5 -40 -35 -76 -65 -35 -30
-72 -62 -80 -70 -19 -18 -45 -40 -200 -175 -63 -55 -117 -102 -120 -105 -4 -4
-199 -174 -425 -371 -16 -14 -55 -48 -85 -75 -31 -27 -80 -69 -109 -94 -29
-25 -67 -58 -85 -75 -18 -16 -59 -52 -91 -80 -33 -27 -70 -60 -84 -73 -13 -12
-49 -44 -79 -70 -31 -26 -63 -54 -72 -62 -8 -8 -31 -28 -50 -44 -19 -15 -53
-45 -75 -65 -22 -20 -92 -81 -155 -136 -102 -88 -158 -137 -194 -170 -6 -6
-42 -37 -81 -70 -38 -33 -76 -67 -85 -75 -9 -8 -43 -37 -75 -65 -32 -27 -63
-55 -69 -60 -6 -6 -49 -44 -96 -84 -104 -91 -203 -178 -241 -211 -15 -14 -51
-45 -79 -70 -92 -80 -104 -92 -105 -110 -1 -16 1 -17 19 -6 12 7 42 12 69 12
26 -1 47 3 47 8 0 5 7 3 15 -4 12 -10 15 -10 15 1 0 9 3 10 8 4 10 -14 64 -17
56 -3 -5 7 -2 8 6 3 16 -10 140 -13 140 -3 0 4 6 5 13 2 7 -2 22 3 32 13 11
10 54 47 95 83 41 36 80 70 86 75 29 27 162 144 284 250 124 109 186 164 340
300 30 28 84 75 120 105 55 48 184 161 300 264 19 17 73 65 120 105 47 41 87
77 90 80 3 3 37 33 75 66 69 59 133 115 165 145 8 8 45 40 80 70 36 30 77 66
91 80 14 14 47 43 73 65 27 22 58 49 70 60 12 11 56 49 96 85 41 36 81 72 90
80 8 8 42 38 75 65 33 28 65 55 70 61 6 6 66 60 135 120 69 60 127 111 130
114 3 3 41 36 85 75 44 38 82 72 85 75 3 3 23 20 45 39 124 105 124 106 111
166 -3 17 -9 46 -12 65 -3 19 -8 44 -10 55 -2 11 -6 41 -10 68 -4 26 -9 47
-13 47 -3 0 -26 -19 -51 -43z"/>
<path d="M2217 10463 c-2 -4 -5 -266 -6 -582 -2 -528 -3 -576 -19 -587 -10 -8
-12 -13 -5 -14 11 0 92 67 149 124 12 11 31 29 43 38 11 10 47 41 79 70 32 29
95 87 141 128 46 41 97 87 114 103 16 15 42 38 59 52 29 24 29 27 28 112 -2
239 -10 545 -14 551 -6 10 -563 15 -569 5z"/>
<path d="M10525 10148 c-21 -46 -51 -110 -67 -142 -15 -33 -28 -64 -28 -69 0
-5 23 -50 52 -101 78 -138 79 -140 175 -311 49 -88 104 -185 121 -215 16 -30
75 -135 131 -233 56 -99 101 -183 101 -188 0 -5 5 -9 10 -9 6 0 10 -4 10 -9 0
-5 16 -37 35 -71 28 -49 33 -66 25 -81 -6 -10 -7 -19 -3 -19 4 0 8 -192 8
-428 l0 -427 253 0 c138 0 252 -4 252 -8 0 -5 6 -5 12 -1 17 11 108 11 108 1
0 -5 6 -5 12 -1 17 11 108 11 108 1 0 -5 6 -5 12 -1 17 11 108 11 108 1 0 -5
6 -5 12 -1 15 9 165 9 215 -1 27 -5 33 -3 27 7 -9 15 -106 140 -114 148 -3 3
-21 25 -40 50 -19 25 -37 47 -40 50 -14 13 -272 343 -276 354 -3 8 14 11 58
10 117 -4 730 -5 733 -2 4 5 105 197 178 338 38 74 88 171 112 215 48 91 109
207 215 410 101 193 103 195 123 195 9 0 17 5 17 11 0 10 -148 7 -295 -6 -22
-2 -74 -6 -115 -9 -117 -8 -265 -19 -425 -30 -44 -4 -114 -9 -155 -11 -41 -3
-102 -8 -135 -10 -33 -3 -96 -8 -140 -10 -44 -3 -111 -8 -150 -11 -38 -2 -101
-6 -140 -9 -38 -2 -99 -6 -135 -9 -163 -14 -227 -18 -246 -17 -12 0 -28 -6
-34 -14 -14 -17 -15 -13 193 -445 128 -265 148 -311 144 -323 -2 -7 -43 -12
-110 -12 l-107 -1 -154 310 c-84 171 -254 515 -377 764 -122 248 -226 452
-229 452 -4 0 -24 -37 -45 -82z"/>
<path d="M13246 9606 c3 -7 -6 -37 -19 -67 -13 -30 -33 -78 -43 -108 l-19 -53
245 -482 c134 -264 253 -500 265 -522 17 -35 41 -55 149 -123 70 -45 130 -81
131 -79 4 3 -8 28 -135 293 -34 72 -88 184 -120 250 -31 66 -88 183 -125 260
-37 77 -111 230 -164 340 -54 110 -108 224 -121 253 -13 28 -29 52 -36 52 -8
0 -11 -6 -8 -14z"/>
<path d="M3858 9272 l-228 -2 -1 -33 c-3 -232 -3 -447 1 -448 3 -1 132 -2 288
-3 182 -1 282 3 283 9 0 11 0 404 -1 447 0 25 -3 26 -57 30 -32 1 -160 2 -285
0z"/>
<path d="M4536 9270 l-199 -5 -2 -225 c0 -124 2 -232 6 -240 6 -13 46 -15 281
-14 150 1 276 2 281 3 4 0 7 109 7 241 l0 240 -22 1 c-13 0 -52 1 -88 2 -36 1
-155 0 -264 -3z"/>
<path d="M10443 8904 c-6 -6 -10 -108 -9 -260 l1 -249 145 0 145 0 0 255 0
255 -136 5 c-89 3 -140 1 -146 -6z"/>
<path d="M10105 8900 c3 -5 3 -10 -2 -10 -4 0 -8 -111 -8 -247 l1 -248 147 -3
c95 -2 147 1 147 8 1 5 1 116 1 245 0 129 0 241 -1 249 0 11 -28 14 -146 15
-98 1 -144 -2 -139 -9z"/>
<path d="M3629 8560 c-2 -174 -1 -432 3 -436 7 -6 559 -7 565 -1 8 8 6 467 -2
475 -3 4 -132 7 -286 7 l-279 0 -1 -45z"/>
<path d="M4342 8600 c-8 -6 -9 -467 -1 -474 4 -4 455 -9 552 -7 16 1 17 19 17
244 l0 243 -281 -1 c-154 0 -284 -2 -287 -5z"/>
<path d="M12973 8536 c-10 -15 -9 -268 1 -274 5 -3 24 -5 43 -4 18 0 59 1 91
1 l57 1 0 134 c0 74 -3 138 -8 142 -11 11 -178 11 -184 0z"/>
<path d="M13234 8541 c-2 -2 -4 -67 -4 -143 0 -124 2 -138 18 -139 63 -3 133
-1 138 3 8 8 9 267 1 275 -7 7 -146 11 -153 4z"/>
<path d="M10110 8337 c-13 -10 -15 -50 -15 -249 l0 -238 27 -9 c14 -5 29 -7
32 -4 9 9 146 9 146 0 0 -5 5 -5 11 -1 7 4 25 7 40 6 16 0 31 4 35 9 9 15 10
109 1 109 -5 0 -6 4 -2 9 3 5 6 87 7 182 1 124 -2 174 -10 177 -7 2 -9 8 -6
14 4 6 -2 5 -15 -1 -11 -7 -21 -8 -21 -3 0 4 -9 8 -20 8 -11 0 -20 -3 -20 -6
0 -3 -15 -5 -32 -2 -32 3 -63 3 -103 -2 -11 -1 -25 1 -30 5 -6 4 -17 2 -25 -4z"/>
<path d="M10448 8337 c-12 -12 -15 -58 -15 -256 0 -133 1 -240 4 -237 3 3 16
1 29 -4 13 -5 25 -6 28 -2 4 8 149 7 163 0 4 -3 22 -1 39 3 l31 9 0 240 c0
137 -4 240 -9 240 -5 0 -6 4 -3 10 3 5 0 7 -8 4 -23 -9 -137 -10 -137 -1 0 4
-8 4 -17 0 -22 -10 -44 -10 -60 0 -8 5 -13 3 -13 -5 0 -11 -2 -11 -9 0 -7 11
-11 11 -23 -1z"/>
<path d="M13652 8043 l-1 -191 29 -10 c15 -6 31 -8 34 -5 9 9 86 9 86 0 0 -5
6 -5 12 0 16 9 101 8 117 -1 6 -4 11 -4 11 1 0 4 25 8 55 8 30 0 55 -2 55 -5
0 -8 44 -5 58 4 7 4 12 4 12 -1 0 -4 4 -2 9 6 7 11 5 71 -2 77 -1 1 -58 38
-127 83 -69 44 -132 85 -140 91 -8 6 -58 38 -111 73 l-95 62 -2 -192z"/>
<path d="M12968 8166 c-3 -9 -2 -245 1 -299 1 -15 11 -17 98 -15 l98 3 0 160
0 159 -97 1 c-61 1 -98 -3 -100 -9z"/>
<path d="M13240 8170 c-7 -4 -10 -59 -8 -161 l3 -154 78 0 77 -1 1 41 c1 49 1
232 0 260 -1 18 -8 20 -71 21 -38 0 -74 -2 -80 -6z"/>
<path d="M707 7732 c-15 -3 -17 -25 -17 -206 l0 -203 85 2 c57 2 85 -1 85 -9
0 -6 4 -6 9 2 9 15 42 13 53 -3 5 -6 8 -5 8 3 0 7 13 12 31 12 21 0 28 -4 23
-12 -6 -10 -4 -10 7 -2 15 12 106 13 125 1 6 -3 14 -3 18 1 12 12 86 10 86 -2
0 -8 2 -8 8 0 9 14 104 14 114 -1 5 -6 8 -6 8 2 0 15 50 13 50 -2 0 -6 3 -6 8
1 8 12 169 13 188 1 6 -3 14 -3 18 1 12 12 86 10 86 -2 0 -8 2 -8 8 0 9 14
104 14 114 -1 5 -6 8 -6 8 2 0 15 50 13 50 -2 0 -6 3 -6 8 1 8 12 169 13 188
1 6 -3 14 -3 18 1 12 12 86 10 86 -2 0 -7 3 -6 8 2 9 13 38 12 61 -2 9 -6 12
-5 7 2 -4 7 5 10 24 10 17 -1 33 -5 36 -10 3 -5 11 -5 17 0 15 12 107 10 126
-2 10 -6 12 -5 7 2 -5 8 2 12 19 12 18 0 24 -4 19 -12 -6 -10 -4 -10 7 -2 15
12 186 13 205 2 6 -4 14 -4 18 0 12 12 86 10 86 -2 0 -8 2 -8 8 0 9 14 104 14
114 -1 5 -6 8 -6 8 2 0 15 50 13 50 -2 0 -6 3 -6 8 1 8 12 169 13 188 1 6 -3
14 -3 18 1 12 12 86 10 86 -2 0 -8 2 -8 8 0 9 14 104 14 114 -1 5 -6 8 -6 8 2
0 15 50 13 50 -2 0 -6 3 -6 8 1 8 12 169 13 188 1 6 -3 14 -3 18 1 12 12 86
10 86 -2 0 -8 2 -8 8 0 9 14 104 14 114 -1 5 -6 8 -6 8 2 0 15 50 13 50 -2 0
-6 3 -6 8 1 8 12 169 13 188 1 6 -3 14 -3 18 1 12 12 86 10 86 -2 0 -8 2 -8 8
0 9 14 104 14 114 -1 5 -6 8 -6 8 2 0 15 50 13 50 -2 0 -6 3 -6 8 1 8 12 169
13 188 1 6 -3 14 -3 18 1 12 12 86 10 86 -2 0 -7 3 -6 8 2 9 13 38 12 61 -2 9
-6 12 -5 7 2 -4 7 5 10 24 10 17 -1 33 -5 36 -10 3 -5 11 -5 17 0 15 12 107
10 126 -2 10 -6 12 -5 7 2 -5 8 2 12 19 12 18 0 24 -4 19 -12 -6 -10 -5 -10 7
-1 15 12 66 12 85 1 6 -4 14 -4 18 0 12 12 86 10 86 -2 0 -6 5 -4 10 4 8 13
13 13 31 2 12 -8 18 -9 14 -2 -8 13 32 10 54 -4 9 -6 12 -5 7 2 -7 12 81 12
100 0 6 -4 14 -4 18 0 12 12 86 10 86 -2 0 -6 5 -4 10 4 8 13 13 13 31 2 12
-8 18 -9 14 -2 -8 13 32 10 54 -4 9 -6 12 -5 7 2 -7 12 81 12 100 0 6 -4 14
-4 18 0 12 12 86 10 86 -2 0 -6 5 -4 10 4 8 13 13 13 31 2 11 -8 18 -9 15 -4
-3 6 17 9 49 9 31 -1 55 -6 55 -12 0 -6 3 -7 8 0 11 15 32 17 47 5 7 -6 16 -7
19 -2 6 10 126 10 142 0 6 -4 14 -4 18 0 12 12 86 10 86 -2 0 -7 3 -7 8 -1 10
15 32 17 46 5 7 -5 16 -6 20 -2 12 12 86 10 86 -2 0 -6 5 -4 10 4 8 13 13 13
31 2 12 -8 18 -9 14 -2 -8 13 32 10 54 -4 9 -6 12 -5 7 2 -7 12 81 12 100 0 6
-4 14 -4 18 0 12 12 86 10 86 -2 0 -6 5 -4 10 4 8 13 13 13 31 2 12 -8 18 -9
14 -2 -8 13 32 10 54 -4 9 -6 12 -5 7 2 -7 12 81 12 100 0 6 -4 14 -4 18 0 12
12 86 10 86 -2 0 -6 5 -4 10 4 8 13 13 13 31 2 12 -8 18 -9 14 -2 -8 13 32 10
54 -4 9 -6 12 -5 7 2 -7 12 81 12 100 0 6 -4 14 -4 18 0 12 12 86 10 86 -2 0
-6 5 -4 10 4 8 13 13 13 31 2 12 -8 18 -9 14 -2 -8 13 32 10 54 -4 9 -6 12 -5
7 2 -4 7 5 10 24 10 17 -1 33 -5 36 -10 3 -4 11 -5 17 -1 19 12 87 11 87 -1 0
-8 2 -8 8 0 9 14 104 14 114 -1 5 -6 8 -6 8 2 0 15 50 13 50 -2 0 -6 3 -6 8 1
8 12 169 13 188 1 6 -3 14 -3 18 1 12 12 86 10 86 -2 0 -8 2 -8 8 0 9 14 104
14 114 -1 5 -6 8 -6 8 2 0 15 50 13 50 -2 0 -6 3 -6 8 1 8 12 169 13 188 1 6
-3 14 -3 18 1 12 12 86 10 86 -2 0 -8 2 -8 8 0 9 14 104 14 114 -1 5 -6 8 -6
8 2 0 15 50 13 50 -2 0 -6 3 -6 8 1 8 12 169 13 188 1 6 -3 14 -3 18 1 12 12
86 10 86 -2 0 -8 2 -8 8 0 9 14 104 14 114 -1 5 -6 8 -6 8 2 0 15 50 13 50 -2
0 -6 3 -6 8 1 8 12 169 13 188 1 6 -3 14 -3 18 1 12 12 86 10 86 -2 0 -8 2 -8
8 0 9 14 104 14 114 -1 5 -6 8 -6 8 2 0 15 50 13 50 -2 0 -6 3 -6 8 1 8 12
169 13 188 1 6 -3 14 -3 18 1 12 12 86 10 86 -2 0 -8 2 -8 8 0 9 14 104 14
114 -1 5 -6 8 -6 8 2 0 15 50 13 50 -2 0 -6 3 -6 8 1 9 13 144 16 136 2 -3 -5
3 -4 14 3 16 10 24 10 35 1 7 -7 17 -8 21 -4 12 12 86 10 86 -2 0 -8 2 -8 8 0
9 14 112 14 112 0 0 -6 4 -5 8 2 9 13 38 12 61 -2 9 -6 12 -5 8 1 -7 12 161
12 179 0 6 -3 14 -3 18 1 12 12 86 10 86 -2 0 -8 2 -8 8 0 9 14 104 14 114 -1
5 -6 8 -6 8 2 0 15 50 13 50 -2 0 -6 3 -6 8 1 8 12 169 13 188 1 6 -3 14 -3
18 1 12 12 86 10 86 -2 0 -8 2 -8 8 0 9 14 104 14 114 -1 5 -6 8 -6 8 2 0 15
50 13 50 -2 0 -6 3 -6 8 1 8 12 169 13 188 1 6 -3 14 -3 18 1 12 12 86 10 86
-2 0 -8 2 -8 8 0 9 14 104 14 114 -1 5 -6 8 -6 8 2 0 15 50 13 50 -2 0 -6 3
-6 8 1 8 12 169 13 188 1 6 -3 14 -3 18 1 12 12 86 10 86 -2 0 -8 2 -8 8 0 9
14 104 14 114 -1 5 -6 8 -5 8 3 0 15 41 13 52 -3 5 -6 8 -6 8 2 0 13 58 15 66
1 3 -4 11 -5 17 -1 19 12 87 11 87 -1 0 -6 5 -4 10 4 8 13 13 13 31 2 12 -8
18 -9 14 -2 -8 13 32 10 54 -4 9 -6 12 -5 7 2 -7 12 81 12 100 0 6 -4 14 -4
18 0 12 12 86 10 86 -2 0 -6 5 -4 10 4 8 13 13 13 31 2 12 -8 18 -9 14 -2 -8
13 32 10 54 -4 9 -6 12 -5 7 2 -7 12 81 12 100 0 6 -4 14 -4 18 0 12 12 86 10
86 -2 0 -6 5 -4 10 4 8 13 13 13 31 2 12 -8 18 -9 14 -2 -8 13 32 10 54 -4 9
-6 12 -5 7 2 -7 12 81 12 100 0 6 -4 14 -4 18 0 12 12 86 10 86 -2 0 -6 5 -4
10 4 8 13 13 13 31 2 12 -8 18 -9 14 -2 -8 13 32 10 54 -4 9 -6 12 -5 7 2 -7
12 81 11 101 -1 6 -4 14 -3 17 2 3 5 37 8 75 6 l68 -4 1 192 c0 106 -1 199 -4
207 -3 13 -37 15 -224 15 -121 0 -220 -4 -220 -8 0 -5 -5 -5 -11 -1 -16 9
-109 11 -109 1 0 -5 -5 -5 -10 -2 -18 11 -240 11 -240 0 0 -7 -3 -7 -8 0 -9
13 -262 13 -262 0 0 -5 -4 -5 -10 1 -6 6 -31 8 -60 4 -28 -4 -52 -5 -54 -2 -4
4 -322 5 -342 1 -5 -1 -11 -1 -14 0 -16 6 -110 5 -110 -1 0 -4 -7 -5 -15 -2
-27 11 -135 9 -135 -1 0 -7 -3 -7 -8 0 -8 12 -212 14 -212 2 0 -5 -5 -5 -12
-1 -16 10 -68 11 -68 1 0 -4 -9 -3 -20 3 -14 8 -20 8 -20 0 0 -6 -5 -8 -10 -5
-16 10 -350 11 -350 2 0 -5 -5 -5 -11 -1 -16 10 -229 11 -229 1 0 -5 -5 -5
-11 -1 -16 10 -99 11 -99 1 0 -5 -6 -5 -12 0 -19 11 -38 12 -38 2 0 -6 -5 -7
-11 -3 -16 10 -99 11 -99 1 0 -5 -6 -5 -12 0 -19 11 -38 12 -38 2 0 -6 -5 -7
-11 -3 -17 10 -99 10 -99 0 0 -5 -6 -3 -14 3 -10 8 -16 9 -21 1 -3 -6 -11 -7
-18 -3 -9 5 -194 7 -224 2 -4 -1 -10 -1 -13 0 -18 7 -120 4 -120 -2 0 -5 -5
-5 -10 -2 -16 10 -350 11 -350 2 0 -5 -5 -5 -12 -1 -16 10 -68 11 -68 1 0 -4
-9 -3 -20 3 -14 8 -20 8 -20 0 0 -6 -5 -8 -10 -5 -17 11 -230 11 -230 0 0 -5
-4 -5 -10 1 -6 6 -31 8 -60 4 -28 -4 -52 -4 -55 -2 -9 9 -105 7 -105 -3 0 -5
-4 -5 -10 1 -6 6 -33 8 -65 4 -31 -3 -58 -4 -60 -2 -8 8 -145 7 -145 -1 0 -5
-5 -5 -11 -1 -16 10 -149 11 -149 1 0 -5 -5 -5 -11 -1 -16 9 -159 11 -159 1 0
-5 -5 -5 -11 -1 -16 10 -99 11 -99 1 0 -5 -5 -5 -11 -1 -16 9 -119 10 -119 1
0 -5 -5 -5 -12 -1 -16 10 -68 11 -68 1 0 -4 -9 -3 -20 3 -14 8 -20 8 -20 0 0
-6 -5 -8 -10 -5 -16 10 -350 11 -350 2 0 -5 -5 -5 -12 -1 -16 10 -68 11 -68 1
0 -4 -9 -3 -20 3 -14 8 -20 8 -20 0 0 -6 -5 -8 -10 -5 -16 10 -350 11 -350 2
0 -5 -5 -5 -11 -1 -16 10 -99 11 -99 1 0 -5 -5 -5 -10 -2 -16 10 -360 11 -360
2 0 -5 -5 -5 -11 -1 -16 10 -99 11 -99 1 0 -5 -5 -5 -10 -2 -18 11 -250 11
-254 0 -3 -7 -5 -7 -5 0 -1 9 -89 11 -218 5 -21 -1 -40 -1 -43 0 -19 6 -110 3
-110 -3 0 -5 -5 -5 -11 -2 -17 11 -139 11 -139 0 0 -7 -3 -7 -8 0 -4 6 -20 10
-37 10 -16 0 -33 -4 -37 -10 -5 -7 -8 -7 -8 0 0 9 -114 11 -246 5 -21 -1 -41
-1 -44 0 -20 6 -120 3 -120 -3 0 -5 -5 -5 -10 -2 -18 11 -240 11 -244 0 -3 -7
-5 -7 -5 0 -1 9 -89 11 -218 5 -21 -1 -40 -1 -43 0 -19 6 -110 3 -110 -3 0 -5
-5 -5 -11 -2 -17 11 -139 11 -139 0 0 -7 -3 -7 -8 0 -4 6 -20 10 -37 10 -16 0
-33 -4 -37 -10 -5 -6 -8 -5 -8 2 0 9 -7 10 -24 3 -13 -5 -27 -6 -30 -3 -9 9
-146 9 -146 0 0 -5 -5 -5 -11 -1 -16 10 -149 11 -149 1 0 -5 -5 -5 -11 -1 -16
10 -149 11 -149 1 0 -5 -5 -5 -12 -1 -10 6 -193 8 -225 3 -4 -1 -10 -1 -13 0
-18 7 -120 4 -120 -2 0 -5 -5 -5 -11 -2 -9 6 -307 9 -335 4 -5 -1 -11 -1 -14
0 -18 7 -120 4 -120 -2 0 -5 -5 -5 -11 -2 -9 6 -307 9 -335 4 -5 -1 -11 -1
-14 0 -19 7 -110 4 -110 -4 0 -5 -4 -5 -10 1 -6 6 -33 8 -65 4 -31 -3 -58 -4
-60 -2 -8 8 -145 7 -145 -1 0 -5 -5 -5 -11 -1 -16 10 -149 11 -149 1 0 -5 -5
-5 -11 -1 -16 10 -149 11 -149 1 0 -5 -5 -5 -11 -1 -16 10 -149 11 -149 1 0
-5 -5 -5 -11 -1 -16 10 -149 11 -149 1 0 -5 -5 -5 -11 -1 -16 10 -149 11 -149
1 0 -5 -5 -5 -11 -1 -16 10 -149 11 -149 1 0 -5 -5 -5 -12 -1 -10 6 -193 8
-225 3 -4 -1 -10 -1 -13 0 -18 7 -120 4 -120 -2 0 -5 -5 -5 -10 -2 -17 11
-230 11 -230 1 0 -6 -4 -6 -10 0 -6 6 -31 8 -61 4 -27 -4 -52 -3 -55 2 -3 5
-9 6 -13 4 -9 -6 -59 -7 -272 -6 -91 1 -170 0 -175 -1 -5 -1 -11 -1 -14 0 -10
4 -148 6 -163 3z"/>
<path d="M10650 7264 c-187 -49 -358 -215 -442 -429 -51 -133 -62 -193 -62
-360 -1 -209 38 -350 140 -507 178 -276 483 -370 734 -226 107 61 218 196 270
329 43 109 77 399 52 446 -11 20 -20 20 -262 19 -211 -1 -252 -3 -260 -16 -5
-8 -10 -63 -10 -121 0 -83 3 -109 15 -119 11 -9 55 -13 146 -12 l131 0 -7 -36
c-22 -118 -138 -245 -254 -277 -97 -28 -220 16 -314 111 -211 213 -208 624 5
834 28 27 76 62 107 77 49 24 68 28 146 28 76 0 97 -4 135 -24 71 -37 117 -78
165 -145 24 -35 51 -63 60 -63 15 0 155 160 155 177 0 16 -115 154 -165 198
-60 53 -172 109 -244 122 -74 14 -176 11 -241 -6z"/>
<path d="M736 7252 c-137 -1 -234 -6 -242 -13 -13 -11 -14 -211 0 -241 7 -16
23 -18 115 -17 58 0 115 0 126 0 20 -1 20 -7 20 -627 0 -528 2 -627 14 -637
21 -18 188 -18 203 0 8 10 11 186 11 638 l0 625 61 1 c34 0 89 1 123 0 84 -1
91 10 89 146 -1 57 -6 107 -11 112 -12 12 -203 17 -509 13z"/>
<path d="M5772 7233 c-5 -10 -9 -351 -8 -766 1 -638 3 -749 15 -757 19 -11
189 -6 201 6 6 6 11 136 12 296 l3 287 36 -67 c71 -133 281 -507 290 -517 6
-5 60 -10 122 -11 103 0 113 1 124 20 9 17 7 28 -12 61 -169 294 -291 506
-307 532 l-19 32 39 20 c51 26 126 110 157 175 75 159 64 387 -25 526 -88 137
-196 180 -462 180 -140 0 -158 -2 -166 -17z m353 -264 c52 -13 99 -57 116
-106 7 -21 9 -66 7 -109 -4 -60 -10 -79 -33 -110 -35 -46 -89 -70 -165 -73
l-60 -2 0 205 0 206 46 0 c25 0 65 -5 89 -11z"/>
<path d="M4762 6813 c-5 -21 -67 -191 -137 -378 -70 -187 -142 -380 -160 -430
-19 -49 -46 -125 -62 -167 l-29 -77 -116 202 -117 202 35 18 c70 36 133 157
136 262 5 159 -52 269 -167 321 -47 22 -73 26 -181 30 -85 3 -131 0 -140 -7
-19 -16 -21 -1048 -2 -1067 7 -7 39 -12 75 -12 51 0 65 3 70 17 4 9 7 102 7
205 0 103 1 188 2 188 2 0 27 -44 56 -97 29 -53 72 -131 96 -172 23 -42 50
-91 59 -108 l17 -33 164 3 165 2 46 125 46 125 164 0 164 0 33 -95 c19 -52 39
-110 45 -127 l11 -33 73 0 c46 0 76 5 83 13 11 12 3 37 -98 317 -23 63 -50
140 -61 170 -178 508 -227 635 -246 638 -16 2 -23 -5 -31 -35z m-675 -225 c45
-22 66 -61 66 -120 0 -95 -50 -148 -140 -148 l-39 0 0 138 c0 75 4 140 9 143
14 10 73 2 104 -13z m796 -423 c2 -9 -182 -15 -188 -5 -1 3 13 46 31 95 19 50
42 110 50 134 l17 44 44 -129 c24 -71 45 -133 46 -139z"/>
<path d="M7569 6823 c-16 -42 -232 -626 -295 -798 -31 -82 -66 -179 -80 -213
-36 -94 -30 -103 63 -100 l76 3 46 125 46 125 165 0 165 0 10 -30 c6 -16 25
-74 44 -127 l33 -98 73 0 c101 0 104 5 61 121 -19 52 -60 166 -91 254 -242
683 -272 760 -289 763 -10 2 -20 -7 -27 -25z m114 -657 c2 -9 -156 -17 -179
-9 -7 3 0 36 23 96 18 51 41 112 50 137 l16 45 44 -130 c24 -72 45 -134 46
-139z"/>
<path d="M12432 6809 c-175 -34 -331 -225 -368 -449 -9 -60 -6 -197 5 -237 5
-18 8 -33 6 -33 -2 0 5 -25 15 -56 90 -262 336 -402 554 -316 138 53 252 195
296 368 37 143 16 344 -48 469 -25 49 -99 141 -139 173 -93 73 -212 103 -321
81z m171 -202 c224 -94 263 -492 64 -662 -74 -64 -183 -78 -267 -35 -70 36
-147 140 -168 228 -4 15 -6 72 -6 127 0 79 5 112 23 157 24 62 96 150 142 174
64 32 149 37 212 11z"/>
<path d="M1315 6776 c-3 -11 -4 -255 -3 -541 l3 -520 234 -3 c134 -1 239 2
244 7 14 14 15 150 2 168 -10 14 -37 16 -169 16 l-156 -1 0 154 0 154 154 0
c111 0 156 3 163 13 10 14 11 147 0 164 -5 9 -45 12 -130 12 -67 0 -137 0
-154 0 l-33 1 0 99 c0 70 4 100 13 103 6 3 78 4 159 3 169 -1 160 -6 162 92 3
109 22 101 -248 101 -233 0 -236 0 -241 -22z"/>
<path d="M1929 6789 c-10 -6 -12 -125 -12 -527 0 -285 2 -526 6 -535 5 -13 20
-17 66 -17 33 0 66 3 75 6 14 5 16 64 16 534 0 405 -3 530 -13 538 -14 12
-120 13 -138 1z"/>
<path d="M2181 6782 c-5 -9 -5 -22 0 -31 5 -9 56 -119 113 -244 l104 -228 -71
-152 c-40 -83 -97 -203 -128 -267 -31 -63 -54 -123 -51 -132 4 -15 16 -18 83
-18 l79 0 73 153 c40 83 79 167 86 185 12 30 31 44 31 23 0 -5 24 -60 53 -122
30 -63 66 -142 82 -176 l28 -63 77 0 c109 0 109 -4 14 199 -24 51 -44 95 -44
96 0 2 -27 60 -60 130 -33 70 -60 133 -60 140 0 8 51 121 114 252 81 170 112
243 105 254 -6 12 -25 16 -84 17 l-76 1 -55 -117 c-30 -64 -65 -139 -77 -166
l-23 -48 -75 163 -75 164 -77 1 c-61 2 -79 -2 -86 -14z"/>
<path d="M2902 6786 c-11 -17 -10 -1049 1 -1063 7 -10 68 -13 242 -13 203 0
234 2 239 16 9 24 7 147 -3 163 -7 10 -41 13 -152 13 -79 0 -151 2 -160 4 -13
4 -15 26 -14 152 l1 147 159 5 160 5 3 78 c2 48 -1 84 -8 92 -9 10 -43 14
-133 14 -67 0 -136 0 -153 0 l-30 1 0 102 1 103 155 0 c85 0 161 4 168 9 16
10 15 161 -2 175 -16 13 -465 10 -474 -3z"/>
<path d="M3512 6788 c-9 -9 -12 -139 -12 -529 0 -285 3 -524 6 -533 9 -24 140
-23 152 2 9 20 9 1042 0 1057 -9 15 -131 18 -146 3z"/>
<path d="M6660 6786 c-13 -17 -12 -1047 2 -1063 8 -10 68 -13 238 -13 170 0
230 3 238 13 11 13 11 161 0 172 -4 4 -72 7 -150 7 -79 0 -150 2 -158 4 -13 3
-15 28 -15 151 l0 148 160 5 160 5 3 78 c4 100 -2 107 -82 106 -33 -1 -101 -1
-151 0 l-90 1 1 93 c1 50 2 97 3 102 1 7 58 10 156 10 127 0 158 3 165 15 11
17 8 149 -3 167 -10 17 -463 15 -477 -1z"/>
<path d="M8072 6787 c-13 -17 -13 -1048 0 -1064 8 -10 60 -13 198 -13 162 0
189 2 194 16 3 9 6 49 6 89 0 60 -3 74 -17 80 -10 4 -65 8 -123 9 l-105 1 -1
433 c-1 238 -4 438 -7 446 -7 17 -132 19 -145 3z"/>
<path d="M8403 6782 c-8 -20 -7 -143 1 -162 5 -12 23 -15 84 -14 42 0 82 -1
89 -4 9 -3 12 -109 11 -436 0 -239 2 -438 6 -445 10 -16 131 -14 144 2 7 8 11
80 11 198 0 101 0 297 1 435 l0 250 82 -1 c55 0 85 4 94 13 17 16 16 158 0
171 -6 5 -125 9 -264 9 -221 0 -254 -2 -259 -16z"/>
<path d="M8961 6786 c-12 -14 22 -94 174 -421 92 -198 85 -163 85 -405 0 -120
3 -225 6 -234 5 -12 21 -16 74 -16 40 0 72 5 76 11 3 6 7 115 8 243 l2 231 46
95 c25 52 57 120 71 150 131 285 147 324 142 341 -5 16 -17 18 -84 18 l-79 0
-33 -72 c-18 -40 -53 -117 -79 -172 -25 -55 -51 -111 -57 -125 -12 -27 -5 -39
-144 265 l-45 100 -76 2 c-55 2 -79 -1 -87 -11z"/>
<path d="M11475 6778 c-3 -13 -4 -257 -3 -543 l3 -520 73 -3 c39 -2 73 -2 74
0 1 2 4 94 7 206 l6 203 114 -206 113 -205 83 0 c123 0 127 -20 -55 294 -50
87 -90 159 -88 160 114 66 166 161 166 304 0 110 -23 174 -85 242 -53 60 -121
81 -275 87 -126 4 -127 4 -133 -19z m269 -187 c14 -6 35 -25 47 -43 27 -43 23
-146 -6 -179 -26 -29 -76 -49 -120 -49 l-35 0 0 144 0 145 44 -4 c24 -3 55 -9
70 -14z"/>
<path d="M13081 6791 c-9 -6 -12 -99 -12 -392 0 -359 1 -388 20 -449 110 -349
514 -340 611 14 15 52 17 116 18 431 0 203 -4 377 -9 386 -6 12 -25 17 -73 18
-61 2 -66 0 -71 -21 -3 -13 -7 -187 -9 -388 -3 -387 -4 -396 -53 -457 -43 -54
-141 -62 -199 -18 -67 52 -68 57 -72 480 -2 239 -7 384 -13 392 -12 13 -117
16 -138 4z"/>
<path d="M13874 6789 c-8 -14 -8 -1054 0 -1068 8 -12 113 -15 140 -5 14 5 16
34 16 213 l0 206 61 3 c113 5 190 56 241 159 85 173 17 415 -137 478 -47 20
-310 31 -321 14z m286 -208 c40 -29 51 -60 47 -129 -3 -34 -11 -69 -18 -78
-21 -25 -69 -46 -116 -49 l-43 -2 0 145 0 145 53 -7 c28 -4 63 -15 77 -25z"/>
<path d="M2864 5583 c-113 -38 -157 -170 -88 -261 19 -24 54 -47 111 -74 121
-57 144 -89 108 -157 -16 -32 -33 -41 -76 -41 -37 0 -79 40 -79 74 0 35 -12
39 -75 26 -53 -11 -55 -13 -49 -38 28 -112 93 -172 193 -177 124 -7 226 92
220 213 -5 95 -52 148 -183 202 -39 17 -66 35 -75 52 -15 25 -14 29 8 52 35
37 84 35 121 -4 l29 -31 46 29 46 28 -30 40 c-50 70 -141 97 -227 67z"/>
<path d="M5547 5578 c-16 -10 -19 -615 -3 -626 21 -13 328 -9 342 5 7 7 12 32
11 55 l-2 43 -122 3 -121 3 1 87 2 87 105 1 c58 1 111 2 118 3 9 1 12 16 10
54 l-3 52 -116 3 -116 3 -1 59 0 60 119 0 c65 0 120 3 120 8 7 40 5 94 -5 99
-15 10 -324 10 -339 1z"/>
<path d="M9311 5570 c-4 -8 -6 -25 -5 -37 1 -13 2 -32 3 -43 1 -18 8 -20 69
-20 l68 0 -1 -256 c0 -218 2 -257 15 -264 17 -8 80 -7 95 2 7 4 10 99 10 262
l0 256 67 0 c58 0 68 3 69 18 0 9 2 32 3 50 1 18 -2 36 -8 40 -6 3 -94 7 -194
7 -155 0 -185 -2 -191 -15z"/>
<path d="M10527 5422 c-5 -7 -33 -145 -42 -202 -2 -14 -15 -78 -28 -142 -13
-65 -22 -120 -19 -123 3 -3 22 -5 43 -5 l38 0 10 55 c6 30 16 81 22 113 l12
57 13 -30 c7 -17 23 -55 37 -85 14 -30 32 -72 40 -92 9 -21 20 -38 25 -38 6 0
34 54 63 120 29 66 55 118 57 115 3 -2 6 -15 7 -27 2 -13 9 -60 16 -105 l13
-83 43 0 c24 0 43 3 43 8 0 4 -18 111 -40 237 -22 127 -40 232 -40 234 0 2 -6
-2 -14 -8 -8 -6 -40 -71 -72 -144 -32 -73 -62 -137 -68 -144 -8 -9 -28 27 -75
138 -64 148 -75 167 -84 151z"/>
<path d="M7710 5365 c-1 -30 -1 -111 -1 -180 0 -69 0 -150 1 -180 l0 -55 40 0
c46 0 42 -16 43 168 l1 114 55 -60 c192 -205 240 -252 247 -241 6 10 9 288 5
442 -1 25 -4 27 -41 27 -31 0 -40 -4 -41 -17 -1 -10 -1 -71 -1 -135 0 -65 -4
-118 -8 -118 -8 0 -263 267 -268 281 -2 5 -10 9 -18 9 -10 0 -14 -14 -14 -55z"/>
<path d="M10191 5398 c-5 -13 -40 -90 -79 -173 -38 -82 -80 -174 -92 -202 -23
-54 -37 -67 -37 -35 0 42 -1 42 -87 42 l-85 0 2 58 2 57 80 5 80 5 0 40 0 39
-80 0 -81 -1 1 41 0 41 65 2 c114 2 107 0 104 31 -1 15 -2 33 -3 39 -1 9 -33
12 -123 10 l-123 -2 -3 -223 -2 -222 175 1 175 1 21 49 21 49 87 0 87 0 19
-50 c19 -49 20 -50 62 -50 28 0 43 4 43 13 -1 22 -197 451 -209 455 -6 2 -15
-7 -20 -20z m43 -211 c9 -23 16 -45 16 -48 0 -4 -20 -6 -45 -6 l-44 0 15 36
c9 20 18 42 21 49 9 22 20 13 37 -31z"/>
<path d="M4535 5405 c-5 -2 -26 -6 -46 -9 -49 -8 -117 -69 -145 -130 -39 -85
-18 -203 48 -262 63 -58 155 -77 237 -49 l51 17 -3 43 c-1 24 -6 47 -9 50 -4
4 -20 -4 -37 -16 -22 -16 -45 -23 -80 -23 -56 0 -93 20 -122 67 -26 41 -22
130 6 169 46 61 125 77 190 39 20 -12 41 -19 46 -16 5 4 9 23 9 44 0 34 -4 41
-34 55 -34 16 -93 27 -111 21z"/>
<path d="M8319 5394 c-88 -26 -158 -123 -160 -221 -3 -125 101 -230 231 -232
44 0 102 17 116 35 10 13 9 82 -1 92 -2 2 -18 -6 -36 -18 -60 -43 -155 -27
-196 33 -34 50 -37 104 -11 157 40 79 130 105 203 60 20 -12 38 -20 40 -18 3
2 6 23 8 46 3 39 1 43 -30 58 -46 21 -109 25 -164 8z"/>
<path d="M11227 5403 c-2 -4 -26 -65 -52 -136 -26 -70 -50 -125 -53 -122 -4 3
-27 61 -53 128 l-46 122 -42 3 c-34 3 -41 0 -41 -15 1 -29 174 -455 185 -456
6 0 33 62 61 138 l51 137 31 -83 c17 -46 39 -108 49 -136 17 -51 35 -67 46
-40 36 89 162 389 172 412 18 38 12 45 -35 45 l-38 0 -32 -77 c-85 -205 -77
-191 -89 -163 -6 14 -28 74 -50 135 -35 100 -52 129 -64 108z"/>
<path d="M11672 5385 c-82 -38 -142 -128 -142 -211 0 -208 252 -310 399 -162
65 66 83 153 50 242 -46 125 -189 186 -307 131z m188 -100 c102 -98 33 -269
-107 -260 -110 7 -172 135 -111 229 35 53 64 67 131 63 46 -3 62 -9 87 -32z"/>
<path d="M3188 5383 c-2 -10 -4 -110 -3 -223 l0 -205 128 -3 128 -3 -3 38 -3
38 -82 3 -83 3 0 59 0 60 80 0 c73 0 80 2 81 20 1 11 2 26 3 33 4 26 -15 33
-89 31 l-75 -2 0 43 0 43 68 0 c105 0 100 -2 99 40 l-2 37 -121 3 c-110 2
-122 1 -126 -15z"/>
<path d="M3498 5393 c-3 -4 -4 -105 -4 -223 l1 -215 42 -3 42 -3 3 81 3 81 54
-81 54 -80 49 0 c26 0 48 3 48 7 0 3 -27 44 -61 90 -58 80 -60 85 -43 98 11 8
21 15 24 15 15 1 40 63 40 100 0 65 -27 104 -86 125 -41 14 -160 20 -166 8z
m160 -101 c16 -21 15 -57 -1 -71 -8 -6 -28 -14 -45 -17 l-32 -6 0 54 c0 30 3
58 6 61 11 10 58 -4 72 -21z"/>
<path d="M3770 5382 c0 -26 175 -455 188 -460 9 -3 186 411 193 453 3 16 -2
21 -29 23 -18 2 -39 -2 -46 -8 -8 -5 -35 -67 -62 -135 -26 -69 -50 -125 -53
-125 -3 0 -29 60 -57 133 l-52 132 -41 3 c-35 3 -41 0 -41 -16z"/>
<path d="M4194 5393 c-7 -6 -10 -77 -9 -218 1 -115 3 -213 4 -217 0 -5 19 -8
41 -8 l40 0 -2 223 -3 222 -30 3 c-16 1 -35 -1 -41 -5z"/>
<path d="M4730 5175 l0 -226 128 3 127 3 -1 28 c-1 15 -2 32 -3 37 0 6 -36 10
-84 10 l-84 0 1 58 1 57 80 5 80 5 3 38 c4 42 9 39 -98 40 l-66 0 0 38 c0 44
5 47 86 47 89 0 86 -1 84 35 -1 17 -2 35 -3 39 -1 3 -57 7 -126 7 l-125 1 0
-225z"/>
<path d="M5940 5384 c0 -9 23 -56 50 -104 28 -48 50 -92 50 -99 0 -6 -29 -58
-64 -115 -35 -58 -61 -107 -58 -110 3 -3 24 -6 46 -6 41 0 42 1 86 75 l44 74
44 -74 44 -75 45 0 c53 0 55 -6 -22 126 -30 52 -55 100 -55 106 0 5 25 51 55
102 30 50 55 97 55 104 0 7 -16 12 -43 12 -42 0 -43 -1 -75 -60 -18 -33 -37
-62 -41 -64 -4 -3 -24 24 -44 60 -36 62 -39 64 -77 64 -30 0 -40 -4 -40 -16z"/>
<path d="M6308 5394 c-5 -4 -8 -106 -8 -226 l0 -219 43 3 42 3 0 82 -1 81 47
6 c134 18 175 179 64 252 -27 17 -174 32 -187 18z m150 -98 c36 -34 11 -85
-44 -89 -27 -2 -28 0 -29 48 -1 28 0 53 2 58 6 9 55 -2 71 -17z"/>
<path d="M6598 5383 c-2 -10 -4 -110 -3 -223 l0 -205 128 -3 127 -3 0 41 0 40
-85 0 -85 0 0 60 0 60 80 0 c44 0 80 3 81 8 9 82 19 74 -98 75 l-63 0 0 42 0
42 73 1 c39 0 78 1 85 1 9 1 12 13 10 39 l-3 37 -121 3 c-110 2 -122 1 -126
-15z"/>
<path d="M6913 5384 c-7 -14 -10 -378 -4 -426 1 -5 19 -8 41 -8 l40 0 1 58 c1
31 0 67 -1 80 -1 12 0 22 2 22 3 0 29 -36 59 -80 l54 -80 48 0 c26 0 47 3 47
8 0 4 -27 45 -60 92 l-61 84 26 13 c53 28 77 133 42 187 -25 38 -71 57 -152
63 -65 5 -74 4 -82 -13z m155 -87 c36 -28 -2 -97 -55 -97 -21 0 -23 4 -23 60
l0 60 33 -7 c17 -3 38 -10 45 -16z"/>
<path d="M7243 5382 c-6 -13 -9 -324 -4 -414 1 -14 10 -18 41 -18 25 0 40 5
41 13 3 35 4 414 1 423 -5 19 -71 16 -79 -4z"/>
<path d="M7403 5383 c-5 -10 -8 -110 -8 -223 l1 -205 127 -3 127 -3 0 41 0 40
-85 0 -85 0 0 60 0 59 83 3 82 3 3 36 c4 43 -1 45 -101 44 l-68 -1 3 41 3 40
65 2 c36 0 73 2 83 2 13 1 17 10 17 41 l0 40 -120 0 c-104 0 -120 -2 -127 -17z"/>
<path d="M8567 5392 c-2 -4 -3 -104 -2 -222 l1 -215 127 -3 127 -3 0 41 0 40
-85 0 -85 0 0 60 0 59 82 3 82 3 2 33 c3 41 -12 49 -98 47 l-68 -2 0 43 0 43
73 0 c104 -1 99 -4 95 39 l-3 37 -122 2 c-68 1 -124 -1 -126 -5z"/>
<path d="M12056 5392 c-6 -10 -8 -110 -7 -324 l1 -118 39 0 c45 0 49 10 45
103 -3 67 -1 65 66 -35 45 -67 45 -67 93 -68 26 0 47 4 47 9 0 5 -25 42 -55
84 -30 41 -55 79 -55 84 0 5 13 19 29 31 20 15 32 36 41 71 10 44 10 55 -7 88
-25 52 -70 75 -158 81 -43 3 -75 0 -79 -6z m152 -95 c36 -28 -2 -97 -54 -97
-20 0 -22 4 -19 58 1 31 3 58 4 58 4 4 58 -11 69 -19z"/>
<path d="M12386 5392 c-5 -8 -8 -171 -7 -359 l1 -83 39 0 c22 0 41 5 43 13 3
6 4 47 3 90 -1 42 -1 77 1 77 1 0 35 -40 74 -90 l72 -90 49 0 c30 0 49 4 49
11 0 10 -87 120 -164 207 l-20 23 92 92 c51 51 92 98 92 105 0 8 -17 12 -47
12 -46 0 -50 -2 -120 -75 -39 -41 -73 -75 -75 -75 -2 0 -3 26 -3 58 2 84 -2
92 -41 92 -18 0 -35 -4 -38 -8z"/>
<path d="M5087 5059 c-29 -17 -39 -56 -22 -88 17 -33 47 -44 83 -30 33 13 42
26 42 62 0 52 -57 83 -103 56z"/>
<path d="M8917 5056 c-25 -19 -29 -71 -8 -97 42 -52 130 -10 117 55 -10 51
-68 73 -109 42z"/>
<path d="M12782 5050 c-31 -29 -29 -73 4 -99 65 -51 145 27 94 92 -26 33 -67
36 -98 7z"/>
<path d="M6855 4745 c-51 -52 -230 -243 -316 -336 -13 -15 -76 -82 -139 -149
-63 -68 -122 -131 -131 -141 -8 -10 -67 -73 -130 -139 -63 -67 -115 -126 -117
-131 -2 -5 34 -9 81 -9 l85 0 103 112 c57 62 127 137 154 167 28 29 55 59 60
65 6 6 44 47 85 91 129 139 294 316 319 344 13 14 46 51 74 81 28 30 61 67 74
81 l24 26 -83 0 -83 0 -60 -62z"/>
<path d="M4979 4773 c-5 -30 -3 -866 2 -874 3 -6 64 -8 145 -7 l139 3 -1 127
c-1 138 -2 135 51 83 11 -11 68 -64 126 -118 l107 -97 236 0 237 0 80 84 c44
47 81 88 82 92 1 4 -21 8 -48 8 l-51 -1 0 92 -1 92 143 0 143 0 28 33 c22 27
28 45 30 87 l1 53 -46 1 c-26 0 -104 0 -173 -1 l-126 -1 1 78 1 78 158 3 158
3 -3 92 -3 92 -292 3 -293 2 0 -107 c-1 -101 -2 -106 -15 -76 -21 49 -93 122
-143 144 -24 11 -69 25 -100 30 -68 11 -571 12 -573 2z m437 -194 c89 -23 131
-96 83 -148 -37 -40 -99 -55 -206 -52 l-33 1 0 105 0 105 56 0 c30 0 75 -5
100 -11z m396 -437 c2 -83 1 -152 -2 -152 -3 0 -42 32 -85 71 -44 39 -104 92
-132 117 l-53 46 58 21 c101 36 198 123 204 181 3 26 7 -98 10 -284z"/>
<path d="M7149 4688 c-46 -51 -109 -120 -139 -152 -77 -83 -74 -80 -180 -195
-52 -57 -102 -111 -110 -121 -32 -36 -178 -196 -237 -259 l-61 -66 160 -3
c157 -2 162 -2 181 20 20 22 190 206 288 313 26 27 63 68 83 90 l36 40 1 -30
c0 -16 2 -66 5 -110 5 -88 11 -216 13 -282 l1 -43 134 0 133 0 89 97 c49 53
100 108 112 122 13 14 40 44 61 66 20 22 63 68 94 102 54 60 57 61 58 35 0
-15 2 -47 5 -72 6 -73 12 -210 13 -282 l1 -68 140 0 140 0 0 445 0 445 -117 0
-116 0 -116 -114 c-212 -209 -376 -365 -379 -361 -3 2 -4 110 -4 239 l1 236
-103 0 -104 0 -83 -92z"/>
<path d="M8251 4335 l1 -445 129 0 129 0 1 103 c1 56 1 105 0 110 0 4 56 7
126 7 l127 0 -39 -42 c-22 -23 -49 -51 -60 -63 -11 -13 -37 -41 -57 -63 -21
-22 -38 -43 -38 -46 0 -3 74 -6 163 -6 150 0 165 2 181 19 18 20 18 20 39 0
19 -17 36 -19 186 -19 l165 0 -30 32 c-16 18 -33 37 -39 43 -90 103 -120 139
-119 146 1 5 2 15 3 21 0 7 59 -45 129 -115 l128 -128 156 3 156 3 -71 76
c-61 64 -202 216 -300 323 -28 30 -33 42 -19 48 4 2 61 64 127 138 66 74 138
155 161 180 23 25 56 62 74 83 l32 37 -162 0 c-146 0 -164 -2 -179 -18 -93
-107 -216 -242 -219 -242 -3 0 -25 21 -50 48 -24 26 -80 84 -124 130 l-79 82
-155 0 c-84 0 -154 -3 -154 -6 0 -6 100 -125 120 -144 3 -3 55 -61 115 -130
61 -69 120 -136 132 -150 20 -22 21 -26 8 -40 -18 -17 1 -35 -240 230 -83 90
-166 181 -185 202 l-34 38 -118 0 -117 0 0 -445z m324 0 c5 -6 16 -18 24 -28
12 -16 10 -17 -38 -17 l-51 0 0 52 0 51 27 -24 c15 -13 32 -29 38 -34z"/>
<path d="M6330 3960 l-62 -71 68 3 69 3 1 68 c0 37 -2 67 -6 67 -4 0 -35 -32
-70 -70z"/>
</g>
</svg>
