<?xml version="1.0" standalone="no"?>
<!DOCTYPE svg PUBLIC "-//W3C//DTD SVG 20010904//EN"
 "http://www.w3.org/TR/2001/REC-SVG-20010904/DTD/svg10.dtd">
<svg version="1.0" xmlns="http://www.w3.org/2000/svg"
 width="260.000000pt" height="260.000000pt" viewBox="0 0 260.000000 260.000000"
 preserveAspectRatio="xMidYMid meet">
<metadata>
Created by potrace 1.11, written by Peter Selinger 2001-2013
</metadata>
<g transform="translate(0.000000,260.000000) scale(0.100000,-0.100000)"
fill="#000000" stroke="none">
<path d="M1729 2352 c55 -107 92 -395 73 -555 -29 -230 -125 -457 -269 -634
-24 -29 -42 -53 -41 -54 2 0 59 -6 128 -14 l125 -13 67 69 c124 129 183 240
196 373 l7 71 39 3 c51 4 167 -32 193 -60 43 -45 56 -189 28 -307 -20 -82 -76
-189 -133 -252 l-45 -50 74 -75 73 -74 38 37 c101 99 182 266 201 415 20 158
-19 397 -85 523 -83 159 -319 394 -570 565 -117 81 -125 84 -99 32z m263 -329
c33 -32 75 -78 93 -103 34 -47 105 -181 105 -199 0 -6 -16 -5 -42 5 -22 8 -64
17 -92 20 l-51 6 -19 95 c-10 53 -29 127 -41 164 -13 38 -21 69 -19 69 3 0 33
-26 66 -57z"/>
<path d="M1590 2094 c-6 -16 -45 -110 -87 -208 -140 -330 -291 -606 -415 -761
-36 -46 -64 -86 -60 -89 3 -3 13 -6 23 -6 10 0 31 -11 47 -25 29 -24 35 -25
176 -25 80 0 146 3 146 8 0 4 43 259 94 567 52 308 92 562 90 564 -2 2 -8 -9
-14 -25z"/>
<path d="M1404 885 c-80 -14 -129 -36 -144 -65 -10 -18 -21 -20 -129 -20 -99
0 -120 -3 -125 -16 -11 -28 -7 -32 52 -54 159 -60 446 -89 697 -71 236 17 250
21 315 86 l55 55 -92 0 c-86 0 -91 1 -97 23 -7 30 -60 55 -144 67 -92 13 -303
11 -388 -5z"/>
</g>
</svg>
