<?xml version="1.0" standalone="no"?>
<!DOCTYPE svg PUBLIC "-//W3C//DTD SVG 20010904//EN"
 "http://www.w3.org/TR/2001/REC-SVG-20010904/DTD/svg10.dtd">
<svg version="1.0" xmlns="http://www.w3.org/2000/svg"
 width="300.000000pt" height="300.000000pt" viewBox="0 0 300.000000 300.000000"
 preserveAspectRatio="xMidYMid meet">
<metadata>
Created by potrace 1.11, written by Peter Selinger 2001-2013
</metadata>
<g transform="translate(0.000000,300.000000) scale(0.100000,-0.100000)"
fill="#000000" stroke="none">
<path d="M1436 2145 c-80 -40 -71 -36 -96 -42 -11 -3 -20 -9 -20 -14 0 -4 -8
-7 -17 -6 -10 0 -71 -23 -136 -53 l-118 -53 -325 -1 -325 -1 -30 -70 c-16 -38
-28 -74 -26 -80 2 -6 40 -10 88 -10 l84 0 3 -190 c1 -143 -2 -204 -13 -248
-18 -71 -18 -67 0 -67 12 0 14 -29 14 -182 1 -179 -3 -209 -15 -134 -3 21 -7
47 -9 58 -4 21 -38 117 -56 158 -34 77 -101 187 -123 202 -21 14 48 30 83 19
19 -6 37 -9 39 -6 2 2 -4 17 -14 34 -14 23 -26 31 -53 33 l-36 3 35 22 c19 13
49 23 67 23 24 0 31 4 27 14 -15 38 -121 54 -162 25 -10 -6 1 5 23 24 33 30
37 37 23 42 -13 5 -52 3 -95 -5 -14 -2 -55 -59 -60 -81 -5 -24 -10 -29 -35
-29 -63 0 -118 -53 -118 -115 0 -31 7 -31 37 -3 13 12 26 18 30 14 4 -4 2 -10
-4 -14 -21 -13 -31 -84 -16 -119 7 -18 18 -33 23 -33 9 0 11 5 10 25 -1 13 30
62 49 80 l22 19 -6 -32 c-6 -36 6 -67 33 -81 16 -9 18 -5 18 33 -1 50 19 83
38 63 21 -22 75 -152 90 -218 17 -75 24 -129 31 -242 5 -74 4 -77 -18 -78 -12
0 -102 -1 -200 -2 -164 0 -177 -2 -177 -19 0 -14 8 -18 33 -19 40 0 2914 0
2945 1 15 0 22 6 22 19 0 17 -12 18 -192 18 l-193 -1 2 90 c2 95 12 184 23
214 1 3 2 8 1 12 0 3 9 35 20 70 26 79 68 158 85 158 18 0 35 -56 24 -84 -7
-20 -6 -23 10 -19 30 8 41 28 42 73 0 39 1 40 19 24 10 -9 26 -37 35 -61 l17
-45 19 24 c21 27 21 80 1 121 -16 31 -4 37 15 7 19 -30 42 -26 38 8 -8 70 -55
112 -125 112 -21 0 -26 5 -28 26 -3 56 -96 111 -150 90 -16 -6 -14 -11 17 -38
21 -18 27 -27 15 -23 -51 19 -92 13 -135 -17 -29 -21 -25 -26 23 -32 66 -9
108 -46 51 -46 -28 0 -64 -33 -64 -57 0 -10 6 -12 23 -7 33 11 73 13 88 4 10
-7 3 -23 -29 -68 -23 -33 -42 -63 -42 -66 0 -3 -14 -34 -31 -68 -16 -35 -41
-99 -54 -143 l-24 -80 0 151 c-1 129 1 153 15 158 8 3 13 10 9 16 -14 22 -19
86 -22 280 l-4 205 83 0 c89 0 108 2 108 15 0 5 -14 40 -31 78 l-32 70 -331 0
-331 0 -112 51 c-62 28 -117 51 -123 51 -6 0 -37 13 -69 30 -32 16 -61 26 -65
23 -3 -4 -6 -2 -6 4 0 6 -8 13 -17 17 -67 24 -69 24 -137 -9z"/>
</g>
</svg>
