<?xml version="1.0" standalone="no"?>
<!DOCTYPE svg PUBLIC "-//W3C//DTD SVG 20010904//EN"
 "http://www.w3.org/TR/2001/REC-SVG-20010904/DTD/svg10.dtd">
<svg version="1.0" xmlns="http://www.w3.org/2000/svg"
 width="72.000000pt" height="72.000000pt" viewBox="0 0 72.000000 72.000000"
 preserveAspectRatio="xMidYMid meet">
<metadata>
Created by potrace 1.11, written by Peter Selinger 2001-2013
</metadata>
<g transform="translate(0.000000,72.000000) scale(0.100000,-0.100000)"
fill="#000000" stroke="none">
<path d="M270 671 c-90 -28 -164 -94 -205 -184 -24 -51 -27 -68 -23 -140 4
-95 26 -147 90 -213 124 -129 332 -129 456 0 46 47 78 105 87 159 l7 37 -44 0
c-43 0 -43 0 -61 -50 -34 -94 -118 -153 -219 -152 -73 0 -141 33 -181 87 -39
54 -48 81 -48 143 0 106 76 206 172 227 27 6 29 10 29 51 0 47 -6 51 -60 35z"/>
<path d="M390 638 c0 -43 1 -43 48 -60 63 -23 117 -76 139 -138 18 -50 18 -50
61 -50 l44 0 -7 38 c-21 113 -133 226 -248 247 l-37 7 0 -44z"/>
<path d="M274 501 c-66 -40 -98 -124 -75 -194 16 -46 80 -104 125 -113 63 -11
107 4 154 52 23 24 42 53 42 64 0 29 -82 29 -101 0 -8 -12 -30 -23 -49 -26
-46 -7 -79 18 -86 67 -5 29 -2 39 20 60 20 18 26 34 26 67 0 48 -9 52 -56 23z"/>
<path d="M390 478 c0 -56 35 -92 87 -90 20 1 38 4 41 6 11 11 -23 69 -57 96
-52 44 -71 40 -71 -12z"/>
</g>
</svg>
