<?xml version="1.0" standalone="no"?>
<!DOCTYPE svg PUBLIC "-//W3C//DTD SVG 20010904//EN"
 "http://www.w3.org/TR/2001/REC-SVG-20010904/DTD/svg10.dtd">
<svg version="1.0" xmlns="http://www.w3.org/2000/svg"
 width="16.000000pt" height="16.000000pt" viewBox="0 0 16.000000 16.000000"
 preserveAspectRatio="xMidYMid meet">
<metadata>
Created by potrace 1.11, written by Peter Selinger 2001-2013
</metadata>
<g transform="translate(0.000000,16.000000) scale(0.005333,-0.005333)"
fill="#000000" stroke="none">
<path d="M759 2305 c-409 -327 -745 -599 -747 -604 -10 -30 79 15 249 128 107
70 430 284 718 475 l524 347 714 -476 c485 -324 724 -478 744 -479 52 -4 141
-79 -816 689 -280 225 -512 411 -515 414 -3 3 -33 27 -67 53 l-61 48 -743
-595z"/>
<path d="M724 2522 c-39 -25 -115 -88 -174 -143 -50 -47 -136 -155 -182 -229
-48 -76 -112 -209 -105 -216 2 -2 23 11 46 29 32 24 53 53 82 114 76 159 226
351 349 446 45 35 36 35 -16 -1z"/>
<path d="M2286 2504 c124 -82 274 -282 343 -454 17 -43 34 -65 76 -98 30 -24
55 -40 55 -36 0 4 -20 48 -44 99 -85 179 -202 325 -359 446 -49 38 -94 69 -99
69 -6 0 7 -12 28 -26z"/>
<path d="M1393 2170 c-63 -26 -79 -132 -33 -226 31 -66 114 -164 138 -164 21
0 98 83 133 145 65 114 41 239 -49 250 -22 3 -38 -3 -57 -21 l-27 -25 -20 20
c-10 12 -23 21 -28 21 -4 0 -14 2 -22 4 -7 3 -23 1 -35 -4z"/>
<path d="M1015 1923 c10 -54 51 -150 80 -188 31 -41 98 -74 170 -84 l56 -8 -7
56 c-7 67 -36 136 -67 163 -40 36 -188 98 -232 98 -4 0 -4 -17 0 -37z"/>
<path d="M1898 1936 c-111 -39 -153 -69 -183 -129 -15 -31 -27 -77 -30 -109
l-4 -55 42 5 c72 8 144 40 177 80 32 39 74 135 85 195 9 44 6 45 -87 13z"/>
<path d="M250 1808 c-25 -16 -46 -31 -47 -32 -1 -1 -9 -42 -18 -91 -22 -125
-21 -367 1 -485 2 -14 7 -41 10 -60 11 -63 71 -235 109 -311 173 -343 490
-595 880 -699 112 -29 161 -35 330 -34 136 0 177 4 271 26 373 88 680 309 873
630 124 206 184 435 184 694 -1 78 -4 123 -17 229 -9 66 -19 86 -59 113 -73
49 -71 49 -63 11 27 -135 28 -410 1 -539 -82 -398 -365 -715 -787 -885 -124
-49 -139 -51 -176 -20 -64 54 -131 233 -149 397 -15 137 -8 460 12 583 13 74
39 173 57 208 17 35 17 37 1 37 -36 0 -107 -62 -139 -122 -8 -16 -18 -28 -22
-28 -4 1 -23 24 -42 52 -36 54 -90 98 -120 98 -16 0 -16 -3 2 -39 22 -45 46
-127 54 -186 3 -22 7 -45 9 -52 7 -20 19 -232 19 -323 0 -221 -28 -384 -89
-515 -35 -76 -84 -135 -113 -135 -28 0 -178 53 -266 93 -175 82 -375 248 -475
395 -75 112 -158 301 -177 406 -3 17 -12 65 -19 106 -21 115 -11 361 20 483 9
34 1 34 -55 -5z"/>
<path d="M1426 1678 c-20 -28 -9 -61 33 -102 l38 -37 32 27 c47 39 63 74 48
105 -11 21 -19 24 -75 25 -51 1 -65 -2 -76 -18z"/>
<path d="M789 1667 c40 -104 113 -197 173 -222 37 -14 155 -20 180 -8 10 5
-17 97 -43 143 -39 69 -96 94 -242 106 l-77 6 9 -25z"/>
<path d="M2070 1680 c-61 -10 -119 -36 -143 -63 -26 -29 -65 -114 -69 -152
l-3 -30 75 0 c91 0 119 7 159 41 32 26 91 117 116 178 l15 36 -52 -1 c-29 -1
-73 -5 -98 -9z"/>
<path d="M815 1346 c-42 -13 -133 -56 -166 -80 -19 -13 -19 -14 3 -28 40 -25
131 -64 173 -75 64 -15 160 14 224 67 l24 21 -22 23 c-32 34 -110 74 -156 79
-22 3 -58 -1 -80 -7z"/>
<path d="M2069 1346 c-46 -16 -100 -49 -124 -75 -17 -20 -17 -21 6 -41 13 -11
48 -32 77 -46 82 -41 141 -34 276 33 66 33 68 35 48 49 -43 30 -168 83 -207
88 -22 3 -56 -1 -76 -8z"/>
<path d="M1262 1284 c11 -27 24 -63 28 -80 6 -26 4 -31 -9 -28 -20 4 -191 13
-191 9 0 -1 28 -20 63 -41 115 -71 177 -145 202 -239 l8 -30 13 45 c17 55 20
182 5 237 -13 48 -61 114 -109 151 l-32 25 22 -49z"/>
<path d="M1695 1276 c-71 -70 -90 -131 -82 -260 5 -93 20 -155 30 -126 41 126
64 157 179 237 43 30 78 56 78 58 0 4 -161 -5 -177 -10 -21 -7 -15 39 11 100
14 30 23 55 20 55 -3 0 -29 -24 -59 -54z"/>
<path d="M1164 1265 c-7 -29 10 -55 36 -55 24 0 42 24 38 52 -2 18 -10 24 -35
26 -28 3 -33 -1 -39 -23z"/>
<path d="M1767 1283 c-11 -11 -8 -48 5 -61 30 -30 75 0 64 43 -5 19 -13 25
-35 25 -15 0 -31 -3 -34 -7z"/>
<path d="M985 986 c-23 -9 -60 -36 -85 -64 -47 -51 -106 -149 -96 -159 13 -13
142 -1 208 19 56 17 121 83 146 151 11 29 19 53 17 55 -1 1 -35 5 -76 7 -51 4
-86 1 -114 -9z"/>
<path d="M1842 989 l-21 -8 21 -50 c50 -120 127 -165 294 -172 30 -1 57 0 60
4 10 9 -48 107 -93 158 -24 26 -62 54 -84 63 -43 17 -136 20 -177 5z"/>
</g>
</svg>
