<?xml version="1.0" standalone="no"?>
<!DOCTYPE svg PUBLIC "-//W3C//DTD SVG 20010904//EN"
 "http://www.w3.org/TR/2001/REC-SVG-20010904/DTD/svg10.dtd">
<svg version="1.0" xmlns="http://www.w3.org/2000/svg"
 width="16.000000pt" height="16.000000pt" viewBox="0 0 16.000000 16.000000"
 preserveAspectRatio="xMidYMid meet">
<metadata>
Created by potrace 1.11, written by Peter Selinger 2001-2013
</metadata>
<g transform="translate(0.000000,16.000000) scale(0.001368,-0.001368)"
fill="#000000" stroke="none">
<path d="M5480 11450 c-846 -58 -1602 -260 -2331 -625 -1637 -820 -2783 -2339
-3073 -4075 -323 -1926 403 -3851 1937 -5134 834 -697 1868 -1156 2962 -1315
320 -47 452 -55 875 -55 422 -1 555 8 880 55 1103 159 2110 609 2980 1329 158
131 565 537 696 695 762 917 1193 1964 1283 3114 6 74 11 259 11 411 0 152 -5
337 -11 411 -90 1149 -523 2199 -1285 3114 -139 167 -500 529 -674 675 -948
797 -2059 1261 -3320 1386 -182 18 -748 26 -930 14z m775 -130 c813 -59 1538
-256 2246 -611 1338 -669 2355 -1830 2812 -3209 368 -1111 351 -2339 -48
-3440 -217 -599 -530 -1139 -959 -1655 -130 -156 -517 -543 -675 -675 -892
-740 -1934 -1189 -3081 -1324 -433 -52 -932 -52 -1395 0 -1039 115 -2071 536
-2905 1184 -275 213 -595 516 -809 765 -728 848 -1166 1850 -1287 2945 -21
198 -30 691 -15 905 43 606 183 1187 422 1737 631 1458 1894 2592 3454 3101
461 151 993 252 1475 280 137 8 639 6 765 -3z"/>
<path d="M5505 10929 c-2299 -142 -4259 -1651 -4859 -3743 -122 -424 -175
-781 -183 -1239 -6 -321 4 -503 43 -777 136 -955 565 -1871 1213 -2589 l76
-85 6 65 c5 54 39 141 210 541 l204 478 317 0 317 0 5 -53 c3 -28 8 -81 11
-117 44 -477 345 -903 845 -1198 234 -138 545 -243 866 -293 177 -27 602 -38
781 -20 425 43 834 195 1141 424 501 372 761 855 762 1413 1 400 -190 789
-590 1198 -262 269 -490 448 -1080 848 -503 341 -669 462 -910 663 -607 505
-967 985 -1092 1455 -27 102 -31 135 -36 297 -9 357 55 651 209 963 353 714
1160 1315 2074 1544 282 71 557 106 890 113 148 4 240 9 225 14 -40 13 -324
57 -470 73 -307 35 -672 44 -975 25z"/>
<path d="M8229 10385 c90 -100 144 -219 156 -350 11 -124 -37 -264 -250 -726
-112 -241 -214 -474 -277 -634 l-24 -60 -188 -3 -189 -2 8 52 c71 521 -9 837
-285 1122 -199 206 -453 339 -745 392 -134 24 -432 25 -560 1 -206 -37 -419
-123 -582 -234 -320 -216 -552 -539 -631 -878 -60 -254 -47 -514 37 -744 189
-517 713 -994 1946 -1771 331 -209 485 -312 670 -451 591 -443 963 -882 1104
-1304 68 -203 86 -393 61 -646 -62 -626 -350 -1190 -861 -1684 -714 -690
-1626 -1112 -2659 -1229 -495 -56 -1047 -41 -1450 40 -40 8 91 -52 265 -121
1105 -437 2360 -510 3530 -205 544 141 1090 381 1580 692 486 309 958 740
1322 1205 101 130 307 437 391 583 336 588 536 1202 619 1895 26 217 25 836 0
1050 -97 794 -348 1490 -774 2145 -308 472 -736 930 -1203 1287 -283 216 -651
440 -956 583 l-105 49 50 -54z"/>
</g>
</svg>
