<?xml version="1.0" standalone="no"?>
<!DOCTYPE svg PUBLIC "-//W3C//DTD SVG 20010904//EN"
 "http://www.w3.org/TR/2001/REC-SVG-20010904/DTD/svg10.dtd">
<svg version="1.0" xmlns="http://www.w3.org/2000/svg"
 width="300.000000pt" height="300.000000pt" viewBox="0 0 300.000000 300.000000"
 preserveAspectRatio="xMidYMid meet">
<metadata>
Created by potrace 1.11, written by Peter Selinger 2001-2013
</metadata>
<g transform="translate(0.000000,300.000000) scale(0.100000,-0.100000)"
fill="#000000" stroke="none">
<path d="M0 1928 l0 -1073 23 35 c13 19 37 60 54 90 118 217 286 414 439 518
138 93 326 166 503 196 167 28 155 32 295 -98 91 -84 134 -117 162 -125 21 -5
62 -16 89 -23 68 -18 448 -18 530 0 33 7 83 18 110 23 96 21 277 81 373 124
62 29 72 37 72 60 0 29 21 50 150 146 103 78 126 94 168 120 l32 21 0 394 c0
217 -3 394 -7 394 -23 0 -349 -186 -590 -337 -201 -125 -203 -126 -219 -115
-26 17 -426 563 -421 575 3 7 45 37 93 67 49 29 98 59 109 67 16 11 -146 13
-973 13 l-992 0 0 -1072z"/>
<path d="M1415 1230 c-81 -10 -195 -55 -275 -107 -71 -48 -249 -217 -286 -273
-13 -19 -37 -53 -53 -75 -42 -56 -193 -313 -286 -485 -43 -80 -86 -156 -95
-170 -9 -14 -31 -46 -49 -72 l-32 -48 410 0 411 0 21 42 c52 101 206 309 288
388 117 113 242 202 371 265 131 63 132 63 246 -40 107 -97 292 -252 308 -258
11 -5 107 -6 211 -3 176 5 235 12 353 45 l42 12 0 295 0 294 -47 -24 c-77 -38
-192 -83 -283 -110 -81 -23 -119 -32 -254 -56 -33 -5 -162 -10 -287 -10 -202
0 -229 2 -246 18 -11 9 -98 99 -193 200 -126 133 -178 182 -194 181 -11 -1
-48 -5 -81 -9z"/>
<path d="M2355 187 c-48 -23 -96 -58 -150 -110 l-80 -76 273 -1 c149 0 272 4
272 8 0 16 -212 212 -229 212 -9 0 -48 -15 -86 -33z"/>
</g>
</svg>
