<?xml version="1.0" standalone="no"?>
<!DOCTYPE svg PUBLIC "-//W3C//DTD SVG 20010904//EN"
 "http://www.w3.org/TR/2001/REC-SVG-20010904/DTD/svg10.dtd">
<svg version="1.0" xmlns="http://www.w3.org/2000/svg"
 width="300.000000pt" height="300.000000pt" viewBox="0 0 300.000000 300.000000"
 preserveAspectRatio="xMidYMid meet">
<metadata>
Created by potrace 1.11, written by Peter Selinger 2001-2013
</metadata>
<g transform="translate(0.000000,300.000000) scale(0.100000,-0.100000)"
fill="#000000" stroke="none">
<path d="M1459 2894 c-139 -145 -385 -163 -729 -54 -250 79 -400 -18 -477
-307 -25 -91 -26 -113 -27 -313 0 -232 8 -303 63 -515 54 -208 227 -615 370
-870 221 -393 437 -632 656 -725 53 -22 74 -25 180 -25 102 0 129 4 178 24
324 129 688 655 966 1397 198 528 170 1150 -59 1309 -91 63 -159 68 -316 24
-190 -54 -281 -70 -388 -70 -151 0 -246 35 -341 122 l-42 38 -34 -35z m188
-137 c57 -26 81 -31 168 -35 123 -5 190 5 378 60 184 54 256 57 342 13 133
-68 215 -264 215 -511 l0 -84 -1257 0 -1256 0 6 118 c11 202 62 347 154 433
97 91 179 96 428 23 168 -48 172 -49 311 -49 l140 0 75 37 c40 20 89 53 108
72 l34 35 44 -40 c25 -22 74 -55 110 -72z m-1177 -772 c0 -90 -35 -152 -73
-128 -6 4 -2 10 11 14 20 8 22 15 22 94 0 78 2 85 20 85 18 0 20 -7 20 -65z
m159 39 c29 -37 27 -89 -4 -119 -51 -52 -135 -15 -135 60 0 76 94 116 139 59z
m81 -14 c0 -40 0 -40 39 -40 37 0 39 1 45 40 4 26 11 40 21 40 12 0 15 -16 15
-85 0 -78 -2 -85 -20 -85 -16 0 -20 7 -20 35 0 34 -1 35 -39 35 -37 0 -40 -2
-43 -32 -2 -22 -9 -34 -20 -36 -16 -3 -18 6 -18 82 0 79 2 86 20 86 17 0 20
-7 20 -40z m221 -15 c24 -30 46 -55 49 -55 3 0 5 23 5 52 0 32 5 53 13 55 15
6 18 -152 2 -162 -5 -3 -34 20 -65 52 l-54 58 -1 -57 c0 -40 -4 -58 -12 -58
-10 0 -12 22 -10 85 3 61 7 85 16 85 7 0 33 -25 57 -55z m309 45 c0 -6 -9 -10
-20 -10 -18 0 -20 -7 -20 -75 0 -60 -3 -75 -15 -75 -12 0 -15 15 -15 74 l0 74
-55 -1 c-63 -1 -73 -17 -25 -42 17 -9 31 -21 31 -28 3 -24 -3 -42 -19 -60 -19
-21 -67 -19 -67 3 0 8 7 13 15 11 57 -14 67 17 15 47 -38 23 -45 50 -20 75 17
18 195 24 195 7z m147 -16 c25 -38 22 -88 -7 -119 -50 -53 -134 -15 -134 62 0
73 103 115 141 57z m113 -29 l45 -55 5 52 c3 28 11 53 18 56 15 5 18 -153 2
-163 -5 -3 -34 20 -65 52 l-54 58 -1 -57 c0 -40 -4 -58 -12 -58 -10 0 -12 22
-11 82 1 46 2 84 3 86 0 1 6 2 13 2 6 0 32 -25 57 -55z m440 30 c38 -34 22
-103 -30 -130 -36 -19 -95 -21 -83 -2 10 16 11 137 1 137 -4 0 -8 5 -8 11 0
18 97 5 120 -16z m158 -52 c37 -90 38 -93 16 -93 -9 0 -21 14 -27 30 -9 24
-17 30 -40 30 -22 0 -30 -6 -38 -30 -6 -16 -18 -30 -26 -30 -17 0 -18 -5 27
93 19 42 40 76 46 77 6 0 25 -35 42 -77z m122 21 l45 -57 5 53 c3 30 11 55 18
58 16 5 17 -154 1 -163 -5 -4 -34 19 -64 52 l-54 58 -1 -57 c0 -40 -4 -58 -12
-58 -10 0 -12 22 -11 82 1 46 2 84 2 86 1 1 7 2 14 2 7 0 32 -25 57 -56z m140
-29 c0 -69 -3 -85 -15 -85 -12 0 -15 16 -15 85 0 69 3 85 15 85 12 0 15 -16
15 -85z m115 75 c-3 -5 -17 -10 -30 -10 -18 0 -23 -5 -21 -25 1 -19 7 -25 24
-25 12 0 22 -4 22 -9 0 -5 -10 -11 -22 -13 -17 -2 -24 -11 -26 -30 -3 -25 0
-28 27 -28 17 0 31 -4 31 -10 0 -5 -21 -10 -47 -10 l-48 0 0 85 0 85 48 0 c30
0 46 -4 42 -10z m60 -67 l-8 -76 32 6 c24 5 31 3 29 -6 -3 -6 -24 -13 -49 -15
l-44 -3 3 86 c3 77 5 85 24 85 19 0 19 -4 13 -77z m-807 38 c2 -12 -1 -28 -7
-35 -13 -16 5 -37 25 -29 10 4 12 0 8 -11 -3 -9 -1 -23 5 -30 15 -18 -5 -34
-21 -18 -7 7 -16 7 -29 -1 -39 -24 -76 28 -45 62 10 10 14 25 10 35 -7 19 23
59 40 53 6 -2 12 -14 14 -26z m-376 -208 c17 -15 18 -15 18 0 0 27 26 20 40
-10 12 -27 13 -27 20 -7 11 27 32 42 38 25 3 -9 7 -9 18 0 8 7 18 9 21 5 4 -4
2 -11 -5 -15 -10 -6 -10 -11 3 -21 13 -10 15 -9 15 8 0 12 5 24 10 27 6 3 10
1 10 -6 0 -8 4 -8 16 2 12 10 20 10 34 1 14 -9 20 -8 23 1 3 8 12 3 25 -13 18
-21 21 -22 22 -7 0 33 20 17 20 -18 0 -40 -9 -44 -29 -13 l-14 22 -10 -24 c-6
-16 -11 -20 -14 -12 -4 10 -8 10 -20 1 -11 -10 -19 -10 -33 -1 -14 9 -20 8
-24 -1 -3 -9 -7 -9 -14 2 -7 9 -12 10 -16 2 -9 -14 -26 -14 -26 0 0 5 5 7 10
4 16 -10 12 11 -5 25 -13 11 -15 8 -15 -14 0 -16 -4 -25 -10 -21 -6 3 -8 18
-5 33 5 25 4 25 -12 -5 -9 -18 -20 -33 -24 -33 -3 0 -13 15 -20 33 l-14 32 -6
-35 c-5 -26 -7 -29 -8 -10 l-1 24 -16 -22 c-25 -36 -44 -28 -44 18 0 43 12 50
42 23z m1293 -230 c-12 -51 -117 -307 -185 -453 -328 -708 -695 -1071 -1030
-1020 -318 50 -657 458 -959 1157 -52 121 -131 324 -131 338 0 3 520 5 1156 5
l1156 0 -7 -27z"/>
<path d="M531 2000 c-14 -42 3 -88 36 -96 30 -8 43 8 43 54 0 46 -16 72 -44
72 -18 0 -27 -8 -35 -30z"/>
<path d="M1290 2011 c-23 -44 1 -111 40 -111 38 0 53 67 24 108 -19 27 -50 29
-64 3z"/>
<path d="M1870 1965 c0 -49 3 -65 14 -65 35 0 56 68 32 105 -30 46 -46 32 -46
-40z"/>
<path d="M2036 1975 c-3 -9 0 -15 9 -15 8 0 15 7 15 15 0 8 -4 15 -9 15 -5 0
-11 -7 -15 -15z"/>
<path d="M1701 2004 c0 -11 3 -14 6 -6 3 7 2 16 -1 19 -3 4 -6 -2 -5 -13z"/>
<path d="M1680 1938 c0 -18 18 -34 28 -24 3 4 -2 14 -11 23 -16 16 -17 16 -17
1z"/>
<path d="M1564 1796 c-8 -21 3 -49 16 -41 5 3 10 15 10 25 0 25 -18 36 -26 16z"/>
<path d="M1324 1780 c0 -11 5 -19 11 -17 5 2 10 10 10 17 0 7 -5 15 -10 17 -6
2 -11 -6 -11 -17z"/>
<path d="M1657 1429 c4 -13 8 -18 11 -10 2 7 -1 18 -6 23 -8 8 -9 4 -5 -13z"/>
<path d="M826 1427 c3 -10 9 -15 12 -12 3 3 0 11 -7 18 -10 9 -11 8 -5 -6z"/>
<path d="M1121 1403 c-1 -23 3 -44 7 -47 4 -2 6 12 4 32 -5 56 -10 62 -11 15z"/>
<path d="M2030 1420 c0 -5 5 -10 11 -10 5 0 7 5 4 10 -3 6 -8 10 -11 10 -2 0
-4 -4 -4 -10z"/>
<path d="M2140 1420 c0 -5 5 -10 11 -10 5 0 7 5 4 10 -3 6 -8 10 -11 10 -2 0
-4 -4 -4 -10z"/>
<path d="M1193 1405 c-3 -9 -3 -18 -1 -21 3 -3 8 4 11 16 6 23 -1 27 -10 5z"/>
<path d="M1386 1407 c3 -10 9 -15 12 -12 3 3 0 11 -7 18 -10 9 -11 8 -5 -6z"/>
<path d="M1493 1405 c-3 -9 -3 -18 -1 -21 3 -3 8 4 11 16 6 23 -1 27 -10 5z"/>
<path d="M1796 1407 c3 -10 9 -15 12 -12 3 3 0 11 -7 18 -10 9 -11 8 -5 -6z"/>
<path d="M1965 1411 c-3 -5 -2 -12 3 -15 5 -3 9 1 9 9 0 17 -3 19 -12 6z"/>
<path d="M1657 1379 c4 -13 8 -18 11 -10 2 7 -1 18 -6 23 -8 8 -9 4 -5 -13z"/>
<path d="M2006 1377 c3 -10 9 -15 12 -12 3 3 0 11 -7 18 -10 9 -11 8 -5 -6z"/>
<path d="M1340 1371 c0 -6 4 -13 10 -16 6 -3 7 1 4 9 -7 18 -14 21 -14 7z"/>
<path d="M915 1290 c-9 -14 3 -30 32 -41 18 -7 23 -14 18 -27 -5 -13 -3 -14 6
-5 15 15 4 32 -28 44 -16 6 -23 14 -19 24 6 17 0 20 -9 5z"/>
<path d="M1511 1274 c0 -11 3 -14 6 -6 3 7 2 16 -1 19 -3 4 -6 -2 -5 -13z"/>
<path d="M1330 1261 c0 -6 4 -13 10 -16 6 -3 7 1 4 9 -7 18 -14 21 -14 7z"/>
<path d="M1260 1236 c0 -8 4 -17 9 -20 5 -4 7 3 4 14 -6 23 -13 26 -13 6z"/>
</g>
</svg>
