<?xml version="1.0" standalone="no"?>
<!DOCTYPE svg PUBLIC "-//W3C//DTD SVG 20010904//EN"
 "http://www.w3.org/TR/2001/REC-SVG-20010904/DTD/svg10.dtd">
<svg version="1.0" xmlns="http://www.w3.org/2000/svg"
 width="16.000000pt" height="16.000000pt" viewBox="0 0 16.000000 16.000000"
 preserveAspectRatio="xMidYMid meet">
<metadata>
Created by potrace 1.11, written by Peter Selinger 2001-2013
</metadata>
<g transform="translate(0.000000,16.000000) scale(0.005614,-0.005614)"
fill="#000000" stroke="none">
<path d="M1787 2434 c-1 -1 -36 -4 -77 -8 -41 -3 -102 -10 -135 -16 -156 -26
-385 -100 -385 -124 -1 -6 -9 -29 -20 -51 -11 -22 -19 -43 -20 -47 0 -4 -31
-87 -70 -184 -38 -98 -70 -182 -70 -187 0 -5 18 5 39 22 70 56 127 75 216 76
172 0 233 -90 185 -276 -20 -77 -91 -262 -102 -267 -5 -2 -8 -12 -8 -22 0 -10
-4 -21 -8 -24 -5 -3 -23 -50 -42 -106 l-34 -101 19 -35 c18 -34 27 -37 98 -36
40 1 88 32 118 78 15 21 72 156 127 299 56 143 106 274 113 290 7 17 13 32 14
35 1 3 7 19 13 35 7 17 27 68 44 114 17 45 37 85 43 87 6 3 74 3 152 2 l140
-3 -28 -70 c-33 -82 -35 -93 -11 -73 82 73 257 102 347 58 70 -34 100 -92 99
-195 0 -271 -159 -616 -348 -754 -69 -51 -129 -78 -206 -94 -114 -24 -219 -6
-253 43 -14 20 -16 18 -42 -52 -15 -40 -33 -86 -40 -103 -39 -93 -85 -218 -82
-222 10 -9 298 121 305 139 2 4 8 8 13 8 14 0 112 63 204 133 109 82 278 254
353 359 142 202 215 406 214 599 0 106 -21 191 -68 286 -90 179 -289 319 -513
360 -14 2 -27 6 -31 8 -10 6 -257 24 -263 19z"/>
<path d="M725 2023 c-203 -165 -353 -349 -444 -545 -68 -146 -85 -223 -85
-383 -1 -121 2 -149 23 -205 74 -209 235 -356 464 -424 45 -13 100 -27 122
-31 22 -3 56 -8 75 -11 85 -12 335 -2 352 14 4 4 50 120 103 257 54 138 100
255 103 260 4 6 -12 -4 -33 -21 -162 -127 -385 -114 -433 25 -14 40 -8 137 13
196 9 28 45 122 81 210 79 198 92 243 90 296 -3 53 -26 72 -79 66 -50 -7 -95
-43 -135 -110 -19 -31 -94 -212 -169 -404 -74 -191 -136 -349 -137 -351 -8 -7
-296 -6 -296 1 0 5 102 271 226 590 125 320 230 592 235 605 5 12 5 22 1 22
-4 0 -38 -26 -77 -57z"/>
<path d="M2085 1761 c-40 -24 -55 -48 -92 -146 -17 -44 -34 -89 -38 -100 -109
-269 -171 -442 -164 -457 18 -35 82 -39 153 -9 113 49 232 252 303 521 12 42
10 127 -3 152 -28 55 -104 73 -159 39z"/>
</g>
</svg>
