<?xml version="1.0" standalone="no"?>
<!DOCTYPE svg PUBLIC "-//W3C//DTD SVG 20010904//EN"
 "http://www.w3.org/TR/2001/REC-SVG-20010904/DTD/svg10.dtd">
<svg version="1.0" xmlns="http://www.w3.org/2000/svg"
 width="600.000000pt" height="600.000000pt" viewBox="0 0 600.000000 600.000000"
 preserveAspectRatio="xMidYMid meet">
<metadata>
Created by potrace 1.11, written by Peter Selinger 2001-2013
</metadata>
<g transform="translate(0.000000,600.000000) scale(0.100000,-0.100000)"
fill="#000000" stroke="none">
<path d="M979 4218 c-1 -2 -2 -381 -3 -844 -1 -805 -1 -840 16 -818 10 12 18
24 18 27 0 3 39 68 86 144 48 76 94 150 103 165 9 15 50 82 92 150 42 68 101
164 131 213 l55 90 0 438 0 437 -248 0 c-137 0 -250 -1 -250 -2z"/>
<path d="M1882 4000 c-14 -22 -451 -781 -476 -825 -9 -16 -21 -37 -26 -45 -5
-8 -56 -96 -113 -195 -57 -99 -220 -381 -361 -627 -142 -246 -257 -451 -257
-455 1 -4 74 -9 163 -10 90 -1 232 -2 317 -3 84 -1 157 2 161 7 5 4 97 161
204 348 149 258 201 341 218 345 17 5 126 179 456 729 239 397 432 724 430
727 -3 2 -97 6 -209 9 -112 3 -269 7 -349 10 -135 3 -147 2 -158 -15z"/>
<path d="M2590 3893 c-40 -65 -81 -131 -90 -148 -10 -16 -173 -286 -364 -599
-191 -313 -351 -577 -356 -587 -9 -16 12 -17 338 -17 l347 0 184 301 c102 166
222 364 269 440 46 76 88 135 92 130 4 -4 49 -89 100 -188 l93 -181 316 1
c174 0 317 4 319 8 3 7 -73 162 -123 252 -22 38 -56 103 -213 405 -139 267
-149 284 -174 290 -13 3 -167 7 -344 9 l-321 3 -73 -119z"/>
<path d="M3907 2977 c-114 -37 -175 -161 -142 -290 13 -51 51 -99 100 -125 32
-17 158 -23 208 -9 27 7 27 9 27 87 0 71 2 81 21 91 13 6 17 14 11 18 -8 5
-104 6 -169 2 -20 -1 -15 -21 5 -21 34 0 44 -17 47 -78 3 -73 -4 -85 -45 -84
-134 4 -164 324 -36 384 54 26 104 7 132 -52 11 -21 22 -36 27 -33 9 5 7 88
-3 104 -10 16 -139 20 -183 6z"/>
<path d="M2790 2969 c0 -6 9 -13 20 -16 18 -5 30 -29 58 -123 13 -44 33 -118
38 -145 2 -11 12 -47 22 -80 29 -96 43 -86 86 62 21 70 40 135 43 143 7 19 4
25 58 -140 47 -141 66 -161 86 -88 6 24 12 48 13 53 1 6 5 16 9 23 5 6 6 12 2
12 -3 0 1 16 9 35 9 20 15 36 14 38 -1 1 4 18 10 37 6 19 18 61 27 93 12 44
23 62 45 76 17 10 27 21 23 24 -10 11 -143 8 -143 -3 0 -5 11 -12 25 -16 30
-7 31 -25 10 -104 -8 -30 -17 -67 -20 -82 -3 -15 -10 -40 -16 -55 -10 -27 -12
-24 -40 62 -16 50 -32 98 -34 108 -10 43 -30 87 -42 91 -17 7 -21 -5 -64 -161
-18 -67 -35 -121 -37 -119 -5 5 -62 227 -62 241 0 7 9 15 20 18 11 3 20 10 20
16 0 7 -32 11 -90 11 -58 0 -90 -4 -90 -11z"/>
<path d="M3386 2965 c4 -8 10 -13 14 -10 24 15 30 -30 28 -196 -3 -170 -4
-174 -25 -184 -43 -18 -23 -25 72 -25 90 0 123 11 71 24 -27 7 -36 30 -36 103
l0 53 43 -6 c63 -8 126 27 145 82 28 78 -8 153 -79 168 -18 3 -78 6 -135 6
-88 0 -102 -2 -98 -15z m206 -33 c55 -55 19 -188 -49 -180 l-28 3 -1 90 c-1
50 3 95 8 102 12 15 47 8 70 -15z"/>
<path d="M3058 2378 c-4 -43 8 -50 22 -13 7 18 17 25 38 25 l28 0 -2 -112 c-2
-137 -1 -128 -19 -128 -8 0 -15 -4 -15 -10 0 -6 29 -10 68 -9 64 0 66 1 45 16
-22 14 -23 23 -23 129 0 106 1 114 19 114 33 0 51 -11 51 -31 0 -10 5 -19 10
-19 6 0 10 17 10 38 l0 37 -114 0 -114 0 -4 -37z"/>
<path d="M1720 2400 c0 -5 6 -10 13 -10 11 0 42 -75 51 -125 11 -53 41 -135
50 -135 6 0 24 41 40 91 15 50 30 89 32 87 2 -2 17 -41 33 -87 16 -46 32 -85
35 -88 11 -11 26 10 32 45 4 20 13 52 21 70 7 17 10 32 7 32 -4 0 -2 6 4 13 5
6 13 27 17 45 4 18 15 38 26 45 31 19 22 27 -28 27 -43 -1 -46 -2 -30 -14 17
-13 18 -36 3 -76 -3 -8 -8 -28 -10 -44 -10 -56 -23 -50 -47 21 -13 37 -24 74
-25 82 -3 17 -22 36 -29 29 -3 -3 -18 -48 -32 -99 l-27 -94 -23 75 c-27 88
-28 100 -8 100 8 0 15 5 15 10 0 6 -27 10 -60 10 -33 0 -60 -4 -60 -10z"/>
<path d="M2123 2392 c14 -15 17 -40 17 -130 0 -110 -2 -118 -32 -113 -5 0 -8
-3 -8 -9 0 -6 41 -10 104 -10 99 0 104 1 110 23 13 50 -2 66 -22 22 -10 -21
-19 -25 -52 -25 -22 0 -41 3 -41 8 -1 4 -2 26 -3 50 -2 38 1 43 23 49 17 4 28
1 37 -12 19 -26 26 -14 21 36 -3 36 -5 40 -11 22 -6 -17 -16 -23 -40 -23 l-31
0 0 55 c0 57 2 60 50 55 11 -1 21 -5 23 -10 1 -4 9 -16 17 -26 13 -18 14 -16
15 19 l0 37 -97 0 c-92 0 -95 -1 -80 -18z"/>
<path d="M2369 2381 c-48 -49 -41 -68 60 -150 28 -23 33 -32 27 -54 -5 -22
-12 -27 -37 -27 -24 0 -34 7 -52 38 l-22 37 -3 -35 c-4 -41 16 -60 66 -60 111
0 138 118 38 165 -47 22 -60 40 -52 70 5 18 13 25 30 25 25 0 56 -23 56 -41 0
-5 4 -9 9 -9 13 0 3 53 -12 62 -28 18 -79 8 -108 -21z"/>
<path d="M2610 2401 c0 -5 7 -11 15 -15 12 -4 15 -27 15 -121 0 -96 -3 -115
-15 -115 -8 0 -15 -4 -15 -10 0 -6 27 -10 60 -10 57 0 80 12 42 22 -14 4 -19
16 -20 50 l-3 44 35 -4 c29 -3 41 1 66 26 38 39 40 83 5 117 -22 22 -32 25
-105 25 -44 0 -80 -4 -80 -9z m140 -30 c24 -46 5 -111 -33 -111 -21 0 -23 5
-25 65 -2 63 -1 65 23 65 14 0 29 -8 35 -19z"/>
<path d="M2840 2400 c0 -5 7 -10 15 -10 12 0 15 -20 15 -118 0 -113 -1 -119
-22 -130 -18 -8 0 -11 85 -11 79 -1 107 2 107 12 0 6 3 22 6 35 8 30 -10 28
-24 -3 -10 -21 -19 -25 -52 -25 -22 0 -41 3 -41 8 -8 46 -3 92 9 97 18 7 52
-3 52 -16 0 -5 5 -9 10 -9 6 0 10 18 10 40 0 40 -13 53 -24 24 -4 -10 -15 -14
-33 -12 -27 3 -28 6 -28 56 l-1 52 38 0 c21 0 38 -4 38 -8 0 -5 7 -17 15 -28
13 -18 14 -17 15 19 l0 37 -95 0 c-57 0 -95 -4 -95 -10z"/>
<path d="M3310 2400 c0 -5 7 -10 15 -10 13 0 15 -20 15 -120 0 -118 -2 -126
-32 -121 -5 0 -8 -3 -8 -9 0 -6 41 -10 104 -10 99 0 104 1 110 23 12 45 7 53
-18 25 -17 -21 -32 -28 -60 -28 -20 0 -37 3 -37 8 -1 4 -2 28 -3 53 -2 44 -1
46 27 47 16 0 31 -6 34 -14 10 -27 23 -14 23 26 0 40 -13 53 -24 25 -3 -8 -18
-15 -33 -15 -28 0 -28 1 -28 55 l0 55 37 0 c21 0 38 -4 38 -8 0 -5 7 -17 15
-28 13 -18 14 -17 15 19 l0 37 -95 0 c-57 0 -95 -4 -95 -10z"/>
<path d="M3543 2392 c23 -26 26 -242 3 -242 -8 0 -18 -4 -21 -10 -4 -6 19 -10
62 -10 66 0 67 1 47 18 -13 10 -21 31 -23 55 -4 55 19 49 58 -16 23 -38 54
-57 93 -57 18 0 17 3 -11 35 -17 19 -37 48 -46 65 -14 27 -14 30 5 43 31 22
36 76 11 108 -19 24 -26 26 -108 28 -85 2 -87 2 -70 -17z m127 -21 c25 -48 2
-111 -41 -111 -17 0 -19 7 -19 65 0 62 1 65 25 65 14 0 29 -8 35 -19z"/>
<path d="M3828 2393 c-54 -34 -42 -108 24 -140 41 -20 61 -49 54 -78 -5 -20
-13 -25 -37 -25 -24 0 -34 7 -52 38 l-22 37 -3 -34 c-4 -43 6 -52 62 -58 40
-5 48 -2 76 25 40 40 39 75 -1 113 -17 16 -37 29 -44 29 -23 0 -48 38 -41 65
9 34 48 34 74 0 11 -14 23 -25 27 -25 11 0 -5 54 -18 62 -20 13 -71 8 -99 -9z"/>
<path d="M4146 2396 c-21 -8 -43 -21 -48 -28 -48 -72 -53 -132 -13 -183 31
-42 88 -59 160 -50 l51 6 -1 41 c-1 22 5 46 11 53 19 18 12 20 -48 16 -39 -3
-47 -6 -28 -10 19 -5 26 -14 28 -40 4 -43 -11 -60 -53 -55 -48 4 -82 30 -95
70 -21 63 4 151 48 169 54 23 122 0 122 -40 0 -8 4 -15 9 -15 8 0 5 59 -4 68
-12 12 -104 11 -139 -2z"/>
<path d="M4330 2401 c0 -6 6 -10 13 -8 9 1 13 -26 15 -103 3 -120 -1 -147 -26
-153 -9 -3 10 -5 43 -5 50 -1 56 1 38 10 -19 9 -23 19 -23 60 0 41 3 48 20 48
13 0 31 -18 52 -49 32 -49 62 -71 95 -71 12 0 10 6 -10 24 -13 13 -37 42 -51
64 l-26 41 25 25 c28 29 32 71 9 101 -12 16 -29 21 -94 24 -54 2 -80 0 -80 -8z
m121 -11 c6 0 16 -15 24 -32 21 -52 -11 -97 -70 -98 -15 0 -16 123 -1 132 6 4
17 6 24 3 8 -3 18 -5 23 -5z"/>
<path d="M4642 2393 c-65 -32 -92 -113 -61 -182 22 -49 59 -74 113 -77 80 -4
136 52 136 136 0 57 -16 88 -59 117 -40 27 -83 29 -129 6z m96 -12 c50 -27 69
-139 33 -197 -53 -88 -161 -23 -161 96 0 93 59 139 128 101z"/>
<path d="M4883 2396 c14 -11 17 -29 17 -97 0 -107 19 -150 72 -163 51 -13 96
8 114 50 8 19 14 69 14 117 0 77 2 85 23 95 19 9 14 11 -33 10 -30 0 -47 -2
-38 -5 23 -6 28 -27 29 -109 1 -82 -12 -121 -45 -133 -65 -25 -97 15 -100 125
-3 93 1 111 23 117 9 3 -9 5 -39 6 -48 0 -53 -1 -37 -13z"/>
<path d="M5150 2400 c0 -5 6 -9 13 -7 9 1 13 -29 15 -120 2 -105 0 -123 -13
-123 -8 0 -15 -4 -15 -10 0 -5 24 -10 52 -10 48 0 51 1 32 14 -15 11 -20 25
-19 56 1 42 1 42 40 45 75 4 112 89 60 140 -21 22 -33 25 -95 25 -40 0 -70 -4
-70 -10z m134 -19 c18 -15 18 -71 1 -98 -12 -18 -24 -23 -43 -21 -26 3 -27 6
-28 58 -1 30 3 60 8 67 10 13 43 10 62 -6z"/>
<path d="M1728 2013 c8 -3 12 -28 12 -73 0 -45 -4 -70 -12 -73 -7 -3 5 -6 27
-6 25 0 35 2 27 8 -8 5 -12 21 -10 42 l4 34 12 -25 c19 -42 38 -60 62 -60 l23
0 -19 23 c-11 12 -28 35 -38 50 -18 30 -16 36 34 70 l24 17 -31 0 c-23 0 -31
-4 -27 -13 2 -7 -7 -24 -21 -37 l-25 -23 0 30 c0 17 6 34 13 36 6 3 -6 5 -28
5 -22 0 -34 -2 -27 -5z"/>
<path d="M1888 2013 c8 -3 12 -28 12 -73 0 -45 -4 -70 -12 -73 -7 -3 40 -5
105 -6 114 0 117 0 117 22 -1 20 -2 20 -11 5 -5 -10 -19 -18 -29 -18 -18 0
-20 7 -20 69 0 46 4 71 13 74 6 3 -6 5 -28 5 -22 0 -34 -2 -27 -5 15 -6 17
-143 2 -143 -5 0 -10 8 -10 18 -1 16 -1 16 -11 0 -5 -10 -21 -18 -34 -18 -21
0 -25 5 -25 30 0 23 5 30 19 30 11 0 22 -6 24 -12 3 -7 6 0 6 15 1 20 -3 26
-11 20 -28 -17 -38 -11 -38 23 0 27 4 34 20 34 10 0 24 -8 29 -17 9 -16 10
-16 11 5 0 20 -4 22 -57 21 -32 0 -52 -3 -45 -6z"/>
<path d="M2128 2013 c8 -3 12 -28 12 -73 0 -45 -4 -70 -12 -73 -7 -3 12 -6 43
-6 41 -1 58 3 62 14 4 8 2 17 -2 20 -5 3 -11 -2 -15 -10 -3 -8 -15 -15 -26
-15 -18 0 -20 6 -20 69 0 46 4 71 13 74 6 3 -6 5 -28 5 -22 0 -34 -2 -27 -5z"/>
<path d="M2248 2013 c8 -3 12 -28 12 -73 0 -45 -4 -70 -12 -73 -7 -3 15 -6 50
-6 58 -1 62 0 62 22 -1 20 -2 20 -11 5 -5 -10 -21 -18 -34 -18 -21 0 -25 5
-25 30 0 23 5 30 19 30 11 0 22 -6 24 -12 3 -7 6 0 6 16 1 24 -1 26 -14 16
-20 -17 -35 -4 -35 31 0 22 5 29 20 29 10 0 24 -8 29 -17 9 -16 10 -16 11 5 0
20 -4 22 -57 21 -32 0 -52 -3 -45 -6z"/>
<path d="M2378 2013 c8 -3 12 -28 12 -73 0 -45 -4 -70 -12 -73 -7 -3 5 -5 27
-5 22 0 34 2 28 5 -7 2 -13 19 -13 36 l1 32 19 -25 c37 -47 41 -50 56 -50 11
0 9 9 -10 37 -23 33 -24 39 -11 53 36 40 6 71 -67 69 -24 0 -37 -3 -30 -6z
m72 -18 c14 -17 4 -55 -16 -55 -9 0 -14 11 -14 35 0 37 10 44 30 20z"/>
<path d="M2556 2012 c10 -6 23 -34 24 -52 2 -26 29 -95 39 -98 6 -2 11 0 9 5
-3 15 25 94 32 86 4 -4 13 -27 20 -50 7 -24 17 -43 22 -43 7 0 9 6 12 43 1 6
3 14 6 17 4 3 12 24 18 48 10 31 18 42 32 42 18 0 20 -7 20 -69 0 -46 -4 -71
-12 -74 -7 -3 5 -5 27 -5 22 0 34 2 28 5 -9 3 -13 28 -13 73 0 45 4 70 13 73
6 3 -16 6 -51 6 -42 1 -61 -3 -57 -10 9 -14 -3 -79 -15 -79 -5 0 -14 18 -20
40 -15 55 -27 58 -41 8 -17 -64 -21 -66 -35 -18 -10 35 -10 46 -1 52 7 4 -6 8
-28 8 -22 0 -35 -4 -29 -8z"/>
<path d="M2858 2013 c8 -3 12 -28 12 -73 0 -45 -4 -70 -12 -73 -7 -3 12 -6 43
-6 49 -1 57 2 62 20 5 19 4 20 -12 5 -10 -9 -25 -16 -34 -16 -14 0 -17 11 -17
69 0 46 4 71 13 74 6 3 -6 5 -28 5 -22 0 -34 -2 -27 -5z"/>
<path d="M2978 2013 c8 -3 12 -28 12 -73 0 -45 -4 -70 -12 -73 -7 -3 12 -6 43
-6 44 -1 58 3 63 15 9 23 1 28 -14 9 -7 -8 -21 -15 -31 -15 -17 0 -19 8 -19
69 0 46 4 71 13 74 6 3 -6 5 -28 5 -22 0 -34 -2 -27 -5z"/>
<path d="M3098 2013 c8 -3 12 -28 12 -73 0 -45 -4 -70 -12 -73 -7 -3 5 -5 27
-5 22 0 34 2 28 5 -9 3 -13 28 -13 73 0 45 4 70 13 73 6 3 -6 5 -28 5 -22 0
-34 -2 -27 -5z"/>
<path d="M3216 1949 c-15 -40 -33 -77 -39 -81 -7 -4 1 -7 18 -7 17 0 25 3 19
5 -21 9 -3 44 21 44 23 0 40 -24 29 -41 -3 -5 8 -9 24 -9 l29 0 -23 48 c-13
26 -24 54 -24 63 0 8 -6 23 -13 33 -12 17 -16 11 -41 -55z m34 -15 c0 -6 -7
-11 -15 -11 -10 0 -14 6 -10 14 3 8 5 20 5 26 0 15 20 -14 20 -29z"/>
<path d="M3338 2013 c15 -6 16 -90 2 -127 -9 -24 -7 -26 18 -26 20 1 23 3 12
9 -11 7 -14 23 -11 62 l3 54 26 -64 c21 -53 27 -61 34 -45 4 10 16 39 27 64
l20 45 0 -57 c1 -36 -3 -58 -11 -61 -7 -3 5 -5 27 -5 22 0 34 2 28 5 -9 3 -13
28 -13 73 0 45 4 70 13 73 6 3 -1 6 -16 6 -28 1 -30 -1 -62 -84 -6 -17 -11
-12 -32 33 -21 44 -28 52 -51 51 -15 0 -21 -3 -14 -6z"/>
<path d="M3546 2005 c-25 -19 -14 -60 21 -77 33 -15 42 -45 17 -55 -11 -4 -23
1 -36 16 -17 22 -18 22 -18 3 0 -38 62 -44 85 -8 19 29 11 52 -26 72 -16 8
-29 21 -29 30 0 23 29 29 46 8 14 -18 15 -18 12 1 -4 25 -45 31 -72 10z"/>
<path d="M3688 2013 c8 -3 12 -28 12 -73 0 -45 -4 -70 -12 -73 -7 -3 2 -6 21
-6 25 -1 31 2 24 12 -12 15 -15 57 -4 57 5 0 21 -16 35 -35 26 -34 29 -35 97
-35 65 0 69 1 69 23 -1 20 -2 20 -11 5 -5 -10 -21 -18 -34 -18 -22 0 -25 5
-25 35 0 36 15 46 38 23 9 -9 12 -5 11 18 0 16 -3 23 -6 17 -2 -7 -13 -13 -24
-13 -14 0 -19 7 -19 30 0 23 4 30 20 30 10 0 24 -8 29 -17 9 -16 10 -16 11 5
0 20 -5 22 -52 22 -29 0 -48 -4 -43 -8 15 -10 13 -134 -1 -139 -18 -6 -58 55
-46 70 35 46 12 77 -56 76 -26 0 -41 -3 -34 -6z m78 -29 c7 -29 -7 -49 -30
-41 -22 9 -18 67 5 67 12 0 21 -10 25 -26z"/>
<path d="M4006 2004 c-3 -9 -2 -22 2 -28 21 -27 22 -46 2 -46 -14 0 -18 5 -13
17 4 10 2 14 -5 10 -6 -4 -13 -21 -17 -37 -4 -17 -13 -37 -22 -45 -13 -13 -12
-15 9 -15 19 0 24 5 23 28 0 22 4 27 25 27 21 0 25 -5 25 -27 -1 -25 3 -28 30
-27 16 0 25 3 18 5 -6 3 -22 35 -34 72 -25 76 -34 90 -43 66z"/>
<path d="M4108 2008 c11 -15 10 -117 -2 -136 -6 -10 4 -12 45 -10 45 2 54 6
57 23 2 18 2 18 -8 3 -6 -10 -22 -18 -35 -18 -24 0 -25 2 -25 69 0 46 4 71 13
74 6 3 -3 6 -22 6 -25 1 -31 -2 -23 -11z"/>
<path d="M4210 1998 c1 -21 2 -21 11 -5 5 9 18 17 29 17 17 0 19 -7 17 -65 -1
-46 -7 -69 -17 -75 -11 -7 -4 -10 25 -9 22 0 34 3 28 6 -20 7 -18 143 2 143 7
0 19 -8 24 -17 10 -17 10 -17 11 0 0 28 14 19 38 -25 24 -47 29 -94 10 -101
-7 -3 4 -6 25 -6 35 -1 37 0 23 15 -9 8 -16 23 -16 32 0 21 36 82 58 100 13
10 11 12 -19 12 -20 0 -29 -3 -22 -8 10 -7 10 -14 0 -35 -6 -15 -15 -27 -18
-27 -11 0 -31 48 -25 59 5 8 -22 11 -88 11 -93 0 -96 -1 -96 -22z"/>
<path d="M4559 1991 c-33 -33 -37 -66 -11 -99 33 -43 122 -39 122 5 0 11 -6 8
-19 -8 -40 -50 -108 13 -85 78 5 17 21 32 38 38 24 8 31 6 47 -14 21 -25 25
-21 9 10 -16 30 -66 25 -101 -10z"/>
<path d="M4688 2013 c8 -3 12 -28 12 -73 0 -45 -4 -70 -12 -73 -7 -3 15 -6 50
-6 52 -1 62 2 62 16 0 13 -3 14 -12 5 -13 -13 -58 -17 -59 -4 0 4 -2 17 -5 30
-5 27 19 40 41 22 13 -11 15 -8 14 16 0 16 -3 23 -6 17 -2 -7 -15 -13 -27 -13
-19 0 -23 6 -24 30 -1 25 3 30 23 30 13 0 29 -8 34 -17 9 -16 10 -16 11 5 0
20 -4 22 -57 21 -32 0 -52 -3 -45 -6z"/>
<path d="M4813 2009 c20 -12 24 -97 7 -130 -9 -17 -7 -19 17 -19 21 0 24 3 15
12 -7 7 -12 34 -12 62 l0 50 46 -63 c26 -34 48 -60 49 -59 2 2 5 35 6 73 1 39
7 73 13 77 6 4 -2 8 -18 8 -23 0 -27 -3 -18 -12 7 -7 12 -32 12 -56 0 -49 -1
-48 -58 26 -22 27 -42 42 -55 42 -20 -1 -20 -2 -4 -11z"/>
<path d="M4970 1998 c1 -20 2 -21 11 -5 5 9 17 17 24 17 20 0 22 -136 3 -143
-7 -3 5 -6 27 -6 28 -1 36 2 25 9 -21 13 -24 140 -3 140 9 0 22 -8 29 -17 12
-17 13 -17 10 2 -2 17 -12 20 -64 23 -59 3 -62 2 -62 -20z"/>
<path d="M5117 2008 c12 -19 12 -121 0 -135 -7 -10 -1 -13 24 -12 19 0 28 3
22 6 -15 6 -18 63 -3 63 5 0 16 -13 24 -29 19 -36 33 -41 112 -41 59 0 64 2
64 22 0 20 -1 21 -13 4 -21 -28 -61 -18 -64 17 -2 32 19 46 42 27 13 -11 15
-8 15 16 0 20 -3 25 -9 16 -14 -23 -45 -10 -48 21 -1 22 2 27 22 27 13 0 29
-8 34 -17 9 -16 10 -16 11 5 0 20 -4 22 -57 21 -32 0 -52 -3 -45 -6 8 -3 12
-28 12 -75 0 -59 -2 -69 -17 -66 -9 2 -24 17 -34 35 -15 27 -16 33 -3 44 20
16 17 46 -5 59 -29 15 -94 13 -84 -2z m72 -15 c11 -21 -3 -53 -24 -53 -10 0
-15 11 -15 35 0 38 22 48 39 18z"/>
</g>
</svg>
