<?xml version="1.0" standalone="no"?>
<!DOCTYPE svg PUBLIC "-//W3C//DTD SVG 20010904//EN"
 "http://www.w3.org/TR/2001/REC-SVG-20010904/DTD/svg10.dtd">
<svg version="1.0" xmlns="http://www.w3.org/2000/svg"
 width="300.000000pt" height="300.000000pt" viewBox="0 0 300.000000 300.000000"
 preserveAspectRatio="xMidYMid meet">
<metadata>
Created by potrace 1.11, written by Peter Selinger 2001-2013
</metadata>
<g transform="translate(0.000000,300.000000) scale(0.100000,-0.100000)"
fill="#000000" stroke="none">
<path d="M499 2405 c-4 0 -2 -758 2 -761 4 -2 23 36 44 84 20 48 44 103 53
122 9 19 17 37 17 40 5 26 42 110 48 110 4 0 5 5 2 10 -3 6 -1 10 5 10 6 0 8
5 5 10 -14 22 21 35 95 35 68 1 100 -9 100 -30 0 -4 11 -30 25 -57 14 -28 23
-53 21 -55 -3 -3 4 -15 15 -26 11 -12 17 -27 15 -33 -3 -7 2 -18 9 -24 8 -7
12 -16 9 -21 -3 -5 0 -9 6 -9 7 0 9 -7 6 -15 -3 -9 1 -18 10 -22 8 -3 13 -12
10 -19 -3 -8 -1 -14 4 -14 6 0 9 -3 8 -7 -1 -9 18 -54 68 -161 19 -40 34 -75
34 -77 0 -3 17 -40 37 -82 20 -43 37 -83 38 -90 0 -7 6 -18 13 -25 6 -6 12
-15 12 -20 0 -4 11 -32 25 -62 25 -56 47 -107 50 -116 0 -3 13 -33 29 -67 16
-34 27 -65 26 -69 -1 -4 2 -10 7 -13 5 -3 31 -56 58 -118 26 -62 51 -111 54
-109 3 2 6 381 6 842 l-1 839 -482 0 c-265 0 -482 0 -483 0z"/>
<path d="M1527 2403 c-8 -15 -2 -1832 6 -1840 13 -12 957 -10 967 2 4 5 7 422
6 925 l-1 915 -91 3 -92 3 -1 -513 c-1 -508 -4 -701 -16 -788 -31 -237 -215
-393 -454 -384 -70 2 -80 8 -86 50 -5 36 -13 79 -22 119 -11 51 -11 55 -2 61
5 3 44 7 87 8 92 4 136 21 179 69 57 65 57 58 60 745 l4 632 -270 0 c-148 0
-272 -3 -274 -7z"/>
<path d="M765 1676 c-5 -6 -11 -18 -13 -26 -2 -8 -7 -16 -12 -18 -5 -2 -6 -10
-3 -18 3 -8 0 -14 -7 -14 -6 0 -9 -4 -6 -9 3 -5 -1 -14 -9 -21 -8 -7 -12 -16
-9 -21 3 -5 -1 -19 -8 -31 -7 -13 -13 -25 -14 -28 -2 -8 -16 -42 -39 -95 -12
-27 -26 -61 -30 -75 -4 -14 -11 -29 -15 -35 -8 -11 -30 -75 -30 -89 0 -7 253
-11 403 -7 l29 1 -21 33 c-11 19 -18 37 -14 40 3 4 1 7 -5 7 -7 0 -12 4 -12 9
0 5 -8 26 -17 47 -9 22 -16 42 -15 47 1 4 -3 7 -9 7 -5 0 -8 4 -5 9 3 5 -1 14
-9 21 -8 7 -12 16 -9 21 3 5 0 9 -6 9 -6 0 -9 4 -6 8 3 5 -1 19 -7 33 -7 13
-30 65 -51 114 -21 50 -39 91 -40 91 0 1 -5 -3 -11 -10z"/>
<path d="M499 968 c-7 -74 -2 -384 6 -394 13 -17 1 -16 413 -15 l363 1 -16 30
c-8 16 -15 34 -15 40 0 6 -7 18 -15 27 -8 8 -13 19 -10 24 4 5 1 9 -4 9 -6 0
-11 8 -11 18 0 10 -5 23 -12 30 -7 7 -8 12 -2 12 5 0 3 4 -4 9 -7 4 -14 18
-15 29 -1 12 -4 22 -8 22 -3 0 -18 32 -33 70 -16 39 -35 77 -43 85 -12 13 -62
15 -304 15 -224 0 -289 -3 -290 -12z"/>
</g>
</svg>
