<?xml version="1.0" standalone="no"?>
<!DOCTYPE svg PUBLIC "-//W3C//DTD SVG 20010904//EN"
 "http://www.w3.org/TR/2001/REC-SVG-20010904/DTD/svg10.dtd">
<svg version="1.0" xmlns="http://www.w3.org/2000/svg"
 width="300.000000pt" height="300.000000pt" viewBox="0 0 300.000000 300.000000"
 preserveAspectRatio="xMidYMid meet">
<metadata>
Created by potrace 1.11, written by Peter Selinger 2001-2013
</metadata>
<g transform="translate(0.000000,300.000000) scale(0.100000,-0.100000)"
fill="#000000" stroke="none">
<path d="M1464 2177 c-11 -12 -705 -696 -1054 -1039 -104 -103 -190 -189 -190
-192 0 -2 124 -4 276 -3 l276 1 68 65 c38 36 175 170 306 296 130 127 247 241
258 253 12 13 33 33 48 44 l28 19 107 -103 c58 -57 130 -127 158 -155 28 -29
54 -53 57 -53 3 0 6 28 5 63 l-1 62 112 3 112 3 0 -177 0 -177 74 -72 75 -72
275 0 c152 0 276 2 276 4 0 5 -1240 1238 -1248 1240 -4 1 -12 -3 -18 -10z"/>
<path d="M1445 1488 c-11 -12 -141 -140 -289 -284 l-269 -261 581 0 c461 0
582 3 582 13 0 7 -4 14 -9 16 -8 2 -383 364 -526 506 -39 38 -44 39 -70 10z
m150 -378 l109 -110 -228 1 -229 0 109 110 c60 60 113 109 119 109 6 0 60 -49
120 -110z"/>
</g>
</svg>
