<?xml version="1.0" standalone="no"?>
<!DOCTYPE svg PUBLIC "-//W3C//DTD SVG 20010904//EN"
 "http://www.w3.org/TR/2001/REC-SVG-20010904/DTD/svg10.dtd">
<svg version="1.0" xmlns="http://www.w3.org/2000/svg"
 width="300.000000pt" height="300.000000pt" viewBox="0 0 300.000000 300.000000"
 preserveAspectRatio="xMidYMid meet">
<metadata>
Created by potrace 1.11, written by Peter Selinger 2001-2013
</metadata>
<g transform="translate(0.000000,300.000000) scale(0.100000,-0.100000)"
fill="#000000" stroke="none">
<path d="M1324 2554 c-232 -40 -426 -142 -595 -313 -155 -157 -249 -338 -294
-571 -14 -74 -14 -289 0 -370 65 -367 328 -685 680 -821 167 -64 391 -85 568
-54 464 81 823 454 888 920 12 92 5 282 -15 371 -52 241 -199 475 -390 623
-73 55 -73 55 -172 107 -103 54 -195 87 -279 100 -16 2 -41 7 -55 11 -45 12
-264 10 -336 -3z m386 -77 c609 -136 954 -775 731 -1353 -67 -175 -187 -332
-339 -446 -88 -66 -248 -145 -329 -164 -147 -33 -291 -43 -403 -29 -367 49
-684 301 -815 650 -29 75 -29 75 -50 180 -14 69 -15 291 -2 345 4 14 9 39 13
55 50 244 234 499 458 634 128 77 245 118 416 144 52 8 258 -3 320 -16z"/>
<path d="M1310 2420 c-354 -77 -621 -325 -726 -675 -22 -75 -27 -113 -30 -230
-2 -77 1 -158 6 -180 5 -22 11 -51 13 -65 17 -89 84 -239 149 -330 40 -57 135
-160 147 -160 3 0 6 203 6 452 l0 451 320 193 c176 106 325 193 330 194 7 0
10 -258 10 -765 l0 -765 40 0 c22 0 45 4 50 8 6 4 10 223 10 621 0 535 2 615
15 622 47 26 180 84 181 79 1 -3 2 -288 3 -635 2 -618 2 -630 21 -627 41 8 75
33 75 55 1 12 1 221 1 464 l0 443 84 39 c47 22 93 42 102 45 17 6 18 -17 18
-429 0 -239 3 -435 6 -435 10 0 81 77 124 132 66 88 144 253 161 343 2 11 8
43 13 70 16 83 11 255 -9 349 -66 299 -250 532 -525 662 -129 61 -232 85 -385
89 -94 3 -146 -1 -210 -15z"/>
</g>
</svg>
