<?xml version="1.0" standalone="no"?>
<!DOCTYPE svg PUBLIC "-//W3C//DTD SVG 20010904//EN"
 "http://www.w3.org/TR/2001/REC-SVG-20010904/DTD/svg10.dtd">
<svg version="1.0" xmlns="http://www.w3.org/2000/svg"
 width="300.000000pt" height="300.000000pt" viewBox="0 0 300.000000 300.000000"
 preserveAspectRatio="xMidYMid meet">
<metadata>
Created by potrace 1.11, written by Peter Selinger 2001-2013
</metadata>
<g transform="translate(0.000000,300.000000) scale(0.100000,-0.100000)"
fill="#000000" stroke="none">
<path d="M988 2127 c-185 -183 -483 -477 -662 -654 l-326 -323 178 0 177 0 31
32 c55 59 1105 1093 1112 1095 4 2 263 -251 577 -562 l570 -565 177 0 177 0
-415 413 c-229 226 -526 521 -661 655 l-246 242 -176 0 -176 -1 -337 -332z"/>
<path d="M1193 1799 c-14 -5 -16 -24 -16 -135 l0 -129 135 -3 135 -3 1 136 1
135 -37 0 c-20 1 -74 2 -120 3 -46 1 -90 -1 -99 -4z"/>
<path d="M1585 1800 l-30 -5 0 -132 0 -133 135 0 135 0 0 135 0 135 -30 0
c-16 1 -64 2 -105 3 -41 1 -89 0 -105 -3z"/>
<path d="M1179 1395 c-1 -59 -1 -197 0 -216 1 -15 18 -17 135 -17 l134 -1 1
135 c1 122 0 134 -16 135 -10 0 -71 1 -136 2 l-117 2 -1 -40z"/>
<path d="M1567 1430 c-9 -4 -12 -39 -11 -130 1 -69 2 -128 3 -132 0 -4 61 -6
133 -5 l133 2 0 133 c1 112 -2 132 -15 133 -64 4 -233 3 -243 -1z"/>
</g>
</svg>
