<?xml version="1.0" standalone="no"?>
<!DOCTYPE svg PUBLIC "-//W3C//DTD SVG 20010904//EN"
 "http://www.w3.org/TR/2001/REC-SVG-20010904/DTD/svg10.dtd">
<svg version="1.0" xmlns="http://www.w3.org/2000/svg"
 width="300.000000pt" height="300.000000pt" viewBox="0 0 300.000000 300.000000"
 preserveAspectRatio="xMidYMid meet">
<metadata>
Created by potrace 1.11, written by Peter Selinger 2001-2013
</metadata>
<g transform="translate(0.000000,300.000000) scale(0.100000,-0.100000)"
fill="#000000" stroke="none">
<path d="M732 2083 l3 -918 113 -1 112 -1 0 336 0 337 168 -2 c92 0 169 -2
172 -3 3 0 5 -151 5 -333 l0 -333 298 -1 297 -1 -1 511 0 511 -265 186 -265
187 -86 -57 c-48 -31 -139 -90 -202 -132 l-116 -76 -3 354 -2 353 -115 0 -115
0 2 -917z m616 130 l3 -63 -71 0 -70 0 0 65 0 66 68 -3 67 -3 3 -62z m182 1
l0 -64 -70 0 -70 0 0 65 0 66 70 -2 70 -2 0 -63z m-182 -156 l-3 -63 -67 -1
-68 -1 0 63 0 64 70 0 71 0 -3 -62z m182 -1 l0 -63 -70 -1 -70 0 0 63 0 64 70
0 70 0 0 -63z"/>
<path d="M965 1032 c-2 -2 15 -41 37 -87 l41 -82 228 0 c126 0 226 3 224 7 -3
4 -34 43 -70 86 l-65 79 -196 0 c-107 0 -197 -1 -199 -3z"/>
<path d="M1110 742 c0 -4 17 -43 39 -87 l39 -80 273 1 c151 1 278 2 282 3 5 0
2 7 -5 15 -8 7 -34 37 -59 66 -24 29 -51 60 -59 70 -14 17 -38 18 -263 19
-136 0 -247 -3 -247 -7z"/>
<path d="M1250 455 c0 -3 18 -41 40 -85 32 -64 45 -80 63 -81 96 -2 639 0 642
3 2 1 -31 40 -73 86 l-77 82 -297 0 c-164 0 -298 -2 -298 -5z"/>
<path d="M1400 170 c-5 -3 10 -42 32 -88 l41 -82 389 0 388 0 -72 85 c-61 72
-76 85 -102 86 -221 3 -670 3 -676 -1z"/>
</g>
</svg>
