<?xml version="1.0" standalone="no"?>
<!DOCTYPE svg PUBLIC "-//W3C//DTD SVG 20010904//EN"
 "http://www.w3.org/TR/2001/REC-SVG-20010904/DTD/svg10.dtd">
<svg version="1.0" xmlns="http://www.w3.org/2000/svg"
 width="300.000000pt" height="300.000000pt" viewBox="0 0 300.000000 300.000000"
 preserveAspectRatio="xMidYMid meet">
<metadata>
Created by potrace 1.11, written by Peter Selinger 2001-2013
</metadata>
<g transform="translate(0.000000,300.000000) scale(0.100000,-0.100000)"
fill="#000000" stroke="none">
<path d="M2544 2363 c1 -351 -2 -645 -6 -654 -6 -14 -15 -15 -45 -9 -21 5 -39
13 -41 17 -22 56 -39 78 -61 78 -19 0 -27 -8 -36 -34 -6 -19 -23 -44 -38 -54
-22 -17 -33 -19 -69 -11 -36 8 -46 15 -60 46 -10 20 -28 44 -40 52 -21 15 -23
14 -43 -25 -20 -41 -33 -51 -112 -87 l-42 -20 -83 88 c-127 133 -121 123 -124
193 -12 276 -275 474 -546 411 -151 -35 -289 -166 -325 -309 -20 -78 -23 -153
-8 -213 5 -20 3 -22 -22 -15 -57 16 -185 8 -235 -14 -66 -30 -129 -92 -163
-160 -26 -51 -29 -69 -29 -148 -1 -74 3 -98 23 -137 34 -69 92 -130 152 -160
56 -28 173 -49 205 -38 11 4 31 10 45 13 26 7 26 6 19 -31 -10 -59 -2 -147 21
-215 73 -216 289 -338 516 -291 192 39 341 217 347 416 l2 60 102 108 103 108
57 -25 c63 -28 102 -64 102 -94 0 -11 7 -19 18 -19 26 0 38 11 58 55 16 34 25
41 62 49 36 8 47 6 70 -11 15 -11 31 -36 36 -57 8 -31 13 -37 34 -34 22 3 51
39 65 81 4 14 76 26 84 14 3 -5 6 -297 6 -649 l0 -638 28 0 29 0 0 1500 0
1500 -28 0 -29 0 1 -637z m-1141 -207 c84 -41 148 -138 149 -226 1 -52 -15
-117 -36 -145 -14 -19 -15 -19 -72 10 -53 27 -69 30 -154 30 -88 0 -99 -2
-151 -32 l-56 -32 -22 47 c-46 99 -30 212 42 284 70 71 112 89 202 85 33 -2
77 -11 98 -21z m405 -540 c120 -122 120 -120 -1 -244 l-94 -95 -27 29 c-43 44
-66 103 -58 144 8 39 8 75 -1 111 -3 14 1 37 11 55 19 36 64 94 73 94 3 0 47
-42 97 -94z m-980 55 c199 -102 110 -394 -111 -367 -124 14 -201 156 -148 271
47 101 164 145 259 96z m548 3 c51 -21 72 -40 97 -89 48 -94 10 -213 -83 -263
-125 -67 -282 28 -282 171 0 143 137 235 268 181z m-107 -512 c76 -5 152 13
202 49 22 15 29 16 38 6 38 -47 53 -154 32 -226 -34 -113 -150 -189 -271 -178
-94 8 -163 56 -207 141 -35 68 -37 161 -3 228 l22 45 58 -30 c43 -22 77 -31
129 -35z"/>
</g>
</svg>
