<?xml version="1.0" standalone="no"?>
<!DOCTYPE svg PUBLIC "-//W3C//DTD SVG 20010904//EN"
 "http://www.w3.org/TR/2001/REC-SVG-20010904/DTD/svg10.dtd">
<svg version="1.0" xmlns="http://www.w3.org/2000/svg"
 width="118.000000pt" height="118.000000pt" viewBox="0 0 118.000000 118.000000"
 preserveAspectRatio="xMidYMid meet">
<metadata>
Created by potrace 1.11, written by Peter Selinger 2001-2013
</metadata>
<g transform="translate(0.000000,118.000000) scale(0.100000,-0.100000)"
fill="#000000" stroke="none">
<path d="M0 590 l0 -590 315 0 315 0 0 590 0 590 -315 0 -315 0 0 -590z m502
254 l70 -16 -6 -37 c-3 -20 -6 -44 -6 -53 0 -10 -4 -18 -10 -18 -5 0 -10 15
-10 33 0 58 -57 87 -169 87 -117 -1 -195 -58 -227 -166 -38 -132 22 -276 136
-328 50 -22 155 -26 203 -7 27 11 28 12 25 83 l-3 73 -37 3 c-69 6 -41 23 32
20 l70 -3 0 -91 0 -91 -69 -16 c-87 -21 -192 -22 -261 -1 -67 20 -150 99 -168
160 -25 85 -12 192 31 254 76 112 222 154 399 114z"/>
<path d="M713 854 c15 -5 17 -19 17 -107 1 -56 3 -168 6 -249 6 -155 -1 -188
-36 -188 -10 0 -22 -5 -25 -10 -4 -6 28 -10 89 -10 57 0 96 4 96 10 0 6 -9 10
-20 10 -27 0 -29 6 -32 131 l-3 107 23 -9 c73 -28 167 9 220 87 31 44 34 54
30 103 -4 47 -10 59 -41 88 -35 32 -40 33 -119 33 -46 0 -114 2 -153 5 -38 2
-62 2 -52 -1z m248 -47 c42 -28 59 -60 59 -113 0 -72 -67 -145 -121 -131 -13
4 -39 16 -56 27 l-33 20 0 104 c0 116 -2 113 76 115 28 1 52 -6 75 -22z"/>
</g>
</svg>
