<?xml version="1.0" standalone="no"?>
<!DOCTYPE svg PUBLIC "-//W3C//DTD SVG 20010904//EN"
 "http://www.w3.org/TR/2001/REC-SVG-20010904/DTD/svg10.dtd">
<svg version="1.0" xmlns="http://www.w3.org/2000/svg"
 width="360.000000pt" height="360.000000pt" viewBox="0 0 360.000000 360.000000"
 preserveAspectRatio="xMidYMid meet">
<metadata>
Created by potrace 1.11, written by Peter Selinger 2001-2013
</metadata>
<g transform="translate(0.000000,360.000000) scale(0.100000,-0.100000)"
fill="#000000" stroke="none">
<path d="M1179 2808 c-305 -374 -564 -693 -577 -708 l-23 -29 68 -51 c73 -54
70 -54 184 -34 l37 6 1 -123 c1 -68 6 -284 11 -479 5 -195 12 -488 16 -651 4
-164 8 -311 9 -328 1 -17 2 -55 3 -85 2 -54 3 -55 59 -99 32 -24 63 -47 70
-50 9 -6 11 34 9 160 -2 93 -1 126 1 75 l4 -94 27 7 c15 4 45 8 67 10 22 2 47
6 56 10 9 3 29 8 45 10 16 2 31 5 34 6 3 1 12 2 20 3 13 1 15 67 18 523 l2
522 -32 5 c-18 3 -50 7 -70 8 l-37 3 124 160 125 160 0 150 0 150 67 -68 c36
-37 69 -64 72 -59 33 51 287 352 295 349 13 -4 564 -470 565 -478 1 -3 -38
-13 -85 -22 -48 -9 -88 -18 -89 -19 -1 -2 -10 -262 -20 -578 -12 -388 -21
-579 -29 -586 -6 -6 -46 -19 -90 -28 -156 -36 -144 -27 -148 -101 -1 -36 -2
-65 -2 -65 14 0 376 89 380 93 3 3 9 68 14 144 6 128 7 131 8 46 2 -67 5 -93
15 -93 6 0 63 11 125 24 81 17 112 20 112 11 0 -15 -153 -58 -202 -56 -42 1
-53 -10 -44 -45 6 -24 28 -35 24 -12 -2 7 13 15 34 18 21 4 35 3 32 -2 -3 -5
7 -6 23 -2 71 16 135 33 139 37 3 2 25 382 49 843 25 461 48 870 52 909 l8 69
133 27 c73 14 135 28 137 31 3 2 -192 169 -433 370 -240 200 -493 412 -562
470 -69 57 -159 130 -201 160 l-76 56 -554 -680z"/>
<path d="M1690 1081 l-115 -26 -5 -315 -5 -314 -122 -29 -123 -29 0 -65 c0
-62 1 -65 23 -61 12 3 97 23 189 44 l168 39 1 45 c1 25 5 99 9 165 l6 120 2
-103 2 -102 28 6 c15 3 32 7 39 9 7 2 15 -1 19 -7 4 -7 9 -7 13 1 4 6 35 16
69 22 41 7 66 17 72 29 5 9 12 127 16 261 l7 244 -66 48 c-37 27 -75 47 -88
46 -13 -1 -76 -13 -139 -28z"/>
<path d="M1935 461 c-3 -6 -10 -9 -14 -7 -5 4 -81 -8 -181 -28 -8 -1 -16 -12
-18 -24 -4 -23 6 -23 93 -3 22 5 61 12 87 15 29 5 49 13 52 23 8 20 -9 40 -19
24z"/>
<path d="M1248 329 c-8 -5 -31 -10 -49 -13 -19 -2 -45 -7 -59 -9 -14 -3 -37
-8 -52 -12 -19 -3 -28 -12 -28 -24 0 -18 3 -18 65 -5 36 8 80 17 98 20 18 3
39 7 47 9 8 2 21 4 28 4 6 1 12 9 12 19 0 19 -36 26 -62 11z"/>
</g>
</svg>
