<?xml version="1.0" standalone="no"?>
<!DOCTYPE svg PUBLIC "-//W3C//DTD SVG 20010904//EN"
 "http://www.w3.org/TR/2001/REC-SVG-20010904/DTD/svg10.dtd">
<svg version="1.0" xmlns="http://www.w3.org/2000/svg"
 width="260.000000pt" height="260.000000pt" viewBox="0 0 260.000000 260.000000"
 preserveAspectRatio="xMidYMid meet">
<metadata>
Created by potrace 1.11, written by Peter Selinger 2001-2013
</metadata>
<g transform="translate(0.000000,260.000000) scale(0.100000,-0.100000)"
fill="#000000" stroke="none">
<path d="M2302 2548 c-6 -13 -26 -50 -45 -83 -37 -67 -143 -258 -176 -320
l-22 -40 6 110 c3 61 8 139 11 175 4 59 3 63 -11 45 -8 -11 -15 -23 -15 -26 0
-4 -67 -143 -149 -310 -81 -167 -182 -374 -223 -459 -71 -146 -112 -230 -388
-795 -61 -126 -149 -306 -194 -399 l-82 -169 -154 283 c-85 156 -166 304 -180
329 -14 26 -68 124 -119 219 l-94 172 -129 0 -129 0 29 -53 c43 -76 228 -403
355 -627 61 -107 134 -237 164 -288 29 -52 53 -95 53 -97 0 -1 24 -44 53 -94
54 -91 54 -91 70 -69 9 13 42 57 72 98 30 41 61 84 69 95 16 23 153 209 200
272 17 23 43 59 58 80 25 34 137 189 174 238 14 20 353 483 497 680 40 55 134
183 209 285 151 206 137 171 153 380 3 36 8 90 10 120 l5 55 -56 -85 c-31 -47
-53 -74 -50 -60 5 26 13 86 22 161 2 24 9 77 14 118 11 81 9 93 -8 59z"/>
<path d="M1403 284 c-46 -23 -67 -60 -67 -119 -2 -126 147 -180 228 -84 26 30
30 47 27 104 -5 83 -110 139 -188 99z m126 -40 c101 -85 -20 -242 -128 -165
-17 12 -35 36 -39 54 -28 103 87 179 167 111z"/>
<path d="M1410 165 c0 -61 3 -75 16 -75 9 0 14 8 13 18 -5 58 16 64 39 12 8
-17 20 -30 28 -30 18 0 18 5 -3 36 -16 25 -16 27 0 36 20 10 22 49 5 66 -7 7
-31 12 -55 12 l-43 0 0 -75z m74 49 c23 -9 20 -23 -6 -33 -31 -11 -47 -4 -41
20 5 20 20 24 47 13z"/>
</g>
</svg>
