<?xml version="1.0" standalone="no"?>
<!DOCTYPE svg PUBLIC "-//W3C//DTD SVG 20010904//EN"
 "http://www.w3.org/TR/2001/REC-SVG-20010904/DTD/svg10.dtd">
<svg version="1.0" xmlns="http://www.w3.org/2000/svg"
 width="16.000000pt" height="16.000000pt" viewBox="0 0 16.000000 16.000000"
 preserveAspectRatio="xMidYMid meet">
<metadata>
Created by potrace 1.11, written by Peter Selinger 2001-2013
</metadata>
<g transform="translate(0.000000,16.000000) scale(0.003200,-0.003200)"
fill="#000000" stroke="none">
<path d="M2360 4944 c-19 -2 -93 -11 -165 -19 -420 -49 -826 -212 -1175 -471
-135 -100 -384 -349 -484 -484 -321 -433 -486 -930 -486 -1465 0 -535 165
-1032 486 -1465 100 -135 349 -384 484 -484 879 -652 2051 -652 2930 0 135
100 384 349 484 484 321 433 486 930 486 1465 0 535 -165 1032 -486 1465 -100
135 -349 384 -484 484 -347 257 -746 418 -1170 471 -129 16 -358 26 -420 19z
m415 -159 c604 -93 1158 -407 1505 -853 320 -413 504 -934 504 -1427 0 -677
-344 -1385 -872 -1795 -413 -320 -934 -504 -1427 -504 -690 0 -1409 356 -1818
902 -306 408 -481 917 -481 1397 0 677 344 1385 872 1795 366 283 797 452
1287 504 74 8 329 -3 430 -19z"/>
<path d="M1368 3892 c-97 -119 -210 -258 -250 -309 -40 -50 -76 -92 -79 -92
-8 -1 -20 279 -13 290 3 5 16 9 30 9 l25 0 -21 30 -21 30 -128 0 -129 0 -26
-35 -27 -35 25 0 c18 0 26 -5 26 -17 0 -10 3 -142 6 -293 l6 -275 -227 -280
c-125 -154 -241 -295 -258 -312 l-31 -33 157 0 157 0 29 28 c24 22 751 870
896 1045 21 26 44 47 50 46 5 0 117 -119 247 -265 131 -145 351 -390 489 -544
l253 -280 168 0 c150 0 196 7 154 23 -7 3 -76 77 -153 164 -152 171 -377 428
-401 455 -13 15 -1 32 118 170 73 84 136 153 141 153 4 0 148 -157 320 -350
171 -192 368 -412 436 -487 l124 -138 177 1 c97 0 171 3 164 6 -19 7 -434 473
-430 483 2 5 59 79 127 166 l124 157 43 -49 c23 -27 183 -209 356 -404 l314
-355 59 -3 c33 -2 110 -1 171 3 l111 7 -43 46 c-24 26 -259 290 -522 587 -262
297 -484 540 -492 540 -14 0 -409 -471 -410 -488 -1 -28 -60 33 -325 333 -163
184 -302 336 -308 337 -7 1 -106 -112 -222 -252 -115 -139 -213 -253 -216
-252 -3 1 -57 61 -120 132 -299 342 -462 525 -468 525 -3 0 -86 -98 -183 -218z"/>
<path d="M1370 2995 l0 -75 75 0 75 0 0 75 0 75 -75 0 -75 0 0 -75z"/>
<path d="M1550 2996 l0 -73 66 -6 c37 -4 70 -5 73 -3 4 3 8 36 9 74 l3 69 -53
6 c-104 13 -98 17 -98 -67z"/>
<path d="M1370 2795 l0 -75 75 0 75 0 0 75 0 75 -75 0 -75 0 0 -75z"/>
<path d="M1550 2795 l0 -75 50 -2 c28 -1 60 -2 72 -2 21 -1 23 4 26 70 l4 71
-54 6 c-104 13 -98 17 -98 -68z"/>
<path d="M2230 2414 c-300 -9 -939 -37 -1350 -59 -250 -14 -477 -25 -505 -26
-68 -2 364 -32 830 -58 1295 -73 1698 -70 3025 19 341 23 433 37 252 39 -62 1
-290 12 -505 26 -785 49 -1389 69 -1747 59z"/>
<path d="M1987 2093 c-4 -3 -7 -12 -7 -20 0 -9 15 -13 50 -13 l50 0 0 -125 c0
-104 2 -125 15 -125 13 0 15 21 15 125 l0 125 50 0 c43 0 50 3 50 20 0 19 -7
20 -108 20 -60 0 -112 -3 -115 -7z"/>
<path d="M2260 1955 c0 -138 1 -145 20 -145 18 0 20 7 20 65 l0 65 75 0 75 0
0 -65 c0 -51 3 -65 15 -65 13 0 15 23 15 145 0 122 -2 145 -15 145 -12 0 -15
-13 -15 -60 l0 -60 -75 0 -75 0 0 60 c0 53 -2 60 -20 60 -19 0 -20 -7 -20
-145z"/>
<path d="M2560 1955 l0 -145 105 0 c87 0 105 3 105 15 0 12 -16 15 -85 15
l-85 0 0 50 0 50 75 0 c60 0 75 3 75 15 0 12 -15 15 -75 15 l-75 0 0 45 0 44
83 3 c65 2 82 6 82 18 0 12 -19 16 -102 18 l-103 3 0 -146z"/>
<path d="M560 1950 c0 -20 7 -20 685 -20 678 0 685 0 685 20 0 20 -7 20 -685
20 -678 0 -685 0 -685 -20z"/>
<path d="M2890 1950 c0 -20 7 -20 755 -20 748 0 755 0 755 20 0 20 -7 20 -755
20 -748 0 -755 0 -755 -20z"/>
<path d="M850 1421 l0 -281 40 0 40 0 0 128 c0 75 4 121 9 112 5 -8 23 -66 41
-127 l33 -113 44 0 c23 0 43 2 43 4 0 3 -20 61 -45 130 -42 121 -43 126 -25
136 33 17 50 64 50 133 0 124 -23 146 -152 155 l-78 5 0 -282z m140 189 c15
-27 10 -137 -6 -151 -14 -11 -61 -9 -56 4 1 4 2 43 2 87 0 78 1 80 25 80 14 0
29 -8 35 -20z"/>
<path d="M1170 1420 l0 -280 105 0 105 0 0 33 0 32 -65 -3 -65 -4 0 91 0 91
55 0 55 0 0 35 0 35 -55 0 -55 0 0 90 0 90 65 0 65 0 0 35 0 35 -105 0 -105 0
0 -280z"/>
<path d="M1460 1420 l0 -280 108 0 108 0 -4 33 -4 32 -64 -3 -64 -4 0 251 0
251 -40 0 -40 0 0 -280z"/>
<path d="M1740 1420 l0 -280 111 0 110 0 -3 32 -3 32 -67 -3 -68 -2 0 250 0
251 -40 0 -40 0 0 -280z"/>
<path d="M2020 1420 l0 -280 43 0 42 0 -3 280 -3 280 -39 0 -40 0 0 -280z"/>
<path d="M2234 1681 c-32 -20 -44 -51 -44 -118 0 -56 28 -105 96 -168 l64 -60
0 -62 c0 -51 -3 -64 -19 -73 -36 -19 -51 -3 -51 56 l0 54 -46 0 -47 0 6 -58
c8 -95 36 -122 127 -122 37 0 56 6 77 24 26 23 28 30 32 116 l3 92 -76 72 -76
71 0 62 c0 53 3 63 20 68 33 11 50 -12 50 -66 l0 -49 40 0 40 0 0 53 c0 28 -3
61 -6 73 -14 51 -129 72 -190 35z"/>
<path d="M2725 1688 c-44 -23 -45 -32 -45 -271 l0 -229 29 -29 c26 -25 37 -29
86 -29 49 0 60 4 86 29 l29 29 0 130 0 130 -60 4 -60 3 0 -37 c0 -31 4 -38 20
-38 19 0 20 -7 20 -89 0 -94 -8 -109 -51 -96 -18 6 -19 20 -19 214 0 178 2
210 16 222 27 23 49 -1 52 -60 l3 -51 40 0 39 0 0 59 c0 74 -5 88 -41 106 -33
17 -115 19 -144 3z"/>
<path d="M3000 1420 l0 -280 40 0 40 0 0 120 c0 66 4 120 8 120 4 0 23 -53 42
-117 l35 -118 47 -3 46 -3 -44 122 c-24 67 -44 125 -44 129 0 5 14 22 30 38
29 29 30 34 30 121 0 77 -3 94 -19 110 -26 26 -83 41 -153 41 l-58 0 0 -280z
m138 198 c7 -7 12 -41 12 -84 0 -75 -5 -84 -51 -84 -17 0 -19 8 -19 90 0 87 1
90 23 90 13 0 28 -5 35 -12z"/>
<path d="M3365 1688 c-44 -23 -45 -32 -45 -271 l0 -229 29 -29 c26 -25 37 -29
86 -29 49 0 60 4 86 29 l29 29 0 225 c0 124 -3 233 -6 242 -15 39 -130 60
-179 33z m93 -60 c9 -9 12 -71 12 -219 0 -194 -1 -208 -19 -214 -10 -3 -26 -3
-35 1 -14 5 -16 30 -16 213 0 206 4 231 35 231 6 0 16 -5 23 -12z"/>
<path d="M3640 1444 l0 -256 29 -29 c26 -25 37 -29 86 -29 49 0 60 4 86 29
l29 29 0 256 0 256 -40 0 -40 0 0 -249 c0 -235 -1 -250 -19 -256 -10 -3 -26
-3 -35 1 -14 5 -16 34 -16 255 l0 249 -40 0 -40 0 0 -256z"/>
<path d="M3960 1421 l0 -281 45 0 45 0 0 119 0 118 41 7 c26 4 52 17 70 36 28
28 29 31 29 129 l0 100 -32 22 c-25 18 -49 24 -115 27 l-83 5 0 -282z m138
200 c9 -5 12 -30 10 -87 l-3 -79 -34 -3 c-28 -3 -33 -1 -27 13 3 9 6 50 6 91
0 64 2 74 18 74 9 0 23 -4 30 -9z"/>
<path d="M1110 890 c0 -20 7 -20 1385 -20 1378 0 1385 0 1385 20 0 20 -7 20
-1385 20 -1378 0 -1385 0 -1385 -20z"/>
</g>
</svg>
