<?xml version="1.0" standalone="no"?>
<!DOCTYPE svg PUBLIC "-//W3C//DTD SVG 20010904//EN"
 "http://www.w3.org/TR/2001/REC-SVG-20010904/DTD/svg10.dtd">
<svg version="1.0" xmlns="http://www.w3.org/2000/svg"
 width="300.000000pt" height="300.000000pt" viewBox="0 0 300.000000 300.000000"
 preserveAspectRatio="xMidYMid meet">
<metadata>
Created by potrace 1.11, written by Peter Selinger 2001-2013
</metadata>
<g transform="translate(0.000000,300.000000) scale(0.100000,-0.100000)"
fill="#000000" stroke="none">
<path d="M1486 2735 c-10 -44 -49 -222 -87 -395 -72 -331 -81 -360 -101 -360
-28 0 -145 -64 -206 -113 -37 -28 -73 -51 -80 -49 -8 2 -46 19 -85 38 -39 19
-72 32 -74 30 -2 -2 17 -43 42 -91 l46 -88 -35 -81 c-19 -44 -38 -98 -41 -119
-4 -21 -15 -41 -24 -46 -13 -7 -152 -39 -246 -57 -11 -2 -33 -7 -50 -11 -16
-4 -34 -7 -40 -8 -5 -1 -21 -4 -35 -8 -14 -4 -38 -9 -54 -11 -16 -3 -30 -7
-33 -9 -4 -4 81 -28 117 -33 23 -3 248 -52 304 -67 42 -10 51 -17 58 -42 22
-76 32 -104 60 -160 17 -33 43 -76 59 -96 16 -20 29 -41 29 -47 0 -5 -16 -44
-35 -86 -19 -43 -35 -79 -35 -81 0 -2 41 14 91 36 l92 40 36 -24 c40 -27 155
-74 200 -83 17 -4 33 -14 35 -23 7 -23 24 -99 31 -141 3 -19 10 -48 15 -65 5
-16 12 -46 15 -65 3 -19 12 -60 20 -91 8 -31 15 -69 15 -84 0 -46 17 -18 30
50 7 35 12 67 11 70 0 2 6 23 14 46 8 22 14 43 13 47 -1 4 1 21 5 37 4 17 10
40 12 53 3 12 7 32 10 45 6 24 11 48 19 86 6 29 1 25 62 39 55 12 151 53 196
84 l27 19 91 -46 c49 -25 90 -42 90 -38 0 7 -29 73 -59 134 l-18 35 39 55 c53
72 82 130 108 216 21 70 22 71 66 82 45 12 170 39 214 47 14 3 34 8 45 11 11
4 25 7 30 8 30 3 135 28 132 32 -3 2 -13 5 -23 7 -11 2 -30 7 -44 10 -108 24
-268 58 -289 61 -14 2 -46 10 -71 17 -36 11 -46 19 -48 38 -5 35 -41 139 -60
173 -16 26 -15 30 31 123 27 53 42 94 35 91 -7 -3 -46 -20 -86 -38 -50 -22
-78 -30 -87 -23 -7 5 -37 28 -66 52 -30 23 -58 46 -64 50 -5 4 -45 23 -88 42
-81 36 -90 46 -100 110 -3 19 -13 67 -22 105 -9 39 -19 81 -21 95 -3 14 -10
43 -16 65 -5 22 -12 51 -15 65 -9 53 -12 68 -33 160 -13 52 -22 103 -22 113 0
9 -2 17 -6 17 -4 0 -8 10 -9 23 -1 12 -6 40 -10 62 l-9 40 -18 -80z"/>
</g>
</svg>
