<?xml version="1.0" standalone="no"?>
<!DOCTYPE svg PUBLIC "-//W3C//DTD SVG 20010904//EN"
 "http://www.w3.org/TR/2001/REC-SVG-20010904/DTD/svg10.dtd">
<svg version="1.0" xmlns="http://www.w3.org/2000/svg"
 width="300.000000pt" height="300.000000pt" viewBox="0 0 300.000000 300.000000"
 preserveAspectRatio="xMidYMid meet">
<metadata>
Created by potrace 1.11, written by Peter Selinger 2001-2013
</metadata>
<g transform="translate(0.000000,300.000000) scale(0.100000,-0.100000)"
fill="#000000" stroke="none">
<path d="M863 1815 l-633 -633 122 -99 c67 -54 166 -134 219 -178 54 -44 134
-109 178 -145 44 -35 78 -66 76 -68 -2 -2 -41 -6 -87 -7 -46 -2 -144 -7 -218
-11 -74 -4 -163 -8 -197 -8 -35 -1 -63 -4 -63 -7 0 -3 226 -5 503 -5 276 0
547 -3 602 -8 121 -11 144 -11 260 0 50 4 300 8 558 8 257 1 467 4 467 7 0 3
-30 7 -67 8 -68 3 -137 6 -312 15 -51 3 -95 7 -97 9 -3 2 51 49 118 103 68 54
125 101 128 104 3 3 52 43 110 90 58 46 110 89 116 95 6 5 34 28 62 50 28 22
51 43 52 46 0 5 -1184 1193 -1241 1246 l-24 21 -632 -633z"/>
<path d="M220 660 c-12 -7 -10 -9 7 -7 12 0 19 5 17 9 -6 10 -6 10 -24 -2z"/>
<path d="M2660 658 c0 -5 20 -8 45 -8 25 0 45 3 45 8 0 4 -20 7 -45 7 -25 0
-45 -3 -45 -7z"/>
<path d="M41 521 c-10 -18 -9 -21 9 -21 22 0 25 7 11 29 -7 11 -11 9 -20 -8z"/>
</g>
</svg>
