<?xml version="1.0" standalone="no"?>
<!DOCTYPE svg PUBLIC "-//W3C//DTD SVG 20010904//EN"
 "http://www.w3.org/TR/2001/REC-SVG-20010904/DTD/svg10.dtd">
<svg version="1.0" xmlns="http://www.w3.org/2000/svg"
 width="944.000000pt" height="944.000000pt" viewBox="0 0 944.000000 944.000000"
 preserveAspectRatio="xMidYMid meet">
<metadata>
Created by potrace 1.11, written by Peter Selinger 2001-2013
</metadata>
<g transform="translate(0.000000,944.000000) scale(0.100000,-0.100000)"
fill="#000000" stroke="none">
<path d="M4370 8559 c-184 -186 -338 -338 -341 -339 -3 0 -4 28 -3 62 1 40 -4
67 -12 75 -10 11 -73 13 -291 11 l-278 -3 0 -367 -1 -366 -257 -257 c-141
-142 -257 -260 -257 -264 0 -12 197 -201 209 -201 14 0 231 218 231 231 0 5 7
9 15 9 8 0 15 4 15 8 0 12 138 152 150 152 6 0 10 4 10 9 0 12 58 71 70 71 6
0 10 4 10 8 0 13 68 81 74 74 3 -3 6 -1 6 5 0 13 98 112 105 105 3 -3 5 0 5 7
0 15 25 41 39 41 6 0 11 4 11 9 0 12 58 71 70 71 6 0 10 4 10 8 0 13 68 81 74
74 3 -3 6 -1 6 5 0 13 57 73 70 73 6 0 10 4 10 8 0 12 68 81 74 75 2 -2 7 4
10 15 4 10 18 25 31 32 14 7 25 17 25 21 0 10 81 89 91 89 5 0 9 4 9 8 0 13
68 81 74 74 3 -3 6 -1 6 5 0 13 68 83 81 83 5 0 9 4 9 9 0 10 79 91 89 91 4 0
14 11 21 25 7 13 22 27 32 31 10 3 17 8 14 12 -2 4 9 17 24 29 l26 22 695
-695 694 -694 -695 -695 c-382 -382 -699 -695 -703 -695 -5 0 -70 62 -145 137
-76 76 -140 137 -144 135 -5 -1 -8 2 -8 7 0 12 -339 351 -351 351 -5 0 -8 3
-7 8 4 12 -313 322 -329 322 -16 0 -193 -170 -193 -186 0 -18 1165 -1174 1183
-1174 12 0 16 -4 11 -12 -8 -13 52 48 112 115 19 20 34 35 34 31 0 -3 16 12
35 33 19 21 35 42 35 46 0 5 3 7 8 5 4 -2 37 27 74 64 36 37 64 68 62 68 -2 0
13 16 35 35 72 65 208 205 204 209 -3 2 5 7 16 11 12 3 21 13 21 21 0 8 4 13
9 9 5 -3 13 4 16 16 4 11 9 19 11 16 7 -6 91 77 87 86 -2 4 -1 7 4 7 4 0 25
16 46 35 21 19 36 35 33 35 -4 0 11 16 33 35 57 52 209 205 203 205 -2 0 8 10
24 23 35 27 66 57 59 57 -3 0 13 17 36 37 58 52 129 123 123 123 -2 0 13 16
35 35 72 65 208 205 204 209 -3 2 5 7 16 11 12 3 21 13 21 21 0 8 3 13 8 11 4
-3 13 1 20 9 7 8 10 14 7 14 -3 0 3 8 13 18 9 10 18 18 20 16 6 -4 92 88 92
98 0 5 4 7 9 4 15 -10 22 26 9 43 -7 9 -54 57 -105 107 -51 50 -89 95 -85 99
4 3 2 5 -3 3 -14 -4 -281 263 -277 277 2 5 1 7 -3 3 -8 -8 -335 315 -335 331
0 6 -3 10 -8 8 -12 -3 -502 490 -494 498 4 4 2 5 -3 3 -12 -4 -175 156 -175
172 0 5 -4 9 -9 8 -12 -4 -97 85 -93 97 2 5 1 7 -3 3 -4 -4 -47 34 -97 83 -49
49 -97 88 -106 88 -9 -1 -168 -154 -352 -340z"/>
<path d="M1443 4823 c-10 -4 -13 -107 -13 -470 0 -490 0 -494 45 -487 11 2 23
-2 27 -9 5 -7 8 -8 8 -1 0 14 182 14 192 0 5 -8 8 -8 8 0 0 14 103 14 112 0 6
-8 8 -8 8 0 0 6 18 11 43 12 69 0 177 27 177 43 0 6 4 8 8 5 4 -2 28 11 51 30
24 19 41 34 37 34 -4 0 0 7 9 16 9 9 14 22 11 30 -3 7 0 14 6 16 16 6 13 125
-3 145 -9 11 -10 14 -2 9 9 -5 11 -2 7 8 -3 9 -10 16 -15 16 -5 0 -9 7 -9 15
0 17 -65 82 -102 101 -16 8 -28 19 -28 25 0 6 5 7 10 4 6 -3 10 -1 10 4 0 6 3
10 8 9 12 -4 59 45 66 70 4 12 11 20 15 17 5 -2 8 3 8 13 0 43 3 53 16 46 9
-6 9 -4 1 7 -5 8 -9 29 -9 47 1 17 -2 32 -7 32 -4 0 -7 3 -7 8 4 25 -4 51 -21
70 -11 12 -20 24 -20 27 0 17 -69 65 -130 90 -39 16 -78 19 -275 20 -126 1
-236 0 -242 -2z m506 -97 c19 -10 42 -26 51 -35 63 -59 67 -176 8 -238 -40
-43 -108 -56 -295 -58 -95 -1 -176 1 -180 4 -11 8 -10 331 0 331 5 0 6 4 3 9
-4 5 75 8 187 7 164 -2 197 -4 226 -20z m-289 -419 c0 -5 5 -5 11 -1 17 10
109 10 109 0 0 -5 6 -3 13 3 8 6 16 9 18 7 2 -2 32 -6 66 -9 127 -12 202 -75
207 -174 3 -77 -31 -126 -114 -160 -38 -15 -74 -18 -244 -18 l-200 0 0 175 c0
159 1 175 17 174 9 -1 17 1 17 5 0 3 23 6 50 6 28 0 50 -4 50 -8z"/>
<path d="M2277 4813 c-4 -15 -2 -912 2 -936 0 -5 5 -6 10 -2 5 3 12 1 15 -3 3
-5 48 -8 101 -6 67 1 95 -1 95 -9 0 -8 3 -9 8 -2 10 15 105 16 114 1 5 -7 8
-7 8 0 0 7 51 10 153 9 83 -1 160 1 170 3 12 3 17 14 17 39 0 20 -4 32 -10 28
-5 -3 -10 -1 -10 4 0 8 -93 11 -291 11 l-291 0 4 30 c3 17 1 30 -4 30 -5 0 -6
5 -2 12 10 16 11 108 1 108 -5 0 -5 5 -1 12 10 16 11 108 1 108 -5 0 -5 6 0
13 4 6 6 20 4 31 -1 11 2 16 8 12 6 -4 11 -4 11 1 0 4 119 7 265 6 157 0 267
3 271 8 3 6 0 17 -8 26 -7 9 -8 14 -2 10 6 -3 11 0 11 8 0 8 -4 12 -8 9 -4 -2
-9 1 -11 6 -2 7 -97 11 -268 13 l-265 2 -2 123 c0 67 -4 129 -7 137 -3 8 -1
15 3 15 5 0 7 13 5 28 -6 37 18 61 41 42 8 -7 15 -8 15 -3 0 10 140 10 157 0
7 -4 14 -3 18 3 7 11 33 9 53 -3 6 -5 12 -4 12 1 0 11 60 10 77 -1 7 -4 14 -3
18 3 7 11 33 9 53 -3 6 -5 12 -4 12 1 0 6 24 9 55 7 33 -3 55 0 55 6 0 6 4 8
9 5 11 -7 1 45 -12 62 -7 9 -86 12 -333 12 -299 0 -323 -1 -327 -17z"/>
<path d="M3089 4819 c-9 -5 -12 -118 -11 -456 0 -246 1 -456 1 -465 1 -9 15
-23 31 -32 17 -8 28 -10 25 -5 -4 5 3 9 14 9 23 0 25 8 22 79 -2 32 1 41 10
35 8 -5 9 -3 3 7 -14 23 -17 122 -3 113 8 -5 9 -3 3 7 -14 23 -17 122 -3 113
9 -5 9 -3 3 7 -5 8 -9 32 -9 54 -1 22 -4 46 -9 53 -4 6 -2 12 3 12 12 0 9 48
-3 68 -4 7 -2 12 3 12 12 0 9 48 -3 68 -4 7 -2 12 4 12 10 0 7 60 -4 79 -3 5
1 14 9 21 8 7 15 9 15 4 0 -5 15 -26 33 -46 17 -20 40 -47 50 -60 10 -13 30
-38 45 -57 15 -19 34 -42 42 -51 12 -13 78 -94 145 -178 5 -7 17 -21 25 -30 9
-9 43 -51 75 -92 33 -41 65 -80 70 -86 6 -6 28 -33 50 -60 73 -89 82 -96 106
-83 17 9 19 13 8 20 -8 5 -9 9 -4 9 6 0 10 14 10 30 1 17 -3 30 -8 30 -4 0 -5
6 0 13 11 18 12 36 2 43 -5 3 -7 10 -4 15 12 18 14 49 4 49 -6 0 -7 6 -2 13
11 18 12 36 2 43 -5 3 -7 10 -4 15 12 19 13 49 2 49 -8 0 -8 3 0 11 8 8 8 20
3 34 -5 13 -6 25 -3 29 9 8 9 97 1 102 -5 3 -6 10 -3 15 12 18 14 49 4 49 -6
0 -7 6 -2 13 11 18 12 36 2 43 -5 3 -7 10 -4 15 12 18 14 49 4 49 -6 0 -7 6
-2 13 11 18 12 36 2 43 -5 3 -7 10 -4 15 12 18 14 49 3 49 -7 0 -7 4 0 13 5 6
6 21 2 32 -4 11 -4 27 0 35 18 34 -7 63 -56 66 -29 3 -34 0 -35 -19 -1 -12 -2
-179 -4 -372 -1 -192 -3 -354 -4 -359 0 -6 -11 4 -23 20 -13 17 -31 39 -41 48
-9 10 -14 22 -11 28 4 7 2 8 -4 4 -7 -4 -12 -3 -12 3 0 5 -16 25 -35 45 -19
20 -32 36 -28 36 3 0 -8 14 -25 30 -18 17 -30 30 -27 30 3 0 -3 8 -12 18 -10
10 -28 31 -40 48 -42 55 -68 87 -90 110 -13 13 -23 26 -23 29 0 4 -31 42 -65
79 -6 6 -22 26 -35 45 -13 19 -37 47 -53 63 -17 15 -26 28 -22 28 4 0 -2 8
-13 19 -12 10 -19 21 -15 25 3 3 -1 6 -10 6 -8 0 -18 8 -21 18 -7 19 -27 24
-47 11z"/>
<path d="M4279 4823 c-12 -71 -1 -76 196 -77 l160 -1 1 -275 c1 -336 -9 -386
-91 -458 -34 -31 -95 -67 -95 -58 0 3 -15 -1 -32 -8 -61 -23 -201 -1 -244 39
-6 5 -23 19 -37 30 -15 11 -27 25 -27 32 0 7 -4 13 -9 13 -5 0 -11 8 -15 18
-21 60 -27 81 -32 112 -6 42 -4 41 -52 47 l-40 5 3 -56 c2 -31 7 -62 12 -68 4
-7 8 -19 9 -26 4 -27 55 -100 93 -135 46 -42 124 -83 173 -93 48 -9 198 -11
198 -2 0 5 11 8 24 8 14 0 31 7 40 15 18 18 30 20 20 3 -4 -7 13 4 38 24 25
21 49 34 53 30 5 -4 5 1 2 11 -4 10 -3 16 1 13 8 -5 47 34 45 44 -1 3 5 12 13
21 8 9 11 19 7 22 -3 4 -1 7 5 7 6 0 9 7 5 17 -5 12 -3 14 7 8 10 -6 12 -3 8
13 -4 12 -2 24 2 27 5 3 7 16 5 30 -1 14 1 25 4 25 8 0 5 205 -3 219 -4 6 -4
11 1 11 10 0 9 213 -1 229 -4 6 -3 11 1 11 15 0 6 162 -9 171 -16 11 -438 12
-439 2z"/>
<path d="M5243 4822 c-6 -4 -30 -50 -53 -102 -23 -52 -59 -132 -81 -178 -21
-45 -39 -84 -39 -86 0 -3 -14 -35 -32 -73 -18 -37 -32 -70 -33 -73 0 -3 -8
-21 -17 -40 -20 -44 -104 -230 -129 -288 -10 -23 -17 -44 -16 -46 1 -2 -6 -12
-15 -22 -20 -23 -4 -53 27 -48 11 2 23 -2 27 -9 6 -9 8 -9 8 1 0 6 6 12 13 12
7 0 21 19 31 43 11 23 27 60 37 81 11 22 19 46 19 53 0 7 5 13 11 13 5 0 8 4
4 9 -3 5 5 17 17 25 15 11 24 12 29 5 4 -7 9 -7 12 -2 7 11 91 8 109 -3 6 -4
8 -3 4 4 -4 7 1 10 14 9 11 -1 20 -5 20 -10 0 -6 5 -6 13 0 13 10 75 10 102
-1 9 -3 13 -2 10 4 -3 5 4 8 15 7 11 -1 20 -5 20 -10 0 -4 6 -5 13 0 16 10 28
11 55 1 15 -5 21 -4 17 2 -3 6 -2 10 4 10 5 0 13 -5 16 -10 4 -6 12 -7 18 -3
7 5 19 8 27 7 8 -1 21 -2 28 -3 11 -1 83 -140 105 -204 4 -9 15 -20 24 -24 10
-4 21 -11 25 -17 5 -7 8 -7 8 2 0 7 13 12 31 12 25 0 29 3 20 13 -6 8 -8 17
-4 20 3 4 1 7 -6 7 -7 0 -11 6 -8 14 3 8 -1 17 -9 20 -8 3 -13 9 -12 13 1 4
-7 26 -17 48 -10 22 -19 42 -20 45 0 3 -8 19 -18 36 -9 17 -13 34 -10 38 4 3
1 6 -5 6 -7 0 -12 3 -11 8 2 15 -14 52 -23 52 -5 0 -7 4 -3 9 3 5 1 12 -5 16
-6 4 -8 11 -5 16 4 5 1 9 -4 9 -6 0 -11 9 -11 20 0 11 -4 20 -10 20 -5 0 -7 7
-4 15 4 8 1 15 -6 15 -6 0 -8 5 -5 10 3 6 1 10 -6 10 -7 0 -9 3 -6 6 3 4 0 16
-8 28 -8 11 -15 28 -15 38 0 10 -4 18 -10 18 -5 0 -10 9 -10 20 0 11 -4 20
-10 20 -5 0 -10 11 -10 25 0 14 -6 28 -14 31 -8 3 -12 12 -9 20 3 8 -1 14 -8
14 -7 0 -10 3 -6 6 3 3 -3 22 -13 42 -11 19 -17 39 -14 44 3 4 0 8 -5 8 -6 0
-11 8 -11 19 0 10 -7 24 -15 31 -8 7 -12 16 -9 21 3 5 0 9 -5 9 -6 0 -11 7
-11 15 0 20 -22 58 -40 70 -19 12 -72 16 -87 7z m116 -260 c36 -81 77 -174 92
-207 49 -108 69 -157 69 -166 0 -12 -442 -10 -460 2 -13 8 -12 12 4 24 11 8
21 23 22 32 3 18 14 43 45 104 10 20 16 39 12 43 -3 3 -1 6 6 6 7 0 10 4 6 9
-3 5 -1 12 5 16 6 4 8 11 5 16 -4 5 -2 9 4 9 9 0 37 68 33 83 -1 4 3 7 8 7 6
0 10 6 10 13 0 7 9 30 20 52 11 22 20 45 20 52 0 7 5 13 11 13 5 0 7 5 4 10
-3 6 -1 10 5 10 6 0 8 5 5 10 -3 6 -3 10 2 10 4 0 37 -66 72 -148z"/>
<path d="M5854 4815 c-7 -16 0 -940 7 -935 3 3 12 0 20 -6 8 -5 20 -9 27 -8 6
1 18 2 25 3 9 1 12 71 12 320 0 212 -3 317 -10 313 -6 -3 -5 1 1 9 6 8 10 49
10 92 -1 42 -1 77 0 77 1 0 11 -15 23 -32 11 -18 26 -42 33 -52 41 -62 229
-348 251 -383 15 -23 36 -47 48 -54 18 -9 25 -7 43 12 11 13 30 41 41 62 11
20 23 37 27 37 5 0 8 7 8 15 0 8 4 15 9 15 5 0 14 14 21 30 7 17 17 30 22 30
5 0 6 5 3 10 -3 6 -1 10 4 10 6 0 11 5 11 11 0 6 6 17 13 24 30 34 35 43 30
49 -4 3 -2 6 4 6 6 0 18 16 27 35 9 19 21 35 26 35 6 0 9 3 8 8 -1 4 9 25 23
47 14 22 31 49 37 60 14 25 13 66 15 -395 l2 -385 37 -6 c20 -3 41 -3 46 0 9
6 12 950 3 949 -4 0 -8 1 -11 2 -16 8 -87 6 -97 -2 -10 -8 -170 -251 -208
-316 -5 -9 -13 -19 -16 -22 -3 -3 -8 -9 -10 -15 -2 -5 -28 -47 -58 -92 -47
-73 -71 -94 -71 -62 0 6 -6 17 -12 24 -29 33 -38 45 -33 45 3 0 -3 10 -15 22
-11 12 -20 26 -20 30 0 9 -36 63 -57 86 -7 7 -16 24 -19 38 -3 13 -10 21 -15
18 -8 -5 -13 9 -10 29 0 4 -3 7 -9 7 -11 0 -45 60 -42 73 1 5 -2 6 -7 3 -5 -4
-12 3 -16 14 -3 11 -11 20 -16 20 -6 0 -8 4 -5 9 3 4 -2 18 -12 29 -10 11 -26
32 -36 45 -15 19 -27 24 -63 23 -25 0 -47 -5 -49 -11z"/>
<path d="M6950 4356 c0 -376 2 -477 12 -481 49 -16 109 -9 78 10 -6 4 -7 12
-3 18 12 19 12 107 0 100 -6 -4 -7 -1 -1 8 12 20 12 109 -1 109 -6 0 -7 3 0 8
13 9 15 123 2 115 -6 -4 -7 -1 -1 8 13 21 14 41 3 61 -5 10 -6 18 -1 18 10 0
9 130 -1 148 -5 6 -4 12 1 12 10 0 9 130 -1 148 -5 6 -4 12 1 12 9 0 9 156 0
165 -3 3 -23 8 -46 11 l-41 6 -1 -476z"/>
<path d="M7243 4823 c-10 -4 -13 -107 -13 -470 0 -476 2 -497 38 -485 7 2 19
-1 27 -8 11 -9 16 -7 23 7 5 10 8 180 8 381 -1 235 2 362 9 362 6 -1 34 -31
62 -68 29 -38 61 -77 71 -88 18 -20 134 -163 187 -229 17 -21 35 -43 40 -49 6
-6 57 -69 114 -141 117 -146 151 -181 161 -164 4 6 11 9 15 7 4 -1 8 193 7
432 0 538 0 512 -12 505 -5 -3 -10 -1 -10 5 0 13 -59 10 -67 -4 -4 -5 -6 -177
-6 -383 0 -340 -2 -371 -16 -350 -8 12 -20 27 -26 33 -5 6 -21 25 -35 43 -26
33 -64 80 -97 117 -10 12 -29 36 -43 54 -14 18 -31 39 -37 46 -7 7 -13 18 -13
24 0 6 -4 8 -10 5 -5 -3 -10 -1 -10 6 0 6 -10 20 -22 30 -11 11 -17 19 -13 19
4 0 -8 15 -27 34 -20 19 -33 37 -30 40 3 3 0 6 -6 6 -7 0 -12 6 -12 13 0 7
-11 21 -25 31 -14 10 -25 23 -25 28 0 5 -10 19 -22 32 -13 13 -34 38 -48 56
-14 17 -40 48 -57 68 -18 21 -33 40 -33 43 0 9 -32 17 -47 12z"/>
<path d="M1765 3522 c-3 -3 -18 -7 -35 -9 -57 -6 -163 -65 -220 -122 -57 -57
-110 -144 -110 -180 0 -11 -4 -22 -8 -25 -19 -11 -20 -237 -2 -286 1 -3 3 -9
4 -15 3 -15 16 -45 39 -95 24 -49 138 -170 161 -170 7 0 19 -6 25 -13 9 -11
57 -31 104 -43 4 -1 9 -3 12 -4 3 -1 14 -4 25 -5 11 -1 21 -4 23 -5 6 -6 189
-4 193 2 2 3 15 5 29 3 14 -1 25 2 25 7 0 5 5 6 10 3 6 -3 10 -1 10 5 0 6 4 9
9 5 5 -3 12 -1 16 5 4 6 11 8 16 5 5 -4 9 -1 9 5 0 6 5 8 10 5 6 -3 10 -1 10
5 0 6 5 8 10 5 6 -3 10 -1 10 4 0 6 7 11 15 11 8 0 15 4 15 8 0 5 12 14 26 20
15 7 22 17 18 24 -4 6 -3 8 3 5 16 -10 36 20 30 43 -3 11 -1 22 4 25 4 3 4 16
-1 30 -5 13 -6 26 -2 29 5 3 5 30 2 61 -3 30 -4 58 -1 60 9 10 -1 118 -12 129
-8 8 -76 12 -210 12 l-198 0 -6 -24 c-12 -47 11 -54 179 -56 l153 -1 1 -124
c2 -122 1 -125 -23 -145 -103 -80 -280 -111 -393 -68 -14 5 -29 10 -35 12 -61
11 -191 131 -199 183 -1 7 -5 17 -8 23 -21 34 -34 163 -23 249 1 17 3 36 4 43
1 7 5 11 10 7 6 -3 8 3 6 15 -2 11 1 22 6 25 5 4 7 11 4 16 -4 5 -2 9 3 9 6 0
15 14 21 31 7 19 15 28 22 23 7 -4 9 -3 5 4 -6 10 73 96 82 88 2 -3 12 4 23
15 11 11 24 17 29 14 6 -4 10 -2 10 4 0 5 12 12 28 15 15 4 38 9 52 12 35 8
173 12 185 5 6 -3 21 -7 34 -9 24 -3 121 -49 131 -61 26 -33 90 -44 90 -15 0
8 5 14 10 14 6 0 5 8 -2 20 -7 11 -16 20 -21 20 -4 0 -17 9 -29 19 -28 27
-115 67 -182 85 -53 13 -219 19 -231 8z"/>
<path d="M5580 3527 c-3 -3 -21 -7 -40 -10 -19 -4 -42 -8 -50 -9 -29 -7 -105
-48 -133 -73 -79 -70 -89 -220 -20 -301 21 -24 117 -78 153 -87 14 -3 36 -8
50 -12 14 -4 34 -8 45 -9 11 -2 28 -6 38 -11 10 -4 21 -5 24 -1 3 3 12 1 19
-4 6 -6 16 -10 20 -9 5 1 27 -2 49 -6 22 -5 43 -9 47 -10 3 0 10 -3 14 -7 4
-5 15 -8 24 -8 29 0 99 -58 115 -96 65 -156 -140 -288 -369 -237 -33 8 -66 19
-73 25 -7 6 -13 7 -13 4 0 -9 -67 42 -102 77 -16 15 -28 32 -28 37 0 15 -38
12 -65 -6 -24 -16 -25 -17 -7 -46 18 -33 99 -103 147 -130 27 -14 92 -35 120
-39 6 0 16 -6 24 -12 12 -10 13 -9 6 3 -7 12 -6 13 6 4 8 -6 51 -9 104 -7 120
4 135 6 135 13 0 4 7 7 15 7 22 0 95 35 95 45 0 5 4 7 9 4 8 -5 62 48 60 60 0
4 5 10 12 15 7 4 14 13 15 21 12 58 16 73 19 77 2 2 0 12 -5 22 -7 12 -7 20 0
24 7 4 6 14 -2 28 -6 12 -11 24 -11 27 3 34 -62 106 -120 134 -36 16 -116 43
-161 52 -75 16 -125 26 -149 29 -128 18 -216 84 -211 156 1 19 3 35 4 37 2 1
3 5 4 10 4 21 42 72 54 72 7 0 11 4 7 9 -3 5 -1 12 5 16 5 3 10 0 10 -7 0 -9
3 -9 8 -2 11 17 47 33 81 36 17 1 31 5 31 8 0 3 36 6 80 6 44 0 80 -2 80 -6 0
-3 14 -7 31 -8 42 -3 76 -23 126 -71 38 -38 44 -40 67 -29 14 6 26 15 26 20 0
5 5 6 11 2 8 -4 8 0 0 15 -7 11 -16 21 -21 21 -5 0 -12 9 -15 21 -4 11 -9 18
-12 15 -3 -2 -16 5 -29 17 -12 12 -29 27 -37 33 -14 12 -80 36 -112 42 -41 6
-200 14 -205 9z"/>
<path d="M6447 3503 c-105 -36 -156 -71 -229 -161 -44 -54 -78 -159 -84 -262
-17 -263 138 -475 386 -527 33 -7 192 -10 205 -4 5 3 16 6 25 7 21 4 42 10 62
18 9 4 22 4 29 0 8 -4 9 -3 5 4 -4 7 3 14 19 18 14 3 25 11 25 17 0 6 3 7 6 4
4 -4 15 3 25 14 10 12 23 18 28 14 6 -3 11 -2 11 4 0 6 11 21 25 35 14 14 25
29 25 33 0 5 8 16 18 25 32 30 43 48 32 48 -6 0 -4 7 4 16 9 8 14 20 11 25 -4
5 -1 9 4 9 6 0 11 12 11 26 0 14 3 23 8 21 7 -5 8 1 13 91 2 29 7 55 11 58 5
3 5 11 1 17 -7 11 -11 35 -16 100 -1 15 -5 27 -9 27 -5 0 -8 8 -8 18 0 49
-114 224 -134 205 -3 -4 -6 1 -6 10 0 8 -9 19 -20 22 -11 3 -20 11 -20 16 0 5
-3 8 -7 7 -5 0 -33 10 -63 24 -117 54 -271 62 -393 21z m203 -68 c0 -5 4 -4 8
3 7 10 19 10 63 0 30 -6 57 -17 61 -22 4 -6 8 -8 8 -3 0 14 75 -31 113 -70 79
-78 115 -175 115 -304 -1 -274 -206 -445 -486 -405 -54 8 -138 52 -180 93 -42
43 -93 111 -73 98 8 -4 4 5 -8 22 -12 16 -23 40 -23 54 -1 13 -6 30 -11 37 -6
7 -7 15 -4 19 4 3 2 12 -4 20 -9 10 -8 13 1 13 8 0 9 4 3 13 -5 6 -8 26 -6 42
2 17 5 46 7 65 2 19 5 35 6 35 1 0 4 11 6 24 8 44 48 115 92 160 23 24 42 42
42 38 0 -3 12 5 26 18 15 14 30 22 35 19 5 -3 9 0 9 6 0 6 4 9 9 5 5 -3 15 0
23 7 7 7 22 13 33 12 11 0 26 2 33 6 20 10 102 6 102 -5z"/>
<path d="M2704 3512 c-5 -4 -23 -36 -38 -72 -16 -36 -42 -94 -59 -130 -56
-123 -75 -166 -187 -415 -61 -137 -119 -265 -127 -283 -12 -24 -13 -36 -5 -44
14 -14 82 -19 82 -6 0 5 5 6 10 3 6 -4 9 -3 8 2 -1 4 6 28 16 53 11 25 19 48
18 53 -1 4 3 7 9 7 5 0 8 4 5 9 -4 5 -2 11 4 13 6 2 12 13 14 25 9 45 26 63
59 64 130 3 226 1 236 -5 6 -4 11 -4 11 1 0 7 78 8 241 4 23 -1 31 -13 73
-110 27 -60 55 -113 65 -117 28 -12 88 -10 88 4 0 6 -4 12 -9 12 -4 0 -8 8 -8
19 0 10 -7 24 -15 31 -8 6 -14 15 -14 18 1 4 -2 18 -7 32 -4 14 -7 27 -7 30 0
3 -7 10 -16 17 -9 7 -13 13 -8 13 4 0 -4 23 -18 50 -14 28 -23 55 -20 61 4 5
1 8 -7 7 -7 -2 -12 3 -10 11 2 7 -5 22 -14 32 -9 10 -13 23 -9 28 3 6 1 11 -4
11 -6 0 -11 7 -11 15 0 8 -5 15 -11 15 -5 0 -8 3 -5 8 2 4 -4 25 -14 47 -10
22 -16 44 -13 49 4 5 1 6 -4 3 -9 -6 -15 4 -27 43 -1 3 -5 11 -9 18 -5 6 -5
12 0 12 4 0 3 4 -4 8 -6 4 -13 16 -15 27 -1 11 -10 25 -18 32 -8 7 -10 13 -5
13 6 0 3 5 -5 10 -13 9 -13 10 0 10 13 0 13 1 0 10 -8 5 -15 13 -15 17 -1 4
-12 33 -26 63 -14 30 -32 70 -40 88 -8 17 -18 32 -22 32 -5 0 -5 5 -2 11 17
27 -79 63 -111 41z m75 -165 c109 -242 201 -456 201 -465 0 -8 -63 -11 -230
-10 -205 1 -230 3 -228 17 2 9 7 19 12 23 5 3 11 16 13 27 1 11 12 35 22 52
11 18 18 36 15 41 -3 4 0 8 6 8 6 0 9 4 5 9 -3 5 -1 12 5 16 6 4 8 11 5 16 -4
5 -2 9 4 9 6 0 14 12 17 28 4 15 15 41 25 59 10 17 15 34 12 37 -4 3 -1 6 6 6
7 0 9 5 6 10 -3 6 -1 10 5 10 6 0 8 5 5 10 -3 6 -1 10 6 10 7 0 10 3 6 6 -3 4
1 20 9 36 9 17 17 40 20 51 2 12 8 23 14 25 6 2 7 9 4 14 -4 7 -2 8 4 4 7 -4
21 -26 31 -49z"/>
<path d="M3295 3512 c-3 -3 -5 -215 -5 -471 0 -534 -8 -493 93 -482 8 1 7 4
-3 11 -8 5 -10 10 -5 10 11 0 13 109 2 126 -3 6 -3 14 0 18 4 4 8 46 9 94 0
48 2 89 3 92 0 3 55 5 121 4 107 -1 122 -3 138 -21 38 -44 161 -179 233 -256
74 -79 78 -81 123 -82 51 0 63 20 26 43 -12 7 -18 17 -15 22 3 6 1 10 -5 10
-11 0 -40 24 -40 33 0 3 -25 30 -55 61 -31 31 -54 56 -52 56 2 0 -22 27 -54
61 -33 33 -59 64 -59 68 0 13 39 20 46 9 4 -7 9 -6 13 1 4 6 16 12 26 14 31 5
106 43 99 49 -3 3 4 9 15 13 12 3 19 11 16 16 -4 5 -2 9 3 9 13 0 46 56 57 95
10 35 13 175 4 175 -4 0 -9 13 -12 29 -3 16 -13 36 -22 45 -9 9 -13 20 -10 26
4 6 1 9 -7 8 -7 -2 -12 2 -11 9 2 6 -6 15 -17 18 -11 4 -18 11 -15 16 4 5 1 9
-5 9 -7 0 -24 8 -38 19 -58 40 -98 45 -349 47 -134 0 -245 -1 -248 -4z m505
-91 c79 -26 132 -105 132 -198 1 -108 -55 -189 -144 -214 -56 -15 -396 -19
-401 -5 -2 6 -3 37 -2 69 1 35 -3 57 -9 57 -7 0 -8 3 -1 8 13 9 14 145 0 154
-7 5 -7 8 0 8 6 0 10 28 10 68 l-1 67 191 -1 c114 -1 205 -6 225 -13z"/>
<path d="M4149 3511 c-1 -3 -2 -215 -3 -471 -1 -462 -1 -465 19 -476 26 -14
71 -10 68 5 -2 6 1 11 5 11 10 0 9 30 -2 48 -4 6 -4 12 1 12 4 0 8 16 8 35 0
19 -4 35 -8 35 -4 0 -3 8 2 18 6 11 6 24 0 35 -6 9 -6 17 -1 17 10 0 9 30 -2
48 -4 6 -3 12 1 12 5 0 8 12 7 28 -2 47 0 48 123 46 l116 -1 35 -39 c19 -22
73 -80 119 -131 47 -51 99 -108 115 -127 30 -35 87 -79 73 -55 -6 8 -4 10 6 3
19 -11 79 -13 79 -1 0 5 -12 22 -27 37 -41 44 -56 61 -74 88 -9 13 -18 22 -21
20 -7 -5 -37 29 -31 36 4 3 -2 6 -12 6 -10 0 -16 3 -13 6 4 3 -7 18 -23 33
-16 15 -26 31 -22 34 3 4 1 7 -6 7 -7 0 -19 7 -27 15 -9 8 -12 15 -8 15 4 0
-5 10 -19 23 -24 20 -25 23 -9 33 9 6 31 10 49 9 18 -1 30 2 27 7 -3 4 0 9 5
9 12 2 26 5 39 9 4 1 10 2 15 1 4 0 7 4 7 11 0 6 3 9 6 6 8 -9 86 71 79 81 -2
5 2 12 11 15 8 3 12 10 9 16 -3 5 -1 10 4 10 6 0 10 3 10 8 -1 4 0 9 1 12 16
41 14 170 -3 186 -4 4 -7 18 -7 31 0 14 -4 21 -10 18 -5 -3 -10 2 -10 12 0 10
-8 26 -17 34 -10 9 -24 25 -32 37 -8 12 -44 36 -80 54 l-66 32 -252 2 c-139 1
-254 -1 -254 -5z m313 -86 c5 -7 8 -7 8 0 0 6 31 9 77 8 43 -1 78 -2 78 -3 0
-1 8 -3 18 -5 37 -7 97 -56 117 -95 44 -86 29 -209 -32 -267 -64 -59 -90 -65
-303 -65 -183 0 -190 0 -182 9 4 3 2 12 -4 19 -7 8 -7 14 1 19 8 5 8 11 -1 21
-8 10 -8 14 0 14 7 0 8 8 1 25 -6 16 -6 26 1 31 6 4 6 11 -2 20 -6 8 -7 14 -3
14 10 0 10 63 -1 79 -3 6 -2 11 3 11 10 0 9 30 -2 48 -4 6 -4 12 1 12 9 0 8
84 -2 99 -10 18 215 23 227 6z"/>
<path d="M5027 3513 c-4 -3 -7 -217 -7 -474 l0 -468 23 -7 c39 -13 49 -13 64
2 8 8 11 14 7 14 -3 0 0 8 7 17 8 9 9 14 3 10 -8 -5 -11 11 -11 53 0 35 5 56
10 53 6 -4 7 -1 1 8 -13 21 -14 119 0 119 8 0 8 3 0 8 -13 9 -15 114 -1 105 6
-4 7 -1 1 8 -13 21 -14 119 0 119 8 0 8 3 0 8 -13 9 -15 114 -1 105 6 -4 7 -1
1 8 -13 20 -14 120 -1 112 6 -4 7 -1 1 8 -13 20 -13 83 0 91 8 6 8 8 0 8 -6 0
-11 18 -11 40 0 22 -3 43 -6 46 -9 10 -73 15 -80 7z"/>
<path d="M7255 3512 c-17 -11 -15 -942 2 -942 7 0 13 -4 13 -8 0 -10 37 -8 62
3 10 4 15 12 11 19 -11 16 -11 106 -1 106 5 0 6 6 1 13 -12 19 -12 108 0 100
6 -4 7 -1 2 7 -13 21 -15 121 -2 113 6 -4 7 -1 2 8 -13 19 -14 179 -2 172 6
-4 7 -1 2 7 -13 21 -15 101 -2 93 6 -4 7 -1 2 7 -9 14 -16 100 -8 100 6 0 52
-54 227 -270 92 -113 177 -217 189 -231 12 -14 60 -73 107 -131 78 -98 130
-144 130 -117 0 6 4 8 8 5 4 -2 8 11 8 30 0 19 -5 34 -11 34 -7 0 -7 3 0 8 14
10 14 92 1 92 -8 0 -8 3 -1 8 6 4 11 21 11 37 0 17 -5 33 -11 37 -7 5 -7 8 1
8 5 0 10 11 10 25 0 14 -5 25 -10 25 -8 0 -8 3 -1 8 6 4 11 16 11 27 0 11 -5
23 -11 27 -7 5 -6 8 1 8 11 0 12 28 1 46 -3 6 -3 14 0 18 12 11 10 126 -2 126
-7 0 -7 3 0 8 6 4 11 16 11 27 0 11 -5 23 -11 27 -7 5 -7 8 1 8 5 0 10 11 10
25 0 14 -5 25 -10 25 -8 0 -8 3 -1 8 6 4 11 16 11 27 0 11 -5 23 -11 27 -7 5
-7 8 1 8 5 0 10 11 10 25 0 14 -5 25 -10 25 -7 0 -8 3 -1 8 13 9 15 72 2 72
-5 0 -4 7 3 16 11 12 10 18 -3 31 -18 18 -74 26 -82 12 -3 -5 -6 -176 -6 -381
l-1 -373 -24 30 c-14 17 -36 42 -50 58 -13 15 -24 30 -24 33 0 4 -10 15 -22
25 -11 11 -18 19 -15 19 3 0 -12 18 -34 41 -21 22 -37 45 -33 50 3 5 -2 9 -11
9 -9 0 -14 4 -11 9 3 5 -7 19 -23 32 -15 13 -31 34 -35 47 -4 12 -12 20 -17
17 -5 -4 -9 -2 -9 3 0 6 -11 20 -25 33 -13 13 -25 27 -25 32 0 4 -15 24 -32
44 -18 19 -32 40 -30 45 1 5 -2 7 -8 3 -5 -3 -10 -3 -10 2 0 8 -35 53 -65 84
-8 9 -15 21 -15 28 0 7 -4 9 -10 6 -5 -3 -10 -1 -10 5 0 12 -11 27 -59 75 -36
37 -40 39 -56 27z"/>
<path d="M2743 1977 c-3 -5 -6 -328 -6 -718 0 -735 1 -747 40 -732 12 5 14 3
8 -7 -6 -9 -4 -11 5 -5 21 13 80 14 80 1 0 -7 3 -7 8 -1 10 14 32 17 32 4 0
-8 4 -8 13 0 10 8 17 7 27 -2 8 -7 10 -8 7 -1 -5 8 4 11 23 10 17 0 30 -5 30
-11 0 -7 3 -7 8 0 10 14 85 14 94 1 6 -8 8 -8 8 0 0 6 7 11 15 11 8 0 15 -5
15 -10 0 -5 6 -5 13 2 10 8 17 7 27 -2 8 -7 10 -8 7 -1 -5 8 4 11 23 10 17 0
30 -5 30 -11 0 -7 3 -7 8 0 10 14 85 14 94 1 6 -8 8 -8 8 0 0 6 7 11 15 11 8
0 15 -5 15 -10 0 -5 6 -5 13 2 10 8 17 7 27 -2 8 -7 10 -8 7 -1 -5 8 4 11 23
10 17 0 30 -5 30 -11 0 -7 3 -7 8 0 10 14 85 14 94 1 6 -8 8 -8 8 0 0 6 7 11
15 11 8 0 15 -5 15 -11 0 -6 5 -5 12 2 9 9 15 9 27 -1 9 -7 12 -8 8 -1 -4 8 3
11 23 10 17 0 30 -5 30 -11 0 -7 3 -7 8 0 10 14 85 14 94 1 6 -8 8 -8 8 0 0 6
7 11 15 11 8 0 15 -5 15 -10 0 -5 6 -5 13 2 10 8 17 7 27 -2 8 -7 10 -8 7 -1
-5 8 4 11 23 10 17 0 30 -5 30 -11 0 -7 3 -7 8 0 10 14 85 14 94 1 6 -8 8 -8
8 0 0 6 7 11 15 11 8 0 15 -5 15 -10 0 -5 6 -5 13 2 10 8 17 7 27 -2 8 -7 10
-8 7 -1 -5 8 4 11 23 10 17 0 30 -5 30 -11 0 -7 3 -7 8 0 10 14 85 14 94 1 6
-8 8 -8 8 0 0 6 7 11 15 11 8 0 15 -5 15 -10 0 -5 6 -5 13 2 10 8 17 7 27 -2
8 -7 10 -8 7 -1 -5 8 4 11 23 10 17 0 30 -5 30 -11 0 -7 3 -7 8 0 10 14 85 14
94 1 6 -8 8 -8 8 0 0 6 7 11 15 11 8 0 15 -5 15 -10 0 -5 6 -5 13 2 10 8 17 7
27 -2 8 -7 10 -8 7 -1 -5 8 4 11 23 10 17 0 30 -5 30 -11 0 -7 3 -7 8 0 10 14
85 14 94 1 6 -8 8 -8 8 0 0 6 7 11 15 11 8 0 15 -5 15 -10 0 -5 6 -5 13 2 10
8 17 7 27 -2 8 -7 10 -8 7 -1 -5 8 4 11 23 10 17 0 30 -5 30 -11 0 -7 3 -7 8
0 8 11 92 16 92 5 0 -4 7 -7 15 -7 8 0 15 3 15 6 0 11 125 7 132 -4 5 -7 8 -6
8 1 0 6 7 11 15 11 8 0 15 -5 15 -10 0 -5 6 -5 13 2 10 8 17 7 27 -2 8 -7 10
-8 7 -1 -5 8 4 11 23 10 17 0 30 -5 30 -11 0 -7 3 -7 8 0 10 14 85 14 94 1 6
-8 8 -8 8 0 0 6 7 11 15 11 8 0 15 -5 15 -10 0 -5 6 -5 13 2 10 8 17 7 27 -2
8 -7 10 -8 7 -1 -5 8 4 11 23 10 17 0 30 -5 30 -11 0 -7 3 -7 8 0 10 14 85 14
94 1 6 -8 8 -8 8 0 0 6 7 11 15 11 8 0 15 -5 15 -10 0 -5 6 -5 13 2 10 8 17 7
27 -2 8 -7 10 -8 7 -1 -5 8 4 11 23 10 17 0 30 -5 30 -11 0 -7 3 -7 8 0 10 14
85 14 94 1 6 -8 8 -8 8 0 0 6 7 11 15 11 8 0 15 -5 15 -10 0 -5 6 -5 13 2 10
8 17 7 27 -2 8 -7 10 -8 7 -1 -5 8 4 11 23 10 17 0 30 -5 30 -11 0 -7 3 -7 8
0 10 14 85 14 94 1 6 -8 8 -8 8 0 0 6 7 11 15 11 8 0 15 -5 15 -10 0 -5 6 -5
13 2 10 8 17 7 27 -2 8 -7 10 -8 7 -1 -5 8 4 11 23 10 17 0 30 -5 30 -11 0 -7
3 -7 8 0 10 14 85 14 94 1 6 -8 8 -8 8 0 0 6 7 11 15 11 8 0 15 -5 15 -10 0
-5 6 -5 13 2 10 8 17 7 27 -2 8 -7 10 -8 7 -1 -5 8 4 11 23 10 17 0 30 -5 30
-11 0 -7 3 -7 8 0 10 14 85 14 94 1 6 -8 8 -8 8 0 0 6 7 11 15 11 8 0 15 -5
15 -10 0 -5 7 -4 15 3 12 10 15 10 15 -1 0 -10 2 -11 8 -2 9 14 44 12 54 -2 5
-6 8 -5 8 3 0 7 4 11 9 8 15 -10 39 4 44 24 3 11 0 21 -7 24 -6 2 -6 5 -1 5
11 1 12 102 1 119 -3 6 -3 13 2 16 8 5 7 79 -2 103 -3 7 -2 13 2 13 9 0 7 98
-2 107 -3 3 -1 12 5 20 9 10 8 13 -2 13 -9 0 -10 3 -4 8 6 4 10 21 10 37 0 17
-4 33 -10 37 -7 5 -7 8 0 8 6 0 10 16 10 35 0 19 -4 35 -10 35 -7 0 -7 3 0 8
6 4 10 21 10 37 0 17 -4 33 -10 37 -7 5 -7 8 0 8 11 0 12 101 1 118 -3 6 -3
13 2 16 8 5 7 79 -2 103 -3 7 -2 13 2 13 9 0 7 98 -2 107 -3 3 -1 12 5 20 9
10 8 13 -2 13 -9 0 -10 3 -4 8 6 4 10 21 10 37 0 17 -4 33 -10 37 -7 5 -7 8 0
8 6 0 10 20 10 45 0 25 -3 45 -7 45 -4 0 -4 10 1 23 5 14 5 30 0 40 -6 9 -6
17 -2 17 5 0 9 18 8 40 0 22 -4 40 -8 40 -5 0 -6 4 -2 9 3 6 -2 14 -12 19 -25
13 -4052 12 -4060 -1z"/>
</g>
</svg>
