<?xml version="1.0" standalone="no"?>
<!DOCTYPE svg PUBLIC "-//W3C//DTD SVG 20010904//EN"
 "http://www.w3.org/TR/2001/REC-SVG-20010904/DTD/svg10.dtd">
<svg version="1.0" xmlns="http://www.w3.org/2000/svg"
 width="300.000000pt" height="300.000000pt" viewBox="0 0 300.000000 300.000000"
 preserveAspectRatio="xMidYMid meet">
<metadata>
Created by potrace 1.11, written by Peter Selinger 2001-2013
</metadata>
<g transform="translate(0.000000,300.000000) scale(0.100000,-0.100000)"
fill="#000000" stroke="none">
<path d="M10 1540 c0 -803 3 -1460 6 -1460 3 0 30 15 60 32 l54 33 0 1372 0
1373 1377 -2 1378 -3 0 -1366 c0 -1043 3 -1369 12 -1380 6 -8 30 -25 52 -37
l41 -23 0 1460 0 1461 -1490 0 -1490 0 0 -1460z"/>
<path d="M1500 1315 l0 -1315 372 2 371 3 0 777 0 777 -46 48 c-25 26 -58 62
-73 78 -15 17 -68 74 -118 128 l-91 98 0 357 -1 357 -207 3 -207 2 0 -1315z"/>
<path d="M955 2430 c-99 -99 -182 -183 -184 -185 -2 -2 -4 -509 -5 -1125 l-1
-1120 268 0 267 0 0 921 0 921 -77 106 -78 107 -5 278 -5 277 -180 -180z"/>
<path d="M2430 1016 l0 -1016 277 0 c152 0 274 2 272 4 -2 2 -62 21 -134 41
-71 21 -134 41 -140 46 -6 6 -10 301 -10 813 l0 803 -50 59 c-28 32 -63 75
-78 96 -15 20 -32 42 -39 50 -8 7 -32 37 -56 67 l-42 54 0 -1017z"/>
<path d="M544 1584 c-21 -26 -43 -52 -49 -58 -5 -6 -35 -40 -65 -76 -30 -36
-57 -67 -60 -70 -3 -3 -16 -18 -30 -33 l-25 -29 0 -608 c-1 -335 -3 -611 -5
-613 -3 -2 -68 -24 -145 -49 l-140 -46 285 -1 285 -1 0 815 c0 448 -3 815 -6
815 -3 0 -24 -21 -45 -46z"/>
</g>
</svg>
