<?xml version="1.0" standalone="no"?>
<!DOCTYPE svg PUBLIC "-//W3C//DTD SVG 20010904//EN"
 "http://www.w3.org/TR/2001/REC-SVG-20010904/DTD/svg10.dtd">
<svg version="1.0" xmlns="http://www.w3.org/2000/svg"
 width="16.000000pt" height="16.000000pt" viewBox="0 0 16.000000 16.000000"
 preserveAspectRatio="xMidYMid meet">
<metadata>
Created by potrace 1.11, written by Peter Selinger 2001-2013
</metadata>
<g transform="translate(0.000000,16.000000) scale(0.005556,-0.005556)"
fill="#000000" stroke="none">
<path d="M1265 2749 c-161 -22 -334 -81 -479 -164 -92 -52 -190 -124 -181
-133 8 -8 -146 -162 -156 -156 -23 14 -153 -204 -205 -344 -25 -65 -31 -99
-14 -72 6 10 10 11 10 3 0 -7 10 -13 23 -13 20 0 26 9 41 58 24 76 89 200 145
276 173 236 438 402 741 467 83 18 137 22 260 22 123 0 177 -4 260 -22 305
-65 568 -231 743 -470 53 -72 127 -213 147 -283 12 -39 19 -48 37 -48 13 0 23
6 23 13 0 8 4 7 10 -3 17 -27 11 7 -14 72 -52 140 -182 358 -205 344 -10 -6
-164 148 -155 156 10 11 -124 104 -226 157 -106 55 -234 101 -355 126 -95 20
-350 28 -450 14z m243 -6 c-32 -2 -86 -2 -120 0 -35 2 -9 3 57 3 66 0 94 -1
63 -3z m-200 -10 c-10 -2 -28 -2 -40 0 -13 2 -5 4 17 4 22 1 32 -1 23 -4z
m330 0 c-10 -2 -28 -2 -40 0 -13 2 -5 4 17 4 22 1 32 -1 23 -4z m-405 -10 c-7
-2 -21 -2 -30 0 -10 3 -4 5 12 5 17 0 24 -2 18 -5z m470 0 c-7 -2 -21 -2 -30
0 -10 3 -4 5 12 5 17 0 24 -2 18 -5z m-526 -9 c-3 -3 -12 -4 -19 -1 -8 3 -5 6
6 6 11 1 17 -2 13 -5z m216 -1 c-7 -2 -19 -2 -25 0 -7 3 -2 5 12 5 14 0 19 -2
13 -5z m65 0 c-10 -2 -26 -2 -35 0 -10 3 -2 5 17 5 19 0 27 -2 18 -5z m69 1
c-3 -3 -12 -4 -19 -1 -8 3 -5 6 6 6 11 1 17 -2 13 -5z m220 0 c-3 -3 -12 -4
-19 -1 -8 3 -5 6 6 6 11 1 17 -2 13 -5z m-610 -10 c-3 -3 -12 -4 -19 -1 -8 3
-5 6 6 6 11 1 17 -2 13 -5z m650 0 c-3 -3 -12 -4 -19 -1 -8 3 -5 6 6 6 11 1
17 -2 13 -5z m-690 -10 c-3 -3 -12 -4 -19 -1 -8 3 -5 6 6 6 11 1 17 -2 13 -5z
m730 0 c-3 -3 -12 -4 -19 -1 -8 3 -5 6 6 6 11 1 17 -2 13 -5z m-837 -34 c-8
-5 -19 -10 -25 -10 -5 0 -3 5 5 10 8 5 20 10 25 10 6 0 3 -5 -5 -10z m940 0
c8 -5 11 -10 5 -10 -5 0 -17 5 -25 10 -8 5 -10 10 -5 10 6 0 17 -5 25 -10z
m-990 -20 c-8 -5 -19 -10 -25 -10 -5 0 -3 5 5 10 8 5 20 10 25 10 6 0 3 -5 -5
-10z m1040 0 c8 -5 11 -10 5 -10 -5 0 -17 5 -25 10 -8 5 -10 10 -5 10 6 0 17
-5 25 -10z m76 -36 c18 -14 18 -14 -6 -3 -31 14 -36 19 -24 19 6 0 19 -7 30
-16z m-1256 -29 c0 -2 -10 -9 -22 -15 -22 -11 -22 -10 -4 4 21 17 26 19 26 11z
m1340 -21 c0 -2 -9 0 -20 6 -11 6 -20 13 -20 16 0 2 9 0 20 -6 11 -6 20 -13
20 -16z m-1390 -8 c0 -2 -12 -11 -27 -20 l-28 -17 24 20 c23 21 31 25 31 17z
m1446 -27 c3 -6 -5 -3 -20 6 -14 10 -26 19 -26 22 0 7 39 -17 46 -28z m-1506
-13 c0 -2 -17 -16 -37 -31 l-38 -26 35 30 c34 31 40 35 40 27z m1586 -48 c4
-7 -9 1 -29 16 -20 16 -37 30 -37 33 0 7 58 -36 66 -49z m-1706 -91 c0 -2 -10
-12 -22 -23 l-23 -19 19 23 c18 21 26 27 26 19z m-146 -122 c-14 -19 -29 -35
-31 -35 -5 0 7 18 36 53 26 31 23 18 -5 -18z m2066 -5 c30 -43 18 -37 -16 7
-15 20 -23 33 -16 29 6 -3 21 -20 32 -36z m-2130 -90 c-6 -11 -13 -20 -16 -20
-2 0 0 9 6 20 6 11 13 20 16 20 2 0 0 -9 -6 -20z m2190 0 c6 -11 8 -20 6 -20
-3 0 -10 9 -16 20 -6 11 -8 20 -6 20 3 0 10 -9 16 -20z m-2232 -75 c-12 -24
-23 -43 -26 -41 -4 5 36 86 43 86 3 0 -5 -20 -17 -45z m2272 4 c12 -23 20 -43
18 -45 -3 -2 -14 17 -26 41 -27 56 -20 60 8 4z m-2319 -106 c-12 -20 -14 -14
-5 12 4 9 9 14 11 11 3 -2 0 -13 -6 -23z m2369 -8 c0 -5 -5 -3 -10 5 -5 8 -10
20 -10 25 0 6 5 3 10 -5 5 -8 10 -19 10 -25z"/>
<path d="M1690 2559 c-165 -19 -315 -86 -422 -191 -132 -127 -153 -300 -57
-462 36 -61 39 -40 4 28 -18 35 -38 89 -45 120 -32 156 71 317 265 412 124 61
187 75 340 79 l130 4 -105 -9 c-210 -17 -354 -71 -472 -179 -140 -129 -171
-274 -91 -437 l26 -54 120 0 119 0 -31 36 c-77 87 -118 192 -107 272 17 124
135 237 291 278 67 18 197 18 240 0 68 -29 93 -112 56 -184 -36 -68 -126 -110
-256 -119 -44 -3 -86 -10 -92 -16 -23 -17 -14 -38 24 -54 48 -20 253 -13 328
10 74 24 155 76 192 125 29 38 33 51 33 105 0 43 -6 71 -19 93 -41 67 -153
127 -266 144 -79 11 -100 11 -205 -1z m305 -169 c8 -16 15 -47 15 -70 0 -111
-104 -181 -291 -196 -44 -4 -79 -11 -79 -15 0 -5 -7 -9 -15 -9 -8 0 -15 6 -15
13 0 9 31 16 96 24 122 15 212 55 251 114 22 34 25 46 21 104 -2 36 -3 65 -1
65 1 0 9 -13 18 -30z"/>
<path d="M515 2380 c-38 -38 -67 -72 -64 -74 3 -3 38 28 79 69 41 41 70 75 64
75 -5 0 -41 -31 -79 -70z"/>
<path d="M2370 2375 c41 -41 76 -72 79 -69 6 6 -130 144 -143 144 -6 0 23 -34
64 -75z"/>
<path d="M40 1535 l0 -305 1410 0 1410 0 0 305 0 305 -1410 0 -1410 0 0 -305z
m2113 288 c-387 -2 -1019 -2 -1405 0 -387 1 -71 2 702 2 773 0 1089 -1 703 -2z
m-1785 -109 c14 -4 22 -14 21 -28 0 -11 -3 -15 -6 -8 -7 18 -39 33 -57 26 -30
-11 -17 -41 28 -68 52 -30 62 -50 41 -83 -13 -20 -23 -23 -61 -22 -40 3 -44 5
-44 28 l0 25 16 -22 c18 -26 62 -30 71 -5 4 11 -3 24 -23 39 -81 64 -86 72
-54 104 21 21 32 23 68 14z m862 -79 c18 -44 40 -86 48 -92 13 -11 10 -13 -19
-13 -31 0 -35 3 -34 28 0 24 -4 27 -37 30 -29 3 -39 -1 -48 -19 -10 -17 -9
-23 1 -30 10 -6 6 -9 -12 -9 l-26 0 26 53 c15 28 34 72 44 96 9 25 19 43 21
40 2 -2 18 -40 36 -84z m805 0 c15 -38 35 -78 43 -87 14 -17 12 -18 -24 -18
-22 0 -34 4 -27 8 7 4 10 17 6 30 -4 18 -13 22 -43 22 -31 0 -40 -4 -45 -21
-5 -14 -2 -25 6 -30 9 -6 2 -8 -21 -8 -19 0 -30 3 -24 5 7 3 29 45 49 95 21
49 41 86 45 82 3 -4 19 -39 35 -78z m-1455 58 c0 -13 -3 -14 -12 -5 -7 7 -20
12 -30 12 -16 0 -18 -10 -18 -79 0 -54 4 -81 13 -84 6 -3 -6 -5 -28 -5 -22 0
-34 2 -27 5 8 3 12 30 12 84 0 69 -2 79 -18 79 -10 0 -23 -5 -30 -12 -9 -9
-12 -8 -12 5 0 14 11 17 75 17 64 0 75 -3 75 -17z m160 0 c0 -13 -3 -14 -12
-5 -7 7 -27 12 -45 12 -31 0 -33 -2 -33 -35 0 -30 3 -35 25 -35 13 0 29 8 34
18 8 14 10 10 10 -18 0 -19 -3 -29 -6 -22 -2 6 -18 12 -34 12 -27 0 -29 -2
-29 -40 0 -39 1 -40 34 -40 24 0 40 7 52 23 12 16 15 17 10 4 -3 -10 -6 -23
-6 -28 0 -5 -33 -9 -72 -9 -44 0 -68 4 -60 9 10 6 13 30 10 90 l-3 81 63 0
c52 0 62 -3 62 -17z m82 5 c-12 -12 -17 -114 -6 -142 9 -23 60 -20 86 6 17 17
20 18 15 4 -4 -10 -7 -22 -7 -27 0 -5 -35 -9 -77 -9 -65 0 -74 2 -59 13 15 11
17 25 14 90 -3 76 -3 77 22 77 19 0 21 -3 12 -12z m163 -70 l0 -83 32 -3 c22
-2 37 3 53 20 l21 23 -9 -25 c-9 -23 -15 -25 -83 -28 -64 -3 -72 -1 -56 11 16
11 18 24 15 90 -2 63 0 77 12 77 12 0 15 -16 15 -82z m443 70 c18 -18 14 -54
-8 -69 -21 -14 -21 -14 2 -46 13 -18 32 -36 43 -42 18 -9 17 -10 -8 -10 -22
-1 -34 9 -59 44 -18 25 -35 45 -40 45 -13 0 -9 -78 5 -83 6 -3 -6 -5 -28 -5
-22 0 -34 2 -27 5 8 3 12 31 12 89 l0 84 48 0 c26 0 53 -5 60 -12z m250 0 c19
-19 14 -55 -9 -71 -20 -15 -20 -15 19 -56 35 -37 37 -41 17 -41 -14 0 -33 15
-54 45 -18 25 -37 43 -42 40 -16 -10 -10 -63 9 -74 13 -8 8 -10 -27 -11 -39 0
-43 2 -27 13 15 11 17 25 14 90 l-3 77 46 0 c25 0 50 -5 57 -12z m202 -10 c-1
-21 -2 -21 -11 -5 -6 11 -22 17 -44 17 -33 0 -35 -2 -35 -35 0 -30 3 -35 23
-35 13 0 28 5 35 12 9 9 12 5 11 -17 0 -17 -3 -24 -6 -17 -2 6 -18 12 -34 12
-27 0 -29 -2 -29 -40 0 -39 1 -40 34 -40 18 0 39 7 46 15 15 19 23 14 14 -9
-5 -13 -20 -16 -78 -16 -42 0 -66 4 -58 9 10 6 13 30 10 90 l-3 81 63 0 c58 0
62 -2 62 -22z m282 10 c-12 -12 -17 -114 -6 -142 9 -23 60 -20 86 6 17 17 20
18 15 4 -4 -10 -7 -22 -7 -27 0 -5 -32 -9 -71 -9 -61 0 -70 2 -59 14 7 10 10
42 8 91 -3 74 -3 75 22 75 19 0 21 -3 12 -12z m268 -10 c-1 -21 -2 -21 -11 -5
-5 9 -21 17 -34 17 -24 0 -25 -2 -25 -75 0 -60 3 -76 18 -84 13 -8 7 -10 -28
-10 -35 0 -41 2 -27 10 14 8 17 24 17 84 0 73 -1 75 -25 75 -13 0 -29 -8 -34
-17 -9 -15 -10 -16 -11 -2 0 26 10 29 87 29 69 0 73 -1 73 -22z m68 15 c-3
-12 31 -73 41 -73 5 0 18 18 28 40 12 26 25 40 37 40 17 0 18 -2 4 -12 -46
-38 -77 -149 -45 -161 6 -3 -6 -5 -28 -5 -22 0 -34 2 -27 5 24 9 13 67 -23
121 l-36 52 26 0 c14 0 24 -3 23 -7z m-2069 -288 l20 -26 4 28 c3 18 4 13 5
-17 l1 -45 -24 30 -25 30 0 -27 c0 -16 -3 -28 -7 -28 -5 0 -8 18 -8 40 0 47 6
49 34 15z m241 5 c-8 -15 -7 -26 1 -42 11 -21 11 -22 -4 -9 -20 16 -22 42 -5
59 17 17 20 15 8 -8z m48 8 c16 -16 15 -43 -1 -57 -11 -8 -13 -4 -9 20 3 20 0
34 -9 40 -8 5 -9 9 -3 9 5 0 15 -5 22 -12z m248 1 c3 -6 1 -16 -5 -22 -8 -8
-6 -16 6 -29 10 -11 12 -18 4 -18 -6 0 -14 7 -17 15 -4 8 -11 15 -16 15 -6 0
-8 -7 -4 -15 3 -8 0 -15 -7 -15 -7 0 -12 15 -12 40 0 34 3 40 22 40 12 0 25
-5 29 -11z m251 4 c-15 -4 -18 -12 -15 -39 2 -20 0 -34 -7 -34 -7 0 -9 14 -7
34 3 27 0 35 -15 39 -10 3 0 5 22 5 22 0 32 -2 22 -5z m218 -33 c0 -22 -4 -40
-10 -40 -5 0 -10 18 -10 40 0 22 5 40 10 40 6 0 10 -18 10 -40z m45 0 c0 -22
-3 -40 -8 -40 -4 0 -7 18 -7 40 0 22 3 40 7 40 5 0 8 -18 8 -40z m216 15 c3
-14 11 -22 16 -19 5 4 8 15 5 25 -3 11 -2 19 3 19 4 0 11 -12 15 -27 5 -21 8
-24 16 -12 11 18 11 1 -1 -26 -8 -19 -9 -19 -16 4 l-7 23 -12 -21 c-11 -21
-12 -21 -27 18 -9 23 -12 41 -7 41 5 0 11 -11 15 -25z m307 18 c-18 -3 -23
-11 -23 -33 0 -22 5 -30 23 -33 17 -3 16 -5 -8 -6 -29 -1 -30 1 -30 39 0 38 1
40 30 39 24 -1 25 -3 8 -6z m235 0 c-23 -6 -23 -11 5 -33 19 -16 20 -21 8 -32
-9 -8 -12 -9 -7 -1 4 7 -2 18 -14 25 -28 18 -26 48 3 47 16 -1 18 -2 5 -6z
m259 0 c-15 -4 -18 -12 -15 -39 2 -19 0 -34 -4 -34 -4 0 -8 16 -8 36 0 28 -3
35 -15 30 -8 -3 -15 -1 -15 4 0 6 17 9 38 9 20 -1 29 -3 19 -6z m-344 -190
c-387 -2 -1019 -2 -1405 0 -387 1 -71 2 702 2 773 0 1089 -1 703 -2z"/>
<path d="M1172 1645 c-17 -37 -15 -45 13 -45 28 0 31 13 12 48 l-13 23 -12
-26z"/>
<path d="M1972 1635 c-16 -35 -16 -35 17 -35 29 0 30 1 20 30 -13 37 -22 38
-37 5z"/>
<path d="M1350 1666 c0 -29 4 -36 19 -36 10 0 24 7 32 16 16 20 1 48 -30 52
-18 3 -21 -1 -21 -32z"/>
<path d="M1600 1665 c0 -34 2 -36 28 -33 23 3 27 8 27 33 0 25 -4 30 -27 33
-26 3 -28 1 -28 -33z"/>
<path d="M930 1415 c0 -9 5 -15 11 -13 6 2 11 8 11 13 0 5 -5 11 -11 13 -6 2
-11 -4 -11 -13z"/>
<path d="M250 1192 c-1 -44 178 -340 199 -328 4 3 43 -31 86 -75 44 -43 76
-79 71 -79 -5 0 -1 -9 9 -20 25 -28 43 -25 19 3 l-19 22 22 -19 c13 -10 20
-22 18 -27 -7 -11 94 -78 193 -128 423 -213 960 -180 1345 81 32 21 55 43 52
47 -2 5 5 17 18 27 l22 19 -19 -22 c-24 -28 -6 -31 19 -3 10 11 14 20 9 20 -5
0 27 36 71 79 43 44 82 78 86 75 21 -12 171 235 193 316 l7 25 -16 -25 c-15
-23 -15 -23 -10 -2 5 18 2 22 -17 22 -19 0 -29 -13 -52 -66 -119 -266 -390
-502 -691 -603 -155 -51 -244 -65 -415 -65 -170 0 -260 14 -412 64 -298 100
-565 328 -684 585 -32 70 -43 84 -62 85 -19 0 -22 -4 -17 -22 5 -21 5 -21 -9
2 -9 14 -15 19 -16 12z m69 -109 c12 -24 19 -43 16 -43 -5 0 -45 75 -45 86 0
11 6 2 29 -43z m2271 -2 c-28 -56 -35 -52 -8 4 12 24 23 43 26 41 2 -2 -6 -22
-18 -45z m-2230 -71 c6 -11 8 -20 6 -20 -3 0 -10 9 -16 20 -6 11 -8 20 -6 20
3 0 10 -9 16 -20z m2190 0 c-6 -11 -13 -20 -16 -20 -2 0 0 9 6 20 6 11 13 20
16 20 2 0 0 -9 -6 -20z m-2124 -97 c15 -20 23 -33 16 -29 -13 8 -56 66 -49 66
3 0 17 -17 33 -37z m2064 7 c-11 -16 -26 -33 -32 -36 -7 -4 1 9 16 29 34 44
46 50 16 7z m-110 -83 c0 -2 -15 -16 -32 -33 l-33 -29 29 33 c28 30 36 37 36
29z m-1825 -27 c10 -11 16 -20 13 -20 -3 0 -13 9 -23 20 -10 11 -16 20 -13 20
3 0 13 -9 23 -20z m195 -197 c0 -7 -61 31 -73 46 -7 8 7 2 31 -14 23 -15 42
-30 42 -32z m1472 45 c-6 -7 -25 -22 -44 -32 -39 -23 -32 -13 14 20 38 26 45
29 30 12z m-1422 -74 c0 -2 -9 0 -20 6 -11 6 -20 13 -20 16 0 2 9 0 20 -6 11
-6 20 -13 20 -16z m1340 21 c0 -2 -10 -9 -22 -15 -22 -11 -22 -10 -4 4 21 17
26 19 26 11z m-1244 -73 c-5 -4 -86 36 -86 43 0 3 20 -5 45 -17 24 -12 43 -23
41 -26z m1160 23 c-11 -8 -25 -15 -30 -15 -6 1 0 7 14 15 32 19 40 18 16 0z
m-1106 -40 c14 -8 21 -14 15 -14 -5 0 -21 6 -35 14 -14 8 -20 14 -15 14 6 0
21 -6 35 -14z m1030 5 c-8 -5 -19 -10 -25 -10 -5 0 -3 5 5 10 8 5 20 10 25 10
6 0 3 -5 -5 -10z m-883 -56 c-3 -3 -12 -4 -19 -1 -8 3 -5 6 6 6 11 1 17 -2 13
-5z m730 0 c-3 -3 -12 -4 -19 -1 -8 3 -5 6 6 6 11 1 17 -2 13 -5z m-667 -14
c20 -6 21 -8 5 -8 -11 0 -29 3 -40 8 -25 11 1 11 35 0z m627 4 c-3 -3 -12 -4
-19 -1 -8 3 -5 6 6 6 11 1 17 -2 13 -5z m-400 -10 c-3 -3 -12 -4 -19 -1 -8 3
-5 6 6 6 11 1 17 -2 13 -5z m96 -1 c-13 -2 -35 -2 -50 0 -16 2 -5 4 22 4 28 0
40 -2 28 -4z m60 0 c-7 -2 -19 -2 -25 0 -7 3 -2 5 12 5 14 0 19 -2 13 -5z
m204 1 c-3 -3 -12 -4 -19 -1 -8 3 -5 6 6 6 11 1 17 -2 13 -5z m-514 -11 c-7
-2 -21 -2 -30 0 -10 3 -4 5 12 5 17 0 24 -2 18 -5z m470 0 c-7 -2 -21 -2 -30
0 -10 3 -4 5 12 5 17 0 24 -2 18 -5z m-395 -10 c-10 -2 -28 -2 -40 0 -13 2 -5
4 17 4 22 1 32 -1 23 -4z m330 0 c-10 -2 -28 -2 -40 0 -13 2 -5 4 17 4 22 1
32 -1 23 -4z m-125 -10 c-35 -2 -91 -2 -125 0 -35 2 -7 3 62 3 69 0 97 -1 63
-3z"/>
<path d="M641 1174 c-22 -28 -51 -113 -51 -149 0 -12 7 -45 16 -74 29 -97 122
-171 279 -221 99 -32 323 -39 450 -15 264 49 488 210 565 404 32 81 32 81 -65
81 l-85 0 0 -42 c0 -52 -43 -146 -93 -204 -52 -59 -161 -130 -247 -161 -66
-23 -92 -27 -215 -29 l-140 -2 120 8 c74 5 145 16 185 29 133 42 267 145 322
246 26 49 52 155 38 155 -4 0 -10 -19 -14 -41 -16 -101 -112 -224 -228 -292
-156 -91 -418 -113 -549 -46 -116 59 -128 230 -24 335 l44 44 -114 0 -114 0
-25 -33 c-62 -81 -74 -187 -32 -271 19 -38 21 -44 6 -31 -32 29 -60 102 -60
153 0 59 15 106 47 150 29 38 14 44 -16 6z"/>
<path d="M450 854 c0 -13 138 -149 144 -143 3 3 -28 38 -69 79 -41 41 -75 70
-75 64z"/>
<path d="M2370 785 c-41 -41 -70 -75 -64 -75 13 0 149 138 143 144 -3 3 -38
-28 -79 -69z"/>
</g>
</svg>
