<?xml version="1.0" standalone="no"?>
<!DOCTYPE svg PUBLIC "-//W3C//DTD SVG 20010904//EN"
 "http://www.w3.org/TR/2001/REC-SVG-20010904/DTD/svg10.dtd">
<svg version="1.0" xmlns="http://www.w3.org/2000/svg"
 width="16.000000pt" height="16.000000pt" viewBox="0 0 16.000000 16.000000"
 preserveAspectRatio="xMidYMid meet">
<metadata>
Created by potrace 1.11, written by Peter Selinger 2001-2013
</metadata>
<g transform="translate(0.000000,16.000000) scale(0.006154,-0.006154)"
fill="#000000" stroke="none">
<path d="M0 1300 l0 -1210 1300 0 1300 0 0 1210 0 1210 -1300 0 -1300 0 0
-1210z m630 965 c80 -17 153 -74 193 -149 21 -39 22 -54 24 -361 3 -353 1
-365 -62 -427 l-28 -28 25 -37 c64 -99 63 -92 66 -412 2 -253 1 -302 -14 -347
-20 -66 -78 -127 -153 -162 -50 -23 -66 -25 -215 -26 -88 -1 -166 -1 -171 1
-7 2 -10 330 -9 976 1 534 2 975 3 978 1 9 299 4 341 -6z m756 -10 c71 -21
143 -85 175 -158 l23 -52 1 -730 c1 -755 -1 -802 -40 -862 -29 -45 -76 -84
-135 -111 -50 -24 -65 -25 -218 -27 -95 0 -166 3 -169 9 -5 7 -8 1855 -4 1936
1 22 288 18 367 -5z m778 -4 c67 -33 138 -122 153 -191 10 -48 9 -91 -1 -99
-6 -5 -31 -10 -54 -9 -42 0 -42 0 -42 39 0 160 -199 243 -307 127 -54 -58 -53
-37 -50 -835 l2 -738 24 -38 c26 -43 103 -87 151 -87 36 0 96 23 123 48 11 9
28 34 38 54 18 35 19 60 17 380 l-3 343 -107 0 -108 0 0 53 0 52 162 -2 163
-3 0 -390 c1 -279 -3 -402 -11 -433 -32 -113 -145 -201 -261 -205 -107 -3
-177 32 -246 126 -50 67 -52 96 -51 868 0 637 2 720 17 769 26 84 112 168 192
187 63 15 149 8 199 -16z"/>
<path d="M390 1761 c0 -384 1 -411 18 -412 9 -1 59 -1 110 -1 128 1 181 29
216 114 13 30 15 83 13 310 l-2 274 -27 41 c-40 60 -83 77 -215 81 l-113 4 0
-411z"/>
<path d="M390 834 l0 -413 123 2 c136 3 154 10 204 75 l28 37 3 270 c4 282 0
320 -39 369 -40 51 -93 69 -211 71 l-108 1 0 -412z"/>
<path d="M1124 1297 l1 -872 103 -3 c131 -3 177 14 221 83 l29 46 0 737 c0
809 2 783 -61 833 -47 38 -81 46 -193 47 l-100 2 0 -873z"/>
</g>
</svg>
