<?xml version="1.0" standalone="no"?>
<!DOCTYPE svg PUBLIC "-//W3C//DTD SVG 20010904//EN"
 "http://www.w3.org/TR/2001/REC-SVG-20010904/DTD/svg10.dtd">
<svg version="1.0" xmlns="http://www.w3.org/2000/svg"
 width="16.000000pt" height="16.000000pt" viewBox="0 0 16.000000 16.000000"
 preserveAspectRatio="xMidYMid meet">
<metadata>
Created by potrace 1.11, written by Peter Selinger 2001-2013
</metadata>
<g transform="translate(0.000000,16.000000) scale(0.005333,-0.005333)"
fill="#000000" stroke="none">
<path d="M2347 2744 c-1 -2 -18 -6 -36 -9 -86 -15 -219 -116 -486 -370 -23
-22 -106 -101 -185 -175 -272 -257 -412 -401 -555 -573 -22 -27 -50 -60 -63
-75 -31 -37 -40 -47 -100 -122 -29 -36 -59 -72 -66 -81 -7 -9 -71 -90 -140
-180 -70 -90 -133 -171 -139 -179 -21 -26 -211 -283 -252 -340 -22 -30 -42
-57 -45 -60 -7 -7 -201 -278 -223 -313 -17 -26 -17 -27 2 -27 45 0 194 84 276
155 120 105 152 134 217 198 77 77 189 196 248 264 l35 40 100 7 c55 4 116 9
135 11 85 12 232 39 307 56 44 10 96 21 114 24 18 3 36 8 41 11 4 3 16 7 25 9
67 14 309 89 368 115 160 69 265 127 328 180 89 75 227 231 227 257 0 7 3 13
8 13 7 0 15 16 46 90 22 54 29 112 31 265 1 77 3 153 3 169 2 38 60 92 149
143 60 34 78 39 155 43 48 3 90 9 94 12 16 17 -89 128 -122 128 -5 0 -24 27
-42 60 -65 119 -188 222 -292 246 -34 7 -157 14 -163 8z"/>
</g>
</svg>
