<?xml version="1.0" standalone="no"?>
<!DOCTYPE svg PUBLIC "-//W3C//DTD SVG 20010904//EN"
 "http://www.w3.org/TR/2001/REC-SVG-20010904/DTD/svg10.dtd">
<svg version="1.0" xmlns="http://www.w3.org/2000/svg"
 width="300.000000pt" height="300.000000pt" viewBox="0 0 300.000000 300.000000"
 preserveAspectRatio="xMidYMid meet">
<metadata>
Created by potrace 1.11, written by Peter Selinger 2001-2013
</metadata>
<g transform="translate(0.000000,300.000000) scale(0.100000,-0.100000)"
fill="#000000" stroke="none">
<path d="M1529 2838 c-57 -67 -122 -143 -144 -168 -22 -26 -56 -66 -75 -89
-19 -23 -40 -48 -46 -55 -7 -7 -67 -77 -134 -157 -163 -192 -243 -287 -297
-349 -11 -14 -193 -227 -403 -475 -210 -247 -393 -463 -407 -479 l-25 -28 178
-179 c99 -98 181 -179 184 -179 3 0 49 54 102 119 l96 120 -74 68 -74 68 306
355 c169 195 329 382 356 415 28 33 67 78 87 100 20 22 74 85 121 140 47 55
87 102 90 105 3 3 43 50 90 105 47 55 99 115 115 133 17 19 34 40 38 48 4 8
11 14 15 14 5 0 228 -306 497 -679 l490 -680 192 0 193 -1 -87 118 c-48 64
-152 205 -231 312 -79 107 -152 206 -162 220 -11 14 -31 41 -45 60 l-25 34 0
417 0 417 -149 0 c-108 1 -150 -2 -153 -11 -2 -7 -3 -101 -3 -209 0 -109 0
-198 -1 -198 -1 0 -26 33 -55 73 -30 39 -110 149 -179 242 -69 94 -160 216
-202 273 l-75 103 -104 -123z"/>
<path d="M982 1330 c-11 -7 7 15 -472 -592 -198 -252 -360 -460 -360 -462 0
-8 189 -200 193 -196 2 3 28 35 58 71 81 99 112 136 299 364 94 116 179 219
188 230 9 11 35 43 57 70 21 28 42 52 45 55 3 3 16 18 28 34 12 16 23 27 23
25 2 -7 4 -489 2 -489 -3 0 -31 29 -102 105 l-55 57 -20 -24 c-74 -87 -108
-128 -136 -163 l-31 -39 166 -163 166 -163 157 0 157 0 -1 633 c-1 347 -2 637
-3 642 -1 11 -345 16 -359 5z"/>
<path d="M1532 1330 c-4 -3 -8 -292 -7 -643 l0 -637 225 1 225 0 130 161 c188
232 274 338 322 395 l42 50 -22 19 c-36 33 -182 158 -186 161 -2 1 38 57 89
124 l93 122 -19 31 c-10 17 -46 74 -81 126 l-63 95 -370 0 c-204 1 -374 -2
-378 -5z m538 -259 c0 -2 -48 -57 -106 -123 -58 -66 -103 -122 -100 -126 4 -3
88 -5 187 -5 167 1 179 0 167 -15 -13 -17 -30 -38 -70 -83 -41 -45 -136 -153
-158 -179 -12 -14 -33 -38 -48 -55 -15 -16 -45 -51 -67 -76 -22 -26 -44 -49
-50 -50 -9 -4 -17 679 -8 706 3 9 253 16 253 6z"/>
</g>
</svg>
