<?xml version="1.0" standalone="no"?>
<!DOCTYPE svg PUBLIC "-//W3C//DTD SVG 20010904//EN"
 "http://www.w3.org/TR/2001/REC-SVG-20010904/DTD/svg10.dtd">
<svg version="1.0" xmlns="http://www.w3.org/2000/svg"
 width="300.000000pt" height="300.000000pt" viewBox="0 0 300.000000 300.000000"
 preserveAspectRatio="xMidYMid meet">
<metadata>
Created by potrace 1.11, written by Peter Selinger 2001-2013
</metadata>
<g transform="translate(0.000000,300.000000) scale(0.100000,-0.100000)"
fill="#000000" stroke="none">
<path d="M2315 2121 l590 -588 -177 -106 c-98 -59 -244 -149 -325 -201 -82
-51 -278 -176 -438 -276 -382 -240 -653 -412 -745 -471 -91 -59 -81 -53 -210
-138 l-105 -70 -11 37 c-9 30 -167 412 -219 527 -7 17 -32 75 -55 130 -23 55
-48 114 -55 130 -8 17 -50 118 -96 225 -45 107 -90 213 -99 235 -10 22 -73
171 -141 330 -67 160 -127 295 -132 300 -7 7 -8 5 -4 -5 25 -64 231 -568 347
-850 335 -813 433 -1046 444 -1056 6 -6 55 -25 108 -43 113 -37 89 -43 263 65
212 130 302 186 590 371 160 102 425 272 590 377 165 106 316 203 336 216 30
20 46 45 93 152 31 71 56 132 56 137 0 6 -395 397 -796 787 -51 49 -158 153
-238 232 -81 78 -150 142 -154 142 -4 0 259 -265 583 -589z"/>
<path d="M1605 2629 c-38 -22 -81 -45 -95 -52 -14 -7 -45 -24 -70 -38 -127
-74 -388 -219 -395 -219 -4 0 -66 61 -139 134 l-131 135 -225 -125 c-331 -184
-403 -225 -408 -229 -2 -2 21 -55 78 -180 18 -38 61 -135 97 -215 36 -80 76
-170 90 -200 14 -30 43 -95 65 -145 23 -49 58 -128 79 -173 22 -46 39 -88 39
-94 0 -23 23 9 51 70 56 124 167 397 173 428 5 23 4 32 -6 31 -26 -2 -138 16
-138 22 1 3 22 16 48 28 47 22 133 69 227 123 27 15 55 37 62 47 6 10 35 77
64 148 28 72 56 135 60 140 5 7 32 9 71 5 35 -4 87 -6 116 -6 58 1 60 -3 37
-58 -11 -25 -12 -36 -4 -36 16 0 176 88 184 100 12 19 24 10 72 -52 26 -35
112 -139 191 -233 79 -93 163 -192 186 -220 60 -71 124 -144 154 -174 33 -33
23 -35 -91 -18 -49 7 -90 11 -92 8 -3 -6 -42 -182 -51 -231 -3 -14 -7 -33 -10
-42 -3 -10 -7 -29 -10 -42 -2 -13 -18 -84 -34 -157 -17 -72 -28 -134 -26 -137
8 -7 123 61 461 271 321 201 464 294 477 311 3 5 -17 33 -45 61 -68 68 -960
975 -990 1006 -47 50 -47 50 -122 8z"/>
<path d="M665 2580 c-3 -6 1 -7 9 -4 18 7 21 14 7 14 -6 0 -13 -4 -16 -10z"/>
<path d="M940 2485 c52 -55 96 -101 97 -104 2 -2 5 -2 8 0 2 3 -42 50 -98 105
l-102 99 95 -100z"/>
<path d="M1379 2563 c-13 -17 -13 -17 6 -3 11 8 22 16 24 17 2 2 0 3 -6 3 -6
0 -17 -8 -24 -17z"/>
<path d="M584 2534 c-18 -14 -18 -15 4 -4 12 6 22 13 22 15 0 8 -5 6 -26 -11z"/>
<path d="M1340 2539 c0 -5 5 -7 10 -4 6 3 10 8 10 11 0 2 -4 4 -10 4 -5 0 -10
-5 -10 -11z"/>
<path d="M1230 2484 c-118 -64 -170 -95 -170 -101 0 -3 19 6 43 20 23 13 74
41 112 62 64 34 96 55 85 55 -3 0 -34 -17 -70 -36z"/>
<path d="M505 2490 c-3 -6 1 -7 9 -4 18 7 21 14 7 14 -6 0 -13 -4 -16 -10z"/>
<path d="M470 2470 c-9 -6 -10 -10 -3 -10 6 0 15 5 18 10 8 12 4 12 -15 0z"/>
<path d="M296 2375 c-59 -34 -126 -71 -147 -81 -21 -11 -39 -22 -39 -27 0 -7
37 12 210 111 101 58 109 62 94 61 -5 0 -58 -29 -118 -64z"/>
<path d="M75 2250 c-3 -6 1 -7 9 -4 18 7 21 14 7 14 -6 0 -13 -4 -16 -10z"/>
<path d="M1047 1783 c-6 -10 -47 -115 -81 -206 -19 -49 -22 -69 -13 -72 12 -4
104 -21 177 -31 19 -3 53 -10 75 -14 22 -5 43 -6 46 -2 7 8 100 285 96 288 -2
2 -40 8 -167 25 -41 5 -87 12 -102 15 -14 3 -28 2 -31 -3z"/>
<path d="M1399 1713 c-9 -24 -52 -155 -79 -245 -5 -16 -5 -28 -1 -28 8 0 156
-25 211 -36 14 -2 48 -7 75 -10 l50 -5 38 148 c20 81 37 151 37 154 0 3 -26 9
-57 13 -32 3 -74 8 -93 11 -19 3 -52 7 -74 10 -21 3 -51 7 -67 10 -25 5 -31 1
-40 -22z"/>
<path d="M860 1303 c-30 -81 -55 -152 -55 -158 0 -9 140 -44 287 -71 l36 -6
52 161 c29 89 50 164 48 167 -3 2 -31 9 -62 14 -31 6 -82 15 -113 21 -32 6
-76 13 -98 15 l-40 6 -55 -149z"/>
<path d="M1302 1382 c-9 -3 -70 -170 -77 -212 0 -3 -9 -29 -19 -58 -10 -29
-16 -55 -14 -57 2 -2 15 -6 28 -9 14 -2 90 -18 169 -35 79 -17 147 -31 151
-31 4 0 11 15 15 33 4 17 9 37 10 42 2 6 19 69 38 141 l35 132 -42 6 c-56 8
-203 35 -246 45 -19 4 -41 6 -48 3z"/>
</g>
</svg>
