<?xml version="1.0" standalone="no"?>
<!DOCTYPE svg PUBLIC "-//W3C//DTD SVG 20010904//EN"
 "http://www.w3.org/TR/2001/REC-SVG-20010904/DTD/svg10.dtd">
<svg version="1.0" xmlns="http://www.w3.org/2000/svg"
 width="16.000000pt" height="16.000000pt" viewBox="0 0 16.000000 16.000000"
 preserveAspectRatio="xMidYMid meet">
<metadata>
Created by potrace 1.11, written by Peter Selinger 2001-2013
</metadata>
<g transform="translate(0.000000,16.000000) scale(0.005926,-0.005926)"
fill="#000000" stroke="none">
<path d="M1244 2497 c-153 -117 -423 -322 -669 -508 -453 -342 -558 -425 -556
-434 3 -16 195 -264 204 -265 5 0 34 19 65 43 31 24 62 46 68 50 8 4 11 -174
10 -621 l0 -627 989 0 989 0 0 627 c0 435 3 625 11 621 5 -4 36 -26 67 -50 31
-24 60 -43 64 -43 8 0 4 -5 104 127 41 54 82 107 92 117 21 24 21 25 -50 78
-31 24 -139 105 -239 182 l-183 138 1 282 c0 154 0 292 0 306 l-1 25 -162 -2
c-90 -1 -168 -2 -174 -2 -7 -1 -10 -52 -10 -153 1 -84 0 -161 -2 -170 -4 -15
-12 -12 -56 19 -28 21 -58 43 -66 50 -26 21 -366 280 -378 286 -5 4 -59 -31
-118 -76z m281 -506 c84 -64 164 -125 180 -136 15 -11 51 -38 79 -60 28 -22
78 -60 111 -85 33 -25 62 -47 65 -50 3 -3 47 -36 98 -74 l92 -70 0 -597 0
-596 -222 1 -223 1 0 355 c0 195 -3 360 -7 365 -4 6 -128 9 -345 8 -186 0
-340 -2 -343 -2 -3 -1 -5 -164 -5 -364 l0 -362 -222 -1 -223 -1 0 597 0 596
138 104 c75 58 144 110 152 117 112 92 507 380 514 375 6 -3 78 -58 161 -121z"/>
</g>
</svg>
