<?xml version="1.0" standalone="no"?>
<!DOCTYPE svg PUBLIC "-//W3C//DTD SVG 20010904//EN"
 "http://www.w3.org/TR/2001/REC-SVG-20010904/DTD/svg10.dtd">
<svg version="1.0" xmlns="http://www.w3.org/2000/svg"
 width="16.000000pt" height="16.000000pt" viewBox="0 0 16.000000 16.000000"
 preserveAspectRatio="xMidYMid meet">
<metadata>
Created by potrace 1.11, written by Peter Selinger 2001-2013
</metadata>
<g transform="translate(0.000000,16.000000) scale(0.003125,-0.003125)"
fill="#000000" stroke="none">
<path d="M3130 4465 c-133 -179 -244 -324 -247 -321 -3 2 -4 82 -3 178 1 201
10 198 -106 28 -43 -63 -116 -169 -161 -235 l-83 -120 0 -170 -1 -170 -374
-503 c-206 -276 -375 -505 -375 -507 0 -3 142 -5 315 -5 l315 0 0 -555 0 -555
140 0 140 0 0 400 0 400 275 0 275 0 0 -400 0 -400 545 0 545 0 2 293 c1 160
2 408 2 550 1 221 3 257 16 258 8 0 151 0 318 0 166 -1 302 0 302 2 0 2 -169
233 -375 513 -207 280 -408 554 -449 609 -361 494 -759 1031 -765 1033 -4 1
-117 -144 -251 -323z"/>
<path d="M220 1940 l0 -1500 2055 0 2055 0 0 400 0 400 -1585 0 -1585 0 0 145
0 145 528 2 527 3 3 398 2 397 -530 0 -530 0 0 155 0 155 188 0 189 0 284 382
c156 210 290 390 297 400 13 17 -19 18 -942 18 l-956 0 0 -1500z"/>
<path d="M2810 1870 l0 -340 160 0 160 0 0 340 0 340 -160 0 -160 0 0 -340z"/>
</g>
</svg>
