<?xml version="1.0" standalone="no"?>
<!DOCTYPE svg PUBLIC "-//W3C//DTD SVG 20010904//EN"
 "http://www.w3.org/TR/2001/REC-SVG-20010904/DTD/svg10.dtd">
<svg version="1.0" xmlns="http://www.w3.org/2000/svg"
 width="16.000000pt" height="16.000000pt" viewBox="0 0 16.000000 16.000000"
 preserveAspectRatio="xMidYMid meet">
<metadata>
Created by potrace 1.11, written by Peter Selinger 2001-2013
</metadata>
<g transform="translate(0.000000,16.000000) scale(0.003645,-0.003645)"
fill="#000000" stroke="none">
<path d="M2085 4134 c-161 -15 -266 -30 -365 -55 -481 -117 -889 -408 -1167
-831 -76 -115 -169 -307 -211 -433 -61 -183 -102 -423 -102 -595 0 -38 -4 -72
-10 -75 -17 -11 -11 -25 11 -25 11 0 51 -25 87 -55 37 -30 72 -55 79 -55 13 0
478 306 517 339 17 15 9 16 -119 21 l-138 5 83 60 c45 33 110 80 143 105 l60
45 1 305 1 305 180 0 180 0 0 -173 c0 -112 4 -171 10 -168 9 3 823 534 858
559 8 6 51 -17 117 -60 141 -93 1055 -690 1203 -786 64 -42 117 -79 117 -82 0
-7 -31 9 -95 50 -139 88 -123 67 35 -45 71 -50 134 -98 141 -106 10 -12 -8
-14 -121 -14 -122 0 -131 -1 -119 -17 18 -21 487 -334 511 -341 12 -3 41 15
84 52 47 40 74 56 95 56 37 0 37 15 2 32 -27 13 -28 15 -35 128 -9 155 -24
252 -60 394 -190 756 -835 1336 -1601 1441 -110 15 -307 25 -372 19z m-1163
-1556 c-6 -7 -25 -22 -44 -32 -39 -23 -32 -13 14 20 38 26 45 29 30 12z"/>
<path d="M2119 3068 c-170 -110 -753 -479 -986 -625 -145 -89 -364 -228 -487
-308 -123 -80 -231 -145 -241 -145 -9 0 -49 27 -89 60 -40 33 -79 60 -86 60
-10 0 -10 -3 0 -15 7 -8 17 -57 22 -108 19 -190 82 -419 166 -599 l45 -98
1717 0 1717 0 46 98 c81 173 149 419 164 586 6 73 8 79 42 107 31 25 33 29 14
29 -12 0 -54 -27 -93 -60 -39 -33 -79 -60 -89 -60 -9 0 -127 71 -261 158 -135
87 -299 191 -365 232 -142 88 -859 544 -1028 653 -64 43 -123 77 -131 77 -7 0
-42 -19 -77 -42z m-9 -705 l0 -198 -210 0 -210 0 0 198 0 197 210 0 210 0 0
-197z m560 0 l0 -198 -210 0 -210 0 0 198 0 197 210 0 210 0 0 -197z m-560
-560 l0 -198 -210 0 -210 0 0 198 0 197 210 0 210 0 0 -197z m560 0 l0 -198
-210 0 -210 0 0 198 0 197 210 0 210 0 0 -197z"/>
<path d="M1722 2248 c-6 -6 -12 -25 -12 -40 l0 -28 184 0 c102 0 187 4 190 8
3 5 2 22 -3 38 l-7 29 -170 3 c-123 2 -173 -1 -182 -10z"/>
<path d="M2282 2248 c-6 -6 -12 -25 -12 -40 l0 -28 184 0 c102 0 187 4 190 8
3 5 2 22 -3 38 l-7 29 -170 3 c-123 2 -173 -1 -182 -10z"/>
<path d="M1722 1688 c-6 -6 -12 -25 -12 -40 l0 -28 184 0 c102 0 187 4 190 8
3 5 2 22 -3 38 l-7 29 -170 3 c-123 2 -173 -1 -182 -10z"/>
<path d="M2282 1688 c-6 -6 -12 -25 -12 -40 l0 -28 184 0 c102 0 187 4 190 8
3 5 2 22 -3 38 l-7 29 -170 3 c-123 2 -173 -1 -182 -10z"/>
<path d="M255 1661 c15 -188 182 -524 377 -756 591 -705 1578 -921 2413 -526
393 186 737 524 933 916 52 106 103 254 108 318 l5 62 -20 -36 c-11 -20 -38
-82 -61 -138 -210 -528 -618 -936 -1133 -1135 -516 -200 -1047 -177 -1542 64
-206 101 -356 208 -523 373 -205 202 -345 411 -456 682 -24 61 -58 139 -75
175 l-31 65 5 -64z"/>
<path d="M510 1215 c30 -80 191 -284 327 -416 294 -285 648 -460 1064 -525
139 -22 419 -22 558 0 416 65 770 240 1064 525 136 132 297 336 327 416 l10
25 -1680 0 -1680 0 10 -25z"/>
<path d="M3909 1113 c-106 -162 -293 -368 -449 -493 -620 -495 -1463 -591
-2173 -247 -293 142 -545 347 -744 606 -75 98 -95 119 -68 76 80 -131 281
-350 424 -464 127 -101 229 -165 386 -241 409 -200 864 -257 1313 -165 296 61
605 203 842 388 182 142 390 377 495 560 40 69 24 57 -26 -20z"/>
</g>
</svg>
