<?xml version="1.0" standalone="no"?>
<!DOCTYPE svg PUBLIC "-//W3C//DTD SVG 20010904//EN"
 "http://www.w3.org/TR/2001/REC-SVG-20010904/DTD/svg10.dtd">
<svg version="1.0" xmlns="http://www.w3.org/2000/svg"
 width="16.000000pt" height="16.000000pt" viewBox="0 0 16.000000 16.000000"
 preserveAspectRatio="xMidYMid meet">
<metadata>
Created by potrace 1.11, written by Peter Selinger 2001-2013
</metadata>
<g transform="translate(0.000000,16.000000) scale(0.005333,-0.005333)"
fill="#000000" stroke="none">
<path d="M1248 2945 c-2 -2 -23 -6 -48 -9 -168 -20 -302 -111 -368 -248 -72
-151 -75 -302 -11 -512 28 -93 107 -291 164 -413 25 -53 45 -100 45 -104 0 -5
-15 -16 -32 -25 -120 -61 -322 -222 -409 -325 -130 -155 -180 -273 -185 -439
-12 -369 218 -677 586 -786 164 -48 419 -33 581 35 67 28 156 83 197 122 l24
21 41 -42 c89 -91 173 -126 304 -129 307 -7 471 180 459 524 -8 233 -103 456
-271 643 l-57 63 6 117 c4 64 9 131 11 147 3 17 7 43 10 59 11 72 108 146 191
146 20 0 24 5 24 28 l0 28 -332 -2 c-183 0 -336 -2 -340 -3 -3 0 -4 -9 -1 -19
2 -11 15 -19 33 -20 53 -4 158 -42 206 -75 47 -31 89 -90 100 -139 8 -37 12
-156 5 -166 -3 -6 -89 50 -189 122 -180 130 -314 207 -419 241 -29 10 -53 21
-53 26 0 5 3 9 8 9 15 0 122 97 160 145 117 150 166 355 123 524 -18 72 -76
211 -102 245 -107 142 -215 202 -375 210 -45 2 -84 3 -86 1z m138 -69 c212
-56 338 -234 343 -482 4 -208 -66 -370 -212 -485 -27 -22 -55 -39 -62 -39 -12
0 -33 35 -139 232 -121 227 -206 455 -206 552 0 190 99 269 276 222z m326
-1242 c154 -77 273 -157 406 -272 l63 -54 -7 -77 c-3 -42 -8 -89 -10 -106 -2
-16 -6 -48 -9 -70 -10 -75 -100 -345 -115 -345 -3 0 -29 46 -58 103 -29 56
-88 170 -130 252 -43 83 -120 231 -171 330 -52 99 -109 208 -127 242 -19 34
-34 67 -34 72 0 12 81 -19 192 -75z m-612 -117 c0 -2 29 -56 64 -120 34 -63
66 -121 69 -128 4 -8 120 -221 260 -474 l253 -460 -30 -20 c-17 -10 -33 -22
-36 -25 -11 -14 -147 -86 -182 -96 -145 -44 -286 52 -453 310 -72 110 -190
341 -199 389 -2 6 -8 32 -15 57 -29 100 -34 218 -14 304 27 116 110 233 210
293 l36 22 19 -24 c10 -13 18 -25 18 -28z m1206 -345 c7 -7 36 -50 64 -97 141
-233 190 -429 153 -613 -38 -187 -149 -230 -275 -108 -73 71 -166 228 -155
264 3 9 28 67 55 127 61 136 77 197 99 385 3 30 7 62 9 70 1 8 3 19 3 25 1 5
9 -2 18 -15 9 -14 23 -31 29 -38z"/>
</g>
</svg>
