<?xml version="1.0" standalone="no"?>
<!DOCTYPE svg PUBLIC "-//W3C//DTD SVG 20010904//EN"
 "http://www.w3.org/TR/2001/REC-SVG-20010904/DTD/svg10.dtd">
<svg version="1.0" xmlns="http://www.w3.org/2000/svg"
 width="300.000000pt" height="300.000000pt" viewBox="0 0 300.000000 300.000000"
 preserveAspectRatio="xMidYMid meet">
<metadata>
Created by potrace 1.11, written by Peter Selinger 2001-2013
</metadata>
<g transform="translate(0.000000,300.000000) scale(0.100000,-0.100000)"
fill="#000000" stroke="none">
<path d="M480 1570 l0 -680 95 0 95 0 0 160 0 159 67 66 c36 36 70 62 74 58 4
-4 21 -42 38 -83 16 -41 57 -138 90 -215 l60 -140 96 -3 c52 -1 95 0 95 4 0 5
-77 192 -115 279 -12 28 -121 285 -132 311 -2 7 20 38 49 70 29 32 70 76 90
99 l37 40 11 -30 c6 -16 17 -43 25 -60 27 -60 275 -634 291 -674 15 -38 19
-41 54 -41 21 0 40 6 43 12 31 76 231 550 240 571 14 31 23 34 29 10 3 -10 60
-147 128 -305 l123 -288 37 0 36 0 114 263 c62 144 151 349 197 454 46 106 83
196 83 199 0 3 -44 4 -97 2 l-97 -3 -113 -260 c-62 -143 -112 -266 -113 -272
0 -15 -20 -18 -20 -3 0 6 -9 29 -19 53 -20 45 -93 218 -161 384 l-42 102 -68
-1 -69 -1 -29 -71 c-16 -39 -66 -158 -111 -264 -44 -106 -81 -197 -81 -202 0
-32 -23 8 -82 148 -37 86 -90 209 -117 272 l-51 115 -128 1 -128 2 -164 -165
-165 -165 -3 386 -2 386 -95 0 -95 0 0 -680z"/>
</g>
</svg>
