<?xml version="1.0" standalone="no"?>
<!DOCTYPE svg PUBLIC "-//W3C//DTD SVG 20010904//EN"
 "http://www.w3.org/TR/2001/REC-SVG-20010904/DTD/svg10.dtd">
<svg version="1.0" xmlns="http://www.w3.org/2000/svg"
 width="300.000000pt" height="300.000000pt" viewBox="0 0 300.000000 300.000000"
 preserveAspectRatio="xMidYMid meet">
<metadata>
Created by potrace 1.11, written by Peter Selinger 2001-2013
</metadata>
<g transform="translate(0.000000,300.000000) scale(0.100000,-0.100000)"
fill="#000000" stroke="none">
<path d="M822 1997 c335 -326 429 -420 426 -428 -3 -6 -204 -221 -328 -349
-109 -112 -257 -268 -267 -280 -10 -13 11 -15 169 -12 l180 3 46 51 c69 75 88
95 187 202 50 54 104 114 122 133 l32 35 138 -109 c76 -59 147 -116 158 -125
11 -9 83 -67 160 -128 77 -61 147 -116 155 -123 8 -7 69 -55 135 -107 66 -52
134 -105 151 -119 17 -15 48 -39 69 -56 22 -16 78 -61 125 -99 152 -123 207
-180 -580 594 -215 212 -455 447 -533 523 -78 77 -242 238 -364 358 l-223 219
-72 0 -73 0 187 -183z"/>
<path d="M878 2161 c19 -16 291 -273 393 -371 20 -19 98 -93 174 -165 75 -71
168 -159 205 -195 86 -82 328 -312 400 -380 30 -29 120 -113 199 -188 79 -76
166 -159 195 -186 28 -26 95 -90 148 -142 53 -52 100 -94 104 -94 4 0 -22 30
-57 67 -35 38 -68 73 -74 79 -5 6 -51 56 -101 110 -50 54 -113 123 -140 153
-27 30 -63 69 -80 87 -17 18 -73 79 -125 135 -52 56 -107 117 -124 135 -105
113 -138 149 -205 224 -41 46 -86 93 -98 104 -13 12 -33 34 -44 49 l-20 28
189 190 c103 104 229 232 279 284 l91 95 -177 0 -177 0 -94 -102 c-52 -57
-103 -112 -114 -124 -11 -11 -53 -57 -94 -102 -41 -45 -79 -82 -85 -82 -5 0
-41 33 -79 73 -37 39 -127 132 -200 205 l-131 132 -90 0 c-88 0 -89 0 -68 -19z"/>
</g>
</svg>
