<?xml version="1.0" standalone="no"?>
<!DOCTYPE svg PUBLIC "-//W3C//DTD SVG 20010904//EN"
 "http://www.w3.org/TR/2001/REC-SVG-20010904/DTD/svg10.dtd">
<svg version="1.0" xmlns="http://www.w3.org/2000/svg"
 width="426.000000pt" height="426.000000pt" viewBox="0 0 426.000000 426.000000"
 preserveAspectRatio="xMidYMid meet">
<metadata>
Created by potrace 1.11, written by Peter Selinger 2001-2013
</metadata>
<g transform="translate(0.000000,426.000000) scale(0.100000,-0.100000)"
fill="#000000" stroke="none">
<path d="M2060 4223 c-572 -48 -1071 -296 -1411 -702 -271 -323 -437 -705
-489 -1126 -13 -99 -16 -379 -6 -465 32 -267 84 -451 192 -678 184 -387 458
-679 839 -894 185 -104 449 -200 645 -234 25 -4 47 -8 50 -9 3 -1 37 -5 75 -9
39 -5 79 -10 90 -12 31 -6 364 -5 415 2 216 28 343 57 490 111 228 84 425 213
620 405 106 103 273 288 291 321 12 20 27 29 -191 -114 -342 -226 -666 -375
-974 -449 -190 -46 -226 -49 -476 -46 -258 4 -363 18 -557 76 -634 188 -1106
682 -1259 1318 -184 761 123 1563 757 1979 344 225 760 325 1209 292 793 -59
1428 -601 1520 -1297 74 -554 -132 -1057 -548 -1340 -311 -212 -524 -205 -497
16 4 31 47 282 95 557 49 275 116 655 150 845 33 190 62 355 65 368 l5 22
-143 0 -143 0 -29 -157 c-41 -228 -33 -215 -80 -146 -64 93 -181 203 -262 246
-107 56 -204 78 -358 82 -314 8 -562 -83 -760 -280 -174 -173 -297 -392 -362
-649 -32 -130 -41 -393 -17 -521 31 -167 89 -302 179 -420 57 -74 67 -85 155
-154 187 -148 480 -207 715 -146 101 27 239 102 315 172 l67 63 7 -53 c15
-113 68 -176 179 -213 233 -79 719 113 1023 403 315 301 469 687 463 1157 -6
447 -186 831 -549 1172 -192 179 -421 319 -661 402 -233 82 -588 126 -839 105z
m247 -1338 c125 -37 250 -144 310 -267 84 -173 89 -410 16 -693 -55 -213 -136
-367 -248 -474 -306 -291 -800 -177 -959 223 -45 112 -59 211 -53 371 8 209
50 347 153 500 85 127 197 231 312 289 57 29 172 64 227 69 71 6 188 -2 242
-18z"/>
</g>
</svg>
