<?xml version="1.0" standalone="no"?>
<!DOCTYPE svg PUBLIC "-//W3C//DTD SVG 20010904//EN"
 "http://www.w3.org/TR/2001/REC-SVG-20010904/DTD/svg10.dtd">
<svg version="1.0" xmlns="http://www.w3.org/2000/svg"
 width="300.000000pt" height="300.000000pt" viewBox="0 0 300.000000 300.000000"
 preserveAspectRatio="xMidYMid meet">
<metadata>
Created by potrace 1.11, written by Peter Selinger 2001-2013
</metadata>
<g transform="translate(0.000000,300.000000) scale(0.100000,-0.100000)"
fill="#000000" stroke="none">
<path d="M1484 2589 c-4 -8 -3 -9 4 -5 7 4 12 2 12 -3 0 -6 -4 -11 -9 -11 -5
0 -11 -15 -15 -32 -8 -45 -9 -48 -29 -87 -9 -18 -14 -37 -11 -42 3 -5 1 -9 -4
-9 -5 0 -17 -17 -28 -37 -10 -21 -23 -43 -29 -49 -5 -7 -21 -26 -35 -43 -74
-93 -174 -112 -267 -50 -29 19 -55 42 -59 52 -7 21 -31 17 -25 -4 2 -8 4 -23
6 -34 1 -11 3 -20 5 -20 2 0 8 -38 14 -90 2 -22 5 -40 6 -40 1 0 4 -13 6 -30
7 -44 12 -69 15 -75 1 -3 3 -9 4 -15 1 -5 5 -29 9 -53 4 -23 10 -53 12 -67 2
-14 6 -36 8 -49 2 -14 8 -39 12 -58 4 -18 8 -37 9 -43 0 -5 11 -9 23 -7 30 4
72 -23 72 -48 0 -24 8 -29 53 -32 21 -1 37 -6 37 -11 0 -18 -35 -67 -52 -73
-9 -3 -15 -11 -12 -19 3 -8 12 -11 20 -8 8 3 14 0 14 -7 0 -6 4 -9 8 -6 5 3
33 -10 63 -29 30 -19 52 -35 49 -36 -3 0 -24 -1 -47 -2 -24 0 -43 -4 -43 -8 0
-19 14 -39 26 -39 8 0 14 -4 14 -9 0 -5 11 -8 25 -5 14 2 25 1 25 -3 0 -12
-20 -39 -20 -28 0 6 -4 4 -8 -2 -5 -7 -20 -14 -35 -15 -22 -2 -24 -5 -14 -18
20 -25 41 -39 60 -40 9 0 17 -4 17 -9 0 -6 8 -8 18 -6 43 8 41 -12 -3 -35 -56
-29 -53 -46 6 -43 57 2 77 7 91 21 7 7 15 12 19 12 4 0 33 16 65 35 32 19 66
35 76 35 10 0 18 4 18 8 0 5 12 9 28 10 15 0 36 3 47 5 11 2 24 2 29 -1 4 -2
25 -5 45 -6 23 -1 65 -18 110 -44 40 -23 77 -42 82 -42 5 0 9 -4 9 -9 0 -5 14
-14 30 -21 17 -7 30 -16 30 -20 0 -13 83 -35 128 -33 61 1 130 39 151 82 16
34 18 52 7 96 -2 11 -5 23 -5 27 -1 11 -43 48 -71 61 -26 13 -304 17 -316 4
-11 -11 -66 6 -88 27 -43 42 -55 117 -23 141 16 12 29 47 33 90 1 17 3 30 4
30 4 0 22 104 25 141 1 17 5 35 8 41 4 6 7 25 9 44 1 19 5 39 9 44 3 6 9 30
13 55 3 25 9 61 13 80 4 19 7 47 7 63 1 15 3 27 6 27 3 0 7 14 8 31 1 17 7 40
13 50 7 14 6 19 -3 19 -9 0 -9 3 0 12 7 7 12 17 12 22 0 6 -21 -10 -47 -35
-120 -116 -232 -99 -345 52 -45 61 -120 239 -111 266 6 16 -14 26 -23 12z"/>
<path d="M775 1890 c-3 -11 -11 -20 -16 -20 -5 0 -8 -3 -7 -7 4 -13 -35 -72
-44 -67 -4 3 -8 1 -8 -5 0 -14 -61 -49 -114 -65 -51 -16 -166 -17 -166 -2 0 5
-3 7 -6 3 -8 -8 -64 12 -96 35 -33 23 -35 11 -8 -42 11 -21 22 -57 25 -80 3
-23 8 -46 11 -51 3 -5 1 -9 -4 -9 -6 0 -8 -8 -5 -18 2 -9 -1 -38 -7 -62 -6
-25 -12 -51 -12 -57 -1 -7 -4 -13 -7 -13 -3 0 -12 -13 -19 -29 -18 -42 -69
-89 -110 -102 l-36 -12 76 -71 c42 -39 100 -91 129 -116 28 -25 68 -61 89 -80
72 -69 158 -140 168 -140 6 0 24 11 40 25 19 16 33 21 37 15 3 -6 20 -7 38 -4
18 3 38 7 45 8 7 1 23 11 35 22 53 47 73 48 121 3 11 -11 23 -19 28 -19 24 0
-13 76 -42 85 -11 4 -20 15 -20 26 0 24 -26 36 -49 23 -17 -11 -51 -7 -51 5 0
4 20 22 45 40 29 20 42 37 38 46 -5 16 -43 21 -43 6 0 -5 -11 -8 -25 -8 -14 0
-25 3 -25 8 0 5 4 9 9 9 5 0 17 20 26 44 9 24 27 49 41 56 13 8 24 17 24 21 0
9 -35 30 -41 25 -2 -2 -10 2 -17 10 -14 15 -17 14 58 19 19 1 43 3 53 4 31 2
15 33 -23 46 -28 9 -42 9 -79 -5 -61 -24 -107 -10 -117 34 -9 38 -12 79 -7 88
8 15 31 -4 38 -30 3 -15 16 -37 28 -50 19 -21 27 -22 88 -16 44 4 69 2 73 -5
14 -22 36 -11 36 17 0 52 -34 73 -102 63 -4 -1 -14 -8 -22 -17 -9 -9 -16 -11
-16 -4 0 6 -5 8 -11 4 -6 -3 -15 0 -20 7 -11 18 -11 32 -1 25 5 -3 7 5 6 17
-1 12 -3 22 -4 22 -1 0 -3 8 -5 17 -2 11 3 15 16 13 10 -2 21 1 24 6 4 5 10 7
14 5 8 -6 51 30 51 42 0 4 20 6 45 5 47 -1 61 8 48 30 -10 17 -97 118 -138
161 -17 17 -40 44 -52 59 -20 26 -22 27 -28 7z"/>
<path d="M2154 1844 c-27 -30 -58 -66 -69 -78 -11 -13 -46 -52 -77 -87 -31
-35 -66 -75 -78 -89 l-21 -25 20 -9 c12 -5 21 -14 22 -20 0 -6 2 -19 4 -28 2
-10 -1 -20 -6 -24 -5 -3 -7 -9 -4 -14 3 -4 -2 -13 -10 -20 -25 -20 0 -53 36
-48 16 3 29 2 29 -1 0 -3 11 -6 25 -6 14 0 25 2 25 5 0 7 189 3 218 -4 12 -3
31 -8 42 -10 34 -8 70 -40 76 -68 4 -16 10 -28 14 -28 4 0 7 -22 6 -50 0 -27
-4 -50 -8 -50 -4 0 -8 -5 -8 -11 0 -13 -40 -65 -40 -53 0 5 -7 0 -16 -11 -8
-11 -18 -20 -22 -20 -4 -1 -17 -6 -30 -14 -68 -37 -218 -32 -268 10 -16 13
-35 -13 -38 -50 -1 -17 4 -33 11 -35 7 -3 10 -12 7 -19 -5 -14 25 -78 51 -107
8 -8 39 -28 69 -44 30 -16 53 -33 49 -39 -3 -5 -9 -4 -13 3 -12 20 -28 3 -22
-25 2 -14 7 -24 9 -21 3 3 16 -6 30 -20 30 -30 34 -30 71 4 17 16 61 55 98 88
36 32 81 73 99 89 17 17 63 58 101 91 38 34 81 73 95 85 14 13 61 56 104 94
43 39 84 76 92 83 14 15 18 36 4 28 -14 -9 -68 22 -100 59 -35 40 -77 127 -72
149 1 5 -3 22 -8 37 -5 16 -7 29 -3 29 4 0 6 17 5 38 -1 21 9 63 23 97 36 87
38 93 22 73 -12 -14 -50 -35 -80 -43 -5 -2 -9 -3 -10 -5 -15 -11 -167 -22
-183 -12 -5 4 -19 8 -30 9 -26 5 -96 47 -115 70 -31 37 -65 88 -62 93 2 2 0 6
-5 7 -5 2 -31 -22 -59 -53z"/>
<path d="M1541 959 c-13 -5 -47 -33 -75 -62 -28 -28 -58 -52 -66 -53 -33 -1
-105 -27 -131 -46 -34 -26 -53 -72 -39 -98 17 -32 12 -39 -19 -30 -26 7 -29 6
-27 -16 0 -13 4 -24 7 -24 10 0 17 -50 9 -55 -4 -3 -13 2 -20 10 -7 8 -9 15
-4 15 5 0 2 5 -6 10 -19 12 -32 -17 -19 -42 6 -10 5 -19 -1 -23 -6 -4 -7 -13
-1 -23 8 -15 25 -17 113 -17 90 1 108 4 131 22 14 11 23 23 20 27 -3 3 2 6 13
6 16 0 17 2 4 10 -11 7 -11 10 -2 10 7 0 10 5 7 10 -4 6 9 17 27 24 44 19 87
53 84 69 -1 7 -12 29 -24 48 -12 20 -22 41 -22 48 0 6 -4 11 -9 11 -21 0 -1
51 38 98 47 55 52 86 12 71z"/>
<path d="M1052 918 c-12 -6 -21 -16 -20 -22 5 -29 -14 -86 -30 -87 -9 -1 -25
-2 -34 -3 -9 -1 -26 -9 -38 -18 -24 -21 -72 -26 -52 -6 24 24 13 36 -25 31
-21 -3 -44 -10 -50 -15 -7 -6 -24 -8 -38 -6 -47 9 -47 -20 0 -68 36 -36 80
-115 56 -100 -4 3 -6 -7 -3 -23 3 -20 -4 -35 -29 -59 -17 -17 -37 -28 -43 -25
-6 3 -8 2 -3 -2 9 -11 207 -13 207 -2 0 4 11 12 25 19 13 6 22 14 19 19 -2 4
9 23 25 41 20 23 27 39 21 48 -4 7 -6 25 -3 39 3 14 7 35 8 46 2 11 4 20 5 20
2 0 9 29 15 65 9 48 17 120 14 119 -2 0 -14 -5 -27 -11z"/>
<path d="M1728 918 c-3 -7 0 -22 8 -32 7 -11 11 -23 8 -27 -3 -5 -1 -9 3 -9 5
0 13 -8 20 -18 9 -15 8 -19 -3 -19 -7 0 -11 4 -9 8 3 3 -4 9 -15 12 -11 3 -22
2 -25 -2 -5 -10 17 -74 29 -82 5 -4 5 -12 1 -19 -5 -8 -16 -3 -37 17 l-31 28
7 -30 c11 -51 12 -54 19 -61 4 -4 7 -18 7 -31 0 -28 -26 -31 -47 -5 -12 15
-13 14 -12 -13 2 -49 1 -51 -42 -68 -40 -16 -41 -17 -27 -39 14 -21 21 -22
177 -23 l161 0 30 28 c17 15 30 38 30 49 0 12 3 18 6 15 4 -3 15 -2 25 4 20
10 27 69 9 69 -5 0 -10 8 -10 18 0 20 -39 62 -58 62 -7 0 -12 4 -12 8 0 4 -11
9 -25 10 -34 3 -144 86 -145 110 0 4 -9 18 -19 31 -14 18 -19 20 -23 9z"/>
<path d="M2370 651 c0 -5 8 -7 18 -5 28 8 62 -31 59 -68 -2 -24 -10 -35 -37
-49 -19 -11 -33 -19 -30 -20 3 0 13 -2 22 -4 10 -2 16 0 15 5 -1 4 2 8 6 9 19
1 40 35 40 64 0 20 -8 38 -27 54 -27 23 -66 31 -66 14z"/>
<path d="M2337 623 c5 -12 3 -14 -7 -8 -8 5 -11 4 -6 -3 3 -6 2 -13 -3 -16
-13 -9 8 -61 31 -75 11 -7 18 -7 18 -1 0 5 -3 10 -8 10 -4 0 -13 9 -20 21 -11
17 -11 27 -2 50 7 16 17 26 23 22 6 -3 7 -1 3 5 -11 19 -36 15 -29 -5z"/>
<path d="M2405 609 c4 -6 -2 -8 -17 -4 -22 6 -24 3 -24 -24 1 -40 16 -52 16
-12 0 19 4 30 10 26 6 -4 7 -11 4 -17 -4 -6 0 -14 7 -19 23 -15 30 -10 17 11
-11 17 -10 22 0 29 11 7 10 9 -3 14 -10 4 -14 3 -10 -4z"/>
<path d="M2161 564 c2 -10 0 -25 -5 -32 -4 -7 -6 -15 -4 -18 9 -9 67 -11 80
-3 8 6 9 9 1 9 -6 0 -26 14 -43 32 -25 25 -31 27 -29 12z"/>
</g>
</svg>
