<?xml version="1.0" standalone="no"?>
<!DOCTYPE svg PUBLIC "-//W3C//DTD SVG 20010904//EN"
 "http://www.w3.org/TR/2001/REC-SVG-20010904/DTD/svg10.dtd">
<svg version="1.0" xmlns="http://www.w3.org/2000/svg"
 width="300.000000pt" height="300.000000pt" viewBox="0 0 300.000000 300.000000"
 preserveAspectRatio="xMidYMid meet">
<metadata>
Created by potrace 1.11, written by Peter Selinger 2001-2013
</metadata>
<g transform="translate(0.000000,300.000000) scale(0.100000,-0.100000)"
fill="#000000" stroke="none">
<path d="M1290 2083 c0 -8 -18 -11 -54 -10 -62 3 -55 8 -158 -120 -37 -45 -69
-79 -72 -76 -3 4 -6 -1 -6 -9 0 -9 -7 -19 -16 -22 -9 -4 -14 -9 -11 -12 4 -5
-21 -37 -75 -95 -9 -9 -21 -27 -28 -38 -6 -12 -18 -21 -26 -21 -8 0 -12 -4 -9
-10 3 -5 2 -10 -3 -10 -5 0 -9 -6 -9 -13 0 -8 6 -14 13 -14 7 0 10 5 7 11 -4
6 0 6 8 -1 12 -10 20 -7 42 18 14 16 26 32 26 34 1 5 21 28 76 91 11 12 36 42
55 65 19 24 43 51 53 61 9 10 17 20 17 23 0 3 3 5 7 4 7 -1 25 29 21 34 -2 2
10 15 25 30 29 26 63 27 53 0 -3 -8 -2 -12 2 -9 4 2 17 -9 27 -25 11 -16 23
-29 28 -29 4 0 7 -5 7 -11 0 -6 13 -23 30 -39 16 -15 26 -30 23 -34 -3 -3 0
-6 7 -6 7 0 11 -3 7 -6 -8 -8 16 -33 26 -27 4 2 7 -2 7 -10 0 -8 9 -22 20 -32
11 -10 20 -24 20 -32 0 -8 5 -11 10 -8 6 3 10 -1 10 -9 0 -9 4 -16 8 -16 4 0
15 -12 24 -27 9 -16 28 -40 42 -55 14 -15 26 -30 26 -33 0 -3 12 -17 26 -30
15 -14 24 -25 20 -25 -4 0 4 -11 18 -24 13 -14 26 -31 28 -38 4 -10 105 -13
509 -14 277 0 510 2 518 5 11 3 10 7 -5 18 -10 7 -14 13 -10 13 5 0 -2 9 -15
20 -13 10 -20 19 -16 20 4 0 -5 12 -20 28 -16 15 -39 43 -53 62 -14 19 -32 42
-40 51 -46 51 -69 79 -65 79 3 0 -11 17 -30 37 -19 20 -33 38 -31 41 2 2 -10
17 -26 33 -17 16 -28 29 -24 29 4 0 -4 11 -18 24 -15 13 -26 28 -26 35 0 6 -7
11 -16 11 -9 0 -14 5 -12 12 2 6 -10 26 -28 44 -18 17 -30 35 -26 40 4 4 2 4
-5 0 -6 -3 -14 -2 -18 4 -8 13 -55 9 -55 -5 0 -6 -3 -7 -8 0 -9 13 -46 19 -38
7 3 -6 -2 -8 -14 -5 -11 3 -17 10 -13 17 4 6 -1 5 -10 -3 -13 -10 -20 -11 -31
-2 -10 8 -16 9 -21 1 -3 -6 -11 -8 -16 -5 -5 4 -9 0 -9 -7 0 -8 -3 -9 -8 -3
-10 15 -46 19 -37 5 6 -9 2 -9 -14 -1 -11 7 -21 8 -21 4 0 -4 -5 -1 -10 7 -5
8 -10 10 -10 4 0 -6 -14 -11 -30 -12 -20 0 -28 3 -24 10 5 7 2 8 -7 2 -22 -13
-42 -14 -58 -1 -8 7 -12 7 -8 1 4 -7 -16 -11 -59 -11 -41 0 -64 3 -64 11 0 7
-4 6 -9 -2 -9 -15 -42 -13 -53 3 -5 6 -8 6 -8 -1 0 -6 -14 -11 -30 -12 -20 0
-28 3 -24 10 5 7 2 8 -7 2 -22 -13 -42 -14 -58 -1 -9 7 -12 7 -8 1 9 -15 -116
-15 -125 0 -6 8 -8 8 -8 -1z"/>
<path d="M1099 1845 c-5 -102 -3 -178 6 -183 11 -7 206 -10 199 -3 -2 2 4 10
14 18 16 14 16 14 0 9 -14 -4 -16 -1 -8 18 5 13 6 26 4 29 -3 3 -1 14 5 26 9
16 8 22 -6 30 -10 6 -13 11 -8 11 6 0 10 10 10 23 0 21 -5 24 -44 26 -25 1
-48 4 -53 7 -4 3 -8 0 -8 -7 0 -8 -4 -8 -13 -1 -8 7 -18 7 -27 2 -9 -6 -17 -5
-22 3 -6 9 -8 8 -8 -3 0 -13 -1 -13 -10 0 -9 13 -10 13 -10 0 0 -13 -1 -13
-10 0 -8 12 -10 12 -11 -5z"/>
<path d="M824 1552 c4 -7 -12 -10 -54 -8 -33 2 -60 -1 -60 -5 0 -5 -9 -4 -19
3 -17 10 -24 6 -57 -28 -22 -21 -39 -42 -39 -46 0 -4 -10 -15 -22 -23 -13 -9
-23 -21 -23 -26 0 -5 -11 -20 -25 -33 -14 -13 -25 -27 -25 -31 0 -4 -15 -23
-32 -40 -37 -37 -72 -77 -108 -125 -14 -18 -36 -44 -50 -58 -14 -13 -20 -22
-13 -18 6 3 15 2 18 -4 5 -8 11 -8 19 -1 7 6 15 9 17 8 2 -2 12 5 22 15 9 10
15 18 12 18 -3 0 3 9 12 19 9 11 21 17 27 14 6 -3 8 -3 4 2 -10 10 10 47 22
40 5 -3 12 5 15 16 4 12 25 40 46 63 22 22 39 44 39 49 0 4 4 6 9 3 5 -3 12 6
15 19 4 14 10 24 14 21 4 -2 18 11 31 30 13 19 28 34 33 34 5 0 7 4 3 9 -10
17 27 30 42 16 7 -8 13 -16 13 -19 0 -3 8 -14 18 -24 9 -10 26 -31 37 -46 11
-16 25 -33 30 -40 21 -24 61 -74 80 -100 11 -16 27 -36 35 -45 9 -9 29 -34 45
-56 16 -21 36 -47 45 -57 8 -9 24 -29 35 -43 11 -14 32 -40 47 -58 14 -17 24
-35 22 -39 -3 -5 0 -7 8 -6 7 2 12 -3 10 -11 -2 -8 3 -11 12 -8 8 3 17 1 20
-6 3 -8 5 -9 5 -1 1 8 12 9 36 4 24 -5 35 -4 35 4 0 6 5 4 10 -4 8 -12 10 -12
10 -1 0 11 3 11 17 0 12 -10 15 -11 9 -1 -7 12 15 11 62 -4 6 -2 12 2 12 9 0
8 4 6 10 -3 5 -8 10 -10 10 -4 0 12 41 11 59 -1 6 -3 11 -2 11 3 0 6 14 7 35
2 24 -5 35 -4 35 4 0 6 5 4 10 -4 5 -8 10 -10 10 -4 0 12 41 11 59 -1 6 -3 11
-2 11 3 0 6 14 7 35 2 22 -5 35 -4 35 2 0 6 8 4 17 -3 11 -10 14 -10 9 -1 -4
6 -2 12 3 12 6 0 11 -6 11 -12 0 -10 2 -10 9 0 4 8 11 13 15 13 16 -2 15 1 -6
23 -40 41 -73 87 -71 97 2 5 -3 9 -10 9 -8 0 -20 11 -27 25 -7 14 -17 25 -22
25 -4 0 -8 7 -8 15 0 8 -7 15 -16 15 -8 0 -12 5 -9 10 3 6 1 10 -5 10 -6 0
-14 8 -17 17 -4 9 -14 24 -22 33 -26 27 -55 65 -55 70 0 3 -18 23 -40 45 -22
22 -39 42 -39 45 1 5 -39 57 -64 85 -7 7 -13 19 -13 25 0 6 -4 9 -9 6 -5 -4
-15 6 -22 22 -11 25 -16 27 -63 26 -28 0 -57 4 -65 10 -11 8 -13 8 -8 -1 9
-14 -89 -13 -112 1 -10 6 -12 5 -7 -3 9 -13 -51 -10 -74 4 -8 5 -11 4 -6 -3 8
-13 -92 -11 -113 2 -9 6 -12 5 -7 -2z"/>
<path d="M2037 1363 c-4 -4 -22 -8 -40 -9 -17 0 -34 -2 -37 -3 -8 -2 -6 -291
2 -291 4 0 5 -6 2 -14 -4 -10 2 -13 23 -11 15 2 35 6 44 10 10 3 20 2 24 -4 4
-8 12 -8 25 -1 13 7 21 7 25 0 6 -9 63 -5 74 6 8 8 7 304 -1 304 -16 0 -23 2
-39 11 -9 4 -19 5 -23 1 -10 -9 -60 -9 -67 0 -3 5 -9 5 -12 1z"/>
<path d="M2375 1360 c-3 -5 -14 -7 -24 -5 -16 3 -18 -7 -19 -138 -1 -174 1
-185 30 -183 13 0 26 5 30 10 4 6 12 5 20 -2 11 -9 17 -9 26 0 8 8 12 8 12 2
0 -13 39 -12 59 0 8 5 16 4 20 -2 14 -22 28 5 27 51 -1 26 3 47 7 47 5 0 5 5
2 11 -11 16 -12 69 -2 69 4 0 5 5 2 11 -10 14 -13 69 -4 69 3 0 4 10 2 23 -5
27 -39 51 -56 40 -18 -11 -51 -10 -59 2 -5 6 -8 5 -8 -3 0 -7 -4 -10 -10 -7
-18 11 -49 14 -55 5z"/>
<path d="M590 1307 c0 -4 -5 -5 -11 -1 -7 4 -7 -1 1 -16 7 -12 8 -20 3 -17 -6
4 -9 -24 -9 -66 1 -77 15 -108 40 -88 10 9 16 9 21 1 3 -6 12 -7 18 -3 16 10
39 10 52 1 6 -4 20 -5 30 -3 11 2 24 4 28 4 5 1 5 6 2 11 -3 6 0 10 7 10 9 0
9 3 -2 10 -13 9 -13 10 0 10 13 0 13 1 0 10 -13 9 -13 10 0 10 9 0 11 3 5 8
-16 11 -14 42 2 42 8 0 11 5 8 10 -4 6 -11 8 -16 5 -5 -4 -5 4 1 19 6 18 6 26
-1 26 -6 0 -8 4 -5 9 3 5 -5 11 -19 13 -13 3 -26 0 -29 -6 -3 -7 -5 -7 -5 0
-1 11 -52 11 -70 -1 -6 -3 -11 -2 -11 2 0 5 -9 9 -20 9 -11 0 -20 -4 -20 -9z"/>
</g>
</svg>
