<?xml version="1.0" standalone="no"?>
<!DOCTYPE svg PUBLIC "-//W3C//DTD SVG 20010904//EN"
 "http://www.w3.org/TR/2001/REC-SVG-20010904/DTD/svg10.dtd">
<svg version="1.0" xmlns="http://www.w3.org/2000/svg"
 width="300.000000pt" height="300.000000pt" viewBox="0 0 300.000000 300.000000"
 preserveAspectRatio="xMidYMid meet">
<metadata>
Created by potrace 1.11, written by Peter Selinger 2001-2013
</metadata>
<g transform="translate(0.000000,300.000000) scale(0.100000,-0.100000)"
fill="#000000" stroke="none">
<path d="M1480 1651 c0 -6 -3 -10 -7 -9 -9 2 -40 -11 -113 -46 -29 -14 -59
-26 -66 -26 -7 0 -57 -21 -111 -47 l-98 -47 -307 0 -307 -1 -31 -72 c-16 -40
-30 -74 -30 -76 0 -2 38 -3 85 -2 79 1 85 -1 86 -20 3 -114 0 -347 -5 -363 -4
-11 -9 -29 -11 -39 -2 -10 -7 -27 -11 -37 -5 -13 -4 -17 4 -12 20 12 25 -17
26 -170 1 -151 -5 -192 -18 -116 -15 96 -67 224 -131 322 l-44 70 32 8 c19 6
39 5 51 0 11 -6 22 -6 28 0 13 13 -48 63 -67 56 -8 -4 -15 -2 -15 4 0 15 58
39 86 36 38 -4 29 25 -13 42 -24 10 -51 14 -77 10 -37 -5 -39 -5 -22 9 10 8
23 16 29 18 18 6 -3 27 -28 27 -67 0 -124 -51 -116 -102 0 -5 -11 -8 -25 -8
-69 0 -141 -76 -114 -121 7 -11 12 -10 27 2 35 31 47 33 25 5 -24 -31 -28 -69
-12 -111 10 -27 34 -30 36 -4 1 23 16 53 37 72 11 9 21 17 21 17 1 0 0 -17 -2
-38 -3 -28 1 -42 17 -56 22 -20 49 -13 32 8 -14 16 1 70 21 74 18 3 69 -104
92 -194 18 -71 34 -199 32 -264 l-1 -45 -230 0 c-209 -1 -230 -2 -233 -18 -2
-9 2 -17 10 -17 122 -4 2981 0 2985 4 3 3 3 11 1 18 -4 10 -57 13 -237 12
l-232 0 5 90 c5 107 13 161 33 236 19 73 72 182 87 177 20 -7 35 -49 25 -74
-11 -29 4 -30 32 -2 17 17 20 29 16 56 l-6 36 24 -23 c13 -13 30 -38 36 -57
10 -31 13 -33 26 -20 20 20 23 76 6 110 -14 29 -4 37 17 12 19 -23 30 -18 30
15 0 45 -45 90 -97 97 -33 4 -43 10 -43 24 0 10 -13 33 -28 50 -23 26 -37 32
-72 33 -49 1 -62 -15 -25 -32 14 -6 25 -16 25 -22 0 -7 -7 -7 -21 1 -28 15
-95 5 -120 -16 -22 -21 -16 -36 14 -31 29 4 74 -12 80 -28 4 -9 -3 -13 -19
-13 -23 -1 -64 -35 -64 -55 0 -11 17 -10 40 2 13 7 27 6 44 -2 32 -14 32 -19
3 -55 -38 -46 -89 -152 -122 -251 l-31 -93 1 141 c1 99 5 144 13 149 10 6 10
21 -1 67 -10 47 -16 312 -8 390 1 7 31 10 84 9 93 -2 100 -1 87 23 -5 9 -20
42 -33 72 l-24 55 -306 0 c-298 -1 -309 0 -355 22 -111 52 -160 73 -171 73 -6
0 -28 9 -49 19 -20 10 -40 19 -44 20 -5 1 -23 10 -41 20 -43 24 -97 36 -97 22z"/>
</g>
</svg>
