<?xml version="1.0" standalone="no"?>
<!DOCTYPE svg PUBLIC "-//W3C//DTD SVG 20010904//EN"
 "http://www.w3.org/TR/2001/REC-SVG-20010904/DTD/svg10.dtd">
<svg version="1.0" xmlns="http://www.w3.org/2000/svg"
 width="300.000000pt" height="300.000000pt" viewBox="0 0 300.000000 300.000000"
 preserveAspectRatio="xMidYMid meet">
<metadata>
Created by potrace 1.11, written by Peter Selinger 2001-2013
</metadata>
<g transform="translate(0.000000,300.000000) scale(0.100000,-0.100000)"
fill="#000000" stroke="none">
<path d="M1400 2445 c-52 -19 -250 -86 -440 -150 -190 -64 -352 -119 -360
-122 -8 -4 -17 -7 -20 -8 -53 -14 -360 -121 -360 -126 0 -4 17 -3 38 1 20 5
53 11 72 14 19 3 46 8 60 10 14 3 41 7 60 10 19 3 47 8 63 11 37 7 135 23 172
29 29 5 199 33 240 40 26 5 94 18 120 23 11 2 36 6 55 9 19 2 58 9 85 14 28 6
68 12 90 16 22 3 47 7 55 9 8 2 35 7 60 10 25 4 61 10 80 14 23 4 91 -3 200
-21 91 -16 180 -31 199 -34 18 -3 43 -8 55 -10 11 -2 35 -6 51 -9 17 -3 41 -7
55 -10 14 -3 39 -7 55 -9 17 -3 73 -12 125 -22 52 -9 105 -18 117 -19 12 -2
34 -6 50 -9 15 -4 44 -8 63 -11 19 -3 46 -7 60 -10 14 -3 68 -12 120 -21 109
-19 125 -21 163 -30 50 -11 28 5 -35 25 -35 11 -196 65 -358 121 -162 56 -333
114 -380 130 -47 16 -179 60 -293 99 -115 39 -211 70 -215 70 -4 -1 -50 -16
-102 -34z"/>
<path d="M1015 2022 c-3 -3 -5 -122 -5 -264 l0 -258 -27 -1 c-16 0 -37 -2 -48
-3 -11 -2 -44 -6 -74 -10 -30 -4 -63 -10 -75 -12 -12 -3 -32 -6 -46 -8 -60 -9
-130 -31 -188 -58 -91 -42 -102 -85 -34 -131 38 -25 102 -49 182 -66 77 -17
170 -31 238 -35 72 -5 75 10 4 19 -190 23 -311 81 -288 140 13 34 138 75 310
100 l46 7 0 -456 0 -456 163 0 164 0 0 464 c0 255 3 467 6 472 4 7 237 11 303
5 8 -1 12 -124 12 -448 0 -247 1 -458 1 -470 1 -23 2 -23 161 -23 121 0 160 3
161 13 0 6 1 152 1 324 1 223 4 310 12 306 7 -4 7 -2 -1 8 -13 17 -14 269 -1
269 5 0 42 -5 81 -10 257 -38 384 -102 308 -157 -44 -33 -213 -78 -325 -86
-22 -2 -42 -9 -44 -17 -3 -7 -1 -10 4 -7 5 3 41 8 79 11 39 4 81 8 95 11 14 2
45 7 70 10 67 9 211 45 245 62 119 60 92 130 -68 177 -110 32 -269 58 -432 70
-19 1 -20 9 -22 251 -1 138 -2 253 -2 256 -1 5 -304 5 -321 0 -3 0 -5 -109 -4
-241 1 -132 -2 -240 -5 -241 -3 0 -75 -2 -158 -4 -136 -2 -153 -1 -154 14 0 9
-1 120 -2 246 l-2 230 -158 1 c-86 0 -159 -2 -162 -4z"/>
</g>
</svg>
