<?xml version="1.0" standalone="no"?>
<!DOCTYPE svg PUBLIC "-//W3C//DTD SVG 20010904//EN"
 "http://www.w3.org/TR/2001/REC-SVG-20010904/DTD/svg10.dtd">
<svg version="1.0" xmlns="http://www.w3.org/2000/svg"
 width="300.000000pt" height="300.000000pt" viewBox="0 0 300.000000 300.000000"
 preserveAspectRatio="xMidYMid meet">
<metadata>
Created by potrace 1.11, written by Peter Selinger 2001-2013
</metadata>
<g transform="translate(0.000000,300.000000) scale(0.100000,-0.100000)"
fill="#000000" stroke="none">
<path d="M1185 2891 c-131 -39 -176 -69 -195 -127 -8 -24 -28 -43 -77 -74 -53
-33 -63 -37 -49 -18 33 45 83 184 71 196 -6 7 -79 -42 -126 -85 -72 -65 -112
-157 -88 -204 6 -12 -5 -29 -43 -65 -29 -28 -47 -40 -43 -29 17 42 8 175 -16
243 l-12 34 -18 -29 c-11 -15 -33 -64 -50 -107 -33 -87 -35 -139 -9 -224 9
-28 10 -46 4 -50 -12 -8 -68 -89 -98 -141 l-21 -38 0 86 c0 112 -48 273 -62
208 -1 -7 -11 -38 -22 -70 -29 -82 -44 -175 -36 -222 6 -39 54 -142 55 -117 0
6 5 12 10 12 7 0 6 -8 -1 -22 -7 -13 -23 -54 -35 -93 -12 -38 -24 -63 -27 -55
-3 8 -11 35 -18 60 -7 25 -18 54 -24 65 -16 32 -84 135 -89 135 -3 0 -5 -45
-8 -190 -3 -115 24 -191 80 -225 29 -18 32 -23 28 -60 -3 -22 -5 -67 -6 -100
l0 -60 -35 62 c-38 69 -57 94 -99 132 -16 14 -38 34 -49 44 -10 10 -21 17 -23
15 -2 -3 0 -29 6 -59 5 -30 11 -66 14 -80 17 -104 79 -215 137 -247 55 -31 59
-36 73 -112 8 -41 18 -84 22 -95 4 -10 -8 -1 -28 21 -38 41 -235 180 -244 172
-7 -8 112 -239 138 -268 29 -32 108 -94 108 -85 0 4 6 2 13 -4 12 -9 39 -17
69 -20 4 -1 22 -29 39 -63 17 -35 40 -75 50 -90 28 -38 23 -43 -12 -14 -38 32
-163 93 -207 101 -18 3 -51 12 -72 19 -46 16 -47 17 31 -79 115 -142 223 -206
339 -200 44 2 47 0 105 -63 33 -35 51 -60 40 -54 -12 6 -39 13 -61 16 -22 4
-49 8 -59 10 -11 2 -52 7 -92 11 -40 4 -84 8 -98 9 -48 6 -35 -11 56 -73 144
-99 268 -135 367 -105 43 12 45 12 133 -34 49 -26 89 -49 89 -52 0 -3 -21 -5
-47 -5 -59 2 -111 -8 -233 -41 -131 -35 -130 -35 -95 -45 16 -5 41 -10 55 -13
14 -2 48 -9 75 -16 118 -28 276 -5 337 49 l32 28 83 -23 c46 -12 86 -23 89
-23 3 1 8 -2 12 -5 3 -3 -5 -6 -18 -6 -20 0 -277 -120 -320 -150 -11 -7 13 -8
80 -5 187 11 288 43 363 115 35 33 49 40 83 40 32 0 46 -6 70 -31 16 -17 43
-39 60 -50 33 -20 138 -54 194 -63 60 -9 210 -18 210 -12 0 3 -30 21 -67 39
-38 19 -85 43 -105 55 -20 11 -72 33 -115 49 l-78 28 47 6 c25 4 72 14 102 23
56 17 57 16 89 -7 40 -30 72 -47 100 -53 81 -17 111 -21 154 -18 66 5 223 35
223 43 0 18 -286 91 -355 91 l-50 0 57 30 c31 16 78 43 104 59 43 26 50 28 69
15 20 -13 128 -33 157 -28 58 8 152 41 232 80 53 26 96 50 96 54 0 9 -58 13
-185 14 -108 0 -161 -5 -200 -19 -16 -6 -15 -3 7 21 l28 28 164 -3 c113 -2
166 1 171 9 13 21 -15 37 -74 43 -32 4 -81 15 -107 26 l-49 19 46 0 c25 0 66
6 90 12 56 15 167 89 209 138 51 60 83 92 92 92 5 0 7 4 4 9 -4 5 -24 5 -48
-1 -24 -5 -54 -11 -68 -13 -57 -8 -186 -65 -234 -104 -18 -14 -17 -12 2 19 13
19 36 64 53 101 28 60 33 65 63 66 91 3 175 83 256 246 34 66 59 121 57 123
-9 10 -217 -138 -254 -181 l-42 -49 15 50 c9 27 18 63 21 79 3 17 7 37 8 45 2
8 4 23 4 33 1 10 5 16 10 13 10 -6 89 43 113 70 35 40 68 125 91 232 13 62 20
112 15 112 -29 0 -215 -230 -203 -251 3 -4 1 -10 -5 -14 -6 -4 -10 17 -9 57 0
35 -2 84 -6 111 -5 37 -4 47 7 47 25 0 70 57 89 112 14 42 17 78 14 181 -1 70
-5 130 -8 133 -5 5 -51 -65 -92 -142 -15 -29 -30 -76 -34 -105 -7 -54 -7 -54
-15 -19 -10 44 -34 119 -45 139 -6 9 -2 24 9 40 26 36 48 119 44 161 -6 48
-53 212 -67 228 -18 23 -49 -71 -56 -172 l-6 -89 -44 68 c-44 69 -44 69 -32
117 20 75 16 131 -14 195 -30 66 -85 156 -92 149 -13 -13 -21 -208 -10 -249 7
-24 1 -21 -52 30 -33 31 -56 60 -52 63 18 11 19 68 1 106 -24 54 -65 100 -133
151 -66 48 -81 53 -72 22 4 -12 8 -27 9 -33 10 -54 33 -102 74 -154 l34 -43
-34 23 c-18 13 -55 34 -81 48 -32 17 -47 31 -47 45 0 31 -34 80 -72 103 -19
12 -66 31 -104 42 -38 12 -75 23 -83 26 -20 7 -7 -20 41 -80 50 -62 107 -103
157 -112 32 -6 141 -76 141 -90 0 -3 -5 -2 -12 2 -33 21 -154 6 -240 -28 -34
-13 -36 -28 -5 -29 12 -1 45 -3 72 -6 28 -3 106 -6 175 -6 69 -1 127 -4 130
-7 3 -3 23 -20 45 -39 33 -29 36 -33 15 -27 -56 16 -117 21 -215 17 -41 -2
-24 -15 71 -58 135 -59 172 -70 240 -72 25 -1 37 -9 60 -43 16 -24 35 -49 42
-56 21 -23 14 -21 -55 14 -76 37 -195 69 -187 50 3 -6 20 -22 38 -36 18 -14
70 -55 116 -92 46 -37 106 -77 134 -90 49 -21 54 -26 83 -95 17 -40 30 -73 29
-73 -1 0 -25 21 -53 48 -48 45 -193 132 -193 115 0 -4 13 -23 29 -42 17 -19
47 -63 67 -98 38 -66 118 -152 167 -181 15 -9 27 -21 28 -27 0 -5 2 -23 4 -40
2 -16 6 -59 9 -95 l6 -65 -19 51 c-10 29 -23 58 -27 67 -10 17 -97 110 -139
147 -25 22 -27 23 -21 5 4 -11 19 -58 32 -104 30 -101 72 -188 126 -259 40
-53 40 -54 32 -115 -4 -34 -8 -66 -9 -72 -1 -5 -3 -16 -3 -22 -1 -7 -7 -13
-13 -13 -5 0 -7 4 -4 10 19 31 -109 291 -136 274 -5 -3 -8 -8 -5 -12 2 -4 7
-54 10 -112 13 -192 20 -224 63 -292 12 -21 23 -42 23 -48 0 -11 -77 -180 -82
-180 -2 0 -3 42 -3 93 -1 94 -4 121 -26 192 -7 22 -12 43 -11 48 1 4 -2 7 -8
7 -5 0 -10 -3 -11 -7 -3 -30 -13 -80 -31 -153 -28 -116 -32 -194 -14 -260 14
-52 14 -56 -5 -75 -20 -20 -20 -20 -42 5 -19 22 -22 37 -22 108 0 45 -3 82 -7
82 -4 0 -20 -24 -34 -52 l-27 -52 -43 49 c-52 59 -315 391 -334 422 -12 19 -9
25 33 69 97 104 151 191 181 294 19 68 25 154 13 199 -5 18 -10 42 -12 53 -5
26 -48 98 -82 139 -65 77 -197 133 -325 138 -21 1 -31 10 -49 46 -27 53 -89
118 -144 151 -37 21 -112 45 -190 59 -25 4 -388 8 -412 4 -5 -1 -19 -1 -33 1
-21 1 -18 4 18 18 69 27 50 40 -53 36 -76 -3 -112 -9 -150 -23 -27 -10 -24 -6
20 35 48 44 52 45 95 39 66 -10 175 -6 255 10 11 2 40 4 65 5 42 1 44 2 25 16
-47 35 -206 61 -267 43 -16 -4 -28 -7 -28 -5 0 1 20 19 45 40 29 24 59 39 83
42 20 3 56 14 79 25 45 22 163 142 163 165 0 8 -1 14 -2 13 -2 0 -30 -9 -63
-18z m-352 -521 c10 -9 21 -37 24 -61 6 -62 6 -1103 0 -1225 -4 -55 -10 -111
-15 -125 -9 -23 -50 -67 -58 -61 -9 5 -50 1 -63 -7 -12 -8 -12 -12 -2 -25 11
-13 51 -15 272 -15 211 0 259 2 259 13 0 22 -25 36 -66 37 -63 1 -101 17 -113
47 -18 45 -21 163 -22 790 -1 446 2 607 10 615 7 7 49 13 103 13 129 2 192
-21 269 -96 32 -32 59 -63 59 -68 0 -7 -65 -10 -191 -9 -131 2 -193 -1 -200
-9 -12 -15 11 -34 48 -40 80 -12 92 -16 102 -28 18 -22 24 -84 25 -284 1 -173
-1 -195 -16 -203 -9 -5 -21 -9 -25 -8 -36 6 -103 -3 -103 -13 1 -31 19 -41 81
-42 l63 -1 -1 -325 c-1 -556 -5 -581 -92 -596 -63 -10 -66 -12 -47 -33 15 -17
36 -18 268 -17 158 1 253 5 255 11 6 22 -15 33 -72 38 -33 3 -67 9 -77 12 -22
9 -36 47 -43 120 -8 85 -10 470 -2 482 5 8 53 10 145 7 127 -4 138 -6 154 -27
10 -12 92 -122 182 -243 91 -122 189 -247 219 -278 30 -30 53 -57 51 -58 -1
-2 -5 -37 -8 -77 -3 -41 -7 -75 -8 -76 -34 -24 -98 -65 -115 -74 -23 -11 -22
-11 2 25 26 38 59 132 69 198 8 47 6 46 -106 -68 -93 -94 -134 -153 -143 -205
-6 -36 -9 -38 -68 -56 -34 -10 -69 -20 -77 -23 -8 -3 1 10 21 29 63 61 129
162 115 177 -3 2 -20 -2 -38 -11 -18 -8 -64 -28 -102 -43 -77 -31 -151 -97
-164 -148 -8 -30 -8 -30 -83 -31 l-76 -2 -17 41 c-29 68 -70 101 -180 147 -56
23 -107 47 -113 52 -18 14 -17 -7 3 -46 21 -40 44 -70 96 -125 44 -46 41 -49
-21 -27 -23 8 -45 14 -49 15 -21 1 -42 13 -43 23 -2 30 -10 61 -25 90 -17 31
-224 250 -231 243 -3 -3 9 -64 21 -101 2 -5 7 -23 11 -40 8 -30 38 -89 57
-113 22 -26 1 -18 -64 24 l-68 44 -1 52 c-1 29 -1 56 0 60 2 19 -44 131 -83
197 -24 42 -51 90 -60 106 -14 29 -15 24 -16 -106 0 -74 4 -139 9 -145 5 -5
12 -20 16 -33 5 -17 -13 -2 -54 45 -47 52 -60 74 -56 89 30 95 29 179 -4 320
-10 44 -22 98 -26 120 l-7 40 -12 -30 c-42 -102 -61 -266 -37 -328 29 -74 -26
16 -72 120 l-28 62 30 53 c27 48 34 72 47 158 8 54 16 250 10 250 -6 0 -42
-54 -78 -118 -28 -50 -55 -132 -53 -160 3 -38 -13 -10 -18 33 -22 160 -25 138
31 203 59 68 88 119 127 222 1 3 5 14 10 25 50 125 49 125 -78 5 -38 -36 -68
-76 -87 -115 l-28 -60 5 65 c2 36 6 74 8 85 2 11 4 28 4 37 1 9 16 26 35 37
18 12 54 43 79 69 48 49 191 251 184 258 -10 11 -157 -85 -204 -134 -29 -29
-53 -51 -53 -50 0 2 13 37 29 78 l28 74 70 36 c74 38 110 62 213 149 86 72 91
81 37 70 -67 -15 -128 -40 -184 -76 -29 -18 -53 -30 -53 -27 0 7 48 73 79 107
19 21 34 27 65 28 23 0 59 7 81 14 47 15 93 10 118 -15z m704 -295 c2 -11 5
-58 5 -105 1 -77 -2 -92 -31 -153 -18 -38 -37 -67 -43 -65 -12 4 -15 318 -3
338 12 19 68 8 72 -15z m236 0 c119 -49 189 -185 188 -365 -1 -199 -81 -336
-209 -356 -98 -16 -278 3 -288 31 -3 7 -6 61 -7 120 l-2 108 56 38 c69 47 129
115 164 187 29 58 53 168 49 220 -3 37 0 38 49 17z"/>
</g>
</svg>
