<?xml version="1.0" standalone="no"?>
<!DOCTYPE svg PUBLIC "-//W3C//DTD SVG 20010904//EN"
 "http://www.w3.org/TR/2001/REC-SVG-20010904/DTD/svg10.dtd">
<svg version="1.0" xmlns="http://www.w3.org/2000/svg"
 width="300.000000pt" height="300.000000pt" viewBox="0 0 300.000000 300.000000"
 preserveAspectRatio="xMidYMid meet">
<metadata>
Created by potrace 1.11, written by Peter Selinger 2001-2013
</metadata>
<g transform="translate(0.000000,300.000000) scale(0.100000,-0.100000)"
fill="#000000" stroke="none">
<path d="M1270 2700 c-135 -21 -150 -24 -255 -57 -85 -27 -265 -110 -303 -140
-22 -18 -20 -18 55 -15 115 6 268 -7 254 -21 -7 -7 -44 -10 -95 -8 l-84 2 -13
-76 c-18 -114 -23 -118 -152 -116 l-107 2 0 -70 c0 -56 -3 -71 -15 -71 -11 0
-15 17 -17 73 l-3 72 -50 3 c-49 3 -51 1 -89 -43 -35 -43 -37 -47 -22 -64 9
-10 16 -21 16 -25 0 -5 -8 2 -18 14 l-18 23 -36 -54 c-20 -30 -57 -98 -83
-152 -37 -77 -46 -106 -43 -137 2 -29 -1 -41 -12 -44 -8 -2 13 -1 48 2 53 4
62 2 62 -12 0 -12 -10 -16 -42 -17 -24 -1 -54 -5 -68 -9 -23 -7 -24 -8 -3 -9
18 -1 22 -8 25 -43 l3 -42 48 3 c46 2 47 2 47 -27 0 -17 3 -38 7 -48 4 -11 3
-15 -5 -10 -6 3 -29 4 -51 0 -43 -7 -43 -7 -25 -75 4 -13 -5 -18 -40 -23 l-46
-7 2 -44 c2 -43 3 -44 21 -25 23 25 121 29 130 5 5 -11 -7 -15 -61 -17 l-67
-3 0 -50 0 -50 78 -3 77 -3 0 52 c0 50 1 51 18 36 10 -9 24 -40 31 -69 8 -29
16 -60 18 -68 4 -11 2 -12 -4 -3 -7 9 -18 10 -47 2 -32 -9 -40 -8 -50 6 -8 12
-29 17 -64 18 -29 1 -52 -1 -52 -5 0 -5 23 -8 51 -8 36 0 49 -4 47 -12 -3 -8
-20 -11 -47 -9 -32 2 -41 -1 -36 -9 5 -8 24 -11 55 -8 l47 5 33 -114 c19 -62
39 -113 44 -113 23 0 86 21 86 29 0 4 -14 47 -30 96 -45 134 -35 127 15 -10
24 -66 49 -133 55 -150 18 -45 0 -85 -37 -84 l-28 1 25 7 c14 4 25 12 24 19
-6 74 -8 75 -87 62 -37 -7 -67 -16 -67 -22 0 -5 11 -24 25 -43 19 -24 32 -32
48 -29 17 3 18 3 5 -3 -16 -7 -15 -11 7 -38 13 -17 24 -24 25 -17 0 6 7 12 15
12 10 0 15 -11 16 -32 1 -20 3 -25 6 -13 10 44 13 49 26 36 9 -9 9 -14 -2 -20
-27 -17 8 -70 86 -132 41 -33 77 -59 80 -59 3 0 2 8 -1 18 -5 14 -4 14 9 -2 8
-11 15 -23 15 -27 0 -4 20 -19 45 -34 l45 -26 140 71 c126 64 160 75 160 52 0
-4 -58 -36 -129 -72 -121 -59 -129 -65 -110 -78 31 -21 135 -63 223 -88 l78
-22 -4 103 c-3 93 -6 107 -33 151 -54 87 -133 113 -369 120 -173 6 -197 13
-214 63 -7 21 -5 41 9 82 10 29 19 59 19 65 0 6 -16 35 -36 64 -19 28 -34 54
-32 56 3 2 21 10 42 17 l38 13 -51 32 c-54 33 -59 45 -36 76 34 46 18 71 -92
145 -37 25 -63 49 -63 59 0 10 27 44 61 77 73 73 161 179 183 222 10 20 16 57
16 96 0 53 6 76 39 143 79 162 239 355 366 441 339 229 772 246 1130 42 98
-55 239 -187 301 -281 208 -313 169 -708 -98 -994 l-58 -61 41 -33 c22 -17 38
-34 36 -36 -4 -5 -391 -122 -394 -120 -1 1 27 81 64 179 l65 177 35 -31 c19
-16 42 -29 51 -27 28 5 132 140 172 223 165 341 16 738 -344 915 -149 74 -231
93 -401 94 -115 0 -155 -4 -223 -22 -541 -145 -764 -700 -447 -1112 91 -119
211 -201 383 -265 169 -63 200 -78 267 -127 69 -51 126 -128 157 -213 17 -48
22 -88 26 -207 2 -83 8 -145 13 -142 5 3 9 34 9 69 l0 64 53 3 52 3 3 68 c3
64 4 67 28 67 19 0 24 -4 20 -17 -2 -10 -7 -33 -11 -51 -4 -18 -18 -46 -32
-63 -14 -17 -32 -47 -39 -67 l-13 -37 -1 43 c0 23 -4 42 -10 42 -5 0 -10 -25
-10 -56 0 -47 3 -55 16 -50 9 3 18 6 20 6 2 0 4 11 4 24 0 13 16 46 35 74 34
50 61 129 53 154 -3 9 -29 13 -93 13 -62 0 -90 4 -92 13 -4 9 18 12 85 12 49
0 91 2 94 5 3 3 3 17 0 30 -4 25 -6 25 -103 25 -133 0 -139 18 -7 22 l103 3
-3 28 c-2 19 1 27 11 27 10 0 17 -14 22 -43 3 -23 8 -54 11 -70 l6 -27 157 0
158 0 7 46 c3 26 6 75 6 110 0 53 3 64 16 64 15 0 16 -13 12 -110 l-6 -110 52
0 c28 0 57 4 64 9 7 4 -12 6 -43 3 l-55 -4 0 101 0 102 142 -2 142 -1 23 28
c39 49 122 224 148 312 64 218 52 465 -32 682 -23 60 -38 88 -42 78 -6 -18
-143 -118 -161 -118 -7 0 -10 33 -8 98 3 114 22 131 26 25 2 -40 5 -73 9 -73
8 0 133 90 133 96 0 7 -16 -3 -71 -43 -26 -18 -49 -33 -52 -33 -4 0 -7 30 -9
68 -3 59 -5 67 -23 67 -17 0 -21 -8 -25 -55 -4 -46 -7 -51 -14 -30 -17 51 -61
145 -73 158 -20 20 -16 31 14 43 15 6 43 20 61 31 l33 20 -21 23 -21 23 -42
-23 c-23 -13 -52 -26 -64 -30 -21 -6 -22 -5 -11 27 6 18 12 34 12 35 1 1 18
-2 39 -7 23 -5 39 -4 43 2 8 13 -61 83 -73 75 -5 -3 -15 -31 -22 -62 -7 -30
-16 -55 -21 -55 -18 0 -18 33 -1 90 11 33 15 60 11 60 -4 0 -13 -21 -20 -47
-7 -27 -17 -52 -23 -58 -6 -6 -7 -3 -4 10 21 72 21 72 -21 82 -31 8 -41 7 -48
-4 -8 -13 -13 -12 -33 4 -21 17 -22 22 -12 42 14 26 16 23 -28 41 -30 12 -35
12 -47 -5 -16 -21 -19 -8 -4 15 6 10 23 13 55 11 32 -2 45 1 41 8 -4 6 -25 11
-47 11 -38 0 -55 15 -23 22 11 2 5 9 -19 20 l-37 18 -20 -40 c-22 -44 -29 -49
-26 -23 1 11 -10 20 -31 26 -36 11 -39 18 -22 49 6 11 8 22 5 25 -2 3 -12 -11
-20 -31 -8 -20 -22 -36 -30 -36 -20 0 -20 4 0 42 9 17 12 34 7 38 -18 17 -163
52 -286 70 -159 24 -265 24 -417 0z m-408 -285 c-3 -28 -1 -35 12 -35 10 0 14
-4 11 -10 -3 -5 -15 -10 -27 -10 -18 0 -20 4 -14 31 3 17 6 38 6 45 0 8 4 14
8 14 4 0 6 -16 4 -35z m758 9 c96 -1 183 -2 192 -3 10 -1 19 -13 23 -33 4 -18
11 -50 16 -71 l10 -39 60 4 c42 2 59 -1 59 -9 0 -10 -32 -14 -122 -15 l-123
-2 113 -3 c103 -3 112 -5 112 -23 0 -11 -6 -24 -12 -29 -46 -38 -75 -58 -90
-64 -24 -9 -24 -57 -1 -57 20 0 63 -38 63 -57 0 -8 -12 -13 -30 -13 -27 0 -30
3 -30 30 l0 30 -105 0 -105 0 0 -29 c0 -17 6 -31 16 -35 9 -3 69 -6 135 -6 99
0 119 -3 119 -15 0 -13 -20 -15 -122 -15 -68 0 -129 -4 -137 -9 -24 -15 -4
-41 31 -42 30 -1 31 -2 8 -8 -22 -6 -18 -9 30 -23 30 -10 85 -20 123 -24 47
-4 67 -10 67 -20 0 -10 -13 -14 -40 -14 -41 0 -41 0 -22 -21 35 -36 35 -114 1
-155 -9 -11 -8 -15 4 -20 25 -9 28 -33 7 -54 -20 -20 -20 -20 8 -21 l27 -1
-25 -8 c-14 -4 -52 -8 -85 -9 -57 -1 -145 -33 -145 -53 0 -5 61 -8 135 -8 113
0 135 -2 135 -15 0 -13 -22 -15 -139 -15 l-140 0 -3 -86 c-2 -47 -1 -88 1 -90
2 -2 67 -4 143 -4 116 0 138 -2 138 -15 0 -13 -22 -15 -140 -15 l-140 0 -1
-32 c-1 -18 -1 -88 -1 -155 1 -116 0 -123 -18 -123 -19 0 -20 8 -20 155 l0
155 -160 0 -160 0 0 -75 c0 -77 -6 -87 -40 -65 -10 6 -11 10 -2 10 9 0 12 41
12 170 l0 170 -135 0 -135 0 0 -50 0 -51 130 7 130 7 0 -28 0 -28 -130 6
c-126 7 -130 6 -130 -13 0 -24 -15 -27 -24 -4 -3 9 -6 47 -6 84 l0 69 -52 3
c-74 4 -77 28 -4 28 l56 0 0 95 0 94 -57 3 c-81 4 -85 28 -4 28 l61 0 0 65 0
65 -86 0 c-64 0 -85 3 -82 13 3 8 32 13 86 15 l82 3 0 114 c0 96 3 115 15 115
11 0 15 -12 15 -45 l0 -45 118 2 117 2 -110 6 -110 6 123 2 122 2 0 28 c0 15
9 38 20 52 11 14 20 28 20 33 0 4 -61 7 -135 7 -134 0 -135 0 -134 23 1 12 5
33 9 47 7 21 8 19 9 -17 l1 -43 120 0 120 0 0 50 c0 44 3 50 21 50 16 0 19 -4
14 -22 -14 -49 -14 -62 0 -33 31 65 31 65 -132 65 -136 1 -146 2 -128 16 16
13 45 15 154 12 l134 -3 19 55 c14 40 16 60 9 72 -8 13 -6 18 12 21 12 3 33 2
47 -1 14 -3 104 -7 200 -8z m-267 -21 c2 -5 -4 -30 -14 -58 -15 -39 -18 -44
-16 -20 l2 30 -70 5 -70 5 55 22 c56 22 105 29 113 16z m540 -10 c12 -4 16
-11 11 -22 -13 -33 -8 -44 26 -57 l35 -13 -49 2 -50 2 -11 53 c-11 48 -11 52
4 46 9 -3 24 -9 34 -11z m100 -73 c-3 -11 -9 -20 -14 -20 -11 0 -11 3 -3 24 9
23 23 20 17 -4z m63 -38 c-5 -14 2 -21 29 -31 19 -7 39 -10 43 -7 9 5 79 -61
71 -67 -2 -2 -37 -9 -77 -16 -78 -14 -102 -7 -102 28 0 21 30 111 37 111 2 0
2 -8 -1 -18z m-1053 -92 c-10 -38 -21 -60 -30 -60 -20 0 -6 69 20 98 11 12 21
22 23 22 1 0 -5 -27 -13 -60z m1252 -80 c4 -6 -5 -10 -20 -10 l-26 0 3 -102 3
-103 40 0 40 0 6 65 c4 48 6 30 7 -72 1 -80 -2 -138 -7 -138 -5 0 -18 11 -29
25 -11 14 -23 25 -27 25 -4 0 -45 -27 -91 -60 l-84 -60 0 65 0 65 -45 0 c-25
0 -45 3 -45 8 0 4 20 6 45 4 l45 -4 0 106 0 106 -34 0 -34 0 28 29 c22 21 47
32 102 43 92 19 115 21 123 8z m-1689 -107 c-3 -49 -9 -115 -14 -148 l-9 -60
-2 73 -1 72 -105 0 c-63 0 -105 4 -105 10 0 6 42 10 105 10 l105 0 0 65 c0 53
3 65 16 65 14 0 15 -12 10 -87z m-190 49 c-17 -16 -18 -16 -5 5 7 12 15 20 18
17 3 -2 -3 -12 -13 -22z m252 21 c-10 -2 -26 -2 -35 0 -10 3 -2 5 17 5 19 0
27 -2 18 -5z m300 -70 c-10 -2 -28 -2 -40 0 -13 2 -5 4 17 4 22 1 32 -1 23 -4z
m1422 -155 c0 -39 4 -68 10 -68 13 0 13 -37 0 -45 -5 -3 -7 -19 -3 -35 7 -37
-5 -140 -17 -140 -5 0 -10 33 -12 73 -2 41 -7 71 -13 70 -5 -2 -10 -7 -10 -12
0 -5 -4 -13 -9 -18 -5 -5 -6 -2 -1 6 5 9 3 12 -6 9 -8 -3 -14 -10 -14 -16 0
-5 -4 -14 -9 -19 -5 -5 -6 -2 -1 6 5 9 3 12 -6 9 -8 -3 -13 -10 -12 -16 2 -6
-12 -21 -29 -33 -17 -13 -28 -17 -23 -10 5 9 3 12 -6 9 -8 -3 -14 -10 -14 -15
0 -6 -4 -15 -9 -20 -5 -5 -6 -2 -1 6 5 9 3 12 -6 9 -8 -3 -13 -10 -12 -16 2
-6 -12 -21 -29 -33 -17 -13 -28 -17 -23 -10 5 9 3 12 -6 9 -8 -3 -14 -10 -14
-15 0 -6 -4 -15 -9 -20 -5 -5 -6 -2 -1 6 5 9 3 12 -6 9 -8 -3 -15 -10 -15 -16
-1 -7 -2 -16 -3 -22 0 -5 -6 -10 -12 -10 -8 0 -8 5 1 15 18 22 -4 18 -24 -4
-16 -18 -12 -19 129 -41 95 -15 144 -26 142 -34 -2 -7 -22 -10 -50 -8 l-47 4
0 -65 c0 -45 -4 -68 -15 -77 -13 -11 -15 -2 -15 68 0 90 6 84 -95 97 -81 11
-87 14 -83 43 2 22 33 48 175 147 l172 120 1 115 c2 106 3 113 15 85 8 -16 14
-60 15 -97z m356 -464 c-3 -7 -35 -6 -111 5 -87 12 -105 18 -101 31 34 99 57
196 62 254 5 56 11 75 28 88 11 10 23 18 26 18 3 0 5 -33 5 -72 l0 -73 40 0
40 0 3 128 3 127 -42 0 c-25 0 -56 -9 -78 -22 -53 -32 -26 -6 54 51 l70 49 3
-286 c1 -158 0 -292 -2 -298z m-2429 444 c-2 -13 -4 -3 -4 22 0 25 2 35 4 23
2 -13 2 -33 0 -45z m193 42 c0 -5 14 -10 30 -10 29 0 30 -2 30 -45 0 -43 -1
-45 -29 -45 -16 0 -31 -6 -35 -15 -3 -8 -14 -15 -24 -15 -15 0 -21 10 -26 46
-11 86 -9 94 24 94 17 0 30 -4 30 -10z m380 -139 c0 -10 -7 -21 -15 -25 -8 -3
-15 -12 -15 -21 0 -9 7 -18 15 -21 11 -5 15 -21 15 -61 0 -51 -2 -54 -22 -51
-18 2 -25 13 -35 53 -6 28 -12 71 -12 98 l-1 47 35 0 c28 0 35 -4 35 -19z
m-360 -56 c-16 -20 -131 -17 -138 3 -3 9 16 12 73 12 69 0 76 -2 65 -15z
m1827 -52 c-3 -10 -5 -4 -5 12 0 17 2 24 5 18 2 -7 2 -21 0 -30z m-1852 17
c-3 -5 -10 -10 -16 -10 -5 0 -9 5 -9 10 0 6 7 10 16 10 8 0 12 -4 9 -10z m-88
-52 c-3 -7 -5 -2 -5 12 0 14 2 19 5 13 2 -7 2 -19 0 -25z m1673 -3 c0 -12 -50
-55 -64 -55 -3 0 -6 17 -6 38 0 38 0 38 35 34 20 -2 35 -10 35 -17z m190 -50
c0 -8 -7 -15 -16 -15 -14 0 -14 3 -4 15 7 8 14 15 16 15 2 0 4 -7 4 -15z m87
-17 c-3 -7 -5 -2 -5 12 0 14 2 19 5 13 2 -7 2 -19 0 -25z m-2007 -18 c0 -5
-12 -10 -27 -9 l-28 1 25 8 c14 4 26 8 28 9 1 1 2 -3 2 -9z m1763 -27 c-7 -2
-19 -2 -25 0 -7 3 -2 5 12 5 14 0 19 -2 13 -5z m60 -10 c-7 -2 -19 -2 -25 0
-7 3 -2 5 12 5 14 0 19 -2 13 -5z m60 -10 c-7 -2 -19 -2 -25 0 -7 3 -2 5 12 5
14 0 19 -2 13 -5z m-126 -34 l63 -11 0 -81 0 -81 -22 21 c-18 18 -21 32 -19
78 l2 55 -45 0 -46 0 0 -99 c0 -65 -5 -110 -15 -132 -13 -32 -14 -25 -15 114
0 167 -9 154 97 136z m160 -25 c26 -7 21 -24 -7 -24 -14 0 -20 -9 -23 -32 -3
-25 -4 -22 -5 15 -2 49 -1 50 35 41z m472 -40 c3 -2 0 -8 -5 -13 -8 -9 -220
22 -231 33 -3 3 -3 9 0 13 5 9 226 -22 236 -33z m-105 -19 c49 -8 91 -17 94
-20 6 -6 -23 -235 -39 -307 l-11 -48 -154 0 -154 0 0 34 c0 19 5 38 10 41 6 4
8 15 5 24 -3 10 -1 50 5 90 8 59 18 83 56 141 41 61 49 69 73 65 14 -3 66 -12
115 -20z m-1474 -125 c0 -27 -46 -27 -80 0 l-25 20 53 0 c45 0 52 -3 52 -20z
m610 -11 c0 -29 2 -30 38 -27 33 3 37 6 37 31 -1 15 5 27 12 27 8 0 13 -12 13
-30 0 -28 3 -30 38 -32 l37 -1 -38 -4 c-36 -4 -38 -6 -35 -36 3 -30 5 -32 41
-31 34 1 37 -1 37 -27 0 -22 -6 -29 -27 -34 -33 -7 -53 -22 -76 -55 -17 -24
-17 -24 -17 -2 0 19 -5 22 -35 22 -32 0 -35 -2 -35 -29 0 -27 4 -30 38 -34 20
-2 6 -4 -33 -4 -38 0 -58 2 -42 4 22 4 27 9 27 34 0 27 -3 29 -35 29 -19 0
-35 5 -35 10 0 6 16 10 35 10 32 0 35 2 35 30 0 28 -3 30 -35 30 -19 0 -35 3
-35 8 0 4 15 7 33 7 29 0 32 3 35 33 3 31 2 32 -35 33 l-38 2 35 6 c29 5 36
11 38 34 4 37 22 34 22 -4z m605 -64 c-4 -36 -11 -55 -18 -52 -15 5 -12 84 4
103 18 22 22 10 14 -51z m-825 -55 l0 -90 -23 11 c-20 9 -23 18 -22 62 l0 52
-37 3 -38 3 0 -41 c0 -38 -2 -40 -20 -30 -16 9 -20 21 -20 65 l0 55 80 0 80 0
0 -90z m780 49 c0 -11 -4 -18 -10 -14 -5 3 -7 12 -3 20 7 21 13 19 13 -6z m30
-123 c0 -35 -10 -56 -27 -56 -11 0 -14 6 -9 23 3 12 6 30 6 40 0 9 7 17 15 17
9 0 15 -9 15 -24z m-44 -2 c-3 -9 -6 -22 -6 -30 0 -11 -19 -14 -92 -13 l-93 0
45 14 c27 9 46 11 48 5 2 -6 21 -10 43 -10 35 0 39 3 39 25 0 14 5 25 11 25 6
0 8 -7 5 -16z m-11 -196 c-4 -51 -9 -96 -12 -100 -2 -5 -49 -8 -104 -8 l-99 0
0 65 0 65 -40 0 -40 0 0 -67 c0 -79 -6 -79 -18 0 -9 57 -9 58 19 73 16 8 36
26 45 39 16 24 20 25 136 25 l121 0 -8 -92z m-548 0 c-2 -13 -4 -3 -4 22 0 25
2 35 4 23 2 -13 2 -33 0 -45z m150 21 c12 -4 23 -17 23 -27 0 -14 -7 -17 -40
-14 -39 4 -40 5 -40 44 0 37 1 38 17 23 9 -9 27 -21 40 -26z m-913 -111 c39
-12 71 -28 73 -33 4 -14 -247 -139 -258 -128 -14 14 -109 176 -109 186 0 19
219 1 294 -25z m946 -4 c0 -11 -18 -14 -85 -14 -47 0 -85 2 -85 4 0 2 -2 10
-5 18 -4 10 13 12 85 10 70 -3 90 -7 90 -18z m-1275 -44 c9 -16 13 -30 11 -30
-3 0 -12 14 -21 30 -9 17 -13 30 -11 30 3 0 12 -13 21 -30z m1155 -40 c0 -11
-7 -20 -15 -20 -8 0 -15 2 -15 4 0 2 -3 11 -6 20 -4 12 0 16 15 16 14 0 21 -6
21 -20z m-715 -60 l0 -60 -125 1 -125 0 115 59 c63 32 120 59 125 59 6 1 10
-25 10 -59z m34 -55 c0 -36 -2 -46 -9 -35 -5 8 -9 42 -9 75 1 73 17 39 18 -40z"/>
<path d="M1405 2400 c-7 -12 -35 -103 -32 -106 1 -2 103 -4 226 -6 l223 -3 -6
48 c-10 75 -13 79 -55 70 -45 -10 -228 -10 -298 -1 -29 4 -55 3 -58 -2z m398
-67 c4 -19 2 -33 -3 -33 -6 0 -10 16 -10 35 l0 35 -190 0 c-115 0 -190 4 -190
10 0 6 56 7 148 4 81 -3 165 -2 187 3 44 10 46 8 58 -54z m-406 -25 c-3 -7 -5
-2 -5 12 0 14 2 19 5 13 2 -7 2 -19 0 -25z"/>
<path d="M1356 2245 c-7 -20 15 -57 31 -51 6 3 30 10 52 16 58 15 51 30 -16
31 -44 1 -52 3 -33 9 l25 8 -26 1 c-16 1 -29 -5 -33 -14z"/>
<path d="M1694 2221 c10 -15 76 -19 76 -4 0 9 -14 13 -41 13 -22 0 -38 -4 -35
-9z"/>
<path d="M1800 2210 c0 -11 6 -20 14 -20 7 0 19 -7 26 -15 7 -8 21 -15 31 -15
15 0 19 7 19 35 0 35 0 35 -45 35 -38 0 -45 -3 -45 -20z"/>
<path d="M980 1915 l0 -55 136 0 135 0 -3 53 -3 52 -132 3 -133 3 0 -56z m97
-22 c-2 -16 -4 -5 -4 22 0 28 2 40 4 28 2 -13 2 -35 0 -50z"/>
<path d="M1290 1915 c-20 -51 -15 -58 37 -51 49 6 67 16 45 23 -7 3 -26 16
-42 30 l-30 25 -10 -27z"/>
<path d="M980 1655 l0 -175 65 0 65 0 0 175 0 175 -65 0 -65 0 0 -175z m112 0
c-4 -219 -22 -219 -22 0 0 125 3 165 13 165 9 0 11 -38 9 -165z"/>
<path d="M1140 1655 l0 -175 55 0 c54 0 55 0 55 30 0 20 -9 38 -25 52 -17 15
-25 32 -25 55 0 23 8 42 25 59 22 21 25 34 25 89 l0 65 -55 0 -55 0 0 -175z"/>
<path d="M1280 1773 c1 -81 13 -93 92 -93 81 0 96 11 100 76 l3 52 -67 11
c-37 6 -81 11 -97 11 l-31 0 0 -57z"/>
<path d="M1292 1520 c-24 -40 -17 -43 74 -37 125 9 129 21 12 43 -40 8 -73 14
-73 14 0 0 -6 -9 -13 -20z"/>
<path d="M1280 1360 l0 -90 160 0 160 0 -2 93 -2 92 -3 -87 -4 -88 -149 0
-150 0 0 80 0 79 118 4 117 3 -122 2 -123 2 0 -90z"/>
<path d="M1304 1391 c-2 -2 -4 -26 -4 -53 l0 -48 140 0 140 0 0 49 0 50 -136
3 c-75 2 -138 1 -140 -1z"/>
<path d="M1076 1335 c-3 -8 -1 -15 4 -15 6 0 10 7 10 15 0 8 -2 15 -4 15 -2 0
-6 -7 -10 -15z"/>
<path d="M2209 1633 c-13 -15 -12 -15 9 -4 23 12 28 21 13 21 -5 0 -15 -7 -22
-17z"/>
<path d="M2109 1563 c-13 -15 -12 -15 9 -4 23 12 28 21 13 21 -5 0 -15 -7 -22
-17z"/>
<path d="M2620 1495 l0 -85 35 0 35 0 0 85 0 85 -35 0 -35 0 0 -85z"/>
<path d="M2462 1278 c3 -29 7 -33 36 -36 31 -3 32 -2 32 32 0 35 -1 36 -36 36
-34 0 -35 -1 -32 -32z"/>
<path d="M2460 1110 l0 -110 85 0 85 0 0 110 0 110 -85 0 -85 0 0 -110z"/>
<path d="M2160 800 l0 -80 50 0 50 0 0 80 0 80 -50 0 -50 0 0 -80z"/>
<path d="M782 688 c3 -29 6 -33 33 -33 27 0 30 4 33 33 3 31 2 32 -33 32 -35
0 -36 -1 -33 -32z"/>
<path d="M2284 2445 c-8 -32 -8 -32 39 -40 30 -6 37 -4 37 8 0 15 -45 57 -61
57 -5 0 -11 -11 -15 -25z"/>
<path d="M618 2439 c-16 -11 -28 -29 -28 -40 0 -16 7 -19 45 -19 43 0 45 1 45
29 0 16 -6 32 -12 34 -7 3 -3 6 10 6 18 1 22 -4 22 -29 0 -28 2 -30 40 -30 22
0 40 -4 40 -10 0 -5 -20 -10 -45 -10 -43 0 -45 -1 -45 -30 0 -16 -4 -30 -8
-30 -5 0 -7 14 -4 30 4 30 4 30 -42 30 -45 0 -46 -1 -48 -32 -1 -22 -4 -15 -8
22 l-7 55 -1 -57 -2 -58 59 0 c32 0 79 -3 104 -6 l45 -6 10 48 c6 27 14 66 17
87 l7 37 -83 0 c-69 -1 -89 -4 -111 -21z"/>
<path d="M495 2340 c-27 -28 -27 -30 -8 -30 12 0 28 -3 37 -6 13 -5 16 1 16
30 0 44 -8 45 -45 6z"/>
<path d="M2612 2113 l3 -58 38 -3 c20 -2 37 0 37 3 0 9 -69 115 -75 115 -3 0
-5 -26 -3 -57z"/>
<path d="M141 1664 c0 -11 3 -14 6 -6 3 7 2 16 -1 19 -3 4 -6 -2 -5 -13z"/>
<path d="M2352 798 l3 -63 56 -3 55 -3 53 56 c29 30 49 60 46 65 -3 6 -52 10
-111 10 l-105 0 3 -62z"/>
<path d="M1965 658 c-2 -7 -6 -30 -10 -51 -3 -21 -8 -44 -11 -50 -3 -8 13 -12
51 -12 l55 0 -6 45 c-4 25 -11 53 -16 63 -10 20 -57 23 -63 5z m62 -53 l10
-45 -40 0 c-36 0 -39 2 -33 23 3 12 6 32 6 45 0 16 6 22 23 22 20 0 25 -7 34
-45z"/>
<path d="M2068 665 c-16 -16 27 -145 54 -161 7 -5 5 4 -4 19 -10 14 -18 28
-18 31 0 3 26 6 58 8 l57 3 0 35 0 35 -57 3 -58 3 -1 -38 c0 -30 -2 -34 -9
-18 -5 11 -9 30 -9 43 -1 21 2 22 88 22 l90 0 -9 -29 c-4 -15 -14 -39 -21 -52
-11 -22 -11 -23 4 -11 20 17 41 78 33 97 -4 12 -26 15 -99 15 -52 0 -96 -2
-99 -5z"/>
<path d="M2305 660 c-1 -3 -5 -21 -9 -40 -3 -19 -3 -29 0 -22 3 6 10 12 16 12
13 0 68 39 68 48 0 8 -70 10 -75 2z"/>
<path d="M1929 505 c-31 -17 -59 -57 -59 -82 1 -12 6 -7 14 12 7 17 23 38 34
49 30 26 101 32 143 12 l34 -17 -24 21 c-28 24 -102 27 -142 5z"/>
<path d="M1770 440 c0 -33 4 -60 10 -60 6 0 10 27 10 60 0 33 -4 60 -10 60 -6
0 -10 -27 -10 -60z"/>
<path d="M1935 465 c-52 -51 -14 -58 83 -15 36 16 43 23 32 30 -30 19 -90 11
-115 -15z"/>
</g>
</svg>
