<?xml version="1.0" standalone="no"?>
<!DOCTYPE svg PUBLIC "-//W3C//DTD SVG 20010904//EN"
 "http://www.w3.org/TR/2001/REC-SVG-20010904/DTD/svg10.dtd">
<svg version="1.0" xmlns="http://www.w3.org/2000/svg"
 width="16.000000pt" height="16.000000pt" viewBox="0 0 16.000000 16.000000"
 preserveAspectRatio="xMidYMid meet">
<metadata>
Created by potrace 1.11, written by Peter Selinger 2001-2013
</metadata>
<g transform="translate(0.000000,16.000000) scale(0.001067,-0.001067)"
fill="#000000" stroke="none">
<path d="M7210 14349 c-1534 -58 -3012 -610 -4216 -1575 -355 -284 -745 -671
-1039 -1029 -701 -854 -1198 -1884 -1430 -2960 -109 -508 -155 -942 -155
-1471 0 -252 14 -611 25 -622 1 -2 56 31 121 74 693 450 1291 727 2289 1062
684 230 984 321 1192 362 1851 366 4212 422 6143 145 374 -54 891 -150 1126
-210 250 -63 904 -278 1336 -439 946 -351 1611 -675 1924 -937 l81 -68 6 112
c11 176 8 799 -3 969 -159 2338 -1451 4419 -3485 5614 -82 48 -253 140 -380
204 -813 411 -1673 659 -2587 745 -159 15 -614 36 -708 33 -25 -1 -133 -4
-240 -9z m-848 -2752 c47 -20 71 -58 71 -111 0 -57 -32 -102 -81 -116 -20 -6
-155 -16 -298 -24 -244 -12 -265 -15 -317 -39 -79 -36 -151 -106 -190 -186
l-32 -66 -7 -770 c-7 -849 -25 -1676 -36 -1687 -4 -4 -115 -26 -247 -48 -132
-22 -463 -85 -736 -140 -273 -55 -501 -100 -506 -100 -7 0 -10 440 -9 1373 l1
1372 -28 56 c-42 87 -98 144 -180 184 l-72 34 -330 17 c-181 9 -345 21 -364
28 -43 14 -71 51 -77 102 -8 70 37 120 121 132 27 4 776 6 1665 5 1415 -1
1621 -3 1652 -16z m5733 -2 c71 -26 96 -105 55 -172 -35 -58 -30 -57 -455 -78
l-300 -15 -72 -35 c-84 -42 -132 -91 -177 -185 l-31 -65 3 -1367 c2 -979 -1
-1368 -8 -1368 -6 0 -235 45 -508 100 -273 55 -605 118 -737 140 -131 23 -241
43 -244 45 -10 11 -21 485 -31 1429 -12 1087 -10 1049 -65 1135 -35 56 -103
117 -163 146 -53 26 -67 28 -321 42 -146 8 -283 18 -303 24 -67 17 -99 109
-63 179 18 35 41 49 96 58 23 4 770 6 1662 5 1429 -2 1627 -4 1662 -18z"/>
<path d="M6755 7563 c-210 -4 -735 -21 -1039 -35 l-269 -12 7 -1535 c5 -924
11 -1562 17 -1601 14 -89 53 -162 121 -225 90 -84 118 -91 436 -109 304 -18
350 -28 390 -86 27 -41 28 -83 2 -125 -40 -64 76 -60 -1760 -57 -921 1 -1692
5 -1712 8 -55 8 -98 61 -98 118 0 53 25 88 80 110 39 15 97 20 570 45 122 6
165 12 200 28 74 33 129 80 170 145 l40 61 0 1544 0 1543 -24 0 c-13 0 -109
-11 -212 -25 -670 -90 -1822 -327 -2906 -597 l-368 -91 0 -36 c0 -53 37 -365
60 -510 199 -1234 716 -2383 1507 -3348 273 -334 644 -705 978 -978 987 -809
2186 -1345 3445 -1539 414 -64 645 -81 1110 -81 399 0 519 7 854 46 1288 149
2546 666 3571 1468 1410 1102 2350 2703 2619 4461 27 180 56 417 56 466 l0 30
-207 67 c-730 234 -1361 400 -1903 501 -384 71 -664 111 -1352 191 l-48 6 0
-1548 c0 -1509 1 -1549 20 -1591 30 -66 111 -145 183 -178 56 -25 78 -29 222
-36 439 -23 611 -37 648 -53 70 -29 96 -107 57 -170 -40 -64 79 -60 -1794 -57
-1604 2 -1712 3 -1745 20 -74 35 -90 130 -33 193 33 37 70 42 390 59 129 7
228 16 252 25 91 32 175 110 219 205 l26 55 7 765 c4 421 7 1139 5 1595 l-2
830 -290 12 c-713 29 -1739 40 -2500 26z"/>
</g>
</svg>
