<?xml version="1.0" standalone="no"?>
<!DOCTYPE svg PUBLIC "-//W3C//DTD SVG 20010904//EN"
 "http://www.w3.org/TR/2001/REC-SVG-20010904/DTD/svg10.dtd">
<svg version="1.0" xmlns="http://www.w3.org/2000/svg"
 width="300.000000pt" height="300.000000pt" viewBox="0 0 300.000000 300.000000"
 preserveAspectRatio="xMidYMid meet">
<metadata>
Created by potrace 1.11, written by Peter Selinger 2001-2013
</metadata>
<g transform="translate(0.000000,300.000000) scale(0.100000,-0.100000)"
fill="#000000" stroke="none">
<path d="M1094 2018 c-76 -51 -163 -118 -195 -149 -52 -50 -61 -55 -93 -51
-68 8 -99 -5 -167 -71 -79 -75 -144 -120 -305 -212 -78 -44 -161 -103 -227
-160 -58 -49 -106 -93 -106 -97 -2 -18 200 46 337 106 45 20 106 40 135 43 28
3 61 12 73 20 12 7 63 24 115 37 120 31 145 41 182 72 46 39 116 71 258 119
72 24 133 46 136 49 11 11 -12 29 -73 58 -87 42 -85 66 11 127 22 14 56 38 75
53 34 25 51 32 77 29 6 0 60 -40 120 -88 59 -47 193 -143 298 -212 207 -137
270 -190 280 -236 18 -80 33 -88 205 -111 98 -13 164 -27 240 -52 8 -2 -28 22
-80 55 -142 88 -170 108 -230 167 -30 29 -82 68 -115 86 -33 18 -78 45 -100
60 -22 15 -83 48 -135 73 -90 44 -155 90 -279 196 -30 25 -84 67 -120 92 -36
26 -75 56 -85 68 -13 14 -31 21 -57 21 -31 0 -62 -16 -175 -92z"/>
<path d="M996 1543 c39 -52 61 -69 119 -92 77 -31 154 -40 355 -39 102 1 204
-2 227 -6 120 -20 256 -87 388 -191 66 -53 73 -51 20 5 -29 32 -40 47 -25 38
14 -8 66 -62 115 -119 107 -122 159 -162 241 -188 113 -36 325 -19 475 38 58
22 121 61 68 42 -15 -5 -44 -12 -65 -16 -22 -3 -61 -9 -89 -13 -78 -13 -222
-4 -307 17 -108 28 -169 62 -257 144 -83 77 -159 122 -193 114 -14 -4 -37 7
-72 33 -80 60 -221 126 -329 154 -88 23 -112 25 -215 20 -246 -11 -309 -2
-414 62 -31 19 -59 34 -63 34 -4 0 5 -17 21 -37z"/>
</g>
</svg>
