<?xml version="1.0" standalone="no"?>
<!DOCTYPE svg PUBLIC "-//W3C//DTD SVG 20010904//EN"
 "http://www.w3.org/TR/2001/REC-SVG-20010904/DTD/svg10.dtd">
<svg version="1.0" xmlns="http://www.w3.org/2000/svg"
 width="300.000000pt" height="300.000000pt" viewBox="0 0 300.000000 300.000000"
 preserveAspectRatio="xMidYMid meet">
<metadata>
Created by potrace 1.11, written by Peter Selinger 2001-2013
</metadata>
<g transform="translate(0.000000,300.000000) scale(0.100000,-0.100000)"
fill="#000000" stroke="none">
<path d="M876 1394 l-615 -617 52 -41 c28 -22 59 -48 68 -56 8 -8 57 -49 109
-90 51 -41 125 -101 164 -133 39 -32 78 -64 86 -70 8 -7 34 -28 57 -46 24 -19
41 -36 38 -39 -2 -3 -31 -6 -62 -7 -217 -10 -380 -17 -390 -18 -7 0 -13 -3
-13 -6 0 -3 217 -6 483 -7 265 -1 511 -4 547 -9 76 -9 97 -9 210 2 47 4 309 8
583 8 273 0 497 2 497 5 0 3 -28 6 -63 7 -34 0 -129 4 -212 8 -82 4 -178 8
-212 9 -35 0 -63 3 -63 6 0 3 15 16 32 30 18 14 147 119 288 234 140 115 256
210 258 211 2 2 -274 280 -612 619 l-615 616 -615 -616z"/>
<path d="M275 270 c-3 -5 -1 -10 4 -10 6 0 11 5 11 10 0 6 -2 10 -4 10 -3 0
-8 -4 -11 -10z"/>
<path d="M300 268 c0 -11 48 -10 54 1 3 4 -8 8 -24 7 -17 -1 -30 -4 -30 -8z"/>
<path d="M2708 263 c7 -3 16 -2 19 1 4 3 -2 6 -13 5 -11 0 -14 -3 -6 -6z"/>
<path d="M2780 260 c8 -5 20 -10 25 -10 6 0 3 5 -5 10 -8 5 -19 10 -25 10 -5
0 -3 -5 5 -10z"/>
<path d="M732 131 c3 -16 48 -26 48 -11 0 19 -5 24 -28 25 -15 0 -22 -4 -20
-14z"/>
<path d="M880 142 c-14 -5 -30 -21 -30 -32 0 -3 11 -5 24 -5 24 1 56 21 56 34
0 8 -30 10 -50 3z"/>
<path d="M1335 140 c-4 -6 -3 -16 3 -22 13 -13 23 4 13 21 -7 10 -10 10 -16 1z"/>
</g>
</svg>
