<?xml version="1.0" standalone="no"?>
<!DOCTYPE svg PUBLIC "-//W3C//DTD SVG 20010904//EN"
 "http://www.w3.org/TR/2001/REC-SVG-20010904/DTD/svg10.dtd">
<svg version="1.0" xmlns="http://www.w3.org/2000/svg"
 width="300.000000pt" height="300.000000pt" viewBox="0 0 300.000000 300.000000"
 preserveAspectRatio="xMidYMid meet">
<metadata>
Created by potrace 1.11, written by Peter Selinger 2001-2013
</metadata>
<g transform="translate(0.000000,300.000000) scale(0.100000,-0.100000)"
fill="#000000" stroke="none">
<path d="M1445 2588 c-16 -12 -61 -45 -99 -72 -38 -28 -71 -50 -73 -48 -2 1
-10 -3 -18 -10 -31 -28 -44 -38 -51 -38 -4 0 -26 -16 -49 -35 -23 -19 -45 -31
-49 -28 -3 4 -6 1 -6 -5 0 -6 -15 -19 -32 -28 -18 -9 -35 -20 -38 -24 -3 -4
-14 -12 -25 -18 -19 -9 -145 -99 -172 -122 -7 -5 -17 -10 -23 -10 -5 0 -10 -4
-10 -10 0 -5 -5 -10 -11 -10 -10 0 -96 -56 -109 -71 -3 -3 -20 -14 -37 -24
-18 -11 -33 -23 -33 -27 0 -4 -4 -8 -9 -8 -6 0 -40 -19 -76 -42 -37 -24 -69
-41 -72 -40 -3 2 -9 -1 -12 -6 -7 -10 -94 -56 -100 -53 -2 2 -8 -4 -13 -13 -5
-9 -13 -14 -18 -11 -4 3 -10 -2 -14 -10 -6 -17 -8 -17 157 -16 111 0 142 5
163 25 6 6 22 18 34 26 13 8 32 23 42 33 10 9 21 18 26 18 4 1 26 14 49 30 23
16 45 29 50 29 4 0 14 9 21 20 7 11 19 20 26 20 8 0 16 3 18 8 2 6 111 82 167
117 9 6 18 12 21 15 3 3 38 28 79 55 104 71 114 78 129 92 7 7 17 13 22 13 5
0 15 6 22 13 8 6 21 17 30 22 9 6 44 29 78 53 58 39 64 41 76 25 7 -10 14 -14
14 -8 0 5 7 -1 16 -13 8 -12 22 -22 30 -22 8 0 14 -5 14 -10 0 -6 10 -15 23
-20 12 -5 45 -25 72 -45 28 -20 77 -54 110 -76 32 -22 63 -45 67 -52 4 -7 8
-8 8 -4 0 5 27 -13 60 -38 33 -25 60 -43 60 -40 0 4 6 0 14 -7 7 -7 24 -20 36
-28 12 -8 55 -39 95 -67 40 -29 78 -53 84 -53 6 0 11 -4 11 -10 0 -5 5 -10 10
-10 6 0 16 -5 23 -10 7 -6 39 -31 73 -55 60 -44 60 -44 150 -45 148 -3 204 0
204 8 0 5 -17 17 -37 28 -68 37 -88 49 -95 59 -4 6 -8 6 -8 1 0 -5 -7 -3 -15
4 -8 7 -15 10 -15 6 0 -3 -9 3 -20 14 -11 11 -27 20 -35 20 -8 0 -15 5 -15 11
0 5 -5 7 -10 4 -6 -3 -13 1 -16 9 -3 9 -11 16 -16 16 -6 0 -33 16 -59 35 -27
19 -53 35 -58 35 -5 0 -11 7 -15 15 -3 8 -10 15 -16 15 -6 0 -16 5 -23 10 -40
34 -166 118 -170 113 -3 -2 -10 5 -17 16 -6 12 -15 21 -20 21 -12 0 -163 102
-168 113 -2 4 -8 7 -14 7 -6 0 -19 9 -29 21 -9 11 -21 21 -26 21 -4 0 -35 19
-68 42 -33 22 -62 41 -65 41 -3 0 -13 7 -23 15 -32 27 -42 35 -89 68 -25 17
-50 32 -55 32 -4 0 -21 -10 -38 -22z"/>
<path d="M1410 2225 c0 -33 2 -35 35 -35 24 0 35 5 35 15 0 8 4 15 10 15 5 0
7 -7 4 -15 -5 -12 2 -15 34 -15 39 0 39 1 38 35 -1 35 -2 36 -36 33 -22 -2
-34 -8 -32 -15 1 -7 -2 -13 -8 -13 -5 0 -10 7 -10 15 0 10 -11 15 -35 15 -33
0 -35 -2 -35 -35z"/>
<path d="M1412 2142 c3 -32 6 -36 36 -37 30 -1 32 0 32 34 0 34 -2 36 -36 37
-34 1 -35 1 -32 -34z"/>
<path d="M1497 2172 c-2 -4 -3 -20 -3 -36 1 -29 11 -34 64 -27 9 1 12 61 3 62
-33 6 -61 7 -64 1z"/>
<path d="M1331 1991 c-7 -5 -22 -6 -32 -4 -11 3 -25 0 -32 -6 -8 -6 -16 -9
-19 -6 -2 3 -29 -5 -59 -16 -30 -11 -67 -25 -84 -32 -16 -6 -51 -26 -77 -44
-27 -18 -48 -30 -48 -26 0 4 -7 -2 -15 -13 -8 -10 -15 -16 -15 -12 -1 22 -200
-198 -200 -220 0 -6 -6 -17 -14 -25 -21 -21 -55 -100 -58 -134 -1 -7 -5 -13
-10 -13 -5 0 -8 -6 -7 -12 1 -7 -1 -21 -6 -31 -4 -11 -8 -35 -9 -55 -1 -21 -5
-40 -9 -43 -24 -17 -2 -332 26 -366 5 -7 6 -13 2 -13 -4 0 -2 -7 5 -15 7 -8
10 -15 6 -15 -3 0 12 -34 33 -75 22 -41 38 -75 35 -75 -3 0 0 -6 6 -12 6 -7
16 -21 23 -31 10 -15 29 -17 132 -18 66 -1 127 1 135 4 15 6 188 17 268 17 23
0 42 4 42 9 0 6 10 8 22 6 12 -3 27 0 34 6 6 5 16 9 20 8 17 -4 93 22 108 36
8 8 19 15 25 15 16 0 41 42 41 71 0 36 -55 85 -215 191 -126 83 -208 153 -250
214 -28 39 -80 147 -77 158 2 4 -1 13 -6 20 -5 6 -8 21 -7 34 1 13 -2 25 -7
28 -11 7 -10 121 1 128 5 3 9 16 9 29 0 39 51 132 103 186 27 28 51 51 55 51
3 0 17 9 31 20 14 11 29 17 34 14 5 -3 9 -1 9 4 0 12 80 43 91 36 5 -3 9 -1 9
4 0 5 6 9 13 10 53 5 77 9 83 15 11 10 -128 8 -145 -2z"/>
<path d="M1670 1960 c-11 -7 0 -12 45 -25 6 -1 26 -12 45 -24 19 -11 42 -24
50 -28 17 -8 132 -123 124 -123 -4 0 -1 -7 6 -15 7 -8 9 -15 5 -15 -4 0 -3 -6
2 -12 11 -16 11 -27 -3 -53 -6 -11 -10 -25 -10 -31 1 -14 74 -120 99 -142 9
-9 17 -22 17 -29 0 -7 5 -13 10 -13 6 0 10 -6 10 -14 0 -7 7 -19 15 -26 8 -7
15 -17 15 -22 0 -12 -43 11 -53 28 -4 8 -13 14 -19 14 -6 0 -18 8 -27 18 -9
11 -32 30 -52 43 -136 91 -149 102 -138 115 14 17 39 18 39 2 0 -6 3 -8 7 -5
3 4 13 1 21 -6 13 -10 14 -9 9 3 -4 8 -10 23 -13 33 -4 9 -10 17 -15 17 -5 0
-9 7 -9 15 0 10 -9 14 -25 13 -14 -1 -25 -7 -25 -13 0 -6 -5 -16 -12 -23 -13
-13 -47 1 -61 25 -10 17 -92 55 -127 59 -14 2 -37 6 -52 10 -17 4 -28 2 -28
-4 0 -6 -10 -9 -22 -7 -26 5 -95 -39 -112 -70 -6 -11 -15 -23 -19 -26 -4 -3
-7 -10 -6 -15 1 -5 -1 -17 -5 -27 -7 -14 -5 -33 9 -77 9 -29 34 -71 59 -97 16
-18 26 -33 22 -33 -4 0 -1 -7 8 -15 8 -8 19 -15 25 -15 5 0 14 -6 18 -13 12
-21 160 -127 167 -120 3 4 6 1 6 -6 0 -6 11 -16 24 -21 26 -10 156 -129 156
-143 0 -4 6 -15 13 -22 32 -37 38 -46 32 -54 -3 -5 -1 -12 4 -16 28 -17 24
-191 -5 -220 -9 -8 -13 -19 -10 -24 3 -5 -1 -14 -9 -21 -8 -7 -15 -19 -15 -26
0 -8 -4 -14 -10 -14 -5 0 -10 -5 -10 -12 0 -15 -100 -108 -116 -108 -7 0 -17
-6 -21 -13 -8 -13 -94 -54 -102 -49 -2 2 -7 -1 -11 -7 -3 -7 -20 -13 -36 -15
-16 -2 -42 -9 -57 -15 -16 -6 -42 -11 -58 -11 -16 0 -29 -3 -29 -8 0 -4 -50
-7 -110 -6 -80 1 -110 -1 -107 -10 2 -6 8 -11 13 -12 5 0 16 -3 24 -7 15 -5
69 -16 125 -24 65 -9 216 -3 255 10 8 3 40 11 70 18 30 7 68 20 85 31 16 10
35 18 42 18 25 0 161 101 231 170 39 40 72 75 72 78 0 3 10 19 23 36 28 37 80
146 97 201 7 22 15 45 19 50 3 6 4 20 2 33 -1 12 2 22 7 22 5 0 8 25 7 55 -1
30 1 55 5 55 4 0 6 21 3 48 -2 26 -5 65 -7 87 -1 22 -6 48 -11 58 -4 10 -5 20
-2 23 3 3 -4 31 -15 62 -11 32 -20 63 -21 70 0 6 -4 12 -9 12 -5 0 -6 5 -3 10
3 6 1 10 -4 10 -6 0 -10 3 -9 8 1 4 -9 27 -22 52 -13 25 -24 49 -25 53 0 5 -8
14 -17 21 -10 7 -18 17 -18 22 0 23 -176 189 -217 205 -12 4 -40 20 -63 34
-22 14 -45 23 -50 20 -4 -3 -10 -2 -12 3 -6 13 -85 40 -98 32z"/>
</g>
</svg>
