<?xml version="1.0" standalone="no"?>
<!DOCTYPE svg PUBLIC "-//W3C//DTD SVG 20010904//EN"
 "http://www.w3.org/TR/2001/REC-SVG-20010904/DTD/svg10.dtd">
<svg version="1.0" xmlns="http://www.w3.org/2000/svg"
 width="300.000000pt" height="300.000000pt" viewBox="0 0 300.000000 300.000000"
 preserveAspectRatio="xMidYMid meet">
<metadata>
Created by potrace 1.11, written by Peter Selinger 2001-2013
</metadata>
<g transform="translate(0.000000,300.000000) scale(0.100000,-0.100000)"
fill="#000000" stroke="none">
<path d="M150 2195 c0 -8 15 -21 33 -30 25 -12 41 -31 60 -73 25 -53 288 -723
379 -964 44 -118 45 -151 3 -170 -26 -12 -34 -37 -12 -39 15 -1 377 -1 395 0
22 2 12 19 -24 42 -33 20 -36 25 -31 58 8 56 37 118 47 101 25 -46 152 -390
152 -414 1 -18 -6 -34 -18 -42 -31 -21 -44 -34 -44 -43 0 -4 95 -8 210 -8 193
0 210 1 210 17 0 11 -10 20 -25 24 -51 13 -52 44 -5 159 l42 104 192 1 c105 0
199 1 209 1 28 2 20 27 -13 41 -17 7 -33 22 -36 34 -4 19 33 143 41 134 5 -5
146 -370 156 -401 11 -37 3 -54 -32 -73 -16 -8 -29 -20 -29 -28 0 -10 43 -13
210 -13 116 0 212 3 215 6 6 11 -8 26 -37 38 -52 23 -64 -15 250 788 71 182
136 345 146 363 9 18 33 43 52 54 64 38 42 43 -194 43 -194 1 -222 -1 -222
-15 0 -8 15 -22 33 -30 28 -13 32 -19 30 -50 -2 -33 -38 -137 -118 -340 -18
-47 -59 -152 -90 -235 -31 -82 -58 -151 -59 -152 -2 -2 -20 41 -40 95 -21 53
-42 106 -47 117 -5 11 -25 63 -44 115 -39 103 -40 90 6 205 7 17 13 35 15 40
3 12 155 396 177 448 10 22 30 45 52 58 19 12 35 27 35 35 0 21 -435 21 -443
0 -4 -10 2 -17 16 -22 44 -13 55 -32 46 -75 -13 -56 -60 -172 -74 -184 -8 -7
-84 -10 -196 -10 -102 1 -187 -3 -190 -8 -4 -5 -20 26 -36 69 -65 171 -65 171
-15 201 61 38 34 43 -214 43 -193 0 -234 -2 -234 -14 0 -7 9 -16 19 -19 10 -2
26 -16 35 -29 15 -23 14 -30 -25 -128 -22 -58 -42 -107 -45 -109 -3 -3 -89 -5
-191 -6 -134 0 -187 -3 -190 -12 -2 -6 6 -17 19 -24 49 -25 69 -57 118 -183
28 -72 56 -140 61 -151 15 -31 13 -55 -8 -109 l-20 -48 -22 58 c-13 33 -29 75
-37 94 -91 231 -206 553 -207 585 -2 34 2 41 26 53 15 7 27 20 27 28 0 12 -35
14 -225 14 -190 0 -225 -2 -225 -15z m1434 -344 c13 -14 16 -28 11 -50 -4 -17
-10 -31 -13 -31 -4 0 -14 23 -24 50 -18 55 -7 67 26 31z m-225 -258 c39 -100
71 -188 71 -197 0 -13 -115 -304 -124 -313 -1 -2 -20 43 -40 99 -21 57 -43
117 -51 133 -7 17 -20 55 -30 85 -10 30 -22 60 -26 66 -19 24 -10 65 46 207
54 135 60 146 71 125 6 -13 44 -105 83 -205z m411 -95 c0 -22 -34 -108 -42
-108 -13 0 -9 33 7 64 8 15 15 35 15 42 0 8 5 14 10 14 6 0 10 -6 10 -12z
m-204 -526 c-24 -24 -28 -9 -9 34 l17 39 4 -29 c2 -17 -3 -35 -12 -44z"/>
</g>
</svg>
