<?xml version="1.0" standalone="no"?>
<!DOCTYPE svg PUBLIC "-//W3C//DTD SVG 20010904//EN"
 "http://www.w3.org/TR/2001/REC-SVG-20010904/DTD/svg10.dtd">
<svg version="1.0" xmlns="http://www.w3.org/2000/svg"
 width="300.000000pt" height="300.000000pt" viewBox="0 0 300.000000 300.000000"
 preserveAspectRatio="xMidYMid meet">
<metadata>
Created by potrace 1.11, written by Peter Selinger 2001-2013
</metadata>
<g transform="translate(0.000000,300.000000) scale(0.100000,-0.100000)"
fill="#000000" stroke="none">
<path d="M1476 2503 c-3 -3 -58 -29 -123 -59 -65 -30 -138 -64 -163 -75 -25
-11 -108 -49 -185 -83 l-140 -63 -3 -53 c-5 -82 -1 -84 63 -53 39 19 58 24 63
16 5 -8 8 -542 3 -586 -1 -4 -92 -6 -203 -5 l-203 3 0 215 0 215 58 28 57 28
0 59 c0 32 -3 61 -7 63 -10 5 -653 -280 -671 -297 -17 -17 -21 -67 -8 -85 8
-11 8 -13 -1 -8 -7 5 -9 0 -6 -14 4 -12 11 -18 20 -15 8 4 26 9 39 12 l24 6 0
-521 0 -522 -22 -8 c-13 -5 -26 -7 -31 -4 -29 17 -45 -101 -17 -128 16 -15
120 -21 120 -6 0 4 5 5 12 1 16 -10 188 -11 188 -1 0 5 5 5 12 1 16 -10 268
-11 268 -1 0 4 6 5 12 1 19 -12 47 -12 57 0 11 14 17 108 8 123 -4 6 -27 11
-52 11 -24 0 -48 3 -54 6 -5 4 -8 105 -8 249 l2 242 199 3 c115 1 202 -1 205
-7 11 -18 4 -483 -7 -490 -6 -4 -29 -6 -51 -4 -22 1 -43 -3 -47 -9 -10 -16 -6
-110 6 -122 11 -11 210 -15 210 -3 0 4 5 5 12 1 16 -10 188 -11 188 -1 0 5 5
5 12 1 16 -10 268 -11 268 -1 0 4 5 5 12 1 16 -10 188 -11 188 -1 0 5 5 5 12
1 16 -10 268 -11 268 -1 0 4 8 4 17 -1 11 -7 20 -6 27 2 12 12 18 125 7 127
-3 1 -28 3 -56 4 -27 2 -53 3 -58 4 -4 1 -6 112 -5 248 l3 248 204 3 c118 1
207 -1 210 -7 7 -11 7 -479 0 -486 -3 -3 -30 -6 -60 -8 l-54 -3 -1 -62 c0 -35
4 -66 9 -69 16 -10 237 -10 237 0 0 4 5 5 12 1 16 -10 188 -11 188 -1 0 5 5 5
12 1 7 -4 56 -8 111 -8 112 -1 121 4 122 68 1 58 -11 79 -42 73 -17 -3 -26 1
-31 14 -4 10 -7 246 -6 526 1 562 -5 511 59 501 18 -3 20 3 23 53 2 37 -2 59
-10 66 -7 5 -83 40 -168 78 -85 37 -177 78 -205 90 -199 89 -284 125 -294 125
-7 0 -11 -23 -11 -60 l0 -60 53 -26 c28 -15 54 -28 56 -30 9 -8 7 -399 -2
-417 -7 -16 -24 -18 -210 -15 l-202 3 -3 298 c-1 169 2 297 7 297 5 0 34 -11
65 -25 31 -14 57 -21 57 -17 1 4 2 31 3 61 1 44 -2 56 -19 67 -11 7 -126 61
-255 120 -129 58 -260 118 -290 132 -61 28 -76 32 -84 25z m42 -165 c9 -9 12
-156 12 -600 0 -473 3 -588 13 -588 24 0 78 -55 90 -91 8 -22 12 -97 12 -199
l0 -165 -148 0 c-141 0 -147 0 -148 20 -7 125 -2 315 9 345 13 37 66 90 88 90
12 0 14 97 14 584 0 321 3 591 6 600 7 19 35 21 52 4z"/>
</g>
</svg>
