<?xml version="1.0" standalone="no"?>
<!DOCTYPE svg PUBLIC "-//W3C//DTD SVG 20010904//EN"
 "http://www.w3.org/TR/2001/REC-SVG-20010904/DTD/svg10.dtd">
<svg version="1.0" xmlns="http://www.w3.org/2000/svg"
 width="234.000000pt" height="234.000000pt" viewBox="0 0 234.000000 234.000000"
 preserveAspectRatio="xMidYMid meet">
<metadata>
Created by potrace 1.11, written by Peter Selinger 2001-2013
</metadata>
<g transform="translate(0.000000,234.000000) scale(0.100000,-0.100000)"
fill="#000000" stroke="none">
<path d="M1040 2194 c-235 -161 -534 -321 -712 -383 -54 -18 -98 -34 -98 -35
0 0 5 -28 10 -61 5 -33 19 -147 30 -255 53 -496 137 -736 340 -975 73 -85 288
-269 440 -376 l101 -70 102 72 c154 109 359 282 433 368 215 248 290 476 354
1066 12 105 23 200 26 211 5 19 -5 25 -93 55 -182 62 -450 206 -707 378 -58
39 -111 71 -118 70 -7 0 -56 -29 -108 -65z m210 -119 c233 -156 481 -288 638
-340 80 -26 83 -28 78 -54 -7 -34 -23 -168 -31 -256 -11 -128 -46 -327 -77
-434 -57 -204 -149 -362 -291 -498 -123 -118 -387 -323 -415 -323 -30 0 -351
251 -444 347 -67 69 -156 197 -193 278 -76 162 -109 310 -150 667 -14 120 -28
224 -31 232 -4 10 17 21 77 41 157 50 422 191 639 339 52 36 97 65 99 65 3 1
48 -28 101 -64z"/>
<path d="M1134 1662 c-61 -9 -89 -107 -44 -152 20 -20 20 -20 -67 -195 -48
-96 -91 -174 -95 -173 -3 2 -47 36 -97 77 -75 62 -88 77 -80 92 16 31 10 66
-17 98 -53 63 -154 26 -154 -56 0 -42 46 -93 82 -93 23 0 26 -7 59 -172 l35
-173 399 0 399 0 35 173 c33 165 36 172 59 172 36 0 82 51 82 93 0 82 -101
119 -154 56 -27 -32 -33 -67 -17 -98 8 -15 -5 -30 -80 -92 -50 -41 -94 -75
-97 -77 -4 -1 -47 77 -95 173 -87 175 -87 175 -67 195 31 31 30 92 -2 126 -21
23 -49 32 -84 26z"/>
<path d="M750 781 c0 -28 7 -49 24 -68 l24 -28 357 0 357 0 24 28 c17 19 24
40 24 68 l0 39 -405 0 -405 0 0 -39z"/>
</g>
</svg>
