<?xml version="1.0" standalone="no"?>
<!DOCTYPE svg PUBLIC "-//W3C//DTD SVG 20010904//EN"
 "http://www.w3.org/TR/2001/REC-SVG-20010904/DTD/svg10.dtd">
<svg version="1.0" xmlns="http://www.w3.org/2000/svg"
 width="300.000000pt" height="300.000000pt" viewBox="0 0 300.000000 300.000000"
 preserveAspectRatio="xMidYMid meet">
<metadata>
Created by potrace 1.11, written by Peter Selinger 2001-2013
</metadata>
<g transform="translate(0.000000,300.000000) scale(0.100000,-0.100000)"
fill="#000000" stroke="none">
<path d="M336 2462 c-3 -3 -42 -4 -86 -3 l-80 2 0 -931 c0 -815 2 -931 15
-927 8 4 17 2 20 -3 3 -6 15 -6 30 0 14 5 25 6 25 2 0 -8 135 -6 157 2 7 3 13
1 13 -4 0 -6 10 -6 26 0 15 6 32 6 42 1 11 -6 24 -6 34 0 11 6 19 6 23 -1 4
-7 12 -7 24 0 10 5 21 7 25 3 8 -8 283 -6 296 2 6 3 10 2 10 -4 0 -6 9 -8 23
-3 25 9 74 8 83 -1 4 -4 15 -2 25 3 12 7 20 7 24 0 4 -6 11 -8 16 -4 13 8 79
11 79 4 0 -6 199 -3 217 4 7 3 13 1 13 -4 0 -6 10 -6 26 0 15 6 32 6 42 1 11
-6 24 -6 34 0 11 6 19 6 23 -1 4 -7 12 -7 24 0 10 5 21 7 25 3 8 -8 283 -6
296 2 6 3 10 2 10 -4 0 -6 9 -8 23 -3 25 9 74 8 83 -1 4 -4 15 -2 25 3 12 7
20 7 24 0 4 -6 11 -8 16 -4 13 8 79 11 79 4 0 -6 199 -3 217 4 7 3 13 1 13 -4
0 -6 10 -6 26 0 15 6 32 6 42 1 11 -6 24 -6 34 0 11 6 19 6 23 -1 4 -7 12 -7
24 0 10 5 21 7 24 3 8 -8 237 -10 237 -2 0 3 11 4 25 1 l25 -4 0 930 c0 847
-3 968 -23 935 -3 -5 -105 -6 -227 -3 -122 3 -224 2 -226 -1 -2 -4 -20 -3 -39
1 -19 4 -37 5 -39 1 -2 -3 -309 -4 -681 -1 -372 3 -679 2 -681 -1 -2 -4 -20
-3 -39 1 -19 4 -37 5 -39 1 -2 -3 -93 -4 -201 -1 -108 3 -199 2 -201 -1 -2 -4
-19 -3 -38 1 -19 4 -37 5 -40 2z"/>
</g>
</svg>
