<?xml version="1.0" standalone="no"?>
<!DOCTYPE svg PUBLIC "-//W3C//DTD SVG 20010904//EN"
 "http://www.w3.org/TR/2001/REC-SVG-20010904/DTD/svg10.dtd">
<svg version="1.0" xmlns="http://www.w3.org/2000/svg"
 width="16.000000pt" height="16.000000pt" viewBox="0 0 16.000000 16.000000"
 preserveAspectRatio="xMidYMid meet">
<metadata>
Created by potrace 1.11, written by Peter Selinger 2001-2013
</metadata>
<g transform="translate(0.000000,16.000000) scale(0.003200,-0.003200)"
fill="#000000" stroke="none">
<path d="M3134 3379 c83 -65 -31 -287 -266 -515 -46 -44 -172 -158 -280 -252
-108 -95 -200 -176 -203 -182 -3 -5 -10 -10 -15 -10 -5 0 4 28 20 63 30 66 66
180 100 316 20 78 25 88 68 125 78 66 152 147 173 187 57 112 -16 178 -122
110 -72 -45 -145 -158 -199 -308 -17 -47 -33 -71 -64 -96 -62 -50 -536 -397
-543 -397 -3 0 24 33 59 73 202 226 343 443 368 564 9 39 8 68 0 109 -53 256
-500 229 -780 -47 -172 -169 -213 -356 -97 -443 24 -17 43 -21 110 -21 72 0
91 4 150 32 88 42 192 144 231 227 33 71 39 150 13 190 -21 31 -43 37 -27 7
37 -71 -20 -200 -139 -314 -92 -88 -156 -122 -228 -122 -170 0 -158 233 22
424 118 125 285 209 430 218 198 12 238 -141 105 -401 -84 -164 -253 -396
-415 -573 -89 -95 -106 -133 -61 -133 26 0 288 181 610 422 109 82 201 147
203 144 10 -10 -127 -395 -161 -453 -45 -76 -46 -93 -7 -93 24 0 48 18 118 84
102 97 262 235 453 391 328 268 480 452 480 582 0 47 -4 59 -29 84 -22 22 -39
29 -67 29 l-37 0 27 -21z m-424 -174 c27 -33 -23 -121 -117 -203 -32 -28 -59
-49 -61 -47 -6 5 38 134 60 179 38 75 89 106 118 71z"/>
<path d="M3680 2745 c-160 -39 -326 -152 -555 -377 l-170 -168 -172 0 c-111 0
-173 4 -173 10 0 22 216 287 323 397 63 64 77 84 65 88 -21 8 -44 -4 -141 -80
-108 -82 -243 -211 -342 -324 l-80 -91 -65 -1 c-111 -2 -193 -13 -198 -26 -3
-10 24 -13 113 -13 l117 0 -36 -47 c-20 -27 -56 -73 -78 -103 -64 -85 -226
-247 -294 -296 -149 -107 -309 -132 -372 -59 -26 31 -23 56 13 95 54 60 59
108 16 151 -34 33 -66 37 -117 13 -77 -37 -98 -142 -45 -226 42 -65 100 -91
218 -96 262 -12 493 125 766 451 49 60 101 113 114 118 26 10 343 13 343 3 0
-3 -24 -35 -54 -72 -177 -221 -227 -366 -152 -440 24 -24 34 -27 99 -27 64 0
80 5 142 38 66 35 240 172 258 203 18 32 -19 10 -106 -62 -142 -116 -253 -162
-295 -121 -15 15 -15 21 1 69 19 60 122 223 216 341 l61 77 147 0 c175 0 187
18 17 26 -60 3 -115 8 -122 10 -31 9 289 356 402 436 154 108 309 116 373 19
22 -33 23 -33 23 -9 0 40 -36 76 -92 93 -61 18 -94 18 -168 0z"/>
</g>
</svg>
