<?xml version="1.0" standalone="no"?>
<!DOCTYPE svg PUBLIC "-//W3C//DTD SVG 20010904//EN"
 "http://www.w3.org/TR/2001/REC-SVG-20010904/DTD/svg10.dtd">
<svg version="1.0" xmlns="http://www.w3.org/2000/svg"
 width="300.000000pt" height="300.000000pt" viewBox="0 0 300.000000 300.000000"
 preserveAspectRatio="xMidYMid meet">
<metadata>
Created by potrace 1.11, written by Peter Selinger 2001-2013
</metadata>
<g transform="translate(0.000000,300.000000) scale(0.100000,-0.100000)"
fill="#000000" stroke="none">
<path d="M1882 2608 l3 -73 258 -3 257 -2 0 75 0 75 -260 0 -261 0 3 -72z"/>
<path d="M356 2479 c-165 -24 -311 -161 -346 -326 -7 -31 -10 -302 -8 -773 l3
-725 24 -58 c47 -117 147 -210 268 -247 64 -20 91 -20 1203 -20 1112 0 1139 0
1203 20 121 37 221 130 268 247 l24 58 3 725 c2 471 -1 742 -8 773 -17 79 -59
153 -121 212 -70 67 -140 101 -234 115 -86 12 -2193 11 -2279 -1z m2350 -166
c48 -26 107 -88 131 -140 17 -35 18 -90 18 -763 l0 -725 -28 -57 c-31 -64 -70
-101 -137 -132 -45 -21 -49 -21 -1190 -21 -1141 0 -1145 0 -1190 21 -67 31
-106 68 -137 132 l-28 57 0 725 c0 673 1 728 18 763 34 73 104 135 177 158 14
4 543 7 1175 6 l1150 -2 41 -22z"/>
<path d="M1244 1901 c-288 -46 -495 -281 -495 -565 -1 -109 12 -167 58 -265
72 -152 245 -283 412 -311 47 -8 155 -10 318 -8 236 4 251 5 314 29 177 68
293 183 359 354 31 83 39 244 15 335 -51 197 -202 352 -405 415 -44 14 -101
18 -290 21 -129 1 -258 -1 -286 -5z m599 -178 c179 -85 281 -274 250 -459 -34
-198 -181 -338 -382 -365 -119 -16 -450 -6 -517 15 -118 37 -226 138 -275 256
-19 45 -23 74 -23 160 -1 98 1 110 31 173 56 117 174 218 289 246 22 5 156 9
299 8 l260 -2 68 -32z"/>
</g>
</svg>
