<?xml version="1.0" standalone="no"?>
<!DOCTYPE svg PUBLIC "-//W3C//DTD SVG 20010904//EN"
 "http://www.w3.org/TR/2001/REC-SVG-20010904/DTD/svg10.dtd">
<svg version="1.0" xmlns="http://www.w3.org/2000/svg"
 width="300.000000pt" height="300.000000pt" viewBox="0 0 300.000000 300.000000"
 preserveAspectRatio="xMidYMid meet">
<metadata>
Created by potrace 1.11, written by Peter Selinger 2001-2013
</metadata>
<g transform="translate(0.000000,300.000000) scale(0.100000,-0.100000)"
fill="#000000" stroke="none">
<path d="M1437 2838 c-7 -4 -20 -8 -30 -8 -10 0 -46 -11 -80 -24 -35 -14 -93
-26 -134 -29 -39 -3 -81 -10 -92 -17 -12 -6 -21 -8 -21 -5 0 3 -10 0 -22 -7
-13 -7 -26 -11 -30 -10 -5 1 -8 -2 -8 -8 0 -6 -4 -9 -9 -8 -4 2 -30 -12 -56
-31 -27 -19 -71 -46 -98 -59 -63 -32 -173 -135 -223 -210 -22 -31 -41 -59 -44
-62 -9 -9 -51 -99 -50 -106 1 -4 -2 -10 -7 -13 -11 -7 -50 -138 -59 -195 -9
-60 -12 -75 -19 -86 -3 -6 0 -10 7 -10 9 0 9 -3 2 -8 -15 -10 -8 -206 11 -292
3 -14 10 -50 16 -80 6 -30 15 -60 20 -66 5 -6 6 -14 2 -17 -3 -4 -1 -12 4 -19
6 -7 16 -31 23 -53 20 -61 102 -199 156 -262 11 -12 26 -30 34 -40 8 -10 33
-41 55 -68 95 -118 284 -322 473 -508 l112 -112 128 -1 c70 0 134 3 143 7 33
16 417 415 534 554 28 33 53 62 56 65 4 3 45 56 91 117 72 96 148 224 154 258
1 6 9 30 18 55 36 107 59 255 59 385 0 115 -11 185 -45 295 -25 82 -60 156
-104 221 -19 28 -34 54 -34 58 0 15 -183 181 -206 187 -13 3 -24 10 -24 15 0
5 -8 9 -17 9 -10 1 -34 14 -53 30 -19 17 -40 30 -47 30 -7 0 -13 4 -13 8 0 11
-117 52 -161 56 -20 2 -40 5 -45 8 -5 3 -18 2 -29 -2 -12 -5 -33 -1 -55 10
-46 23 -137 50 -144 43 -3 -4 -6 0 -6 8 0 11 -2 11 -10 -1 -5 -8 -10 -10 -10
-4 0 13 -93 14 -113 2z"/>
<path d="M1369 358 c-9 -17 -3 -48 10 -48 4 0 8 -6 9 -12 2 -27 19 -85 33
-114 9 -18 19 -20 87 -19 72 1 78 2 90 27 6 14 13 38 14 52 1 14 6 26 10 26 4
0 8 7 8 15 0 9 7 26 15 38 28 43 9 51 -135 51 -114 1 -133 -1 -141 -16z"/>
<path d="M1709 329 c-53 -57 -6 -148 69 -135 45 7 71 32 76 75 9 76 -91 118
-145 60z"/>
</g>
</svg>
