<?xml version="1.0" standalone="no"?>
<!DOCTYPE svg PUBLIC "-//W3C//DTD SVG 20010904//EN"
 "http://www.w3.org/TR/2001/REC-SVG-20010904/DTD/svg10.dtd">
<svg version="1.0" xmlns="http://www.w3.org/2000/svg"
 width="16.000000pt" height="16.000000pt" viewBox="0 0 16.000000 16.000000"
 preserveAspectRatio="xMidYMid meet">
<metadata>
Created by potrace 1.11, written by Peter Selinger 2001-2013
</metadata>
<g transform="translate(0.000000,16.000000) scale(0.001980,-0.001980)"
fill="#000000" stroke="none">
<path d="M1138 7585 c-1 -2 -39 -6 -83 -10 -44 -4 -82 -9 -85 -10 -3 -2 -44
-7 -90 -10 -47 -4 -87 -8 -90 -10 -12 -7 -179 -19 -265 -19 -85 0 -181 8 -234
19 -56 11 -123 -44 -124 -102 -1 -61 4 -81 29 -119 42 -64 104 -100 224 -128
200 -46 320 -58 576 -59 l153 -1 -15 -28 c-15 -29 -372 -624 -479 -798 -32
-52 -88 -144 -125 -205 -81 -133 -236 -383 -299 -483 -80 -127 -90 -147 -106
-210 -19 -73 -13 -128 16 -155 52 -49 465 -152 764 -192 28 -3 61 -8 75 -10
14 -2 57 -7 95 -10 39 -3 84 -8 100 -10 17 -2 53 -7 80 -10 28 -3 67 -8 88
-11 163 -25 231 -3 279 90 36 71 18 159 -44 211 -44 37 -74 42 -97 14 -15 -19
-27 -22 -73 -21 -31 1 -69 3 -84 6 -16 3 -58 10 -94 16 -113 19 -122 21 -280
59 -85 21 -209 49 -275 62 -66 13 -121 24 -123 25 -13 7 257 544 383 759 48
83 96 166 107 185 23 39 80 130 109 172 11 15 19 29 19 32 0 23 346 497 399
546 67 62 107 143 117 232 3 35 -1 61 -17 97 -25 60 -35 69 -80 77 -36 7 -445
15 -451 9z"/>
<path d="M2922 7380 c-62 -22 -128 -67 -171 -116 -27 -30 -31 -42 -25 -63 11
-38 13 -198 4 -256 -4 -27 -11 -72 -14 -100 -4 -27 -8 -61 -11 -75 -3 -14 -7
-38 -9 -55 -14 -88 -64 -363 -71 -385 -2 -8 -7 -40 -10 -70 -4 -30 -8 -57 -10
-60 -1 -3 -6 -30 -9 -61 -4 -31 -8 -65 -10 -75 -4 -18 -14 -104 -21 -169 -20
-180 -23 -214 -24 -272 -1 -34 -13 -60 -70 -145 -171 -256 -327 -344 -372
-210 -20 60 -17 372 6 513 2 13 6 47 9 74 4 28 8 64 10 80 2 17 7 61 11 98 3
37 8 78 11 90 11 56 5 225 -9 259 -19 44 -69 83 -127 99 -124 33 -280 -46
-234 -117 16 -24 18 -146 3 -214 -4 -19 -10 -60 -13 -90 -4 -30 -8 -66 -10
-80 -3 -14 -10 -65 -16 -115 -6 -49 -14 -101 -16 -115 -9 -52 -19 -259 -18
-361 3 -239 86 -394 222 -415 131 -20 207 2 337 98 75 56 123 103 198 198 33
41 63 76 67 78 3 1 6 -10 6 -25 0 -16 3 -57 8 -93 24 -196 98 -327 209 -371
225 -89 512 166 783 695 l83 162 17 -40 c9 -23 22 -54 29 -71 79 -189 133
-301 208 -430 53 -92 80 -117 152 -144 71 -27 172 -54 200 -54 71 1 75 3 105
51 43 66 191 368 235 480 13 30 23 42 39 43 108 4 198 31 281 83 28 18 55 35
60 38 6 4 10 -22 10 -70 3 -373 170 -631 452 -697 167 -40 372 39 542 207 154
153 296 358 415 603 46 94 127 261 181 372 l98 201 36 -5 c20 -2 41 -6 47 -8
8 -2 6 -32 -7 -100 -10 -53 -21 -115 -24 -138 -3 -23 -8 -53 -10 -67 -27 -175
-35 -393 -20 -532 18 -163 81 -312 170 -403 113 -116 282 -153 411 -90 57 28
154 110 216 183 22 26 50 59 62 74 87 102 230 341 333 558 100 207 105 220
100 235 -6 14 -75 19 -94 7 -7 -4 -43 -70 -81 -147 -147 -296 -338 -596 -452
-706 -97 -95 -152 -80 -175 47 -12 63 -13 307 -1 414 3 19 7 71 11 114 4 44 8
87 10 95 3 18 12 97 21 186 3 33 7 71 9 85 4 24 15 115 21 175 2 17 4 64 5
105 1 71 0 75 -30 102 -49 44 -96 42 -323 -14 -92 -23 -170 -39 -174 -36 -3 4
6 42 20 85 39 117 54 192 52 266 -2 82 -26 112 -96 125 -93 16 -192 -12 -251
-72 -57 -58 -74 -102 -74 -196 0 -109 30 -175 113 -251 31 -29 55 -57 53 -63
-2 -6 -4 -15 -6 -21 -7 -30 -149 -335 -220 -471 -126 -244 -252 -438 -374
-574 -76 -85 -115 -116 -178 -140 -42 -16 -53 -16 -86 -5 -48 16 -71 46 -96
122 -42 126 -58 236 -66 451 -4 93 -2 122 8 122 33 0 183 89 247 148 158 144
216 335 147 486 -50 108 -140 167 -262 172 -168 5 -321 -81 -452 -257 -78
-103 -156 -276 -184 -404 -12 -55 -19 -67 -88 -136 -79 -79 -164 -129 -248
-147 l-41 -9 19 56 c70 200 109 401 105 541 -2 87 -7 114 -28 160 -45 99 -121
144 -241 142 -143 -3 -232 -99 -262 -284 -37 -233 25 -503 145 -633 l28 -30
-42 -126 c-58 -171 -57 -169 -89 -127 -62 81 -211 409 -301 662 -101 282 -132
451 -92 495 14 15 13 20 -2 43 -81 122 -272 144 -388 44 l-39 -34 0 -78 c0
-44 3 -99 7 -124 4 -25 10 -61 13 -80 6 -32 68 -277 97 -376 11 -41 11 -42
-95 -255 -154 -309 -280 -504 -358 -556 -95 -63 -157 -9 -175 155 -11 103 -5
379 11 532 2 19 7 64 10 99 3 35 8 78 10 95 9 74 17 133 20 156 2 14 7 49 10
79 4 30 8 63 11 74 2 11 8 57 14 101 6 45 17 119 25 166 13 80 17 105 31 198
3 20 9 62 14 92 5 30 12 75 15 100 37 285 38 320 12 383 -29 67 -96 88 -185
57z m3733 -680 c12 -20 -51 -213 -67 -203 -17 9 -4 157 16 187 17 27 40 34 51
16z m-915 -320 c25 -14 38 -64 34 -131 -8 -102 -86 -222 -194 -295 -68 -46
-81 -49 -76 -16 2 15 7 47 11 72 10 73 47 223 63 255 26 53 64 97 96 111 38
16 43 17 66 4z m-1225 -238 c-4 -30 -14 -89 -20 -112 0 -3 -9 -46 -20 -97 -10
-52 -23 -89 -28 -86 -6 4 -7 58 -4 137 6 129 24 212 50 228 17 10 28 -25 22
-70z"/>
<path d="M1935 7186 c-126 -40 -189 -124 -155 -207 35 -83 250 -151 336 -106
35 18 83 71 85 93 1 8 2 20 3 27 4 29 -28 99 -65 141 -56 63 -118 79 -204 52z"/>
<path d="M2689 4589 c-3 -41 0 -101 5 -106 3 -3 10 6 15 20 12 32 35 45 86 47
90 4 82 26 80 -202 -2 -253 0 -237 -31 -249 -41 -15 -23 -21 67 -22 61 -1 84
2 87 12 3 8 0 11 -6 7 -13 -8 -42 20 -43 42 -1 9 -2 106 -3 214 l-1 196 47 4
c66 4 102 -7 118 -37 21 -39 31 -30 28 28 -3 46 -5 51 -23 47 -36 -8 -390 -5
-407 4 -13 6 -18 4 -19 -5z"/>
<path d="M6240 4592 c-91 -12 -174 -70 -215 -151 -22 -44 -26 -133 -9 -192 17
-59 81 -131 140 -158 97 -46 221 -24 302 53 56 52 76 101 76 186 0 84 -19 132
-73 186 -52 53 -148 86 -221 76z m110 -42 c142 -73 144 -354 3 -437 -36 -21
-53 -25 -97 -21 -68 6 -109 35 -143 101 -45 90 -35 235 22 312 44 61 144 81
215 45z"/>
<path d="M1577 4557 c-12 -28 -100 -284 -102 -297 -11 -60 -56 -147 -83 -159
-13 -7 -22 -14 -19 -17 5 -5 77 -8 122 -4 19 1 19 2 -2 12 -33 16 -34 32 -8
110 14 40 25 74 25 76 0 1 36 2 79 2 l79 0 23 -67 c32 -94 33 -104 9 -110 -21
-5 -28 -22 -10 -24 6 0 39 -1 75 -1 92 0 97 1 90 12 -4 6 -10 8 -15 5 -23 -14
-52 47 -118 246 -40 118 -75 220 -80 228 -4 8 -18 16 -30 18 -17 2 -25 -5 -35
-30z m48 -145 c12 -37 26 -74 29 -82 5 -13 -5 -15 -64 -15 -56 0 -69 3 -65 14
3 7 17 51 32 97 30 93 31 93 68 -14z"/>
<path d="M4706 4580 c-44 -14 -102 -58 -130 -98 -25 -37 -53 -137 -50 -179 7
-105 71 -187 170 -218 63 -20 240 -23 258 -5 5 5 9 48 10 95 1 89 9 105 49
105 10 0 16 4 13 9 -3 4 -51 8 -106 8 -55 0 -100 -4 -100 -8 0 -5 9 -9 19 -9
36 0 51 -27 51 -93 0 -34 -4 -68 -8 -75 -5 -6 -30 -14 -58 -16 -121 -10 -214
96 -215 247 -2 132 72 227 176 227 72 0 147 -53 160 -112 11 -48 23 -22 24 51
l1 68 -43 1 c-23 0 -76 2 -117 6 -41 3 -88 1 -104 -4z"/>
<path d="M0 4572 c0 -6 11 -13 25 -16 29 -7 27 10 29 -226 2 -205 -5 -238 -47
-231 -5 1 -7 -4 -5 -11 4 -10 58 -13 158 -9 26 1 26 21 1 21 -26 0 -38 41 -35
125 1 39 2 73 3 78 2 12 50 8 80 -8 17 -8 54 -53 90 -109 34 -52 66 -98 72
-101 15 -10 99 -12 105 -4 2 5 -8 15 -23 23 -15 8 -48 47 -73 86 -25 40 -57
86 -72 103 l-27 31 28 17 c41 25 61 58 61 102 0 58 -21 92 -75 120 -34 17
-295 25 -295 9z m234 -27 c20 -9 42 -28 51 -45 44 -85 -12 -169 -113 -166
l-46 1 -1 105 c-1 58 0 108 2 113 7 12 69 8 107 -8z"/>
<path d="M730 4570 c0 -5 6 -10 14 -10 34 0 40 -28 41 -213 1 -225 -1 -235
-31 -243 -25 -6 -33 -23 -11 -25 16 -1 330 -1 339 0 8 1 28 67 28 90 0 8 -15
-3 -33 -23 -31 -37 -34 -38 -107 -41 -119 -4 -118 -4 -116 112 l1 98 83 -1
c82 -1 92 -4 105 -39 10 -26 18 9 15 66 -3 59 -4 62 -15 37 -14 -32 -34 -38
-125 -36 l-67 1 1 103 0 103 42 3 c22 2 67 1 99 0 53 -4 60 -7 78 -35 l19 -32
0 48 0 47 -180 0 c-113 0 -180 -4 -180 -10z"/>
<path d="M2120 4572 c0 -4 10 -12 22 -17 31 -14 34 -38 33 -244 l-1 -184 -30
-23 c-16 -13 -27 -24 -24 -25 7 -1 331 -1 348 0 13 1 25 26 37 79 9 43 -8 41
-24 -3 -15 -42 -47 -53 -146 -49 -47 2 -73 7 -80 17 -7 9 -10 86 -10 210 1
199 6 227 41 227 8 0 14 5 14 10 0 6 -37 10 -90 10 -49 0 -90 -3 -90 -8z"/>
<path d="M3380 4575 c0 -2 15 -11 33 -20 28 -14 83 -86 133 -176 7 -12 17 -26
23 -32 14 -14 15 -201 1 -228 -6 -10 -20 -19 -30 -19 -25 0 -27 -20 -2 -21 24
-1 134 -1 150 0 19 2 14 15 -10 26 -20 9 -24 20 -28 75 -10 129 -5 148 73 267
51 77 78 109 95 111 50 7 18 22 -48 22 -40 0 -70 -4 -70 -10 0 -5 7 -10 15
-10 25 0 17 -39 -22 -104 -58 -97 -50 -96 -110 -5 -29 45 -52 87 -50 93 2 6
13 12 25 14 12 2 22 8 22 13 0 5 -45 9 -100 9 -55 0 -100 -2 -100 -5z"/>
<path d="M5290 4570 c0 -5 6 -10 14 -10 34 0 40 -28 41 -214 1 -204 -5 -246
-35 -246 -11 0 -20 -6 -20 -12 0 -12 28 -14 158 -9 26 1 30 21 4 21 -28 0 -40
37 -41 128 l-1 82 31 0 c50 0 82 -27 144 -121 32 -49 63 -93 70 -99 15 -12 91
-19 107 -9 8 5 3 12 -16 20 -16 8 -50 47 -84 98 -31 47 -64 94 -73 105 -17 18
-17 20 14 40 94 64 70 195 -42 226 -48 13 -271 13 -271 0z m253 -34 c44 -29
58 -95 32 -146 -19 -38 -45 -51 -110 -57 l-53 -5 0 117 0 117 52 -5 c29 -3 65
-12 79 -21z"/>
<path d="M6830 4571 c0 -5 11 -12 24 -15 13 -3 26 -15 29 -26 3 -11 5 -91 5
-179 -1 -175 9 -214 64 -254 57 -42 164 -37 225 9 36 27 54 25 46 -6 -3 -13 0
-20 8 -21 101 -7 144 2 98 20 -15 5 -29 19 -32 30 -10 39 -6 376 5 404 6 16
18 27 29 27 11 0 19 5 19 10 0 6 -37 10 -90 10 -53 0 -90 -4 -90 -10 0 -5 6
-10 14 -10 32 0 38 -28 38 -206 l1 -177 -31 -28 c-76 -68 -186 -57 -222 23
-13 29 -16 68 -15 196 1 163 8 192 41 192 8 0 14 5 14 10 0 6 -37 10 -90 10
-49 0 -90 -4 -90 -9z"/>
<path d="M7624 4571 c4 -6 14 -11 22 -11 8 0 19 -12 24 -26 11 -28 14 -382 4
-409 -4 -9 -18 -21 -33 -27 -22 -8 -23 -11 -9 -17 14 -5 97 -6 168 -2 8 1 0
10 -17 21 l-33 20 0 95 0 95 70 0 c39 0 72 0 75 0 3 0 18 6 34 15 100 51 95
178 -10 236 -31 17 -305 27 -295 10z m241 -28 c37 -16 61 -55 64 -105 2 -28
-4 -43 -27 -69 -24 -27 -37 -33 -84 -37 -35 -3 -58 0 -62 7 -4 6 -7 46 -7 89
0 146 -5 133 44 131 23 -1 56 -8 72 -16z"/>
<path d="M1245 3116 c-228 -49 -402 -210 -481 -446 -15 -42 -19 -85 -19 -186
l0 -130 -55 13 c-68 16 -208 10 -270 -11 -177 -62 -305 -187 -361 -354 -47
-138 -28 -321 45 -446 74 -127 218 -233 353 -261 60 -13 185 -13 237 -1 l55
13 -7 -31 c-4 -17 -6 -76 -6 -131 2 -164 63 -311 177 -427 126 -128 273 -191
452 -192 89 -1 145 8 218 33 190 66 334 216 403 421 26 79 26 271 0 360 -35
115 -92 207 -189 300 l-42 41 34 -6 c43 -7 114 -38 215 -92 65 -35 81 -40 95
-30 9 7 49 38 88 70 38 31 72 57 75 57 3 0 5 -21 5 -47 0 -58 12 -84 59 -119
92 -70 226 -5 228 111 l1 46 835 -6 c459 -3 1096 -8 1415 -10 764 -5 2324 -16
2593 -18 l212 -2 0 38 c0 36 1 37 38 37 31 0 42 -6 61 -31 58 -79 196 -89 268
-20 110 104 51 298 -96 318 -67 9 -107 -4 -158 -52 -35 -33 -55 -45 -78 -45
-29 0 -31 2 -30 38 l0 37 -224 2 c-123 1 -226 5 -230 8 -10 11 -7 174 4 178 5
2 114 3 241 1 l231 -2 -1 101 -1 101 -62 20 c-68 22 -71 26 -65 107 l4 47 61
19 62 20 3 254 2 254 -185 3 c-102 1 -186 -1 -186 -5 -1 -5 -3 -91 -4 -193 -1
-102 -3 -188 -4 -191 -1 -6 -192 -6 -226 -1 -6 1 -9 72 -7 197 l3 195 -144 0
c-130 0 -145 -2 -148 -17 -2 -10 -4 -98 -4 -195 0 -110 -4 -179 -10 -181 -18
-6 -215 0 -221 6 -4 3 -7 92 -7 197 l1 190 -57 1 c-59 1 -221 1 -282 0 l-36
-1 -1 -253 -1 -253 62 -20 62 -20 3 -66 3 -66 -63 -20 -63 -19 -3 -102 -3
-101 168 -1 c92 0 201 0 241 0 l72 1 0 -94 0 -95 -1542 4 c-849 3 -1760 5
-2025 5 l-482 0 5 38 c11 94 -94 174 -190 142 -56 -18 -89 -61 -94 -125 -2
-30 -7 -55 -11 -55 -9 0 -24 11 -76 55 -27 22 -59 50 -73 61 l-26 21 -100 -53
c-95 -49 -211 -92 -222 -81 -3 3 13 20 36 38 86 69 164 197 197 323 16 61 22
210 11 273 -43 238 -249 454 -483 506 -78 18 -204 19 -280 3z m248 -197 c153
-40 294 -191 322 -344 41 -225 -93 -442 -316 -510 l-56 -18 2 -53 1 -54 -36 0
c-29 0 -39 6 -53 30 -19 31 -80 68 -107 65 -8 -1 -23 -3 -32 -3 -10 -1 -33
-16 -52 -32 -98 -87 -90 -287 15 -358 27 -19 43 -23 79 -19 37 4 51 12 81 46
28 31 44 41 68 41 28 0 31 -3 32 -32 1 -18 0 -43 0 -55 -2 -16 5 -23 31 -28
63 -13 160 -69 212 -122 241 -242 134 -641 -197 -740 -194 -57 -427 50 -514
237 -38 82 -45 110 -44 187 1 105 31 197 92 274 l29 37 -77 69 c-118 104 -103
100 -158 48 -77 -71 -124 -89 -230 -90 -68 0 -101 5 -135 20 -141 61 -226 205
-208 353 14 116 75 206 180 263 59 32 68 34 158 34 112 -1 159 -19 235 -90 27
-25 51 -45 53 -45 4 0 182 152 182 156 0 1 -18 28 -39 60 -50 76 -72 142 -76
228 -5 125 42 241 132 331 112 111 274 155 426 114z"/>
</g>
</svg>
