<?xml version="1.0" standalone="no"?>
<!DOCTYPE svg PUBLIC "-//W3C//DTD SVG 20010904//EN"
 "http://www.w3.org/TR/2001/REC-SVG-20010904/DTD/svg10.dtd">
<svg version="1.0" xmlns="http://www.w3.org/2000/svg"
 width="300.000000pt" height="300.000000pt" viewBox="0 0 300.000000 300.000000"
 preserveAspectRatio="xMidYMid meet">
<metadata>
Created by potrace 1.11, written by Peter Selinger 2001-2013
</metadata>
<g transform="translate(0.000000,300.000000) scale(0.100000,-0.100000)"
fill="#000000" stroke="none">
<path d="M1385 2759 c-203 -73 -408 -165 -545 -244 -70 -41 -252 -156 -260
-165 -3 -3 -40 -31 -82 -63 -96 -71 -209 -169 -295 -256 -73 -73 -183 -198
-183 -207 0 -6 23 10 48 33 7 7 64 51 126 97 260 194 514 346 741 444 83 35
241 92 259 92 8 0 11 -42 11 -159 0 -88 -3 -162 -5 -165 -3 -2 -41 -18 -85
-36 -228 -90 -553 -296 -734 -464 -67 -63 -197 -198 -223 -231 l-23 -30 30 23
c90 68 275 201 305 219 197 120 311 179 465 243 55 22 101 41 103 40 1 0 32 8
68 20 107 33 99 44 99 -147 l0 -167 -25 -7 c-59 -16 -193 -75 -300 -131 -180
-94 -334 -204 -473 -337 -68 -65 -166 -176 -137 -155 8 6 42 31 75 55 185 138
425 265 641 338 93 31 196 61 211 61 4 0 8 -77 8 -172 l0 -172 -108 -37 c-274
-95 -550 -276 -690 -452 -30 -38 -28 -38 65 25 164 111 396 213 597 263 53 13
105 25 116 27 18 3 19 -4 20 -165 0 -93 -3 -171 -7 -173 -5 -3 -21 -7 -36 -10
-185 -31 -401 -125 -567 -245 -74 -54 -175 -139 -164 -139 3 0 43 16 89 36
138 58 374 135 459 150 14 3 54 11 88 19 35 8 91 17 125 21 35 3 66 8 69 10 4
2 52 4 108 5 l101 1 0 1169 c0 643 -1 1168 -2 1168 -2 -1 -39 -14 -83 -30z"/>
<path d="M1531 1619 l0 -1169 102 -1 c56 0 111 -2 122 -4 11 -2 40 -7 65 -10
25 -3 52 -8 60 -10 8 -2 32 -6 52 -9 93 -14 388 -102 521 -157 39 -16 75 -25
79 -21 3 4 13 35 21 69 l14 63 -105 40 c-178 69 -482 155 -619 176 l-42 6 0
1032 c1 567 1 1038 0 1047 -1 17 -39 35 -188 88 l-82 29 0 -1169z"/>
<path d="M2039 2568 c0 -2 -2 -404 -5 -894 l-4 -891 58 -13 c31 -8 65 -15 74
-17 28 -5 339 -90 408 -112 35 -11 65 -19 66 -18 1 1 46 148 99 327 177 598
248 835 252 852 6 19 -37 68 -174 204 -177 176 -444 383 -630 489 -10 6 -43
25 -74 43 -52 29 -68 36 -70 30z"/>
</g>
</svg>
