<?xml version="1.0" standalone="no"?>
<!DOCTYPE svg PUBLIC "-//W3C//DTD SVG 20010904//EN"
 "http://www.w3.org/TR/2001/REC-SVG-20010904/DTD/svg10.dtd">
<svg version="1.0" xmlns="http://www.w3.org/2000/svg"
 width="300.000000pt" height="300.000000pt" viewBox="0 0 300.000000 300.000000"
 preserveAspectRatio="xMidYMid meet">
<metadata>
Created by potrace 1.11, written by Peter Selinger 2001-2013
</metadata>
<g transform="translate(0.000000,300.000000) scale(0.100000,-0.100000)"
fill="#000000" stroke="none">
<path d="M0 1500 l0 -1500 439 0 439 0 49 58 c26 31 53 62 59 67 6 6 36 40 68
77 l58 68 -420 0 -420 0 2 1228 1 1227 640 2 c352 1 647 2 656 2 13 1 147 149
228 254 13 16 -31 17 -893 17 l-906 0 0 -1500z"/>
<path d="M1983 2867 c-61 -73 -110 -134 -107 -136 2 -2 195 -4 429 -4 l425 0
0 -1228 0 -1229 -662 0 -663 0 -80 -97 c-44 -53 -87 -103 -95 -112 -8 -9 -24
-26 -34 -38 l-19 -23 911 0 912 0 0 1500 0 1500 -452 -1 -453 -1 -112 -131z"/>
<path d="M470 2360 l0 -170 329 0 329 0 134 158 c74 86 138 163 142 170 6 9
-90 12 -463 12 l-471 0 0 -170z"/>
<path d="M1690 2523 c0 -5 -10 -19 -23 -33 -13 -14 -93 -109 -180 -212 l-156
-186 0 -559 c0 -307 -1 -596 -1 -643 l0 -85 -430 0 -430 1 0 -167 c0 -125 3
-168 13 -171 6 -2 188 -4 403 -3 331 0 393 3 405 15 8 8 97 110 197 227 l182
212 0 636 0 635 429 0 c334 0 430 3 433 13 2 6 4 82 4 167 l-1 155 -422 3
c-233 1 -423 -1 -423 -5z"/>
<path d="M1828 1493 c-9 -2 -23 -15 -32 -28 -30 -45 4 -105 58 -105 31 0 62
24 68 52 5 29 -14 69 -38 78 -26 10 -28 11 -56 3z"/>
<path d="M1851 790 c-22 -23 -68 -76 -126 -145 -27 -33 -58 -69 -68 -80 -43
-47 -77 -94 -70 -97 7 -3 908 -2 938 1 7 1 10 62 10 169 l0 167 -335 1 c-296
0 -336 -2 -349 -16z"/>
</g>
</svg>
