<?xml version="1.0" standalone="no"?>
<!DOCTYPE svg PUBLIC "-//W3C//DTD SVG 20010904//EN"
 "http://www.w3.org/TR/2001/REC-SVG-20010904/DTD/svg10.dtd">
<svg version="1.0" xmlns="http://www.w3.org/2000/svg"
 width="300.000000pt" height="300.000000pt" viewBox="0 0 300.000000 300.000000"
 preserveAspectRatio="xMidYMid meet">
<metadata>
Created by potrace 1.11, written by Peter Selinger 2001-2013
</metadata>
<g transform="translate(0.000000,300.000000) scale(0.100000,-0.100000)"
fill="#000000" stroke="none">
<path d="M2632 2910 c-65 -35 -118 -69 -156 -100 -45 -37 -175 -170 -211 -215
-22 -27 -47 -57 -55 -65 -8 -8 -33 -37 -55 -65 -22 -27 -45 -54 -51 -60 -6 -5
-32 -38 -58 -73 -39 -51 -51 -61 -62 -51 -11 9 -14 8 -14 -2 0 -9 -3 -10 -8
-4 -4 6 -25 11 -47 12 -45 3 -98 9 -135 17 -23 5 -188 18 -240 19 -35 0 -190
-12 -220 -18 -13 -3 -42 -7 -65 -10 -22 -3 -51 -8 -65 -10 -14 -2 -47 -7 -74
-10 -27 -3 -53 -8 -57 -10 -4 -3 -33 25 -65 63 -66 75 -277 288 -400 403 -83
77 -158 126 -228 149 -48 16 -154 22 -162 9 -3 -5 -9 -7 -13 -4 -13 8 -66 -47
-85 -89 -18 -39 -25 -149 -13 -206 3 -14 12 -61 22 -105 9 -44 22 -99 30 -122
16 -47 25 -86 44 -188 21 -114 69 -288 110 -405 43 -122 53 -173 56 -280 7
-247 16 -335 60 -565 32 -169 120 -326 219 -390 25 -17 26 -20 12 -31 -14 -10
-12 -11 16 -10 18 1 44 -5 58 -13 13 -9 25 -15 27 -13 8 6 22 0 44 -19 53 -45
67 -55 104 -74 21 -11 49 -30 61 -42 13 -13 26 -23 30 -23 4 0 18 -10 30 -21
18 -17 21 -26 13 -40 -5 -11 -8 -19 -7 -20 24 -6 39 -6 43 2 4 5 17 2 30 -7
14 -9 23 -20 20 -24 -3 -4 7 -7 21 -7 13 0 32 -7 42 -15 24 -20 198 -103 247
-118 22 -7 49 -16 61 -20 38 -14 118 -2 198 29 76 31 106 46 211 108 28 16 82
44 120 63 69 33 189 105 211 125 34 31 97 80 103 80 4 0 19 12 34 27 34 34 82
60 92 50 5 -4 5 -2 2 5 -7 11 19 26 113 67 19 8 42 21 50 28 60 52 136 196
155 293 19 102 8 342 -29 580 -16 105 -14 207 4 250 7 17 14 32 15 35 1 3 9
22 19 43 16 36 43 140 52 202 4 29 9 68 19 170 3 28 9 66 15 85 6 19 13 55 16
80 3 25 8 48 10 51 1 3 6 39 9 80 4 41 11 92 17 114 15 58 18 154 6 201 -9 40
-61 116 -76 112 -4 -1 -22 6 -40 15 -47 26 -102 19 -180 -23z"/>
</g>
</svg>
