<?xml version="1.0" standalone="no"?>
<!DOCTYPE svg PUBLIC "-//W3C//DTD SVG 20010904//EN"
 "http://www.w3.org/TR/2001/REC-SVG-20010904/DTD/svg10.dtd">
<svg version="1.0" xmlns="http://www.w3.org/2000/svg"
 width="16.000000pt" height="16.000000pt" viewBox="0 0 16.000000 16.000000"
 preserveAspectRatio="xMidYMid meet">
<metadata>
Created by potrace 1.11, written by Peter Selinger 2001-2013
</metadata>
<g transform="translate(0.000000,16.000000) scale(0.004819,-0.004819)"
fill="#000000" stroke="none">
<path d="M1070 2530 c-383 -6 -421 -8 -493 -28 -128 -35 -205 -87 -282 -188
-68 -89 -93 -241 -59 -369 40 -156 155 -267 320 -309 78 -20 251 -20 359 -1
44 8 81 15 83 15 2 0 2 -141 0 -312 -3 -275 -5 -317 -21 -348 -24 -49 -62 -68
-146 -76 -60 -6 -71 -10 -71 -25 0 -18 16 -19 365 -19 352 0 365 1 365 19 0
16 -10 20 -62 26 -79 9 -133 36 -155 78 -16 28 -18 69 -21 360 l-3 327 380 0
381 0 0 -322 c0 -288 -2 -327 -18 -358 -25 -50 -70 -76 -147 -85 -55 -6 -65
-10 -65 -26 0 -18 12 -19 350 -19 336 0 350 1 350 19 0 15 -10 20 -57 26 -72
9 -111 25 -142 59 -21 22 -25 40 -32 123 -7 88 -13 553 -6 553 1 0 38 -7 82
-15 106 -19 285 -19 358 0 139 36 234 111 294 233 38 75 38 77 38 197 0 117
-1 123 -34 189 -61 124 -167 206 -318 248 -72 20 -109 22 -481 27 l-402 6 0
-22 c0 -21 5 -23 53 -23 64 0 129 -28 154 -66 16 -25 18 -58 21 -346 l3 -318
-381 0 -382 0 4 313 c3 279 5 316 21 345 24 44 85 71 160 72 54 0 57 1 57 25
0 14 -1 24 -2 23 -2 -1 -190 -5 -418 -8z m-101 -110 l26 -6 3 -351 2 -351
-101 -13 c-79 -10 -114 -10 -158 -1 -147 31 -251 176 -251 350 0 202 111 353
279 382 46 8 153 3 200 -10z m1565 -7 c70 -23 156 -109 187 -188 20 -50 24
-78 24 -175 0 -103 -3 -121 -26 -170 -31 -66 -98 -135 -159 -164 -37 -17 -62
-21 -140 -20 -52 1 -113 6 -135 11 l-40 9 1 314 c0 173 3 332 7 352 7 35 10
37 60 47 64 12 156 5 221 -16z"/>
</g>
</svg>
