<?xml version="1.0" standalone="no"?>
<!DOCTYPE svg PUBLIC "-//W3C//DTD SVG 20010904//EN"
 "http://www.w3.org/TR/2001/REC-SVG-20010904/DTD/svg10.dtd">
<svg version="1.0" xmlns="http://www.w3.org/2000/svg"
 width="16.000000pt" height="16.000000pt" viewBox="0 0 16.000000 16.000000"
 preserveAspectRatio="xMidYMid meet">
<metadata>
Created by potrace 1.11, written by Peter Selinger 2001-2013
</metadata>
<g transform="translate(0.000000,16.000000) scale(0.005517,-0.005517)"
fill="#000000" stroke="none">
<path d="M1110 2449 c-190 -109 -352 -203 -360 -209 -14 -9 -107 -62 -175
-100 -16 -10 -53 -31 -81 -47 -27 -17 -72 -43 -99 -58 -63 -35 -308 -177 -315
-183 -5 -4 -9 -1622 -4 -1622 4 0 103 57 419 240 121 70 236 137 255 148 19
11 94 53 165 95 l130 75 5 252 5 253 201 117 201 117 204 -119 205 -118 -1
-249 0 -249 485 -280 c266 -155 486 -279 488 -277 2 1 3 364 3 806 l0 803 -23
17 c-13 9 -201 119 -418 244 -477 274 -639 367 -790 455 -63 37 -124 72 -135
78 -17 8 -74 -21 -365 -189z m483 70 c67 -40 138 -81 157 -92 113 -64 917
-527 975 -562 l70 -41 2 -762 1 -762 -56 32 c-32 17 -64 36 -73 41 -14 9 -16
78 -17 676 0 366 -1 673 -1 681 -1 8 -20 26 -44 39 -23 13 -281 163 -574 332
-293 170 -543 314 -556 320 -22 10 -43 0 -188 -83 -90 -52 -330 -191 -534
-308 -203 -118 -398 -230 -432 -249 l-63 -36 0 -680 0 -680 -67 -38 c-36 -21
-69 -33 -72 -28 -7 10 -7 1498 0 1505 4 4 482 281 664 385 50 28 97 55 105 60
8 5 94 55 190 110 96 56 216 125 265 155 50 30 98 55 108 55 9 1 72 -31 140
-70z m201 -331 c305 -177 600 -348 754 -436 l62 -36 0 -654 0 -653 -67 37
c-38 21 -70 39 -73 41 -3 3 -5 261 -5 575 l0 570 -125 73 c-69 39 -224 129
-345 200 -121 70 -238 138 -260 150 -22 13 -95 54 -161 93 l-122 70 -353 -205
c-195 -113 -421 -244 -504 -292 l-150 -87 -3 -575 -3 -574 -64 -36 c-39 -23
-65 -32 -67 -25 -3 6 -4 299 -4 651 l1 639 125 73 c477 280 1016 592 1024 592
5 1 158 -85 340 -191z m-94 -158 c134 -77 247 -140 252 -140 4 0 8 -4 8 -10 0
-5 4 -10 9 -10 5 0 109 -58 232 -129 l224 -129 0 -546 c1 -300 0 -546 -2 -546
-8 0 -129 75 -135 84 -3 5 -6 214 -6 464 0 249 -4 457 -8 462 -11 10 -768 448
-799 462 -19 9 -77 -22 -432 -227 l-409 -237 1 -462 c0 -399 -2 -462 -15 -472
-8 -6 -41 -25 -72 -43 l-58 -31 -2 541 c-3 441 -1 543 10 552 11 8 953 556
958 557 1 0 111 -63 244 -140z m150 -303 l385 -223 2 -437 c1 -240 -1 -437 -3
-437 -9 0 -89 43 -116 61 l-26 19 0 351 c0 285 -2 353 -13 363 -8 7 -142 86
-299 176 -157 90 -294 169 -305 176 -18 11 -34 4 -145 -59 -69 -40 -213 -123
-321 -185 l-196 -113 -1 -352 c0 -194 -1 -355 -1 -358 -1 -4 -32 -25 -71 -47
l-70 -40 0 438 0 438 388 225 c213 124 392 226 397 226 6 0 183 -100 395 -222z
m-124 -146 c142 -82 275 -157 294 -168 l35 -20 0 -331 0 -331 -70 39 -70 39
-5 251 -5 252 -220 129 c-121 71 -223 129 -228 129 -4 0 -89 -48 -190 -107
-100 -58 -199 -116 -219 -127 -20 -12 -38 -28 -40 -36 -2 -8 -3 -121 -3 -251
l1 -236 -71 -40 -70 -41 -3 326 c-1 215 1 329 8 336 16 16 573 335 586 336 6
0 127 -67 270 -149z"/>
</g>
</svg>
