<?xml version="1.0" encoding="utf-8"?>
<!-- Generator: Adobe Illustrator 21.1.0, SVG Export Plug-In . SVG Version: 6.00 Build 0)  -->
<svg version="1.1" id="Twitter" xmlns="http://www.w3.org/2000/svg" xmlns:xlink="http://www.w3.org/1999/xlink" x="0px" y="0px"
	 viewBox="0 0 131.9 50" style="enable-background:new 0 0 131.9 50;" xml:space="preserve">
<style type="text/css">
	.st0{fill:#084365;}
	.st1{fill:#999999;}
</style>
<title>Twitter</title>
<path class="st0" d="M36.8,0C23,0,11.9,11,11.8,24.7L0,27.2l12.7,4.6c2.8,9.8,11.3,17.1,21.8,18.1c0-4.1,0-11.5,0-18.1h-4.2v-8.5
	h4.2v-3.8c0-3.5,1.7-8.9,8.9-8.9l6.5,0v7.2c0,0-4,0-4.7,0c-0.8,0-1.9,0.4-1.9,2v3.4H50l0,8.5H43c0,6.2,0,13.3,0,17.5
	C53.8,46.5,61.8,36.7,61.8,25C61.8,11.2,50.6,0,36.8,0z"/>
<path class="st1" d="M107,0C93.2,0,82.1,11,82,24.7l-11.8,2.5l12.7,4.6c2.8,9.8,11.3,17.1,21.8,18.1c0-4.1,0-11.5,0-18.1h-4.2v-8.5
	h4.2v-3.8c0-3.5,1.7-8.9,8.9-8.9l6.5,0v7.2c0,0-4,0-4.7,0c-0.8,0-1.9,0.4-1.9,2v3.4h6.7l0,8.5h-7.1c0,6.2,0,13.3,0,17.5
	C123.9,46.5,132,36.7,132,25C132,11.2,120.8,0,107,0z"/>
</svg>
