<?xml version="1.0" standalone="no"?>
<!DOCTYPE svg PUBLIC "-//W3C//DTD SVG 20010904//EN"
 "http://www.w3.org/TR/2001/REC-SVG-20010904/DTD/svg10.dtd">
<svg version="1.0" xmlns="http://www.w3.org/2000/svg"
 width="16.000000pt" height="16.000000pt" viewBox="0 0 16.000000 16.000000"
 preserveAspectRatio="xMidYMid meet">
<metadata>
Created by potrace 1.11, written by Peter Selinger 2001-2013
</metadata>
<g transform="translate(0.000000,16.000000) scale(0.005333,-0.005333)"
fill="#000000" stroke="none">
<path d="M1325 2769 c-80 -12 -187 -36 -222 -51 -15 -6 -30 -12 -33 -13 -71
-24 -209 -96 -268 -139 -34 -25 -64 -46 -66 -46 -13 0 -203 -182 -236 -225
-149 -198 -238 -405 -270 -630 -24 -168 -1 -434 49 -575 111 -316 345 -581
646 -732 61 -31 133 -63 160 -72 213 -68 514 -74 744 -15 97 25 114 31 246 94
297 140 544 417 648 725 39 117 73 399 50 413 -15 9 -91 -60 -112 -102 -10
-20 -28 -71 -40 -114 -22 -81 -103 -244 -154 -312 -46 -61 -147 -162 -199
-201 -54 -40 -165 -87 -173 -73 -4 5 -3 9 2 9 4 0 14 13 21 30 8 16 45 64 84
107 38 42 82 95 97 118 45 68 63 141 42 174 -7 11 -14 9 -34 -11 -54 -54 -192
-149 -294 -204 -185 -99 -295 -230 -336 -404 l-22 -92 -80 6 c-103 7 -122 10
-230 34 -187 43 -288 86 -455 197 -79 52 -270 236 -270 259 0 8 -7 16 -15 20
-8 3 -15 10 -15 16 0 7 -16 36 -35 65 -54 81 -104 219 -133 365 -7 39 -8 294
0 325 3 11 10 47 17 80 66 319 252 583 528 748 184 110 410 184 618 202 67 6
77 9 62 20 -20 15 -231 18 -322 4z"/>
<path d="M1655 2525 c-122 -43 -158 -212 -65 -305 77 -77 194 -72 272 11 85
92 51 237 -67 290 -48 22 -86 23 -140 4z"/>
<path d="M2361 2463 c-70 -149 -241 -306 -446 -409 -60 -30 -114 -59 -118 -63
-4 -4 1 -31 12 -60 12 -28 24 -76 27 -107 4 -32 13 -58 20 -61 17 -6 122 52
199 111 144 110 273 270 316 390 31 89 51 266 30 266 -5 0 -23 -30 -40 -67z"/>
<path d="M979 2166 c-6 -6 -104 -18 -146 -17 -12 1 -25 -4 -28 -9 -3 -6 -17
-7 -31 -4 -15 4 -24 2 -24 -6 0 -7 -7 -10 -15 -6 -9 3 -23 1 -33 -4 -9 -5 -36
-14 -59 -20 -24 -6 -43 -14 -43 -19 0 -4 53 -11 117 -15 202 -12 460 -53 490
-78 7 -6 13 -7 13 -3 0 4 7 1 17 -6 9 -8 18 -13 20 -11 9 6 133 -58 165 -86
93 -83 114 -221 58 -391 -50 -150 -94 -248 -206 -458 -59 -109 -114 -209 -123
-223 -10 -14 -22 -36 -29 -50 -7 -14 -26 -49 -43 -79 -16 -29 -28 -55 -26 -57
20 -20 567 621 567 664 0 4 8 17 18 28 29 30 111 183 135 249 18 49 22 82 22
185 0 112 -2 130 -24 175 -32 64 -99 126 -183 170 -38 19 -68 32 -68 28 0 -3
-7 0 -15 7 -9 7 -18 10 -22 7 -3 -4 -12 -2 -20 5 -7 6 -16 8 -20 5 -3 -4 -12
-2 -19 4 -14 12 -435 26 -445 15z"/>
<path d="M1825 1598 c-3 -7 -14 -40 -25 -72 -11 -33 -36 -88 -54 -122 -34 -61
-34 -84 1 -84 20 0 80 -57 91 -87 26 -73 34 -112 26 -134 -4 -13 -9 -33 -10
-44 -3 -36 -32 -129 -59 -189 -14 -32 -23 -61 -20 -64 9 -9 81 65 170 176 105
130 175 269 183 358 8 110 -52 195 -174 242 -71 28 -123 36 -129 20z"/>
<path d="M2609 1460 c-47 -38 -65 -77 -89 -196 -11 -56 -32 -124 -49 -156 -30
-59 -27 -74 8 -39 29 29 47 68 90 194 42 125 68 180 80 173 4 -3 8 0 8 7 0 7
4 20 8 30 11 27 -16 21 -56 -13z"/>
<path d="M400 470 c0 -5 7 -10 15 -10 8 0 15 5 15 10 0 6 -7 10 -15 10 -8 0
-15 -4 -15 -10z"/>
</g>
</svg>
